<?xml version="1.0" encoding="UTF-8"?>
<svg xmlns="http://www.w3.org/2000/svg" viewBox="0 0 2048 1536">
  <g isolation="isolate">
    <g id="bg">
      <rect y="0" width="2048" height="1536" fill="#fff" mix-blend-mode="screen"/>
    </g>
    <g id="button">
      <path id="extrude" d="M1421.91,432.18c-5.19-5.19-25.85-25.85-31.04-31.04-97.99-97.99-228.28-151.96-366.86-151.96s-268.87,53.97-366.86,151.96-151.96,228.28-151.96,366.86,53.97,268.87,151.96,366.86c5.19,5.19,25.85,25.85,31.04,31.04,97.99,97.99,228.28,151.96,366.86,151.96s268.87-53.97,366.86-151.96,151.96-228.28,151.96-366.86-53.97-268.87-151.96-366.86ZM1024,1280h0c-282.77,0-512-229.23-512-512h0c0-282.77,229.23-512,512-512h0c282.77,0,512,229.23,512,512h0c0,282.77-229.23,512-512,512Z" fill="none" stroke="#283a97" stroke-miterlimit="10" stroke-width="2.32"/>
      <g id="logotype">
      <g id="logotype">
        <g id="logotype-color">
          <path d="M1348.446334486170599,744.946791334137743c-11.461560261550403-14.595497620059177-28.98963609347993-22.632383114680124-49.355795508410665-22.632383114680124-39.788678420829456,0-78.651622322799085,30.87433668822996-88.474793639008567,70.286638264020439l-7.375436137650468,29.595781795900621c-10.793670560340615,43.310378276790289-3.907065222760139,84.149240401889983,19.377754280640147,115.385566829500021-21.678661160240154,10.611827286069456-45.103146606481459,16.665793617199597-68.405871999990268,16.665793617199597-19.324036610320036,0-36.873599510399799-4.26184964101958-51.606565895659514-12.323699945269254.316934255019078-.249648096130841.628496742969219-.497512991560143.943640408968349-.748944288379789,37.022218398360565-29.536936173260983,63.186305031960728-68.979552160750245,73.666622515291238-111.036340354790809l40.7914082672105-162.585105803749684h81.10114809031802c8.607361377511552,0,15.585286754681874-6.949133075780992,15.585286754681874-15.520978776390621s-6.977925377170322-15.520978776388802-15.585286754681874-15.520978776388802h-73.312981185548779l2.364472789480715-9.424215628820093c5.10317868230959-20.481843086590743,1.348313525539197-40.73721968593054-10.303049171230668-55.571666198000457-11.461560261530394-14.595497620030073-28.98963609347993-22.632383114631011-49.355795508379742-22.632383114631011-39.788678420851284,0-78.651622322850017,30.87433668822996-88.462259515950791,70.236708644790269-.066251793410629.261016000511518-1.797751367368619,7.117979890810602-4.391419550289356,17.391556296661292h-197.993484633740081l2.372530440010451-9.424215628820093c5.10317868230959-20.481843086590743,1.348313525530102-40.73721968593054-10.30304917121066-55.571666198000457-11.461560261530394-14.595497620030073-28.989636093499939-22.632383114631011-49.355795508410665-22.632383114631011-39.788678420849465,0-78.649831733819155,30.87433668822996-88.453306570869245,70.21174383520156-.066251793430638.26112745051978-1.812076079469989,7.128901994969056-4.426336036030989,17.416521106250002h-66.926845476609742c-8.607361377489724,0-15.585286754649132,6.949133075779173-15.585286754649132,15.520978776388802s6.977925377159409,15.520978776390621,15.585286754649132,15.520978776390621h59.042882059729891c-7.189214880540021,28.315220802829572-15.211053651288239,59.94407428158047-17.105496825299269,67.547642009340052l-21.707310584379229,87.0968711368605c-10.793670560320606,43.30681187538903-3.905274633731096,84.14745720117935,19.375963691640209,115.382000428098763-21.678661160221964,10.613610486760081-45.101356017481521,16.665793617179588-68.404081410990329,16.665793617179588-9.11409806768097,0-16.50206832845106,7.357486033070018-16.50206832845106,16.433977527951356,0,9.076491494919537,7.387970260770089,16.433977527958632,16.50206832845106,16.433977527958632,31.240406480768797,0,63.20958268909817-8.812577793309174,92.704164883780322-25.248338521949336,22.133470769118503,16.441110330690208,50.147235851429286,25.250121722630865,81.4449411805399,25.250121722630865,31.24040648072878,0,63.213163867119874-8.814360993990704,92.707746061798389-25.250121722630865,22.133470769111227,16.441110330690208,50.145445262420253,25.248338521949336,81.443150591530866,25.248338521949336,31.240406480730599,0,63.209582689069066-8.812577793309174,92.704164883780322-25.248338521949336,22.133470769089399,16.441110330690208,50.147235851429286,25.250121722630865,81.444941180519891,25.250121722630865,31.240406480750607,0,63.211373278109022-8.814360993990704,92.705955472789356-25.250121722630865,22.133470769111227,16.441110330690208,50.145445262411158,25.248338521949336,81.443150591530866,25.248338521949336,9.114098067679151,0,16.502068328440146-7.357486033039095,16.502068328440146-16.433977527958632,0-9.076491494881338-7.387970260760994-16.433977527951356-16.502068328440146-16.433977527951356-19.324036610310941,0-36.871808921421689-4.26184964101958-51.602984717641448-12.321916744558621.313353076981002-.247864895440216.626706153940177-.497512991560143.940059230950283-.747161087710992,37.020427809311514-29.536936173239155,63.184514442929867-68.979552160710227,73.673784871340104-111.061305164379519l7.377226726681329-29.597564996609435c5.10317868230959-20.481843086599838,1.348313525530102-40.737219685970558-10.303049171230668-55.571666197971354ZM1112.059935565939668,627.087925152289245c6.123814418740949-24.574288662370236,31.970966797360234-45.336094256750584,56.441156226261228-45.336094256750584,9.991486683229596,0,18.28728557274917,3.555702169140204,23.360024241859719,10.012671855400185,5.430856471370134,6.917035463409775,6.947485363980377,16.649744811000346,4.272345381030391,27.381046543128832l-4.357398359081344,17.36659148704166h-82.095820286140224c1.439633565110853-5.704236096431487,2.33045159824178-9.229958204010472,2.379692796070231-9.424215628820093ZM763.928248215370331,627.087925152289245c6.123814418780967-24.574288662370236,31.970966797369329-45.336094256750584,56.439365637239462-45.336094256750584,9.991486683260518,0,18.289076161780031,3.555702169140204,23.360024241870633,10.012671855400185,5.430856471370134,6.917035463409775,6.947485363980377,16.649744811000346,4.275926559050276,27.36856413831083l-4.374408954670798,17.379073891859662h-82.096715580650198c1.448586510170571-5.700446794960953,2.344776310339512-9.225611652340376,2.395808097160625-9.424215628820093ZM728.519350516249688,920.386990887738648c-.16831536708014-.210417681009858-.336630734129358-.422618562719435-.503155512180456-.634819444430832-18.373233845308278-23.393809807828802-23.768278536459547-55.225725264768698-15.191357172159769-89.636148914589285l21.707310584381048-87.098654337520202c2.064549130080195-8.288093891360404,11.485733213219646-45.422245139949155,19.114537696010302-75.463269857309569h82.16923443557971l-38.924719222859494,154.642729945489918c-9.704992441431386,38.939753393869978-35.408897699129739,73.999262093630023-68.371850808771342,98.190162608359969ZM902.670247169560753,920.386990887738648c-.168315367060131-.212200881700483-.336630734129358-.42440176341006-.504946101189489-.636602645139646-18.371443256281054-23.393809807799698-23.768278536461366-55.227508465459323-15.191357172141579-89.636148914591104l7.377226726690424-29.595781795898802c6.123814418759139-24.57428866238115,31.970966797351139-45.336094256781507,56.439365637219453-45.336094256781507,9.991486683251424,0,18.287285572770998,3.555702169120195,23.360024241879728,10.012671855411099,5.430856471371953,6.917035463429784,6.947485363980377,16.64974481102945,4.26518302499062,27.40601135273937l-7.375436137679571,29.597564996611254c-9.704992441440481,38.93975339382996-35.4071071101298,73.997478892919389-68.370060219769584,98.188379407649336ZM1048.467166828420886,937.580611908188075c-21.678661160240154,10.613610486760081-45.099565428470669,16.665793617179588-68.404081410970321,16.665793617179588-19.322246021329192,0-36.873599510410713-4.26184964101958-51.604775306650481-12.321916744558621.313353076979183-.247864895440216.628496742991047-.497512991560143.940059230950283-.747161087710992,37.022218398329642-29.536936173239155,63.1863050319389-68.979552160710227,73.675575460349137-111.061305164379519l7.375436137670476-29.597564996609435c5.103178682289581-20.481843086599838,1.348313525541016-40.737219685970558-10.303049171208841-55.571666197971354-11.461560261550403-14.595497620059177-28.98963609347993-22.632383114680124-49.355795508421579-22.632383114680124-39.788678420829456,0-78.649831733799147,30.87433668822996-88.47300304998862,70.286638264020439l-7.377226726701338,29.595781795900621c-10.793670560318787,43.310378276790289-3.907065222720121,84.149240401889983,19.379544869680103,115.385566829500021-21.67866116022924,10.611827286069456-45.104937195519597,16.665793617199597-68.407662589008396,16.665793617199597-19.324036610310941,0-36.873599510410713-4.26184964101958-51.606565895661333-12.323699945269254.316934255009983-.249648096130841.628496742971038-.497512991560143.943640408990177-.748944288379789,37.022218398329642-29.536936173260983,63.186305031940719-68.979552160750245,73.66483192627129-111.023857949970989l40.926597737528937-162.597588208569505h197.971997565618949c-7.14534544973867,28.315109352779473-15.121524200729255,59.949089533509323-17.015967374698448,67.547642009340052l-21.707310584401057,87.0968711368605c-10.791879971309754,43.30681187538903-3.903484044720244,84.14745720117935,19.377754280651061,115.382000428098763ZM1076.819353233870061,920.386990887738648c-.17010595606007-.212200881700483-.336630734100254-.422618562719435-.504946101200403-.634819444430832-18.371443256279235-23.393809807828802-23.768278536439539-55.227508465459323-15.191357172148855-89.636148914589285l21.707310584410152-87.098654337520202c2.066339719080133-8.293889293599932,11.432015542859517-45.424697040898536,19.013369416839851-75.463269857309569h82.144166189449606l-38.798482697580766,154.642729945489918c-9.703201852418715,38.939753393869978-35.408897699129739,73.999262093630023-68.370060219769584,98.190162608359969ZM1326.715746244621187,792.601046483478058l-7.377226726690424,29.597564996611254c-9.704992441400464,38.93975339382996-35.407107110089783,73.997478892919389-68.368269630729628,98.188379407649336-.170105956080079-.212200881700483-.336630734131177-.422618562719435-.504946101200403-.636602645139646-18.373233845310097-23.393809807799698-23.768278536461366-55.225725264750508-15.191357172159769-89.636148914591104l7.375436137690485-29.595781795898802c6.123814418759139-24.57428866238115,31.970966797358415-45.336094256781507,56.441156226228486-45.336094256781507,9.991486683260518,0,18.287285572750989,3.555702169120195,23.360024241890642,10.012671855411099,5.430856471370134,6.917035463429784,6.947485363960368,16.64974481102945,4.265183024970611,27.40601135273937Z" fill="none" stroke="#283a97" stroke-miterlimit="10" stroke-width="2.32"/>
          <path d="M1412.515966349970768,594.229340819978461c-32.063008034050654,0-58.049872660320034,25.880823001949466-58.049872660320034,57.803310258750571,0,31.930820586829213,25.98686462626938,57.812060255258984,58.049872660320034,57.812060255258984,32.054258037558611,0,58.049872660320034-25.881239668429771,58.049872660320034-57.812060255258984,0-31.922487256801105-25.995614622761423-57.803310258750571-58.049872660320034-57.803310258750571ZM1412.515966349970768,703.451380552818591c-28.496551124429971,0-51.630187723010749-23.036657470629507-51.630187723010749-51.41872947408956,0-28.373322006960734,23.133636598580779-51.409979477590241,51.630187723010749-51.409979477590241s51.630187723019844,23.036657470629507,51.630187723019844,51.409979477590241c0,28.382072003460053-23.133636598589874,51.41872947408956-51.630187723019844,51.41872947408956Z" fill="none" stroke="#283a97" stroke-miterlimit="10" stroke-width="2.32"/>
          <path d="M1409.882946567709951,628.080160640378381c9.158329677420625-.898332974729783,17.392076390580769,3.257915366109955,22.208949467709317,10.038745992600525.827812169540266,1.162499535928873,2.342499064910953,1.629166016309682,3.698644356871228,1.135832879908776,1.329686969200338-.475416476860119,2.113436656360136-1.725832644387992,2.113436656360136-3.011665464418911,0-.624999750520146-.184895759550272-1.259166164039925-.581249767979898-1.822915938981168-6.305101649741118-8.867496460168695-17.215930627560738-14.230410986008792-29.280300811569759-12.583744976698654-13.684682037190214,1.857915925009365-24.586552685261267,13.032911464058998-26.110093743740435,26.708739338118903-2.051770014290014,18.404992652900546,12.354995067980781,33.991653097509698,30.425092021250748,33.991653097509698,10.294370890569553,0,19.382283929418918-5.072497975128499,24.930094214778364-12.830411544899107,1.224062011369824-1.726249310890125.475520643500204-4.147915010838915-1.514582728728783-4.86958138943919-.361145689170371-.132499947090764-.730937208219984-.194166589149972-1.091978730761184-.194166589149972-1.021562092199019,0-2.007811698498699.493333136399087-2.624269785739671,1.356249458589446-4.385414916059744,6.137914216489662-11.562391217728873,10.144579283720304-19.699262969548727,10.144579283720304-14.028119400121795,0-25.247073254940915-11.905828580620437-24.102282045259926-26.118739573639687.924687130869643-11.4304121037203,10.17989176960873-20.817491689820599,21.62780386635859-21.944574573220962Z" fill="none" stroke="#283a97" stroke-miterlimit="10" stroke-width="2.32"/>
        </g>
      </g>
      </g>
      <g id="stroke" opacity=".9">
        <path d="M1390.87,401.13c-97.99-97.99-228.28-151.96-366.87-151.96s-268.87,53.97-366.86,151.96c-97.99,97.99-151.96,228.28-151.96,366.87s53.97,268.87,151.96,366.86c97.99,97.99,228.28,151.96,366.87,151.96s268.87-53.97,366.86-151.96c97.99-97.99,151.96-228.28,151.96-366.87s-53.97-268.87-151.96-366.86ZM1024,1280h0c-282.77,0-512-229.23-512-512h0c0-282.77,229.23-512,512-512h0c282.77,0,512,229.23,512,512h0c0,282.77-229.23,512-512,512Z" fill="#00c2f3"/>
        <path d="M1412.52,594.23c-32.06,0-58.05,25.88-58.05,57.8s25.99,57.81,58.05,57.81,58.05-25.88,58.05-57.81-26-57.8-58.05-57.8ZM1412.52,703.45c-28.5,0-51.63-23.04-51.63-51.42s23.13-51.41,51.63-51.41,51.63,23.04,51.63,51.41-23.13,51.42-51.63,51.42Z" fill="#00c2f3"/>
        <animate attributeName="opacity" values="0; .9; .9; 0; 0" dur="6s" repeatCount="indefinite" keyTimes="0; 0.167; 0.5; 0.667; 1"/>
      </g>
      <g id="y-guides">
        <line id="x-guides" x1="1542.82" y1="1286.83" x2="1542.82" y2="249.17" fill="none" stroke="#00c2f3" stroke-miterlimit="10" stroke-width="1">
          <!-- Vertical scale animation: scale up 1s, stay 2s, scale down 1s, stay hidden 2s, repeat -->
          <animate attributeName="y1" values="768; 1286.83; 1286.83; 768; 768" dur="6s" repeatCount="indefinite" keyTimes="0; 0.167; 0.5; 0.667; 1"/>
          <animate attributeName="y2" values="768; 249.17; 249.17; 768; 768" dur="6s" repeatCount="indefinite" keyTimes="0; 0.167; 0.5; 0.667; 1"/>
        </line>
        <line id="x-guides-2" data-name="x-guides" x1="1573.86" y1="1286.83" x2="1573.86" y2="249.17" fill="none" stroke="#00c2f3" stroke-miterlimit="10" stroke-width="1">
          <animate attributeName="y1" values="768; 1286.83; 1286.83; 768; 768" dur="6s" repeatCount="indefinite" keyTimes="0; 0.167; 0.5; 0.667; 1"/>
          <animate attributeName="y2" values="768; 249.17; 249.17; 768; 768" dur="6s" repeatCount="indefinite" keyTimes="0; 0.167; 0.5; 0.667; 1"/>
        </line>
      </g>
      <g id="x-guides-3" data-name="x-guides">
        <line id="x-guides-4" data-name="x-guides" x1="1542.83" y1="1317.87" x2="505.17" y2="1317.87" fill="none" stroke="#00c2f3" stroke-miterlimit="10" stroke-width="1">
          <!-- Horizontal scale animation: scale up 1s, stay 2s, scale down 1s, stay hidden 2s, repeat -->
          <animate attributeName="x1" values="1024; 1542.83; 1542.83; 1024; 1024" dur="6s" repeatCount="indefinite" keyTimes="0; 0.167; 0.5; 0.667; 1"/>
          <animate attributeName="x2" values="1024; 505.17; 505.17; 1024; 1024" dur="6s" repeatCount="indefinite" keyTimes="0; 0.167; 0.5; 0.667; 1"/>
        </line>
        <line id="x-guides-5" data-name="x-guides" x1="1542.83" y1="1286.83" x2="505.17" y2="1286.83" fill="none" stroke="#00c2f3" stroke-miterlimit="10" stroke-width="1">
          <animate attributeName="x1" values="1024; 1542.83; 1542.83; 1024; 1024" dur="6s" repeatCount="indefinite" keyTimes="0; 0.167; 0.5; 0.667; 1"/>
          <animate attributeName="x2" values="1024; 505.17; 505.17; 1024; 1024" dur="6s" repeatCount="indefinite" keyTimes="0; 0.167; 0.5; 0.667; 1"/>
        </line>
        <line id="x-guides-6" data-name="x-guides" x1="1542.83" y1="667.56" x2="505.17" y2="667.56" fill="none" stroke="#00c2f3" stroke-miterlimit="10" stroke-width="1">
          <animate attributeName="x1" values="1024; 1542.83; 1542.83; 1024; 1024" dur="6s" repeatCount="indefinite" keyTimes="0; 0.167; 0.5; 0.667; 1"/>
          <animate attributeName="x2" values="1024; 505.17; 505.17; 1024; 1024" dur="6s" repeatCount="indefinite" keyTimes="0; 0.167; 0.5; 0.667; 1"/>
        </line>
        <line id="x-guides-7" data-name="x-guides" x1="1542.83" y1="636.52" x2="505.17" y2="636.52" fill="none" stroke="#00c2f3" stroke-miterlimit="10" stroke-width="1">
          <animate attributeName="x1" values="1024; 1542.83; 1542.83; 1024; 1024" dur="6s" repeatCount="indefinite" keyTimes="0; 0.167; 0.5; 0.667; 1"/>
          <animate attributeName="x2" values="1024; 505.17; 505.17; 1024; 1024" dur="6s" repeatCount="indefinite" keyTimes="0; 0.167; 0.5; 0.667; 1"/>
        </line>
      </g>
    </g>
  </g>
</svg>