<?xml version="1.0" encoding="UTF-8"?>
<svg xmlns="http://www.w3.org/2000/svg" viewBox="0 0 2048 1536.000000000001819">
  <style>
    /* Drawing animation: stroke draws 1s, stay 2s, undraw 1s, stay hidden 2s, repeat */
    @keyframes strokeDraw {
      0%      { stroke-dashoffset: 1200; } /* hidden — start draw */
      16.667% { stroke-dashoffset: 0; }    /* fully drawn */
      50%     { stroke-dashoffset: 0; }    /* stay visible */
      66.667% { stroke-dashoffset: -1200; }/* fully undrawn */
      100%    { stroke-dashoffset: -1200; }/* stay hidden */
    }

    #engraving ellipse {
      stroke-dasharray: 1200;
      animation: strokeDraw 6s linear infinite;
    }

    @media (prefers-reduced-motion: reduce) {
      #engraving ellipse {
        animation: none;
        stroke-dasharray: none;
      }
    }
  </style>
  <g id="bg">
    <rect y=".000000000007276" width="2048" height="1535.999999999983629" fill="#fff"/>
  </g>
  <g id="logotype-engraving">
    <g id="logotype">
      <path d="M0,1255.723876953306899c18.0576171875-34.0155029296875,32.12493896484375-69.87255859375,41.35382080078125-106.905029296875l22.0810546875-88.591552734375c8.02313232421875-32.189453125,3.489013671875-61.32061767578125-12.76629638671875-82.02142333984375-11.7838134765625-15.00457763671875-29.3880615234375-24.77093505859375-50.6685791015625-28.390380859375" fill="none" stroke="#283a97" stroke-miterlimit="10" stroke-width="6.955369472083958"/>
      <path d="M1023.30511474609375,616.268432617369399c12.88092041015625,0,23.32293701171875,10.39892578125,23.32293701171875,23.22662353515625s-10.4420166015625,23.22662353515625-23.32293701171875,23.22662353515625l-.00006103515625.00286865234375h-236.91851806640625l-5.82757568359375,23.22802734375h242.74609375c25.763427734375,0,46.6488037109375-20.799072265625,46.6488037109375-46.4560546875s-20.8853759765625-46.45611572265625-46.6488037109375-46.45611572265625h-219.435791015625l-5.82757568359375,23.22802734375h225.263427734375Z" fill="none" stroke="#283a97" stroke-miterlimit="10" stroke-width="6.955369472083958"/>
      <path d="M0,1388.335815429869399c54.24798583984375-66.5169677734375,93.47418212890625-142.3441162109375,113.2645263671875-221.7437744140625l20.2362060546875-81.18798828125c2.84991455078125-11.437744140625,6.31402587890625-30.24560546875,6.73583984375-41.44091796875,3.2796630859375-41.85400390625-7.49884033203125-81.02008056640625-31.21136474609375-111.2132568359375-25.89532470703125-32.97186279296875-64.125244140625-52.94818115234375-109.02520751953125-57.3614501953125" fill="none" stroke="#283a97" stroke-miterlimit="10" stroke-width="6.955369472083958"/>
      <path d="M0,900.137573242369399c37.06109619140625,4.23388671875,68.40753173828125,20.814697265625,89.572998046875,47.7642822265625,21.22674560546875,27.029052734375,29.923828125,62.85015869140625,25.06298828125,101.482666015625-.28118896484375,7.463623046875-5.05035400390625,29.870849609375-6.95025634765625,37.4959716796875l-18.39141845703125,73.7872314453125c-16.581298828125,66.527587890625-47.4075927734375,130.19140625-89.2943115234375,187.4412841796875" fill="none" stroke="#283a97" stroke-miterlimit="10" stroke-width="6.955369472083958"/>
      <path d="M0,1304.545776367369399c29.79241943359375-46.6541748046875,52.21453857421875-97.2015380859375,65.3240966796875-149.8026123046875l16.54656982421875-66.38623046875c.95001220703125-3.8125,7.024169921875-29.8193359375,7.16473388671875-33.551025390625,6.4420166015625-35.4110107421875-.173583984375-67.8870849609375-18.91461181640625-91.7520751953125-16.45684814453125-20.95440673828125-40.92559814453125-34.1373291015625-70.12078857421875-38.12255859375" fill="none" stroke="#283a97" stroke-miterlimit="10" stroke-width="6.955369472083958"/>
      <path d="M0,949.815490722838149c21.280517578125,3.61944580078125,38.884765625,13.38580322265625,50.6685791015625,28.390380859375,16.25531005859375,20.7008056640625,20.7894287109375,49.83197021484375,12.76629638671875,82.02142333984375l-22.0810546875,88.591552734375c-9.2288818359375,37.032470703125-23.29620361328125,72.8895263671875-41.35382080078125,106.905029296875" fill="none" stroke="#283a97" stroke-miterlimit="10" stroke-width="6.955369472083958"/>
      <path d="M0,1426.232421875181899c66.827880859375-74.840576171875,114.42108154296875-162.1905517578125,137.2347412109375-253.7158203125l22.08099365234375-88.5889892578125c15.2745361328125-61.3018798828125,4.03570556640625-121.9259033203125-30.83837890625-166.32977294921875-30.63641357421875-39.00836181640625-75.76080322265625-62.3505859375-128.47735595703125-66.90142822265625" fill="none" stroke="#283a97" stroke-miterlimit="10" stroke-width="6.955369472083958"/>
      <path d="M0,875.388427734556899c44.89996337890625,4.41326904296875,83.1298828125,24.38958740234375,109.02520751953125,57.3614501953125,23.7125244140625,30.19317626953125,34.49102783203125,69.3592529296875,31.21136474609375,111.2132568359375-.42181396484375,11.1953125-3.88592529296875,30.003173828125-6.73583984375,41.44091796875l-20.2362060546875,81.18798828125c-19.79034423828125,79.399658203125-59.01654052734375,155.226806640625-113.2645263671875,221.7437744140625" fill="none" stroke="#283a97" stroke-miterlimit="10" stroke-width="6.955369472083958"/>
      <path d="M0,924.931274414244399c29.1951904296875,3.9852294921875,53.6639404296875,17.16815185546875,70.12078857421875,38.12255859375,18.74102783203125,23.864990234375,25.35662841796875,56.341064453125,18.91461181640625,91.7520751953125-.14056396484375,3.731689453125-6.2147216796875,29.738525390625-7.16473388671875,33.551025390625l-16.54656982421875,66.38623046875c-13.10955810546875,52.60107421875-35.53167724609375,103.1484375-65.3240966796875,149.8026123046875" fill="none" stroke="#283a97" stroke-miterlimit="10" stroke-width="6.955369472083958"/>
      <path d="M0,1348.109008789244399c41.88671875-57.2498779296875,72.7130126953125-120.9136962890625,89.2943115234375-187.4412841796875l18.39141845703125-73.7872314453125c1.89990234375-7.6251220703125,6.6690673828125-30.0323486328125,6.95025634765625-37.4959716796875,4.86083984375-38.63250732421875-3.83624267578125-74.45361328125-25.06298828125-101.482666015625-21.16546630859375-26.9495849609375-52.51190185546875-43.5303955078125-89.572998046875-47.7642822265625" fill="none" stroke="#283a97" stroke-miterlimit="10" stroke-width="6.955369472083958"/>
      <path d="M215.10784912109375,1148.816162109556899c-32.067626953125,128.66455078125-10.26513671875,253.202392578125,58.0521240234375,345.330810546875,29.5087890625-14.4515380859375,57.93389892578125-31.72998046875,84.75592041015625-51.40869140625-55.82550048828125-69.361572265625-72.9989013671875-165.63818359375-46.92718505859375-270.2216796875l64.962158203125-260.68841552734375c4.89459228515625-19.61297607421875,24.0264892578125-95.54119873046875,56.9176025390625-225.8756103515625h-25.46466064453125c-31.97357177734375,126.70001220703125-50.59954833984375,200.6246337890625-55.42181396484375,219.951171875l-64.9635009765625,260.68768310546875c-27.5711669921875,110.6058349609375-9.239501953125,213.9493408203125,49.7115478515625,289.0029296875-58.9510498046875-75.0535888671875-77.28271484375-178.3970947265625-49.7115478515625-289.0029296875l64.9635009765625-260.68768310546875c4.822265625-19.3265380859375,23.4482421875-93.25115966796875,55.42181396484375-219.951171875h-25.46466064453125c-31.0560302734375,123.0655517578125-49.1761474609375,194.9866943359375-53.92608642578125,214.02679443359375l-64.96478271484375,260.6868896484375c-29.070068359375,116.625732421875-9.58135986328125,227.0343017578125,52.49212646484375,307.779541015625-62.073486328125-80.7452392578125-81.56219482421875-191.15380859375-52.49212646484375-307.779541015625l64.96478271484375-260.6868896484375c4.74993896484375-19.04010009765625,22.87005615234375-90.96124267578125,53.92608642578125-214.02679443359375h-25.464599609375c-30.13861083984375,119.43115234375-47.75274658203125,189.34869384765625-52.43035888671875,208.10235595703125l-64.96612548828125,260.686279296875c-30.56890869140625,122.6455078125-9.9232177734375,240.1190185546875,55.272705078125,326.555908203125-65.1959228515625-86.4368896484375-85.84161376953125-203.910400390625-55.272705078125-326.555908203125l64.96612548828125-260.686279296875c4.6776123046875-18.753662109375,22.291748046875-88.67120361328125,52.43035888671875-208.10235595703125h-25.46466064453125c-29.2210693359375,115.7967529296875-46.32928466796875,183.71075439453125-50.9345703125,202.17791748046875l-64.96746826171875,260.6856689453125Z" fill="none" stroke="#283a97" stroke-miterlimit="10" stroke-width="6.955369472083958"/>
      <path d="M237.54547119140625,1536.000000000181899c59.8916015625-22.7008056640625,117.01910400390625-56.68310546875,167.777587890625-99.564208984375,88.41912841796875-74.70068359375,154.38909912109375-173.8900146484375,181.25225830078125-281.67919921875l139.802001953125-557.2353515625c1.64892578125-6.61767578125,14.73681640625-63.7244873046875,13.97186279296875-69.96624755859375,4.99468994140625-32.30316162109375-1.45208740234375-61.76837158203125-18.59735107421875-83.6014404296875-19.9599609375-25.4156494140625-51.69879150390625-39.4114990234375-89.371826171875-39.4114990234375-84.705078125,0-171.8084716796875,69.70684814453125-192.89666748046875,154.32611083984375l-8.62640380859375,34.1722412109375h25.46527099609375l7.12200927734375-28.21044921875c18.329345703125-73.55364990234375,95.69329833984375-135.6934814453125,168.935791015625-135.6934814453125,29.91119384765625,0,54.74163818359375,10.64263916015625,69.919677734375,29.96905517578125,16.2552490234375,20.70086669921875,20.78936767578125,49.83197021484375,12.78765869140625,81.9520263671875l-18.8692626953125,75.21087646484375h0l-5.82757568359375,23.22808837890625h0l-5.82757568359375,23.22802734375h0l-5.82757568359375,23.22802734375h0l-116.1248779296875,462.86090087890625c-29.0516357421875,116.574462890625-106.00433349609375,221.5179443359375-204.694580078125,293.9248046875.00128173828125.00146484375.00250244140625.003173828125.0037841796875.004638671875-.00128173828125-.00146484375-.00250244140625-.003173828125-.0037841796875-.004638671875-26.822021484375,19.6787109375-55.24713134765625,36.9571533203125-84.75592041015625,51.40869140625.00042724609375.00048828125.000732421875.0009765625.00115966796875.0015869140625-.00042724609375-.0006103515625-.000732421875-.0010986328125-.00115966796875-.0015869140625-39.5054931640625,19.34716796875-80.94757080078125,33.6348876953125-123.0673828125,41.85302734375" fill="none" stroke="#283a97" stroke-miterlimit="10" stroke-width="6.955369472083958"/>
      <path d="M310.98870849609375,1172.516601562681899c-26.07171630859375,104.58349609375-8.8983154296875,200.860107421875,46.92718505859375,270.2216796875,98.69024658203125-72.4068603515625,175.6429443359375-177.350341796875,204.694580078125-293.9248046875l116.1248779296875-462.86090087890625h-245.86688232421875c-32.89111328125,130.33441162109375-52.02301025390625,206.26263427734375-56.9176025390625,225.8756103515625l-64.962158203125,260.68841552734375Z" fill="none" stroke="#283a97" stroke-miterlimit="10" stroke-width="6.955369472083958"/>
      <path d="M1023.30511474609375,662.721679687681899c12.88092041015625,0,23.32293701171875-10.39892578125,23.32293701171875-23.22662353515625s-10.4420166015625-23.22662353515625-23.32293701171875-23.22662353515625h-225.263427734375l-11.6551513671875,46.45611572265625h236.91851806640625l.00006103515625-.00286865234375Z" fill="none" stroke="#283a97" stroke-miterlimit="10" stroke-width="6.955369472083958"/>
      <path d="M917.09820556640625,1536.000000000181899c6.199462890625-4.2139892578125,12.34735107421875-8.550537109375,18.44482421875-12.9981689453125-.49102783203125-.2972412109375-.98712158203125-.5872802734375-1.47613525390625-.8873291015625.489013671875.300048828125.985107421875.590087890625,1.47613525390625.8873291015625,7.98529052734375-5.8245849609375,15.88330078125-11.8409423828125,23.6788330078125-18.0606689453125,110.81231689453125-88.412841796875,189.12493896484375-206.468994140625,220.52081298828125-332.42724609375l22.0755615234375-88.5863037109375c15.2745361328125-61.3018798828125,4.0357666015625-121.9259033203125-30.83837890625-166.32977294921875-34.3060302734375-43.6806640625-86.769775390625-67.7386474609375-147.7283935546875-67.7386474609375-119.0927734375,0-235.4146728515625,92.40509033203125-264.81671142578125,210.37066650390625l-22.07568359375,88.5836181640625c-32.04638671875,128.59423828125-10.2410888671875,253.197265625,58.06201171875,345.333984375,29.5096435546875-14.45263671875,57.93560791015625-31.732666015625,84.75823974609375-51.412841796875-55.81756591796875-69.3731689453125-72.99267578125-165.6923828125-46.9393310546875-270.223388671875l22.07562255859375-88.5836181640625c18.32940673828125-73.551025390625,95.693359375-135.69085693359375,168.93585205078125-135.69085693359375,29.9111328125,0,54.74169921875,10.64263916015625,69.919677734375,29.9691162109375,16.2552490234375,20.7008056640625,20.789306640625,49.83197021484375,12.7662353515625,82.02667236328125l-22.07568359375,88.5863037109375c-29.0504150390625,116.569580078125-105.998046875,221.50927734375-204.682373046875,293.915771484375.0013427734375.001708984375.00262451171875.00341796875.00396728515625.0050048828125-.0013427734375-.0015869140625-.00262451171875-.0032958984375-.00396728515625-.0050048828125-26.8226318359375,19.68017578125-55.24859619140625,36.960205078125-84.75823974609375,51.412841796875.0003662109375.00048828125.00079345703125.0009765625.00115966796875.00146484375-.0003662109375-.00048828125-.00079345703125-.0009765625-.00115966796875-.00146484375-39.500244140625,19.345703125-80.9366455078125,33.6328125-123.05084228515625,41.8525390625" fill="none" stroke="#283a97" stroke-miterlimit="10" stroke-width="6.955369472083958"/>
      <path d="M871.16632080078125,1536.000000000181899c26.65283203125-15.8536376953125,52.4827880859375-33.862548828125,77.180908203125-53.89892578125,103.34417724609375-83.84130859375,177.53924560546875-195.60595703125,207.42523193359375-315.510986328125l20.2313232421875-81.1856689453125c2.8494873046875-11.4359130859375,6.3128662109375-30.2410888671875,6.735107421875-41.4346923828125,3.2808837890625-41.85736083984375-7.4976806640625-81.025390625-31.2113037109375-111.2198486328125-29.52392578125-37.5921630859375-75.079345703125-58.29632568359375-128.276123046875-58.29632568359375-107.63018798828125,0-214.212646484375,84.83880615234375-240.84649658203125,191.70074462890625l-22.07568359375,88.5836181640625c-30.54840087890625,122.57958984375-9.89996337890625,240.11279296875,55.283203125,326.5587158203125-65.18316650390625-86.4459228515625-85.83160400390625-203.9791259765625-55.283203125-326.5587158203125l22.07568359375-88.5836181640625c26.63385009765625-106.8619384765625,133.21630859375-191.70074462890625,240.84649658203125-191.70074462890625,53.19677734375,0,98.752197265625,20.70416259765625,128.276123046875,58.29632568359375,23.713623046875,30.1944580078125,34.4921875,69.36248779296875,31.2113037109375,111.2198486328125-.4222412109375,11.193603515625-3.8856201171875,29.998779296875-6.735107421875,41.4346923828125l-20.2313232421875,81.1856689453125c-29.885986328125,119.905029296875-104.0810546875,231.669677734375-207.42523193359375,315.510986328125-24.6981201171875,20.036376953125-50.528076171875,38.0452880859375-77.180908203125,53.89892578125" fill="none" stroke="#283a97" stroke-miterlimit="10" stroke-width="6.955369472083958"/>
      <path d="M819.79254150390625,1536.000000000181899c41.3209228515625-20.57275390625,80.93707275390625-46.3619384765625,117.6800537109375-76.7392578125,95.87579345703125-79.269775390625,165.95367431640625-184.7425537109375,194.32952880859375-298.594482421875l18.3873291015625-73.7850341796875c1.899658203125-7.6240234375,6.66748046875-30.0281982421875,6.948974609375-37.4906005859375,4.861572265625-38.636474609375-3.83544921875-74.4588623046875-25.06298828125-101.48876953125-24.741943359375-31.5035400390625-63.38916015625-48.8538818359375-108.823974609375-48.8538818359375-96.16766357421875,0-193.01055908203125,77.2724609375-216.87628173828125,173.03076171875l-22.07562255859375,88.5836181640625c-29.05029296875,116.564208984375-9.55914306640625,227.02685546875,52.503173828125,307.781982421875-62.06231689453125-80.755126953125-81.553466796875-191.2177734375-52.503173828125-307.781982421875l22.07562255859375-88.5836181640625c23.86572265625-95.75830078125,120.7086181640625-173.03076171875,216.87628173828125-173.03076171875,45.434814453125,0,84.08203125,17.350341796875,108.823974609375,48.8538818359375,21.2275390625,27.0299072265625,29.924560546875,62.852294921875,25.06298828125,101.48876953125-.281494140625,7.46240234375-5.04931640625,29.8665771484375-6.948974609375,37.4906005859375l-18.3873291015625,73.7850341796875c-28.3758544921875,113.8519287109375-98.4537353515625,219.32470703125-194.32952880859375,298.594482421875-36.74298095703125,30.3773193359375-76.359130859375,56.16650390625-117.6800537109375,76.7392578125" fill="none" stroke="#283a97" stroke-miterlimit="10" stroke-width="6.955369472083958"/>
      <path d="M758.80609130859375,1536.000000000181899c59.89727783203125-22.70361328125,117.0299072265625-56.691162109375,167.79180908203125-99.579345703125,88.4075927734375-74.6982421875,154.367919921875-173.87939453125,181.2340087890625-281.6781005859375l16.5430908203125-66.3846435546875c.94970703125-3.8118896484375,7.022216796875-29.815185546875,7.162841796875-33.54638671875,6.4423828125-35.41552734375-.1732177734375-67.89227294921875-18.91455078125-91.7576904296875-19.9599609375-25.41497802734375-51.69873046875-39.41143798828125-89.371826171875-39.41143798828125-84.705078125,0-171.80853271484375,69.70611572265625-192.90606689453125,154.36077880859375l-22.07562255859375,88.5836181640625c-27.5521240234375,110.548828125-9.21832275390625,213.9407958984375,49.7232666015625,289.0052490234375-58.94158935546875-75.064453125-77.275390625-178.4564208984375-49.7232666015625-289.0052490234375l22.07562255859375-88.5836181640625c21.0975341796875-84.6546630859375,108.20098876953125-154.36077880859375,192.90606689453125-154.36077880859375,37.673095703125,0,69.411865234375,13.9964599609375,89.371826171875,39.41143798828125,18.7413330078125,23.86541748046875,25.35693359375,56.3421630859375,18.91455078125,91.7576904296875-.140625,3.731201171875-6.213134765625,29.7344970703125-7.162841796875,33.54638671875l-16.5430908203125,66.3846435546875c-26.8660888671875,107.7987060546875-92.826416015625,206.9798583984375-181.2340087890625,281.6781005859375-50.76190185546875,42.88818359375-107.89453125,76.875732421875-167.79180908203125,99.579345703125" fill="none" stroke="#283a97" stroke-miterlimit="10" stroke-width="6.955369472083958"/>
      <path d="M1083.8616943359375,1148.818847656431899l22.07568359375-88.5863037109375c8.0230712890625-32.1947021484375,3.489013671875-61.32586669921875-12.7662353515625-82.02667236328125-15.177978515625-19.32647705078125-40.008544921875-29.9691162109375-69.919677734375-29.9691162109375-73.24249267578125,0-150.6064453125,62.13983154296875-168.93585205078125,135.69085693359375l-22.07562255859375,88.5836181640625c-26.0533447265625,104.531005859375-8.87823486328125,200.8502197265625,46.9393310546875,270.223388671875,98.684326171875-72.406494140625,175.6319580078125-177.34619140625,204.682373046875-293.915771484375Z" fill="none" stroke="#283a97" stroke-miterlimit="10" stroke-width="6.955369472083958"/>
      <path d="M1362.744140625,485.605102539244399c-85.288818359375,0-154.536865234375,68.9613037109375-154.536865234375,153.89813232421875s69.248046875,153.8988037109375,154.536865234375,153.8988037109375,154.5372314453125-68.96197509765625,154.5372314453125-153.8988037109375-69.2484130859375-153.89813232421875-154.5372314453125-153.89813232421875ZM1362.27880859375,711.658447265806899c24.3385009765625,0,45.84033203125-11.9964599609375,58.9599609375-30.35699462890625,2.512451171875-3.5126953125,7.0406494140625-4.954833984375,11.110107421875-3.47979736328125,5.97216796875,2.164794921875,8.2193603515625,9.40667724609375,4.53564453125,14.56451416015625-16.5914306640625,23.23138427734375-43.792724609375,38.4012451171875-74.605712890625,38.4012451171875-54.080810546875,0-97.22265625-46.64129638671875-91.07861328125-101.735595703125,4.5638427734375-40.92327880859375,37.187255859375-74.36749267578125,78.151123046875-79.9495849609375,36.111572265625-4.9208984375,68.782470703125,11.14764404296875,87.6436767578125,37.673095703125,3.6502685546875,5.13360595703125,1.344482421875,12.33563232421875-4.5909423828125,14.48699951171875h-.0001220703125c-4.0457763671875,1.46649169921875-8.581787109375.07366943359375-11.07080078125-3.42498779296875-14.4202880859375-20.2763671875-39.0577392578125-32.7320556640625-66.465576171875-30.0311279296875-34.27197265625,3.37738037109375-61.9801025390625,31.4698486328125-64.7391357421875,65.6717529296875-3.431396484375,42.53692626953125,30.163330078125,78.18048095703125,72.150390625,78.18048095703125Z" fill="none" stroke="#283a97" stroke-miterlimit="10" stroke-width="6.955369472083958"/>
      <path d="M959.48529052734375,1536.000000000181899c-8.218017578125-3.979736328125-16.20355224609375-8.3133544921875-23.9422607421875-12.9981689453125-6.09747314453125,4.4476318359375-12.245361328125,8.7841796875-18.44482421875,12.9981689453125" fill="none" stroke="#283a97" stroke-miterlimit="10" stroke-width="6.955369472083958"/>
      <path d="M395.839111328125,1536.000000000181899c6.205810546875-4.21826171875,12.3599853515625-8.559326171875,18.46356201171875-13.011474609375-.4503173828125-.2685546875-.9052734375-.530517578125-1.35394287109375-.8013916015625.44866943359375.2708740234375.90362548828125.5328369140625,1.35394287109375.8013916015625,7.98162841796875-5.8221435546875,15.8759765625-11.835693359375,23.66796875-18.052734375,110.8123779296875-88.4127197265625,189.12493896484375-206.468994140625,220.499267578125-332.349853515625l122.08905029296875-486.63336181640625h0l5.82757568359375-23.22802734375h0l11.6551513671875-46.45611572265625h0l5.82757568359375-23.22802734375h-.00006103515625.00006103515625l7.07757568359375-28.21044921875c15.27447509765625-61.30181884765625,4.03564453125-121.92852783203125-30.83843994140625-166.3323974609375-34.305908203125-43.683349609375-86.769775390625-67.7386474609375-147.7283935546875-67.7386474609375-119.0927734375,0-235.4146728515625,92.40777587890625-264.7791748046875,210.223876953125l-13.1397705078125,52.0576171875h25.46527099609375l11.63531494140625-46.0958251953125c26.60577392578125-106.75048828125,133.18817138671875-191.59130859375,240.818359375-191.59130859375,53.19677734375,0,98.75225830078125,20.7021484375,128.2762451171875,58.2962646484375,18.9251708984375,24.09765625,29.19720458984375,54.23089599609375,30.216552734375,86.90045166015625,2.294921875,18.72528076171875-3.1690673828125,55.3240966796875-8.11578369140625,75.17706298828125l-148.251953125,590.915771484375c-29.87060546875,119.850341796875-104.0689697265625,231.6175537109375-207.41693115234375,315.459716796875-24.69805908203125,20.0357666015625-50.52777099609375,38.044189453125-77.18048095703125,53.8974609375" fill="none" stroke="#283a97" stroke-miterlimit="10" stroke-width="6.955369472083958"/>
      <path d="M438.6529541015625,1536.000000000181899c-8.3582763671875-3.977783203125-16.47930908203125-8.31689453125-24.35028076171875-13.011474609375-6.10357666015625,4.4521484375-12.25775146484375,8.793212890625-18.46356201171875,13.011474609375" fill="none" stroke="#283a97" stroke-miterlimit="10" stroke-width="6.955369472083958"/>
      <polyline points="0 639.496520996275649 690.3905029296875 639.496520996275649 696.21807861328125 616.268432617369399 0 616.268432617369399" fill="none" stroke="#283a97" stroke-miterlimit="10" stroke-width="6.955369472083958"/>
      <path d="M0,616.268432617369399h696.21807861328125l18.8692626953125-75.21087646484375c8.001708984375-32.12005615234375,3.46759033203125-61.25115966796875-12.78765869140625-81.9520263671875-15.17803955078125-19.326416015625-40.00848388671875-29.96905517578125-69.919677734375-29.96905517578125-73.24249267578125,0-150.6064453125,62.13983154296875-168.935791015625,135.6934814453125l-7.12200927734375,28.21044921875h245.723388671875H0" fill="none" stroke="#283a97" stroke-miterlimit="10" stroke-width="6.955369472083958"/>
      <path d="M298.533935546875,1536.000000000181899c41.3177490234375-20.5709228515625,80.93096923828125-46.3572998046875,117.671630859375-76.73095703125,95.883544921875-79.271240234375,165.9677734375-184.7496337890625,194.3345947265625-298.5693359375l144.0269775390625-574.0755615234375c3.2978515625-13.23529052734375,12.57379150390625-60.088134765625,11.0438232421875-72.5716552734375,1.9876708984375-32.48638916015625-6.3717041015625-62.28558349609375-24.40692138671875-85.25091552734375-24.74200439453125-31.50494384765625-63.38909912109375-48.8538818359375-108.82403564453125-48.8538818359375-96.1676025390625,0-193.01055908203125,77.2738037109375-216.85748291015625,172.95867919921875l-10.130859375,40.134033203125h25.46527099609375l8.62640380859375-34.1722412109375c21.08819580078125-84.6192626953125,108.19158935546875-154.32611083984375,192.89666748046875-154.32611083984375,37.67303466796875,0,69.411865234375,13.995849609375,89.371826171875,39.4114990234375,17.145263671875,21.83306884765625,23.592041015625,51.29827880859375,18.59735107421875,83.6014404296875.76495361328125,6.24176025390625-12.32293701171875,63.34857177734375-13.97186279296875,69.96624755859375l-139.802001953125,557.2353515625c-26.8631591796875,107.7891845703125-92.8331298828125,206.978515625-181.25225830078125,281.67919921875-50.75848388671875,42.881103515625-107.885986328125,76.8634033203125-167.777587890625,99.564208984375" fill="none" stroke="#283a97" stroke-miterlimit="10" stroke-width="6.955369472083958"/>
      <polyline points="0 685.952575683775649 331.0098876953125 685.952575683775649 356.47454833984375 685.952575683775649 381.93914794921875 685.952575683775649 407.40380859375 685.952575683775649 432.86846923828125 685.952575683775649 678.7353515625 685.952575683775649 684.56292724609375 662.724548340025649 0 662.724548340025649" fill="none" stroke="#283a97" stroke-miterlimit="10" stroke-width="6.955369472083958"/>
      <polyline points="0 662.724548340025649 684.56292724609375 662.724548340025649 690.3905029296875 639.496520996275649 0 639.496520996275649" fill="none" stroke="#283a97" stroke-miterlimit="10" stroke-width="6.955369472083958"/>
      <path d="M349.90765380859375,1536.000000000181899c26.6527099609375-15.853271484375,52.482421875-33.8616943359375,77.18048095703125-53.8974609375,103.34796142578125-83.8421630859375,177.54632568359375-195.609375,207.41693115234375-315.459716796875l148.251953125-590.915771484375c4.94671630859375-19.85296630859375,10.41070556640625-56.4517822265625,8.11578369140625-75.17706298828125-1.01934814453125-32.6695556640625-11.2913818359375-62.80279541015625-30.216552734375-86.90045166015625-29.52398681640625-37.5941162109375-75.0794677734375-58.2962646484375-128.2762451171875-58.2962646484375-107.63018798828125,0-214.21258544921875,84.8408203125-240.818359375,191.59130859375l-11.63531494140625,46.0958251953125h25.46533203125l10.130859375-40.134033203125c23.846923828125-95.68487548828125,120.68988037109375-172.95867919921875,216.85748291015625-172.95867919921875,45.4349365234375,0,84.08203125,17.34893798828125,108.82403564453125,48.8538818359375,18.03521728515625,22.96533203125,26.39459228515625,52.7645263671875,24.40692138671875,85.25091552734375,1.52996826171875,12.4835205078125-7.7459716796875,59.33636474609375-11.0438232421875,72.5716552734375l-144.0269775390625,574.0755615234375c-28.3668212890625,113.8197021484375-98.4510498046875,219.298095703125-194.3345947265625,298.5693359375-36.74066162109375,30.3736572265625-76.3538818359375,56.1600341796875-117.671630859375,76.73095703125" fill="none" stroke="#283a97" stroke-miterlimit="10" stroke-width="6.955369472083958"/>
      <path d="M1354.8675537109375,567.806213379088149c27.4078369140625-2.700927734375,52.0452880859375,9.7547607421875,66.465576171875,30.0311279296875,2.489013671875,3.4986572265625,7.0250244140625,4.8914794921875,11.07080078125,3.42498779296875h.0001220703125c5.9354248046875-2.1513671875,8.2412109375-9.3533935546875,4.5909423828125-14.48699951171875-18.8612060546875-26.52545166015625-51.5321044921875-42.593994140625-87.6436767578125-37.673095703125-40.9638671875,5.58209228515625-73.5872802734375,39.02630615234375-78.151123046875,79.9495849609375-6.14404296875,55.09429931640625,36.997802734375,101.735595703125,91.07861328125,101.735595703125,30.81298828125,0,58.0142822265625-15.16986083984375,74.605712890625-38.4012451171875,3.6837158203125-5.1578369140625,1.4365234375-12.39971923828125-4.53564453125-14.56451416015625-4.0694580078125-1.47503662109375-8.59765625-.03289794921875-11.110107421875,3.47979736328125-13.11962890625,18.36053466796875-34.6214599609375,30.35699462890625-58.9599609375,30.35699462890625-41.987060546875,0-75.581787109375-35.6435546875-72.150390625-78.18048095703125,2.759033203125-34.201904296875,30.4671630859375-62.29437255859375,64.7391357421875-65.6717529296875Z" fill="none" stroke="#283a97" stroke-miterlimit="10" stroke-width="6.955369472083958"/>
      <path d="M1362.744140625,793.402038574400649c-85.288818359375,0-154.536865234375-68.96197509765625-154.536865234375-153.8988037109375s69.248046875-153.89813232421875,154.536865234375-153.89813232421875,154.5372314453125,68.9613037109375,154.5372314453125,153.89813232421875-69.2484130859375,153.8988037109375-154.5372314453125,153.8988037109375Z" fill="none" stroke="#283a97" stroke-miterlimit="10" stroke-width="6.955369472083958"/>
      <path id="laser-engraving" d="M1023.3050537109375,639.496520996275649h-231.0909423828125,231.0909423828125Z" fill="none" stroke="#283a97" stroke-miterlimit="10" stroke-width="6.955369472083958"/>
    </g>
    <g id="engraving">
      <g id="Layer_11" data-name="Layer 11">
        <ellipse id="engraving-2" data-name="engraving" cx="1362.7442626953125" cy="639.503234863463149" rx="173.744995122394926" ry="173.028137202016097" fill="none" stroke="#283a97" stroke-miterlimit="10" stroke-width="6.955369472083958"/>
      </g>
    </g>
  </g>
</svg>