<?xml version="1.0" encoding="UTF-8"?>
<svg xmlns="http://www.w3.org/2000/svg" viewBox="0 0 2048 1536">
  <g id="bg">
    <rect y="0" width="2048" height="1536" fill="#fff"/>
  </g>
  <g id="safe-area">
    <g>
      <g id="logotype">
        <g>
          <g>
            <g>
              <line x1="1183.99" y1="667.55" x2="869.84" y2="667.55" fill="none" stroke="#283a97" stroke-miterlimit="10" stroke-width="2.32"/>
              <line x1="1185.94" y1="659.79" x2="871.8" y2="659.79" fill="none" stroke="#283a97" stroke-miterlimit="10" stroke-width="2.32"/>
              <line x1="1187.88" y1="652.03" x2="873.75" y2="652.03" fill="none" stroke="#283a97" stroke-miterlimit="10" stroke-width="2.32"/>
              <line x1="1189.83" y1="644.27" x2="875.7" y2="644.27" fill="none" stroke="#283a97" stroke-miterlimit="10" stroke-width="2.32"/>
              <line x1="1191.78" y1="636.51" x2="877.66" y2="636.51" fill="none" stroke="#283a97" stroke-miterlimit="10" stroke-width="2.32"/>
            </g>
            <g>
              <path d="M700.17,937.58c-23.28-31.24-30.16-72.1-19.38-115.38l21.71-87.1c1.89-7.6,9.92-39.23,17.11-67.55" fill="none" stroke="#283a97" stroke-miterlimit="10" stroke-width="2.32"/>
              <path d="M728.11,667.55c-7.07,27.85-15.11,59.56-17.35,68.49-.11.44-.9,3.6-.96,3.85l-21.01,84.29c-10.13,40.65-3.85,78.89,17.67,108.05.26.35.52.71.78,1.06" fill="none" stroke="#283a97" stroke-miterlimit="10" stroke-width="2.32"/>
              <path d="M736.62,667.55c-6.95,27.38-15.02,59.17-17.59,69.43-.22.88-.86,3.45-.99,3.95l-21.24,85.22c-9.6,38.52-3.64,74.6,16.78,101.83.25.34.5.67.74,1.01" fill="none" stroke="#283a97" stroke-miterlimit="10" stroke-width="2.32"/>
              <path d="M745.14,667.55c-6.84,26.92-14.92,58.79-17.83,70.37-.33,1.31-.83,3.3-1.01,4.05l-21.47,86.16c-9.07,36.4-3.43,70.31,15.89,95.61.24.32.48.64.7.96" fill="none" stroke="#283a97" stroke-miterlimit="10" stroke-width="2.32"/>
              <path d="M753.65,667.55c-7.63,30.04-17.05,67.17-19.11,75.46l-21.71,87.1c-8.54,34.27-3.22,66.02,15,89.38.23.3.45.6.66.91" fill="none" stroke="#283a97" stroke-miterlimit="10" stroke-width="2.32"/>
            </g>
            <g>
              <path d="M874.34,937.57c-22.82-30.78-30.11-72.41-19.4-115.38l7.38-29.59c9.82-39.41,48.69-70.28,88.48-70.28,20.37,0,37.89,8.04,49.36,22.63,11.65,14.84,15.41,35.09,10.3,55.57l-7.38,29.6c-10.49,42.08-36.65,81.52-73.68,111.06-37.13,29.62-80.98,45.94-123.48,45.94-31.27,0-59.18-8.71-81.49-25.32" fill="none" stroke="#283a97" stroke-miterlimit="10" stroke-width="2.32"/>
              <path d="M731.89,956.83c17.05,11.97,37.47,19.2,60.17,21.28,5.71.53,11.55.73,17.48.6,40.38-.89,81.62-17.08,116.23-45.16,34.53-28.01,59.32-65.35,69.3-105.41l6.76-27.12c.95-3.82,2.11-10.11,2.25-13.85,1.1-13.98-2.51-27.07-10.43-37.16-9.86-12.56-25.08-19.48-42.86-19.48-35.96,0-71.57,28.34-80.47,64.05l-7.38,29.6c-10.21,40.96-3.31,80.22,18.47,109.1" fill="none" stroke="#283a97" stroke-miterlimit="10" stroke-width="2.32"/>
              <path d="M739.36,951.86c16.29,10.68,35.74,16.9,57.32,18.29,5.42.35,10.92.4,16.48.14,38.25-1.78,76.89-17.86,108.98-44.38,32.03-26.48,55.44-61.72,64.92-99.76l6.14-24.65c.63-2.55,2.23-10.03,2.32-12.53,1.62-12.91-1.28-24.87-8.37-33.91-8.27-10.53-21.18-16.32-36.36-16.32-32.13,0-64.48,25.82-72.46,57.81l-7.38,29.6c-9.71,38.95-3.2,75.85,17.54,102.83" fill="none" stroke="#283a97" stroke-miterlimit="10" stroke-width="2.32"/>
              <path d="M746.82,946.9c15.52,9.39,34,14.61,54.47,15.3,5.12.18,10.29.07,15.48-.31,36.12-2.68,72.16-18.63,101.72-43.61,29.54-24.96,51.57-58.09,60.55-94.11l5.53-22.18c.32-1.27,2.35-9.96,2.39-11.21,2.15-11.83-.06-22.68-6.32-30.65-6.67-8.49-17.27-13.17-29.86-13.17-28.3,0-57.4,23.29-64.45,51.57l-7.38,29.6c-9.21,36.94-3.08,71.48,16.61,96.56" fill="none" stroke="#283a97" stroke-miterlimit="10" stroke-width="2.32"/>
              <path d="M754.29,941.94c14.76,8.1,32.27,12.31,51.62,12.31,72.9,0,146.98-59.24,165.13-132.05l7.38-29.6c2.68-10.75,1.17-20.49-4.27-27.4-5.07-6.46-13.37-10.01-23.36-10.01-24.47,0-50.32,20.76-56.44,45.33l-7.38,29.6c-8.71,34.93-2.97,67.11,15.68,90.28" fill="none" stroke="#283a97" stroke-miterlimit="10" stroke-width="2.32"/>
            </g>
            <g>
              <path d="M928.44,941.94c14.76,8.1,32.27,12.31,51.62,12.31,72.91,0,146.98-59.24,165.13-132.05l50.94-203.05c2.67-10.73,1.16-20.46-4.27-27.38-5.07-6.46-13.37-10.01-23.36-10.01-24.47,0-50.32,20.76-56.44,45.34l-2.38,9.43" fill="none" stroke="#283a97" stroke-miterlimit="10" stroke-width="2.32"/>
              <path d="M1101.17,636.51l2.88-11.42c7.05-28.27,36.15-51.56,64.45-51.56,12.59,0,23.19,4.68,29.86,13.17,5.73,7.29,7.88,17.14,6.21,27.93.26,2.09-4.12,21.16-4.67,23.38l-46.71,186.17c-8.97,36.01-31.02,69.15-60.56,94.11-29.58,24.99-65.62,40.93-101.76,43.6-5.17.38-10.32.48-15.42.31-20.47-.69-38.94-5.9-54.47-15.29" fill="none" stroke="#283a97" stroke-miterlimit="10" stroke-width="2.32"/>
              <path d="M1092.67,636.51l3.38-13.41c7.97-31.97,40.32-57.79,72.45-57.79,15.18,0,28.09,5.8,36.36,16.32,6.03,7.67,8.82,17.63,8.15,28.48.51,4.17-2.59,19.82-3.69,24.25l-48.12,191.8c-9.48,38.03-32.89,73.27-64.93,99.75-32.09,26.53-70.74,42.6-109,44.38-5.54.25-11.02.2-16.42-.14-21.58-1.38-41.03-7.59-57.32-18.27" fill="none" stroke="#283a97" stroke-miterlimit="10" stroke-width="2.32"/>
              <path d="M1084.16,636.51l3.89-15.4c8.89-35.67,44.5-64.01,80.46-64.01,17.77,0,32.99,6.92,42.86,19.48,6.32,8.05,9.75,18.12,10.1,29.03.77,6.26-1.06,18.48-2.71,25.12l-49.53,197.42c-9.98,40.04-34.77,77.38-69.3,105.39-34.61,28.08-75.86,44.27-116.24,45.16-5.91.13-11.72-.07-17.41-.59-22.7-2.07-43.11-9.29-60.16-21.24" fill="none" stroke="#283a97" stroke-miterlimit="10" stroke-width="2.32"/>
              <path d="M1075.65,636.51l4.39-17.39c9.81-39.36,48.67-70.24,88.46-70.24,20.37,0,37.89,8.04,49.36,22.63,11.65,14.84,15.41,35.09,10.3,55.57l-50.94,203.05c-10.48,42.06-36.65,81.5-73.67,111.04-37.13,29.62-80.99,45.94-123.49,45.94-31.23,0-59.12-8.69-81.41-25.27" fill="none" stroke="#283a97" stroke-miterlimit="10" stroke-width="2.32"/>
            </g>
            <g>
              <path d="M1048.49,937.57c-22.83-30.78-30.11-72.39-19.4-115.38l21.71-87.09c1.54-6.17,7.25-28.86,17.02-67.55" fill="none" stroke="#283a97" stroke-miterlimit="10" stroke-width="2.32"/>
              <path d="M1076.32,667.55c-10.07,39.9-15.95,63.26-17.52,69.53l-21.71,87.1c-10.21,40.98-3.32,80.22,18.47,109.1" fill="none" stroke="#283a97" stroke-miterlimit="10" stroke-width="2.32"/>
              <path d="M1084.83,667.55c-10.38,41.12-16.43,65.14-18.02,71.51l-21.7,87.1c-9.71,38.96-3.2,75.85,17.54,102.83" fill="none" stroke="#283a97" stroke-miterlimit="10" stroke-width="2.32"/>
              <path d="M1093.34,667.55c-10.68,42.33-16.91,67.03-18.52,73.49l-21.7,87.1c-9.21,36.95-3.09,71.48,16.61,96.56" fill="none" stroke="#283a97" stroke-miterlimit="10" stroke-width="2.32"/>
              <path d="M1101.85,667.55c-10.99,43.54-17.38,68.91-19.02,75.46l-21.7,87.1c-8.71,34.94-2.97,67.11,15.68,90.28" fill="none" stroke="#283a97" stroke-miterlimit="10" stroke-width="2.32"/>
            </g>
            <g>
              <path d="M1222.64,937.57c-22.82-30.78-30.11-72.41-19.4-115.38l7.38-29.6c9.82-39.41,48.69-70.28,88.48-70.28,20.37,0,37.89,8.04,49.36,22.63,11.65,14.84,15.41,35.09,10.3,55.57l-7.38,29.6c-10.49,42.08-36.65,81.53-73.68,111.06-37.13,29.62-80.99,45.94-123.49,45.94-31.22,0-59.11-8.7-81.42-25.27" fill="none" stroke="#283a97" stroke-miterlimit="10" stroke-width="2.32"/>
              <path d="M1080.26,956.88c17.04,11.94,37.43,19.15,60.1,21.23,5.71.53,11.54.73,17.47.6,40.38-.89,81.62-17.08,116.23-45.16,34.53-28.01,59.32-65.35,69.3-105.41l6.76-27.12c.95-3.82,2.11-10.1,2.25-13.84,1.1-13.98-2.5-27.07-10.43-37.16-9.86-12.56-25.08-19.48-42.86-19.48-35.96,0-71.57,28.34-80.47,64.05l-7.38,29.6c-10.21,40.95-3.31,80.22,18.47,109.1" fill="none" stroke="#283a97" stroke-miterlimit="10" stroke-width="2.32"/>
              <path d="M1087.73,951.91c16.28,10.65,35.7,16.86,57.25,18.25,5.42.35,10.91.4,16.47.14,38.25-1.78,76.89-17.85,108.98-44.38,32.03-26.48,55.44-61.72,64.93-99.76l6.14-24.65c.63-2.55,2.23-10.03,2.32-12.53,1.62-12.91-1.28-24.88-8.37-33.91-8.27-10.53-21.18-16.32-36.36-16.32-32.13,0-64.48,25.82-72.46,57.81l-7.38,29.6c-9.71,38.94-3.19,75.85,17.54,102.83" fill="none" stroke="#283a97" stroke-miterlimit="10" stroke-width="2.32"/>
              <path d="M1095.19,946.94c15.51,9.37,33.97,14.57,54.41,15.26,5.12.18,10.29.07,15.48-.31,36.12-2.68,72.16-18.62,101.73-43.61,29.54-24.96,51.57-58.09,60.55-94.11l5.53-22.18c.32-1.27,2.35-9.96,2.39-11.21,2.15-11.83-.06-22.68-6.32-30.66-6.67-8.49-17.27-13.17-29.86-13.17-28.3,0-57.4,23.29-64.45,51.57l-7.38,29.6c-9.21,36.93-3.08,71.48,16.61,96.56" fill="none" stroke="#283a97" stroke-miterlimit="10" stroke-width="2.32"/>
              <path d="M1102.65,941.97c14.75,8.08,32.23,12.28,51.56,12.28,72.91,0,146.98-59.24,165.13-132.05l7.38-29.6c2.68-10.76,1.17-20.49-4.27-27.41-5.07-6.46-13.37-10.01-23.36-10.01-24.47,0-50.32,20.76-56.44,45.33l-7.38,29.6c-8.7,34.92-2.97,67.11,15.68,90.28" fill="none" stroke="#283a97" stroke-miterlimit="10" stroke-width="2.32"/>
            </g>
            <g>
              <line x1="839.72" y1="652.03" x2="660.56" y2="652.03" fill="none" stroke="#283a97" stroke-miterlimit="10" stroke-width="2.32"/>
              <g>
                <path d="M835.82,667.55h-175.26c-8.61,0-15.59-6.95-15.59-15.52s6.98-15.52,15.59-15.52h183.07" fill="none" stroke="#283a97" stroke-miterlimit="10" stroke-width="2.32"/>
                <path d="M837.77,659.79h-177.21c-4.3,0-7.79-3.48-7.79-7.76s3.49-7.76,7.79-7.76h181.12" fill="none" stroke="#283a97" stroke-miterlimit="10" stroke-width="2.32"/>
              </g>
            </g>
            <g>
              <line x1="1299.11" y1="652.03" x2="1221.9" y2="652.03" fill="none" stroke="#283a97" stroke-miterlimit="10" stroke-width="2.32"/>
              <g>
                <path d="M1225.8,636.51h73.31c8.61,0,15.59,6.95,15.59,15.52s-6.98,15.52-15.59,15.52h-81.1" fill="none" stroke="#283a97" stroke-miterlimit="10" stroke-width="2.32"/>
                <path d="M1223.85,644.27h75.26c4.3,0,7.79,3.47,7.79,7.76s-3.49,7.76-7.79,7.76h0s-79.15,0-79.15,0" fill="none" stroke="#283a97" stroke-miterlimit="10" stroke-width="2.32"/>
              </g>
            </g>
            <g>
              <path d="M744.51,636.51c2.03-8,3.35-13.19,3.41-13.42,8.05-31.94,40.32-57.77,72.45-57.77,15.18,0,28.09,5.8,36.36,16.32,6.02,7.66,8.81,17.6,8.15,28.44.52,4.18-2.59,19.87-3.7,24.3l-48.28,191.79c-9.76,39.17-34.32,75.35-67.71,102.07-33.54,26.83-73.9,42.44-113.43,42.44" fill="none" stroke="#283a97" stroke-miterlimit="10" stroke-width="2.32"/>
              <g>
                <path d="M727.49,636.51c2.62-10.29,4.36-17.16,4.43-17.42,9.8-39.34,48.67-70.21,88.46-70.21,20.37,0,37.89,8.04,49.36,22.63,11.65,14.84,15.41,35.09,10.3,55.57l-51.11,203.06c-10.48,42.04-36.64,81.49-73.67,111.03-37.13,29.62-80.98,45.94-123.48,45.94-9.11,0-16.5-7.36-16.5-16.43s7.39-16.43,16.5-16.43c72.9,0,146.98-59.24,165.13-132.05l51.11-203.06c2.67-10.72,1.15-20.45-4.28-27.37-5.07-6.46-13.37-10.01-23.36-10.01-24.47,0-50.32,20.76-56.44,45.34-.05.2-.95,3.72-2.4,9.43" fill="none" stroke="#283a97" stroke-miterlimit="10" stroke-width="2.32"/>
                <path d="M736,636.51c2.32-9.15,3.86-15.17,3.92-15.42,8.97-35.63,44.49-63.99,80.45-63.99,17.77,0,32.99,6.92,42.86,19.48,6.31,8.04,9.74,18.08,10.09,28.97.78,6.27-1.05,18.53-2.71,25.18l-49.7,197.43c-10.12,40.61-35.48,78.42-70.69,106.55-35.33,28.23-77.44,44.19-118.46,44.19-4.25,0-7.69-3.68-7.69-8.22s3.45-8.22,7.69-8.22c38.05,0,76.65-15.25,108.4-40.69,31.58-25.3,55.33-59.86,64.73-97.59l46.86-186.16c.55-2.22,4.94-21.33,4.69-23.42,1.66-10.78-.49-20.61-6.21-27.9-6.67-8.49-17.27-13.17-29.86-13.17-28.3,0-57.33,23.31-64.44,51.55-.05.21-1.16,4.57-2.9,11.42" fill="none" stroke="#283a97" stroke-miterlimit="10" stroke-width="2.32"/>
              </g>
            </g>
            <g>
              <path d="M1261.85,951.89c8.8,5.86,18.54,10.39,29.05,13.53,11.62,3.48,24.19,5.26,37.47,5.26" fill="none" stroke="#283a97" stroke-miterlimit="10" stroke-width="2.32"/>
              <path d="M1269.3,946.92c7.92,4.86,16.62,8.61,25.97,11.22,10.3,2.87,21.39,4.33,33.1,4.33,4.25,0,7.69,3.68,7.69,8.22s-3.45,8.22-7.69,8.22c-14.86,0-28.9-2.09-41.84-6.18-11.67-3.69-22.45-8.99-32.13-15.84" fill="none" stroke="#283a97" stroke-miterlimit="10" stroke-width="2.32"/>
              <path d="M1276.74,941.94c7.04,3.86,14.7,6.84,22.9,8.9,8.98,2.26,18.6,3.41,28.72,3.41,9.11,0,16.5,7.36,16.5,16.43s-7.39,16.43-16.5,16.43c-31.23,0-59.12-8.69-81.41-25.27" fill="none" stroke="#283a97" stroke-miterlimit="10" stroke-width="2.32"/>
            </g>
          </g>
          <path d="M1437.29,669.7c1.23-1.72.48-4.14-1.52-4.87h0c-1.36-.49-2.87-.01-3.71,1.16-4.38,6.13-11.57,10.14-19.7,10.14-14.03,0-25.25-11.91-24.11-26.12.92-11.43,10.18-20.81,21.63-21.94,9.16-.9,17.39,3.26,22.21,10.03.83,1.17,2.35,1.63,3.7,1.14h0c1.98-.72,2.75-3.12,1.53-4.84-6.3-8.86-17.22-14.23-29.28-12.59-13.69,1.86-24.59,13.04-26.11,26.71-2.05,18.41,12.36,33.99,30.43,33.99,10.29,0,19.38-5.07,24.93-12.83Z" fill="none" stroke="#283a97" stroke-miterlimit="10" stroke-width="2.32"/>
          <path d="M1412.52,594.23c-32.06,0-58.05,25.88-58.05,57.81s25.99,57.81,58.05,57.81,58.05-25.88,58.05-57.81-25.99-57.81-58.05-57.81ZM1412.52,703.45c-28.49,0-51.63-23.04-51.63-51.42s23.14-51.42,51.63-51.42,51.63,23.04,51.63,51.42-23.14,51.42-51.63,51.42Z" fill="none" stroke="#283a97" stroke-miterlimit="10" stroke-width="2.32"/>
        </g>
      </g>
      <line id="far-left" x1="615.26" y1="256" x2="615.26" y2="1280" fill="none" stroke="#00c2f3" stroke-miterlimit="10">
        <!-- Vertical scale animation: scale up 1s, stay 2s, scale down 1s, stay hidden 2s, repeat -->
        <animate attributeName="y1" values="768; 256; 256; 768; 768" dur="6s" repeatCount="indefinite" keyTimes="0; 0.167; 0.5; 0.667; 1"/>
        <animate attributeName="y2" values="768; 1280; 1280; 768; 768" dur="6s" repeatCount="indefinite" keyTimes="0; 0.167; 0.5; 0.667; 1"/>
      </line>
      <circle id="circle" cx="1024" cy="768" r="512" fill="none" stroke="#283a97" stroke-miterlimit="10" stroke-dasharray="3216.99" stroke-dashoffset="3216.99" transform="rotate(180 1024 768)">
        <!-- Drawing animation: stroke draws clockwise 1s, stay 2s, undraw 1s, stay hidden 2s, repeat -->
        <animate attributeName="stroke-dashoffset" values="3216.99; 0; 0; 3216.99; 3216.99" dur="6s" repeatCount="indefinite" keyTimes="0; 0.167; 0.5; 0.667; 1"/>
      </circle>
      <g id="x-center">
        <line x1="1536" y1="768" x2="615.26" y2="768" fill="none" stroke="#00c2f3" stroke-miterlimit="10" stroke-width=".95">
          <!-- Horizontal scale animation: scale up 1s, stay 2s, scale down 1s, stay hidden 2s, repeat -->
          <animate attributeName="x1" values="1024; 1536; 1536; 1024; 1024" dur="6s" repeatCount="indefinite" keyTimes="0; 0.167; 0.5; 0.667; 1"/>
          <animate attributeName="x2" values="1024; 615.26; 615.26; 1024; 1024" dur="6s" repeatCount="indefinite" keyTimes="0; 0.167; 0.5; 0.667; 1"/>
        </line>
      </g>
      <line id="y-center" x1="1024.14" y1="256" x2="1024.14" y2="1280" fill="none" stroke="#00c2f3" stroke-miterlimit="10">
        <!-- Vertical scale animation: scale up 1s, stay 2s, scale down 1s, stay hidden 2s, repeat -->
        <animate attributeName="y1" values="768; 256; 256; 768; 768" dur="6s" repeatCount="indefinite" keyTimes="0; 0.167; 0.5; 0.667; 1"/>
        <animate attributeName="y2" values="768; 1280; 1280; 768; 768" dur="6s" repeatCount="indefinite" keyTimes="0; 0.167; 0.5; 0.667; 1"/>
      </line>
      <g id="c" opacity=".7">
        <path d="M563.63,715.9c-28.49,0-51.63,23.04-51.63,51.42s23.14,51.42,51.63,51.42,51.63-23.04,51.63-51.42-23.14-51.42-51.63-51.42Z" fill="#00c2f3"/>
        <path d="M1412.52,600.61c-28.49,0-51.63,23.04-51.63,51.42s23.14,51.42,51.63,51.42,51.63-23.04,51.63-51.42-23.14-51.42-51.63-51.42Z" fill="#00c2f3"/>
        <animate attributeName="opacity" values="0; .7; .7; 0; 0" dur="6s" repeatCount="indefinite" keyTimes="0; 0.167; 0.5; 0.667; 1"/>
      </g>
      <circle id="center-point" cx="1024.14" cy="858.91" r="25.42" opacity=".7" fill="#00c2f3" stroke="none" stroke-miterlimit="10" stroke-width=".85">
        <animate attributeName="opacity" values="0; .7; .7; 0; 0" dur="6s" repeatCount="indefinite" keyTimes="0; 0.167; 0.5; 0.667; 1"/>
      </circle>
    </g>
  </g>
</svg>