<?xml version="1.0" encoding="UTF-8"?>
<svg xmlns="http://www.w3.org/2000/svg" viewBox="0 0 2048 1536">
  <g isolation="isolate">
    <g id="img-grid">
      <g opacity=".5">
        <rect y="384" width="2048" height="768" fill="#f0f"/>
      </g>
      <rect x="512" width="1024" height="1536" fill="aqua" opacity=".5"/>
    </g>
    <g id="logo-grid">
      <g id="App_Icon_Shape_ios_macos" data-name="App Icon Shape ios, macos">
        <path d="M1535.999940067971693,906.999949643293803c0,14.24273681640625.005920410159888,28.48321533203125-.084045410150793,42.7259521484375-.068908691409888,11.99639892578125-.207275390628638,23.99017333984375-.532348632808862,35.98297119140625-.708312988290345,26.13360595703125-2.246459960941138,52.49407958984375-6.89208984375,78.33758544921875-4.712768554691138,26.2171630859375-12.403991699220569,50.6175537109375-24.528869628911707,74.43792724609375-11.91705322265625,23.412109375-27.489013671875,44.83697509765625-46.06512451171875,63.4130859375s-40.0009765625,34.1480712890625-63.4130859375,46.06512451171875c-23.82037353515625,12.124877929691138-48.220703125,19.816040039060681-74.43792724609375,24.528869628911707-25.84344482421875,4.645629882808862-52.2039794921875,6.183776855459655-78.33758544921875,6.89208984375-11.9927978515625.325073242180224-23.986572265625.463439941398974-35.98291015625.532348632808862-14.24273681640625.089965820310681-28.48321533203125.083984375-42.7259521484375.083984375h-278c-14.24273681640625,0-28.48321533203125.005981445310681-42.725952148436591-.083984375-11.996337890625-.068908691409888-23.990112304688409-.207275390628638-35.98291015625-.532348632808862-26.133605957032159-.708312988290345-52.494140625-2.246459960941138-78.337585449219659-6.89208984375-26.21722412109375-4.712829589851026-50.6175537109375-12.403991699220569-74.43792724609375-24.528869628911707-23.412109375-11.91705322265625-44.83697509765625-27.489013671875-63.4130859375-46.06512451171875s-34.1480712890625-40.0009765625-46.06512451171875-63.4130859375c-12.1248779296875-23.82037353515625-19.81610107421875-48.22076416015625-24.52886962890625-74.43792724609375-4.6456298828125-25.843505859375-6.18377685546875-52.2039794921875-6.89208984375-78.33758544921875-.3250732421875-11.9927978515625-.46343994140625-23.986572265625-.5323486328125-35.98297119140625-.09002685546875-14.24273681640625-.08404541015625-28.48321533203125-.08404541015625-42.7259521484375v-277.99993896484375c0-14.24273681640625-.0059814453125-28.48321533203125.08404541015625-42.7259521484375.06890869140625-11.996337890625.207275390625-23.99017333984375.5323486328125-35.98291015625.70831298828125-26.13360595703125,2.2464599609375-52.494140625,6.89208984375-78.33758544921875,4.7127685546875-26.21722412109375,12.40399169921875-50.6175537109375,24.52886962890625-74.43798828125,11.91705322265625-23.41204833984375,27.489013671875-44.8369140625,46.06512451171875-63.41302490234375s40.0009765625-34.1480712890625,63.4130859375-46.06512451171875c23.82037353515625-12.12493896484375,48.220703125-19.81610107421875,74.43792724609375-24.52886962890625,25.843444824219659-4.64569091796875,52.2039794921875-6.18377685546875,78.337585449219659-6.89215087890625,11.992797851561591-.32501220703125,23.986572265625-.46337890625,35.98291015625-.5323486328125,14.242736816405341-.0899658203125,28.483215332030341-.083984375,42.725952148436591-.083984375h278c14.24273681640625,0,28.48321533203125-.0059814453125,42.7259521484375.083984375,11.996337890625.0689697265625,23.9901123046875.20733642578125,35.98291015625.5323486328125,26.13360595703125.7083740234375,52.494140625,2.2464599609375,78.33758544921875,6.89215087890625,26.21722412109375,4.7127685546875,50.6175537109375,12.4039306640625,74.43792724609375,24.52886962890625,23.412109375,11.91705322265625,44.83697509765625,27.489013671875,63.4130859375,46.06512451171875s34.1480712890625,40.0009765625,46.06512451171875,63.41302490234375c12.124877929691138,23.8204345703125,19.816101074220569,48.22076416015625,24.528869628911707,74.43798828125,4.645629882808862,25.84344482421875,6.183776855459655,52.2039794921875,6.89208984375,78.33758544921875.325073242180224,11.99273681640625.463439941398974,23.986572265625.532348632808862,35.98291015625.089965820310681,14.24273681640625.084045410150793,28.48321533203125.084045410150793,42.7259521484375v277.99993896484375Z" fill="#fcee21" mix-blend-mode="screen" opacity=".15"/>
      </g>
      <path id="watch" d="M1024,256h0c282.769775390625,0,512,229.230194091796875,512,512h0c0,282.769775390625-229.230224609375,512-512,512h0c-282.769775390625,0-512-229.230224609375-512-512h0c0-282.769805908203125,229.230224609375-512,512-512Z" fill="#fcee21" mix-blend-mode="screen" opacity=".15"/>
      <path d="M512,256h1024v1024H512V256Z" fill="#fcee21" isolation="isolate" mix-blend-mode="screen" opacity=".15"/>
      <rect x="682.66998291015625" y="341.329986572265625" width="682.66998291015625" height="853.330047607421875" rx="85.329986572265625" ry="85.329986572265625" fill="#fcee21" isolation="isolate" mix-blend-mode="screen" opacity=".15"/>
      <rect x="597.33001708984375" y="426.670013427734375" width="853.33001708984375" height="682.669952392578125" rx="85.329986572265625" ry="85.329986572265625" fill="#fcee21" isolation="isolate" mix-blend-mode="screen" opacity=".15"/>
      <rect x="640" y="384" width="768" height="768" rx="85.760009765625" ry="85.760009765625" fill="#fcee21" isolation="isolate" mix-blend-mode="screen" opacity=".15"/>
      <g mix-blend-mode="screen" opacity=".15">
        <circle cx="1024" cy="768.000007629394531" r="426.670040130615234" fill="#fcee21" isolation="isolate"/>
        <circle cx="1024" cy="768" r="256" fill="#fcee21" isolation="isolate"/>
        <circle cx="1023.999984741210938" cy="768" r="85.330001831050595" transform="translate(-243.135356355488966 949.01932519416323) rotate(-45.000000000000014)" fill="#fcee21" isolation="isolate"/>
      </g>
    </g>
  </g>
</svg>