<?xml version="1.0" encoding="UTF-8"?>
<svg id="Layer_2" data-name="Layer 2" xmlns="http://www.w3.org/2000/svg" viewBox="0 0 1023.999999999998181 1023.996739133894152">
  <g id="handmade-educational-toys">
    <g>
      <rect x=".000000000000909" width="1023.999999999998181" height="1023.996739133894152" fill="#fff"/>
      <g>
        <path d="M511.996164539759775,441.180707438012178c50.908985834897976,0,92.172147551960734,41.263161717046387,92.172147551960734,92.172147551940725,0,50.900532001323882-41.263161717062758,92.172147551980743-92.172147551960734,92.172147551980743-50.900532001318425,0-92.163693718377544-41.271615550656861-92.163693718377544-92.172147551980743,0-25.834915428664317,10.618014979851068-49.184403784027381,27.737027984776432-65.914540444155136,16.620236823546293-16.239814312304588,39.352595327374729-26.257607107785589,64.426665733601112-26.257607107785589Z" fill="#fff"/>
        <path d="M511.996185179003078,258.383455624025373c-122.724287672299397,0-229.200331965770602,70.860090879894415-280.709533793271476,173.802438927566982,1.208892010547061-.177497482429317,2.417784021099578-.346739268043166,3.626676031650277-.498850482623311,1.191967831993679-.15211121462562,2.392449351371397-.295760339949993,3.592879272642676-.414229589861861,1.18355734081706-.135393428501629,2.367063083522225-.253656285982288,3.550620424346562-.363457054203536,1.166633162252765-.101545071320288,2.333266324516444-.20288375027485,3.508309977951285-.279042553787804,1.158171072975165-.084414500372077,2.307931654777349-.160573303881392,3.466102727763428-.219807928835507,1.149708983693927-.067696714253543,2.299417967396948-.118469249915506,3.44917854920277-.152111214621982,1.132784805140545-.050772535665601,2.274031699553234-.076158803514772,3.406868102798398-.101545071331202,50.038243039813096-89.948706762757865,146.073771899813437-150.960164075837383,256.108898706916079-150.960164075837383,110.035075208990747,0,206.07906615828324,61.011457313079518,256.11730919808906,150.960164075837383,1.132836403248803.02538626781643,2.274083297668767.050772535665601,3.406919700913932.101545071331202,1.141246894414508.033641964706476,2.29095587811571.084414500368439,3.43225437064757.152111214621982,1.158171072975165.059234624954115,2.316342145957606.135393428463431,3.474513218925495.219807928835507,1.17509525153946.076158803512953,2.350190503080739.177497482467516,3.516772067228885.279042553787804,1.183557340820698.109800768221248,2.367114681634121.228063625701907,3.5506204243502.363457054203536,1.200481519381356.118469249911868,2.392449351364121.262118375236241,3.584417183361438.414229589861861,1.20894360865168.152111214580145,2.417835619207835.321353000193994,3.626727629754896.498850482623311-51.509201827500874-102.942348047672567-157.976784031694478-173.802438927566982-280.709533793271476-173.802438927566982Z" fill="#283a97"/>
        <path d="M234.913315033836625,431.687052324657998c1.191990535160585-.152169004490133,2.392434903900721-.295884175407991,3.592879272646314-.414237845550815,1.183536701570119-.135261337316479,2.367073403143877-.25361500749932,3.550610104721272-.363514844066231,1.166629034407379-.101446003007368,2.333258068818395-.202892005976537,3.508340936808963-.278976508237974,1.158175200831465-.084538335793695,2.307896568074284-.160622838055133,3.466071768898473-.219799673146554,1.149721367251914-.067630668652782,2.299442734491095-.118353670139186,3.449164101732094-.152169004488314,1.132813700080078-.050723001480947,2.274081233741526-.076084502225058,3.406894933825242-.101446002970988,1.234259703071075-.025361500773215,2.46851940614215-.033815334345491,3.702779109213225-.033815334345491h504.820672389743777c1.234259703067437,0,2.468519406138512.008453833572275,3.702779109213225.033815334345491,1.13281370007644.02536150074593,2.274081233739707.050723001490041,3.406894933825242.101446002970988,1.141267533655991.033815334349129,2.290988900893353.084538335835532,3.432256434556621.152169004488314,1.158175200831465.059176835091421,2.316350401659292.135261337352858,3.474525602485301.219799673146554,1.175082867994206.076084502261438,2.350165735988412.177530505230607,3.516794770399429.278976508237974,1.183536701570119.10989983656691,2.367073403149334.228253506749752,3.550610104726729.363514844066231,1.20044436873286.118353670142824,2.392434903889807.262068841060682,3.584425439052211.414237845550815,1.208898202323326.152169004488314,2.41779640464847.321245676144827,3.626694606971796.498776181382709,93.068253911720603,13.686756570346915,164.511601518952375,93.871368102061751,164.511601518952375,190.743847126017499v6.27274451834819c0,4.074747786813532-3.305448930823331,7.380196717649596-7.380196717682338,7.380196717649596h-70.048465066080098c0-71.265817101970242-57.765044870455313-129.039315806026934-129.030861972447383-129.039315806026934-35.108770868873762,0-66.93745430765739,14.016456080105854-90.193950493618104,36.757268417510204-23.966618206895873,23.434026691194958-38.845365312412468,56.116547321826147-38.845365312412468,92.28204738851673h-219.436158305628851c0-71.265817101970242-57.773498704033045-129.039315806026934-129.039315806030572-129.039315806026934-71.265817101988432,0-129.039315806036029,57.773498704056692-129.039315806036029,129.039315806026934h-70.04846506607646c-4.074747786857188,0-7.371742884106425-3.305448930836064-7.371742884106425-7.380196717649596v-6.27274451834819c0-96.872479023955748,71.434893773654039-177.048636722101946,164.503147685376462-190.743847126017499,1.208898202321507-.177530505237883,2.417796404644832-.346607176894395,3.626694606969977-.498776181382709ZM604.168312091720509,533.352854989952903c0-50.908985834894338-41.263161717062758-92.172147551940725-92.172147551960734-92.172147551940725-25.074070406226383,0-47.806428910054819,10.017792795481-64.426665733601112,26.257607107785589-17.119013004925364,16.730136660127755-27.737027984776432,40.079625015490819-27.737027984776432,65.914540444155136,0,50.900532001323882,41.26316171705912,92.172147551980743,92.163693718377544,92.172147551980743,50.908985834897976,0,92.172147551960734-41.271615550656861,92.172147551960734-92.172147551980743Z" fill="#fcee21"/>
        <g>
          <g>
            <path d="M750.757786415399096,507.543301062029059c71.26581710199207,0,129.030861972447383,57.773498704056692,129.030861972447383,129.039315806026934,0,71.265817102002984-57.765044870455313,129.030861972461935-129.030861972447383,129.030861972461935-71.265817101999346,0-129.039315806030572-57.765044870458951-129.039315806030572-129.030861972461935,0-36.165500066690583,14.878747105516595-68.848020697321772,38.845365312412468-92.28204738851673,23.256496185960714-22.74081233740435,55.085179624744342-36.757268417510204,90.193950493618104-36.757268417510204Z" fill="#283a97"/>
            <path d="M273.247223414506152,507.543301062029059c71.265817101990251,0,129.030861972447383,57.773498704056692,129.030861972447383,129.039315806026934,0,71.265817102002984-57.765044870457132,129.030861972461935-129.030861972447383,129.030861972461935-71.265817101999346,0-129.039315806032391-57.765044870458951-129.039315806032391-129.030861972461935,0-36.165500066690583,14.878747105518414-68.848020697321772,38.845365312414287-92.28204738851673,23.256496185960714-22.74081233740435,55.085179624742523-36.757268417510204,90.193950493618104-36.757268417510204Z" fill="#283a97"/>
          </g>
          <g>
            <path d="M755.7578125,780.613926633894152c-76.666015625,0-139.0390625-62.369140625-139.0390625-139.03125,0-37.728515625,14.8642578125-73.041015625,41.853515625-99.431640625,26.12109375-25.541015625,60.6357421875-39.607421875,97.185546875-39.607421875,76.662109375,0,139.03125,62.373046875,139.03125,139.0390625,0,76.662109375-62.369140625,139.03125-139.03125,139.03125Z" fill="#283a97"/>
            <path d="M278.2470703125,780.613926633894152c-76.666015625,0-139.0390625-62.369140625-139.0390625-139.03125,0-37.728515625,14.8642578125-73.041015625,41.8544921875-99.4326171875,26.1201171875-25.5400390625,60.6337890625-39.6064453125,97.1845703125-39.6064453125,76.662109375,0,139.03125,62.373046875,139.03125,139.0390625,0,76.662109375-62.369140625,139.03125-139.03125,139.03125Z" fill="#283a97"/>
          </g>
          <g>
            <path d="M750.757786415399096,507.543301062029059c71.26581710199207,0,129.030861972447383,57.773498704056692,129.030861972447383,129.039315806026934,0,71.265817102002984-57.765044870455313,129.030861972461935-129.030861972447383,129.030861972461935-71.265817101999346,0-129.039315806030572-57.765044870458951-129.039315806030572-129.030861972461935,0-36.165500066690583,14.878747105516595-68.848020697321772,38.845365312412468-92.28204738851673,23.256496185960714-22.74081233740435,55.085179624744342-36.757268417510204,90.193950493618104-36.757268417510204Z" fill="#00c2f3"/>
            <path d="M273.247223414506152,507.543301062029059c71.265817101990251,0,129.030861972447383,57.773498704056692,129.030861972447383,129.039315806026934,0,71.265817102002984-57.765044870457132,129.030861972461935-129.030861972447383,129.030861972461935-71.265817101999346,0-129.039315806032391-57.765044870458951-129.039315806032391-129.030861972461935,0-36.165500066690583,14.878747105518414-68.848020697321772,38.845365312414287-92.28204738851673,23.256496185960714-22.74081233740435,55.085179624742523-36.757268417510204,90.193950493618104-36.757268417510204Z" fill="#00c2f3"/>
          </g>
        </g>
        <path d="M806.240296218522417,636.582616868055993c0-30.645146737215327-24.83736306591527-55.490963636697415-55.482509803123321-55.490963636697415-15.098546778672244,0-28.785303349026435,6.027583344462982-38.786188477341057,15.808668799589213-10.305223137289431,10.076969630570602-16.704775159376368,24.12724104498011-16.704775159376368,39.682294837108202,0,30.645146737222603,24.845816899494821,55.482509803130597,55.490963636717424,55.482509803130597,30.645146737208051,0,55.482509803123321-24.837363065907994,55.482509803123321-55.482509803130597Z" fill="#fff"/>
        <path d="M328.725506300843335,636.582616868055993c0-30.645146737215327-24.83736306591527-55.490963636697415-55.482509803134235-55.490963636697415-15.098546778670425,0-28.785303349022797,6.027583344462982-38.786188477337419,15.808668799589213-10.305223137282155,10.076969630570602-16.696321325787721,24.12724104498011-16.696321325787721,39.682294837108202,0,30.645146737222603,24.837363065911632,55.482509803130597,55.48250980312514,55.482509803130597,30.645146737218965,0,55.482509803134235-24.837363065907994,55.482509803134235-55.482509803130597Z" fill="#fff"/>
      </g>
    </g>
  </g>
</svg>