<?xml version="1.0" encoding="UTF-8"?>
<svg id="Layer_2" data-name="Layer 2" xmlns="http://www.w3.org/2000/svg" viewBox="0 0 511.999999999998181 512">
  <g id="handmade-educational-toys">
    <g>
      <rect width="511.999999999998181" height="512" fill="#fff"/>
      <g>
        <path d="M333.555664062498181,399c-.3095703125,0-.6142578125-.01220703125-.9140625-.037109375-9.7587890625-.466796875-17.6015625-8.642578125-17.6015625-18.49609375v-3.2216796875c0-2.3095703125-2.138671875-2.82958984375-2.888671875-2.82958984375-.7099609375,0-1.30859375.26806640625-1.8857421875.84423828125l-18.296875,18.30859375c-3.3994140625,3.43798828125-8.1904296875,5.431640625-13.1064453125,5.431640625h-35.5751953125c-4.9130859375,0-9.5537109375-1.9150390625-13.0673828125-5.39306640625l-18.2900390625-18.3310546875c-.572265625-.57275390625-1.1728515625-.84228515625-1.8828125-.84228515625-.7470703125,0-2.87890625.51904296875-2.87890625,2.82470703125v3.20849609375c0,10.21923828125-8.3115234375,18.533203125-18.52734375,18.533203125h-46.9462890625c-10.21875,0-18.5322265625-8.31396484375-18.5322265625-18.533203125v-46.853515625c-.21484375-1.18994140625-.2099609375-2.3955078125,0-3.56005859375v-17.84912109375c0-10.21923828125,8.3134765625-18.533203125,18.5322265625-18.533203125h19.6865234375c5.0078125,0,9.6201171875-1.3134765625,13.7080078125-3.90380859375.408203125-.25537109375.75390625-.48876953125,1.091796875-.72998046875.416015625-.2939453125.767578125-.56298828125,1.11328125-.83642578125.3408203125-.26904296875.677734375-.55126953125,1.0048828125-.83935546875.3173828125-.27978515625.623046875-.56494140625.9228515625-.8623046875.044921875-.044921875.0908203125-.08935546875.1376953125-.13330078125.279296875-.26611328125.5458984375-.546875.806640625-.83154296875.3349609375-.35986328125.6025390625-.66259765625.85546875-.9716796875.0361328125-.0439453125.072265625-.08740234375.109375-.130859375.2822265625-.333984375.5478515625-.67431640625.8125-1.0234375.23046875-.31103515625.50390625-.69921875.771484375-1.09326171875.2216796875-.33056640625.4599609375-.70166015625.6826171875-1.07861328125,4.919921875-8.19775390625,5.005859375-17.97119140625.263671875-26.19970703125-.0908203125-.158203125-.177734375-.31884765625-.2607421875-.4814453125l-52.9052734375-104.66162109375c-2.9267578125-5.7783203125-2.6484375-12.53564453125.7490234375-18.064453125,3.3974609375-5.5283203125,9.298828125-8.8291015625,15.7880859375-8.8291015625h228.083984375c6.4765625,0,12.3720703125,3.29541015625,15.7685546875,8.8154296875,3.40234375,5.5302734375,3.685546875,12.294921875.7568359375,18.09521484375l-53.1806640625,105.04150390625c-.0791015625.15625-.162109375.310546875-.2490234375.4619140625-4.62109375,8.04931640625-4.4541015625,17.6826171875.4453125,25.7685546875.234375.3876953125.4658203125.755859375.7109375,1.11376953125.0224609375.03173828125.0439453125.0634765625.0654296875.09521484375.2451171875.3662109375.5029296875.72216796875.7685546875,1.076171875.236328125.30908203125.52734375.67919921875.8291015625,1.03955078125.2607421875.30859375.560546875.64990234375.8671875.9775390625.3134765625.34033203125.587890625.625.8740234375.89794921875.0341796875.0322265625.068359375.06494140625.1015625.09814453125.3134765625.306640625.6357421875.6044921875.962890625.8935546875.2890625.2509765625.6220703125.5322265625.96484375.7998046875l.087890625.06884765625c.3193359375.2548828125.6455078125.501953125.978515625.734375.033203125.0234375.06640625.04736328125.099609375.0712890625.3388671875.24267578125.6806640625.4716796875,1.033203125.6923828125,4.1435546875,2.61669921875,8.7607421875,3.9296875,13.7666015625,3.9296875h19.7041015625c10.216796875,0,18.5283203125,8.31396484375,18.5283203125,18.533203125v68.2626953125c0,10.21923828125-8.3115234375,18.533203125-18.5283203125,18.533203125h-46.916015625Z" fill="#283a97"/>
        <path d="M375.471737965568536,298.670950886344144h-19.703742096393398c-7.17597108424161,0-13.653100552397518-2.030969603620179-19.063760802000616-5.448528924329366-.533234609278225-.332796506074374-1.049010648559488-.678445670611836-1.560796157556979-1.045307960772334-.507296162426428-.35413441478704-1.00611244799984-.729731521380018-1.492458326431006-1.117931720253182-.486345878434804-.379714948623587-.959223717158238-.77652518083778-1.42412049531049-1.181820663297913-.460407431583008-.405295482463771-.91233498631118-.823568406482082-1.351792133900744-1.254444422782399-.443447677873337-.422390766050739-.869935602037003-.861876815690266-1.287444833064001-1.31409074070325-.418008047307012-.447971299890924-.827536217762827-.913162666460266-1.224095164792743-1.382347091970587-.396558947031735-.473676616817102-.780148670633935-.960081109009479-1.155258517384937-1.450728226323918-.375608663038292-.499132367564016-.737749286359758-1.002756926436632-1.082930155978829-1.518859794497985-.358150093037693-.520595059371772-.695349902085582-1.053917994113363-1.019580487707572-1.591483553978833-6.331973929056403-10.449086548773266-7.410414738464169-24.008516446021531-.566655300412094-35.929669129833201l52.152240289158726-103.014307161380202,1.023571017993163-2.018241728244902c2.873680621181848-5.691606387335924-1.249534795359068-12.403189767786898-7.598468478121504-12.403189767786898h-228.083746577944112c-6.361902906191972,0-10.485118322731068,6.711583380450975-7.610938885263749,12.386219267289562l3.010356283426518,5.960389167268659,49.892602515516046,98.696687398856739c6.988416160867928,12.125796954513135,5.982303712869907,25.783431145080613-.320240055336399,36.28367876152879-.319741239052746.54180818498935-.660432762098935,1.075131119730941-1.010102978285431,1.595726179100893-.349670216186496.516227651154622-.707820309226008,1.023970052057848-1.078939625691419,1.523102419621864-.375109846749183.495014525533406-.754709040073067.977051609506816-1.155757333670408,1.450728226325737-.38758025388961.473676616818921-.797108424345424.938618417203543-1.219107001941666,1.390957125309797-.413518700739587.452213925012984-.840006624903253.89606738286966-1.283454302774771,1.318333365828948-.439457147591384.435243424517466-.886895355748493.853391565442507-1.347801603618791,1.258687047904459-.460407431583008.405420265555222-.933784086588275.802230497769415-1.419631148735789,1.18606328842543-.486345878434804.384082356840736-.980672817435334.759554680340443-1.488467796149052,1.117931720251363-.507296162426428.36274444812625-1.027561548278754.71263623779123-1.560297341269688,1.045307960770515-5.406669719319325,3.426169354052035-11.879309840905989,5.457138957672214-19.059770271718662,5.457138957672214h-19.686782342683728c-4.724787856939656,0-8.532252564713417,3.822979586266229-8.532252564713417,8.533291738969638v19.613905515801889h-.162115292812814c.102257338541676.558903468581775.162115292812814,1.13065959562482.162115292812814,1.715268381134592v46.933166955876004c0,4.710436935796679,3.807464707773761,8.533416522062907,8.532252564713417,8.533416522062907h46.9460947166408c4.707329286946333,0,8.527763218142354-3.822979586266229,8.527763218142354-8.533416522062907v-3.208422858700942c0-11.409167657782746,13.777305807507219-17.113626703581758,21.84017224749914-9.045401548090013l18.245702093663567,18.286962116631912c1.611675418684172,1.595726179104531,3.777535730640011,2.50027881222195,6.033182973998919,2.50027881222195h35.574579854444892c2.255647243360727,0,4.438467309024418-.887457349528631,6.0331829739971-2.50027881222195l18.305560047934705-18.316785275594157c8.062866439991922-8.051254654994409,21.839673431213669-2.346670826103946,21.839673431213669,9.062372048589168v3.221275517164031c0,4.650665834780739,3.718176592656164,8.443822262084723,8.349186987908979,8.516321238472301.059359137982028.017095283590606.106247868827268.017095283590606.166105823094767.017095283590606h46.916165739505232c4.707828103231805,0,8.528262034429645-3.822979586266229,8.528262034429645-8.533416522062907v-68.262340852812486c0-4.710312152703409-3.82043393119784-8.533291738969638-8.528262034429645-8.533291738969638Z" fill="#fcee21"/>
      </g>
      <g>
        <path d="M309.28213333333224,297.152000000191038l1.305599999999686,1.305599999997867,1.301333333329239,1.301333333336515,1.305599999999686,1.301333333329239,1.301333333336515,1.305600000003324,1.305599999999686,1.301333333331058,1.301333333332877,1.305600000003324,1.301333333332877,1.301333333329239,1.305600000003324,1.305599999999686,1.301333333325601,1.301333333334696.170666666670513.170666666668694c3.332266666668147,3.332266666666328,3.332266666668147,8.733866666667382,0,12.066133333331891l-12.066133333331891,12.070399999998699c-3.332266666664509,3.332266666668147-8.738133333336009,3.332266666668147-12.070400000002337,0l-1.301333333331058-1.305599999999686-1.305599999999686-1.301333333332877-1.301333333336515-1.305600000003324-1.305599999999686-1.301333333329239-1.301333333329239-1.305600000001505-1.301333333336515-1.301333333332877-1.305599999999686-1.301333333331058-1.301333333332877-1.305600000003324-1.305599999997867-1.301333333329239-.337066666668761-.341333333335569c-3.332266666664509-3.332266666664509-3.332266666664509-8.733866666665563,0-12.066133333331891l12.066133333331891-12.070400000002337c3.332266666666328-3.332266666668147,8.738133333337828-3.332266666668147,12.070400000002337,0l.166400000001886.170666666668694ZM303.078399999996691,326.813866666854665l11.729066666666768-11.729066666664949-1.301333333332877-1.301333333332877-1.305599999999686-1.305599999999686-1.301333333332877-1.301333333332877-1.301333333336515-1.301333333336515-1.305599999999686-1.305599999997867-1.301333333334696-1.301333333334696-1.305599999997867-1.305599999997867-1.301333333332877-1.301333333334696-1.305599999999686-1.305599999999686-11.724799999996321,11.729066666666768,1.301333333329239,1.301333333336515,1.301333333334696,1.305599999997867,1.305599999999686,1.301333333334696,1.301333333331058,1.305599999999686,1.305599999999686,1.301333333329239,1.301333333336515,1.305600000003324,1.305599999999686,1.301333333331058,1.301333333329239,1.301333333332877,1.301333333336515,1.305599999999686Z" fill="#fff"/>
        <path d="M227.0122666666648,309.05173333352468c3.332266666664509,3.332266666666328,3.332266666664509,8.733866666667382,0,12.066133333331891l-.34133333333375.341333333335569-1.301333333334696,1.301333333329239-1.301333333332877,1.305600000003324-1.305599999996048,1.301333333331058-1.301333333338334,1.301333333332877-1.305599999999686,1.305600000001505-1.301333333331058,1.301333333329239-1.305599999999686,1.305600000003324-1.301333333332877,1.301333333332877-1.301333333332877,1.305599999999686c-3.336533333334955,3.332266666668147-8.738133333336009,3.332266666668147-12.070400000004156,0l-12.066133333330072-12.070399999998699c-3.332266666668147-3.332266666664509-3.332266666668147-8.733866666665563,0-12.066133333331891l.166399999998248-.170666666668694,1.305599999999686-1.301333333334696,1.301333333336515-1.305599999999686,1.305599999999686-1.301333333329239,1.301333333332877-1.305600000003324,1.305599999996048-1.301333333331058,1.301333333338334-1.305600000003324,1.305599999999686-1.301333333329239,1.30133333332742-1.301333333336515,1.301333333336515-1.305599999997867.170666666665056-.170666666668694c3.332266666668147-3.332266666668147,8.733866666669201-3.332266666668147,12.070400000004156,0l12.066133333331891,12.070400000002337ZM219.336533333331317,316.386133333526232l1.301333333331058-1.301333333336515-11.72906666666313-11.729066666666768-1.301333333332877,1.301333333334696-1.305600000003324,1.305599999999686-1.301333333331058,1.301333333331058-1.301333333334696,1.305600000001505-1.305599999999686,1.301333333332877-1.301333333332877,1.305600000001505-1.305599999999686,1.301333333332877-1.301333333334696,1.305599999999686-1.305599999999686,1.301333333332877,11.729066666668587,11.729066666664949,1.305599999999686-1.305599999999686,1.301333333331058-1.301333333332877,1.305599999999686-1.301333333331058,1.301333333334696-1.305600000003324,1.305599999999686-1.301333333329239,1.301333333332877-1.305599999999686,1.301333333334696-1.301333333334696,1.305599999999686-1.305599999997867Z" fill="#fff"/>
        <path d="M383.999999999998181,352.004266666857802v23.462399999998524c0,4.710399999998117-3.822933333340188,8.533333333332848-8.533333333336486,8.533333333332848h-46.94613333333109c-.059733333333497,0-.10666666666657,0-.166399999998248-.017066666667233-4.633600000001024-.072533333333922-8.354133333334175-3.865600000000995-8.354133333334175-8.516266666665615v-3.22133333333295c0-11.409066666668878-13.785599999999249-17.113599999998769-21.853866666668182-9.062400000002526l-18.316800000000512,18.316799999998693c-1.595733333331737,1.612800000004427-3.780266666664829,2.500266666669631-6.037333333333663,2.500266666669631h-35.596799999999348c-2.257066666667015,0-4.424533333332874-.904533333334257-6.037333333333663-2.500266666669631l-18.257066666663377-18.286933333329216c-8.068266666667114-8.068266666667114-21.853866666666363-2.363733333335404-21.853866666666363,9.045333333333474v3.208533333332525c0,4.710399999998117-3.82293333333655,8.533333333332848-8.533333333332848,8.533333333332848h-46.976000000002387c-4.727466666663531,0-8.537599999999657-3.822933333334731-8.537599999999657-8.533333333332848v-23.462399999998524h124.236800000000585v-224.004266666664989h7.526400000000649v224.004266666664989h124.236799999998766Z" fill="#00c2f3"/>
        <path d="M336.674133333330246,293.222400000189737l-15.662933333338515,15.65866666666625-1.301333333325601-1.301333333334696-1.305600000003324-1.305599999999686-1.301333333332877-1.301333333329239-1.301333333332877-1.305600000003324-1.305599999999686-1.301333333331058-1.301333333336515-1.305600000003324-1.305599999999686-1.301333333329239-1.301333333329239-1.301333333336515-1.305599999999686-1.305599999997867,15.786666666663223-15.786666666666861c.324266666666517.537599999997838.661333333333459,1.070933333330686,1.019733333334443,1.591466666664928.345600000000559.516266666669253.708266666668351,1.019733333334443,1.08373333333293,1.518933333332825.375466666668217.490666666666584.759466666666412.977066666669998,1.156266666665033,1.45066666666753.396800000002258.469333333332543.806400000001304.934400000001915,1.224533333333966,1.382399999996778.418133333334481.452266666672585.844799999998941.89173333333747,1.288533333334271,1.314133333335121.439466666668523.430933333336725.891733333335651.849066666669387,1.352533333336396,1.254400000001624.465066666663915.405333333332237.938666666665085.802133333336315,1.425066666663042,1.181866666669521.486400000001595.388266666663185.985599999999977.763733333329583,1.493333333333794,1.117866666663758.511999999998807.366933333332781,1.02826666666806.712533333335159,1.561600000000908,1.045333333333474Z" fill="#00c2f3"/>
        <polygon points="314.807466666663458 315.084800000189716 303.078399999996691 326.813866666854665 301.777066666660176 325.508266666854979 300.475733333330936 324.206933333522102 299.17013333333125 322.905600000191043 297.868799999994735 321.60000000018772 296.563199999995049 320.29866666685848 295.261866666663991 318.993066666858795 293.956266666664305 317.691733333524098 292.654933333329609 316.386133333526232 291.35360000000037 315.084800000189716 303.078399999996691 303.355733333522949 304.383999999996377 304.661333333522634 305.685333333329254 305.962666666857331 306.990933333327121 307.268266666855197 308.292266666661817 308.569600000189894 309.597866666661503 309.87520000018776 310.899199999998018 311.176533333524276 312.200533333330895 312.477866666857153 313.506133333330581 313.783466666856839 314.807466666663458 315.084800000189716" fill="#00c2f3"/>
        <path d="M291.195733333330281,339.037866666856644c-3.238400000002002,3.238399999998364-8.490666666666584,3.238399999998364-11.729066666666768,0s-3.238400000000183-8.490666666666584,0-11.729066666666768l5.849600000001374-5.849599999997736,1.305599999997867,1.301333333329239,1.301333333332877,1.305600000003324,1.305599999999686,1.301333333331058,1.301333333336515,1.301333333332877,1.301333333329239,1.305600000001505,1.305599999999686,1.301333333329239,1.301333333336515,1.305600000003324,1.305599999999686,1.301333333332877,1.301333333331058,1.305599999999686-5.849599999997736,5.849600000001374Z" fill="#00c2f3"/>
        <path d="M232.524799999997413,327.308800000189876c3.238400000000183,3.238400000000183,3.238400000000183,8.490666666668403,0,11.729066666666768s-8.490666666664765,3.238399999998364-11.729066666666768,0l-5.849599999997736-5.849600000001374,1.301333333332877-1.305599999999686,1.301333333332877-1.301333333332877,1.305599999999686-1.305600000003324,1.301333333331058-1.301333333329239,1.305599999999686-1.305600000001505,1.301333333338334-1.301333333332877,1.305599999996048-1.301333333331058,1.301333333332877-1.305600000003324,1.301333333334696-1.301333333329239,5.853866666666363,5.849599999997736Z" fill="#00c2f3"/>
        <polygon points="220.637866666662376 315.084800000189716 219.336533333331317 316.386133333526232 218.030933333331632 317.691733333524098 216.729599999996935 318.993066666858795 215.428266666664058 320.29866666685848 214.122666666664372 321.60000000018772 212.821333333329676 322.905600000191043 211.51573333332999 324.206933333522102 210.214399999998932 325.508266666854979 208.908799999999246 326.813866666854665 197.17973333333066 315.084800000189716 198.485333333330345 313.783466666856839 199.786666666665042 312.477866666857153 201.092266666664727 311.176533333524276 202.393599999997605 309.870933333522771 203.69919999999729 308.569600000189894 205.000533333331987 307.264000000188389 206.301866666663045 305.962666666857331 207.607466666666369 304.657066666857645 208.908799999999246 303.355733333522949 220.637866666662376 315.084800000189716" fill="#00c2f3"/>
        <path d="M202.705066666663697,297.152000000191038l-1.301333333336515,1.305599999997867-1.30133333332742,1.301333333336515-1.305599999999686,1.301333333329239-1.301333333338334,1.305600000003324-1.305599999996048,1.301333333331058-1.301333333332877,1.305600000003324-1.305599999999686,1.301333333329239-1.301333333336515,1.305599999999686-1.305599999999686,1.301333333334696-15.667199999999866-15.667200000001685c.533333333336486-.332799999998315,1.05386666666891-.682666666663863,1.56159999999727-1.045333333333474.507733333335636-.358399999997346,1.002666666670848-.733866666663744,1.489066666668805-1.117866666665577.486400000001595-.383999999998196.960000000002765-.780800000000454,1.42080000000351-1.186133333330872.460799999998926-.405333333334056.908799999997427-.823466666666718,1.348266666664131-1.258666666664794.443733333333512-.422400000001289.870400000001609-.86613333333662,1.284266666665644-1.31840000000193.42239999999947-.452266666667128.832000000002154-.917333333334682,1.220266666667158-1.390933333332214.401066666669067-.47360000000117.780800000000454-.955733333334138,1.156266666668671-1.45066666666753.371200000001409-.49920000000202.729599999998754-1.006933333332199,1.079466666666121-1.523200000003271.349866666663729-.520533333332423.691200000001118-1.053866666665272,1.011200000002646-1.595733333331737l15.825066666662678,15.825066666668135Z" fill="#00c2f3"/>
      </g>
    </g>
  </g>
</svg>