<?xml version="1.0" encoding="UTF-8"?>
<svg id="Layer_2" data-name="Layer 2" xmlns="http://www.w3.org/2000/svg" viewBox="0 0 512.00163043824432 512">
  <g id="handmade-educational-toys">
    <g>
      <rect width="512.00163043824432" height="512" fill="#fff"/>
      <g>
        <g>
          <path d="M137.998046875,396.2177734375c-10.1123046875,0-18.33984375-8.2314453125-18.33984375-18.3486328125v-148.6572265625c-7.6064453125-.4013671875-14.7109375-3.5556640625-20.15625-8.9853515625-5.83203125-5.8603515625-9.0283203125-13.60546875-9.0283203125-21.8349609375,0-17.01953125,13.8369140625-30.865234375,30.84375-30.865234375h40.0419921875v-.439453125c0-11.0458984375,4.296875-21.4189453125,12.1005859375-29.2080078125,7.765625-7.7939453125,18.126953125-12.0966796875,29.158203125-12.0966796875,22.765625,0,41.287109375,18.529296875,41.287109375,41.3046875v.439453125h21.6875v-.439453125c0-11.0244140625,4.29296875-21.39453125,12.0888671875-29.1982421875,7.77734375-7.8037109375,18.150390625-12.1064453125,29.19921875-12.1064453125,22.7578125,0,41.2724609375,18.529296875,41.2724609375,41.3046875v.4267578125l14.515625.0126953125h8.83203125c10.1123046875,0,18.33984375,8.2314453125,18.33984375,18.3486328125v106.900390625c23.1357421875.8759765625,41.6875,19.9853515625,41.6875,43.349609375v41.744140625c0,10.1171875-8.220703125,18.3486328125-18.3251953125,18.3486328125H137.998046875Z" fill="#283a97"/>
          <path d="M132.998162367612167,381.217705969480448c-4.618858461402851,0-8.34042276310538-3.740038207044563-8.34042276310538-8.34882544643915v-150.264133475973722c0-2.31175589961822-.926713640345042-4.387918841333885-2.44181689360812-5.904548507975051-1.500393512940718-1.501905106759295-3.589176638797653-2.4442769384641-5.898605869499079-2.4442769384641-5.751508466270025,0-10.958756540587274-2.326480459498271-14.753869543907058-6.110692346157521-3.750983782349067-3.769487326784656-6.089832493695212-8.996706080730291-6.089832493695212-14.754008989995782,0-11.529330378409213,9.340685105065859-20.864701336153303,20.84370203760227-20.864701336153303h41.687404075209997c4.604148721075035,0,8.355132503425921-3.740038207042744,8.355132503425921-8.34882544643915v-2.090887501575708c0-8.643316643838261,3.500918196859857-16.476782494803047,9.164168221192085-22.131013484991854,5.64854028400805-5.668955550054307,13.47412213581265-9.173400799174487,22.094029965053778-9.173400799174487,17.283944879451155,0,31.287617666888764,14.017780996489819,31.287617666888764,31.304414284166342v2.090887501575708c0,4.608787239396406,3.736274042024888,8.34882544643915,8.325713022784839,8.34882544643915h25.035978029634862c4.589438980759951,0,8.325713022788477-3.740038207042744,8.325713022788477-8.34882544643915v-2.090887501575708c0-8.643316643838261,3.515627937178579-16.476782494803047,9.164168221186628-22.131013484991854,5.648540284009869-5.668955550054307,13.474122135814468-9.173400799174487,22.123449445702136-9.173400799174487,17.254525398804617,0,31.272907926568223,14.017780996489819,31.272907926568223,31.304414284166342v2.090887501575708c0,4.49099076042512,3.530337677500938,8.157406168133093,8.002098735676554,8.334100886580927l16.504328642335167.014724559858223h8.8405539340838c4.589438980758132,0,8.340422763109018,3.72531364716815,8.340422763109018,8.34882544643915v108.520006243790704c0,2.311755899638229.926713640346861,4.387918841335704,2.441816893609939,5.904548507975051,1.50039351293708,1.501905106761114,3.574466898469836,2.444276938465919,5.898605869495441,2.444276938465919,18.431304624642507,0,33.346981312100979,14.94542826831821,33.346981312100979,33.380577225882007v41.744127232166647c0,4.608787239394587-3.721564301702529,8.34882544643915-8.32571302278302,8.34882544643915H132.998162367612167Z" fill="#fcee21"/>
        </g>
        <g>
          <ellipse cx="301.86598292691815" cy="162.086805980306963" rx="14.59206405232908" ry="14.606790520527284" fill="#00c2f3"/>
          <path d="M197.63278018866913,147.480015459779679c-8.060943227488679,0-14.606774127834797,6.537751651134386-14.606774127834797,14.606790520527284s6.545830900346118,14.606790520527284,14.606774127834797,14.606790520527284c8.046207702023821,0,14.592038602373577-6.537751651134386,14.592038602373577-14.606790520527284s-6.545830900349756-14.606790520527284-14.592038602373577-14.606790520527284Z" fill="#00c2f3"/>
        </g>
        <g>
          <path d="M353.807915209921703,210.574031923490111c-9.378397722004593-.094137778947697-16.99159877448983-7.758658786968226-16.99159877448983-17.183071450392163,0-.01264512335365.000014631339582-.025286703148595.000043861407903-.037924732840111.004604178342561-1.990680981491096-1.513654096786922-3.642757532037649-3.502336885276236-3.642757532037649h-15.540188794771893l-189.227381247957965-.000002350952855c-1.923290741859091-.000000023888788-3.676979875112011,1.384170340967103-3.86950906320817,3.299728259346011-.221409339139427,2.202899295332827,1.502764469914837,4.062408960871835,3.658268671508267,4.062408960871835h201.405730028220205c1.765187927479928,11.794283343704592,11.973745879948183,20.86464611633528,24.241657682638106,20.86464611633528,2.174307270370264,0,3.909905229835203-1.892272549232075,3.651973961632393-4.119974327892123-.217524628655156-1.878717557379787-1.937364178556891-3.224088715825928-3.82665943970278-3.243052942438226Z" fill="#00c2f3"/>
          <path d="M333.138890853482735,297.744159193114683c-2.029939519887193,0-3.677442526581217,1.649188283756303-3.677442526581217,3.681121945292034v79.792424831073731h7.354885053164253v-79.792424831073731c0-2.031933661535732-1.647503006692205-3.681121945292034-3.677442526583036-3.681121945292034Z" fill="#00c2f3"/>
          <path d="M291.436793892864443,297.744159193114683c-2.029964969846333,0-3.677442526584855,1.649188283756303-3.677442526584855,3.681121945292034v79.792424831073731h7.354859603210571v-79.792424831073731c0-2.031933661535732-1.632767481234623-3.681121945292034-3.677417076625716-3.681121945292034Z" fill="#00c2f3"/>
          <path d="M208.0472591472153,297.744159193114683c-2.029939519887193,0-3.677442526583036,1.649188283756303-3.677442526583036,3.681121945292034v79.792424831073731h7.354885053167891v-79.792424831073731c0-2.031933661535732-1.647503006694023-3.681121945292034-3.677442526584855-3.681121945292034Z" fill="#00c2f3"/>
          <path d="M166.359872262100907,297.744159193114683c-2.044675045348413,0-3.677442526581217,1.649188283756303-3.677442526581217,3.681121945292034v79.792424831073731h7.354859603210571v-79.792424831073731c0-2.031933661535732-1.647477556738522-3.681121945292034-3.677417076629354-3.681121945292034Z" fill="#00c2f3"/>
        </g>
      </g>
    </g>
  </g>
</svg>