<?xml version="1.0" encoding="UTF-8"?>
<svg id="Layer_2" data-name="Layer 2" xmlns="http://www.w3.org/2000/svg" viewBox="0 0 512 512">
  <g id="handmade-educational-toys">
    <g>
      <rect width="512" height="512" fill="#fff"/>
      <g>
        <g>
          <path d="M349.876953125,383.5c-4.4296875,0-8.033203125-3.603515625-8.033203125-8.033203125v-12.7958984375c0-5.82568359375-2.2705078125-11.31201171875-6.392578125-15.4482421875-4.142578125-4.12353515625-9.6298828125-6.3935546875-15.455078125-6.3935546875-12.0380859375,0-21.8310546875,9.79833984375-21.8310546875,21.841796875v12.7958984375c0,4.4296875-3.6044921875,8.033203125-8.0341796875,8.033203125h-68.26171875c-4.4296875,0-8.0341796875-3.603515625-8.0341796875-8.033203125v-12.7958984375c0-5.82666015625-2.2705078125-11.31298828125-6.392578125-15.4482421875-4.142578125-4.12353515625-9.6298828125-6.3935546875-15.455078125-6.3935546875-12.0380859375,0-21.8310546875,9.79833984375-21.8310546875,21.841796875v12.7958984375c0,4.4296875-3.603515625,8.033203125-8.033203125,8.033203125h-25.6064453125c-4.419921875,0-8.0166015625-3.603515625-8.0166015625-8.033203125v-68.2626953125c0-4.4296875,3.5966796875-8.033203125,8.0166015625-8.033203125,11.529296875,0,22.375-4.4931640625,30.5380859375-12.65185546875,8.1513671875-8.1552734375,12.640625-18.994140625,12.640625-30.51904296875,0-11.533203125-4.4892578125-22.37646484375-12.640625-30.53173828125-8.150390625-8.150390625-18.99609375-12.63916015625-30.5380859375-12.63916015625-2.13671875,0-4.1484375-.8359375-5.6669921875-2.35400390625-1.515625-1.51513671875-2.349609375-3.5322265625-2.349609375-5.67919921875v-68.2626953125c0-4.4296875,3.5966796875-8.033203125,8.0166015625-8.033203125h68.2802734375c4.4326171875,0,8.0380859375,3.603515625,8.0380859375,8.033203125,0,11.52978515625,4.4892578125,22.3681640625,12.6396484375,30.51904296875,8.140625,8.15869140625,18.978515625,12.65185546875,30.5166015625,12.65185546875,11.548828125,0,22.3935546875-4.4931640625,30.5341796875-12.65234375,8.150390625-8.150390625,12.6396484375-18.98876953125,12.6396484375-30.5185546875,0-2.14453125.8359375-4.1611328125,2.3544921875-5.67919921875,1.513671875-1.51806640625,3.5322265625-2.35400390625,5.68359375-2.35400390625h68.2626953125c4.4296875,0,8.0341796875,3.603515625,8.0341796875,8.033203125v25.6044921875c0,4.4296875-3.6044921875,8.033203125-8.0341796875,8.033203125-12.037109375,0-21.830078125,9.79248046875-21.830078125,21.8291015625,0,5.83203125,2.2705078125,11.31396484375,6.3935546875,15.43603515625,4.126953125,4.12255859375,9.609375,6.39306640625,15.4365234375,6.39306640625,2.146484375,0,4.1650390625.83447265625,5.6845703125,2.35009765625,1.5146484375,1.5185546875,2.349609375,3.537109375,2.349609375,5.68310546875v153.6044921875c0,4.4296875-3.6044921875,8.033203125-8.0341796875,8.033203125h-25.5888671875ZM234.669921875,302.43310546875c-9.6875,0-17.568359375,7.88037109375-17.568359375,17.56689453125s7.880859375,17.56689453125,17.568359375,17.56689453125c9.6865234375,0,17.5673828125-7.88037109375,17.5673828125-17.56689453125s-7.880859375-17.56689453125-17.5673828125-17.56689453125ZM362.673828125,223.5c-6.1572265625,0-11.1669921875,5.00927734375-11.1669921875,11.16650390625,0,6.15771484375,5.009765625,11.1669921875,11.1669921875,11.1669921875s11.1669921875-5.00927734375,11.1669921875-11.1669921875c0-6.1572265625-5.009765625-11.16650390625-11.1669921875-11.16650390625ZM313.603515625,170.1708984375c-15.568359375,0-28.234375,12.66552734375-28.234375,28.2333984375s12.666015625,28.2333984375,28.234375,28.2333984375c15.5693359375,0,28.2353515625-12.66552734375,28.2353515625-28.2333984375s-12.666015625-28.2333984375-28.2353515625-28.2333984375Z" fill="#fff"/>
          <path d="M375.46630859375,129c4.154296875,0,7.53369140625,3.379440307617188,7.53369140625,7.533340454101562v25.604263305664062c0,4.153900146484375-3.37939453125,7.5333251953125-7.53369140625,7.5333251953125-12.31298828125,0-22.33056640625,10.016769409179688-22.33056640625,22.329071044921875,0,5.96539306640625,2.322265625,11.572967529296875,6.5400390625,15.790206909179688,4.22119140625,4.216629028320312,9.8291015625,6.538864135742188,15.79052734375,6.538864135742188,2.0126953125,0,3.90625.782760620117188,5.32958984375,2.202133178710938,1.42138671875,1.425262451171875,2.2041015625,3.318588256835938,2.2041015625,5.331192016601562v153.604278564453125c0,4.153900146484375-3.37939453125,7.5333251953125-7.53369140625,7.5333251953125h-25.58935546875c-4.154296875,0-7.53369140625-3.379425048828125-7.53369140625-7.5333251953125v-12.795745849609375c0-5.959625244140625-2.322265625-11.57135009765625-6.541015625-15.804168701171875-4.23486328125-4.21588134765625-9.8486328125-6.537689208984375-15.806640625-6.537689208984375-12.31298828125,0-22.33056640625,10.02252197265625-22.33056640625,22.34185791015625v12.795745849609375c0,4.153900146484375-3.37939453125,7.5333251953125-7.53369140625,7.5333251953125h-68.2626953125c-4.154296875,0-7.53369140625-3.379425048828125-7.53369140625-7.5333251953125v-12.795745849609375c0-5.959320068359375-2.322265625-11.571075439453125-6.54150390625-15.804168701171875-4.23486328125-4.21588134765625-9.84814453125-6.537689208984375-15.80615234375-6.537689208984375-12.31298828125,0-22.33056640625,10.02252197265625-22.33056640625,22.34185791015625v12.795745849609375c0,4.153900146484375-3.37939453125,7.5333251953125-7.53369140625,7.5333251953125h-25.6064453125c-4.14453125,0-7.5166015625-3.379425048828125-7.5166015625-7.5333251953125v-68.262420654296875c0-4.153900146484375,3.3720703125-7.5333251953125,7.5166015625-7.5333251953125,11.66259765625,0,22.63330078125-4.545166015625,30.89208984375-12.798675537109375,8.2451171875-8.24957275390625,12.7861328125-19.21356201171875,12.7861328125-30.87225341796875,0-11.66693115234375-4.541015625-22.635467529296875-12.78662109375-30.885269165039062-8.24560546875-8.244964599609375-19.21630859375-12.785659790039062-30.8916015625-12.785659790039062-2.0029296875,0-3.8896484375-.783935546875-5.3134765625-2.207366943359375-1.4208984375-1.420730590820312-2.203125-3.312210083007812-2.203125-5.325973510742188v-68.26239013671875c0-4.153900146484375,3.3720703125-7.533340454101562,7.5166015625-7.533340454101562h68.27978515625c4.15673828125,0,7.53857421875,3.379440307617188,7.53857421875,7.533340454101562,0,11.663894653320312,4.541015625,22.627960205078125,12.78564453125,30.871658325195312,8.23583984375,8.253738403320312,19.19970703125,12.799270629882812,30.87109375,12.799270629882812,11.68212890625,0,22.65185546875-4.5455322265625,30.88671875-12.798431396484375,8.24560546875-8.244537353515625,12.78662109375-19.208602905273438,12.78662109375-30.87249755859375,0-2.010940551757812.7841796875-3.90240478515625,2.20849609375-5.326934814453125,1.4189453125-1.422805786132812,3.31201171875-2.206405639648438,5.330078125-2.206405639648438h68.2626953125M313.60400390625,227.137603759765625c15.84423828125,0,28.73486328125-12.889739990234375,28.73486328125-28.73333740234375s-12.890625-28.73333740234375-28.73486328125-28.73333740234375c-15.8447265625,0-28.7353515625,12.889739990234375-28.7353515625,28.73333740234375s12.890625,28.73333740234375,28.7353515625,28.73333740234375M362.673828125,246.333328247070312c6.43359375,0,11.66748046875-5.233627319335938,11.66748046875-11.666656494140625,0-6.43304443359375-5.23388671875-11.666671752929688-11.66748046875-11.666671752929688s-11.66748046875,5.233627319335938-11.66748046875,11.666671752929688c0,6.433029174804688,5.23388671875,11.666656494140625,11.66748046875,11.666656494140625M234.66943359375,338.066680908203125c9.962890625,0,18.06787109375-8.10467529296875,18.06787109375-18.066680908203125s-8.10498046875-18.066680908203125-18.06787109375-18.066680908203125-18.06787109375,8.10467529296875-18.06787109375,18.066680908203125,8.10498046875,18.066680908203125,18.06787109375,18.066680908203125M375.46630859375,128h-68.2626953125c-2.35107421875,0-4.4892578125.94720458984375-6.0380859375,2.500259399414062-1.548828125,1.548812866210938-2.50048828125,3.6864013671875-2.50048828125,6.0330810546875,0,11.771728515625-4.77001953125,22.442657470703125-12.49365234375,30.165328979492188-7.71875,7.735458374023438-18.39453125,12.505599975585938-30.1796875,12.505599975585938-11.7685546875,0-22.4443359375-4.7701416015625-30.1630859375-12.505599975585938-7.7236328125-7.722671508789062-12.49365234375-18.393600463867188-12.49365234375-30.165328979492188,0-4.710403442382812-3.8232421875-8.533340454101562-8.53857421875-8.533340454101562h-68.27978515625c-4.71044921875,0-8.5166015625,3.82293701171875-8.5166015625,8.533340454101562v68.26239013671875c0,2.359466552734375.947265625,4.484268188476562,2.49609375,6.033065795898438,1.5361328125,1.5360107421875,3.6611328125,2.500274658203125,6.0205078125,2.500274658203125,11.7900390625,0,22.46142578125,4.770126342773438,30.1845703125,12.4927978515625,7.71875,7.722671508789062,12.49365234375,18.393600463867188,12.49365234375,30.178131103515625,0,11.7845458984375-4.77490234375,22.442657470703125-12.49365234375,30.16534423828125-7.72314453125,7.7183837890625-18.39453125,12.505584716796875-30.1845703125,12.505584716796875-4.71044921875,0-8.5166015625,3.810150146484375-8.5166015625,8.5333251953125v68.262420654296875c0,4.71038818359375,3.80615234375,8.5333251953125,8.5166015625,8.5333251953125h25.6064453125c4.71044921875,0,8.53369140625-3.82293701171875,8.53369140625-8.5333251953125v-12.795745849609375c0-11.784515380859375,9.56201171875-21.34185791015625,21.33056640625-21.34185791015625,5.90087890625,0,11.23046875,2.393585205078125,15.1005859375,6.24639892578125,3.85302734375,3.8656005859375,6.2470703125,9.194671630859375,6.2470703125,15.095458984375v12.795745849609375c0,4.71038818359375,3.82275390625,8.5333251953125,8.53369140625,8.5333251953125h68.2626953125c4.7109375,0,8.53369140625-3.82293701171875,8.53369140625-8.5333251953125v-12.795745849609375c0-11.784515380859375,9.5625-21.34185791015625,21.33056640625-21.34185791015625,5.9013671875,0,11.23095703125,2.393585205078125,15.10107421875,6.24639892578125,3.85302734375,3.8656005859375,6.24658203125,9.194671630859375,6.24658203125,15.095458984375v12.795745849609375c0,4.71038818359375,3.8232421875,8.5333251953125,8.53369140625,8.5333251953125h25.58935546875c4.7275390625,0,8.53369140625-3.82293701171875,8.53369140625-8.5333251953125v-153.604278564453125c0-2.363723754882812-.947265625-4.484268188476562-2.49609375-6.037322998046875-1.5361328125-1.53173828125-3.673828125-2.496002197265625-6.03759765625-2.496002197265625-5.88427734375,0-11.2138671875-2.38079833984375-15.083984375-6.24639892578125-3.85302734375-3.852798461914062-6.24658203125-9.198944091796875-6.24658203125-15.082672119140625,0-11.784530639648438,9.5576171875-21.329071044921875,21.33056640625-21.329071044921875,4.7275390625,0,8.53369140625-3.822921752929688,8.53369140625-8.5333251953125v-25.604263305664062c0-4.710403442382812-3.80615234375-8.533340454101562-8.53369140625-8.533340454101562h0ZM313.60400390625,226.137603759765625c-15.318359375,0-27.7353515625-12.416000366210938-27.7353515625-27.73333740234375s12.4169921875-27.73333740234375,27.7353515625-27.73333740234375,27.73486328125,12.416000366210938,27.73486328125,27.73333740234375-12.41650390625,27.73333740234375-27.73486328125,27.73333740234375h0ZM362.673828125,245.333328247070312c-5.892578125,0-10.66748046875-4.774398803710938-10.66748046875-10.666656494140625,0-5.89227294921875,4.77490234375-10.666671752929688,10.66748046875-10.666671752929688,5.88818359375,0,10.66748046875,4.774398803710938,10.66748046875,10.666671752929688,0,5.892257690429688-4.779296875,10.666656494140625-10.66748046875,10.666656494140625h0ZM234.66943359375,337.066680908203125c-9.42578125,0-17.06787109375-7.6416015625-17.06787109375-17.066680908203125s7.64208984375-17.066680908203125,17.06787109375-17.066680908203125,17.06787109375,7.6416015625,17.06787109375,17.066680908203125-7.64208984375,17.066680908203125-17.06787109375,17.066680908203125h0Z"/>
        </g>
        <g>
          <path d="M354.876953125,398.5c-9.943359375,0-18.033203125-8.08984375-18.033203125-18.033203125v-12.7958984375c0-3.16064453125-1.234375-6.14013671875-3.4755859375-8.38916015625-2.2265625-2.21630859375-5.2099609375-3.45263671875-8.3720703125-3.45263671875-6.5234375,0-11.8310546875,5.31201171875-11.8310546875,11.841796875v12.7958984375c0,9.943359375-8.08984375,18.033203125-18.0341796875,18.033203125h-68.26171875c-9.9443359375,0-18.0341796875-8.08984375-18.0341796875-18.033203125v-12.7958984375c0-3.1611328125-1.234375-6.140625-3.474609375-8.388671875-2.2275390625-2.216796875-5.2109375-3.453125-8.373046875-3.453125-6.5234375,0-11.8310546875,5.31201171875-11.8310546875,11.841796875v12.7958984375c0,9.943359375-8.08984375,18.033203125-18.033203125,18.033203125h-25.6064453125c-9.9345703125,0-18.0166015625-8.08984375-18.0166015625-18.033203125v-68.2626953125c0-9.943359375,8.08203125-18.033203125,18.0166015625-18.033203125,8.859375,0,17.1943359375-3.45361328125,23.46875-9.724609375,6.2607421875-6.26318359375,9.7099609375-14.59130859375,9.7099609375-23.4462890625,0-8.86328125-3.44921875-17.19580078125-9.7138671875-23.46240234375-6.259765625-6.26025390625-14.59375-9.70849609375-23.46484375-9.70849609375-4.806640625,0-9.330078125-1.8759765625-12.7373046875-5.28173828125-3.404296875-3.40380859375-5.279296875-7.93212890625-5.279296875-12.75146484375v-68.2626953125c0-9.943359375,8.08203125-18.033203125,18.0166015625-18.033203125h68.2802734375c9.9462890625,0,18.0380859375,8.08984375,18.0380859375,18.033203125,0,8.8583984375,3.44921875,17.185546875,9.7109375,23.4482421875,6.2587890625,6.2724609375,14.58203125,9.72265625,23.4453125,9.72265625,8.8740234375,0,17.2041015625-3.4501953125,23.455078125-9.71533203125,6.2705078125-6.27001953125,9.71875-14.59716796875,9.71875-23.45556640625,0-4.81640625,1.876953125-9.3447265625,5.2841796875-12.75146484375,3.392578125-3.40185546875,7.92578125-5.28173828125,12.75390625-5.28173828125h68.2626953125c9.9443359375,0,18.0341796875,8.08984375,18.0341796875,18.033203125v25.6044921875c0,9.943359375-8.08984375,18.033203125-18.0341796875,18.033203125-6.5234375,0-11.830078125,5.306640625-11.830078125,11.8291015625,0,3.16064453125,1.23046875,6.130859375,3.4638671875,8.3642578125,2.2353515625,2.2333984375,5.2080078125,3.46484375,8.3662109375,3.46484375,4.8125,0,9.33984375,1.87158203125,12.7470703125,5.27001953125,3.416015625,3.4248046875,5.287109375,7.951171875,5.287109375,12.76318359375v153.6044921875c0,9.943359375-8.08984375,18.033203125-18.0341796875,18.033203125h-25.5888671875ZM239.669921875,317.43310546875c-4.1728515625,0-7.568359375,3.39453125-7.568359375,7.56689453125s3.3955078125,7.56689453125,7.568359375,7.56689453125,7.5673828125-3.39453125,7.5673828125-7.56689453125-3.39453125-7.56689453125-7.5673828125-7.56689453125ZM367.673828125,238.5c-.6328125,0-1.1669921875.5341796875-1.1669921875,1.16650390625,0,.6328125.5341796875,1.1669921875,1.1669921875,1.1669921875s1.1669921875-.5341796875,1.1669921875-1.1669921875c0-.63232421875-.5341796875-1.16650390625-1.1669921875-1.16650390625ZM318.603515625,185.1708984375c-10.0546875,0-18.234375,8.1796875-18.234375,18.2333984375s8.1796875,18.2333984375,18.234375,18.2333984375,18.2353515625-8.1796875,18.2353515625-18.2333984375-8.1806640625-18.2333984375-18.2353515625-18.2333984375Z" fill="#283a97"/>
          <path d="M354.876953125,399c-10.2197265625,0-18.533203125-8.31396484375-18.533203125-18.533203125v-12.7958984375c0-3.02783203125-1.1826171875-5.88134765625-3.330078125-8.03564453125-2.1318359375-2.12255859375-4.98828125-3.30615234375-8.017578125-3.30615234375-6.248046875,0-11.3310546875,5.087890625-11.3310546875,11.341796875v12.7958984375c0,10.21923828125-8.314453125,18.533203125-18.5341796875,18.533203125h-68.26171875c-10.2197265625,0-18.5341796875-8.31396484375-18.5341796875-18.533203125v-12.7958984375c0-3.0283203125-1.1826171875-5.8818359375-3.3291015625-8.03466796875-2.1328125-2.12353515625-4.9892578125-3.30712890625-8.0185546875-3.30712890625-6.248046875,0-11.3310546875,5.087890625-11.3310546875,11.341796875v12.7958984375c0,10.21923828125-8.3134765625,18.533203125-18.533203125,18.533203125h-25.6064453125c-10.2099609375,0-18.5166015625-8.31396484375-18.5166015625-18.533203125v-68.2626953125c0-10.21923828125,8.306640625-18.533203125,18.5166015625-18.533203125,8.7255859375,0,16.935546875-3.40185546875,23.115234375-9.57861328125,6.166015625-6.16845703125,9.5634765625-14.37109375,9.5634765625-23.09228515625,0-8.7294921875-3.3974609375-16.9365234375-9.5673828125-23.10888671875-6.1650390625-6.16552734375-14.3740234375-9.56201171875-23.111328125-9.56201171875-4.94140625,0-9.5908203125-1.92822265625-13.091796875-5.42919921875-3.498046875-3.49853515625-5.4248046875-8.15234375-5.4248046875-13.10400390625v-68.2626953125c0-10.21923828125,8.306640625-18.533203125,18.5166015625-18.533203125h68.2802734375c10.2216796875,0,18.5380859375,8.31396484375,18.5380859375,18.533203125,0,8.72509765625,3.396484375,16.9267578125,9.564453125,23.09423828125,6.1650390625,6.17822265625,14.36328125,9.57666015625,23.0927734375,9.57666015625,8.7392578125,0,16.943359375-3.3984375,23.1005859375-9.56884765625,6.17578125-6.17529296875,9.572265625-14.376953125,9.572265625-23.10205078125,0-4.94970703125,1.9287109375-9.603515625,5.4306640625-13.10498046875,3.4873046875-3.49658203125,8.1455078125-5.42822265625,13.107421875-5.42822265625h68.263671875c10.2197265625,0,18.533203125,8.31396484375,18.533203125,18.533203125v25.6044921875c0,10.21923828125-8.3134765625,18.533203125-18.533203125,18.533203125-6.248046875,0-11.3310546875,5.08203125-11.3310546875,11.3291015625,0,3.02685546875,1.177734375,5.8720703125,3.3173828125,8.01025390625,2.140625,2.1396484375,4.9873046875,3.31884765625,8.013671875,3.31884765625,4.9443359375,0,9.5966796875,1.9228515625,13.09765625,5.4150390625,3.51171875,3.5205078125,5.435546875,8.17236328125,5.435546875,13.1181640625v153.6044921875c0,10.21923828125-8.3134765625,18.533203125-18.533203125,18.533203125h-25.58984375ZM378,378v-119.2890625c-3.0712890625,1.67236328125-6.58984375,2.62255859375-10.326171875,2.62255859375-11.947265625,0-21.66796875-9.7197265625-21.66796875-21.6669921875,0-8.48095703125,4.8994140625-15.84033203125,12.015625-19.39599609375-.138671875-.1337890625-.2763671875-.26953125-.4130859375-.40625-.9599609375-.958984375-1.8515625-1.96875-2.673828125-3.021484375-5.4755859375,14.75341796875-19.6953125,25.294921875-36.3310546875,25.294921875-21.3583984375,0-38.734375-17.3759765625-38.734375-38.7333984375,0-4.3369140625.716796875-8.509765625,2.037109375-12.40625-6.525390625,2.75830078125-13.6064453125,4.2060546875-20.9140625,4.2060546875-14.34765625,0-27.8251953125-5.58837890625-37.9501953125-15.736328125-9.54296875-9.541015625-15.0498046875-22.05859375-15.6513671875-35.4677734375h-63.390625v63.38525390625c13.4130859375.60546875,25.931640625,6.111328125,35.478515625,15.658203125,10.1357421875,10.14013671875,15.716796875,23.61962890625,15.716796875,37.95654296875,0,14.3291015625-5.5810546875,27.8037109375-15.71484375,37.94189453125-9.560546875,9.5556640625-22.0791015625,15.06591796875-35.48046875,15.6728515625v63.38525390625h20.65625v-10.3291015625c0-17.83349609375,14.50390625-32.341796875,32.3310546875-32.341796875,8.2158203125,0,15.9765625,3.04833984375,21.9853515625,8.61083984375-4.5751953125-4.99609375-7.37109375-11.64794921875-7.37109375-18.93994140625,0-15.47607421875,12.591796875-28.06689453125,28.068359375-28.06689453125s28.0673828125,12.5908203125,28.0673828125,28.06689453125-12.5908203125,28.06689453125-28.0673828125,28.06689453125c-7.2978515625,0-13.955078125-2.7998046875-18.9521484375-7.3818359375,5.57421875,6.02734375,8.6171875,13.77783203125,8.6171875,21.98583984375v10.3291015625h63.330078125v-10.3291015625c0-17.83349609375,14.50390625-32.341796875,32.3310546875-32.341796875,8.6201171875,0,16.7392578125,3.35595703125,22.861328125,9.4501953125,6.126953125,6.14794921875,9.486328125,14.267578125,9.486328125,22.8916015625v10.3291015625h20.65625ZM239.669921875,317.93310546875c-3.8974609375,0-7.068359375,3.17041015625-7.068359375,7.06689453125s3.1708984375,7.06689453125,7.068359375,7.06689453125c3.896484375,0,7.0673828125-3.17041015625,7.0673828125-7.06689453125s-3.1708984375-7.06689453125-7.0673828125-7.06689453125ZM367.673828125,239c-.3681640625,0-.66796875.298828125-.66796875.66650390625s.2998046875.6669921875.66796875.6669921875.66796875-.29931640625.66796875-.6669921875-.2998046875-.66650390625-.66796875-.66650390625ZM318.603515625,185.6708984375c-9.7783203125,0-17.734375,7.955078125-17.734375,17.7333984375s7.9560546875,17.7333984375,17.734375,17.7333984375c9.779296875,0,17.7353515625-7.955078125,17.7353515625-17.7333984375s-7.9560546875-17.7333984375-17.7353515625-17.7333984375ZM318.603515625,164.6708984375c13.8037109375,0,25.9453125,7.25830078125,32.806640625,18.158203125,4.9189453125-10.04296875,14.896484375-17.17822265625,26.58984375-18.06494140625v-20.76416015625h-63.390625c-.3466796875,7.73583984375-2.3271484375,15.173828125-5.7734375,21.91796875,3.12109375-.8134765625,6.3955078125-1.2470703125,9.767578125-1.2470703125Z" fill="#283a97"/>
        </g>
        <g>
          <path d="M349.876953125,383.5c-4.4296875,0-8.033203125-3.603515625-8.033203125-8.033203125v-12.7958984375c0-5.82568359375-2.2705078125-11.31201171875-6.392578125-15.4482421875-4.142578125-4.12353515625-9.6298828125-6.3935546875-15.455078125-6.3935546875-12.0380859375,0-21.8310546875,9.79833984375-21.8310546875,21.841796875v12.7958984375c0,4.4296875-3.6044921875,8.033203125-8.0341796875,8.033203125h-68.26171875c-4.4296875,0-8.0341796875-3.603515625-8.0341796875-8.033203125v-12.7958984375c0-5.82666015625-2.2705078125-11.31298828125-6.392578125-15.4482421875-4.142578125-4.12353515625-9.6298828125-6.3935546875-15.455078125-6.3935546875-12.0380859375,0-21.8310546875,9.79833984375-21.8310546875,21.841796875v12.7958984375c0,4.4296875-3.603515625,8.033203125-8.033203125,8.033203125h-25.6064453125c-4.419921875,0-8.0166015625-3.603515625-8.0166015625-8.033203125v-68.2626953125c0-4.4296875,3.5966796875-8.033203125,8.0166015625-8.033203125,11.529296875,0,22.375-4.4931640625,30.5380859375-12.65185546875,8.1513671875-8.1552734375,12.640625-18.994140625,12.640625-30.51904296875,0-11.533203125-4.4892578125-22.37646484375-12.640625-30.53173828125-8.150390625-8.150390625-18.99609375-12.63916015625-30.5380859375-12.63916015625-2.13671875,0-4.1484375-.8359375-5.6669921875-2.35400390625-1.515625-1.51513671875-2.349609375-3.5322265625-2.349609375-5.67919921875v-68.2626953125c0-4.4296875,3.5966796875-8.033203125,8.0166015625-8.033203125h68.2802734375c4.4326171875,0,8.0380859375,3.603515625,8.0380859375,8.033203125,0,11.52978515625,4.4892578125,22.3681640625,12.6396484375,30.51904296875,8.140625,8.15869140625,18.978515625,12.65185546875,30.5166015625,12.65185546875,11.548828125,0,22.3935546875-4.4931640625,30.5341796875-12.65234375,8.150390625-8.150390625,12.6396484375-18.98876953125,12.6396484375-30.5185546875,0-2.14453125.8359375-4.1611328125,2.3544921875-5.67919921875,1.513671875-1.51806640625,3.5322265625-2.35400390625,5.68359375-2.35400390625h68.2626953125c4.4296875,0,8.0341796875,3.603515625,8.0341796875,8.033203125v25.6044921875c0,4.4296875-3.6044921875,8.033203125-8.0341796875,8.033203125-12.037109375,0-21.830078125,9.79248046875-21.830078125,21.8291015625,0,5.83203125,2.2705078125,11.31396484375,6.3935546875,15.43603515625,4.126953125,4.12255859375,9.609375,6.39306640625,15.4365234375,6.39306640625,2.146484375,0,4.1650390625.83447265625,5.6845703125,2.35009765625,1.5146484375,1.5185546875,2.349609375,3.537109375,2.349609375,5.68310546875v153.6044921875c0,4.4296875-3.6044921875,8.033203125-8.0341796875,8.033203125h-25.5888671875ZM234.669921875,302.43310546875c-9.6875,0-17.568359375,7.88037109375-17.568359375,17.56689453125s7.880859375,17.56689453125,17.568359375,17.56689453125c9.6865234375,0,17.5673828125-7.88037109375,17.5673828125-17.56689453125s-7.880859375-17.56689453125-17.5673828125-17.56689453125ZM362.673828125,223.5c-6.1572265625,0-11.1669921875,5.00927734375-11.1669921875,11.16650390625,0,6.15771484375,5.009765625,11.1669921875,11.1669921875,11.1669921875s11.1669921875-5.00927734375,11.1669921875-11.1669921875c0-6.1572265625-5.009765625-11.16650390625-11.1669921875-11.16650390625ZM313.603515625,170.1708984375c-15.568359375,0-28.234375,12.66552734375-28.234375,28.2333984375s12.666015625,28.2333984375,28.234375,28.2333984375c15.5693359375,0,28.2353515625-12.66552734375,28.2353515625-28.2333984375s-12.666015625-28.2333984375-28.2353515625-28.2333984375Z" fill="#fcee21"/>
          <path d="M375.46630859375,129c4.154296875,0,7.53369140625,3.379440307617188,7.53369140625,7.533340454101562v25.604263305664062c0,4.153900146484375-3.37939453125,7.5333251953125-7.53369140625,7.5333251953125-12.31298828125,0-22.33056640625,10.016769409179688-22.33056640625,22.329071044921875,0,5.96539306640625,2.322265625,11.572967529296875,6.5400390625,15.790206909179688,4.22119140625,4.216629028320312,9.8291015625,6.538864135742188,15.79052734375,6.538864135742188,2.0126953125,0,3.90625.782760620117188,5.32958984375,2.202133178710938,1.42138671875,1.425262451171875,2.2041015625,3.318588256835938,2.2041015625,5.331192016601562v153.604278564453125c0,4.153900146484375-3.37939453125,7.5333251953125-7.53369140625,7.5333251953125h-25.58935546875c-4.154296875,0-7.53369140625-3.379425048828125-7.53369140625-7.5333251953125v-12.795745849609375c0-5.959625244140625-2.322265625-11.57135009765625-6.541015625-15.804168701171875-4.23486328125-4.21588134765625-9.8486328125-6.537689208984375-15.806640625-6.537689208984375-12.31298828125,0-22.33056640625,10.02252197265625-22.33056640625,22.34185791015625v12.795745849609375c0,4.153900146484375-3.37939453125,7.5333251953125-7.53369140625,7.5333251953125h-68.2626953125c-4.154296875,0-7.53369140625-3.379425048828125-7.53369140625-7.5333251953125v-12.795745849609375c0-5.959320068359375-2.322265625-11.571075439453125-6.54150390625-15.804168701171875-4.23486328125-4.21588134765625-9.84814453125-6.537689208984375-15.80615234375-6.537689208984375-12.31298828125,0-22.33056640625,10.02252197265625-22.33056640625,22.34185791015625v12.795745849609375c0,4.153900146484375-3.37939453125,7.5333251953125-7.53369140625,7.5333251953125h-25.6064453125c-4.14453125,0-7.5166015625-3.379425048828125-7.5166015625-7.5333251953125v-68.262420654296875c0-4.153900146484375,3.3720703125-7.5333251953125,7.5166015625-7.5333251953125,11.66259765625,0,22.63330078125-4.545166015625,30.89208984375-12.798675537109375,8.2451171875-8.24957275390625,12.7861328125-19.21356201171875,12.7861328125-30.87225341796875,0-11.66693115234375-4.541015625-22.635467529296875-12.78662109375-30.885269165039062-8.24560546875-8.244964599609375-19.21630859375-12.785659790039062-30.8916015625-12.785659790039062-2.0029296875,0-3.8896484375-.783935546875-5.3134765625-2.207366943359375-1.4208984375-1.420730590820312-2.203125-3.312210083007812-2.203125-5.325973510742188v-68.26239013671875c0-4.153900146484375,3.3720703125-7.533340454101562,7.5166015625-7.533340454101562h68.27978515625c4.15673828125,0,7.53857421875,3.379440307617188,7.53857421875,7.533340454101562,0,11.663894653320312,4.541015625,22.627960205078125,12.78564453125,30.871658325195312,8.23583984375,8.253738403320312,19.19970703125,12.799270629882812,30.87109375,12.799270629882812,11.68212890625,0,22.65185546875-4.5455322265625,30.88671875-12.798431396484375,8.24560546875-8.244537353515625,12.78662109375-19.208602905273438,12.78662109375-30.87249755859375,0-2.010940551757812.7841796875-3.90240478515625,2.20849609375-5.326934814453125,1.4189453125-1.422805786132812,3.31201171875-2.206405639648438,5.330078125-2.206405639648438h68.2626953125M313.60400390625,227.137603759765625c15.84423828125,0,28.73486328125-12.889739990234375,28.73486328125-28.73333740234375s-12.890625-28.73333740234375-28.73486328125-28.73333740234375c-15.8447265625,0-28.7353515625,12.889739990234375-28.7353515625,28.73333740234375s12.890625,28.73333740234375,28.7353515625,28.73333740234375M362.673828125,246.333328247070312c6.43359375,0,11.66748046875-5.233627319335938,11.66748046875-11.666656494140625,0-6.43304443359375-5.23388671875-11.666671752929688-11.66748046875-11.666671752929688s-11.66748046875,5.233627319335938-11.66748046875,11.666671752929688c0,6.433029174804688,5.23388671875,11.666656494140625,11.66748046875,11.666656494140625M234.66943359375,338.066680908203125c9.962890625,0,18.06787109375-8.10467529296875,18.06787109375-18.066680908203125s-8.10498046875-18.066680908203125-18.06787109375-18.066680908203125-18.06787109375,8.10467529296875-18.06787109375,18.066680908203125,8.10498046875,18.066680908203125,18.06787109375,18.066680908203125M375.46630859375,128h-68.2626953125c-2.35107421875,0-4.4892578125.94720458984375-6.0380859375,2.500259399414062-1.548828125,1.548812866210938-2.50048828125,3.6864013671875-2.50048828125,6.0330810546875,0,11.771728515625-4.77001953125,22.442657470703125-12.49365234375,30.165328979492188-7.71875,7.735458374023438-18.39453125,12.505599975585938-30.1796875,12.505599975585938-11.7685546875,0-22.4443359375-4.7701416015625-30.1630859375-12.505599975585938-7.7236328125-7.722671508789062-12.49365234375-18.393600463867188-12.49365234375-30.165328979492188,0-4.710403442382812-3.8232421875-8.533340454101562-8.53857421875-8.533340454101562h-68.27978515625c-4.71044921875,0-8.5166015625,3.82293701171875-8.5166015625,8.533340454101562v68.26239013671875c0,2.359466552734375.947265625,4.484268188476562,2.49609375,6.033065795898438,1.5361328125,1.5360107421875,3.6611328125,2.500274658203125,6.0205078125,2.500274658203125,11.7900390625,0,22.46142578125,4.770126342773438,30.1845703125,12.4927978515625,7.71875,7.722671508789062,12.49365234375,18.393600463867188,12.49365234375,30.178131103515625,0,11.7845458984375-4.77490234375,22.442657470703125-12.49365234375,30.16534423828125-7.72314453125,7.7183837890625-18.39453125,12.505584716796875-30.1845703125,12.505584716796875-4.71044921875,0-8.5166015625,3.810150146484375-8.5166015625,8.5333251953125v68.262420654296875c0,4.71038818359375,3.80615234375,8.5333251953125,8.5166015625,8.5333251953125h25.6064453125c4.71044921875,0,8.53369140625-3.82293701171875,8.53369140625-8.5333251953125v-12.795745849609375c0-11.784515380859375,9.56201171875-21.34185791015625,21.33056640625-21.34185791015625,5.90087890625,0,11.23046875,2.393585205078125,15.1005859375,6.24639892578125,3.85302734375,3.8656005859375,6.2470703125,9.194671630859375,6.2470703125,15.095458984375v12.795745849609375c0,4.71038818359375,3.82275390625,8.5333251953125,8.53369140625,8.5333251953125h68.2626953125c4.7109375,0,8.53369140625-3.82293701171875,8.53369140625-8.5333251953125v-12.795745849609375c0-11.784515380859375,9.5625-21.34185791015625,21.33056640625-21.34185791015625,5.9013671875,0,11.23095703125,2.393585205078125,15.10107421875,6.24639892578125,3.85302734375,3.8656005859375,6.24658203125,9.194671630859375,6.24658203125,15.095458984375v12.795745849609375c0,4.71038818359375,3.8232421875,8.5333251953125,8.53369140625,8.5333251953125h25.58935546875c4.7275390625,0,8.53369140625-3.82293701171875,8.53369140625-8.5333251953125v-153.604278564453125c0-2.363723754882812-.947265625-4.484268188476562-2.49609375-6.037322998046875-1.5361328125-1.53173828125-3.673828125-2.496002197265625-6.03759765625-2.496002197265625-5.88427734375,0-11.2138671875-2.38079833984375-15.083984375-6.24639892578125-3.85302734375-3.852798461914062-6.24658203125-9.198944091796875-6.24658203125-15.082672119140625,0-11.784530639648438,9.5576171875-21.329071044921875,21.33056640625-21.329071044921875,4.7275390625,0,8.53369140625-3.822921752929688,8.53369140625-8.5333251953125v-25.604263305664062c0-4.710403442382812-3.80615234375-8.533340454101562-8.53369140625-8.533340454101562h0ZM313.60400390625,226.137603759765625c-15.318359375,0-27.7353515625-12.416000366210938-27.7353515625-27.73333740234375s12.4169921875-27.73333740234375,27.7353515625-27.73333740234375,27.73486328125,12.416000366210938,27.73486328125,27.73333740234375-12.41650390625,27.73333740234375-27.73486328125,27.73333740234375h0ZM362.673828125,245.333328247070312c-5.892578125,0-10.66748046875-4.774398803710938-10.66748046875-10.666656494140625,0-5.89227294921875,4.77490234375-10.666671752929688,10.66748046875-10.666671752929688,5.88818359375,0,10.66748046875,4.774398803710938,10.66748046875,10.666671752929688,0,5.892257690429688-4.779296875,10.666656494140625-10.66748046875,10.666656494140625h0ZM234.66943359375,337.066680908203125c-9.42578125,0-17.06787109375-7.6416015625-17.06787109375-17.066680908203125s7.64208984375-17.066680908203125,17.06787109375-17.066680908203125,17.06787109375,7.6416015625,17.06787109375,17.066680908203125-7.64208984375,17.066680908203125-17.06787109375,17.066680908203125h0Z" fill="#fcee21"/>
        </g>
      </g>
    </g>
  </g>
</svg>