<?xml version="1.0" encoding="UTF-8"?>
<svg id="Layer_2" data-name="Layer 2" xmlns="http://www.w3.org/2000/svg" viewBox="0 0 512 512">
  <g id="handmade-educational-toys">
    <g>
      <rect width="512" height="512" fill="#fff"/>
      <g>
        <path d="M141.51953125,399c-10.2119140625,0-18.51953125-8.314453125-18.51953125-18.53515625v-98.142578125c0-8.369140625,3.2587890625-16.2373046875,9.17578125-22.154296875s13.78515625-9.17578125,22.154296875-9.17578125c6.2470703125,0,11.3291015625-5.0888671875,11.3291015625-11.3447265625v-54.01171875c-11.2373046875-.3642578125-21.7490234375-4.9130859375-29.7353515625-12.9013671875-8.3369140625-8.3564453125-12.923828125-19.439453125-12.923828125-31.21484375,0-10.22021484375,8.3076171875-18.53466796875,18.51953125-18.53466796875h24.1396484375v-11.32958984375c0-17.28369140625,14.0546875-31.3447265625,31.3291015625-31.3447265625,8.35546875,0,16.2236328125,3.25390625,22.1552734375,9.16259765625,5.9365234375,5.95947265625,9.1904296875,13.82763671875,9.1904296875,22.18212890625v11.32958984375h65.33203125v-11.32958984375c0-17.28369140625,14.0546875-31.3447265625,31.330078125-31.3447265625,8.3564453125,0,16.224609375,3.25390625,22.1552734375,9.16259765625,5.935546875,5.958984375,9.189453125,13.82666015625,9.189453125,22.18212890625v11.32958984375h24.1240234375c4.9853515625,0,9.6513671875,1.93896484375,13.140625,5.4599609375,3.4677734375,3.47021484375,5.39453125,8.12451171875,5.39453125,13.07470703125,0,11.775390625-4.5869140625,22.8583984375-12.916015625,31.20703125-7.994140625,7.99609375-18.505859375,12.544921875-29.7431640625,12.9091796875v54.01171875c0,3.037109375,1.1787109375,5.8876953125,3.318359375,8.02734375,2.138671875,2.1396484375,4.9833984375,3.3173828125,8.0107421875,3.3173828125,8.369140625,0,16.2373046875,3.2587890625,22.154296875,9.17578125,5.912109375,5.890625,9.17578125,13.7626953125,9.17578125,22.154296875v98.142578125c0,10.220703125-8.314453125,18.53515625-18.53515625,18.53515625h-238.9453125Z" fill="#283a97"/>
        <path d="M362.67041015625,255.992431640625c-5.8857421875,0-11.22900390625-2.393310546875-15.08251953125-6.246826171875-3.86865234375-3.8685302734375-6.2470703125-9.21221923828125-6.2470703125-15.0977783203125v-55.46893310546875c0-4.71142578125,3.8232421875-8.519775390625,8.53466796875-8.519775390625,9.42333984375,0,17.9580078125-3.8233642578125,24.12939453125-9.99493408203125,6.171875-6.1866455078125,9.9951171875-14.72149658203125,9.9951171875-24.1444091796875,0-2.34820556640625-.9482421875-4.48565673828125-2.49853515625-6.0361328125-1.53564453125-1.5504150390625-3.6728515625-2.49871826171875-6.0361328125-2.49871826171875h-25.58984375c-4.71142578125,0-8.53466796875-3.8233642578125-8.53466796875-8.53485107421875v-12.79473876953125c0-5.90057373046875-2.3935546875-11.229248046875-6.2470703125-15.0977783203125-3.8681640625-3.85345458984375-9.19677734375-6.246826171875-15.09765625-6.246826171875-11.77099609375,0-21.32958984375,9.55841064453125-21.32958984375,21.3446044921875v12.79473876953125c0,4.71148681640625-3.8232421875,8.53485107421875-8.53466796875,8.53485107421875h-68.263671875c-4.71142578125,0-8.53466796875-3.8233642578125-8.53466796875-8.53485107421875v-12.79473876953125c0-5.90057373046875-2.3935546875-11.229248046875-6.2470703125-15.0977783203125-3.86865234375-3.85345458984375-9.197265625-6.246826171875-15.09765625-6.246826171875-11.77099609375,0-21.32958984375,9.55841064453125-21.32958984375,21.3446044921875v12.79473876953125c0,4.71148681640625-3.8232421875,8.53485107421875-8.53466796875,8.53485107421875h-25.60498046875c-4.71142578125,0-8.51953125,3.8233642578125-8.51953125,8.53485107421875,0,9.42291259765625,3.8232421875,17.957763671875,9.9951171875,24.1444091796875,6.17138671875,6.17156982421875,14.7060546875,9.99493408203125,24.12939453125,9.99493408203125,2.34814453125,0,4.4853515625.94830322265625,6.03564453125,2.49871826171875,1.55078125,1.535400390625,2.4990234375,3.6728515625,2.4990234375,6.02105712890625v55.46893310546875c0,11.78619384765625-9.54345703125,21.3446044921875-21.32958984375,21.3446044921875-5.90087890625,0-11.22900390625,2.39337158203125-15.08251953125,6.24688720703125-3.853515625,3.85345458984375-6.2470703125,9.18206787109375-6.2470703125,15.08270263671875v98.14312744140625c0,4.71148681640625,3.80810546875,8.53485107421875,8.51953125,8.53485107421875h238.94580078125c4.7265625,0,8.53466796875-3.8233642578125,8.53466796875-8.53485107421875v-98.14312744140625c0-5.900634765625-2.37841796875-11.229248046875-6.2470703125-15.08270263671875-3.853515625-3.853515625-9.19677734375-6.24688720703125-15.08251953125-6.24688720703125Z" fill="#fcee21"/>
      </g>
      <g>
        <path d="M341.340859646028548,119.450108778735739c0,4.711471746915777,3.823366848944715,8.534838595875044,8.534838595871406,8.534838595875044h-59.743870171107119c4.711471746930329,0,8.534838595876863-3.823366848959267,8.534838595876863-8.534838595875044v-12.79473158111432c0-11.786205680009516,9.558417122358151-21.344622802382219,21.329570176983907-21.344622802382219,5.900629152698457,0,11.229258540603041,2.393367436936387,15.097783265719045,6.246839536654079,3.85347209972133,3.868524725130555,6.246839536655898,9.197154113026045,6.246839536655898,15.09778326572814v12.79473158111432Z" fill="#fff"/>
        <path d="M221.868171929207165,127.984947374610783h-59.7438701711053c4.711471746926691,0,8.534838595869587-3.823366848959267,8.534838595869587-8.534838595875044v-12.79473158111432c0-11.786205680009516,9.55841712235997-21.344622802382219,21.329570176987545-21.344622802382219,5.900629152705733,0,11.229258540601222,2.393367436936387,15.097783265717226,6.246839536654079,3.853472099723149,3.868524725130555,6.246839536659536,9.197154113026045,6.246839536659536,15.09778326572814v12.79473158111432c0,4.711471746915777,3.823366848941077,8.534838595875044,8.534838595871406,8.534838595875044Z" fill="#fff"/>
        <path d="M384,341.325807020632055v34.139354383491082c0,4.711471746924872-3.80831422355368,8.534838595876863-8.534838595873225,8.534838595876863h-238.945375433640947c-4.711471746930329,0-8.519785970485827-3.823366848951991-8.519785970485827-8.534838595876863v-98.143117539837476c0-5.900629152700276,2.393367436936387-11.229258540592127,6.246839536664993-15.082730640331647,3.853472099717692-3.853472099717692,9.182101487616819-6.246839536657717,15.082730640324371-6.246839536657717h213.340859646026729c5.885576527314697,0,11.229258540599403,2.393367436940025,15.082730640324371,6.246839536657717,3.868524725108728,3.85347209973952,6.246839536659536,9.182101487631371,6.246839536659536,15.082730640331647v64.003763156346395Z" fill="#fff"/>
        <g>
          <circle cx="213.333333333335759" cy="170.659140353963721" r="14.932204386425155" fill="#00c2f3"/>
          <path d="M341.348385958724975,179.193978949837401v34.139354383492901h-42.67419297935885c-23.55735873463891,0-42.659140353971452-19.101781619334361-42.674192979366126-42.659140353976909v-42.674192979353393h85.348385958724975v51.193978949837401ZM313.606397365791054,170.674192979353393c0-8.248838713465375-6.683365672961372-14.932204386424928-14.932204386424928-14.932204386424928-8.248838713470832,0-14.932204386435842,6.683365672959553-14.932204386435842,14.932204386424928,0,8.248838713479927,6.68336567296501,14.932204386423109,14.932204386435842,14.932204386423109,8.248838713463556,0,14.932204386424928-6.683365672943182,14.932204386424928-14.932204386423109Z" fill="#00c2f3"/>
          <path d="M341.340859646028548,294.903510319276393c2.077262303759198,0,3.763156347387849,1.68589404362865,3.763156347387849,3.763156347391487,0,25.604515787625132-20.832833539130661,46.422296701355663-46.437349326746698,46.422296701355663h-85.33333333333394c-25.604515787621494,0-46.437349326748517-20.81778091373053-46.437349326748517-46.422296701355663,0-2.077262303762836,1.68589404362865-3.763156347391487,3.763156347384211-3.763156347391487,2.077262303759198,0,3.763156347391487,1.68589404362865,3.763156347391487,3.763156347391487,0,21.44999118009946,17.461045451864265,38.895984006569051,38.91103663197282,38.895984006569051h85.33333333333394c21.465043805492314,0,38.911036631971001-17.445992826469592,38.911036631971001-38.895984006569051,0-2.077262303762836,1.685894043632288-3.763156347391487,3.763156347387849-3.763156347391487Z" fill="#00c2f3"/>
        </g>
      </g>
    </g>
  </g>
</svg>