<?xml version="1.0" encoding="UTF-8"?>
<svg id="Layer_2" data-name="Layer 2" xmlns="http://www.w3.org/2000/svg" viewBox="0 0 1023.999999999992724 1024.000000000000909">
  <g id="handmade-educational-toys">
    <g>
      <rect width="1023.999999999992724" height="1024.000000000000909" fill="#fff"/>
      <g>
        <g>
          <path d="M590.235788939899066,580.780609889287007l77.138793164660456,77.13879316463499c-9.974019661589409-9.478007898898795-26.270695286002592-7.92423611220147-33.943937494215788,3.591603245437-11.707072808298108,17.563597235119232-18.842470936491736,37.278570790294907-21.406194384544506,57.45369983616547-65.312199449690524,22.272720957873389-140.502801835631544,7.362487850856269-192.595989007633762-44.724723275830911-36.48973280627979-36.489732806294342-54.728623164082819-84.31004756484981-54.728623164082819-132.136338368753059,0-47.826290803906886,18.238890357803029-95.646605562473269,54.728623164082819-132.136338368727593l-28.696969691416598-28.690993646083371-.095616725338914-.101592770690331c-.101592770661227-.107568815994455-.203185541344283-.209161586652044-.310754357342375-.316730402650137l-155.389130761344859-155.389130761344859c-9.149325405560376-9.149325405589479-24.011750149948057-8.653313642920693-32.37821361683018.62748475999615,4.422273546770157-6.292775736150361,9.448127672236296-12.298701296309446,15.071586331061553-17.922159955134703v-.005976045315037c72.979465612530475-72.97348956722999,191.29321112492471-72.97348956722999,264.272676737484289,0,36.48973280627979,36.4897328062616,54.728623164075543,84.31004756484981,54.728623164075543,132.136338368756697,0,47.826290803870506-18.238890357795754,95.646605562469631-54.728623164075543,132.136338368723955l13.213036232344166,13.213036232340528-79.23638507672149,79.236385076706938c-9.92621129892359,9.926211298930866-8.491960418876261,26.581449643363158,3.185232162759348,34.36823671289676,52.266492486676725,34.834368248877581,123.53083308852365,29.192981454078108,169.647974927036557-16.924160384438437.513939898679382-.513939898672106,1.021903752036451-1.03385584269563,1.523891560042102-1.553771786690049Z" fill="#fcee21"/>
          <g>
            <g>
              <path d="M823.433029943247675,416.881590573040739c34.828392203577096,52.266492486673087,29.187005408763071,123.530833088538202-16.924160384434799,169.641998881699692-46.117141838520183,46.117141838542011-117.375506395030243,51.758528633345122-169.647974927036557,16.924160384438437-11.677192581635609-7.780811024193099-13.111443461682939-24.442025413965894-3.185232162759348-34.36823671289676l155.389130761352135-155.383154716004356c9.92621129892359-9.9262112989054,26.58144964335952-8.497936464209488,34.36823671287857,3.185232162762986Z" fill="#00c2f3"/>
              <path d="M612.024450225799228,718.964706135524466c2.56372344805277-20.175129045870563,9.699121576246398-39.890102601046237,21.406194384544506-57.45369983616547,7.673242208213196-11.51583935763847,23.969917832626379-13.069611144335795,33.943937494215788-3.591603245437l.215137632003461.209161586684786c.065736498669139.065736498680053.137449042667868.131472997323726.203185541329731.197209496000141l155.389130761359411,155.389130761345768c9.926211298916314,9.926211298901762,8.497936464213126,26.581449643355882-3.185232162752072,34.368236712900398-52.266492486676725,34.828392203562544-123.53083308852365,29.187005408755795-169.641998881714244-16.924160384438437-30.621256288795848-30.621256288799486-43.39804121178895-72.322100625887288-38.330354768986581-112.194275090890187Z" fill="#00c2f3"/>
              <path d="M819.2438221644843,199.084618394077552c34.82839220356982,52.266492486680363,29.187005408748519,123.530833088512736-16.924160384434799,169.641998881706968-46.117141838527459,46.117141838545649-117.375506395030243,51.75852863334876-169.647974927058385,16.924160384438437-11.677192581635609-7.78678706953724-13.111443461668387-24.442025413958618-3.185232162744796-34.368236712864018l155.389130761344859-155.383154716037097c9.92621129892359-9.926211298898124,26.58144964335952-8.497936464209488,34.368236712893122,3.18523216275571Z" fill="#00c2f3"/>
              <path d="M590.235788939899066,580.780609889287007c-.501987808005651.51991594399442-1.00995166136272,1.039831888017943-1.523891560042102,1.553771786690049-46.117141838512907,46.117141838516545-117.381482440359832,51.758528633316018-169.647974927036557,16.924160384438437-11.677192581635609-7.786787069533602-13.111443461682939-24.442025413965894-3.185232162759348-34.36823671289676l79.23638507672149-79.236385076706938,76.152745684630645-76.146769639286504c9.926211298916314-9.926211298938142,26.581449643352244-8.497936464220402,34.36823671287857,3.185232162752072,34.43994925689185,51.680840044009528,29.306526315427618,121.941205029801495-15.400268824392697,168.088227095009643Z" fill="#00c2f3"/>
              <path d="M390.325120444067579,380.857989302789065c.107568815998093.107568815998093.209161586681148.209161586655682.310754357342375.316730402650137l.095616725338914.101592770690331c9.478007898913347,9.974019661567581,7.92423611220147,26.27069528598804-3.591603245440638,33.949913539527188-52.266492486669449,34.828392203595286-123.530833088516374,29.187005408759433-169.647974927029281-16.924160384438437-46.111165793183318-46.117141838512907-51.752552588011895-117.381482440341642-16.924160384442075-169.647974927051109.609556624018296-.914334936012892,1.272897656032001-1.768909418693511,1.990023096055666-2.557747402726818,8.366463466882124-9.280798402916844,23.228888211269805-9.77681016558563,32.37821361683018-.62748475999615l155.389130761344859,155.389130761344859Z" fill="#00c2f3"/>
            </g>
            <g>
              <path d="M716.3720703125,640.932128906250909c-28.65234375,0-56.3359375-8.35546875-80.056640625-24.16259765625-7.9951171875-5.32763671875-13.1279296875-13.90087890625-14.0810546875-23.5224609375-.9677734375-9.7529296875,2.4482421875-19.31689453125,9.3701171875-26.23876953125l155.388671875-155.38330078125c6.1474609375-6.146484375,14.3203125-9.53173828125,23.0146484375-9.53173828125,10.8037109375,0,20.802734375,5.32421875,26.74609375,14.2421875,38.021484375,57.05712890625,30.3779296875,133.7080078125-18.173828125,182.25927734375-27.3017578125,27.3017578125-63.6005859375,42.33740234375-102.2080078125,42.33740234375Z" fill="#283a97"/>
              <path d="M750.490234375,885.563476562500909c-38.6103515625,0-74.908203125-15.0341796875-102.20703125-42.3330078125-31.85546875-31.8564453125-46.865234375-75.7861328125-41.1787109375-120.5263671875,2.7958984375-22.00537109375,10.7509765625-43.35498046875,23.0048828125-61.7392578125,5.94140625-8.916015625,15.9384765625-14.240234375,26.7412109375-14.240234375,8.3818359375,0,16.341796875,3.1767578125,22.4130859375,8.94580078125l.6005859375.583984375,155.388671875,155.38916015625c6.9228515625,6.9228515625,10.3388671875,16.4853515625,9.373046875,26.236328125-.953125,9.6201171875-6.0859375,18.193359375-14.0830078125,23.5244140625-23.71875,15.8046875-51.400390625,24.1591796875-80.052734375,24.1591796875Z" fill="#283a97"/>
              <path d="M712.1826171875,423.135253906250909c-28.65234375,0-56.3359375-8.35546875-80.056640625-24.16259765625-7.998046875-5.33349609375-13.1298828125-13.9091796875-14.08203125-23.52978515625-.96484375-9.74951171875,2.451171875-19.310546875,9.37109375-26.23095703125l155.3896484375-155.3837890625c6.146484375-6.146484375,14.3193359375-9.53173828125,23.013671875-9.53173828125,10.8037109375,0,20.802734375,5.32421875,26.7470703125,14.24169921875,38.0205078125,57.0576171875,30.3759765625,133.7080078125-18.1748046875,182.259765625-27.3017578125,27.3017578125-63.6005859375,42.33740234375-102.2080078125,42.33740234375Z" fill="#283a97"/>
              <path d="M498.572265625,636.742675781250909c-28.6533203125,0-56.3359375-8.35546875-80.0546875-24.1630859375-7.998046875-5.33349609375-13.12890625-13.9091796875-14.0810546875-23.5302734375-.96484375-9.74951171875,2.451171875-19.31005859375,9.37109375-26.23046875l155.3896484375-155.3828125c6.146484375-6.146484375,14.3193359375-9.53173828125,23.013671875-9.53173828125,10.8037109375,0,20.802734375,5.32421875,26.74609375,14.2421875,18.041015625,27.07177734375,26.4296875,59.9306640625,23.6220703125,92.5234375-2.8427734375,32.99365234375-17.10546875,64.2705078125-40.1611328125,88.06884765625-.53125.5498046875-1.078125,1.10986328125-1.6318359375,1.66357421875-27.3046875,27.3046875-63.603515625,42.34033203125-102.2138671875,42.34033203125Z" fill="#283a97"/>
              <path d="M317.6328125,452.706054687500909c-38.609375,0-74.9091796875-15.03369140625-102.2109375-42.33203125-48.5517578125-48.5576171875-56.1953125-125.21044921875-18.17578125-182.26513671875.8916015625-1.3359375,1.869140625-2.59130859375,2.91015625-3.73681640625,6.009765625-6.6669921875,14.70703125-10.50732421875,23.8369140625-10.50732421875,8.693359375,0,16.8671875,3.3857421875,23.013671875,9.533203125l155.3896484375,155.388671875c.17578125.17578125.3408203125.34326171875.5068359375.51904296875l.1044921875.11083984375c6.6005859375,6.9453125,9.787109375,16.4384765625,8.7158203125,26.01611328125-1.0556640625,9.44482421875-6.171875,17.869140625-14.0361328125,23.11328125-23.720703125,15.806640625-51.4013671875,24.16015625-80.0546875,24.16015625Z" fill="#283a97"/>
            </g>
            <g>
              <path d="M823.433029943247675,416.881590573040739c34.828392203577096,52.266492486673087,29.187005408763071,123.530833088538202-16.924160384434799,169.641998881699692-46.117141838520183,46.117141838542011-117.375506395030243,51.758528633345122-169.647974927036557,16.924160384438437-11.677192581635609-7.780811024193099-13.111443461682939-24.442025413965894-3.185232162759348-34.36823671289676l155.389130761352135-155.383154716004356c9.92621129892359-9.9262112989054,26.58144964335952-8.497936464209488,34.36823671287857,3.185232162762986Z" fill="#00c2f3"/>
              <path d="M612.024450225799228,718.964706135524466c2.56372344805277-20.175129045870563,9.699121576246398-39.890102601046237,21.406194384544506-57.45369983616547,7.673242208213196-11.51583935763847,23.969917832626379-13.069611144335795,33.943937494215788-3.591603245437l.215137632003461.209161586684786c.065736498669139.065736498680053.137449042667868.131472997323726.203185541329731.197209496000141l155.389130761359411,155.389130761345768c9.926211298916314,9.926211298901762,8.497936464213126,26.581449643355882-3.185232162752072,34.368236712900398-52.266492486676725,34.828392203562544-123.53083308852365,29.187005408755795-169.641998881714244-16.924160384438437-30.621256288795848-30.621256288799486-43.39804121178895-72.322100625887288-38.330354768986581-112.194275090890187Z" fill="#00c2f3"/>
              <path d="M819.2438221644843,199.084618394077552c34.82839220356982,52.266492486680363,29.187005408748519,123.530833088512736-16.924160384434799,169.641998881706968-46.117141838527459,46.117141838545649-117.375506395030243,51.75852863334876-169.647974927058385,16.924160384438437-11.677192581635609-7.78678706953724-13.111443461668387-24.442025413958618-3.185232162744796-34.368236712864018l155.389130761344859-155.383154716037097c9.92621129892359-9.926211298898124,26.58144964335952-8.497936464209488,34.368236712893122,3.18523216275571Z" fill="#00c2f3"/>
              <path d="M590.235788939899066,580.780609889287007c-.501987808005651.51991594399442-1.00995166136272,1.039831888017943-1.523891560042102,1.553771786690049-46.117141838512907,46.117141838516545-117.381482440359832,51.758528633316018-169.647974927036557,16.924160384438437-11.677192581635609-7.786787069533602-13.111443461682939-24.442025413965894-3.185232162759348-34.36823671289676l79.23638507672149-79.236385076706938,76.152745684630645-76.146769639286504c9.926211298916314-9.926211298938142,26.581449643352244-8.497936464220402,34.36823671287857,3.185232162752072,34.43994925689185,51.680840044009528,29.306526315427618,121.941205029801495-15.400268824392697,168.088227095009643Z" fill="#00c2f3"/>
              <path d="M390.325120444067579,380.857989302789065c.107568815998093.107568815998093.209161586681148.209161586655682.310754357342375.316730402650137l.095616725338914.101592770690331c9.478007898913347,9.974019661567581,7.92423611220147,26.27069528598804-3.591603245440638,33.949913539527188-52.266492486669449,34.828392203595286-123.530833088516374,29.187005408759433-169.647974927029281-16.924160384438437-46.111165793183318-46.117141838512907-51.752552588011895-117.381482440341642-16.924160384442075-169.647974927051109.609556624018296-.914334936012892,1.272897656032001-1.768909418693511,1.990023096055666-2.557747402726818,8.366463466882124-9.280798402916844,23.228888211269805-9.77681016558563,32.37821361683018-.62748475999615l155.389130761344859,155.389130761344859Z" fill="#00c2f3"/>
            </g>
          </g>
        </g>
        <path d="M388.149839942678227,246.199759803315828c0-10.320630290960253-8.366463466882124-18.687093757816911-18.681117712483683-18.687093757816911-10.320630290931149,0-18.687093757813273,8.366463466856658-18.687093757813273,18.687093757816911,0,10.320630290923873,8.366463466882124,18.687093757784169,18.687093757813273,18.687093757784169,10.31465424560156,0,18.681117712483683-8.366463466860296,18.681117712483683-18.687093757784169Z" fill="#283a97"/>
        <path d="M400.131810836326622,215.662168149166973c16.864399931095249,16.864399931113439,16.864399931095249,44.20480733180375,0,61.069207262913551-16.864399931109801,16.864399931106163-44.210783377144253,16.864399931106163-61.075183308246778,0-16.864399931109801-16.864399931109801-16.864399931109801-44.204807331800112,0-61.069207262913551,16.864399931102525-16.864399931073422,44.210783377136977-16.864399931073422,61.075183308246778,0ZM388.149839942678227,246.199759803315828c0-10.320630290960253-8.366463466882124-18.687093757816911-18.681117712483683-18.687093757816911-10.320630290931149,0-18.687093757813273,8.366463466856658-18.687093757813273,18.687093757816911,0,10.320630290923873,8.366463466882124,18.687093757784169,18.687093757813273,18.687093757784169,10.31465424560156,0,18.681117712483683-8.366463466860296,18.681117712483683-18.687093757784169Z" fill="#fff"/>
      </g>
    </g>
  </g>
</svg>