<?xml version="1.0" encoding="UTF-8"?>
<svg xmlns="http://www.w3.org/2000/svg" viewBox="0 0 2047.999999999996362 1536">
  <g isolation="isolate">
    <g id="bg">
      <rect x="-.000000000002728" width="2047.999999999999091" height="1536"/>
    </g>
    <g id="business-card-pencil">
      <g id="a-side">
        <g id="bg-2" data-name="bg">
          <rect x="1023.999999999976353" y="347.905031456490178" width="682.666664601589218" height="420.094968543509822" fill="#7b2900"/>
        </g>
        <g id="logotype">
          <g>
            <path d="M1324.425479808225646,550.456634247220791l-10.951725911649191-27.381214141891178v27.381214141891178h-10.474985848539291v-56.027403909400164h10.474985848539291v21.82367858562975l11.189146261800488-21.82367858562975h10.634532323829262l-12.777013563580113,24.205479538308282,13.094207151400042,31.821924371091882h-11.189146261800488Z" fill="#fff"/>
            <path d="M1339.337377160336473,550.456634247220791v-56.027403909400164h10.237565498420736v56.027403909400164h-10.237565498420736Z" fill="#fff"/>
            <path d="M1376.23249957340704,550.456634247220791l-9.91847254779168-41.979716631840347.871807525740223,41.979716631840347h-9.681052197658573v-56.027403909400164h13.253753626679099l10.078019023099841,41.106009743269169-1.031354001019281-41.106009743269169h9.443631847489087v56.027403909400164h-13.016333276538717Z" fill="#fff"/>
            <path d="M1417.270748720606207,510.393982888859682h10.397111973710707v-3.057024428509976c0-3.886096291218564-.396966825461277-5.633510068320902-1.270673714010627-7.456898357439059-1.665741176639131-3.255507841251529-5.950703656119003-6.58699019452979-14.04578791475069-6.58699019452979-6.269796606749878,0-10.157792260748465,1.823388289149079-12.220500262859787,3.650575303880032-3.730348541528656,3.331482353278261-3.492928191370083,8.964992421599163-3.492928191370083,10.157792260750284v31.423058182848763c0,2.066506727689557.239319712951328,4.444508954789853,1.190900476340175,6.431242444799864.317193587790825.793933650900726,1.111127238689733,2.142481239749031,2.776868415330682,3.491028828600975,3.333381716089207,2.697095177700248,7.540470320700479,3.251709115640551,11.665886324879466,3.251709115640551,4.284962479499882,0,8.809244671931083-.634387175610755,12.142626387989367-3.726549815941326,2.697095177700248-2.621120665638955,3.253608478451497-5.872829781279506,3.253608478451497-9.447430573100064v-22.378292523610071h-12.234270643140917l-3.282098920450153,6.468280019460508v2.021871701879718h5.119257589880363v12.380046738138844c0,2.066506727691376.079773237650443,4.288761205050832-1.823388289119976,5.637308793900957-1.270673714010627.873706888540255-2.778767778139809.953480126188879-3.25550784124971.953480126188879-.474840700300774,0-3.014288765491074,0-4.20518924182943-1.667640539419153-1.031354001050204-1.428320826489653-.951580763381571-3.49482755417921-.951580763381571-5.158669368049232v-28.330895542490907c0-2.302027715039003-.31719358779992-4.763601905389805,1.98293476444087-6.351469207158516,1.270673713979704-.949681400610643,2.778767778139809-1.029454638250172,3.333381716089207-1.029454638250172,2.619221302829828,0,3.810121779170004,1.428320826489653,4.284962479461683,2.461574190348983.87370688854935,1.663841813830004.634387175588927,4.205189241820335.634387175588927,4.520483466820224v2.342864015239684Z" fill="#fff"/>
          </g>
          <g>
            <polygon points="1205.815936017266722 600.17417181150995 1199.943135636365696 557.955101915569685 1190.182285510436486 557.955101915569685 1184.149915349276853 600.17417181150995 1178.516426904476248 557.955101915569685 1172.664822723616453 557.955101915569685 1167.802132384496872 557.955101915569685 1160.522220553466468 557.955101915569685 1155.205905892566079 568.432007541749044 1162.110097983875676 568.432007541749044 1168.548700156647101 562.040840413508704 1178.039683340315605 613.982470525628742 1189.07119437847723 613.982470525628742 1195.101684231576655 575.729312222429144 1200.497741048306125 613.982470525628742 1211.369682306205505 613.982470525628742 1222.163761716336012 557.955101915569685 1211.686941558686158 557.955101915569685 1205.815936017266722 600.17417181150995" fill="#fff"/>
            <path d="M1242.228614594596365,556.766064834730059c-6.269801789230769,0-10.15776606568943,1.823386016130826-12.220464017920676,3.650618116969781-3.730360272809776,3.331478556399816-3.492928644769563,8.964967001231344-3.492928644769563,10.157766065660326v31.423110177809576c0,2.066458568389862.239311936129525,4.444449996450203,1.190918756399697,6.431166408980062.317173783900216.794002816650391,1.11109113197017,2.142525576669868,2.776873144470301,3.491048336709355,3.333358864500042,2.697130988601202,7.54046270147046,3.251736400570735,11.665858605960238,3.251736400570735,4.284965684770214,0,8.809243305660857-.634347567829536,12.142602170160899-3.726599656680264,2.697130988608478-2.621063980328472,3.253616708629124-5.872800380899207,3.253616708629124-9.447351489579887v-31.187558857809563c0-3.886083968389357-.396915939749306-5.633488444820614-1.2706609122597-7.456874460920517-1.665696543919694-3.255497016720255-5.950662228689907-6.587061041709603-14.045815810670319-6.587061041709603ZM1245.324627299605709,606.126715715789032c-1.2706609122597.873744972501299-2.778753452559613.953487128341294-3.255497016720255.953487128341294-.474863256109529,0-3.014304772508694,0-4.205223528919305-1.667662320551244-1.031348976099252-1.428264915879481-.951606820259258-3.494808952818858-.951606820259258-5.158625188680162v-28.330858088958848c0-2.302095356910286-.317173783900216-4.76367502553876,1.982955796398528-6.351509721671391,1.270660912261519-.949726512208144,2.778838921080023-1.029468668068148,3.333358864490947-1.029468668068148,2.619269140839606,0,3.810187897210199,1.428350384439909,4.285051153319728,2.461579668630293.873659503920862,1.663816235859485.634347567789519,4.205223528908391.634347567789519,4.520517004739304v28.965205656741091c0,2.066544036937557.079742155890926,4.288811769449239-1.823386016099903,5.637334529477812Z" fill="#fff"/>
            <path d="M1280.231093644695648,556.766064834730059c-6.26980178922895,0-10.15776606568943,1.823386016130826-12.220464017918857,3.650618116969781-3.730360272800681,3.331478556399816-3.492928644769563,8.964967001231344-3.492928644769563,10.157766065660326v31.423110177809576c0,2.066458568389862.239311936129525,4.444449996450203,1.190833287848363,6.431166408980062.317259252451549.794002816650391,1.111176600521503,2.142525576669868,2.776873144470301,3.491048336709355,3.333444333049556,2.697130988601202,7.540548170019974,3.251736400570735,11.665944074509753,3.251736400570735,4.284965684770214,0,8.809243305640848-.634347567829536,12.142602170129976-3.726599656680264,2.69713098864122-2.621063980328472,3.253616708660047-5.872800380899207,3.253616708660047-9.447351489579887v-31.187558857809563c0-3.886083968389357-.39700140829882-5.633488444820614-1.270660912248786-7.456874460920517-1.665782012480122-3.255497016720255-5.950747697250335-6.587061041709603-14.045815810681233-6.587061041709603ZM1283.327020881155477,606.126715715789032c-1.270575443708367.873744972501299-2.778753452559613.953487128341294-3.25549701672935.953487128341294-.474777787549101,0-3.014304772499599,0-4.205138060349782-1.667662320551244-1.031348976130175-1.428264915879481-.951606820270172-3.494808952818858-.951606820270172-5.158625188680162v-28.330858088958848c0-2.302095356910286-.317173783900216-4.76367502553876,1.982955796400347-6.351509721671391,1.270660912230596-.949726512208144,2.778753452530509-1.029468668068148,3.333358864489128-1.029468668068148,2.619183672260988,0,3.810102428669779,1.428350384439909,4.284965684770214,2.461579668630293.87374497248129,1.663816235859485.634347567791337,4.205223528908391.634347567791337,4.520517004739304v28.965205656741091c0,2.066544036937557.079827624409518,4.288811769449239-1.823386016101722,5.637334529477812Z" fill="#fff"/>
            <path d="M1329.663965449335592,560.7319750600509c-3.016185080599826-2.53756120836988-6.190059633368946-2.776873144481215-7.698152173668859-2.776873144481215h-18.967009371321183v56.027368610059057h16.585171858550893c3.09601270498024,0,6.032370161159633-.079742155889107,8.889070930039452-1.747404476438533,2.222182263980358-1.268780604161293,4.919313252590655-4.284965684761119,5.236487036490871-10.237508221540338.079827624409518-1.029468668049958.079827624409518-2.062697952238523.079827624409518-3.092252088859823v-26.188332512279885c0-4.604105245271057-.31725925244973-8.729501149769931-4.125395904500692-11.984998166459263ZM1323.473905815966646,571.843228254039786v27.932061841100221c0,2.780633760619821-.239311936129525,5.238452813098775-3.572670800620472,5.872800380921035-.951606820279267.159569780247693-1.982955796380338.159569780247693-2.93456261665051.159569780247693h-3.650618116969781v-39.677662602918645h4.045739217221126c1.587834696119899,0,3.333358864489128-.159569780249512,4.683761932579728.949641043649535,1.506212232239704,1.272541220330822,1.428350384439909,3.016185080599826,1.428350384439909,4.763589557000159Z" fill="#fff"/>
            <path d="M1412.351383978995727,556.766064834730059c-6.26980178922895,0-10.157851534218935,1.823386016130826-12.220549486479285,3.650618116969781-3.730360272800681,3.331478556399816-3.492928644729545,8.964967001231344-3.492928644729545,10.157766065660326v31.423110177809576c0,2.066458568389862.239311936100421,4.444449996450203,1.190918756368774,6.431166408980062.317173783900216.794002816650391,1.111091131990179,2.142525576669868,2.776873144470301,3.491048336709355,3.333358864490947,2.697130988601202,7.540462701461365,3.251736400570735,11.665858605991161,3.251736400570735,4.2849656847593,0,8.809243305629934-.634347567829536,12.14268763867949-3.726599656680264,2.697045520049869-2.621063980328472,3.253616708629124-5.872800380899207,3.253616708629124-9.447351489579887v-31.187558857809563c0-3.886083968389357-.397001408309734-5.633488444820614-1.27074638078011-7.456874460920517-1.665696543948798-3.255497016720255-5.950662228719011-6.587061041709603-14.045730342149909-6.587061041709603ZM1415.447311215455557,606.126715715789032c-1.270660912228777.873744972501299-2.77875345252869.953487128341294-3.255497016698428.953487128341294-.474863256111348,0-3.014304772541436,0-4.20522352891021-1.667662320551244-1.031348976130175-1.428264915879481-.951521351720658-3.494808952818858-.951521351720658-5.158625188680162v-28.330858088958848c0-2.302095356910286-.317259252480653-4.76367502553876,1.982870327850833-6.351509721671391,1.270746380789205-.949726512208144,2.77875345252869-1.029468668068148,3.333444333018633-1.029468668068148,2.619183672290092,0,3.810102428691607,1.428350384439909,4.284880216211604,2.461579668630293.873744972508575,1.663816235859485.63443303637905,4.205223528908391.63443303637905,4.520517004739304v28.965205656741091c0,2.066544036937557.079742155860004,4.288811769449239-1.823386016130826,5.637334529477812Z" fill="#fff"/>
            <path d="M1465.730493122686312,578.111149735210347v-10.157766065691249c0-6.82252689310917-3.253616708629124-9.998281753949414-10.078023909800322-9.998281753949414h-20.632791383830408v56.027368610059057h10.31733584596077v-24.839809752287692h3.888049744989985l7.935498333179567,24.839809752287692h10.712371477620763l-8.727535373160208-26.268160136689403c4.919313252570646-1.508092540298094,6.585095265039854-4.045653748669793,6.585095265039854-9.603160653728992ZM1455.494779740676677,575.573588526840467c0,4.045653748669793-1.190833287821079,5.314434352840181-4.761709248930856,5.314434352840181h-5.39605681672947v-14.917595006540068h5.39605681672947c3.570875961109778,0,4.761709248930856,1.109210823899048,4.761709248930856,4.604019776728819v4.999140876971069Z" fill="#fff"/>
            <polygon points="1505.320806868956424 557.955101915569685 1494.686297239095438 557.955101915569685 1483.497096728746328 579.778812055748858 1483.497096728746328 557.955101915569685 1473.022156879156682 557.955101915569685 1473.022156879156682 613.982470525628742 1483.497096728746328 613.982470525628742 1483.497096728746328 586.601253480330342 1494.448865611057045 613.982470525628742 1505.637980652845727 613.982470525628742 1492.543771662445579 582.160564099969633 1505.320806868956424 557.955101915569685" fill="#fff"/>
            <polygon points="1519.678070070776812 589.146164983871131 1535.54915220564726 589.146164983871131 1535.54915220564726 580.655975770190707 1519.678070070776812 580.655975770190707 1519.678070070776812 566.445205660669671 1536.500759025915613 566.445205660669671 1536.500759025915613 557.955101915569685 1509.360734224846965 557.955101915569685 1509.360734224846965 613.982470525628742 1537.294676374005576 613.982470525628742 1537.294676374005576 605.332797000199207 1519.678070070776812 605.332797000199207 1519.678070070776812 589.146164983871131" fill="#fff"/>
            <path d="M1566.571414890437154,587.714310388939339c4.919398721140169-1.508092540298094,6.585095265068958-4.045653748669793,6.585095265068958-9.603160653728992v-10.157766065691249c0-6.82252689310917-3.253616708640038-9.998281753949414-10.078023909809417-9.998281753949414h-20.63270591526998v56.027368610059057h10.317250377400342v-24.839809752287692h3.887964276438652l7.935583801699977,24.839809752287692h10.714337254270504l-8.729501149799034-26.268160136689403ZM1562.920882242045991,575.573588526840467c0,4.045653748669793-1.190918756370593,5.314434352840181-4.761709248939951,5.314434352840181h-5.396142285278984v-14.917595006540068h5.396142285278984c3.570790492569358,0,4.761709248939951,1.109210823899048,4.761709248939951,4.604019776728819v4.999140876971069Z" fill="#fff"/>
          </g>
        </g>
        <g id="Crown">
          <polygon id="bottom" points="1349.85037378227571 622.621335127239945 1380.816293601455982 622.621335127239945 1382.146998708216415 615.338797862759748 1348.51960190322643 615.338797862759748 1349.85037378227571 622.621335127239945" fill="#febe10"/>
          <polygon id="top" points="1381.918570680205448 557.952515728258732 1376.285058755285718 600.171570759481256 1370.252715900445764 557.952515728258732 1360.413951483296842 557.952515728258732 1354.381541856146214 600.171570759481256 1348.748096703537158 557.952515728258732 1338.033747155926903 557.952515728258732 1348.269739967876376 613.971301220361056 1359.302860461346427 613.971301220361056 1365.117792717175689 577.085549866758811 1365.333333691865846 575.718053224351024 1365.548874666556003 577.085549866758811 1371.363806922387084 613.971301220361056 1382.396927415857135 613.971301220361056 1392.632920227835712 557.952515728258732 1381.918570680205448 557.952515728258732" fill="#febe10"/>
        </g>
        <g id="crow-shine-mask">
          <polygon id="bottom-2" data-name="bottom" points="1349.85037378227571 622.621335127239945 1380.816293601455982 622.621335127239945 1382.146998708216415 615.338797862759748 1348.51960190322643 615.338797862759748 1349.85037378227571 622.621335127239945" fill="#febe10"/>
          <polygon id="top-2" data-name="top" points="1381.918570680205448 557.952515728258732 1376.285058755285718 600.171570759481256 1370.252715900445764 557.952515728258732 1360.413951483296842 557.952515728258732 1354.381541856146214 600.171570759481256 1348.748096703537158 557.952515728258732 1338.033747155926903 557.952515728258732 1348.269739967876376 613.971301220361056 1359.302860461346427 613.971301220361056 1365.117792717175689 577.085549866758811 1365.333333691865846 575.718053224351024 1365.548874666556003 577.085549866758811 1371.363806922387084 613.971301220361056 1382.396927415857135 613.971301220361056 1392.632920227835712 557.952515728258732 1381.918570680205448 557.952515728258732" fill="#febe10"/>
        </g>
      </g>
      <g id="a-side-2" data-name="a-side">
        <g id="bg-3" data-name="bg">
          <rect x="682.666667699186291" y="557.952515728258732" width="682.666664601589218" height="420.094968543511641" fill="#fff"/>
        </g>
        <g id="Crown-2" data-name="Crown">
          <polygon id="bottom-3" data-name="bottom" points="1008.517041481476554 832.668819399010317 1039.48296130066592 832.668819399010317 1040.81366640741544 825.386282134499197 1007.186269602436369 825.386282134499197 1008.517041481476554 832.668819399010317" fill="#febe10"/>
          <polygon id="top-3" data-name="top" points="1040.585238379406292 768 1034.951726454495656 810.219055031249809 1028.919383599646608 768 1019.080619182495866 768 1013.048209555356152 810.219055031249809 1007.414764402736182 768 996.700414855132294 768 1006.93640766707631 824.0187854921096 1017.969528160556365 824.0187854921096 1023.784460416386537 787.133034138510993 1024.000001391076694 785.765537496119578 1024.215542365765941 787.133034138510993 1030.030474621597023 824.0187854921096 1041.063595115067073 824.0187854921096 1051.29958792704565 768 1040.585238379406292 768" fill="#febe10"/>
        </g>
        <g id="crow-shine-mask-2" data-name="crow-shine-mask">
          <polygon id="bottom-4" data-name="bottom" points="1008.517041481476554 832.668819399010317 1039.48296130066592 832.668819399010317 1040.81366640741544 825.386282134499197 1007.186269602436369 825.386282134499197 1008.517041481476554 832.668819399010317" fill="#febe10"/>
          <polygon id="top-4" data-name="top" points="1040.585238379406292 768 1034.951726454495656 810.219055031249809 1028.919383599646608 768 1019.080619182495866 768 1013.048209555356152 810.219055031249809 1007.414764402736182 768 996.700414855132294 768 1006.93640766707631 824.0187854921096 1017.969528160556365 824.0187854921096 1023.784460416386537 787.133034138510993 1024.000001391076694 785.765537496119578 1024.215542365765941 787.133034138510993 1030.030474621597023 824.0187854921096 1041.063595115067073 824.0187854921096 1051.29958792704565 768 1040.585238379406292 768" fill="#febe10"/>
        </g>
        <g>
          <path d="M996.786142536236184,760.49249766327921l-7.934401168097793-24.842998297990562h-3.891091220349153v24.842998297990562h-10.322332454908064v-56.020390495868924h20.644664909817038c6.821301723668512,0,10.074977022808525,3.176708051880269,10.074977022808525,9.986657049339556v10.15785688447977c0,5.554483539819557-1.664892331430565,8.10345886289906-6.583459962010238,9.60621297130092l8.724035816730066,26.269663590748678h-10.71239294399038ZM995.1212502048038,717.083828355440346c0-3.500085518240667-1.189208808189505-4.603373344631109-4.76634890315654-4.603373344631109h-5.394251153858022v14.913407860331063h5.394251153858022c3.577140094967035,0,4.76634890315654-1.255465457610626,4.76634890315654-5.307194889070161v-5.002839626629793Z" fill="#7b2900"/>
          <path d="M1011.931905917086624,760.49249766327921v-56.020390495868924h27.152015508099794v8.483902940970438h-16.829683053219924v13.18238730514895h15.878316006659588v8.483902940970438h-15.878316006659588v17.215094532670264h17.619317701830369v8.655102776108833h-27.941650156710239Z" fill="#7b2900"/>
          <path d="M1062.173599644576825,743.905135859409711v16.587361803869499h-10.560174216530868v-17.291183348299455l-11.197590137709994-38.729207147569468h10.874125341881154l5.717715949689591,28.247972796718386,5.479874188029498-28.247972796718386h10.874125341910258l-11.188076467269639,39.433028691999425Z" fill="#7b2900"/>
        </g>
        <g id="info">
          <path d="M933.752441406246362,878.1884765625c0,1.7890625-.84912109375,3.783203125-2.5458984375,5.98046875-1.69775390625,2.1982421875-4.0673828125,4.5908203125-7.11083984375,7.1767578125h10.29833984375v2.1005859375h-12.982421875v-2.1005859375c.36962890625-.349609375.87548828125-.806640625,1.51708984375-1.37109375.64208984375-.5634765625,1.33203125-1.19140625,2.0712890625-1.8818359375s1.49267578125-1.43359375,2.26123046875-2.2314453125c.76806640625-.7978515625,1.46337890625-1.6142578125,2.0859375-2.451171875.6220703125-.8359375,1.12744140625-1.671875,1.51708984375-2.5087890625.388671875-.8359375.58349609375-1.6435546875.58349609375-2.4208984375,0-1.1669921875-.306640625-2.0859375-.9189453125-2.7568359375-.61279296875-.671875-1.53173828125-1.0068359375-2.75732421875-1.0068359375-1.05029296875,0-1.935546875.1162109375-2.65478515625.349609375-.7197265625.2333984375-1.37109375.57421875-1.95458984375,1.021484375l-.99169921875-1.6044921875c.876953125-.6220703125,1.80810546875-1.0791015625,2.79296875-1.37109375.984375-.2919921875,2.06201171875-.4375,3.23193359375-.4375,1.83251953125,0,3.216796875.49609375,4.15283203125,1.4873046875.93603515625.9921875,1.404296875,2.333984375,1.404296875,4.0263671875Z" fill="#7b2900"/>
          <path d="M943.845703124996362,891.75390625c.77783203125,0,1.49267578125-.1015625,2.14453125-.3046875.6513671875-.203125,1.22021484375-.4892578125,1.70654296875-.857421875.48583984375-.3681640625.865234375-.814453125,1.1376953125-1.337890625.2724609375-.5224609375.40869140625-1.1044921875.40869140625-1.7431640625,0-1.3369140625-.4716796875-2.2919921875-1.4150390625-2.86328125-.943359375-.572265625-2.21240234375-.857421875-3.80712890625-.857421875h-1.8671875v-1.400390625l5.7763671875-7.2646484375h-8.751953125v-2.1005859375h11.552734375v2.1005859375l-5.7763671875,6.7392578125h.46923828125c.8984375,0,1.71875.126953125,2.4609375.37890625.7421875.2529296875,1.38720703125.61328125,1.93408203125,1.080078125s.9716796875,1.03125,1.2744140625,1.69140625c.302734375.662109375.45458984375,1.4111328125.45458984375,2.2470703125,0,1.0498046875-.20458984375,1.9833984375-.6142578125,2.80078125-.4091796875.81640625-.96484375,1.501953125-1.6669921875,2.056640625-.70166015625.5537109375-1.525390625.97265625-2.470703125,1.25390625-.94580078125.2822265625-1.95458984375.4228515625-3.0263671875.4228515625-.99462890625,0-1.857421875-.07421875-2.58837890625-.2216796875-.7314453125-.1474609375-1.3984375-.330078125-2.0029296875-.546875l.58349609375-2.060546875c.50537109375.2333984375,1.0986328125.4228515625,1.779296875.568359375.6806640625.146484375,1.44873046875.21875,2.3046875.21875Z" fill="#7b2900"/>
          <path d="M955.865722656246362,879.1806640625c0-.89453125.1455078125-1.736328125.4384765625-2.5234375.2919921875-.7880859375.7353515625-1.478515625,1.330078125-2.072265625.59423828125-.5927734375,1.330078125-1.0595703125,2.20703125-1.3994140625.876953125-.3408203125,1.89990234375-.5107421875,3.06982421875-.5107421875,1.09130859375,0,2.06591796875.1748046875,2.923828125.5244140625.857421875.3505859375,1.58349609375.841796875,2.177734375,1.4736328125.5947265625.6328125,1.04736328125,1.400390625,1.359375,2.3046875s.4677734375,1.9111328125.4677734375,3.01953125c0,2.1787109375-.27294921875,4.0947265625-.8193359375,5.7470703125-.5458984375,1.6533203125-1.30615234375,3.0537109375-2.28125,4.201171875s-2.13037109375,2.0419921875-3.4658203125,2.6845703125c-1.33544921875.6416015625-2.78369140625,1.0302734375-4.34375,1.166015625l-.4384765625-1.837890625c1.28369140625-.1357421875,2.43115234375-.4462890625,3.4423828125-.93359375,1.01123046875-.4853515625,1.88623046875-1.1083984375,2.6259765625-1.8662109375.73876953125-.7587890625,1.341796875-1.6337890625,1.80859375-2.6259765625s.78759765625-2.0517578125.962890625-3.1796875c-.3115234375.330078125-.62744140625.607421875-.9482421875.8310546875s-.67626953125.404296875-1.06494140625.5400390625c-.38916015625.1357421875-.81689453125.2333984375-1.28369140625.291015625-.466796875.05859375-1.001953125.087890625-1.6044921875.087890625-.89501953125,0-1.74072265625-.1357421875-2.5380859375-.408203125-.7978515625-.2724609375-1.4931640625-.666015625-2.0859375-1.181640625-.59375-.515625-1.06494140625-1.1376953125-1.4150390625-1.8671875s-.52490234375-1.55078125-.52490234375-2.46484375ZM958.287109374996362,878.947265625c0,1.400390625.42138671875,2.4501953125,1.2646484375,3.150390625s1.962890625,1.0498046875,3.359375,1.0498046875c1.10498046875,0,2.06005859375-.169921875,2.8642578125-.509765625.8046875-.3408203125,1.37158203125-.763671875,1.701171875-1.26953125.0390625-.271484375.05859375-.4912109375.05859375-.65625v-.5693359375c0-.6796875-.09228515625-1.3515625-.2763671875-2.0126953125s-.47021484375-1.25390625-.85791015625-1.779296875-.88720703125-.9482421875-1.498046875-1.26953125c-.61083984375-.3203125-1.34228515625-.4814453125-2.19580078125-.4814453125-1.3955078125,0-2.4814453125.3798828125-3.2568359375,1.138671875-.77587890625.7578125-1.1630859375,1.828125-1.1630859375,3.208984375Z" fill="#7b2900"/>
          <path d="M978.357910156246362,891.841796875c0-.6220703125.17529296875-1.103515625.525390625-1.4443359375.35009765625-.33984375.81689453125-.5107421875,1.400390625-.5107421875.6220703125,0,1.1083984375.1708984375,1.45849609375.5107421875.35009765625.3408203125.52490234375.822265625.52490234375,1.4443359375,0,.564453125-.1748046875,1.03125-.52490234375,1.400390625s-.83642578125.5537109375-1.45849609375.5537109375c-.58349609375,0-1.05029296875-.1845703125-1.400390625-.5537109375s-.525390625-.8359375-.525390625-1.400390625Z" fill="#7b2900"/>
          <path d="M1005.985351562496362,887.0859375h-3.9384765625v6.3603515625h-2.30517578125v-6.3603515625h-9.4228515625v-1.69140625l9.77783203125-12.3701171875h1.9501953125v12.13671875h3.9384765625v1.9248046875ZM999.741699218746362,876.6708984375l-6.73876953125,8.490234375h6.73876953125v-8.490234375Z" fill="#7b2900"/>
          <path d="M1021.125976562496362,878.1884765625c0,1.7890625-.84912109375,3.783203125-2.5458984375,5.98046875-1.69775390625,2.1982421875-4.0673828125,4.5908203125-7.11083984375,7.1767578125h10.29833984375v2.1005859375h-12.982421875v-2.1005859375c.36962890625-.349609375.87548828125-.806640625,1.51708984375-1.37109375.64208984375-.5634765625,1.33203125-1.19140625,2.0712890625-1.8818359375s1.49267578125-1.43359375,2.26123046875-2.2314453125c.76806640625-.7978515625,1.46337890625-1.6142578125,2.0859375-2.451171875.6220703125-.8359375,1.12744140625-1.671875,1.51708984375-2.5087890625.388671875-.8359375.58349609375-1.6435546875.58349609375-2.4208984375,0-1.1669921875-.306640625-2.0859375-.9189453125-2.7568359375-.61279296875-.671875-1.53173828125-1.0068359375-2.75732421875-1.0068359375-1.05029296875,0-1.935546875.1162109375-2.65478515625.349609375-.7197265625.2333984375-1.37109375.57421875-1.95458984375,1.021484375l-.99169921875-1.6044921875c.876953125-.6220703125,1.80810546875-1.0791015625,2.79296875-1.37109375.984375-.2919921875,2.06201171875-.4375,3.23193359375-.4375,1.83251953125,0,3.216796875.49609375,4.15283203125,1.4873046875.93603515625.9921875,1.404296875,2.333984375,1.404296875,4.0263671875Z" fill="#7b2900"/>
          <path d="M1038.601562499996362,878.1884765625c0,1.7890625-.849609375,3.783203125-2.5458984375,5.98046875-1.6982421875,2.1982421875-4.0673828125,4.5908203125-7.111328125,7.1767578125h10.298828125v2.1005859375h-12.982421875v-2.1005859375c.369140625-.349609375.875-.806640625,1.5166015625-1.37109375.642578125-.5634765625,1.33203125-1.19140625,2.0712890625-1.8818359375s1.4931640625-1.43359375,2.26171875-2.2314453125c.767578125-.7978515625,1.462890625-1.6142578125,2.0859375-2.451171875.6220703125-.8359375,1.126953125-1.671875,1.5166015625-2.5087890625.388671875-.8359375.583984375-1.6435546875.583984375-2.4208984375,0-1.1669921875-.306640625-2.0859375-.9189453125-2.7568359375-.61328125-.671875-1.5322265625-1.0068359375-2.7578125-1.0068359375-1.0498046875,0-1.935546875.1162109375-2.654296875.349609375-.7197265625.2333984375-1.37109375.57421875-1.955078125,1.021484375l-.9912109375-1.6044921875c.876953125-.6220703125,1.8076171875-1.0791015625,2.79296875-1.37109375.984375-.2919921875,2.0615234375-.4375,3.2314453125-.4375,1.8330078125,0,3.216796875.49609375,4.1533203125,1.4873046875.935546875.9921875,1.404296875,2.333984375,1.404296875,4.0263671875Z" fill="#7b2900"/>
          <path d="M1045.222656249996362,883.96484375h9.9775390625v2.1591796875h-9.9775390625v-2.1591796875Z" fill="#7b2900"/>
          <path d="M1062.639648437496362,891.345703125h4.580078125v-15.345703125l-4.66796875,3.267578125-1.1376953125-1.6630859375,6.41796875-4.580078125h1.6337890625v18.3212890625h4.4931640625v2.1005859375h-11.3193359375v-2.1005859375Z" fill="#7b2900"/>
          <path d="M1093.359374999996362,887.0859375h-3.9384765625v6.3603515625h-2.3056640625v-6.3603515625h-9.4228515625v-1.69140625l9.7783203125-12.3701171875h1.9501953125v12.13671875h3.9384765625v1.9248046875ZM1087.115234374996362,876.6708984375l-6.73828125,8.490234375h6.73828125v-8.490234375Z" fill="#7b2900"/>
          <path d="M1101.119140624996362,891.75390625c.77734375,0,1.4921875-.1015625,2.14453125-.3046875.6513671875-.203125,1.2197265625-.4892578125,1.7060546875-.857421875s.865234375-.814453125,1.1376953125-1.337890625c.2724609375-.5224609375.4091796875-1.1044921875.4091796875-1.7431640625,0-1.3369140625-.4716796875-2.2919921875-1.4150390625-2.86328125-.943359375-.572265625-2.212890625-.857421875-3.8076171875-.857421875h-1.8671875v-1.400390625l5.7763671875-7.2646484375h-8.751953125v-2.1005859375h11.552734375v2.1005859375l-5.7763671875,6.7392578125h.4697265625c.8984375,0,1.71875.126953125,2.4609375.37890625.7421875.2529296875,1.38671875.61328125,1.93359375,1.080078125s.9716796875,1.03125,1.2744140625,1.69140625c.302734375.662109375.455078125,1.4111328125.455078125,2.2470703125,0,1.0498046875-.205078125,1.9833984375-.6142578125,2.80078125-.4091796875.81640625-.96484375,1.501953125-1.6669921875,2.056640625-.7021484375.5537109375-1.525390625.97265625-2.470703125,1.25390625-.9462890625.2822265625-1.955078125.4228515625-3.0263671875.4228515625-.9951171875,0-1.857421875-.07421875-2.5888671875-.2216796875s-1.3984375-.330078125-2.0029296875-.546875l.583984375-2.060546875c.5048828125.2333984375,1.0986328125.4228515625,1.779296875.568359375.6806640625.146484375,1.4482421875.21875,2.3046875.21875Z" fill="#7b2900"/>
          <path d="M1112.962890624996362,883.2353515625c0-1.65234375.146484375-3.1357421875.4384765625-4.44921875.29296875-1.3125.7314453125-2.4208984375,1.3154296875-3.3251953125.5849609375-.904296875,1.3251953125-1.5947265625,2.22265625-2.0712890625.8955078125-.4765625,1.9580078125-.71484375,3.185546875-.71484375,1.3056640625,0,2.412109375.2333984375,3.318359375.7001953125s1.6416015625,1.1474609375,2.20703125,2.0419921875.974609375,1.998046875,1.2275390625,3.3115234375c.25390625,1.3125.380859375,2.814453125.380859375,4.5068359375,0,1.6533203125-.146484375,3.13671875-.4384765625,4.44921875-.29296875,1.3125-.7314453125,2.4208984375-1.31640625,3.326171875-.583984375.904296875-1.3251953125,1.5947265625-2.2216796875,2.0712890625-.896484375.4755859375-1.9580078125.7138671875-3.185546875.7138671875-1.287109375,0-2.3828125-.2578125-3.2890625-.7724609375-.90625-.515625-1.6474609375-1.240234375-2.2216796875-2.173828125-.5751953125-.93359375-.9892578125-2.046875-1.2431640625-3.33984375-.2529296875-1.2939453125-.3798828125-2.7177734375-.3798828125-4.2744140625ZM1115.384765624996362,883.2353515625c0,.486328125.0146484375.953125.0439453125,1.400390625s.0625.8857421875.1015625,1.3125l8.6943359375-7.876953125c-.3310546875-1.0498046875-.822265625-1.8857421875-1.4736328125-2.5087890625-.6513671875-.6220703125-1.53125-.93359375-2.640625-.93359375-1.73046875,0-2.951171875.71484375-3.6611328125,2.14453125s-1.064453125,3.583984375-1.064453125,6.4619140625ZM1124.836914062496362,883.2353515625c0-1.0302734375-.05859375-2.0126953125-.1748046875-2.9462890625l-8.6650390625,7.90625c.3310546875,1.1083984375.826171875,1.9931640625,1.48828125,2.654296875.6611328125.662109375,1.5263671875.9921875,2.5966796875.9921875,1.7109375,0,2.931640625-.7099609375,3.6611328125-2.1298828125.7294921875-1.4189453125,1.09375-3.578125,1.09375-6.4765625Z" fill="#7b2900"/>
          <path d="M814.987304687496362,913.8671875h4.72607421875v12.078125h1.6044921875l5.74755859375-6.2431640625h2.7421875l-6.447265625,6.9140625,5.3095703125,5.7177734375h1.89599609375v1.955078125h-3.0048828125l-6.2431640625-6.59375h-1.6044921875v6.59375h-2.24609375v-18.466796875h-2.47998046875v-1.955078125Z" fill="#7b2900"/>
          <path d="M834.825195312496362,934.2890625v-1.955078125h5.076171875v-10.6767578125h-5.076171875v-1.955078125h7.380859375v12.6318359375h4.95947265625v1.955078125h-12.34033203125ZM839.084472656246362,915.5595703125c0-.525390625.1748046875-.9775390625.52490234375-1.3564453125.35009765625-.3798828125.79736328125-.5693359375,1.34228515625-.5693359375.5634765625,0,1.03564453125.189453125,1.41455078125.5693359375.37939453125.37890625.56884765625.8310546875.56884765625,1.3564453125,0,.505859375-.189453125.93359375-.56884765625,1.283203125-.37890625.3505859375-.85107421875.525390625-1.41455078125.525390625-.544921875,0-.9921875-.1748046875-1.34228515625-.525390625-.35009765625-.349609375-.52490234375-.77734375-.52490234375-1.283203125Z" fill="#7b2900"/>
          <path d="M851.950195312496362,924.8076171875c0-.1748046875-.00537109375-.4033203125-.0146484375-.685546875-.01025390625-.2822265625-.02490234375-.5732421875-.0439453125-.875-.01953125-.3017578125-.0439453125-.5986328125-.07275390625-.8896484375-.029296875-.2919921875-.0634765625-.544921875-.10205078125-.7587890625h-1.955078125v-1.896484375h3.90966796875l.26220703125,2.36328125h.14599609375c.1943359375-.3310546875.4521484375-.65625.77294921875-.9775390625.3212890625-.3212890625.6953125-.6123046875,1.12353515625-.875.42724609375-.2626953125.904296875-.4716796875,1.42919921875-.626953125.525390625-.15625,1.07958984375-.2333984375,1.6630859375-.2333984375.89453125,0,1.68701171875.0966796875,2.3779296875.291015625.68994140625.1953125,1.263671875.5400390625,1.72119140625,1.0361328125.45654296875.49609375.80224609375,1.1669921875,1.03564453125,2.0126953125s.35009765625,1.9208984375.35009765625,3.2236328125v8.373046875h-2.3046875v-7.9169921875c0-1.6103515625-.26171875-2.8232421875-.78515625-3.638671875-.5234375-.814453125-1.47265625-1.22265625-2.8486328125-1.22265625-.50390625,0-.9931640625.1025390625-1.46826171875.3056640625-.47509765625.2041015625-.90625.470703125-1.29345703125.80078125-.3876953125.330078125-.7265625.712890625-1.017578125,1.1494140625s-.50390625.8974609375-.63916015625,1.3828125v9.1396484375h-2.24609375v-9.4814453125Z" fill="#7b2900"/>
          <path d="M881.998535156246362,935.0185546875c0,.9140625-.17529296875,1.7158203125-.525390625,2.40625s-.8310546875,1.259765625-1.44384765625,1.70703125-1.32763671875.783203125-2.14453125,1.0068359375c-.81640625.22265625-1.70166015625.3349609375-2.65478515625.3349609375-1.1474609375,0-2.14892578125-.1162109375-3.0048828125-.349609375s-1.5947265625-.53515625-2.216796875-.904296875l1.10498046875-2.0712890625c.17431640625.1552734375.40234375.3056640625.68359375.4521484375.28076171875.1455078125.60595703125.28125.97412109375.408203125.3681640625.1259765625.76123046875.228515625,1.17822265625.306640625.41650390625.0771484375.82861328125.1162109375,1.236328125.1162109375.85302734375,0,1.5654296875-.078125,2.13720703125-.2333984375.572265625-.15625,1.03271484375-.3984375,1.3818359375-.7294921875s.60107421875-.7578125.75634765625-1.283203125c.15478515625-.525390625.23291015625-1.1669921875.23291015625-1.92578125v-1.6337890625h-.1162109375c-.4462890625.6416015625-1.0185546875,1.1376953125-1.716796875,1.48828125-.6982421875.349609375-1.6005859375.5244140625-2.70654296875.5244140625-2.2109375,0-3.83544921875-.6171875-4.873046875-1.8525390625-1.0380859375-1.234375-1.556640625-3.1552734375-1.556640625-5.76171875,0-2.4892578125.66064453125-4.37109375,1.9833984375-5.64453125s3.28662109375-1.9111328125,5.8935546875-1.9111328125c1.20556640625,0,2.2314453125.0830078125,3.07763671875.248046875s1.619140625.375,2.3193359375.626953125v14.6748046875ZM875.492187499996362,932.6845703125c1.17822265625,0,2.10498046875-.306640625,2.78173828125-.9189453125.67578125-.6123046875,1.14892578125-1.55078125,1.419921875-2.8154296875v-6.9140625c-.85009765625-.408203125-2.0380859375-.6123046875-3.564453125-.6123046875-1.544921875,0-2.76220703125.45703125-3.65087890625,1.37109375s-1.33251953125,2.314453125-1.33251953125,4.201171875c0,.8359375.07666015625,1.599609375.2314453125,2.2900390625.154296875.6904296875.40087890625,1.2880859375.73876953125,1.7939453125.33837890625.505859375.7822265625.8994140625,1.3330078125,1.181640625s1.2314453125.4228515625,2.04296875.4228515625Z" fill="#7b2900"/>
          <path d="M889.232910156246362,928.4248046875l.14599609375,1.896484375h.2041015625l.40869140625-2.0712890625,2.15869140625-7.96484375h1.92578125l2.0126953125,7.90625.525390625,2.1591796875h.1455078125l.17529296875-1.9833984375,2.15869140625-14.5h2.1591796875l-3.15087890625,20.421875h-2.42138671875l-2.36328125-8.28515625-.29150390625-1.984375h-.087890625l-.32080078125,2.013671875-2.36279296875,8.255859375h-2.45068359375l-3.18017578125-20.421875h2.3046875l2.3046875,14.5576171875Z" fill="#7b2900"/>
          <path d="M903.323730468746362,926.99609375c0-2.353515625.6123046875-4.2158203125,1.837890625-5.5869140625,1.22509765625-1.37109375,2.9755859375-2.056640625,5.2509765625-2.056640625,1.2255859375,0,2.2802734375.19921875,3.16552734375.59765625.884765625.3984375,1.619140625.9384765625,2.20263671875,1.619140625s1.01611328125,1.48828125,1.29833984375,2.4208984375c.28173828125.93359375.4228515625,1.935546875.4228515625,3.005859375,0,1.166015625-.15576171875,2.2216796875-.466796875,3.1650390625s-.7685546875,1.74609375-1.37109375,2.40625c-.60302734375.662109375-1.34716796875,1.1728515625-2.23193359375,1.5322265625-.88525390625.359375-1.8916015625.5390625-3.01953125.5390625-1.2060546875,0-2.25634765625-.19921875-3.150390625-.59765625-.89501953125-.3984375-1.6337890625-.9384765625-2.21728515625-1.619140625s-1.0166015625-1.48828125-1.29833984375-2.4208984375c-.2822265625-.93359375-.4228515625-1.935546875-.4228515625-3.0048828125ZM905.745117187496362,926.99609375c0,.6806640625.08203125,1.361328125.2470703125,2.0419921875s.431640625,1.29296875.7998046875,1.837890625.84814453125.982421875,1.439453125,1.3125c.59130859375.3310546875,1.3134765625.49609375,2.1669921875.49609375,1.55029296875,0,2.71875-.4814453125,3.50439453125-1.4443359375.78466796875-.962890625,1.177734375-2.3779296875,1.177734375-4.244140625,0-.7001953125-.08251953125-1.38671875-.24755859375-2.0576171875s-.43603515625-1.2783203125-.81396484375-1.8232421875c-.37841796875-.5439453125-.86279296875-.9814453125-1.4541015625-1.3125-.591796875-.330078125-1.31396484375-.49609375-2.16650390625-.49609375-1.55126953125,0-2.71484375.4765625-3.490234375,1.4296875-.77587890625.953125-1.1630859375,2.373046875-1.1630859375,4.259765625Z" fill="#7b2900"/>
          <path d="M920.798828124996362,926.99609375c0-2.353515625.6123046875-4.2158203125,1.837890625-5.5869140625,1.22509765625-1.37109375,2.9755859375-2.056640625,5.2509765625-2.056640625,1.2255859375,0,2.2802734375.19921875,3.16552734375.59765625.884765625.3984375,1.619140625.9384765625,2.20263671875,1.619140625s1.01611328125,1.48828125,1.29833984375,2.4208984375c.28173828125.93359375.4228515625,1.935546875.4228515625,3.005859375,0,1.166015625-.15576171875,2.2216796875-.466796875,3.1650390625s-.7685546875,1.74609375-1.37109375,2.40625c-.60302734375.662109375-1.34716796875,1.1728515625-2.23193359375,1.5322265625-.88525390625.359375-1.8916015625.5390625-3.01953125.5390625-1.2060546875,0-2.25634765625-.19921875-3.150390625-.59765625-.89501953125-.3984375-1.6337890625-.9384765625-2.21728515625-1.619140625s-1.0166015625-1.48828125-1.29833984375-2.4208984375c-.2822265625-.93359375-.4228515625-1.935546875-.4228515625-3.0048828125ZM923.220214843746362,926.99609375c0,.6806640625.08203125,1.361328125.2470703125,2.0419921875s.431640625,1.29296875.7998046875,1.837890625.84814453125.982421875,1.439453125,1.3125c.59130859375.3310546875,1.3134765625.49609375,2.1669921875.49609375,1.55029296875,0,2.71875-.4814453125,3.50439453125-1.4443359375.78466796875-.962890625,1.177734375-2.3779296875,1.177734375-4.244140625,0-.7001953125-.08251953125-1.38671875-.24755859375-2.0576171875s-.43603515625-1.2783203125-.81396484375-1.8232421875c-.37841796875-.5439453125-.86279296875-.9814453125-1.4541015625-1.3125-.591796875-.330078125-1.31396484375-.49609375-2.16650390625-.49609375-1.55126953125,0-2.71484375.4765625-3.490234375,1.4296875-.77587890625.953125-1.1630859375,2.373046875-1.1630859375,4.259765625Z" fill="#7b2900"/>
          <path d="M946.762695312496362,913.8671875h4.75537109375v15.43359375c0,.1748046875.009765625.3935546875.029296875.65625.01904296875.2626953125.0439453125.5390625.07275390625.8310546875.029296875.2919921875.06298828125.5791015625.10205078125.8603515625.0390625.2822265625.07763671875.5302734375.11669921875.744140625h1.955078125v1.896484375h-3.90771484375l-.29345703125-2.24609375h-.1162109375c-.42724609375.7392578125-1.0625,1.3564453125-1.90625,1.8525390625s-1.818359375.7431640625-2.92431640625.7431640625c-2.19287109375,0-3.8076171875-.6171875-4.84521484375-1.8525390625-1.0380859375-1.234375-1.556640625-3.1552734375-1.556640625-5.76171875,0-1.224609375.17431640625-2.30859375.52392578125-3.2529296875.34912109375-.9423828125.84814453125-1.73046875,1.498046875-2.3623046875s1.43115234375-1.11328125,2.3427734375-1.4443359375,1.9296875-.49609375,3.0546875-.49609375c.4072265625,0,.77099609375.009765625,1.0908203125.029296875.3203125.01953125.6162109375.048828125.8876953125.087890625.27197265625.0390625.52880859375.091796875.771484375.16015625.2421875.068359375.5087890625.1416015625.7998046875.21875v-4.142578125h-2.45068359375v-1.955078125ZM945.026367187496362,932.6845703125c1.1826171875,0,2.11279296875-.306640625,2.79150390625-.9189453125.67822265625-.6123046875,1.1435546875-1.53125,1.3955078125-2.7568359375v-6.7685546875c-.4267578125-.2919921875-.90625-.505859375-1.43896484375-.6416015625-.533203125-.1357421875-1.23583984375-.2041015625-2.10791015625-.2041015625-1.55078125,0-2.77197265625.4521484375-3.66357421875,1.3564453125s-1.33740234375,2.3291015625-1.33740234375,4.2734375c0,.7978515625.072265625,1.5419921875.2177734375,2.232421875s.38818359375,1.2880859375.72705078125,1.7939453125c.33935546875.505859375.78955078125.904296875,1.3515625,1.1962890625s1.25048828125.4375,2.064453125.4375Z" fill="#7b2900"/>
          <path d="M959.131835937496362,928.4248046875l.14599609375,1.896484375h.2041015625l.40869140625-2.0712890625,2.15869140625-7.96484375h1.92578125l2.0126953125,7.90625.525390625,2.1591796875h.1455078125l.17529296875-1.9833984375,2.15869140625-14.5h2.1591796875l-3.15087890625,20.421875h-2.42138671875l-2.36328125-8.28515625-.29150390625-1.984375h-.087890625l-.32080078125,2.013671875-2.36279296875,8.255859375h-2.45068359375l-3.18017578125-20.421875h2.3046875l2.3046875,14.5576171875Z" fill="#7b2900"/>
          <path d="M973.222656249996362,926.99609375c0-2.353515625.6123046875-4.2158203125,1.837890625-5.5869140625,1.22509765625-1.37109375,2.9755859375-2.056640625,5.2509765625-2.056640625,1.2255859375,0,2.2802734375.19921875,3.16552734375.59765625.884765625.3984375,1.619140625.9384765625,2.20263671875,1.619140625s1.01611328125,1.48828125,1.29833984375,2.4208984375c.28173828125.93359375.4228515625,1.935546875.4228515625,3.005859375,0,1.166015625-.15576171875,2.2216796875-.466796875,3.1650390625s-.7685546875,1.74609375-1.37109375,2.40625c-.60302734375.662109375-1.34716796875,1.1728515625-2.23193359375,1.5322265625-.88525390625.359375-1.8916015625.5390625-3.01953125.5390625-1.2060546875,0-2.25634765625-.19921875-3.150390625-.59765625-.89501953125-.3984375-1.6337890625-.9384765625-2.21728515625-1.619140625s-1.0166015625-1.48828125-1.29833984375-2.4208984375c-.2822265625-.93359375-.4228515625-1.935546875-.4228515625-3.0048828125ZM975.644042968746362,926.99609375c0,.6806640625.08203125,1.361328125.2470703125,2.0419921875s.431640625,1.29296875.7998046875,1.837890625.84814453125.982421875,1.439453125,1.3125c.59130859375.3310546875,1.3134765625.49609375,2.1669921875.49609375,1.55029296875,0,2.71875-.4814453125,3.50439453125-1.4443359375.78466796875-.962890625,1.177734375-2.3779296875,1.177734375-4.244140625,0-.7001953125-.08251953125-1.38671875-.24755859375-2.0576171875s-.43603515625-1.2783203125-.81396484375-1.8232421875c-.37841796875-.5439453125-.86279296875-.9814453125-1.4541015625-1.3125-.591796875-.330078125-1.31396484375-.49609375-2.16650390625-.49609375-1.55126953125,0-2.71484375.4765625-3.490234375,1.4296875-.77587890625.953125-1.1630859375,2.373046875-1.1630859375,4.259765625Z" fill="#7b2900"/>
          <path d="M990.959960937496362,934.2890625v-1.955078125h3.9384765625v-10.6767578125h-3.9384765625v-1.955078125h5.45556640625l.466796875,1.896484375h.14599609375c.6611328125-.6025390625,1.400390625-1.1181640625,2.21728515625-1.5458984375s1.7890625-.642578125,2.91748046875-.642578125c.66064453125,0,1.19091796875.126953125,1.58984375.3798828125.3984375.2529296875.70947265625.6220703125.93359375,1.1083984375.22314453125.486328125.3740234375,1.0751953125.4521484375,1.7646484375.07763671875.6904296875.11669921875,1.4736328125.11669921875,2.3486328125l-2.04248046875.029296875c0-1.234375-.12158203125-2.1416015625-.3642578125-2.7197265625-.24365234375-.5791015625-.685546875-.869140625-1.32763671875-.869140625-.60302734375,0-1.14794921875.087890625-1.6337890625.2626953125-.486328125.1748046875-.9091796875.3876953125-1.26904296875.6396484375s-.66650390625.50390625-.9189453125.7568359375c-.2529296875.251953125-.4375.4658203125-.55419921875.6396484375v8.5830078125h5.6015625v1.955078125h-11.78662109375Z" fill="#7b2900"/>
          <path d="M1007.209472656246362,913.8671875h4.72607421875v12.078125h1.6044921875l5.74755859375-6.2431640625h2.7421875l-6.447265625,6.9140625,5.3095703125,5.7177734375h1.89599609375v1.955078125h-3.0048828125l-6.2431640625-6.59375h-1.6044921875v6.59375h-2.24609375v-18.466796875h-2.47998046875v-1.955078125Z" fill="#7b2900"/>
          <path d="M1039.416992187496362,932.451171875c-.349609375.3115234375-.763671875.6025390625-1.240234375.875s-.99609375.505859375-1.560546875.7001953125-1.15234375.3447265625-1.7646484375.4521484375c-.61328125.1064453125-1.23046875.16015625-1.8525390625.16015625-1.1669921875,0-2.1982421875-.1796875-3.0927734375-.5390625s-1.6435546875-.875-2.24609375-1.546875c-.603515625-.6708984375-1.060546875-1.47265625-1.37109375-2.40625-.3115234375-.93359375-.466796875-1.984375-.466796875-3.150390625,0-1.2255859375.169921875-2.314453125.5107421875-3.267578125.33984375-.953125.8310546875-1.7509765625,1.47265625-2.392578125s1.419921875-1.1328125,2.333984375-1.4736328125c.9140625-.33984375,1.935546875-.509765625,3.0634765625-.509765625.81640625,0,1.6240234375.1064453125,2.4208984375.3203125.7978515625.21484375,1.5029296875.6181640625,2.115234375,1.2109375.61328125.59375,1.083984375,1.41015625,1.4150390625,2.4501953125.3310546875,1.041015625.447265625,2.3876953125.3505859375,4.041015625h-11.26171875c0,1.75.470703125,3.05859375,1.412109375,3.923828125.9404296875.865234375,2.1962890625,1.2978515625,3.767578125,1.2978515625.5234375,0,1.0419921875-.0625,1.556640625-.189453125.513671875-.1259765625,1.00390625-.27734375,1.4697265625-.4521484375.46484375-.1748046875.876953125-.369140625,1.236328125-.5830078125s.634765625-.4091796875.8291015625-.583984375l.90234375,1.6630859375ZM1033.274414062496362,921.27734375c-.6396484375,0-1.24609375.068359375-1.8173828125.2041015625-.572265625.13671875-1.076171875.365234375-1.5126953125.685546875-.435546875.3212890625-.794921875.7392578125-1.0751953125,1.2548828125-.28125.515625-.4609375,1.15234375-.5380859375,1.9111328125h9.0439453125c-.09765625-1.2841796875-.5087890625-2.2802734375-1.236328125-2.990234375s-1.681640625-1.0654296875-2.8642578125-1.0654296875Z" fill="#7b2900"/>
          <path d="M1043.383789062496362,934.2890625v-1.955078125h3.9384765625v-10.6767578125h-3.9384765625v-1.955078125h5.4560546875l.466796875,1.896484375h.1455078125c.6611328125-.6025390625,1.400390625-1.1181640625,2.2177734375-1.5458984375.81640625-.427734375,1.7890625-.642578125,2.9169921875-.642578125.6611328125,0,1.19140625.126953125,1.58984375.3798828125s.7099609375.6220703125.93359375,1.1083984375.3740234375,1.0751953125.4521484375,1.7646484375c.078125.6904296875.1171875,1.4736328125.1171875,2.3486328125l-2.04296875.029296875c0-1.234375-.12109375-2.1416015625-.3642578125-2.7197265625-.2431640625-.5791015625-.685546875-.869140625-1.3271484375-.869140625-.603515625,0-1.1484375.087890625-1.6337890625.2626953125-.486328125.1748046875-.9091796875.3876953125-1.26953125.6396484375-.359375.251953125-.666015625.50390625-.9189453125.7568359375-.2529296875.251953125-.4375.4658203125-.5537109375.6396484375v8.5830078125h5.6015625v1.955078125h-11.787109375Z" fill="#7b2900"/>
          <path d="M1074.308593749996362,924.7490234375c0,.7392578125-.01953125,1.52734375-.05859375,2.36328125-.0390625.8369140625-.068359375,1.6728515625-.087890625,2.5087890625,0,.97265625.05859375,1.896484375.17578125,2.771484375h1.9541015625v1.896484375h-3.8798828125l-.2626953125-2.1884765625h-.1455078125c-.1171875.17578125-.2626953125.3994140625-.4375.671875-.17578125.2724609375-.4140625.5390625-.71484375.8017578125-.3017578125.2626953125-.6962890625.4912109375-1.181640625.685546875-.486328125.1943359375-1.099609375.2919921875-1.837890625.2919921875-.623046875,0-1.201171875-.09765625-1.736328125-.2919921875s-.9970703125-.4716796875-1.3857421875-.8310546875c-.388671875-.3603515625-.6953125-.79296875-.9189453125-1.298828125-.2236328125-.5048828125-.3349609375-1.0791015625-.3349609375-1.720703125,0-.9921875.2138671875-1.818359375.6416015625-2.48046875.427734375-.66015625,1.021484375-1.166015625,1.779296875-1.5166015625.7587890625-.349609375,1.658203125-.5546875,2.69921875-.6123046875,1.0400390625-.05859375,2.1728515625.01953125,3.3984375.2333984375.05859375-.97265625.0478515625-1.8134765625-.029296875-2.5234375-.078125-.7099609375-.2529296875-1.2939453125-.525390625-1.7509765625s-.65625-.796875-1.15234375-1.0205078125-1.1328125-.3359375-1.91015625-.3359375c-.8173828125,0-1.6298828125.2041015625-2.4365234375.6123046875-.8076171875.4091796875-1.5224609375,1.0068359375-2.14453125,1.794921875-.6220703125.787109375-1.1279296875,1.75-1.5166015625,2.8876953125-.3896484375,1.1376953125-.583984375,2.4267578125-.583984375,3.865234375,0,1.537109375.208984375,2.869140625.6279296875,3.9970703125.41796875,1.1279296875.9765625,2.0615234375,1.6767578125,2.80078125s1.5126953125,1.2880859375,2.4365234375,1.6484375c.923828125.359375,1.900390625.5400390625,2.931640625.5400390625.427734375,0,.8896484375-.0537109375,1.3857421875-.1611328125.49609375-.1064453125.982421875-.2578125,1.458984375-.4521484375s.923828125-.4326171875,1.341796875-.71484375.783203125-.59765625,1.09375-.9482421875l1.1962890625,1.546875c-.81640625.875-1.8037109375,1.541015625-2.9609375,1.998046875s-2.4072265625.685546875-3.7490234375.685546875c-1.1279296875,0-2.255859375-.189453125-3.3837890625-.568359375-1.1279296875-.3798828125-2.1494140625-.9921875-3.0634765625-1.837890625-.9140625-.8466796875-1.658203125-1.955078125-2.2314453125-3.326171875-.57421875-1.37109375-.861328125-3.048828125-.861328125-5.0322265625,0-1.92578125.2724609375-3.59375.8173828125-5.00390625.5439453125-1.4091796875,1.2548828125-2.58203125,2.1298828125-3.515625s1.8671875-1.6279296875,2.9755859375-2.0859375c1.1083984375-.4560546875,2.2265625-.685546875,3.3544921875-.685546875,1.01171875,0,1.8671875.126953125,2.5673828125.3798828125s1.2646484375.63671875,1.6923828125,1.15234375.734375,1.1669921875.9189453125,1.9541015625c.1845703125.7880859375.27734375,1.7265625.27734375,2.8154296875ZM1068.432617187496362,932.5966796875c.5419921875,0,1.015625-.0869140625,1.421875-.2626953125.4072265625-.1748046875.74609375-.3984375,1.0166015625-.6708984375.2705078125-.271484375.4931640625-.568359375.66796875-.8896484375.173828125-.3203125.3193359375-.626953125.435546875-.9189453125v-2.0419921875c-.91015625-.1748046875-1.7373046875-.2626953125-2.482421875-.2626953125s-1.388671875.0927734375-1.9306640625.27734375-.958984375.4716796875-1.2490234375.8603515625c-.2900390625.3896484375-.435546875.89453125-.435546875,1.517578125,0,.6416015625.2080078125,1.201171875.6240234375,1.6767578125.416015625.4775390625,1.060546875.71484375,1.931640625.71484375Z" fill="#7b2900"/>
          <path d="M1091.695312499996362,935.0185546875c0,.9140625-.1748046875,1.7158203125-.525390625,2.40625-.349609375.6904296875-.8310546875,1.259765625-1.443359375,1.70703125-.61328125.447265625-1.328125.783203125-2.14453125,1.0068359375-.81640625.22265625-1.7021484375.3349609375-2.6552734375.3349609375-1.1474609375,0-2.1484375-.1162109375-3.0048828125-.349609375-.85546875-.2333984375-1.5947265625-.53515625-2.216796875-.904296875l1.10546875-2.0712890625c.173828125.1552734375.40234375.3056640625.68359375.4521484375.2802734375.1455078125.60546875.28125.9736328125.408203125.3681640625.1259765625.76171875.228515625,1.1787109375.306640625.416015625.0771484375.828125.1162109375,1.236328125.1162109375.8525390625,0,1.5654296875-.078125,2.13671875-.2333984375.572265625-.15625,1.033203125-.3984375,1.3818359375-.7294921875.349609375-.3310546875.6015625-.7578125.7568359375-1.283203125.154296875-.525390625.232421875-1.1669921875.232421875-1.92578125v-1.6337890625h-.1162109375c-.4462890625.6416015625-1.0185546875,1.1376953125-1.716796875,1.48828125-.6982421875.349609375-1.6005859375.5244140625-2.7060546875.5244140625-2.2109375,0-3.8359375-.6171875-4.873046875-1.8525390625-1.0380859375-1.234375-1.556640625-3.1552734375-1.556640625-5.76171875,0-2.4892578125.66015625-4.37109375,1.9833984375-5.64453125,1.322265625-1.2734375,3.2861328125-1.9111328125,5.8935546875-1.9111328125,1.205078125,0,2.2314453125.0830078125,3.0771484375.248046875.8466796875.1650390625,1.619140625.375,2.3193359375.626953125v14.6748046875ZM1085.189453124996362,932.6845703125c1.177734375,0,2.1044921875-.306640625,2.78125-.9189453125.67578125-.6123046875,1.1494140625-1.55078125,1.419921875-2.8154296875v-6.9140625c-.849609375-.408203125-2.0380859375-.6123046875-3.564453125-.6123046875-1.544921875,0-2.76171875.45703125-3.650390625,1.37109375s-1.3330078125,2.314453125-1.3330078125,4.201171875c0,.8359375.0771484375,1.599609375.2314453125,2.2900390625s.4013671875,1.2880859375.7392578125,1.7939453125.7822265625.8994140625,1.3330078125,1.181640625,1.2314453125.4228515625,2.04296875.4228515625Z" fill="#7b2900"/>
          <path d="M1101.526367187496362,934.2890625v-9.71484375c0-.408203125-.0146484375-.802734375-.0439453125-1.181640625-.0283203125-.37890625-.0966796875-.7197265625-.2041015625-1.021484375-.1064453125-.30078125-.2626953125-.5390625-.466796875-.7138671875-.2041015625-.17578125-.4716796875-.2626953125-.8017578125-.2626953125-.662109375,0-1.220703125.2724609375-1.677734375.81640625-.45703125.544921875-.802734375,1.2255859375-1.03515625,2.0419921875v10.0361328125h-2.2177734375v-14.5869140625h1.517578125l.4375,1.779296875h.1162109375c.1943359375-.291015625.3837890625-.568359375.5693359375-.8310546875.1845703125-.2626953125.3984375-.4912109375.6416015625-.685546875s.529296875-.3447265625.8603515625-.4521484375c.3310546875-.1064453125.7490234375-.16015625,1.2548828125-.16015625.2919921875,0,.5927734375.04296875.904296875.130859375.310546875.087890625.59765625.2236328125.8603515625.408203125.2626953125.185546875.4912109375.43359375.685546875.744140625.1943359375.3115234375.3212890625.6904296875.3798828125,1.1376953125.4462890625-.7587890625.947265625-1.3515625,1.501953125-1.779296875s1.3173828125-.6416015625,2.2900390625-.6416015625c.6416015625,0,1.162109375.1064453125,1.560546875.3203125.3984375.21484375.7099609375.5205078125.93359375.9189453125.2236328125.3994140625.3798828125.875.466796875,1.4296875.087890625.5546875.1318359375,1.171875.1318359375,1.8525390625v10.4150390625h-2.2177734375v-9.9189453125c0-.408203125-.01953125-.7919921875-.0576171875-1.15234375-.0400390625-.359375-.1123046875-.67578125-.21875-.9482421875-.107421875-.2724609375-.2529296875-.486328125-.4384765625-.6416015625-.1845703125-.1552734375-.4326171875-.2333984375-.7431640625-.2333984375-.681640625,0-1.2548828125.2724609375-1.7216796875.81640625-.466796875.544921875-.81640625,1.3232421875-1.0498046875,2.333984375v9.744140625h-2.2177734375Z" fill="#7b2900"/>
          <path d="M1114.508789062496362,920.83984375c.8359375-.4853515625,1.779296875-.8359375,2.8291015625-1.0498046875,1.05078125-.2138671875,2.0810546875-.3212890625,3.0927734375-.3212890625.9921875,0,1.8037109375.15625,2.4365234375.466796875.630859375.3115234375,1.126953125.71484375,1.4873046875,1.2109375.359375.49609375.6025390625,1.060546875.7294921875,1.69140625.1259765625.6328125.189453125,1.26953125.189453125,1.9111328125,0,.7392578125-.01953125,1.52734375-.05859375,2.36328125-.0390625.8369140625-.068359375,1.6728515625-.0869140625,2.5087890625,0,.97265625.05859375,1.896484375.1748046875,2.771484375h1.955078125v1.896484375h-3.853515625l-.2607421875-2.1884765625h-.146484375c-.1162109375.17578125-.2919921875.3994140625-.5263671875.671875s-.5419921875.5390625-.921875.8017578125-.84375.4912109375-1.3896484375.685546875-1.1904296875.2919921875-1.931640625.2919921875c-1.443359375,0-2.5849609375-.369140625-3.423828125-1.1083984375s-1.2578125-1.7509765625-1.2578125-3.0341796875c0-.9921875.21875-1.818359375.658203125-2.48046875.4384765625-.66015625,1.0673828125-1.166015625,1.8876953125-1.5166015625.8193359375-.349609375,1.8095703125-.5546875,2.9697265625-.6123046875,1.1611328125-.05859375,2.462890625.01953125,3.9072265625.2333984375.09765625-.89453125.111328125-1.638671875.0439453125-2.232421875-.068359375-.5927734375-.224609375-1.064453125-.4677734375-1.4150390625-.2451171875-.349609375-.5859375-.59765625-1.025390625-.7431640625-.439453125-.146484375-.98046875-.21875-1.6240234375-.21875-.87890625,0-1.7177734375.12109375-2.517578125.3642578125-.80078125.2431640625-1.5126953125.4912109375-2.1376953125.744140625l-.7314453125-1.6923828125ZM1118.826171874996362,932.5966796875c.5439453125,0,1.0498046875-.0869140625,1.5166015625-.2626953125.466796875-.1748046875.8759765625-.3984375,1.2255859375-.6708984375.3505859375-.271484375.6416015625-.568359375.875-.8896484375.2333984375-.3203125.4091796875-.626953125.525390625-.9189453125v-2.0419921875c-1.01171875-.1748046875-1.9453125-.2626953125-2.80078125-.2626953125s-1.5947265625.0927734375-2.216796875.27734375c-.623046875.1845703125-1.1083984375.4716796875-1.458984375.8603515625-.349609375.3896484375-.525390625.89453125-.525390625,1.517578125,0,.6416015625.21875,1.201171875.65625,1.6767578125.4384765625.4775390625,1.171875.71484375,2.203125.71484375Z" fill="#7b2900"/>
          <path d="M1131.896484374996362,934.2890625v-1.955078125h5.076171875v-10.6767578125h-5.076171875v-1.955078125h7.380859375v12.6318359375h4.958984375v1.955078125h-12.33984375ZM1136.155273437496362,915.5595703125c0-.525390625.1748046875-.9775390625.525390625-1.3564453125.349609375-.3798828125.796875-.5693359375,1.341796875-.5693359375.5634765625,0,1.0361328125.189453125,1.4150390625.5693359375.37890625.37890625.568359375.8310546875.568359375,1.3564453125,0,.505859375-.189453125.93359375-.568359375,1.283203125-.37890625.3505859375-.8515625.525390625-1.4150390625.525390625-.544921875,0-.9921875-.1748046875-1.341796875-.525390625-.3505859375-.349609375-.525390625-.77734375-.525390625-1.283203125Z" fill="#7b2900"/>
          <path d="M1149.779296874996362,913.8671875h4.8720703125v15.5205078125c0,1.1865234375.19921875,2.0234375.59765625,2.5087890625.3984375.486328125.9873046875.7294921875,1.7646484375.7294921875.544921875,0,1.0654296875-.0966796875,1.5615234375-.2919921875.49609375-.193359375,1.044921875-.5244140625,1.6484375-.9912109375l1.0498046875,1.6044921875c-.3125.2724609375-.6533203125.515625-1.0244140625.7294921875s-.7509765625.3935546875-1.1416015625.5390625c-.390625.146484375-.7802734375.2578125-1.1708984375.3359375-.3896484375.0771484375-.7509765625.1162109375-1.0830078125.1162109375-.7216796875,0-1.365234375-.091796875-1.931640625-.2763671875s-1.0390625-.4814453125-1.419921875-.890625c-.3798828125-.408203125-.66796875-.9482421875-.86328125-1.619140625-.1943359375-.6708984375-.2919921875-1.501953125-.2919921875-2.494140625v-13.5654296875h-2.5673828125v-1.955078125Z" fill="#7b2900"/>
          <path d="M1170.579101562496362,932.6845703125c0-.6220703125.17578125-1.103515625.525390625-1.4443359375.3505859375-.33984375.8173828125-.5107421875,1.400390625-.5107421875.6220703125,0,1.1083984375.1708984375,1.458984375.5107421875.349609375.3408203125.5244140625.822265625.5244140625,1.4443359375,0,.564453125-.1748046875,1.03125-.5244140625,1.400390625-.3505859375.369140625-.8369140625.5537109375-1.458984375.5537109375-.5830078125,0-1.0498046875-.1845703125-1.400390625-.5537109375-.349609375-.369140625-.525390625-.8359375-.525390625-1.400390625Z" fill="#7b2900"/>
          <path d="M1194.063476562496362,921.9482421875c-.447265625-.1552734375-.9287109375-.2861328125-1.443359375-.3935546875-.515625-.1064453125-1.0263671875-.16015625-1.5322265625-.16015625-1.90625,0-3.3251953125.4482421875-4.2587890625,1.345703125-.93359375.896484375-1.400390625,2.3203125-1.400390625,4.26953125,0,.8583984375.1357421875,1.6240234375.408203125,2.296875s.6611328125,1.2431640625,1.1669921875,1.7109375c.505859375.46875,1.11328125.8291015625,1.8232421875,1.0830078125.7099609375.2529296875,1.4921875.3798828125,2.3486328125.3798828125.9140625,0,1.8037109375-.158203125,2.6689453125-.474609375s1.58984375-.732421875,2.173828125-1.2470703125l1.021484375,1.6923828125c-.2724609375.2333984375-.61328125.4765625-1.021484375.7294921875s-.8798828125.4912109375-1.4150390625.71484375-1.1279296875.4033203125-1.779296875.5390625c-.65234375.1357421875-1.3564453125.2041015625-2.115234375.2041015625-1.2646484375,0-2.3779296875-.1796875-3.3408203125-.5390625-.9619140625-.359375-1.7646484375-.875-2.40625-1.546875-.6416015625-.6708984375-1.12890625-1.4775390625-1.458984375-2.4208984375-.3310546875-.943359375-.49609375-1.98828125-.49609375-3.1357421875,0-1.2255859375.169921875-2.314453125.5107421875-3.267578125.33984375-.953125.8310546875-1.7509765625,1.4736328125-2.392578125.6416015625-.6416015625,1.4189453125-1.1328125,2.333984375-1.4736328125.9130859375-.33984375,1.9345703125-.509765625,3.0625-.509765625,1.439453125,0,2.611328125.1259765625,3.515625.37890625s1.66796875.53515625,2.291015625.845703125l-.029296875.087890625v4.0546875h-2.1015625v-2.771484375Z" fill="#7b2900"/>
          <path d="M1200.395507812496362,926.99609375c0-2.353515625.6123046875-4.2158203125,1.837890625-5.5869140625s2.9755859375-2.056640625,5.2509765625-2.056640625c1.2255859375,0,2.2802734375.19921875,3.166015625.59765625.884765625.3984375,1.619140625.9384765625,2.2021484375,1.619140625s1.015625,1.48828125,1.2978515625,2.4208984375c.2822265625.93359375.423828125,1.935546875.423828125,3.005859375,0,1.166015625-.15625,2.2216796875-.466796875,3.1650390625-.3115234375.943359375-.7685546875,1.74609375-1.37109375,2.40625-.603515625.662109375-1.34765625,1.1728515625-2.232421875,1.5322265625s-1.8916015625.5390625-3.01953125.5390625c-1.2060546875,0-2.255859375-.19921875-3.150390625-.59765625s-1.6337890625-.9384765625-2.2177734375-1.619140625c-.5830078125-.6806640625-1.0166015625-1.48828125-1.2978515625-2.4208984375-.2822265625-.93359375-.4228515625-1.935546875-.4228515625-3.0048828125ZM1202.816406249996362,926.99609375c0,.6806640625.08203125,1.361328125.2470703125,2.0419921875s.431640625,1.29296875.80078125,1.837890625c.3681640625.544921875.84765625.982421875,1.439453125,1.3125.5908203125.3310546875,1.3125.49609375,2.166015625.49609375,1.55078125,0,2.7197265625-.4814453125,3.5048828125-1.4443359375s1.177734375-2.3779296875,1.177734375-4.244140625c0-.7001953125-.08203125-1.38671875-.2470703125-2.0576171875s-.4365234375-1.2783203125-.814453125-1.8232421875c-.37890625-.5439453125-.86328125-.9814453125-1.4541015625-1.3125-.591796875-.330078125-1.3134765625-.49609375-2.1669921875-.49609375-1.55078125,0-2.7138671875.4765625-3.4892578125,1.4296875-.7763671875.953125-1.1640625,2.373046875-1.1640625,4.259765625Z" fill="#7b2900"/>
          <path d="M1223.850585937496362,934.2890625v-9.71484375c0-.408203125-.0146484375-.802734375-.0439453125-1.181640625s-.09765625-.7197265625-.2041015625-1.021484375c-.107421875-.30078125-.2626953125-.5390625-.466796875-.7138671875-.2041015625-.17578125-.4716796875-.2626953125-.8017578125-.2626953125-.662109375,0-1.2216796875.2724609375-1.677734375.81640625-.45703125.544921875-.802734375,1.2255859375-1.0361328125,2.0419921875v10.0361328125h-2.216796875v-14.5869140625h1.5166015625l.4375,1.779296875h.1171875c.1943359375-.291015625.3837890625-.568359375.568359375-.8310546875s.3984375-.4912109375.642578125-.685546875c.2421875-.1943359375.529296875-.3447265625.8603515625-.4521484375.330078125-.1064453125.748046875-.16015625,1.2548828125-.16015625.291015625,0,.5927734375.04296875.904296875.130859375.310546875.087890625.59765625.2236328125.8603515625.408203125.2626953125.185546875.4912109375.43359375.685546875.744140625.1943359375.3115234375.3212890625.6904296875.37890625,1.1376953125.447265625-.7587890625.9482421875-1.3515625,1.5029296875-1.779296875.5537109375-.427734375,1.3173828125-.6416015625,2.2900390625-.6416015625.6416015625,0,1.162109375.1064453125,1.560546875.3203125.3984375.21484375.7099609375.5205078125.93359375.9189453125.2236328125.3994140625.37890625.875.466796875,1.4296875s.1318359375,1.171875.1318359375,1.8525390625v10.4150390625h-2.2177734375v-9.9189453125c0-.408203125-.01953125-.7919921875-.05859375-1.15234375-.0390625-.359375-.111328125-.67578125-.21875-.9482421875-.1064453125-.2724609375-.2529296875-.486328125-.4375-.6416015625s-.4326171875-.2333984375-.744140625-.2333984375c-.6806640625,0-1.25390625.2724609375-1.720703125.81640625-.466796875.544921875-.8173828125,1.3232421875-1.05078125,2.333984375v9.744140625h-2.216796875Z" fill="#7b2900"/>
        </g>
      </g>
      <g id="y-guides">
        <line x1="1023.999993804746737" y1="557.944921440030157" x2="1023.999993804746737" y2="978.047482899561146" fill="none" stroke="#000" stroke-miterlimit="10" stroke-width="1pt"/>
        <g id="y-guides-2" data-name="y-guides">
          <line x1="1365.333326105546803" y1="347.897437168248871" x2="1365.333326105546803" y2="767.99999862777986" fill="none" stroke="#000" stroke-miterlimit="10" stroke-width="1pt"/>
        </g>
        <!-- Vertical scale animation: scale up 1s, stay 2s, scale down 1s, stay hidden 2s, repeat -->
        <animateTransform attributeName="transform" attributeType="XML" type="scale" values="1 0; 1 1; 1 1; 1 0; 1 0" dur="6s" repeatCount="indefinite" keyTimes="0; 0.167; 0.5; 0.667; 1"/>
      </g>
      <g id="x-guides">
        <line x1="682.666664601570119" y1="767.988649863458704" x2="1365.333329203156609" y2="768.004026493548736" fill="none" stroke="#000" stroke-miterlimit="10" stroke-width="1pt"/>
        <line x1="814.032480899331858" y1="824.006713085949741" x2="1233.967583739446127" y2="824.02995479737001" fill="none" stroke="#000" stroke-miterlimit="10" stroke-width="1pt"/>
        <line x1="814.032480899331858" y1="760.479713170880132" x2="1233.967583739446127" y2="760.502954882300401" fill="none" stroke="#000" stroke-miterlimit="10" stroke-width="1pt"/>
        <line x1="814.032480880486219" y1="832.673011948840212" x2="1233.967583739446127" y2="832.649770237389021" fill="none" stroke="#000" stroke-miterlimit="10" stroke-width="1pt"/>
        <g id="x-guides-2" data-name="x-guides">
          <line x1="1023.999993804746737" y1="557.941165591690151" x2="1706.666664601565572" y2="557.956542221811105" fill="none" stroke="#000" stroke-miterlimit="10" stroke-width="1pt"/>
          <!-- <line x1="1155.365813200125558" y1="613.959228814179369" x2="1575.300916040236189" y2="613.982470525628742" fill="none" stroke="#000" stroke-miterlimit="10" stroke-width="1pt"/> -->
          <line x1="1155.365813200125558" y1="550.445013391508837" x2="1575.300916040236189" y2="550.468255102929106" fill="none" stroke="#000" stroke-miterlimit="10" stroke-width="1pt"/>
          <!-- <line x1="1155.365813200125558" y1="493.279503779431252" x2="1575.300916040236189" y2="493.302745490858797" fill="none" stroke="#000" stroke-miterlimit="10" stroke-width="1pt"/> -->
          <!-- <line x1="1155.36581318127719" y1="622.625527677060745" x2="1575.300916040236189" y2="622.602285965640476" fill="none" stroke="#000" stroke-miterlimit="10" stroke-width="1pt"/> -->
        </g>
        <!-- Horizontal scale animation: scale up 1s, stay 2s, scale down 1s, stay hidden 2s, repeat -->
        <animateTransform attributeName="transform" attributeType="XML" type="scale" values="0 1; 1 1; 1 1; 0 1; 0 1" dur="6s" repeatCount="indefinite" keyTimes="0; 0.167; 0.5; 0.667; 1"/>
      </g>
      <g id="pencil">
        <g id="pencil-2" data-name="pencil">
          <rect x="458.447998318041755" y="452.926875020310035" width="105.025640707932325" height="768" fill="#431600"/>
          <rect x="474.20184442423124" y="452.926875020310035" width="73.517948495553355" height="768" fill="#7b2900"/>
        </g>
        <g id="crow-shine-mask-3" data-name="crow-shine-mask">
          <polygon id="bottom-5" data-name="bottom" points="497.917411627567162 637.704957689416915 524.004173622158305 637.704957689416915 525.125205634381018 631.569896388296911 496.796323364073942 631.569896388296911 497.917411627567162 637.704957689416915" fill="#febe10"/>
          <polygon id="top-5" data-name="top" points="524.932769962058046 583.225707275298191 520.186904648268865 618.792499628547375 515.10505036322229 583.225707275298191 506.8165348865341 583.225707275298191 501.734624350164268 618.792499628547375 496.988815287698344 583.225707275298191 487.962676609836308 583.225707275298191 496.585831026782216 630.417869913837421 505.880513376002455 630.417869913837421 510.77921345203049 599.344037062357529 510.960792624863643 598.19201058787803 511.142371797700434 599.344037062357529 516.041071873755754 630.417869913837421 525.335754222946889 630.417869913837421 533.958908639914625 583.225707275298191 524.932769962058046 583.225707275298191" fill="#febe10"/>
        </g>
        <g>
          <polygon points="521.463382742801514 1273.439695374276198 500.458254601214321 1273.439695374276198 458.447998318041755 1220.926875020310035 563.47363902597408 1220.926875020310035 521.463382742801514 1273.439695374276198" fill="#c69c6d"/>
          <polygon points="519.362869928642795 1273.439695374276198 502.55876741537304 1273.439695374276198 468.950562388835351 1220.926875020310035 552.971074955181393 1220.926875020310035 519.362869928642795 1273.439695374276198" fill="#febe10" mix-blend-mode="luminosity" opacity=".2"/>
        </g>
        <g>
          <rect x="500.458254600742748" y="1273.439695374276198" width="21.005128142058766" height="21.005128141587193" fill="#1a1a1a"/>
          <rect x="501.508511007822108" y="1273.439695374276198" width="18.904615327852753" height="21.005128141587193" fill="#febe10" mix-blend-mode="luminosity" opacity=".3"/>
        </g>
      </g>
      <g id="monogram-save-area">
        <circle id="monogram-save-area-2" data-name="monogram-save-area" cx="510.960818672008827" cy="505.439695374281655" r="52.512820353971165" fill="none" stroke="#fff" stroke-miterlimit="10" stroke-width="1pt" stroke-dasharray="329.95" stroke-dashoffset="329.95" transform="rotate(-90 510.960818672008827 505.439695374281655)">
          <!-- Drawing animation: stroke draws clockwise 1s, stay 2s, undraw 1s, stay hidden 2s, repeat -->
          <animate attributeName="stroke-dashoffset" values="329.95; 0; 0; 329.95; 329.95" dur="6s" repeatCount="indefinite" keyTimes="0; 0.167; 0.5; 0.667; 1"/>
        </circle>
        <circle id="monogram-save-area-3" data-name="monogram-save-area" cx="510.960818672008827" cy="610.465336082230351" r="52.512820353971165" fill="none" stroke="#fff" stroke-miterlimit="10" stroke-width="1pt" stroke-dasharray="329.95" stroke-dashoffset="329.95" transform="rotate(-90 510.960818672008827 610.465336082230351)">
          <!-- Drawing animation: stroke draws clockwise 1s, stay 2s, undraw 1s, stay hidden 2s, repeat -->
          <animate attributeName="stroke-dashoffset" values="329.95; 0; 0; 329.95; 329.95" dur="6s" repeatCount="indefinite" keyTimes="0; 0.167; 0.5; 0.667; 1"/>
        </circle>
      </g>
    </g>
  </g>
</svg>