<?xml version="1.0" encoding="UTF-8"?>
<svg id="letter" xmlns="http://www.w3.org/2000/svg" viewBox="0 0 2047.999999999996362 1536">
  <g id="letter-backside">
    <g id="crown">
      <polygon points="1279.480422745215037 590.69158007750957 1280.736681223161213 543.097173226929954 1280.331153577451914 590.706429639421913 1283.247667621615619 543.184858804146643 1281.180847925214039 590.750960233257501 1285.754064212487719 543.360123127211409 1282.028470566823671 590.82511760534544 1288.252817337610395 543.622752663544816 1282.872988804661873 590.928811406352906 1290.740882651207357 543.972427439513922 1283.713373723339828 591.061915301355839 1293.215228828950785 544.408721430261721 1284.548601443288135 591.224267123758182 1295.672841261164649 544.931103078772139 1285.377654368185176 591.41566907287779 1298.11072572566809 545.53893594346664 1286.199522424747556 591.635887954918871 1300.52591203576776 546.231479473635773 1287.01320429334919 591.884655467096309 1302.915457658975356 547.007889911663369 1287.817708627972024 592.161668524517154 1305.276451302032001 547.86722132102841 1288.612055264005903 592.466589629442751 1307.606016457866644 548.808426738776689 1289.395276412435123 592.79904728247493 1309.901314910177462 549.830359451088952 1290.166417838936468 593.158636435171502 1312.159550191363451 550.931774390372084 1290.924540026469913 593.544918983545358 1314.377970989589812 552.111329652183485 1291.668719319925003 593.957424301812352 1316.553874500836173 553.367588130133299 1292.398049051467751 594.395649815782235 1318.684609721845845 554.699019266776304 1293.111640645163789 594.859061615170504 1320.767580679967068 556.104000918363454 1293.808624699577194 595.347095104083564 1322.80024959594266 557.580821331173865 1294.488152047000767 595.859155688889587 1324.780139975810016 559.127681227022549 1295.149394788033533 596.394619502643764 1326.704839628117043 560.742695995400936 1295.791547300250386 596.952834165169406 1328.572003602816039 562.423897989587203 1296.41382721973423 597.533119577889011 1330.37935704821939 564.169238923921512 1297.015476394255529 598.134768752410309 1332.124697982553698 565.976592369323043 1297.595761806975133 598.757048671894154 1333.805899976739965 567.843756344023859 1298.153976469500776 599.399201184111007 1335.420914745118353 569.768455996330886 1298.689440283254953 600.060443925143773 1336.967774640967036 571.748346376196423 1299.201500868060975 600.739971272565526 1338.444595053779267 573.781015292173834 1299.689534356972217 601.436955326978932 1339.849576705366417 575.863986250293237 1300.152946156362304 602.150546920674969 1341.181007842009421 577.99472147130291 1300.591171670332187 602.879876652219536 1342.437266319959235 580.170624982551089 1301.003676988597363 603.624055945674627 1343.616821581768818 582.389045780777451 1301.389959536973038 604.382178133206253 1344.718236521053768 584.64728106196344 1301.749548689669609 605.153319559707597 1345.740169233366032 586.942579514274257 1302.082006342701789 605.936540708138637 1346.681374651114311 589.272144670107082 1302.386927447627386 606.730887344172515 1347.540706060479351 591.633138313161908 1302.663940505048231 607.53539167879353 1348.317116498506948 594.022683936371322 1302.912708017225668 608.349073547395164 1349.00966002867608 596.437870246470993 1303.132926899266749 609.170941603959363 1349.6174928933724 598.875754710974434 1303.324328848386358 609.999994528854586 1350.139874541882818 601.333367143188298 1303.486680670788701 610.835222248802893 1350.576168532630618 603.807713320929906 1303.619784565791633 611.675607167482667 1350.925843308597905 606.295778634528688 1303.7234783667991 612.52012540531905 1351.188472844933131 608.794531759653182 1303.797635738887038 613.367748046930501 1351.363737167997897 611.300928350523463 1303.842166332724446 614.217442394692625 1351.451422745214586 613.81191474897787 1303.857015894636788 615.068173226929503 1351.451422745214586 616.324431704875678 1303.842166332724446 615.91890405916638 1351.363737167997897 618.835418103328266 1303.797635738888857 616.768598406928504 1351.188472844933131 621.341814694200366 1303.7234783667991 617.616221048538137 1350.925843308599724 623.84056781932486 1303.619784565791633 618.460739286376338 1350.576168532632437 626.328633132921823 1303.48668067079052 619.301124205054293 1350.139874541882818 628.802979310665251 1303.324328848386358 620.136351925000781 1349.617492893374219 631.260591742877295 1303.132926899268568 620.965404849897823 1349.009660028677899 633.698476207380736 1302.912708017227487 621.787272906462022 1348.317116498508767 636.113662517482226 1302.663940505048231 622.600954775063656 1347.54070606048117 638.503208140689821 1302.386927447627386 623.405459109684671 1346.681374651117949 640.864201783746466 1302.082006342701789 624.19980574571855 1345.74016923336967 643.19376693958111 1301.749548689671428 624.98302689414777 1344.718236521055587 645.489065391890108 1301.389959536973038 625.754168320650933 1343.616821581772456 647.747300673076097 1301.003676988599182 626.512290508182559 1342.437266319961054 649.965721471304278 1300.591171670332187 627.256469801639469 1341.181007842013059 652.141624982550638 1300.152946156362304 627.985799533182217 1339.849576705370055 654.272360203560311 1299.689534356974036 628.699391126878254 1338.444595053782905 656.355331161681534 1299.201500868062794 629.39637518129166 1336.967774640970674 658.388000077657125 1298.689440283254953 630.075902528715233 1335.420914745121991 660.367890457524481 1298.153976469502595 630.737145269746179 1333.805899976745422 662.292590109831508 1297.595761806976952 631.379297781964851 1332.124697982557336 664.159754084530505 1297.015476394257348 632.001577701448696 1330.379357048223028 665.967107529933855 1296.413827219736049 632.603226875969995 1328.572003602821496 667.712448464268164 1295.791547300252205 633.18351228868778 1326.704839628120681 669.393650458454431 1295.149394788033533 633.741726951215242 1324.780139975813654 671.008665226832818 1294.488152047002586 634.277190764969419 1322.800249595948117 672.555525122681502 1293.808624699580832 634.789251349775441 1320.767580679970706 674.032345535491913 1293.111640645165608 635.277284838686683 1318.684609721851302 675.437327187080882 1292.39804905146957 635.740696638074951 1316.55387450084163 676.768758323723887 1291.668719319926822 636.178922152044834 1314.377970989595269 678.025016801671882 1290.924540026471732 636.591427470311828 1312.159550191368908 679.204572063483283 1290.166417838940106 636.977710018685684 1309.9013149101811 680.305987002768234 1289.395276412436942 637.337299171384075 1307.606016457872101 681.327919715080498 1288.612055264005903 637.669756824416254 1305.276451302037458 682.269125132828776 1287.817708627973843 637.974677929341851 1302.915457658982632 683.128456542193817 1287.013204293351009 638.251690986762696 1300.525912035773217 683.904866980221414 1286.199522424749375 638.500458498940134 1298.110725725673547 684.597410510388727 1285.377654368186995 638.720677380981215 1295.672841261170106 685.205243375086866 1284.548601443289954 638.912079330100823 1293.215228828956242 685.727625023595465 1283.713373723341647 639.074431152503166 1290.740882651214633 686.163919014345083 1282.872988804663692 639.207535047506099 1288.252817337617671 686.51359379031237 1282.028470566827309 639.311228848513565 1285.754064212493176 686.776223326645777 1281.180847925215858 639.385386220601504 1283.247667621621076 686.951487649712362 1280.331153577451914 639.429916814438911 1280.73668122316667 687.039173226929051 1279.480422745216856 639.444766376349435 1278.224164267268861 687.039173226929051 1278.629691912979979 639.429916814438911 1275.713177868816274 686.951487649712362 1277.779997565217855 639.385386220601504 1273.206781277944174 686.776223326647596 1276.932374923606403 639.311228848513565 1270.708028152821498 686.513593790314189 1276.087856685770021 639.207535047506099 1268.219962839222717 686.163919014346902 1275.247471767092065 639.074431152504985 1265.745616661481108 685.727625023597284 1274.412244047143759 638.912079330100823 1263.288004229267244 685.205243375088685 1273.583191122246717 638.720677380981215 1260.850119764763804 684.597410510392365 1272.761323065682518 638.500458498940134 1258.434933454664133 683.904866980223233 1271.947641197080884 638.251690986762696 1256.045387831454718 683.128456542195636 1271.143136862459869 637.974677929341851 1253.684394188398073 682.269125132830595 1270.34879022642599 637.669756824416254 1251.354829032565249 681.327919715084136 1269.56556907799677 637.337299171385894 1249.059530580254432 680.305987002770053 1268.794427651493606 636.977710018687503 1246.801295299068443 679.204572063486921 1268.03630546396198 636.591427470313647 1244.582874500842081 678.02501680167552 1267.292126170505071 636.178922152046653 1242.40697098959572 676.768758323727525 1266.562796438964142 635.74069663807677 1240.276235768586048 675.437327187082701 1265.849204845266286 635.277284838688502 1238.193264810464825 674.032345535495551 1265.15222079085288 634.789251349775441 1236.160595894489234 672.55552512268514 1264.472693443431126 634.277190764969419 1234.180705514621877 671.008665226836456 1263.811450702398361 633.741726951217061 1232.256005862314851 669.393650458458069 1263.169298190181507 633.183512288689599 1230.388841887615854 667.712448464271802 1262.547018270697663 632.603226875971814 1228.581488442212503 665.967107529937493 1261.945369096174545 632.001577701448696 1226.836147507878195 664.159754084535962 1261.36508368345676 631.379297781964851 1225.154945513690109 662.292590109835146 1260.806869020929298 630.737145269747998 1223.539930745311722 660.367890457528119 1260.27140520717694 630.075902528715233 1221.993070849463038 658.388000077662582 1259.759344622370918 629.396375181295298 1220.516250436652626 656.355331161685172 1259.271311133457857 628.699391126880073 1219.111268785065477 654.272360203565768 1258.807899334069589 627.985799533184036 1217.779837648422472 652.141624982556095 1258.369673820099706 627.256469801641288 1216.523579170472658 649.965721471307916 1257.957168501834531 626.512290508184378 1215.344023908661256 647.747300673083373 1257.570885953458856 625.754168320652752 1214.242608969378125 645.489065391895565 1257.211296800760465 624.983026894151408 1213.220676257064042 643.193766939586567 1256.878839147728286 624.199805745720369 1212.279470839315763 640.864201783751923 1256.573918042804507 623.40545910968649 1211.420139429952542 638.503208140697097 1256.296904985383662 622.600954775065475 1210.643728991923126 636.113662517487683 1256.048137473204406 621.787272906463841 1209.951185461755813 633.698476207388012 1255.827918591163325 620.965404849899642 1209.343352597057674 631.260591742884571 1255.636516642045535 620.136351925004419 1208.820970948549075 628.802979310670707 1255.474164819641373 619.301124205056112 1208.384676957799456 626.328633132929099 1255.341060924638441 618.460739286378157 1208.035002181833988 623.840567819330317 1255.237367123632794 617.616221048541775 1207.772372645498763 621.341814694205823 1255.163209751543036 616.768598406928504 1207.597108322433996 618.835418103335542 1255.118679157707447 615.91890405916638 1207.509422745215488 616.324431704881135 1255.103829595795105 615.068173226931322 1207.509422745215488 613.811914748983327 1255.118679157707447 614.217442394694444 1207.597108322432177 611.300928350530739 1255.163209751543036 613.367748046930501 1207.772372645498763 608.794531759658639 1255.237367123632794 612.520125405320869 1208.035002181832169 606.295778634534145 1255.341060924638441 611.675607167484486 1208.384676957799456 603.807713320937182 1255.474164819641373 610.835222248806531 1208.820970948547256 601.333367143193755 1255.636516642045535 609.999994528858224 1209.343352597057674 598.87575471098171 1255.827918591163325 609.170941603961182 1209.951185461753994 596.437870246478269 1256.048137473204406 608.349073547396983 1210.643728991923126 594.022683936376779 1256.296904985381843 607.535391678795349 1211.420139429948904 591.633138313169184 1256.573918042804507 606.730887344174334 1212.279470839313944 589.272144670112539 1256.878839147728286 605.936540708140456 1213.220676257062223 586.942579514279714 1257.211296800760465 605.153319559711235 1214.242608969374487 584.647281061968897 1257.570885953458856 604.382178133208072 1215.344023908659437 582.389045780782908 1257.957168501832712 603.624055945676446 1216.52357917046902 580.170624982554727 1258.369673820097887 602.879876652219536 1217.779837648418834 577.994721471308367 1258.80789933406777 602.150546920676788 1219.111268785061839 575.863986250300513 1259.271311133457857 601.436955326980751 1220.516250436648988 573.781015292177472 1259.759344622369099 600.739971272567345 1221.9930708494594 571.748346376203699 1260.271405207175121 600.060443925143773 1223.539930745308084 569.768455996336343 1260.806869020929298 599.399201184112826 1225.154945513686471 567.843756344027497 1261.365083683454941 598.757048671894154 1226.836147507872738 565.9765923693285 1261.945369096174545 598.134768752410309 1228.581488442207046 564.16923892392515 1262.547018270695844 597.533119577889011 1230.388841887610397 562.423897989590841 1263.169298190179688 596.952834165171225 1232.256005862309394 560.742695995404574 1263.811450702396542 596.394619502643764 1234.18070551461642 559.127681227026187 1264.472693443429307 595.859155688889587 1236.160595894483777 557.580821331177503 1265.152220790851061 595.347095104083564 1238.193264810459368 556.104000918367092 1265.849204845264467 594.859061615172322 1240.276235768580591 554.699019266778123 1266.562796438960504 594.395649815784054 1242.406970989590263 553.367588130135118 1267.292126170505071 593.957424301814171 1244.582874500836624 552.111329652187123 1268.036305463960161 593.544918983547177 1246.801295299062986 550.931774390375722 1268.794427651491787 593.158636435173321 1249.059530580248975 549.830359451090771 1269.565569077994951 592.79904728247493 1251.354829032559792 548.808426738778508 1270.348790226424171 592.466589629442751 1253.684394188392616 547.867221321030229 1271.14313686245805 592.161668524518973 1256.045387831449261 547.007889911667007 1271.947641197079065 591.884655467096309 1258.434933454656857 546.231479473637592 1272.761323065680699 591.635887954918871 1260.850119764756528 545.538935943470278 1273.583191122244898 591.41566907287779 1263.288004229259968 544.931103078772139 1274.41224404714194 591.224267123760001 1265.745616661473832 544.40872143026354 1275.247471767088427 591.061915301355839 1268.21996283921726 543.972427439513922 1276.087856685768202 590.928811406352906 1270.708028152814222 543.622752663548454 1276.932374923604584 590.82511760534544 1273.206781277938717 543.360123127213228 1277.779997565216036 590.750960233257501 1275.713177868808998 543.184858804146643 1278.62969191297816 590.706429639421913 1278.224164267263404 543.097173226929954 1279.480422745215037 590.69158007750957" fill="#7b2900"/>
    </g>
  </g>
</svg>