<?xml version="1.0" encoding="UTF-8"?>
<svg xmlns="http://www.w3.org/2000/svg" xmlns:xlink="http://www.w3.org/1999/xlink" viewBox="0 0 2047.999999999996362 1536">
  <defs>
    <linearGradient id="linear-gradient" x1="829.301503284365026" y1="1007.831891969595745" x2="1807.331538368920519" y2="443.165987937988689" gradientTransform="translate(-38.836140572182558 -78.761989237258604)" gradientUnits="userSpaceOnUse">
      <stop offset="0" stop-color="#f2f2f2"/>
      <stop offset="1" stop-color="#fff"/>
    </linearGradient>
  </defs>
  <g id="bg">
    <rect x="-.000000000020009" width="2048.000000000005457" height="1536"/>
  </g>
  <g id="letter">
    <g>
      <g id="letter-backside">
        <g id="packagign">
          <rect x="767.480435554248743" y="404.215045323810443" width="1023.999889400422035" height="485.043810785437984" fill="#fff"/>
          <rect x="767.480435554248743" y="404.215045323810443" width="1023.999889400422035" height="485.043810785437984" fill="#fff"/>
          <rect x="767.480435554248743" y="404.215045323810443" width="1023.999889400422035" height="485.043810785437984" fill="#fff"/>
          <rect x="767.480435554248743" y="404.215045323810443" width="1023.999889400422035" height="485.043810785437984" fill="url(#linear-gradient)"/>
        </g>
        <path d="M767.480506526389945,404.214744441800576l-.00000000001819.000107789459435c-.000010264715456,62.820529871030885,44.004214065007545,117.053410535758303,105.47722818695911,129.99510820904834l362.111164961126633,76.233991255950968c29.286689394150017,6.165623817279993,59.536344300595374,6.165628759990796,88.823035709636315.000014513461792l362.111189873990952-76.233872919870919c61.473018351229257-12.941677584210993,105.477260403979017-67.174543868590263,105.477270668689016-129.995073739621148l.000000000021828-.000107789459435-1023.999889400405664-.000167318969034Z" fill="#fff"/>
        <circle id="stamp" cx="1279.48042274520958" cy="615.068173226926774" r="71.971023805544576" fill="#f2f2f2"/>
        <g id="crown">
          <polygon points="1279.48042723776598 587.573500231948856 1280.736693398554053 543.097149626661121 1280.439977484555129 587.590249400658649 1283.24768061323266 543.184835643158294 1281.398358661703242 587.640476186879823 1285.754078004505573 543.360100433739717 1282.354403129364073 587.724119397029426 1288.252831913214322 543.622730465231143 1283.30694609463535 587.841077124769072 1290.740897992644022 543.972405763401184 1284.254827030636079 587.99120687507093 1293.215244917522796 544.408700302759826 1285.196891090454301 588.17432573798942 1295.672858077283308 544.931082525628881 1286.131990514153586 588.390210611400107 1298.110743248835206 545.538915989720408 1287.058986027124774 588.638598472829472 1300.52593024462476 546.231460143590084 1287.976748228105862 588.919186699939019 1302.91547653136513 547.007871228870499 1288.884158965265669 589.231633439168945 1305.276470814944332 547.867203308251192 1289.780112698375888 589.575558022341284 1307.606036587534618 548.808409417961229 1290.663517845794559 589.950541430291196 1309.901335632053815 549.830342843339167 1291.53329811448566 590.35612680353006 1312.159571480224258 550.931758515929687 1292.388393811143033 590.791819998699793 1314.377992819496285 552.111314530378877 1293.227763133363624 591.257090190811141 1316.553896845194686 553.367573779389204 1294.050383438945573 591.751370519799821 1318.684632553424308 554.699005704580486 1294.855252491743158 592.274058781189524 1320.767603970944037 556.103988161248708 1295.641389682816225 592.824518159868603 1322.800273317934625 557.580809394679818 1296.407837225073308 593.402078005889052 1324.780164099935064 559.127670125690202 1297.153661320244282 594.006034651520167 1326.704864124974847 560.742685742738104 1297.87795329659275 594.635652268618287 1328.572028442573355 562.423888598099438 1298.579830715872959 595.290163765148463 1330.379382200593682 564.169230405048438 1299.258438448574452 595.968771719621145 1332.124723416913184 565.976584733460186 1299.912949715715513 596.670649352789042 1333.805925662083609 567.843749600440788 1300.542567096134007 597.394941534879763 1335.420940650175908 569.768450153260346 1301.146523498035094 598.140765827440191 1336.967800734164484 571.748341440768854 1301.724083093566151 598.907213558439253 1338.444621303315216 573.781011270399176 1302.274542215352994 599.693350929399458 1339.849603079273948 575.863983147060935 1302.79723021373502 600.498220153011061 1341.181034308156086 577.994719290400099 1303.291510273873428 601.320840620108356 1342.437292846083437 580.170623726629856 1303.756780191684811 602.160210094389186 1343.616848135585315 582.389045451360289 1304.192473107435944 603.015305933418858 1344.718263070182729 584.647281659468717 1304.598058196414058 603.885086334641528 1345.740195745464007 586.942581037968921 1304.973041315664886 604.768491604630981 1346.681401093883323 589.272147118128487 1305.316965606045414 605.664445450118365 1347.540732401714195 591.633141682519636 1305.629412048743689 606.571856289370771 1348.317142706095183 594.022688222979923 1305.909999975923711 607.489618582058029 1349.00968607071627 596.437875445099053 1306.158387534425856 608.416614176188887 1349.617518738104991 598.875760815299145 1306.374272102242685 609.351713670439494 1350.139900157835655 601.333374145760899 1306.557390657315409 610.293777790109743 1350.576193888595299 603.807721213219338 1306.707520097843371 611.241658775168617 1350.925868373673438 606.29578740692159 1306.824477514295722 612.194201778660499 1351.188497588584141 608.794541401461174 1306.908120412022981 613.150246273668017 1351.36376156008555 611.300938849999511 1306.958346885054198 614.10862746723069 1351.451446756025689 613.811926093319926 1306.975095740173856 615.068177719480445 1351.451446345483419 616.324443880279432 1306.95834657148589 616.027727966269595 1351.363760328975332 618.835431094950764 1306.908119785242889 616.986109143421345 1351.188495538393909 621.341828486220038 1306.824476575093286 617.942153611078538 1350.925865506895207 623.840582394928788 1306.707518847364554 618.894696576349816 1350.57619020873608 626.328648474358488 1306.557389097062696 619.842577512350545 1350.1398956693738 628.802995399248175 1306.374270234133292 620.784641572168766 1349.617513446504745 631.260608559001412 1306.158385360726243 621.719740995868051 1349.009679982424132 633.698493730549671 1305.90999749929324 622.646736508828326 1348.317135828536266 636.11368072635014 1305.629409272183693 623.564498709820327 1347.540724743255851 638.503227013068681 1305.316962532953767 624.471909446980135 1346.681392663875158 640.864221296658798 1304.973037949785066 625.367863180068525 1345.74018655416512 643.193787069238169 1304.598054541835154 626.251268327509024 1344.718253128783545 645.489086113779194 1304.19246916861448 627.121048596200126 1343.616837456203939 647.747321961931448 1303.756775973422918 627.976144292861136 1342.437281441743835 649.96574330121075 1303.291505781315209 628.815513615078089 1341.181022192733508 652.141647326898237 1302.797225452344719 629.638133920660039 1339.849590267545864 654.272383035138773 1302.274537190933188 630.443002973461262 1338.444607810874004 656.355354452658503 1301.724077812254109 631.229140164530691 1336.967786577464722 658.388023799660004 1301.146517966244573 631.995587706791412 1335.420925846454338 660.367914581649529 1300.542561320606183 632.741411801958748 1333.805910229384608 662.292614606689312 1299.912943703504425 633.465703778310854 1332.124707374034188 664.159778924291459 1299.258432206996076 634.167581197580148 1330.379365567074274 665.967132682308147 1298.579824252516119 634.846188930288918 1328.572011238684354 667.712473898631288 1297.877946619355498 635.500700197429978 1326.704846371674648 669.393676143798075 1297.153654437253863 636.130317577848473 1324.780145818866004 671.008691131890373 1296.407830144704349 636.73427397974956 1322.800254531353858 672.55555121587895 1295.641382413694373 637.311833575298806 1320.767584701745363 674.032371785029682 1294.855245042745082 637.862292697071098 1318.684612825083605 675.437353560988413 1294.050375819133478 638.384980695438571 1316.553876681744441 676.768784789870551 1293.22775535202527 638.879260755591531 1314.377972245514684 678.025043327819731 1292.388385877755354 639.344530673399277 1312.159550520766061 679.20459861728159 1291.533290038714767 639.78022358915041 1309.901314312653994 680.306013551900833 1290.663509637484822 640.185808678128524 1307.606014934175619 681.327946227178472 1289.780104367513559 640.56079179740118 1305.276448854005139 682.269151575601427 1288.884150522004347 640.90471608775988 1302.9154542895958 683.12848288342866 1287.976739682755579 641.217162530458154 1300.525907749135513 683.904893187809648 1287.058977390075597 641.49775045764909 1298.110720527034573 684.597436552430736 1286.131981795933825 641.746138016140321 1295.672835156845395 685.205269219819456 1285.196882301683218 641.962022583960788 1293.21522182636545 685.727650639561034 1284.254818182012968 642.145141139029874 1290.740874758903374 686.163944370309764 1283.306937196965009 642.295270579579665 1288.252808565204759 686.513618855391542 1282.354394193465851 642.412227996010188 1285.754054570665176 686.776248070309521 1281.398349698472884 642.495870893730171 1283.247657122123201 686.951512041800015 1280.439968504906574 642.546097366768663 1280.73666987879551 687.039197237740154 1279.480418252645904 642.562846221888321 1278.224152091846918 687.039196827201522 1278.520868005856755 642.546097053200356 1275.713164877175586 686.951510810689797 1277.562486828726833 642.495870266960992 1273.206767485906312 686.776246020119288 1276.606442361047812 642.412227056811389 1270.708013577197562 686.513615988609672 1275.653899395776534 642.295269329089933 1268.219947497775138 686.163940690450545 1274.706018459775805 642.1451395787808 1265.745600572896365 685.727646151088265 1273.763954399957584 641.962020715851395 1263.287987413124938 685.20526392821921 1272.828854976254661 641.746135842440708 1260.850102241587592 684.597430464138597 1271.901859463294386 641.497747981011344 1258.434915245787124 683.904886310250731 1270.984097262306022 641.217159753898159 1256.045368959046755 683.128475224970316 1270.076686525157129 640.904713014668232 1253.684374675485742 682.269143145589624 1269.180732792057825 640.560788431510446 1251.354808902895456 681.327937035879586 1268.297327644617326 640.185805023549619 1249.059509858354431 680.30600361049801 1267.427547375926224 639.780219650328945 1246.801274010194902 679.204587937911128 1266.572451679287042 639.344526455141022 1244.582852670915599 678.025031923469214 1265.733082357055537 638.879256263029674 1242.406948645235389 676.768772674451611 1264.910462051484501 638.384975934059185 1240.276212937005766 675.437340749260329 1264.105592998686916 637.862287672658567 1238.193241519486037 674.032358292588469 1263.319455807617487 637.311828293979488 1236.160572172477259 672.555537059179187 1262.553008265356766 636.734268447959039 1234.180681390476821 671.008676328168804 1261.807184170167602 636.130311802320648 1232.255981365437037 669.393660711099074 1261.08289219382641 635.500694185207976 1230.388817047845805 667.712457855748653 1260.381014774557116 634.846182688699628 1228.581463289814565 665.967116048788739 1259.702407041837432 634.167574734230584 1226.836122073495062 664.159761720398819 1259.047895774696372 633.465697101069964 1225.154919828324637 662.292596853389114 1258.418278394277877 632.741404918961052 1223.539904840235977 660.367896300580469 1257.814321992387704 631.995580626418814 1221.99304475626559 658.388005013090151 1257.236762396845734 631.229132895408839 1220.516224187096668 656.355335183459829 1256.686303275055252 630.442995524459548 1219.111242411134299 654.27236330679807 1256.163615276695054 629.638126300851582 1217.779811182255798 652.141627163458907 1255.669335216534819 628.815505833739735 1216.523552644324809 649.965722727229149 1255.204065298734349 627.97613635946982 1215.34399735484476 647.747301002480526 1254.768372382986854 627.121040520429233 1214.242582420225517 645.489064794390288 1254.362787294016016 626.251260119199287 1213.220649744947877 643.193765415890084 1253.987804174736084 625.367854849220748 1212.279444396524923 640.864199335730518 1253.643879884377384 624.471901003729727 1211.420113088704966 638.503204771310266 1253.331433441664558 623.564490164470044 1210.643702784316702 636.113658230860892 1253.050845514484536 622.646727871779149 1209.951159419717442 633.698471008749038 1252.802457955986029 621.719732277648291 1209.343326752306893 631.26058563855986 1252.586573388165561 620.784632783401321 1208.820945332587144 628.802972308098106 1252.403454833114665 619.842568663731072 1208.384651601816586 626.328625240621477 1252.253325392564875 618.894687678668561 1208.034977116734808 623.840559046919225 1252.136367976134352 617.942144675180316 1207.772347901827743 621.341805052379641 1252.052725078396179 616.986100180190988 1207.597083930326335 618.83540760384858 1252.002498605375877 616.027718986621039 1207.509398734404385 616.324420360509976 1251.98574975023439 615.068168734371284 1207.509399144946656 613.811902573561383 1252.002498918947822 614.108618487589411 1207.597085161447467 611.300915358890052 1252.052725705154444 613.150237310441298 1207.772349952025252 608.794517967620777 1252.136368915336789 612.194192842769553 1208.034979983516678 606.295764058908389 1252.253326643054606 611.241649877491 1208.384655281675805 603.807697979489603 1252.403456393367378 610.293768941490271 1208.82094982104536 601.333351054599916 1252.586575256274955 609.351704881668411 1209.343332043914415 598.875737894861231 1252.802460129685642 608.416605457969126 1209.951165508005943 596.437852723291144 1253.05084799112592 607.489609945008851 1210.643709661875619 594.022665727490676 1253.331436218224553 606.571847744020488 1211.420120747156034 591.63311944076122 1253.643882957476308 605.66443700686068 1212.27945282654764 589.272125157189294 1253.987807540626818 604.768483273768652 1213.220658936257678 586.942559384609922 1254.362790948587644 603.885078126328153 1214.242592361624702 584.647260340068897 1254.768376321797405 603.015297857651603 1215.344008034215221 582.389024491909367 1255.204069516985328 602.160202160990593 1216.523564048664412 580.170603152648255 1255.669339709096676 601.320832838759088 1217.779823297674739 577.994699126949854 1256.163620038085355 600.498212533198966 1219.111255222866021 575.863963418720232 1256.686308299475058 599.693343480390467 1220.51623767953788 573.780992001200502 1257.236767678165052 598.907206289328315 1221.993058912965353 571.748322654188087 1257.814327524174587 598.140758747071231 1223.539919643957546 569.768431872191286 1258.418284169805702 597.39493465187843 1225.154935261027276 567.843731847151503 1259.047901786914736 596.670642675540876 1226.836138116384973 565.976567529571184 1259.702413283415808 595.968765256271581 1228.581479923337611 564.16921377152903 1260.381021237917594 595.290157523559174 1230.38883425172753 562.423872555209527 1261.082898871074576 594.635646256399923 1232.255999118737236 560.742670310039102 1261.807191053165297 594.006028875988704 1234.180699671556795 559.127655321968632 1262.553015345725726 593.402072474098532 1236.160590959054389 557.580795237980055 1263.319463076724787 592.824512878560199 1238.193260788684711 556.103974668811134 1264.105600447684992 592.274053756769717 1240.27623266534647 554.698992892848764 1264.910469671296596 591.75136575840952 1242.406968808674719 553.367561663970264 1265.733090138397529 591.257085698249284 1244.5828732448972 552.111303126039275 1266.57245961267472 590.791815780448815 1246.801294969656738 550.931747836559225 1267.427555451697117 590.356122864708595 1249.059531177754252 549.830332901939983 1268.297335852927063 589.950537775708653 1251.354830556254456 548.808400226658705 1269.180741122905602 589.575554656461463 1253.684396636417659 547.867194878239388 1270.076694968407537 589.231630366080935 1256.04539120080517 547.007863570419431 1270.984105807656306 588.919183923379023 1258.434937741276372 546.231453266031167 1271.901868100347201 588.638595996199001 1260.850124963395501 545.538909901428269 1272.828863694485335 588.390208437700494 1263.288010333577404 544.931077234028635 1273.763963188725029 588.174323869880027 1265.745623664046434 544.408695814290695 1274.706027308395278 587.991205314829131 1268.219970731504873 543.972402083531051 1275.653908293457789 587.84107587427934 1270.708036925207125 543.622727598449274 1276.606451296946034 587.724118457830627 1273.206790919746709 543.36009838353857 1277.56249579195719 587.640475560110644 1275.713188368285046 543.1848344120408 1278.520876985505311 587.590249087079428 1278.224175611616374 543.097149216118851 1279.48042723776598 587.573500231948856" fill="#7b2900"/>
          <g id="crow">
            <g id="Crown">
              <polygon id="bottom" points="1261.603879971327842 652.401214730711217 1297.356881921456079 652.401220572661259 1298.893304708133655 643.992861874910886 1260.067382837685727 643.992855530850647 1261.603879971327842 652.401214730711217" fill="#febe10"/>
              <polygon id="top" points="1298.629574370705086 577.735122063528252 1292.125158850172738 626.480902352559497 1285.16027227581435 577.735119862678403 1273.800514017446403 577.73511800651977 1266.835534418474708 626.480898220288509 1260.331211922577495 577.735115805669921 1247.960510115324723 577.73511378432886 1259.778894514885906 642.413954859810474 1272.517646692187554 642.413956941290962 1279.231527661377186 599.825966214499203 1279.480389795036899 598.247065631239821 1279.72925141273663 599.825966295818944 1286.443118464383588 642.413959216679359 1299.181870641674323 642.413961298159848 1311.000276177943306 577.735124084869312 1298.629574370705086 577.735122063528252" fill="#febe10"/>
            </g>
          </g>
        </g>
      </g>
      <g id="letter-2" data-name="letter">
        <g id="packagign-2" data-name="packagign">
          <rect x="256.519604073200753" y="646.741392384439678" width="1023.999999999996362" height="485.043863173759746" fill="#fff"/>
          <rect x="256.519604073200753" y="646.741392384439678" width="1023.999999999996362" height="485.043863173759746" fill="#fff"/>
          <rect x="256.519604073200753" y="646.741392384439678" width="1023.999999999996362" height="485.043863173759746" fill="#fff"/>
        </g>
        <g>
          <path d="M722.208568916948934,1080.543119456229761c0,.9189453125-.435546875,1.94140625-1.306640625,3.0693359375s-2.08740234375,2.35546875-3.64892578125,3.6826171875h5.28466796875v1.078125h-6.662109375v-1.078125c.18994140625-.1796875.44921875-.4140625.77880859375-.703125.3291015625-.2900390625.68359375-.611328125,1.06298828125-.9658203125.37890625-.3544921875.765625-.736328125,1.16015625-1.1455078125.39404296875-.4091796875.7509765625-.828125,1.0703125-1.2578125.3193359375-.4287109375.57861328125-.857421875.7783203125-1.287109375.19970703125-.4287109375.2998046875-.8427734375.2998046875-1.2421875,0-.599609375-.1572265625-1.0703125-.4716796875-1.4150390625s-.7861328125-.5166015625-1.4150390625-.5166015625c-.53857421875,0-.9931640625.0595703125-1.3623046875.1796875s-.70361328125.294921875-1.0029296875.5244140625l-.5087890625-.82421875c.44970703125-.3193359375.927734375-.5537109375,1.43310546875-.703125s1.05810546875-.224609375,1.658203125-.224609375c.9404296875,0,1.65087890625.2548828125,2.13134765625.763671875s.720703125,1.197265625.720703125,2.0654296875Z" fill="#7b2900"/>
          <path d="M727.388256416948934,1087.505033518729761c.39892578125,0,.765625-.052734375,1.10009765625-.15625.33447265625-.1044921875.62646484375-.2509765625.8759765625-.4404296875.24951171875-.1884765625.44384765625-.41796875.583984375-.6865234375.1396484375-.2685546875.20947265625-.56640625.20947265625-.89453125,0-.6865234375-.2421875-1.17578125-.72607421875-1.4697265625-.484375-.29296875-1.1357421875-.439453125-1.95361328125-.439453125h-.95849609375v-.71875l2.96435546875-3.7275390625h-4.4912109375v-1.078125h5.92822265625v1.078125l-2.9638671875,3.4580078125h.24072265625c.4609375,0,.8818359375.0654296875,1.2626953125.1943359375.380859375.1298828125.7119140625.314453125.99267578125.5537109375.28076171875.240234375.49853515625.529296875.65380859375.869140625.1552734375.3388671875.2333984375.7236328125.2333984375,1.15234375,0,.5390625-.10498046875,1.017578125-.31494140625,1.4375-.21044921875.4189453125-.4951171875.7705078125-.85546875,1.0546875-.3603515625.28515625-.783203125.5-1.26806640625.64453125-.4853515625.14453125-1.0029296875.216796875-1.55322265625.216796875-.51025390625,0-.95263671875-.0380859375-1.328125-.1142578125-.375-.0751953125-.7177734375-.1689453125-1.02783203125-.2802734375l.29931640625-1.0576171875c.259765625.1201171875.56396484375.216796875.91357421875.2919921875.34912109375.0751953125.7431640625.1123046875,1.1826171875.1123046875Z" fill="#7b2900"/>
          <path d="M733.556225166948934,1081.052885081229761c0-.458984375.0751953125-.8916015625.22509765625-1.294921875.14990234375-.404296875.37744140625-.7587890625.6826171875-1.0634765625s.6826171875-.5439453125,1.1328125-.71875c.44970703125-.173828125.974609375-.26171875,1.5751953125-.26171875.56005859375,0,1.06005859375.08984375,1.5.26953125.4404296875.1796875.81298828125.431640625,1.11767578125.755859375.30517578125.32421875.53759765625.71875.69775390625,1.1826171875s.23974609375.98046875.23974609375,1.5498046875c0,1.1181640625-.1396484375,2.1005859375-.419921875,2.94921875s-.67041015625,1.56640625-1.1708984375,2.1552734375c-.50048828125.58984375-1.09326171875,1.0478515625-1.7783203125,1.3779296875-.685546875.3291015625-1.4287109375.5283203125-2.22900390625.5986328125l-.22509765625-.943359375c.65869140625-.0693359375,1.24755859375-.2294921875,1.7666015625-.478515625.5185546875-.25.9677734375-.5693359375,1.34716796875-.958984375.37939453125-.388671875.6884765625-.837890625.92822265625-1.3466796875.2392578125-.5087890625.404296875-1.052734375.494140625-1.6318359375-.16015625.169921875-.32177734375.3115234375-.48681640625.4267578125-.16455078125.1142578125-.3466796875.20703125-.54638671875.2763671875-.19970703125.0703125-.4189453125.1201171875-.65869140625.150390625-.2392578125.029296875-.51416015625.044921875-.8232421875.044921875-.45947265625,0-.8935546875-.0703125-1.302734375-.2099609375s-.76611328125-.341796875-1.0703125-.6064453125c-.3046875-.2646484375-.54638671875-.583984375-.72607421875-.9580078125s-.26953125-.7958984375-.26953125-1.2646484375ZM734.798900948198934,1080.932767893729761c0,.71875.21630859375,1.2578125.64892578125,1.6171875.43310546875.359375,1.00732421875.5380859375,1.72412109375.5380859375.56689453125,0,1.05712890625-.0869140625,1.4697265625-.26171875.4130859375-.173828125.7041015625-.3916015625.873046875-.6513671875.02001953125-.1396484375.02978515625-.251953125.02978515625-.3369140625v-.2919921875c0-.3486328125-.046875-.693359375-.1416015625-1.0322265625-.0947265625-.33984375-.2412109375-.6435546875-.4404296875-.9130859375-.19873046875-.26953125-.455078125-.4873046875-.7685546875-.6513671875-.3134765625-.1650390625-.68896484375-.2470703125-1.12646484375-.2470703125-.71630859375,0-1.2734375.1943359375-1.67138671875.583984375-.3984375.388671875-.59716796875.9375-.59716796875,1.646484375Z" fill="#7b2900"/>
          <path d="M745.098705635698934,1087.549955393729761c0-.3193359375.08984375-.56640625.26953125-.7412109375s.4189453125-.26171875.71826171875-.26171875c.3193359375,0,.56884765625.0869140625.74853515625.26171875s.26953125.421875.26953125.7412109375c0,.2890625-.08984375.529296875-.26953125.71875s-.42919921875.2841796875-.74853515625.2841796875c-.29931640625,0-.53857421875-.0947265625-.71826171875-.2841796875s-.26953125-.4296875-.26953125-.71875Z" fill="#7b2900"/>
          <path d="M759.275951729448934,1085.109525706229761h-2.021484375v3.263671875h-1.1826171875v-3.263671875h-4.83544921875v-.8681640625l5.017578125-6.34765625h1.00048828125v6.2275390625h2.021484375v.98828125ZM756.071850166948934,1079.764799143729761l-3.4580078125,4.3564453125h3.4580078125v-4.3564453125Z" fill="#7b2900"/>
          <path d="M767.045971260698934,1080.543119456229761c0,.9189453125-.435546875,1.94140625-1.306640625,3.0693359375s-2.08740234375,2.35546875-3.64892578125,3.6826171875h5.28466796875v1.078125h-6.662109375v-1.078125c.18994140625-.1796875.44921875-.4140625.77880859375-.703125.3291015625-.2900390625.68359375-.611328125,1.06298828125-.9658203125.37890625-.3544921875.765625-.736328125,1.16015625-1.1455078125.39404296875-.4091796875.7509765625-.828125,1.0703125-1.2578125.3193359375-.4287109375.57861328125-.857421875.7783203125-1.287109375.19970703125-.4287109375.2998046875-.8427734375.2998046875-1.2421875,0-.599609375-.1572265625-1.0703125-.4716796875-1.4150390625s-.7861328125-.5166015625-1.4150390625-.5166015625c-.53857421875,0-.9931640625.0595703125-1.3623046875.1796875s-.70361328125.294921875-1.0029296875.5244140625l-.5087890625-.82421875c.44970703125-.3193359375.927734375-.5537109375,1.43310546875-.703125s1.05810546875-.224609375,1.658203125-.224609375c.9404296875,0,1.65087890625.2548828125,2.13134765625.763671875s.720703125,1.197265625.720703125,2.0654296875Z" fill="#7b2900"/>
          <path d="M776.012768135698934,1080.543119456229761c0,.9189453125-.435546875,1.94140625-1.3056640625,3.0693359375-.87109375,1.1279296875-2.087890625,2.35546875-3.6494140625,3.6826171875h5.28515625v1.078125h-6.6630859375v-1.078125c.1904296875-.1796875.44921875-.4140625.779296875-.703125.3291015625-.2900390625.68359375-.611328125,1.0625-.9658203125.3798828125-.3544921875.7666015625-.736328125,1.16015625-1.1455078125.39453125-.4091796875.7509765625-.828125,1.0712890625-1.2578125.318359375-.4287109375.578125-.857421875.7783203125-1.287109375.19921875-.4287109375.298828125-.8427734375.298828125-1.2421875,0-.599609375-.1572265625-1.0703125-.4716796875-1.4150390625s-.78515625-.5166015625-1.4140625-.5166015625c-.5390625,0-.9931640625.0595703125-1.3623046875.1796875-.3701171875.1201171875-.7041015625.294921875-1.0029296875.5244140625l-.5087890625-.82421875c.44921875-.3193359375.927734375-.5537109375,1.4326171875-.703125s1.05859375-.224609375,1.658203125-.224609375c.9404296875,0,1.6513671875.2548828125,2.1318359375.763671875.4794921875.5087890625.7197265625,1.197265625.7197265625,2.0654296875Z" fill="#7b2900"/>
          <path d="M779.412182198198934,1083.507963206229761h5.119140625v1.107421875h-5.119140625v-1.107421875Z" fill="#7b2900"/>
          <path d="M788.348705635698934,1087.295072581229761h2.3505859375v-7.8740234375l-2.3955078125,1.6767578125-.583984375-.853515625,3.2939453125-2.3505859375h.837890625v9.4013671875h2.3056640625v1.078125h-5.80859375v-1.078125Z" fill="#7b2900"/>
          <path d="M804.113354073198934,1085.109525706229761h-2.021484375v3.263671875h-1.1826171875v-3.263671875h-4.8349609375v-.8681640625l5.0166015625-6.34765625h1.0009765625v6.2275390625h2.021484375v.98828125ZM800.909252510698934,1079.764799143729761l-3.4580078125,4.3564453125h3.4580078125v-4.3564453125Z" fill="#7b2900"/>
          <path d="M808.095775948198934,1087.505033518729761c.3984375,0,.765625-.052734375,1.1005859375-.15625.333984375-.1044921875.6259765625-.2509765625.875-.4404296875.25-.1884765625.4443359375-.41796875.583984375-.6865234375s.2099609375-.56640625.2099609375-.89453125c0-.6865234375-.2421875-1.17578125-.7265625-1.4697265625-.4833984375-.29296875-1.134765625-.439453125-1.953125-.439453125h-.9580078125v-.71875l2.9638671875-3.7275390625h-4.4912109375v-1.078125h5.9287109375v1.078125l-2.96484375,3.4580078125h.2412109375c.4609375,0,.8818359375.0654296875,1.2626953125.1943359375.380859375.1298828125.7119140625.314453125.9921875.5537109375.28125.240234375.4990234375.529296875.654296875.869140625.1552734375.3388671875.2333984375.7236328125.2333984375,1.15234375,0,.5390625-.10546875,1.017578125-.3154296875,1.4375-.2099609375.4189453125-.4951171875.7705078125-.85546875,1.0546875-.3603515625.28515625-.7822265625.5-1.267578125.64453125s-1.0029296875.216796875-1.552734375.216796875c-.5107421875,0-.953125-.0380859375-1.328125-.1142578125-.3759765625-.0751953125-.7177734375-.1689453125-1.0283203125-.2802734375l.2998046875-1.0576171875c.2587890625.1201171875.5634765625.216796875.9130859375.2919921875.3486328125.0751953125.7431640625.1123046875,1.1826171875.1123046875Z" fill="#7b2900"/>
          <path d="M814.172924385698934,1083.132963206229761c0-.84765625.0751953125-1.609375.2255859375-2.2822265625.1494140625-.673828125.375-1.2431640625.6748046875-1.70703125s.6796875-.818359375,1.1396484375-1.0625c.4599609375-.2451171875,1.0048828125-.3671875,1.6357421875-.3671875.669921875,0,1.2373046875.1201171875,1.7021484375.359375s.8427734375.5888671875,1.1328125,1.0478515625.5,1.025390625.6298828125,1.69921875.1953125,1.4443359375.1953125,2.3125c0,.8486328125-.0751953125,1.609375-.2255859375,2.283203125-.1494140625.673828125-.375,1.2431640625-.6748046875,1.70703125s-.6796875.818359375-1.1396484375,1.0625c-.4599609375.2451171875-1.005859375.3671875-1.6357421875.3671875-.66015625,0-1.22265625-.1328125-1.6875-.396484375-.46484375-.2646484375-.8447265625-.63671875-1.1396484375-1.115234375-.2958984375-.4794921875-.5078125-1.05078125-.6376953125-1.71484375-.1298828125-.6630859375-.1953125-1.39453125-.1953125-2.193359375ZM815.416088448198934,1083.132963206229761c0,.25.0068359375.4892578125.0224609375.71875.0146484375.23046875.0322265625.4541015625.0517578125.673828125l4.4619140625-4.0419921875c-.169921875-.5390625-.421875-.9677734375-.7568359375-1.287109375-.333984375-.3193359375-.78515625-.4794921875-1.3544921875-.4794921875-.888671875,0-1.5146484375.3671875-1.87890625,1.1005859375s-.5458984375,1.8388671875-.5458984375,3.3154296875ZM820.265697823198934,1083.132963206229761c0-.5283203125-.029296875-1.0322265625-.0888671875-1.51171875l-4.447265625,4.0576171875c.169921875.568359375.4248046875,1.0224609375.763671875,1.3623046875.33984375.3388671875.7841796875.5087890625,1.3330078125.5087890625.8779296875,0,1.50390625-.3642578125,1.87890625-1.0927734375.3740234375-.728515625.560546875-1.8369140625.560546875-3.32421875Z" fill="#7b2900"/>
          <path d="M661.263256416948934,1098.852689768729761h2.42529296875v6.1982421875h.8232421875l2.94921875-3.2041015625h1.4072265625l-3.30859375,3.5478515625,2.724609375,2.9345703125h.97314453125v1.0029296875h-1.5419921875l-3.20361328125-3.3837890625h-.8232421875v3.3837890625h-1.15283203125v-9.4765625h-1.2724609375v-1.0029296875Z" fill="#7b2900"/>
          <path d="M671.442943916948934,1109.332181956229761v-1.0029296875h2.60498046875v-5.4794921875h-2.60498046875v-1.0029296875h3.78759765625v6.482421875h2.54541015625v1.0029296875h-6.3330078125ZM673.628979073198934,1099.720853831229761c0-.26953125.08984375-.5009765625.26953125-.6962890625.17919921875-.1943359375.40869140625-.2919921875.6884765625-.2919921875.28955078125,0,.53125.09765625.72607421875.2919921875.19482421875.1953125.2919921875.4267578125.2919921875.6962890625,0,.259765625-.09716796875.4794921875-.2919921875.6591796875s-.4365234375.26953125-.72607421875.26953125c-.27978515625,0-.50927734375-.08984375-.6884765625-.26953125-.1796875-.1796875-.26953125-.3994140625-.26953125-.6591796875Z" fill="#7b2900"/>
          <path d="M680.231029854448934,1104.466947581229761c0-.08984375-.00244140625-.20703125-.00732421875-.3525390625-.0048828125-.14453125-.0126953125-.2939453125-.0224609375-.4482421875-.01025390625-.1552734375-.0224609375-.3076171875-.03759765625-.45703125-.0146484375-.1494140625-.0322265625-.279296875-.05224609375-.3896484375h-1.0029296875v-.97265625h2.005859375l.134765625,1.212890625h.0751953125c.099609375-.169921875.23193359375-.3369140625.396484375-.501953125.16455078125-.1640625.35693359375-.314453125.576171875-.44921875.2197265625-.134765625.46435546875-.2412109375.73388671875-.3212890625s.5537109375-.1201171875.85302734375-.1201171875c.458984375,0,.86572265625.0498046875,1.22021484375.1494140625.3544921875.1005859375.64892578125.27734375.88330078125.5322265625.234375.25390625.41162109375.5986328125.53173828125,1.0322265625.11962890625.4345703125.1796875.986328125.1796875,1.654296875v4.296875h-1.18310546875v-4.0625c0-.826171875-.13427734375-1.44921875-.40283203125-1.8671875s-.75537109375-.6279296875-1.46142578125-.6279296875c-.2587890625,0-.509765625.052734375-.75341796875.1572265625s-.46533203125.2412109375-.6640625.4111328125c-.19873046875.1689453125-.37255859375.365234375-.52197265625.58984375-.1494140625.2236328125-.25830078125.4609375-.328125.708984375v4.6904296875h-1.15283203125v-4.865234375Z" fill="#7b2900"/>
          <path d="M695.650951729448934,1109.706205393729761c0,.4697265625-.08984375.880859375-.26953125,1.2353515625s-.4267578125.646484375-.7412109375.8759765625-.68115234375.4013671875-1.10009765625.5166015625c-.41943359375.1142578125-.87353515625.171875-1.3623046875.171875-.58935546875,0-1.10302734375-.0595703125-1.5419921875-.1796875-.439453125-.1201171875-.818359375-.2744140625-1.1376953125-.4638671875l.56689453125-1.0634765625c.08935546875.080078125.20654296875.1572265625.3505859375.232421875.14453125.0751953125.31103515625.14453125.5.2099609375.18896484375.064453125.390625.1171875.60498046875.1572265625.21337890625.0390625.42529296875.0595703125.63427734375.0595703125.4375,0,.80322265625-.0400390625,1.0966796875-.1201171875s.52978515625-.2041015625.708984375-.3740234375.30859375-.3896484375.38818359375-.6591796875c.07958984375-.2685546875.11962890625-.5986328125.11962890625-.9873046875v-.8388671875h-.0595703125c-.22900390625.3291015625-.52294921875.583984375-.88134765625.763671875-.35791015625.1796875-.8212890625.26953125-1.388671875.26953125-1.134765625,0-1.96826171875-.31640625-2.50048828125-.9501953125-.53271484375-.6337890625-.798828125-1.6201171875-.798828125-2.95703125,0-1.27734375.3388671875-2.2431640625,1.017578125-2.8974609375.6787109375-.6533203125,1.6865234375-.98046875,3.0244140625-.98046875.61865234375,0,1.14501953125.04296875,1.5791015625.1279296875.4345703125.0849609375.8310546875.1923828125,1.1904296875.3212890625v7.5302734375ZM692.312084541948934,1108.508939768729761c.6044921875,0,1.08056640625-.1572265625,1.42724609375-.4716796875.34716796875-.314453125.58984375-.7958984375.72900390625-1.4443359375v-3.548828125c-.4365234375-.208984375-1.0458984375-.314453125-1.8291015625-.314453125-.79296875,0-1.41748046875.2353515625-1.87353515625.7041015625s-.68408203125,1.1875-.68408203125,2.1552734375c0,.4296875.03955078125.8212890625.119140625,1.17578125.0791015625.3544921875.20556640625.6611328125.37890625.9208984375.173828125.259765625.4013671875.4619140625.68408203125.6064453125s.6318359375.216796875,1.04833984375.216796875Z" fill="#7b2900"/>
          <path d="M699.363354073198934,1106.323392893729761l.0751953125.97265625h.1044921875l.20947265625-1.0625,1.10791015625-4.0869140625h.98828125l1.03271484375,4.056640625.26953125,1.107421875h.0751953125l.08935546875-1.017578125,1.10791015625-7.4404296875h1.10791015625l-1.61669921875,10.4794921875h-1.24267578125l-1.21240234375-4.251953125-.14990234375-1.017578125h-.044921875l-.16455078125,1.033203125-1.212890625,4.236328125h-1.25732421875l-1.6318359375-10.4794921875h1.1826171875l1.1826171875,7.470703125Z" fill="#7b2900"/>
          <path d="M706.594799385698934,1105.589017893729761c0-1.20703125.31396484375-2.1630859375.94287109375-2.8662109375.62890625-.7041015625,1.52734375-1.0556640625,2.69482421875-1.0556640625.62890625,0,1.169921875.1025390625,1.62451171875.306640625.4541015625.205078125.83056640625.4814453125,1.1298828125.8310546875.2998046875.349609375.521484375.763671875.66650390625,1.2421875.14453125.4794921875.216796875.994140625.216796875,1.5419921875,0,.599609375-.07958984375,1.140625-.2392578125,1.625s-.39453125.8955078125-.70361328125,1.2353515625c-.3095703125.3388671875-.69140625.6005859375-1.1455078125.78515625s-.970703125.27734375-1.54931640625.27734375c-.619140625,0-1.15771484375-.1025390625-1.61669921875-.306640625-.45947265625-.205078125-.83837890625-.4814453125-1.1376953125-.8310546875-.2998046875-.349609375-.52197265625-.763671875-.66650390625-1.2431640625-.14453125-.478515625-.216796875-.9921875-.216796875-1.5419921875ZM707.836986885698934,1105.589017893729761c0,.349609375.04248046875.69921875.126953125,1.048828125.08447265625.3486328125.2216796875.6630859375.41064453125.9423828125.18896484375.2802734375.43505859375.5048828125.73876953125.673828125.30322265625.169921875.673828125.2548828125,1.11181640625.2548828125.79541015625,0,1.39501953125-.2470703125,1.79833984375-.7412109375.40283203125-.494140625.6044921875-1.2197265625.6044921875-2.1787109375,0-.3583984375-.04248046875-.7109375-.126953125-1.0546875-.0849609375-.3447265625-.22412109375-.65625-.41796875-.935546875-.1943359375-.279296875-.44287109375-.50390625-.74609375-.673828125-.3037109375-.169921875-.67431640625-.2548828125-1.11181640625-.2548828125-.79638671875,0-1.39306640625.2451171875-1.791015625.7333984375-.39794921875.4892578125-.59716796875,1.2177734375-.59716796875,2.185546875Z" fill="#7b2900"/>
          <path d="M715.562084541948934,1105.589017893729761c0-1.20703125.31396484375-2.1630859375.94287109375-2.8662109375.62890625-.7041015625,1.52734375-1.0556640625,2.69482421875-1.0556640625.62890625,0,1.169921875.1025390625,1.62451171875.306640625.4541015625.205078125.83056640625.4814453125,1.1298828125.8310546875.2998046875.349609375.521484375.763671875.66650390625,1.2421875.14453125.4794921875.216796875.994140625.216796875,1.5419921875,0,.599609375-.07958984375,1.140625-.2392578125,1.625s-.39453125.8955078125-.70361328125,1.2353515625c-.3095703125.3388671875-.69140625.6005859375-1.1455078125.78515625s-.970703125.27734375-1.54931640625.27734375c-.619140625,0-1.15771484375-.1025390625-1.61669921875-.306640625-.45947265625-.205078125-.83837890625-.4814453125-1.1376953125-.8310546875-.2998046875-.349609375-.52197265625-.763671875-.66650390625-1.2431640625-.14453125-.478515625-.216796875-.9921875-.216796875-1.5419921875ZM716.804272041948934,1105.589017893729761c0,.349609375.04248046875.69921875.126953125,1.048828125.08447265625.3486328125.2216796875.6630859375.41064453125.9423828125.18896484375.2802734375.43505859375.5048828125.73876953125.673828125.30322265625.169921875.673828125.2548828125,1.11181640625.2548828125.79541015625,0,1.39501953125-.2470703125,1.79833984375-.7412109375.40283203125-.494140625.6044921875-1.2197265625.6044921875-2.1787109375,0-.3583984375-.04248046875-.7109375-.126953125-1.0546875-.0849609375-.3447265625-.22412109375-.65625-.41796875-.935546875-.1943359375-.279296875-.44287109375-.50390625-.74609375-.673828125-.3037109375-.169921875-.67431640625-.2548828125-1.11181640625-.2548828125-.79638671875,0-1.39306640625.2451171875-1.791015625.7333984375-.39794921875.4892578125-.59716796875,1.2177734375-.59716796875,2.185546875Z" fill="#7b2900"/>
          <path d="M728.885815010698934,1098.852689768729761h2.43994140625v7.919921875c0,.08984375.0048828125.2021484375.01513671875.3359375.009765625.134765625.0224609375.27734375.03759765625.4267578125.0146484375.150390625.0322265625.2978515625.05224609375.4423828125s.03955078125.271484375.06005859375.3818359375h1.0029296875v.97265625h-2.00537109375l-.150390625-1.15234375h-.0595703125c-.21923828125.37890625-.54541015625.6953125-.978515625.9501953125s-.93310546875.3818359375-1.50048828125.3818359375c-1.125,0-1.9541015625-.31640625-2.486328125-.9501953125-.53271484375-.6337890625-.798828125-1.6201171875-.798828125-2.95703125,0-.62890625.08935546875-1.185546875.2685546875-1.6689453125.17919921875-.484375.435546875-.888671875.76904296875-1.212890625s.734375-.5712890625,1.2021484375-.7412109375.990234375-.2548828125,1.56787109375-.2548828125c.208984375,0,.3955078125.005859375.5595703125.015625s.31591796875.0244140625.45556640625.044921875c.13916015625.01953125.271484375.046875.3955078125.08203125.12451171875.03515625.26171875.072265625.41064453125.1123046875v-2.1259765625h-1.25732421875v-1.0029296875ZM727.994701729448934,1108.508939768729761c.60693359375,0,1.083984375-.1572265625,1.43212890625-.4716796875s.5869140625-.7861328125.71630859375-1.4150390625v-3.47265625c-.21875-.150390625-.46484375-.259765625-.73828125-.330078125-.27392578125-.0693359375-.63427734375-.1044921875-1.08154296875-.1044921875-.7958984375,0-1.4228515625.232421875-1.88037109375.6962890625s-.68603515625,1.1953125-.68603515625,2.193359375c0,.4091796875.037109375.791015625.11181640625,1.1455078125.07470703125.353515625.19873046875.6611328125.373046875.919921875.173828125.259765625.4052734375.46484375.693359375.6142578125.28857421875.1494140625.6416015625.224609375,1.0595703125.224609375Z" fill="#7b2900"/>
          <path d="M735.233471260698934,1106.323392893729761l.0751953125.97265625h.1044921875l.20947265625-1.0625,1.10791015625-4.0869140625h.98828125l1.03271484375,4.056640625.26953125,1.107421875h.0751953125l.08935546875-1.017578125,1.10791015625-7.4404296875h1.10791015625l-1.61669921875,10.4794921875h-1.24267578125l-1.21240234375-4.251953125-.14990234375-1.017578125h-.044921875l-.16455078125,1.033203125-1.212890625,4.236328125h-1.25732421875l-1.6318359375-10.4794921875h1.1826171875l1.1826171875,7.470703125Z" fill="#7b2900"/>
          <path d="M742.464428291948934,1105.589017893729761c0-1.20703125.31396484375-2.1630859375.94287109375-2.8662109375.62890625-.7041015625,1.52734375-1.0556640625,2.69482421875-1.0556640625.62890625,0,1.169921875.1025390625,1.62451171875.306640625.4541015625.205078125.83056640625.4814453125,1.1298828125.8310546875.2998046875.349609375.521484375.763671875.66650390625,1.2421875.14453125.4794921875.216796875.994140625.216796875,1.5419921875,0,.599609375-.07958984375,1.140625-.2392578125,1.625s-.39453125.8955078125-.70361328125,1.2353515625c-.3095703125.3388671875-.69140625.6005859375-1.1455078125.78515625s-.970703125.27734375-1.54931640625.27734375c-.619140625,0-1.15771484375-.1025390625-1.61669921875-.306640625-.45947265625-.205078125-.83837890625-.4814453125-1.1376953125-.8310546875-.2998046875-.349609375-.52197265625-.763671875-.66650390625-1.2431640625-.14453125-.478515625-.216796875-.9921875-.216796875-1.5419921875ZM743.706615791948934,1105.589017893729761c0,.349609375.04248046875.69921875.126953125,1.048828125.08447265625.3486328125.2216796875.6630859375.41064453125.9423828125.18896484375.2802734375.43505859375.5048828125.73876953125.673828125.30322265625.169921875.673828125.2548828125,1.11181640625.2548828125.79541015625,0,1.39501953125-.2470703125,1.79833984375-.7412109375.40283203125-.494140625.6044921875-1.2197265625.6044921875-2.1787109375,0-.3583984375-.04248046875-.7109375-.126953125-1.0546875-.0849609375-.3447265625-.22412109375-.65625-.41796875-.935546875-.1943359375-.279296875-.44287109375-.50390625-.74609375-.673828125-.3037109375-.169921875-.67431640625-.2548828125-1.11181640625-.2548828125-.79638671875,0-1.39306640625.2451171875-1.791015625.7333984375-.39794921875.4892578125-.59716796875,1.2177734375-.59716796875,2.185546875Z" fill="#7b2900"/>
          <path d="M751.566479073198934,1109.332181956229761v-1.0029296875h2.02099609375v-5.4794921875h-2.02099609375v-1.0029296875h2.79931640625l.23974609375.97265625h.07470703125c.33935546875-.30859375.71875-.5732421875,1.1376953125-.79296875.41943359375-.2197265625.91796875-.3291015625,1.4970703125-.3291015625.33935546875,0,.611328125.064453125.81591796875.1943359375s.3642578125.3193359375.47900390625.5693359375c.11474609375.2490234375.19189453125.55078125.23193359375.9052734375s.06005859375.755859375.06005859375,1.205078125l-1.0478515625.0146484375c0-.6328125-.0625-1.0986328125-.18701171875-1.3955078125-.125-.296875-.35205078125-.4453125-.68115234375-.4453125-.3095703125,0-.58935546875.044921875-.83837890625.134765625-.25.0888671875-.466796875.1982421875-.6513671875.328125-.18505859375.12890625-.34228515625.2587890625-.4716796875.3876953125-.1298828125.1298828125-.224609375.2392578125-.2841796875.328125v4.4052734375h2.8740234375v1.0029296875h-6.0478515625Z" fill="#7b2900"/>
          <path d="M759.905346260698934,1098.852689768729761h2.42529296875v6.1982421875h.8232421875l2.94921875-3.2041015625h1.4072265625l-3.30859375,3.5478515625,2.724609375,2.9345703125h.97314453125v1.0029296875h-1.5419921875l-3.20361328125-3.3837890625h-.8232421875v3.3837890625h-1.15283203125v-9.4765625h-1.2724609375v-1.0029296875Z" fill="#7b2900"/>
          <path d="M776.433666573198934,1108.388822581229761c-.1796875.16015625-.392578125.3095703125-.63671875.44921875s-.51171875.259765625-.80078125.359375c-.291015625.099609375-.591796875.1767578125-.90625.232421875-.314453125.0546875-.630859375.08203125-.951171875.08203125-.59765625,0-1.126953125-.0927734375-1.5859375-.27734375s-.84375-.44921875-1.1533203125-.79296875c-.3095703125-.3447265625-.5439453125-.755859375-.7041015625-1.2353515625-.1591796875-.478515625-.23876953125-1.017578125-.23876953125-1.6171875,0-.6279296875.08642578125-1.1875.26220703125-1.67578125.173828125-.4892578125.42578125-.8984375.755859375-1.228515625.328125-.3291015625.728515625-.5810546875,1.197265625-.755859375.46875-.173828125.9921875-.26171875,1.572265625-.26171875.419921875,0,.833984375.0546875,1.2421875.1650390625.41015625.109375.771484375.31640625,1.0859375.62109375s.556640625.7236328125.7265625,1.2578125c.16796875.533203125.228515625,1.224609375.1796875,2.0732421875h-5.779296875c0,.8984375.240234375,1.5693359375.724609375,2.013671875.482421875.4443359375,1.126953125.666015625,1.93359375.666015625.267578125,0,.53515625-.0322265625.798828125-.09765625.263671875-.064453125.513671875-.1416015625.75390625-.2314453125.23828125-.08984375.44921875-.189453125.634765625-.2998046875.18359375-.109375.326171875-.2099609375.42578125-.2998046875l.462890625.853515625ZM773.281322823198934,1102.655424143729761c-.328125,0-.640625.03515625-.93359375.1044921875-.29296875.0703125-.552734375.1875-.775390625.3515625-.224609375.1650390625-.408203125.3798828125-.552734375.64453125-.14453125.263671875-.236328125.5908203125-.275390625.98046875h4.640625c-.05078125-.6591796875-.26171875-1.169921875-.634765625-1.53515625-.373046875-.3642578125-.86328125-.5458984375-1.46875-.5458984375Z" fill="#7b2900"/>
          <path d="M778.468822823198934,1109.332181956229761v-1.0029296875h2.0205078125v-5.4794921875h-2.0205078125v-1.0029296875h2.7998046875l.2392578125.97265625h.07421875c.33984375-.30859375.71875-.5732421875,1.138671875-.79296875.4189453125-.2197265625.91796875-.3291015625,1.4970703125-.3291015625.3388671875,0,.6103515625.064453125.8154296875.1943359375.2041015625.1298828125.3642578125.3193359375.4794921875.5693359375.1142578125.2490234375.19140625.55078125.2314453125.9052734375s.060546875.755859375.060546875,1.205078125l-1.048828125.0146484375c0-.6328125-.0625-1.0986328125-.1865234375-1.3955078125-.125-.296875-.3515625-.4453125-.681640625-.4453125-.3095703125,0-.5888671875.044921875-.837890625.134765625-.25.0888671875-.466796875.1982421875-.6513671875.328125-.1845703125.12890625-.341796875.2587890625-.4716796875.3876953125-.1298828125.1298828125-.224609375.2392578125-.2841796875.328125v4.4052734375h2.8740234375v1.0029296875h-6.0478515625Z" fill="#7b2900"/>
          <path d="M794.336986885698934,1104.436674143729761c0,.3798828125-.009765625.7841796875-.0302734375,1.212890625-.01953125.4287109375-.03515625.8583984375-.044921875,1.287109375,0,.4990234375.0302734375.9736328125.08984375,1.4228515625h1.0029296875v.97265625h-1.9912109375l-.1337890625-1.123046875h-.0751953125c-.0595703125.08984375-.134765625.205078125-.224609375.3447265625s-.2119140625.2763671875-.3671875.4111328125c-.154296875.134765625-.3564453125.2529296875-.6064453125.3525390625-.2490234375.099609375-.5634765625.1494140625-.9423828125.1494140625-.3203125,0-.6162109375-.0498046875-.890625-.1494140625-.275390625-.099609375-.51171875-.2421875-.7119140625-.4267578125-.19921875-.1845703125-.3564453125-.4072265625-.4716796875-.666015625-.1142578125-.259765625-.171875-.5546875-.171875-.8837890625,0-.5087890625.109375-.9326171875.3291015625-1.2724609375.2197265625-.3388671875.5244140625-.5986328125.9140625-.7783203125.388671875-.1796875.8505859375-.2841796875,1.384765625-.314453125.533203125-.0302734375,1.115234375.009765625,1.744140625.1201171875.029296875-.4990234375.0244140625-.9306640625-.015625-1.294921875s-.1298828125-.6640625-.26953125-.8984375-.3369140625-.4091796875-.5908203125-.5244140625c-.2548828125-.1142578125-.58203125-.171875-.98046875-.171875-.419921875,0-.8359375.1044921875-1.25.314453125-.4150390625.208984375-.78125.5166015625-1.1005859375.9208984375s-.5791015625.8974609375-.7783203125,1.4814453125c-.2001953125.583984375-.2998046875,1.2451171875-.2998046875,1.984375,0,.7880859375.107421875,1.4716796875.322265625,2.05078125.2138671875.578125.5009765625,1.0576171875.8603515625,1.4365234375.359375.3798828125.7763671875.6611328125,1.25.8466796875.4736328125.1845703125.9755859375.2763671875,1.5048828125.2763671875.2197265625,0,.4560546875-.02734375.7109375-.08203125s.50390625-.1328125.7490234375-.232421875c.244140625-.099609375.4736328125-.2216796875.6884765625-.3662109375.2138671875-.1455078125.4013671875-.3076171875.5615234375-.4873046875l.61328125.7939453125c-.4189453125.44921875-.92578125.791015625-1.51953125,1.025390625s-1.2353515625.3515625-1.923828125.3515625c-.5791015625,0-1.1572265625-.0966796875-1.736328125-.2919921875-.5791015625-.1943359375-1.1025390625-.5087890625-1.572265625-.9423828125-.46875-.4345703125-.8505859375-1.00390625-1.1455078125-1.70703125-.2939453125-.7041015625-.44140625-1.564453125-.44140625-2.58203125,0-.98828125.1396484375-1.84375.419921875-2.568359375.279296875-.72265625.6435546875-1.32421875,1.0927734375-1.8037109375.4482421875-.478515625.9580078125-.8359375,1.5263671875-1.0703125.5693359375-.234375,1.142578125-.3515625,1.7216796875-.3515625.51953125,0,.9580078125.064453125,1.3173828125.1943359375s.6484375.3271484375.8681640625.591796875.376953125.5986328125.4716796875,1.0029296875.142578125.8857421875.142578125,1.4443359375ZM791.321361885698934,1108.464017893729761c.2783203125,0,.521484375-.044921875.73046875-.134765625.2080078125-.08984375.3818359375-.2041015625.521484375-.3447265625.138671875-.1396484375.2529296875-.2919921875.3427734375-.4560546875.0888671875-.1650390625.1630859375-.322265625.2236328125-.4716796875v-1.0478515625c-.4677734375-.08984375-.892578125-.134765625-1.2744140625-.134765625-.3828125,0-.712890625.046875-.9912109375.1416015625-.27734375.095703125-.4912109375.2421875-.640625.4423828125-.1484375.19921875-.22265625.458984375-.22265625.7783203125,0,.3291015625.1064453125.6162109375.3193359375.8603515625.2138671875.2451171875.5439453125.3671875.9912109375.3671875Z" fill="#7b2900"/>
          <path d="M803.259838448198934,1109.706205393729761c0,.4697265625-.08984375.880859375-.26953125,1.2353515625s-.4267578125.646484375-.7412109375.8759765625-.6806640625.4013671875-1.1005859375.5166015625c-.4189453125.1142578125-.873046875.171875-1.3623046875.171875-.5888671875,0-1.1025390625-.0595703125-1.5419921875-.1796875-.4384765625-.1201171875-.818359375-.2744140625-1.1376953125-.4638671875l.5673828125-1.0634765625c.08984375.080078125.2060546875.1572265625.3505859375.232421875s.3115234375.14453125.5.2099609375c.189453125.064453125.390625.1171875.6044921875.1572265625.2138671875.0390625.42578125.0595703125.634765625.0595703125.4375,0,.802734375-.0400390625,1.0966796875-.1201171875s.5302734375-.2041015625.708984375-.3740234375c.1796875-.169921875.30859375-.3896484375.3876953125-.6591796875.080078125-.2685546875.1201171875-.5986328125.1201171875-.9873046875v-.8388671875h-.0595703125c-.2294921875.3291015625-.5224609375.583984375-.880859375.763671875s-.8212890625.26953125-1.388671875.26953125c-1.134765625,0-1.96875-.31640625-2.5009765625-.9501953125-.533203125-.6337890625-.798828125-1.6201171875-.798828125-2.95703125,0-1.27734375.3388671875-2.2431640625,1.017578125-2.8974609375.6787109375-.6533203125,1.6865234375-.98046875,3.0244140625-.98046875.6181640625,0,1.1455078125.04296875,1.5791015625.1279296875.4345703125.0849609375.8310546875.1923828125,1.1904296875.3212890625v7.5302734375ZM799.920971260698934,1108.508939768729761c.6044921875,0,1.080078125-.1572265625,1.427734375-.4716796875.3466796875-.314453125.58984375-.7958984375.728515625-1.4443359375v-3.548828125c-.4365234375-.208984375-1.0458984375-.314453125-1.8291015625-.314453125-.79296875,0-1.41796875.2353515625-1.873046875.7041015625-.45703125.46875-.6845703125,1.1875-.6845703125,2.1552734375,0,.4296875.0400390625.8212890625.119140625,1.17578125s.205078125.6611328125.37890625.9208984375.4013671875.4619140625.6845703125.6064453125c.2822265625.14453125.6318359375.216796875,1.0478515625.216796875Z" fill="#7b2900"/>
          <path d="M808.304760323198934,1109.332181956229761v-4.9853515625c0-.2099609375-.0068359375-.4111328125-.0224609375-.6064453125-.0146484375-.1943359375-.0498046875-.369140625-.1044921875-.5234375-.0546875-.1552734375-.134765625-.27734375-.2392578125-.3671875s-.2421875-.134765625-.412109375-.134765625c-.3388671875,0-.6259765625.1396484375-.8603515625.4189453125-.234375.2802734375-.412109375.62890625-.53125,1.0478515625v5.150390625h-1.1376953125v-7.4853515625h.7783203125l.224609375.9130859375h.0595703125c.099609375-.1494140625.197265625-.2919921875.2919921875-.4267578125s.2041015625-.251953125.3291015625-.3515625.2724609375-.1767578125.44140625-.232421875c.169921875-.0546875.384765625-.08203125.64453125-.08203125.1494140625,0,.3037109375.0224609375.4638671875.0673828125.1591796875.044921875.306640625.115234375.44140625.2099609375s.251953125.2216796875.3515625.3818359375c.099609375.1591796875.1650390625.353515625.1953125.5830078125.2294921875-.388671875.486328125-.693359375.7705078125-.9130859375.2841796875-.21875.67578125-.3291015625,1.17578125-.3291015625.3291015625,0,.595703125.0546875.80078125.1650390625.2041015625.109375.3642578125.2666015625.478515625.4716796875.115234375.2041015625.1953125.4482421875.240234375.7333984375.044921875.2841796875.0673828125.6015625.0673828125.9501953125v5.3447265625h-1.138671875v-5.08984375c0-.2099609375-.009765625-.4072265625-.029296875-.591796875-.0205078125-.1845703125-.0576171875-.3466796875-.1123046875-.486328125-.0556640625-.1396484375-.1298828125-.2490234375-.224609375-.3291015625s-.22265625-.1201171875-.3818359375-.1201171875c-.349609375,0-.6435546875.1396484375-.8837890625.4189453125-.2392578125.2802734375-.4189453125.6787109375-.5380859375,1.1982421875v5h-1.138671875Z" fill="#7b2900"/>
          <path d="M814.966869698198934,1102.430814768729761c.4287109375-.2490234375.9130859375-.4287109375,1.4521484375-.5390625.5390625-.109375,1.0673828125-.1650390625,1.5869140625-.1650390625.5087890625,0,.9248046875.080078125,1.25.240234375.32421875.1591796875.578125.3662109375.763671875.62109375.1845703125.25390625.30859375.5439453125.3740234375.8681640625.064453125.32421875.0966796875.6513671875.0966796875.98046875,0,.3798828125-.009765625.7841796875-.029296875,1.212890625-.0205078125.4287109375-.03515625.8583984375-.044921875,1.287109375,0,.4990234375.029296875.9736328125.08984375,1.4228515625h1.0029296875v.97265625h-1.9775390625l-.1337890625-1.123046875h-.0751953125c-.0595703125.08984375-.1494140625.205078125-.26953125.3447265625-.12109375.1396484375-.2783203125.2763671875-.4736328125.4111328125s-.4326171875.2529296875-.712890625.3525390625-.611328125.1494140625-.9912109375.1494140625c-.7412109375,0-1.326171875-.189453125-1.7568359375-.5693359375-.4306640625-.37890625-.6455078125-.8974609375-.6455078125-1.556640625,0-.5087890625.1123046875-.9326171875.337890625-1.2724609375.224609375-.3388671875.5478515625-.5986328125.96875-.7783203125.419921875-.1796875.927734375-.2841796875,1.5234375-.314453125s1.2646484375.009765625,2.0048828125.1201171875c.0498046875-.458984375.0576171875-.8408203125.0224609375-1.1455078125s-.1142578125-.546875-.240234375-.7265625c-.125-.1796875-.2998046875-.306640625-.525390625-.3818359375-.2255859375-.07421875-.50390625-.1123046875-.833984375-.1123046875-.4501953125,0-.880859375.0625-1.2919921875.1875-.41015625.125-.7763671875.251953125-1.0966796875.3818359375l-.375-.8681640625ZM817.181713448198934,1108.464017893729761c.279296875,0,.5390625-.044921875.779296875-.134765625.2392578125-.08984375.44921875-.2041015625.62890625-.3447265625.1787109375-.1396484375.3291015625-.2919921875.4482421875-.4560546875.1201171875-.1650390625.2099609375-.322265625.26953125-.4716796875v-1.0478515625c-.5185546875-.08984375-.998046875-.134765625-1.4365234375-.134765625-.439453125,0-.818359375.046875-1.1376953125.1416015625-.3203125.095703125-.5693359375.2421875-.7490234375.4423828125-.1796875.19921875-.26953125.458984375-.26953125.7783203125,0,.3291015625.1123046875.6162109375.3369140625.8603515625.224609375.2451171875.6015625.3671875,1.1298828125.3671875Z" fill="#7b2900"/>
          <path d="M823.889721260698934,1109.332181956229761v-1.0029296875h2.6044921875v-5.4794921875h-2.6044921875v-1.0029296875h3.787109375v6.482421875h2.544921875v1.0029296875h-6.33203125ZM826.075268135698934,1099.720853831229761c0-.26953125.08984375-.5009765625.26953125-.6962890625.1796875-.1943359375.4091796875-.2919921875.6884765625-.2919921875.2890625,0,.53125.09765625.7255859375.2919921875.1953125.1953125.2919921875.4267578125.2919921875.6962890625,0,.259765625-.0966796875.4794921875-.2919921875.6591796875-.1943359375.1796875-.4365234375.26953125-.7255859375.26953125-.279296875,0-.5087890625-.08984375-.6884765625-.26953125s-.26953125-.3994140625-.26953125-.6591796875Z" fill="#7b2900"/>
          <path d="M833.066479073198934,1098.852689768729761h2.5v7.96484375c0,.6083984375.1025390625,1.0380859375.3076171875,1.287109375.2041015625.25.505859375.3740234375.9052734375.3740234375.279296875,0,.546875-.0498046875.80078125-.1494140625.2548828125-.099609375.537109375-.26953125.845703125-.5087890625l.5390625.8232421875c-.16015625.1396484375-.3349609375.2646484375-.525390625.3740234375-.1904296875.1103515625-.3857421875.2021484375-.5859375.27734375-.2001953125.07421875-.400390625.1318359375-.6005859375.171875s-.3857421875.0595703125-.5556640625.0595703125c-.37109375,0-.701171875-.046875-.9912109375-.1416015625-.291015625-.0947265625-.533203125-.2470703125-.728515625-.45703125s-.3427734375-.486328125-.443359375-.8310546875c-.099609375-.34375-.150390625-.7705078125-.150390625-1.279296875v-6.9619140625h-1.3173828125v-1.0029296875Z" fill="#7b2900"/>
          <path d="M843.740307198198934,1108.508939768729761c0-.3193359375.08984375-.56640625.26953125-.7412109375s.4189453125-.26171875.71875-.26171875c.3193359375,0,.568359375.0869140625.748046875.26171875s.26953125.421875.26953125.7412109375c0,.2890625-.08984375.529296875-.26953125.71875s-.4287109375.2841796875-.748046875.2841796875c-.2998046875,0-.5390625-.0947265625-.71875-.2841796875s-.26953125-.4296875-.26953125-.71875Z" fill="#7b2900"/>
          <path d="M855.792065010698934,1102.999174143729761c-.2294921875-.0791015625-.4765625-.146484375-.7412109375-.2021484375-.2646484375-.0546875-.5263671875-.08203125-.7861328125-.08203125-.9775390625,0-1.7060546875.23046875-2.185546875.6904296875-.4794921875.4609375-.71875,1.19140625-.71875,2.19140625,0,.4404296875.0703125.8330078125.2099609375,1.1787109375.1396484375.3447265625.3388671875.6376953125.5986328125.8779296875s.5712890625.42578125.935546875.5556640625.765625.1953125,1.205078125.1953125c.46875,0,.92578125-.08203125,1.3701171875-.244140625s.8154296875-.3759765625,1.115234375-.6396484375l.5244140625.8681640625c-.140625.1201171875-.314453125.2451171875-.5244140625.3740234375-.2099609375.1298828125-.4521484375.2529296875-.7255859375.3671875-.275390625.115234375-.5791015625.20703125-.9140625.27734375-.333984375.0693359375-.6953125.1044921875-1.0849609375.1044921875-.6494140625,0-1.2197265625-.0927734375-1.7138671875-.27734375s-.90625-.44921875-1.2353515625-.79296875c-.3291015625-.3447265625-.5791015625-.7587890625-.7490234375-1.2431640625-.1689453125-.4833984375-.25390625-1.01953125-.25390625-1.609375,0-.6279296875.0869140625-1.1875.26171875-1.67578125.1748046875-.4892578125.4267578125-.8984375.755859375-1.228515625.330078125-.3291015625.728515625-.5810546875,1.1982421875-.755859375.46875-.173828125.9921875-.26171875,1.5712890625-.26171875.7392578125,0,1.33984375.0654296875,1.8046875.1943359375.4638671875.1298828125.85546875.275390625,1.1748046875.4345703125l-.0146484375.044921875v2.0810546875h-1.078125v-1.4228515625Z" fill="#7b2900"/>
          <path d="M859.041088448198934,1105.589017893729761c0-1.20703125.314453125-2.1630859375.943359375-2.8662109375.6279296875-.7041015625,1.5263671875-1.0556640625,2.6943359375-1.0556640625.62890625,0,1.169921875.1025390625,1.6240234375.306640625.4541015625.205078125.8310546875.4814453125,1.130859375.8310546875.298828125.349609375.521484375.763671875.666015625,1.2421875.14453125.4794921875.216796875.994140625.216796875,1.5419921875,0,.599609375-.080078125,1.140625-.2392578125,1.625-.16015625.484375-.39453125.8955078125-.7041015625,1.2353515625-.30859375.3388671875-.6904296875.6005859375-1.14453125.78515625s-.970703125.27734375-1.5498046875.27734375c-.619140625,0-1.158203125-.1025390625-1.6171875-.306640625-.458984375-.205078125-.837890625-.4814453125-1.1376953125-.8310546875-.298828125-.349609375-.521484375-.763671875-.666015625-1.2431640625-.14453125-.478515625-.216796875-.9921875-.216796875-1.5419921875ZM860.283275948198934,1105.589017893729761c0,.349609375.0419921875.69921875.126953125,1.048828125.0849609375.3486328125.2216796875.6630859375.41015625.9423828125.189453125.2802734375.435546875.5048828125.7392578125.673828125.3037109375.169921875.673828125.2548828125,1.111328125.2548828125.7958984375,0,1.3955078125-.2470703125,1.798828125-.7412109375.40234375-.494140625.6044921875-1.2197265625.6044921875-2.1787109375,0-.3583984375-.04296875-.7109375-.126953125-1.0546875-.0849609375-.3447265625-.2236328125-.65625-.41796875-.935546875s-.4423828125-.50390625-.74609375-.673828125-.673828125-.2548828125-1.1123046875-.2548828125c-.7958984375,0-1.392578125.2451171875-1.791015625.7333984375-.3974609375.4892578125-.5966796875,1.2177734375-.5966796875,2.185546875Z" fill="#7b2900"/>
          <path d="M871.076244698198934,1109.332181956229761v-4.9853515625c0-.2099609375-.0068359375-.4111328125-.0224609375-.6064453125-.0146484375-.1943359375-.0498046875-.369140625-.1044921875-.5234375-.0546875-.1552734375-.134765625-.27734375-.2392578125-.3671875s-.2421875-.134765625-.412109375-.134765625c-.3388671875,0-.6259765625.1396484375-.8603515625.4189453125-.234375.2802734375-.412109375.62890625-.53125,1.0478515625v5.150390625h-1.1376953125v-7.4853515625h.7783203125l.224609375.9130859375h.0595703125c.099609375-.1494140625.197265625-.2919921875.2919921875-.4267578125s.2041015625-.251953125.3291015625-.3515625.2724609375-.1767578125.44140625-.232421875c.169921875-.0546875.384765625-.08203125.64453125-.08203125.1494140625,0,.3037109375.0224609375.4638671875.0673828125.1591796875.044921875.306640625.115234375.44140625.2099609375s.251953125.2216796875.3515625.3818359375c.099609375.1591796875.1650390625.353515625.1953125.5830078125.2294921875-.388671875.486328125-.693359375.7705078125-.9130859375.2841796875-.21875.67578125-.3291015625,1.17578125-.3291015625.3291015625,0,.595703125.0546875.80078125.1650390625.2041015625.109375.3642578125.2666015625.478515625.4716796875.115234375.2041015625.1953125.4482421875.240234375.7333984375.044921875.2841796875.0673828125.6015625.0673828125.9501953125v5.3447265625h-1.138671875v-5.08984375c0-.2099609375-.009765625-.4072265625-.029296875-.591796875-.0205078125-.1845703125-.0576171875-.3466796875-.1123046875-.486328125-.0556640625-.1396484375-.1298828125-.2490234375-.224609375-.3291015625s-.22265625-.1201171875-.3818359375-.1201171875c-.349609375,0-.6435546875.1396484375-.8837890625.4189453125-.2392578125.2802734375-.4189453125.6787109375-.5380859375,1.1982421875v5h-1.138671875Z" fill="#7b2900"/>
        </g>
        <g id="logotype">
          <g>
            <path d="M721.287182137937634,880.608539735141676l-12.644920416501918-31.614494055531395v31.614494055531395h-12.094473828828995v-64.689535630572209h12.094473828828995v25.197734232671792l12.919047203195078-25.197734232671792h12.278687029478533l-14.752407152582236,27.947774156760715,15.11864053959107,36.741761473811493h-12.919047203180526Z" fill="#7b2900"/>
            <path d="M738.504537356440778,880.608539735141676v-64.689535630572209h11.820347042137655v64.689535630572209h-11.820347042137655Z" fill="#7b2900"/>
            <path d="M781.103840008277984,880.608539735141676l-11.451920640798562-48.470001915622561,1.006593560729016,48.470001915622561h-11.17779385412905v-64.689535630572209h15.302853740249702l11.636133841480842,47.461215340601484-1.190806761391286-47.461215340601484h10.903667067430433v64.689535630572209h-15.028726953571095Z" fill="#7b2900"/>
            <path d="M828.486818607769237,834.351991480791185h12.004560242789012v-3.529656505430466c0-4.486907244561735-.458339987349973-6.504480394611164-1.467126562378326-8.609774116390327-1.923273535430781-3.758826499120914-6.870713781641825-7.605373569978838-16.217340700650311-7.605373569978838-7.239140182949996,0-11.728240441820162,2.105293721797352-14.109853964580907,4.214973472167912-4.307080072499957,3.846547070850647-4.032953285810436,10.351027465480001-4.032953285810436,11.728240441811067v36.28122847216946c0,2.385999551370332.276319800979763,5.131653446849668,1.375019962049919,7.425546397891594.366233387019747.916679974699946,1.282913361710598,2.473720123107341,3.206186897141379,4.030760271518375,3.84874008513907,3.114080296800239,8.706266745299217,3.754440470518603,13.469493790869819,3.754440470518603,4.947440246209226,0,10.17120029338912-.73246677402858,14.019940378539104-4.302694043908559,3.114080296811153-3.026359725070506,3.756633484819758-6.780800195600023,3.756633484819758-10.908053096020012v-25.838094406379241h-14.125753318208808l-3.789528699220682,7.468310176620435v2.33446371546961h5.910721774640479v14.294067165228626c0,2.385999551359419.092106600319312,4.951826274780615-2.105293721790076,6.508866423202562-1.46712656237105,1.008786575017439-3.208379911440716,1.100893175349483-3.75882649911,1.100893175349483-.548253573389957,0-3.480313683839995,0-4.855333645880819-1.925466549721023-1.190806761398562-1.649146748728526-1.098700161070155-4.035146300098859-1.098700161070155-5.956226821239397v-32.711001202300395c0-2.657933323771431-.366233387008833-5.500079848181485,2.289506922461442-7.333439797570463,1.467126562380145-1.096507146761724,3.208379911438897-1.18861374709013,3.848740085149984-1.18861374709013,3.024166710778445,0,4.399186672819269,1.64914674873944,4.947440246209226,2.842146524410055,1.008786575010163,1.921080521140539.732466774030399,4.855333645879.732466774030399,5.219374018608505v2.705083131062565Z" fill="#7b2900"/>
          </g>
          <g>
            <polygon points="584.33997820188597 938.012670451771555 577.559211952086116 889.266309996808559 566.289282989720959 889.266309996808559 559.32427663123417 938.012670451771555 552.819821203253014 889.266309996808559 546.063528197688356 889.266309996808559 540.449040322035216 889.266309996808559 532.043615781187327 889.266309996808559 525.905370874550499 901.363000411030953 533.876987425161133 901.363000411030953 541.311031403671223 893.983725184698415 552.269370573219931 953.955804870551219 565.006411316997401 953.955804870551219 571.969246661885336 909.788506827670062 578.199562281650287 953.955804870551219 590.752362916724451 953.955804870551219 603.215263852283897 889.266309996808559 591.118672120515839 889.266309996808559 584.33997820188597 938.012670451771555" fill="#7b2900"/>
            <path d="M626.382248660122059,887.893441521049681c-7.239146166704813,0-11.728210196855798,2.105291097359441-14.109812116032117,4.215022904369107-4.30709361747904,3.846542686969769-4.032953809261016,10.350998114950926-4.032953809261016,11.728210196830332v36.281288505822886c0,2.385943946377665.276310821800507,5.131585373299458,1.375041068267819,7.425458606547181.366210521346147.91675983380992,1.282871672725378,2.473771314729674,3.206192357425607,4.030782795660343,3.848713700590451,3.114121644310217,8.706257948102575,3.754471973861655,13.469461786471584,3.754471973861655,4.947443947041393,0,10.171198715897845-.732421042692295,14.019912416486477-4.302751590279513,3.114121644297484-3.026294275940018,3.756642987444138-6.780766249801673,3.756642987444138-10.907961785789666v-36.009319711200078c0-4.486893016532122-.458281234459719-6.504455427981156-1.467111781397762-8.609746525340597-1.923222002271359-3.758814001059363-6.870665949312752-7.60545537048165-16.21737290940473-7.60545537048165ZM629.956921234923357,944.885508993618714c-1.467111781412314,1.008830546939862-3.20836337102628,1.100901260069804-3.758814001059363,1.100901260069804-.548279616434229,0-3.480332165643631,0-4.855373233927821-1.925491698330006-1.190800959580884-1.649082194038783-1.09873024645276-4.035124822858052-1.09873024645276-5.956175811519643v-32.710957958228391c0-2.658011423420248-.366210521344328-5.500164273100381,2.289531206050015-7.333486575840652,1.467111781395943-1.096559232868458,3.208462053456969-1.188629945991124,3.848713700588632-1.188629945991124,3.024221944768215,0,4.399263013036034,1.6491808764913,4.947542629470263,2.842152849672857,1.008731864507354,1.921050988668867.732421042675924,4.855373233909631.732421042675924,5.219412741669657v33.443379000887944c0,2.386042628819268.092070713144494,4.951884656682523-2.105291097344889,6.508896137609554Z" fill="#7b2900"/>
            <path d="M670.260111117129782,887.893441521049681c-7.239146166688442,0-11.728210196839427,2.105291097359441-14.109812116015746,4.215022904369107-4.307093617493592,3.846542686969769-4.032953809261016,10.350998114950926-4.032953809261016,11.728210196830332v36.281288505822886c0,2.385943946377665.276310821800507,5.131585373299458,1.374942385824397,7.425458606547181.366309203789569.91675983380992,1.282970355152429,2.473771314729674,3.206192357440159,4.030782795660343,3.84881238300477,3.114121644310217,8.706356630529626,3.754471973861655,13.469560468882264,3.754471973861655,4.947443947057764,0,10.171198715914215-.732421042692295,14.019912416488296-4.302751590279513,3.114121644313855-3.026294275940018,3.75664298745869-6.780766249801673,3.75664298745869-10.907961785789666v-36.009319711200078c0-4.486893016532122-.458379916903141-6.504455427981156-1.467111781395943-8.609746525340597-1.9233206847166-3.758814001059363-6.870764631757993-7.60545537048165-16.217372909421101-7.60545537048165ZM673.83468500950039,944.885508993618714c-1.467013098979805,1.008830546939862-3.208363371024461,1.100901260069804-3.758814001057544,1.100901260069804-.548180933988988,0-3.48033216564545,0-4.85527455148258-1.925491698330006-1.190800959597254-1.649082194038783-1.098730246467312-4.035124822858052-1.098730246467312-5.956175811519643v-32.710957958228391c0-2.658011423420248-.366210521346147-5.500164273100381,2.289531206062748-7.333486575840652,1.467111781397762-1.096559232868458,3.208363371011728-1.188629945991124,3.848713700574081-1.188629945991124,3.024123262339344,0,4.399164330619897,1.6491808764913,4.947443947054126,2.842152849672857,1.00883054692531,1.921050988668867.732421042677743,4.855373233909631.732421042677743,5.219412741669657v33.443379000887944c0,2.386042628819268.092169395560632,4.951884656682523-2.10529109736126,6.508896137609554Z" fill="#7b2900"/>
            <path d="M727.335565248435159,892.472502354241442c-3.482503179244304-2.929881535612367-7.147075453574871-3.206192357432883-8.888327043205209-3.206192357432883h-21.899408912737272v64.68949487374266h19.149326776185262c3.574672574803117,0,6.965006358486789-.092070713129942,10.263368111473028-2.017562411452673,2.565743345434385-1.464940767789813,5.679864989731868-4.947443947039574,6.046075511063464-11.820280909949361.092169395573364-1.1886299459984.092169395573364-2.381601919179957.092169395573364-3.570330547609046v-30.237186643469613c0-5.315924164420721-.366309203791388-10.079128002769721-4.763203838352638-13.837942003829085ZM720.188489794860288,905.301613811130665v32.250505710140715c0,3.210534384630591-.276310821816878,6.048345207120292-4.125024522405511,6.780766249798035-1.098730246465493.184240108690574-2.289531206048196.184240108690574-3.388261452515508.184240108690574h-4.215022904365469v-45.812038209718594h4.671231807671575c1.833322302743909,0,3.848713700588632-.184240108690574,5.407896195112698,1.096460550419579,1.739080576031483,1.469282795009349,1.649180876502214,3.482503179238847,1.649180876502214,5.500065590669692Z" fill="#7b2900"/>
            <path d="M822.806894168539657,887.893441521049681c-7.239146166701175,0-11.728308879270116,2.105291097359441-14.109910798460987,4.215022904369107-4.30709361747904,3.846542686969769-4.032953809279206,10.350998114950926-4.032953809279206,11.728210196830332v36.281288505822886c0,2.385943946377665.276310821829611,5.131585373299458,1.375041068278733,7.425458606547181.366210521349785.91675983380992,1.282871672730835,2.473771314729674,3.206192357431064,4.030782795660343,3.848713700570443,3.114121644310217,8.706257948098937,3.754471973861655,13.469461786449756,3.754471973861655,4.947443947059583,0,10.171198715919672-.732421042692295,14.020011098940813-4.302751590279513,3.114022961868613-3.026294275940018,3.75664298745869-6.780766249801673,3.75664298745869-10.907961785789666v-36.009319711200078c0-4.486893016532122-.458379916899503-6.504455427981156-1.467210463850279-8.609746525340597-1.92322200226954-3.758814001059363-6.870665949320028-7.60545537048165-16.217274226968584-7.60545537048165ZM826.381468060899351,944.885508993618714c-1.4671117814014,1.008830546939862-3.208363371009909,1.100901260069804-3.758814001050268,1.100901260069804-.548279616430591,0-3.480332165639993,0-4.85537323392964-1.925491698330006-1.190800959580884-1.649082194038783-1.098631564020252-4.035124822858052-1.098631564020252-5.956175811519643v-32.710957958228391c0-2.658011423420248-.366309203789569-5.500164273100381,2.289432523619325-7.333486575840652,1.467210463841184-1.096559232868458,3.208363371009909-1.188629945991124,3.848812383021141-1.188629945991124,3.024123262339344,0,4.399164330608983,1.6491808764913,4.947345264608884,2.842152849672857,1.008830546939862,1.921050988668867.732519725121165,4.855373233909631.732519725121165,5.219412741669657v33.443379000887944c0,2.386042628819268.092070713119028,4.951884656682523-2.105291097370355,6.508896137609554Z" fill="#7b2900"/>
            <path d="M884.438694714959638,912.538588964238443v-11.728210196837608c0-7.877325482651941-3.756642987451414-11.544068770592276-11.636139483711304-11.544068770592276h-23.822729597459329v64.68949487374266h11.912450305530001v-28.680175162549858h4.489162712579855l9.16236816897981,28.680175162549858h12.368560526390866l-10.076858306740178-30.329356039041159c5.679864989719135-1.741251589610329,7.603185674430279-4.671133125219058,7.603185674430279-11.087859867271618ZM872.620486136158434,909.608707428629714c0,4.671133125219058-1.374942385838949,6.136073893030698-5.497894577079933,6.136073893030698h-6.230315619759494v-17.223933760309592h6.230315619759494c4.122952191240984,0,5.497894577079933,1.280700659110153,5.497894577079933,5.315825481979118v5.772034385299776Z" fill="#7b2900"/>
            <polygon points="930.149879474718546 889.266309996808559 917.871218647849673 889.266309996808559 904.952108808978664 914.464080662539345 904.952108808978664 889.266309996808559 892.857688090809461 889.266309996808559 892.857688090809461 953.955804870551219 904.952108808978664 953.955804870551219 904.952108808978664 922.341307462760597 917.597078839649839 953.955804870551219 930.516089996068331 953.955804870551219 915.39744733311818 917.214064116658847 930.149879474718546 889.266309996808559" fill="#7b2900"/>
            <polygon points="946.726851182238534 925.279675687899726 965.051686202628844 925.279675687899726 965.051686202628844 915.476858506921417 946.726851182238534 915.476858506921417 946.726851182238534 899.069028495341627 966.15041644908888 899.069028495341627 966.15041644908888 889.266309996808559 934.814400876719446 889.266309996808559 934.814400876719446 953.955804870551219 967.06707760046811 953.955804870551219 967.06707760046811 943.968846263320302 946.726851182238534 943.968846263320302 946.726851182238534 925.279675687899726" fill="#7b2900"/>
            <path d="M1000.870154081889268,923.626448831510061c5.679963672178928-1.741251589610329,7.603185674459382-4.671133125219058,7.603185674459382-11.087859867271618v-11.728210196837608c0-7.877325482651941-3.756642987460509-11.544068770592276-11.636139483720399-11.544068770592276h-23.822630915019545v64.68949487374266h11.912351623099312v-28.680175162549858h4.489064030130976l9.1624668514105,28.680175162549858h12.370830222429504l-10.07912800278973-30.329356039041159ZM996.655229859979954,909.608707428629714c0,4.671133125219058-1.375041068291466,6.136073893030698-5.497894577081752,6.136073893030698h-6.230414302190184v-17.223933760309592h6.230414302190184c4.122853508790286,0,5.497894577081752,1.280700659110153,5.497894577081752,5.315825481979118v5.772034385299776Z" fill="#7b2900"/>
          </g>
        </g>
        <g id="Crown-2" data-name="Crown">
          <polygon id="bottom-2" data-name="bottom" points="750.64289862440819 963.930283437468461 786.396312734319508 963.930283437468461 787.932751858928896 955.52182755729882 749.106382404148462 955.52182755729882 750.64289862440819 963.930283437468461" fill="#febe10"/>
          <polygon id="top-2" data-name="top" points="787.669007654749294 889.263323971310456 781.164525116499135 938.009667263391748 774.199550286059093 889.263323971310456 762.839661072657691 889.263323971310456 755.874609146578223 938.009667263391748 749.370203703978405 889.263323971310456 736.999359287556217 889.263323971310456 748.817890497659391 953.942908731878561 761.556789526997818 953.942908731878561 768.270740934798596 911.354425954650651 768.519605679348388 909.775507129208563 768.768470423909093 911.354425954650651 775.482421831728061 953.942908731878561 788.221320861059212 953.942908731878561 800.039852071149653 889.263323971310456 787.669007654749294 889.263323971310456" fill="#febe10"/>
        </g>
        <g id="y-guides">
          <line x1="768.519596920137701" y1="646.732623979260097" x2="768.519596920137701" y2="1131.785253973819636" fill="none" stroke="#1c0100" stroke-miterlimit="10"/>
          <!-- Vertical scale animation: scale up 1s, stay 2s, scale down 1s, stay hidden 2s, repeat -->
          <animateTransform attributeName="transform" attributeType="XML" type="scale" values="1 0; 1 1; 1 1; 1 0; 1 0" dur="6s" repeatCount="indefinite" keyTimes="0; 0.167; 0.5; 0.667; 1"/>
        </g>
        <circle id="monogram-save-area" cx="768.519641378460165" cy="926.59680863822723" r="71.971853485854581" fill="none" stroke="#1c0100" stroke-miterlimit="10" stroke-dasharray="452.22" stroke-dashoffset="452.22" transform="rotate(-90 768.519641378460165 926.59680863822723)">
          <!-- Drawing animation: stroke draws clockwise 1s, stay 2s, undraw 1s, stay hidden 2s, repeat -->
          <animate attributeName="stroke-dashoffset" values="452.22; 0; 0; 452.22; 452.22" dur="6s" repeatCount="indefinite" keyTimes="0; 0.167; 0.5; 0.667; 1"/>
        </circle>
        <g id="x-guides">
          <line x1="257.558778248130693" y1="889.250219043860852" x2="1279.480422745207761" y2="889.267972981979256" fill="none" stroke="#1c0100" stroke-miterlimit="10"/>
          <!-- Horizontal scale animation: scale up 1s, stay 2s, scale down 1s, stay hidden 2s, repeat -->
          <animateTransform attributeName="transform" attributeType="XML" type="scale" values="0 1; 1 1; 1 1; 0 1; 0 1" dur="6s" repeatCount="indefinite" keyTimes="0; 0.167; 0.5; 0.667; 1"/>
        </g>
      </g>
    </g>
  </g>
</svg>