<?xml version="1.0" encoding="UTF-8"?>
<svg id="logo-align" xmlns="http://www.w3.org/2000/svg" viewBox="0 0 2048 1536">
  <defs>
    <style>
      .cls-1, .cls-2 {
        fill: none;
        stroke: #1c0100;
        stroke-miterlimit: 10;
      }

      .cls-3 {
        fill: #7b2900;
      }

      .cls-2 {
        stroke-width: .93px;
      }

      .cls-4 {
        fill: #fff;
      }

      .cls-5 {
        fill: #febe10;
      }
    </style>
  </defs>
  <g id="bg-2" data-name="bg">
    <rect class="cls-4" y="0" width="2048" height="1536"/>
  </g>
  <g id="logotype">
    <g>
      <path class="cls-3" d="M874.43,740.59l-40.04-100.11v100.11h-38.3v-204.85h38.3v79.79l40.91-79.79h38.88l-46.72,88.5,47.88,116.35h-40.91Z"/>
      <path class="cls-3" d="M928.95,740.59v-204.85h37.43v204.85h-37.43Z"/>
      <path class="cls-3" d="M1063.85,740.59l-36.27-153.49,3.19,153.49h-35.4v-204.85h48.46l36.85,150.3-3.77-150.3h34.53v204.85h-47.59Z"/>
      <path class="cls-3" d="M1213.9,594.11h38.02v-11.18c0-14.21-1.45-20.6-4.65-27.26-6.09-11.9-21.76-24.08-51.36-24.08-22.92,0-37.14,6.67-44.68,13.35-13.64,12.18-12.77,32.78-12.77,37.14v114.89c0,7.56.88,16.25,4.35,23.51,1.16,2.9,4.06,7.83,10.15,12.76,12.19,9.86,27.57,11.89,42.65,11.89s32.21-2.32,44.4-13.63c9.86-9.58,11.9-21.47,11.9-34.54v-81.82h-44.73l-12,23.65v7.39h18.72v45.27c0,7.56.29,15.68-6.67,20.61-4.65,3.19-10.16,3.49-11.9,3.49s-11.02,0-15.38-6.1c-3.77-5.22-3.48-12.78-3.48-18.86v-103.59c0-8.42-1.16-17.42,7.25-23.22,4.65-3.47,10.16-3.76,12.19-3.76,9.58,0,13.93,5.22,15.67,9,3.19,6.08,2.32,15.38,2.32,16.53v8.57Z"/>
    </g>
    <g>
      <polygon class="cls-3" points="440.75 922.38 419.28 768.01 383.59 768.01 361.54 922.38 340.94 768.01 319.54 768.01 301.76 768.01 275.15 768.01 255.71 806.32 280.95 806.32 304.49 782.95 339.2 972.86 379.53 972.86 401.58 833 421.31 972.86 461.06 972.86 500.53 768.01 462.22 768.01 440.75 922.38"/>
      <path class="cls-3" d="M573.89,763.66c-22.92,0-37.14,6.67-44.68,13.35-13.64,12.18-12.77,32.78-12.77,37.14v114.89c0,7.56.88,16.25,4.35,23.51,1.16,2.9,4.06,7.83,10.15,12.76,12.19,9.86,27.57,11.89,42.65,11.89s32.21-2.32,44.4-13.63c9.86-9.58,11.9-21.47,11.9-34.54v-114.03c0-14.21-1.45-20.6-4.65-27.26-6.09-11.9-21.76-24.08-51.36-24.08ZM585.21,944.14c-4.65,3.19-10.16,3.49-11.9,3.49s-11.02,0-15.38-6.1c-3.77-5.22-3.48-12.78-3.48-18.86v-103.59c0-8.42-1.16-17.42,7.25-23.22,4.65-3.47,10.16-3.76,12.19-3.76,9.58,0,13.93,5.22,15.67,9,3.19,6.08,2.32,15.38,2.32,16.53v105.91c0,7.56.29,15.68-6.67,20.61Z"/>
      <path class="cls-3" d="M712.84,763.66c-22.92,0-37.14,6.67-44.68,13.35-13.64,12.18-12.77,32.78-12.77,37.14v114.89c0,7.56.88,16.25,4.35,23.51,1.16,2.9,4.06,7.83,10.15,12.76,12.19,9.86,27.57,11.89,42.65,11.89s32.21-2.32,44.4-13.63c9.86-9.58,11.9-21.47,11.9-34.54v-114.03c0-14.21-1.45-20.6-4.65-27.26-6.09-11.9-21.76-24.08-51.36-24.08ZM724.16,944.14c-4.65,3.19-10.16,3.49-11.9,3.49s-11.02,0-15.38-6.1c-3.77-5.22-3.48-12.78-3.48-18.86v-103.59c0-8.42-1.16-17.42,7.25-23.22,4.65-3.47,10.16-3.76,12.19-3.76,9.58,0,13.93,5.22,15.67,9,3.19,6.08,2.32,15.38,2.32,16.53v105.91c0,7.56.29,15.68-6.67,20.61Z"/>
      <path class="cls-3" d="M893.58,778.16c-11.03-9.28-22.63-10.15-28.15-10.15h-69.35v204.85h60.64c11.32,0,22.06-.29,32.5-6.39,8.13-4.64,17.99-15.67,19.15-37.43.29-3.76.29-7.54.29-11.31v-95.75c0-16.83-1.16-31.92-15.08-43.82ZM870.95,818.79v102.13c0,10.17-.88,19.15-13.06,21.47-3.48.58-7.25.58-10.73.58h-13.35v-145.07h14.79c5.81,0,12.19-.58,17.13,3.47,5.51,4.65,5.22,11.03,5.22,17.42Z"/>
      <path class="cls-3" d="M1195.91,763.66c-22.92,0-37.14,6.67-44.68,13.35-13.64,12.18-12.77,32.78-12.77,37.14v114.89c0,7.56.88,16.25,4.35,23.51,1.16,2.9,4.06,7.83,10.15,12.76,12.19,9.86,27.57,11.89,42.65,11.89s32.21-2.32,44.4-13.63c9.86-9.58,11.9-21.47,11.9-34.54v-114.03c0-14.21-1.45-20.6-4.65-27.26-6.09-11.9-21.76-24.08-51.36-24.08ZM1207.23,944.14c-4.65,3.19-10.16,3.49-11.9,3.49s-11.02,0-15.38-6.1c-3.77-5.22-3.48-12.78-3.48-18.86v-103.59c0-8.42-1.16-17.42,7.25-23.22,4.65-3.47,10.16-3.76,12.19-3.76,9.58,0,13.93,5.22,15.67,9,3.19,6.08,2.32,15.38,2.32,16.53v105.91c0,7.56.29,15.68-6.67,20.61Z"/>
      <path class="cls-3" d="M1391.08,841.71v-37.14c0-24.95-11.9-36.56-36.85-36.56h-75.44v204.85h37.72v-90.82h14.22l29.01,90.82h39.17l-31.91-96.04c17.99-5.51,24.08-14.79,24.08-35.11ZM1353.66,832.43c0,14.79-4.35,19.43-17.41,19.43h-19.73v-54.54h19.73c13.06,0,17.41,4.06,17.41,16.83v18.28Z"/>
      <polygon class="cls-3" points="1535.84 768.01 1496.96 768.01 1456.04 847.8 1456.04 768.01 1417.74 768.01 1417.74 972.86 1456.04 972.86 1456.04 872.75 1496.09 972.86 1537 972.86 1489.12 856.51 1535.84 768.01"/>
      <polygon class="cls-3" points="1588.33 882.05 1646.36 882.05 1646.36 851.01 1588.33 851.01 1588.33 799.05 1649.84 799.05 1649.84 768.01 1550.61 768.01 1550.61 972.86 1652.75 972.86 1652.75 941.24 1588.33 941.24 1588.33 882.05"/>
      <path class="cls-3" d="M1759.79,876.82c17.99-5.51,24.08-14.79,24.08-35.11v-37.14c0-24.95-11.9-36.56-36.85-36.56h-75.44v204.85h37.72v-90.82h14.22l29.02,90.82h39.18l-31.92-96.04ZM1746.44,832.43c0,14.79-4.35,19.43-17.41,19.43h-19.73v-54.54h19.73c13.06,0,17.41,4.06,17.41,16.83v18.28Z"/>
    </g>
  </g>
  <g id="Crown">
    <polygon id="bottom" class="cls-5" points="967.39 1004.45 1080.61 1004.45 1085.48 977.82 962.52 977.82 967.39 1004.45"/>
    <polygon id="top" class="cls-5" points="1084.64 768 1064.04 922.37 1041.99 768 1006.01 768 983.96 922.37 963.36 768 924.18 768 961.61 972.82 1001.95 972.82 1023.21 837.96 1024 832.96 1024.79 837.96 1046.05 972.82 1086.39 972.82 1123.82 768 1084.64 768"/>
  </g>
  <g id="crow-shine-mask">
    <polygon id="bottom-2" data-name="bottom" class="cls-5" points="967.39 1004.45 1080.61 1004.45 1085.48 977.82 962.52 977.82 967.39 1004.45"/>
    <polygon id="top-2" data-name="top" class="cls-5" points="1084.64 768 1064.04 922.37 1041.99 768 1006.01 768 983.96 922.37 963.36 768 924.18 768 961.61 972.82 1001.95 972.82 1023.21 837.96 1024 832.96 1024.79 837.96 1046.05 972.82 1086.39 972.82 1123.82 768 1084.64 768"/>
  </g>
  <g id="y-guides">
    <line class="cls-1" x1="796.09" y1="421.86" x2="796.09" y2="1114.14"/>
    <line class="cls-1" x1="1251.91" y1="421.86" x2="1251.91" y2="1114.14"/>
    <line class="cls-1" x1="1024" y1="-.03" x2="1024" y2="1536"/>
    <line class="cls-1" x1="1791.71" y1="531.54" x2="1791.71" y2="1004.49"/>
    <line class="cls-1" x1="256.29" y1="531.62" x2="256.29" y2="1004.49"/>
    <!-- Vertical scale animation: scale up 1s, stay 2s, scale down 1s, stay hidden 2s, repeat -->
    <animateTransform attributeName="transform" attributeType="XML" type="scale" values="1 0; 1 1; 1 1; 1 0; 1 0" dur="6s" repeatCount="indefinite" keyTimes="0; 0.167; 0.5; 0.667; 1"/>
  </g>
  <circle id="monogram-save-area" class="cls-1" cx="1024" cy="886.22" r="227.91" stroke-dasharray="1431.5" stroke-dashoffset="1431.5" transform="rotate(-90 1024 886.22)">
    <!-- Drawing animation: stroke draws clockwise 1s, stay 2s, undraw 1s, stay hidden 2s, repeat -->
    <animate attributeName="stroke-dashoffset" values="1431.5; 0; 0; 1431.5; 1431.5" dur="6s" repeatCount="indefinite" keyTimes="0; 0.167; 0.5; 0.667; 1"/>
  </circle>
  <g id="x-guides">
    <line class="cls-1" x1="0" y1="767.96" x2="2048" y2="768.01"/>
    <line class="cls-2" x1="256.29" y1="972.78" x2="1791.71" y2="972.86"/>
    <line class="cls-2" x1="256.29" y1="740.55" x2="1791.71" y2="740.64"/>
    <line class="cls-1" x1="256.29" y1="531.54" x2="1791.71" y2="531.62"/>
    <line class="cls-1" x1="256.29" y1="1004.46" x2="1791.71" y2="1004.38"/>
    <!-- Horizontal scale animation: scale up 1s, stay 2s, scale down 1s, stay hidden 2s, repeat -->
    <animateTransform attributeName="transform" attributeType="XML" type="scale" values="0 1; 1 1; 1 1; 0 1; 0 1" dur="6s" repeatCount="indefinite" keyTimes="0; 0.167; 0.5; 0.667; 1"/>
  </g>
</svg>