<?xml version="1.0" encoding="UTF-8"?>
<svg xmlns="http://www.w3.org/2000/svg" xmlns:xlink="http://www.w3.org/1999/xlink" viewBox="0 0 2048 1536">
  <defs>
    <style>
      .cls-1 {
        fill: url(#linear-gradient-2);
      }

      .cls-2 {
        fill: url(#linear-gradient);
      }

      .cls-3 {
        isolation: isolate;
      }

      .cls-4 {
        fill: #7b2900;
      }

      .cls-5 {
        fill: #fff;
      }

      .cls-6 {
        mix-blend-mode: soft-light;
      normal
      multiply
      screen
      overlay
      darken
      lighten
      color-dodge
      color-burn
      hard-light
      soft-light
      difference
      exclusion
      hue
      saturation
      color
      luminosity
      }

      .cls-7 {
        fill: #451700;
      }

      .cls-8 {
        fill: #febe10;
      }
    </style>
    <linearGradient id="linear-gradient" x1="962.52" y1="991.14" x2="1085.48" y2="991.14" gradientUnits="userSpaceOnUse">
      <stop offset="0" stop-color="#000"/>
      <stop offset=".5" stop-color="#fff"/>
      <stop offset="1" stop-color="#000"/>
    </linearGradient>
    <linearGradient id="linear-gradient-2" x1="924.18" y1="870.41" x2="1123.82" y2="870.41" xlink:href="#linear-gradient"/>
    
    <!-- Animated gradient for crown shine effect -->
    <radialGradient id="luz-3d-enfocada"
      cx="50%" cy="0%" r="70%"
      fx="50%" fy="0%"
      spreadMethod="repeat"
      gradientUnits="objectBoundingBox">
      <stop offset="0%" stop-color="black" stop-opacity="0.3" />
      <stop offset="25%" stop-color="white" stop-opacity="0" />
      <stop offset="50%" stop-color="white" stop-opacity="1" />
      <stop offset="75%" stop-color="white" stop-opacity="0" />
      <stop offset="100%" stop-color="black" stop-opacity="0.3" />

      <animate attributeName="cy" values="-10%;110%;-10%"
        keyTimes="0;0.5;1"
        dur="12s"
        repeatCount="indefinite"
        calcMode="spline"
        keySplines=".42 0 .58 1; .42 0 .58 1" />
      <animate attributeName="fy" values="-10%;110%;-10%"
        keyTimes="0;0.5;1"
        dur="12s"
        repeatCount="indefinite"
        calcMode="spline"
        keySplines=".42 0 .58 1; .42 0 .58 1" />
    </radialGradient>
    
    <!-- Crown mask for gradient effect -->
    <mask id="crown-mask">
      <polygon fill="white" points="967.39 1004.45 1080.61 1004.45 1085.48 977.82 962.52 977.82 967.39 1004.45"/>
      <polygon fill="white" points="1084.64 768 1064.04 922.37 1041.99 768 1006.01 768 983.96 922.37 963.36 768 924.18 768 961.61 972.82 1001.95 972.82 1023.21 837.96 1024 832.96 1024.79 837.96 1046.05 972.82 1086.39 972.82 1123.82 768 1084.64 768"/>
    </mask>
  </defs>
  <g class="cls-3">
    <g id="logo">
      <g id="bg">
        <rect class="cls-7" width="2048" height="1536"/>
      </g>
      <g id="logotype">
        <polygon points="1024.000118135476441 809.029979266433656 1027.978389258585594 658.309838691071491 1026.6941798774169 809.077004289061733 1035.930084594256186 658.587518010957865 1029.384959320112102 809.218022064193065 1043.867245103469031 659.142538341249747 1032.069178163297693 809.452860783394499 1051.780200578767108 659.974223475172039 1034.743566099779855 809.781234331858286 1059.659310302800804 661.081560132499362 1037.404864799820643 810.202742637000483 1067.494974794057271 662.463199194085973 1040.04983188089318 810.716872155879173 1075.277647502343825 664.117457345562798 1042.675244858035512 811.322996500870431 1082.997846439795467 666.042319128189774 1045.277905069948247 812.020377202823511 1090.646165733209273 668.235439394386049 1047.854641576075664 812.808164610780295 1098.21328708366309 670.694146164933045 1050.402315019895468 813.685398927133065 1105.689991119417755 673.415443884365231 1052.917821453760553 814.651011376994575 1113.067168628300351 676.396017070594098 1055.398096120561604 815.703825510334354 1120.335831655884249 679.632234354316097 1057.840117187677606 816.842558635305977 1127.487124455923549 683.120152903271446 1060.240909428597661 818.06582338100452 1134.512334279712377 686.855523225980505 1062.597547847795795 819.372129387766108 1141.402901991230465 690.833794349095115 1064.907161244365852 820.75988512294316 1148.150432495134737 695.050119362056648 1067.166935710156395 822.227399819941638 1154.746704964880337 699.499361322312325 1069.374118058069143 823.772885538153787 1161.183682858541943 704.176099513888403 1071.526019176406407 825.394459341296169 1167.453523710097215 709.074636051691414 1073.620017305127476 827.090145591475448 1173.54858868426345 714.189002823515693 1075.653561230072228 828.857878356195215 1179.461451883240443 719.512968761255252 1077.624173391206568 830.695503925380763 1185.18490939403091 725.0400474325088 1079.529452901166223 832.600783435340418 1190.711988065284459 730.763504943297448 1081.367078470351771 834.571395596474758 1196.035954003024017 736.676368142274441 1083.134811235071538 836.604939521417691 1201.150320774846477 742.771433116438857 1084.830497485250817 838.698937650140579 1206.048857312653126 749.04127396799413 1086.452071288395018 840.850838768476024 1210.725595504227385 755.478251861655735 1087.997557006607167 843.058021116390591 1215.174837464484881 762.074524331401335 1089.465071703603826 845.317795582179315 1219.391162477448233 768.822054835303788 1090.852827438782697 847.627408978749372 1223.369433600562843 775.712622546821876 1092.159133445544285 849.984047397947506 1227.104803923271902 782.737832370610704 1093.382398191242828 852.38483963886938 1230.592722472227251 789.889125170650004 1094.521131316214451 854.826860705983563 1233.828939755951069 797.157788198233902 1095.57394544955423 857.307135372784614 1236.809512942179936 804.534965707116498 1096.53955789941574 859.822641806649699 1239.530810661612122 812.011669742869344 1097.41679221576851 862.370315250469503 1241.989517432160937 819.578791093323161 1098.204579623725294 864.94705175659692 1244.182637698357212 827.227110386738786 1098.901960325680193 867.549711968509655 1246.107499480984188 834.947309324190428 1099.508084670671451 870.175124945651987 1247.761757632461013 842.729982032475164 1100.022214189548322 872.820092026726343 1249.143396694049443 850.56564652373163 1100.443722494692338 875.481390726765312 1250.250733351376766 858.444756247765326 1100.772096043156125 878.155778663247474 1251.082418485300877 866.357711723063403 1101.00693476235756 880.839997506431246 1251.637438815592759 874.294872232276248 1101.14795253749071 883.530776949128267 1251.915118135479133 882.24656756794684 1101.194977560116968 886.224838691068726 1251.915118135479133 890.203109814177878 1101.14795253749071 888.918900433009185 1251.637438815594578 898.154805149848471 1101.006934762359379 891.609679875704387 1251.082418485300877 906.091965659059497 1100.772096043157944 894.293898718888158 1250.250733351380404 914.004921134357573 1100.443722494692338 896.968286655370321 1249.143396694053081 921.884030858393089 1100.022214189550141 899.629585355411109 1247.761757632464651 929.719695349647736 1099.50808467067327 902.274552436483646 1246.107499480987826 937.502368057934291 1098.901960325682012 904.899965413625978 1244.182637698362669 945.222566995385932 1098.204579623727113 907.502625625540531 1241.989517432166394 952.870886288801557 1097.416792215770329 910.07936213166613 1239.530810661619398 960.438007639255375 1096.539557899417559 912.627035575487753 1236.809512942187212 967.914711675010039 1095.573945449557868 915.142542009351018 1233.828939755958345 975.291889183890817 1094.521131316218089 917.622816676153889 1230.592722472236346 982.560552211474715 1093.382398191246466 920.064837743268072 1227.104803923280997 989.711845011514015 1092.159133445547923 922.465629984189945 1223.369433600571938 996.737054835302843 1090.852827438786335 924.822268403386261 1219.391162477457328 1003.627622546822749 1089.465071703607464 927.131881799958137 1215.174837464495795 1010.375153050725203 1087.997557006610805 929.39165626574686 1210.725595504238299 1016.971425520470802 1086.452071288398656 931.598838613661428 1206.04885731266404 1023.408403414134227 1084.830497485254455 933.750739731996873 1201.15032077485921 1029.6782442656895 1083.134811235075176 935.844737860719761 1196.035954003034931 1035.773309239853916 1081.367078470355409 937.878281785662693 1190.711988065297191 1041.686172438832727 1079.529452901169861 939.848893946798853 1185.184909394043643 1047.409629949621376 1077.624173391212025 941.754173456758508 1179.461451883254995 1052.936708620874924 1075.653561230075866 943.591799025942237 1173.548588684278002 1058.260674558616302 1073.620017305132933 945.359531790663823 1167.453523710111767 1063.375041330438762 1071.526019176411864 947.055218040841282 1161.183682858558313 1068.273577868243592 1069.3741180580746 948.676791843985484 1154.746704964896708 1072.95031605981967 1067.166935710161852 950.222277562197633 1148.150432495151108 1077.399558020075347 1064.907161244371309 951.689792259196111 1141.402901991246836 1081.615883033038699 1062.597547847801252 953.077547994373163 1134.512334279728748 1085.594154156155128 1060.240909428604937 954.383854001136569 1127.48712445593992 1089.329524478864187 1057.840117187683063 955.607118746835113 1120.33583165590062 1092.817443027819536 1055.39809612056888 956.745851871804916 1113.067168628316722 1096.053660311541535 1052.91782145376601 957.798666005146515 1105.689991119435945 1099.03423349777222 1050.402315019902744 958.764278455006206 1098.213287083683099 1101.755531217204407 1047.854641576081121 959.641512771358975 1090.646165733227463 1104.214237987751403 1045.277905069955523 960.42930017931576 1082.997846439811838 1106.407358253949496 1042.675244858040969 961.126680881272478 1075.277647502362015 1108.332220036576473 1040.049831880898637 961.732805226261917 1067.494974794075461 1109.986478188053297 1037.4048647998261 962.246934745140607 1059.659310302818994 1111.368117249639909 1034.743566099785312 962.668443050282804 1051.780200578785298 1112.475453906969051 1032.06917816330315 962.99681659874841 1043.867245103487221 1113.307139040891343 1029.384959320119378 963.231655317949844 1035.930084594276195 1113.862159371185044 1026.694179877424176 963.372673093082994 1027.978389258603784 1114.139838691069599 1024.000118135483717 963.419698115709252 1020.021847012374565 1114.139838691071418 1021.306056393543258 963.372673093082994 1012.070151676703972 1113.862159371186863 1018.615276950848056 963.231655317949844 1004.132991167491127 1113.307139040893162 1015.931058107662466 962.99681659874841 996.220035692193051 1112.47545390697087 1013.256670171180303 962.668443050282804 988.340925968159354 1111.368117249643547 1010.595371471139515 962.246934745142426 980.505261476902888 1109.986478188056935 1007.950404390066979 961.732805226263736 972.722588768616333 1108.332220036580111 1005.324991412924646 961.126680881272478 965.002389831166511 1106.407358253953134 1002.722331201011912 960.429300179319398 957.354070537750886 1104.21423798775686 1000.145594694884494 959.641512771360794 949.786949187295249 1101.755531217211683 997.59792125106469 958.764278455008025 942.310245151542404 1099.034233497777677 995.082414817199606 957.798666005148334 934.933067642659807 1096.05366031155063 992.602140150398554 956.745851871808554 927.66440461507591 1092.817443027826812 990.160119083282552 955.607118746836932 920.513111815036609 1089.329524478871463 987.759326842360679 954.383854001138388 913.487901991247782 1085.594154156162404 985.402688423164363 953.0775479943768 906.597334279729694 1081.615883033049613 983.093075026594306 951.689792259199749 899.849803775825421 1077.399558020086261 980.833300560803764 950.22227756220127 893.253531306079822 1072.950316059830584 978.626118212891015 948.676791843989122 886.816553412418216 1068.273577868254506 976.474217094553751 947.055218040846739 880.546712560862943 1063.375041330451495 974.380218965832682 945.359531790667461 874.451647586696708 1058.260674558627215 972.346675040887931 943.591799025947694 868.538784387719716 1052.936708620887657 970.37606287975359 941.754173456762146 862.815326876931067 1047.409629949634109 968.470783369793935 939.848893946802491 857.2882482056757 1041.68617243884546 966.633157800608387 937.87828178566815 851.964282267936142 1035.773309239868468 964.86542503588862 935.844737860725218 846.849915496111862 1029.678244265702233 963.169738785709342 933.75073973200233 841.951378958307032 1023.408403414148779 961.54816498256514 931.598838613666885 837.274640766732773 1016.971425520487173 960.002679264352992 929.391656265752317 832.825398806475278 1010.375153050741574 958.535164567356333 927.131881799963594 828.609073793511925 1003.62762254683912 957.147408832177462 924.822268403393537 824.630802670397316 996.737054835319213 955.841102825415874 922.465629984195402 820.895432347688256 989.711845011532205 954.61783807971733 920.064837743273529 817.407513798732907 982.560552211492904 953.479104954745708 917.622816676159346 814.171296515009089 975.291889183909007 952.426290821405928 915.142542009358294 811.190723328780223 967.91471167502641 951.460678371544418 912.62703557549321 808.469425609348036 960.438007639273565 950.583444055191649 910.079362131673406 806.010718838799221 952.870886288819747 949.795656647234864 907.502625625545988 803.817598572602947 945.222566995404122 949.098275945279966 904.899965413633254 801.89273678997597 937.502368057952481 948.492151600288707 902.274552436490922 800.238478638499146 929.719695349667745 947.978022081411837 899.629585355418385 798.856839576910716 921.884030858411279 947.556513776267821 896.968286655377597 797.749502919583392 914.004921134375763 947.228140227804033 894.293898718895434 796.917817785659281 906.091965659079506 946.993301508602599 891.609679875711663 796.362797455367399 898.154805149866661 946.852283733469449 888.918900433014642 796.085118135481025 890.203109814196068 946.805258710843191 886.224838691074183 796.085118135481025 882.246567567966849 946.852283733469449 883.530776949133724 796.36279745536558 874.294872232294438 946.99330150860078 880.839997506438522 796.917817785657462 866.357711723081593 947.228140227802214 878.15577866325475 797.749502919579754 858.444756247785335 947.556513776267821 875.481390726770769 798.856839576907078 850.565646523751639 947.978022081410018 872.8200920267318 800.238478638495508 842.729982032495172 948.492151600286888 870.175124945659263 801.892736789970513 834.947309324208618 949.098275945278147 867.549711968516931 803.81759857259749 827.227110386756976 949.795656647233045 864.947051756602377 806.010718838793764 819.578791093341351 950.58344405518983 862.370315250476779 808.46942560934076 812.011669742887534 951.460678371542599 859.822641806655156 811.190723328772947 804.534965707134688 952.42629082140229 857.307135372790071 814.171296515001814 797.157788198252092 953.47910495474207 854.82686070598902 817.407513798723812 789.889125170666375 954.617838079713692 852.384839638874837 820.895432347679161 782.737832370628894 955.841102825412236 849.984047397952963 824.630802670388221 775.712622546840066 957.147408832173824 847.627408978754829 828.60907379350283 768.822054835320159 958.535164567352695 845.317795582184772 832.825398806464364 762.074524331417706 960.002679264349354 843.058021116396048 837.27464076672004 755.478251861672106 961.548164982561502 840.850838768481481 841.951378958296118 749.041273968008682 963.169738785705704 838.698937650146036 846.849915496100948 742.771433116453409 964.865425035884982 836.604939521423148 851.964282267923409 736.676368142288993 966.633157800604749 834.571395596480215 857.288248205662967 730.763504943310181 968.470783369790297 832.600783435344056 862.815326876916515 725.040047432521533 970.376062879748133 830.695503925384401 868.538784387705164 719.512968761267985 972.346675040884293 828.857878356200672 874.451647586682157 714.189002823528426 974.380218965827225 827.090145591479086 880.546712560848391 709.074636051704147 976.474217094548294 825.394459341299807 886.816553412403664 704.176099513899317 978.626118212885558 823.772885538157425 893.253531306063451 699.499361322323239 980.833300560798307 822.227399819945276 899.84980377580905 695.050119362065743 983.093075026588849 820.759885122946798 906.597334279713323 690.83379434910421 985.402688423158907 819.372129387769746 913.487901991231411 686.855523225987781 987.759326842355222 818.065823381006339 920.513111815020238 683.120152903280541 990.160119083277095 816.842558635307796 927.66440461505772 679.632234354323373 992.602140150391278 815.703825510336173 934.933067642643437 676.396017070601374 995.082414817194149 814.651011376996394 942.310245151524214 673.415443884370688 997.597921251057414 813.685398927136703 949.78694918727706 670.694146164938502 1000.145594694879037 812.808164610782114 957.354070537732696 668.235439394391506 1002.722331201004636 812.02037720282533 965.002389831146502 666.042319128193412 1005.324991412919189 811.322996500870431 972.722588768598143 664.117457345566436 1007.950404390061522 810.716872155880992 980.505261476884698 662.463199194089611 1010.595371471134058 810.202742637002302 988.340925968139345 661.081560132501181 1013.256670171173027 809.781234331860105 996.220035692174861 659.974223475173858 1015.931058107657009 809.452860783394499 1004.132991167472937 659.142538341251566 1018.61527695084078 809.218022064193065 1012.070151676683963 658.587518010957865 1021.306056393535982 809.077004289061733 1020.021847012356375 658.309838691071491 1024.000118135476441 809.029979266433656" fill="#7b2900">
          <animateTransform attributeName="transform" attributeType="XML" type="rotate" values="0 1024 886;360 1024 886" dur="4s" repeatCount="indefinite" calcMode="linear"/>
        </polygon>
        <g>
          <path class="cls-5" d="M874.43,740.59l-40.04-100.11v100.11h-38.3v-204.85h38.3v79.79l40.91-79.79h38.88l-46.72,88.5,47.88,116.35h-40.91Z"/>
          <path class="cls-5" d="M928.95,740.59v-204.85h37.43v204.85h-37.43Z"/>
          <path class="cls-5" d="M1063.85,740.59l-36.27-153.49,3.19,153.49h-35.4v-204.85h48.46l36.85,150.3-3.77-150.3h34.53v204.85h-47.59Z"/>
          <path class="cls-5" d="M1213.9,594.11h38.02v-11.18c0-14.21-1.45-20.6-4.65-27.26-6.09-11.9-21.76-24.08-51.36-24.08-22.92,0-37.14,6.67-44.68,13.35-13.64,12.18-12.77,32.78-12.77,37.14v114.89c0,7.56.88,16.25,4.35,23.51,1.16,2.9,4.06,7.83,10.15,12.76,12.19,9.86,27.57,11.89,42.65,11.89s32.21-2.32,44.4-13.63c9.86-9.58,11.9-21.47,11.9-34.54v-81.82h-44.73l-12,23.65v7.39h18.72v45.27c0,7.56.29,15.68-6.67,20.61-4.65,3.19-10.16,3.49-11.9,3.49s-11.02,0-15.38-6.1c-3.77-5.22-3.48-12.78-3.48-18.86v-103.59c0-8.42-1.16-17.42,7.25-23.22,4.65-3.47,10.16-3.76,12.19-3.76,9.58,0,13.93,5.22,15.67,9,3.19,6.08,2.32,15.38,2.32,16.53v8.57Z"/>
        </g>
        <g>
          <polygon class="cls-5" points="440.75 922.38 419.28 768.01 383.59 768.01 361.54 922.38 340.94 768.01 319.54 768.01 301.76 768.01 275.15 768.01 255.71 806.32 280.95 806.32 304.49 782.95 339.2 972.86 379.53 972.86 401.58 833 421.31 972.86 461.06 972.86 500.53 768.01 462.22 768.01 440.75 922.38"/>
          <path class="cls-5" d="M573.89,763.66c-22.92,0-37.14,6.67-44.68,13.35-13.64,12.18-12.77,32.78-12.77,37.14v114.89c0,7.56.88,16.25,4.35,23.51,1.16,2.9,4.06,7.83,10.15,12.76,12.19,9.86,27.57,11.89,42.65,11.89s32.21-2.32,44.4-13.63c9.86-9.58,11.9-21.47,11.9-34.54v-114.03c0-14.21-1.45-20.6-4.65-27.26-6.09-11.9-21.76-24.08-51.36-24.08ZM585.21,944.14c-4.65,3.19-10.16,3.49-11.9,3.49s-11.02,0-15.38-6.1c-3.77-5.22-3.48-12.78-3.48-18.86v-103.59c0-8.42-1.16-17.42,7.25-23.22,4.65-3.47,10.16-3.76,12.19-3.76,9.58,0,13.93,5.22,15.67,9,3.19,6.08,2.32,15.38,2.32,16.53v105.91c0,7.56.29,15.68-6.67,20.61Z"/>
          <path class="cls-5" d="M712.84,763.66c-22.92,0-37.14,6.67-44.68,13.35-13.64,12.18-12.77,32.78-12.77,37.14v114.89c0,7.56.88,16.25,4.35,23.51,1.16,2.9,4.06,7.83,10.15,12.76,12.19,9.86,27.57,11.89,42.65,11.89s32.21-2.32,44.4-13.63c9.86-9.58,11.9-21.47,11.9-34.54v-114.03c0-14.21-1.45-20.6-4.65-27.26-6.09-11.9-21.76-24.08-51.36-24.08ZM724.16,944.14c-4.65,3.19-10.16,3.49-11.9,3.49s-11.02,0-15.38-6.1c-3.77-5.22-3.48-12.78-3.48-18.86v-103.59c0-8.42-1.16-17.42,7.25-23.22,4.65-3.47,10.16-3.76,12.19-3.76,9.58,0,13.93,5.22,15.67,9,3.19,6.08,2.32,15.38,2.32,16.53v105.91c0,7.56.29,15.68-6.67,20.61Z"/>
          <path class="cls-5" d="M893.58,778.16c-11.03-9.28-22.63-10.15-28.15-10.15h-69.35v204.85h60.64c11.32,0,22.06-.29,32.5-6.39,8.13-4.64,17.99-15.67,19.15-37.43.29-3.76.29-7.54.29-11.31v-95.75c0-16.83-1.16-31.92-15.08-43.82ZM870.95,818.79v102.13c0,10.17-.88,19.15-13.06,21.47-3.48.58-7.25.58-10.73.58h-13.35v-145.07h14.79c5.81,0,12.19-.58,17.13,3.47,5.51,4.65,5.22,11.03,5.22,17.42Z"/>
          <path class="cls-5" d="M1195.91,763.66c-22.92,0-37.14,6.67-44.68,13.35-13.64,12.18-12.77,32.78-12.77,37.14v114.89c0,7.56.88,16.25,4.35,23.51,1.16,2.9,4.06,7.83,10.15,12.76,12.19,9.86,27.57,11.89,42.65,11.89s32.21-2.32,44.4-13.63c9.86-9.58,11.9-21.47,11.9-34.54v-114.03c0-14.21-1.45-20.6-4.65-27.26-6.09-11.9-21.76-24.08-51.36-24.08ZM1207.23,944.14c-4.65,3.19-10.16,3.49-11.9,3.49s-11.02,0-15.38-6.1c-3.77-5.22-3.48-12.78-3.48-18.86v-103.59c0-8.42-1.16-17.42,7.25-23.22,4.65-3.47,10.16-3.76,12.19-3.76,9.58,0,13.93,5.22,15.67,9,3.19,6.08,2.32,15.38,2.32,16.53v105.91c0,7.56.29,15.68-6.67,20.61Z"/>
          <path class="cls-5" d="M1391.08,841.71v-37.14c0-24.95-11.9-36.56-36.85-36.56h-75.44v204.85h37.72v-90.82h14.22l29.01,90.82h39.17l-31.91-96.04c17.99-5.51,24.08-14.79,24.08-35.11ZM1353.66,832.43c0,14.79-4.35,19.43-17.41,19.43h-19.73v-54.54h19.73c13.06,0,17.41,4.06,17.41,16.83v18.28Z"/>
          <polygon class="cls-5" points="1535.84 768.01 1496.96 768.01 1456.04 847.8 1456.04 768.01 1417.74 768.01 1417.74 972.86 1456.04 972.86 1456.04 872.75 1496.09 972.86 1537 972.86 1489.12 856.51 1535.84 768.01"/>
          <polygon class="cls-5" points="1588.33 882.05 1646.36 882.05 1646.36 851.01 1588.33 851.01 1588.33 799.05 1649.84 799.05 1649.84 768.01 1550.61 768.01 1550.61 972.86 1652.75 972.86 1652.75 941.24 1588.33 941.24 1588.33 882.05"/>
          <path class="cls-5" d="M1759.79,876.82c17.99-5.51,24.08-14.79,24.08-35.11v-37.14c0-24.95-11.9-36.56-36.85-36.56h-75.44v204.85h37.72v-90.82h14.22l29.02,90.82h39.18l-31.92-96.04ZM1746.44,832.43c0,14.79-4.35,19.43-17.41,19.43h-19.73v-54.54h19.73c13.06,0,17.41,4.06,17.41,16.83v18.28Z"/>
        </g>
      </g>
      
      <g id="Crown">
        <polygon id="bottom" class="cls-8" points="967.39 1004.45 1080.61 1004.45 1085.48 977.82 962.52 977.82 967.39 1004.45"/>
        <polygon id="top" class="cls-8" points="1084.64 768 1064.04 922.37 1041.99 768 1006.01 768 983.96 922.37 963.36 768 924.18 768 961.61 972.82 1001.95 972.82 1023.21 837.96 1024 832.96 1024.79 837.96 1046.05 972.82 1086.39 972.82 1123.82 768 1084.64 768"/>
      </g>
      <g id="crow-shine-mask" class="cls-6">
        <polygon id="bottom-2" data-name="bottom" class="cls-2" points="967.39 1004.45 1080.61 1004.45 1085.48 977.82 962.52 977.82 967.39 1004.45"/>
        <polygon id="top-2" data-name="top" class="cls-1" points="1084.64 768 1064.04 922.37 1041.99 768 1006.01 768 983.96 922.37 963.36 768 924.18 768 961.61 972.82 1001.95 972.82 1023.21 837.96 1024 832.96 1024.79 837.96 1046.05 972.82 1086.39 972.82 1123.82 768 1084.64 768"/>
        <!-- Animated light sweep masked to crown shape -->
        <rect x="922" y="766" width="204" height="242" fill="url(#luz-3d-enfocada)" mask="url(#crown-mask)" style="mix-blend-mode: overlay;" />
      </g>
    </g>
  </g>
</svg>