<?xml version="1.0" encoding="UTF-8"?>
<svg xmlns="http://www.w3.org/2000/svg" xmlns:xlink="http://www.w3.org/1999/xlink" viewBox="0 0 2048 1536">
  <defs>
    <style>
      .cls-1 {
        fill: url(#linear-gradient-2);
      }

      .cls-2 {
        fill: url(#linear-gradient);
      }

      .cls-3 {
        isolation: isolate;
      }

      .cls-4 {
        fill: #7b2900;
      }

      .cls-5 {
        mix-blend-mode: soft-light;
      }

      .cls-6 {
        fill: #451700;
      }

      .cls-7 {
        fill: #febe10;
      }
    </style>
    <linearGradient id="linear-gradient" x1="816.84" y1="1121.52" x2="1231.15" y2="1121.52" gradientUnits="userSpaceOnUse">
      <stop offset="0" stop-color="#000"/>
      <stop offset=".5" stop-color="#fff"/>
      <stop offset="1" stop-color="#000"/>
    </linearGradient>
    <linearGradient id="linear-gradient-2" x1="687.65" y1="714.71" x2="1360.35" y2="714.71" xlink:href="#linear-gradient"/>
    
    <!-- Animated radial gradient for crown shine effect -->
    <radialGradient id="luz-3d-enfocada" cx="1024" cy="369.62" r="400" gradientUnits="userSpaceOnUse">
      <stop offset="0%" stop-color="white" stop-opacity="0.8" />
      <stop offset="25%" stop-color="white" stop-opacity="0.5" />
      <stop offset="60%" stop-color="white" stop-opacity="0.3" />
      <stop offset="75%" stop-color="black" stop-opacity="0.5" />
      <stop offset="100%" stop-color="black" stop-opacity="0.8" />
      
      <animate attributeName="r" values="300;500;300" dur="6s" repeatCount="indefinite" />
    </radialGradient>
    
    <!-- Crown mask for gradient effect -->
    <mask id="crown-mask">
      <polygon fill="white" points="833.24 1166.38 1214.76 1166.38 1231.15 1076.65 816.84 1076.65 833.24 1166.38"/>
      <polygon fill="white" points="1228.34 369.62 1158.93 889.78 1084.61 369.62 963.39 369.62 889.07 889.78 819.66 369.62 687.65 369.62 813.77 1059.81 949.7 1059.81 1021.34 605.35 1024 588.5 1026.66 605.35 1098.3 1059.81 1234.23 1059.81 1360.35 369.62 1228.34 369.62"/>
    </mask>
  </defs>
  <g class="cls-3">
    <g id="monogram">
      <g id="bg-2" data-name="bg">
        <rect class="cls-6" width="2048" height="1536"/>
      </g>
      <polygon points="1023.999999999987267 507.907949436160379 1037.403958525468624 .087730373681552 1033.07708166098746 508.066390485912052 1064.19554491773124 1.023313186402447 1042.143104296199454 508.541520599153046 1090.938159230161546 2.893338948304518 1051.187022353558859 509.332760903028429 1117.599219706602526 5.695529321051254 1060.1978172120198 510.439147393110034 1144.146243951683573 9.426470267319019 1069.164510606053227 511.859332107886075 1170.54688850562161 14.081616210271022 1078.076178000974323 513.591584771043017 1196.768988249734321 19.655295571647002 1086.921961902797193 515.633794899544228 1222.780595594686019 26.140717681702881 1095.691085086426028 517.983474374926118 1248.550019403708575 33.529981052602125 1104.372863726042851 520.637760474688548 1274.045863603365433 41.814083005156135 1112.95672041169928 523.593419360081498 1299.23706543483604 50.982930637202116 1121.432197036267098 526.846850016036115 1324.092933299094511 61.025353120254294 1129.78896753702611 530.394088638450739 1348.583184149898443 71.929115309433655 1138.016850476382388 534.230813463474988 1372.677980389024015 83.680932650107934 1146.105821446381015 538.35235003291109 1396.347966218771035 96.266487363076521 1154.046025281908442 542.753676889323287 1419.564303407487387 109.670445888577888 1161.827788067685105 547.429431693909464 1442.298706424513512 123.876477567870097 1169.441628924443648 552.373917759685355 1464.523476901735194 138.867274539623395 1176.878271559922723 557.581110992019603 1486.211537379793299 154.624572826882286 1184.128655570599221 563.044667228065009 1507.336464297781276 171.129174588911155 1191.183947480390998 568.75792996614382 1527.87252018629988 188.360971510800482 1198.035551502891394 574.713938475671057 1547.794685024580758 206.298969302356454 1204.675120014006097 580.905436277729677 1567.078686723547435 224.921313276407091 1211.094563722253952 587.324879985976622 1585.701030697598981 244.205314975371039 1217.286061524313482 593.964448497091325 1603.639028489156772 264.127479813651007 1223.242070033840719 600.816052519590812 1620.870825411046098 284.663535702166882 1228.955332771920439 607.871344429382589 1637.375427173077696 305.78846262015486 1234.418889007965845 615.121728440058178 1653.132725460338406 327.476523098211146 1239.626082240300093 622.558371075537252 1668.123522432093523 349.701293575431919 1244.570568306076893 630.172211932295795 1682.329554111387552 372.435696592455315 1249.246323110664889 637.953974718071549 1695.733512636890737 395.652033781170758 1253.647649967077086 645.894178553598067 1708.319067349861143 419.322019610916868 1257.769186536514098 653.983149523597604 1720.070884690538151 443.41681585004153 1261.605911361539256 662.211032462952971 1730.97464687972024 467.907066700845462 1265.153149983954791 670.567802963711074 1741.017069362773327 492.762934565102114 1268.406580639910317 679.043279588278892 1750.185916994822037 517.954136396571812 1271.362239525302357 687.627136273935321 1758.470018947376957 543.44998059622958 1274.016525625065697 696.308914913552144 1765.859282318278929 569.219404405252135 1276.366205100450316 705.078038097180979 1772.344704428338446 595.231011750202924 1278.408415228950616 713.923821999003849 1777.918383789714426 621.453111494313816 1280.140667892108468 722.835489393924036 1782.573529732670067 647.853756048250943 1281.560852606884509 731.802182787958373 1786.304470678938742 674.40078029333381 1282.667239096967023 740.812977646418403 1789.106661051688206 701.06184076977388 1283.458479400844226 749.8568957037769 1790.976686813592096 727.804455082203276 1283.933609514086129 758.922918338989803 1791.912269626316629 754.596041474465892 1284.092050563838711 767.999999999989086 1791.912269626316629 781.403958525470443 1283.933609514086129 777.077081660989279 1790.976686813595734 808.195544917733969 1283.458479400846045 786.143104296201273 1789.106661051693663 834.938159230163365 1282.667239096968842 795.187022353560678 1786.304470678947837 861.599219706604345 1281.560852606888147 804.197817212021619 1782.573529732679162 888.146243951687211 1280.140667892112106 813.164510606055956 1777.918383789727159 914.546888505624338 1278.408415228956073 822.076178000976142 1772.344704428351179 940.76898824973614 1276.366205100453953 830.921961902799012 1765.8592823182953 966.780595594687838 1274.016525625072973 839.691085086427847 1758.470018947395147 992.550019403710394 1271.362239525309633 848.37286372604467 1750.185916994842046 1018.045863603368161 1268.406580639917593 856.956720411702008 1741.017069362796974 1043.237065434839678 1265.153149983962066 865.432197036269827 1730.974646879743887 1068.09293329909633 1261.605911361548351 873.788967537027929 1720.070884690565435 1092.583184149902081 1257.769186536523193 882.016850476384207 1708.319067349890247 1116.677980389027653 1253.647649967088 890.105821446383743 1695.73351263692166 1140.347966218772854 1249.246323110675803 898.04602528191117 1682.329554111420293 1163.564303407491025 1244.570568306089626 905.827788067686924 1668.123522432128084 1186.298706424515331 1239.626082240312826 913.441628924445467 1653.132725460374786 1208.523476901737013 1234.418889007978578 920.878271559924542 1637.375427173115895 1230.211537379795118 1228.955332771933172 928.12865557060104 1620.870825411087935 1251.336464297784914 1223.242070033855271 935.183947480392817 1603.639028489196789 1271.872520186301699 1217.286061524328034 942.035551502893213 1585.701030697640817 1291.794685024582577 1211.094563722268504 948.675120014008826 1567.07868672359109 1311.078686723549254 1204.675120014022468 955.094563722255771 1547.794685024628052 1329.7010306976008 1198.035551502907765 961.286061524315301 1527.872520186347174 1347.639028489158591 1191.183947480407369 967.242070033842538 1507.336464297830389 1364.870825411049736 1184.128655570615592 972.955332771922258 1486.211537379844231 1381.375427173079515 1176.878271559940913 978.418889007968573 1464.523476901787944 1397.132725460340225 1169.441628924461838 983.626082240302821 1442.298706424566262 1412.123522432095342 1161.827788067703295 988.570568306079622 1419.564303407543775 1426.329554111389371 1154.046025281926632 993.246323110666708 1396.347966218827423 1439.733512636894375 1146.105821446401023 997.647649967079815 1372.677980389082222 1452.319067349864781 1138.016850476400577 1001.769186536516827 1348.583184149956651 1464.07088469053997 1129.788967537046119 1005.605911361541075 1324.092933299152719 1474.974646879722059 1121.432197036287107 1009.15314998395661 1299.237065434896067 1485.017069362775146 1112.956720411719289 1012.406580639912136 1274.045863603427279 1494.185916994823856 1104.37286372606286 1015.362239525305085 1248.550019403768601 1502.470018947378776 1095.691085086446037 1018.016525625069335 1222.780595594746046 1509.859282318280748 1086.921961902817202 1020.366205100452135 1196.768988249796166 1516.344704428340265 1078.076178000994332 1022.408415228953345 1170.546888505685274 1521.918383789718064 1069.164510606075055 1024.140667892111196 1144.146243951747238 1526.573529732671886 1060.197817212039809 1025.560852606888147 1117.599219706664371 1530.30447067894238 1051.187022353580687 1026.667239096970661 1090.93815923022521 1533.106661051690025 1042.143104296221281 1027.458479400846045 1064.195544917794905 1534.976686813593915 1033.077081661009288 1027.933609514087948 1037.403958525532289 1535.912269626318448 1024.000000000009095 1028.09205056384053 1010.596041474527738 1535.912269626320267 1014.922918339009811 1027.933609514087948 983.804455082265122 1534.976686813597553 1005.856895703796908 1027.458479400847864 957.061840769834816 1533.106661051695482 996.812977646437503 1026.66723909697248 930.400780293394746 1530.304470678949656 987.802182787976562 1025.560852606889966 903.85375604831188 1526.573529732680981 978.835489393943135 1024.140667892114834 877.453111494373843 1521.918383789728978 969.923821999022039 1022.408415228957892 851.231011750262041 1516.344704428354817 961.078038097200078 1020.366205100456682 825.219404405311252 1509.859282318297119 952.308914913570334 1018.016525625074792 799.449980596287787 1502.470018947398785 943.627136273953511 1015.362239525311452 773.95413639663002 1494.185916994845684 935.043279588297082 1012.406580639919412 748.762934565159412 1485.017069362798793 926.567802963729264 1009.153149983964795 723.907066700901851 1474.974646879747525 918.211032462970252 1005.60591136155017 699.416815850097009 1464.070884690567254 909.983149523614884 1001.769186536525922 675.322019610971438 1452.319067349893885 901.894178553614438 997.647649967089819 651.652033781224418 1439.733512636923479 893.95397471808792 993.246323110677622 628.435696592508066 1426.329554111422112 886.172211932312166 988.570568306091445 605.70129357548376 1412.123522432129903 878.558371075552714 983.626082240314645 583.476523098261168 1397.132725460376605 871.121728440073639 978.418889007981306 561.788462620203063 1381.375427173117714 863.871344429397141 972.9553327719359 540.663535702214176 1364.870825411089754 856.816052519605364 967.24207003385709 520.127479813697391 1347.639028489200427 849.964448497104968 961.286061524329853 500.205314975414694 1329.701030697644455 843.324879985990265 955.094563722270323 480.921313276449837 1311.078686723594728 836.90543627774241 948.675120014024287 462.298969302397381 1291.794685024629871 830.71393847568288 942.035551502909584 444.3609715108405 1271.872520186348993 824.757929966155643 935.183947480410097 427.129174588949354 1251.336464297834027 819.044667228075923 928.128655570618321 410.624572826918666 1230.21153737984605 813.581110992030517 920.878271559942732 394.867274539657956 1208.523476901789763 808.37391775969536 913.441628924462748 379.876477567902839 1186.298706424568081 803.429431693918559 905.827788067705114 365.67044588860881 1163.564303407545594 798.753676889331473 898.04602528192936 352.266487363104716 1140.347966218829242 794.352350032918366 890.105821446402842 339.680932650134309 1116.677980389084041 790.230813463482264 882.016850476403306 327.929115309458211 1092.58318414995847 786.394088638457106 873.788967537047938 317.025353120277032 1068.092933299154538 782.846850016041572 865.432197036289836 306.982930637223035 1043.237065434897886 779.593419360086045 856.956720411722017 297.814083005174325 1018.045863603429098 776.637760474693096 848.372863726065589 289.529981052619405 992.55001940377133 773.983474374929756 839.691085086448766 282.140717681717433 966.780595594748775 771.633794899546956 830.92196190281993 275.655295571658826 940.768988249797985 769.591584771044836 822.076178000997061 270.081616210281027 914.546888505687093 767.859332107887894 813.164510606076874 265.426470267326295 888.146243951749966 766.439147393110943 804.197817212042537 261.695529321056711 861.5992197066671 765.332760903028429 795.187022353582506 258.893338948308156 834.938159230227029 764.541520599152136 786.1431042962231 257.023313186403357 808.195544917797633 764.066390485910233 777.077081661010197 256.087730373679733 781.403958525535018 763.90794943615856 768.000000000010914 256.087730373678824 754.596041474530466 764.066390485909324 758.92291833901163 257.023313186399719 727.804455082266941 764.541520599150317 749.856895703798727 258.893338948301789 701.061840769837545 765.33276090302661 740.812977646440231 261.695529321049435 674.400780293396565 766.439147393108215 731.802182787979291 265.42647026731629 647.853756048314608 767.859332107883347 722.835489393944954 270.081616210269203 621.453111494375662 769.591584771040289 713.923821999024767 275.655295571644274 595.23101175026477 771.633794899541499 705.078038097201897 282.140717681701062 569.219404405313981 773.983474374923389 696.308914913573062 289.529981052600306 543.449980596290516 776.637760474686729 687.627136273956239 297.814083005153407 517.954136396632748 779.593419360078769 679.043279588298901 306.982930637199388 492.762934565162141 782.846850016033386 670.567802963731083 317.025353120251566 467.907066700904579 786.394088638448011 662.21103246297298 327.929115309430927 443.416815850098828 790.230813463472259 653.983149523616703 339.680932650105206 419.322019610974166 794.352350032908362 645.894178553617166 352.266487363073793 395.652033781227146 798.753676889320559 637.953974718089739 365.670445888575159 372.435696592510794 803.429431693906736 630.172211932313985 379.876477567867369 349.701293575486488 808.373917759683536 622.558371075555442 394.867274539620666 327.476523098263897 813.581110992016875 615.121728440075458 410.624572826880467 305.788462620206701 819.044667228062281 607.871344429399869 427.129174588909336 284.663535702216905 824.757929966141091 600.816052519607183 444.360971510797754 264.12747981369921 830.713938475668328 593.964448497107696 462.298969302354635 244.205314975417423 836.905436277727858 587.324879985992084 480.921313276404362 224.921313276451656 843.324879985973894 580.905436277745139 500.20531497536831 206.29896930240011 849.964448497089506 574.713938475685609 520.127479813649188 188.360971510843228 856.816052519588993 568.757929966157462 540.663535702164154 171.129174588952083 863.87134442938077 563.044667228077742 561.788462620153041 154.624572826921394 871.121728440056359 557.581110992032336 583.476523098208418 138.867274539659775 878.558371075535433 552.373917759697179 605.7012935754301 123.876477567904658 886.172211932293067 547.429431693921288 628.435696592452587 109.670445888610629 893.953974718068821 542.753676889334201 651.652033781168939 96.266487363107444 901.894178553595339 538.352350032921095 675.32201961091414 83.680932650137038 909.983149523594875 534.230813463484083 699.416815850038802 71.92911530946003 918.211032462950243 530.394088638458925 723.907066700843643 61.025353120278851 926.567802963709255 526.84685001604339 748.762934565100295 50.982930637224854 935.043279588276164 523.593419360088774 773.954136396569083 41.814083005176144 943.627136273933502 520.637760474695824 799.449980596226851 33.529981052621224 952.308914913549415 517.983474374931575 825.219404405249406 26.140717681719252 961.07803809717916 515.633794899548775 851.231011750200196 19.655295571660645 969.92382199900112 513.591584771047565 877.453111494311088 14.081616210282846 978.835489393921307 511.859332107889713 903.853756048248215 9.426470267329023 987.802182787955644 510.439147393113672 930.400780293331081 5.695529321059439 996.812977646416584 509.332760903031158 957.061840769771152 2.893338948309975 1005.856895703775081 508.541520599153955 983.804455082200548 1.023313186406085 1014.922918338987984 508.066390485912052 1010.596041474464073 .087730373682462 1023.999999999987267 507.907949436160379" fill="#7b2900">
        <animateTransform attributeName="transform" attributeType="XML" type="rotate" values="0 1024 768;360 1024 768" dur="4s" repeatCount="indefinite" calcMode="linear"/>
      </polygon>
      <g id="crow">
        <g id="Crown">
          <polygon id="bottom" class="cls-7" points="833.24 1166.38 1214.76 1166.38 1231.15 1076.65 816.84 1076.65 833.24 1166.38"/>
          <polygon id="top" class="cls-7" points="1228.34 369.62 1158.93 889.78 1084.61 369.62 963.39 369.62 889.07 889.78 819.66 369.62 687.65 369.62 813.77 1059.81 949.7 1059.81 1021.34 605.35 1024 588.5 1026.66 605.35 1098.3 1059.81 1234.23 1059.81 1360.35 369.62 1228.34 369.62"/>
        </g>
      </g>
      <g id="crow-shine-mask" class="cls-5">
        <g id="Crown-2" data-name="Crown">
          <polygon id="bottom-2" data-name="bottom" class="cls-2" points="833.24 1166.38 1214.76 1166.38 1231.15 1076.65 816.84 1076.65 833.24 1166.38"/>
          <polygon id="top-2" data-name="top" class="cls-1" points="1228.34 369.62 1158.93 889.78 1084.61 369.62 963.39 369.62 889.07 889.78 819.66 369.62 687.65 369.62 813.77 1059.81 949.7 1059.81 1021.34 605.35 1024 588.5 1026.66 605.35 1098.3 1059.81 1234.23 1059.81 1360.35 369.62 1228.34 369.62"/>
        </g>
        <!-- Animated light sweep masked to crown shape -->
        <rect x="685" y="365" width="680" height="810" fill="url(#luz-3d-enfocada)" mask="url(#crown-mask)" style="mix-blend-mode: overlay;" />
      </g>
    </g>
  </g>
</svg>