<?xml version="1.0" encoding="UTF-8"?>
<svg id="business-card-pencil" xmlns="http://www.w3.org/2000/svg" xmlns:xlink="http://www.w3.org/1999/xlink" viewBox="0 0 2047.999999999996362 1536">
  <defs>
    <style>
      .cls-1 {
        fill: none;
      }

      .cls-2 {
        filter: url(#drop-shadow-1);
      }

      .cls-3 {
        filter: url(#drop-shadow-2);
      }

      .cls-4 {
        font-size: 10.666666984558105px;
      }

      .cls-5, .cls-6 {
        fill: #fff;
      }

      .cls-7 {
        fill: #666;
      }

      .cls-6 {
        stroke: #000;
        stroke-miterlimit: 10;
        stroke-width: .629999983860479px;
      }

      .cls-8 {
        font-family: EurostileLTStd, 'Eurostile LT Std';
      }

      .cls-9 {
        font-size: 19.333337783813477px;
      }

      .cls-9, .cls-10 {
        font-family: EurostileLTStd-Bold, 'Eurostile LT Std';
        font-weight: 700;
      }
    </style>
    <filter id="drop-shadow-1" x="896.110000048394795" y="592.110000048418442" width="257" height="149" filterUnits="userSpaceOnUse">
      <feOffset dx=".629999983860479" dy=".629999983860479"/>
      <feGaussianBlur result="blur" stdDeviation=".629999983860479"/>
      <feFlood flood-color="#000" flood-opacity=".5"/>
      <feComposite in2="blur" operator="in"/>
      <feComposite in="SourceGraphic"/>
    </filter>
    <filter id="drop-shadow-2" x="896.110000048394795" y="796.110000048418442" width="257" height="149" filterUnits="userSpaceOnUse">
      <feOffset dx=".629999983860479" dy=".629999983860479"/>
      <feGaussianBlur result="blur-2" stdDeviation=".629999983860479"/>
      <feFlood flood-color="#000" flood-opacity=".5"/>
      <feComposite in2="blur-2" operator="in"/>
      <feComposite in="SourceGraphic"/>
    </filter>
  </defs>
  <rect class="cls-7" x="255.999997491280737" y="-256.000003344926881" width="1536.000005017391231" height="2048.000006689853763" transform="translate(1791.999999999976353 -255.999999999976353) rotate(90)"/>
  <g>
    <g>
      <g class="cls-2">
        <rect class="cls-6" x="897.999999999979082" y="593.669400993050658" width="251.999999999997272" height="144.210240738495486"/>
      </g>
      <g>
        <g>
          <rect x="910.00801387273259" y="635.654163093848183" width="227.983972254499349" height="60.24071653689316"/>
          <g>
            <path class="cls-5" d="M964.936767245892042,648.056383755429124h-15.750340607957696v35.438185841092491h7.87513809324355v-11.812739350603806h5.377260042566377v.00003221073348h2.49794247214777v10.039280722226977c0,1.087241137396632.881478964457528,1.96878452330202,1.96878452332021,1.96878452330202h1.968784523316572c2.174739960662919,0,3.937569046620411-1.763054561102763,3.937569046620411-3.937601257359347v-2.306610708317749c0-3.183193641114485-2.580659638731959-5.763853279851901-5.764110965720647-5.763853279851901v-.295887808500993c3.318478726643662-.925929778270074,5.764110965720647-3.968394719679054,5.764110965720647-7.579314706214063v-7.875138093244459c0-4.343231038823433-3.533839698513475-7.875138093262649-7.875138093257192-7.875138093262649ZM957.061564731177896,655.537616774636263h7.875202514714147v8.662690555454901h-7.875202514714147v-8.662690555454901Z"/>
            <polygon class="cls-5" points="1038.963219933981236 648.056383755429124 1031.08801741924799 648.056383755429124 1031.08801741924799 683.494569596521615 1036.994435410666483 683.494569596521615 1038.963219933981236 683.494569596521615 1048.807142550540448 683.494569596521615 1048.807142550540448 676.013078891439363 1038.963219933981236 676.013078891439363 1038.963219933981236 648.056383755429124"/>
            <path class="cls-5" d="M992.499814993750988,647.662220995509415h-7.875138093257192c-4.341362816199762,0-7.875138093249916,3.531907054439216-7.875138093249916,7.875138093248097v20.474270319627976c0,4.341330605468102,3.533775277050154,7.875202514722332,7.875138093249916,7.875202514722332h7.875138093257192c4.341362816195215,0,7.875138093244459-3.533871909254231,7.875138093244459-7.875202514722332v-20.474270319627976c0-4.343231038808881-3.533775277049244-7.875138093248097-7.875138093244459-7.875138093248097ZM992.499814993750988,655.537359088757512v20.869624876730086h-7.875138093257192v-21.263014579013543h7.875138093257192v.393389702283457Z"/>
            <path class="cls-5" d="M1020.062927163055065,648.056383755429124h-15.75040502943466v35.438185841092491h7.875266936186563v-11.812739350603806h7.875138093248097c4.341298394736441,0,7.875138093255373-3.531907054435578,7.875138093255373-7.875170303981577v-7.875138093244459c0-4.343231038823433-3.533839698518932-7.875138093262649-7.875138093255373-7.875138093262649ZM1020.062927163055065,655.931521848691773v8.268785481399391h-7.875138093248097v-8.662690555454901h7.875138093248097v.39390507405551Z"/>
            <polygon class="cls-5" points="1058.257514411145166 648.056383755429124 1052.351096419743044 648.056383755429124 1052.351096419743044 683.494569596521615 1060.2262989344581 683.494569596521615 1072.039006074321151 683.494569596521615 1072.039006074321151 676.013078891439363 1060.2262989344581 676.013078891439363 1060.2262989344581 669.713045722612151 1071.054646023401801 669.713045722612151 1071.054646023401801 662.231555017526262 1060.2262989344581 662.231555017526262 1060.2262989344581 655.537616774636263 1072.039006074321151 655.537616774636263 1072.039006074321151 648.056383755429124 1060.2262989344581 648.056383755429124 1058.257514411145166 648.056383755429124"/>
            <path class="cls-5" d="M1090.939363266710643,647.662220995509415h-7.875202514711418c-4.349222235456182,0-7.875138093244459,3.525658171911346-7.875138093244459,7.875138093248097v3.642711981643515c0,2.98226307836012,1.684750265154435,5.708805134323484,4.3521856230509,7.043167027957679l11.398154984904977,5.701364454613213v4.482381412515679h-7.875202514711418v-4.725153719569789h-7.875138093244459v4.32979916246768c0,4.349286656932236,3.525915857788277,7.875202514722332,7.875138093244459,7.875202514722332h7.875202514711418c4.34928665692496,0,7.875202514722332-3.525915857790096,7.875202514722332-7.875202514722332v-3.792395265561936c0-2.906825537800614-1.601131198005532-5.577385336942825-4.165234519137812-6.946534824008268l-11.585170510295939-6.187327808282134v-3.941402124059096h7.875202514711418v4.725153719573427h7.875202514722332v-4.33176401728997c0-4.349479921336751-3.525915857797372-7.875138093248097-7.875202514722332-7.875138093248097Z"/>
            <path class="cls-5" d="M1118.108795837129946,659.869123106047482h7.875138093259011v-4.33176401728997c0-4.349479921336751-3.525915857790096-7.875138093248097-7.875138093259011-7.875138093248097h-7.875202514729608c-4.349479921325837,0-7.87520251470778,3.525658171911346-7.87520251470778,7.875138093248097v3.642711981643515c0,2.98226307836012,1.684750265168987,5.708805134323484,4.352185623039986,7.043167027957679l11.398219406397402,5.701364454613213v4.482381412515679h-7.875202514729608v-4.725153719569789h-7.87520251470778v4.32979916246768c0,4.349286656932236,3.525722593381943,7.875202514722332,7.87520251470778,7.875202514722332h7.875202514729608c4.349222235468915,0,7.875138093259011-3.525915857790096,7.875138093259011-7.875202514722332v-3.792395265561936c0-2.906825537800614-1.601388883893378-5.577385336942825-4.165427783544146-6.946534824008268l-11.584912824444473-6.187327808282134v-3.941402124059096h7.875202514729608v4.725153719573427Z"/>
            <path class="cls-5" d="M937.374492555692996,648.055481854858954h-15.358464810215992v35.439989642240107h15.358464810215992c4.341233973255839,0,7.874944828830849-3.535643499653816,7.874944828830849-7.876813051458157v-19.686331328597589c0-4.345002629215742-3.533710855575009-7.876845262184361-7.874944828830849-7.876845262184361ZM937.374492555692996,655.932327117043315v20.081492621295183h-7.876813051454519v-20.476686124718981h7.876813051454519v.395193503423798Z"/>
          </g>
        </g>
        <rect class="cls-1" x="897.999999999979082" y="635.654163093848183" width="12.008013872747142" height="60.240716536900436"/>
        <rect class="cls-1" x="1137.991986127231939" y="635.654163093848183" width="12.008013872744414" height="60.240716536900436"/>
      </g>
    </g>
    <g>
      <g class="cls-3">
        <rect class="cls-6" x="897.999999999976353" y="798.120358268453856" width="251.999999999994543" height="144.210240738495486"/>
      </g>
      <g>
        <text/>
        <rect class="cls-1" x="1137.991986127231939" y="830.941373148201819" width="12.008013872744414" height="60.240716536907712"/>
        <text class="cls-9" transform="translate(913.03680467605227 830.619873046875)"><tspan x="0" y="0">CONCRETE SCANNER</tspan><tspan x="3.2578125" y="21.75" xml:space="preserve">CONCRETE  CUTTING</tspan></text>
        <text class="cls-4" transform="translate(971.34393358230227 889.602294921875)"><tspan class="cls-10"><tspan x="0" y="0">LESTER ENRIQUEZ</tspan></tspan><tspan class="cls-10"><tspan x="11.35498046875" y="15">786-656-6672</tspan></tspan><tspan class="cls-10" x="-35.75439453125" y="30">DROPLESS</tspan><tspan class="cls-8" x="24.86328125" y="30">FLORIDA@GMAIL.COM</tspan></text>
      </g>
    </g>
  </g>
</svg>