<?xml version="1.0" encoding="UTF-8"?>
<svg id="Layer_1" xmlns="http://www.w3.org/2000/svg" version="1.1" viewBox="0 0 1201 318.08">
  <!-- Generator: Adobe Illustrator 30.1.0, SVG Export Plug-In . SVG Version: 2.1.1 Build 136)  -->
  <defs>
    <style>
      .st0 {
        fill: #fff;
      }

      .st1 {
        fill: #010101;
        stroke: #0d161b;
        stroke-miterlimit: 10;
      }
    </style>
  </defs>
  <path id="BG" class="st1" d="M.5.5h1200v317.08H.5V.5Z"/>
  <g id="logo">
    <path class="st0" d="M289.62,65.78h-82.9v186.53h41.45v-62.18h41.45v52.84c0,5.72,4.64,10.36,10.36,10.36h10.36c11.45,0,20.73-9.28,20.73-20.73v-12.14c0-16.75-13.58-30.34-30.34-30.34v-1.56c17.47-4.87,30.34-20.89,30.34-39.89v-41.45c0-22.86-18.6-41.45-41.45-41.45h0ZM248.17,105.16h41.45v45.6h-41.45v-45.6ZM434.7,63.7h-41.45c-22.85,0-41.45,18.59-41.45,41.45v107.77c0,22.85,18.6,41.45,41.45,41.45h41.45c22.85,0,41.45-18.6,41.45-41.45v-107.77c0-22.86-18.6-41.45-41.45-41.45ZM434.7,105.16v109.85h-41.45v-111.92h41.45v2.07ZM579.78,65.78h-82.9v186.53h41.45v-62.18h41.45c22.85,0,41.45-18.59,41.45-41.45v-41.45c0-22.86-18.6-41.45-41.45-41.45h0ZM579.78,107.23v43.52h-41.45v-45.6h41.45v2.07h0ZM679.26,65.78h-41.45v186.53h93.26v-39.38h-51.81V65.78ZM780.82,65.78h-31.09v186.53h103.62v-39.38h-62.17v-33.16h56.99v-39.38h-56.99v-35.23h62.17v-39.38h-72.53,0ZM952.84,63.7h-41.45c-22.89,0-41.45,18.56-41.45,41.45v19.17c0,15.7,8.87,30.05,22.91,37.07l59.99,30.01v23.59h-41.45v-24.87h-41.45v22.79c0,22.89,18.56,41.45,41.45,41.45h41.45c22.89,0,41.45-18.56,41.45-41.45v-19.96c0-15.3-8.43-29.36-21.92-36.56l-60.98-32.57v-20.75h41.45v24.87h41.45v-22.8c0-22.89-18.56-41.45-41.45-41.45h0ZM1095.84,127.96h41.45v-22.8c0-22.89-18.56-41.45-41.45-41.45h-41.45c-22.89,0-41.45,18.56-41.45,41.45v19.17c0,15.7,8.87,30.05,22.91,37.07l59.99,30.01v23.59h-41.45v-24.87h-41.45v22.79c0,22.89,18.56,41.45,41.45,41.45h41.45c22.89,0,41.45-18.56,41.45-41.45v-19.96c0-15.3-8.43-29.36-21.92-36.56l-60.98-32.57v-20.75h41.45v24.87h0ZM144.54,65.77H63.7v186.54h80.84c22.85,0,41.45-18.61,41.45-41.46v-103.62c0-22.87-18.6-41.46-41.45-41.46ZM144.54,107.23v105.7h-41.46v-107.78h41.46s0,2.08,0,2.08Z"/>
  </g>
</svg>