<?xml version="1.0" encoding="UTF-8"?>
<svg id="social-profile-picture" xmlns="http://www.w3.org/2000/svg" viewBox="0 0 2047.999999999996362 1536">
  <defs>
    <style>
      .cls-1, .cls-2 {
        fill: lime;
      }

      .cls-3 {
        fill: #fff;
      }

      .cls-4 {
        fill: #f9f9f9;
      }

      .cls-2, .cls-5 {
        opacity: .8;
      }
    </style>
  </defs>
  <g>
    <rect class="cls-4" x="1024.000000108133463" y="-.000005086269084" width="511.999999891862899" height="768"/>
    <rect class="cls-3" x="1024.000000108129825" y="-.000005086269084" width="511.999999891866537" height="768"/>
    <path d="M1344.000151036496391,89.593652149538684h-128.000528249249328c-70.562478149291564,0-127.999849071669814,57.406128752500081-127.999849071669814,128.000188660460481v332.781066037632627c0,70.56247814929884,57.43737092237825,128.000188660458662,127.999849071669814,128.000188660458662h128.000528249249328c70.562478149286108,0,127.999849071635253-57.437710511159821,127.999849071635253-128.000188660458662V217.593840809999165c0-70.5940599079604-57.437370922349146-128.000188660460481-127.999849071635253-128.000188660460481ZM1344.000151036496391,217.593840809999165v339.207104952403824h-128.000528249249328V211.199044065091584h128.000528249249328v6.39479674490758Z"/>
  </g>
  <g>
    <rect class="cls-4" x="1023.998826514291977" y="767.999994913730916" width="511.999999891863808" height="768"/>
    <rect class="cls-3" x="1023.998826514291977" y="767.999994913730916" width="511.999999891863808" height="768"/>
    <path d="M1343.999090584864462,857.593652149538684h-128.000528249247509c-70.562478149293383,0-127.999849071673452,57.406128752500081-127.999849071673452,128.000188660460481v332.781066037632627c0,70.56247814929884,57.437370922380069,128.000188660458662,127.999849071673452,128.000188660458662h128.000528249247509c70.562478149291564,0,127.999849071642529-57.437710511159821,127.999849071642529-128.000188660458662v-332.781066037632627c0-70.5940599079604-57.437370922350965-128.000188660460481-127.999849071642529-128.000188660460481ZM1343.999090584864462,985.593840809999165v339.207104952403824h-128.000528249247509v-345.601901697311405h128.000528249247509v6.39479674490758Z"/>
    <path class="cls-2" d="M1343.998581201642082,857.593652149538684h-127.999849071664357c-70.691521894343168,0-127.999849071627978,57.304591700485616-127.999849071627978,128.000188660460481v59.206628584766804c0,48.472905706919846,27.382403522271488,92.789244467981916,70.738045560312457,114.476743767874723l185.261652582979877,92.668011265368477v72.85572133439382h-127.999849071664357v-76.801064044928353h-127.999849071627978v70.375025130157155c0,70.691521894348625,57.308327177284809,128.000188660458662,127.999849071627978,128.000188660458662h127.999849071664357c70.691521894343168,0,128.0001886604623-57.308666766110036,128.0001886604623-128.000188660458662v-61.640461534203496c0-47.246310951320993-26.0233691336216-90.652551720966585-67.699404953184057-112.906485143876125l-188.3006327789426-100.566507228928458v-64.062408875532128h127.999849071664357v76.801064044926534h128.0001886604623v-70.406267300018953c0-70.695596959974864-57.308666766119131-128.000188660460481-128.0001886604623-128.000188660460481Z"/>
  </g>
  <g>
    <rect class="cls-4" x="1534.960815327060118" y="767.999994913730916" width="511.999999891864718" height="768"/>
    <rect class="cls-3" x="1534.960815327060118" y="767.999994913730916" width="511.999999891864718" height="768"/>
    <path d="M1854.480287077800313,857.593652149538684h-127.999849071667995c-70.691521894335892,0-127.999849071627978,57.304591700485616-127.999849071627978,128.000188660460481v59.206628584766804c0,48.472905706919846,27.382403522276945,92.789244467981916,70.738045560319733,114.476743767874723l185.26165258297624,92.668011265368477v72.85572133439382h-127.999849071667995v-76.801064044928353h-127.999849071627978v70.375025130157155c0,70.691521894348625,57.308327177292085,128.000188660458662,127.999849071627978,128.000188660458662h127.999849071667995c70.691521894346806,0,128.000188660458662-57.308666766110036,128.000188660458662-128.000188660458662v-61.640461534203496c0-47.246310951320993-26.023369133617962-90.652551720966585-67.6994049531786-112.906485143876125l-188.300632778948057-100.566507228928458v-64.062408875532128h127.999849071667995v76.801064044926534h128.000188660458662v-70.406267300018953c0-70.695596959974864-57.308666766111855-128.000188660460481-128.000188660458662-128.000188660460481Z"/>
  </g>
  <g>
    <rect class="cls-4" x="-.000000000003638" y="767.999994913730916" width="511.999999891861989" height="768"/>
    <rect class="cls-3" x=".000000162199285" y="767.999994913730916" width="511.999999891865627" height="768"/>
    <polygon points="192.000018757909857 863.999994913730916 63.999830097451195 863.999994913730916 63.999830097451195 1439.999994913730916 160.000226284391829 1439.999994913730916 192.000018757909857 1439.999994913730916 351.99999989186108 1439.999994913730916 351.99999989186108 1318.398338475017226 192.000018757909857 1318.398338475017226 192.000018757909857 863.999994913730916"/>
  </g>
  <g>
    <rect class="cls-4" x="511.999999999995453" y="767.999994913730916" width="511.999999891864718" height="768"/>
    <rect class="cls-3" x="512.000000216266017" y="767.999994913730916" width="511.999999891864718" height="768"/>
    <polygon points="672.000056489981034 863.999994913730916 575.99999989186017 863.999994913730916 575.99999989186017 1439.999994913730916 704.000188552289728 1439.999994913730916 895.999962159791721 1439.999994913730916 895.999962159791721 1318.398338475017226 704.000188552289728 1318.398338475017226 704.000188552289728 1216.000089243956609 880.000235717422584 1216.000089243956609 880.000235717422584 1094.398093216452253 704.000188552289728 1094.398093216452253 704.000188552289728 985.597576286805634 895.999962159791721 985.597576286805634 895.999962159791721 863.999994913730916 704.000188552289728 863.999994913730916 672.000056489981034 863.999994913730916"/>
    <g class="cls-5">
      <polygon class="cls-1" points="704.000018757908947 863.999994913730916 575.999830097446647 863.999994913730916 575.999830097446647 1439.999994913730916 672.000226284394557 1439.999994913730916 704.000018757908947 1439.999994913730916 863.999999891863808 1439.999994913730916 863.999999891863808 1318.398338475017226 704.000018757908947 1318.398338475017226 704.000018757908947 863.999994913730916"/>
    </g>
  </g>
  <g>
    <rect class="cls-4" x="-.000000000003638" width="511.999999891868356" height="768"/>
    <rect class="cls-3" x=".000000432541128" width="511.999999891864718" height="768"/>
    <path d="M447.99999989186108,224v320c0,70.56000000000131-57.440000000002328,128-127.999999999996362,128H70.399999891862535V96h249.600000000002183c70.559999999994034,0,127.999999999996362,57.408000000001266,127.999999999996362,128ZM319.999999891864718,550.399999999997817V217.600000000002183h-128.000000000003638v332.799999999995634h128.000000000003638Z"/>
  </g>
  <g>
    <rect class="cls-4" x="1535.999999999996362" width="511.999999891868356" height="768"/>
    <rect class="cls-3" x="1536.000000432541128" width="511.999999891864718" height="768"/>
    <path d="M1855.999698035160691,96h-255.999698143299611v576h127.999849071635253v-192.000113196256279h127.999849071664357c70.562478149284289,0,127.999849071627978-57.406468341310756,127.999849071627978-128.000188660455024v-127.999849071635253c0-70.593720319138811-57.437370922343689-127.999849071653443-127.999849071627978-127.999849071653443ZM1855.999698035160691,223.999849071653443v134.398381293383864h-127.999849071664357v-140.800648991962589h127.999849071664357v6.402267698578726Z"/>
    <g class="cls-5">
      <path class="cls-1" d="M1983.99999989186108,224v320c0,70.56000000000131-57.440000000002328,128-127.999999999996362,128h-249.600000000002183V96h249.600000000002183c70.559999999994034,0,127.999999999996362,57.408000000001266,127.999999999996362,128ZM1855.999999891864718,550.399999999997817V217.600000000002183h-128.000000000003638v332.799999999995634h128.000000000003638Z"/>
    </g>
  </g>
  <g>
    <rect class="cls-4" x="511.999999675586878" width="511.999999891868356" height="768"/>
    <rect class="cls-3" x="512.000000108131644" width="511.999999891864718" height="768"/>
    <path d="M832.000744795630453,95.999999999996362h-256.000745228178857v576h127.999849071638891v-192.000174514025275h87.400178348339978v.000523542112205h40.600717808199988v163.174992137872323c0,17.671640922861116,14.32726297291083,31.999941828558804,31.999962268033414,31.999941828558804h31.999962267953379c35.347492759981833,0,63.999924535753962-28.65607826950145,63.999924535753962-64.0004071993244v-37.490851646653027c0-51.738527065230301-41.945174846623559-93.683675120453699-93.687923298391979-93.683675120453699v-4.809257969878672c53.937438445973385-15.04974195563409,93.687923298391979-64.500913471994863,93.687923298391979-123.191556428952026v-127.99976731458446c0-70.59337319284532-57.437843336483638-127.999767314671772-127.999849071740755-127.999767314671772ZM703.999848639090487,217.597370655104896h128.000896156539966v140.800372296580463h-128.000896156539966v-140.800372296580463Z"/>
    <g class="cls-5">
      <path class="cls-1" d="M831.999697710751207,96h-255.999698143299611v576h127.999849071635253v-192.000113196256279h127.999849071664357c70.562478149284289,0,127.999849071627978-57.406468341310756,127.999849071627978-128.000188660455024v-127.999849071635253c0-70.593720319138811-57.437370922343689-127.999849071653443-127.999849071627978-127.999849071653443ZM831.999697710751207,223.999849071653443v134.398381293383864h-127.999849071664357v-140.800648991962589h127.999849071664357v6.402267698578726Z"/>
    </g>
  </g>
</svg>