<?xml version="1.0" encoding="UTF-8"?>
<svg xmlns="http://www.w3.org/2000/svg" viewBox="0 0 2048 1536">
  <g id="bg">
    <rect x="-.000000000001819" width="2048.000000000001819" height="1536" fill="#fff"/>
  </g>
  <g id="waves">
    <circle cx="1023.999999999999091" cy="768" r="597.333333333401697" fill="#5f97fb" isolation="isolate" opacity=".15"/>
    <circle cx="1024" cy="768" r="768.000000000069122" fill="#5f97fb" isolation="isolate" opacity=".15"/>
  </g>
  <g id="clock">
    <circle cx="1023.999999999999091" cy="768" r="597.333333333401697" fill="#182a4c" isolation="isolate"/>
    <g id="old_logotype" data-name="old logotype">
      <g>
        <g id="south">
          <g>
            <path d="M1112.99011301147948,729.493819644048926c0-7.591708945268692,5.803606045410561-13.619844745149749,13.395314990681072-13.619844745149749,7.590081918049691,0,13.618217717939842,6.028135799881056,13.618217717939842,13.619844745149749v5.580703318111773c7.59170894529052-10.492698454359925,17.861504672349838-20.316688726881694,35.944285044790377-20.316688726881694,16.968266736008445,0,29.024538335759644,8.2604171271214,35.275576862919479,20.762494181450165,9.376557790770676-12.502077054328765,21.878634845090346-20.762494181450165,39.740139517440184-20.762494181450165,25.674489317720145,0,41.302085635599724,16.297931526971297,41.302085635599724,45.09794010825135v62.959444780590275c0,7.5900819180697-5.803606045379638,13.395314990670158-13.395314990670158,13.395314990670158-7.590081918049691,0-13.618217717939842-5.805233072600458-13.618217717939842-13.395314990670158v-54.699027653470694c0-18.75311558149042-8.707849608890683-28.800008581289148-23.889640472230894-28.800008581289148-14.734358381569109,0-25.227056835929034,10.269795727079327-25.227056835929034,29.247441063060251v54.251595171699591c0,7.5900819180697-6.028135799890151,13.395314990670158-13.395314990639235,13.395314990670158-7.591708945270511,0-13.619844745180671-5.805233072600458-13.619844745180671-13.395314990670158v-54.921930380760386c0-18.307310126920129-8.930752336169462-28.577105853999456-23.888013445020988-28.577105853999456-14.958888136059613,0-25.22868386313894,11.163033663418901-25.22868386313894,29.247441063060251v54.251595171699591c0,7.5900819180697-6.028135799890151,13.395314990670158-13.618217717939842,13.395314990670158-7.367179190790921,0-13.395314990681072-5.805233072600458-13.395314990681072-13.395314990670158v-93.321399480071705Z" fill="#182a4c"/>
            <path d="M1376.005569042190473,837.774107260180244c-34.159436199350239,0-60.504260726100256-24.782878408570468-60.504260726100256-61.172968907920222v-.447432481771102c0-33.712003717548214,23.889640472239989-61.395871635209915,57.601644189779108-61.395871635209915,37.506231162969925,0,56.038071044411481,30.809387181241618,56.038071044411481,58.047449644351218,0,7.590081918058786-5.805233072620467,12.949509536088954-12.726606808841098,12.949509536088954h-73.897948689529585c2.902616536310234,19.198921036051615,16.520834254250076,29.916149244911139,33.934906444839726,29.916149244911139,11.38593639067949,0,20.316688726890789-4.018757199921311,27.906770644929566-10.269795727090241,2.009378599981574-1.563573145389455,3.795854472640713-2.455184054519123,6.92137373622063-2.455184054519123,6.028135799879237,0,10.717228208870438,4.687465381759466,10.717228208870438,10.938503908928396,0,3.350049018070422-1.563573145400369,6.251038527159835-3.572951745360115,8.260417127119581-10.715601181649618,9.601087545230257-24.110916172319776,15.629223345111313-42.418226299219896,15.629223345111313ZM1402.796199023499867,767.893288743360245c-1.786475872690062-17.414072190580555-12.05627159974938-31.032289908520397-29.917776272099218-31.032289908520397-16.520834254250076,0-28.129673372250181,12.724979781600268-30.584857426780218,31.032289908520397h60.502633698879436ZM1365.288340833320035,698.68280543560104c0-1.561946118190463.893237936350488-3.571324718152027,1.786475872680967-4.910368109050978l12.724979781598449-19.647980545030805c2.456811081730848-4.018757199919492,6.028135799881056-6.473941254438614,10.717228208850429-6.473941254438614,7.144276463510323,0,16.075028799690699,4.464562654489782,16.075028799690699,8.706222581678958,0,2.456811081730848-1.563573145400369,4.689092408989382-3.795854472640713,6.698471008950946l-14.958888136070527,14.288552926989723c-5.357800590798433,4.911995136259065-9.599460517998523,6.028135799870142-15.850499045158358,6.028135799870142-3.795854472640713,0-6.698471008950946-1.786475872670053-6.698471008950946-4.689092408969373Z" fill="#182a4c"/>
          </g>
          <g>
            <path d="M1216.135502764080229,879.440646990040477c0-7.591708945279606,5.803606045390552-13.619844745151568,13.395314990670158-13.619844745151568,7.590081918080614,0,13.618217717928928,6.028135799871961,13.618217717928928,13.619844745151568v12.054644572550387c6.251038527170749-14.734358381570928,17.861504672360752-25.897392044989829,29.693246517641455-25.897392044989829,8.483319854400179,0,13.395314990639235,5.58070331809904,13.395314990639235,13.395314990659244,0,7.144276463510323-4.687465381750371,11.833368872479696-10.715601181629609,12.949509536099868-19.200548063259703,3.34842199086961-32.372960326651082,18.084407399639531-32.372960326651082,45.991178044589105v34.82814438116111c0,7.367179190780007-6.028135799848314,13.395314990659244-13.618217717928928,13.395314990659244-7.367179190790921,0-13.395314990670158-5.80523307258045-13.395314990670158-13.395314990659244v-93.321399480069886Z" fill="#182a4c"/>
            <path d="M1301.907496006260772,851.204130315920338c0-8.035887372619982,6.698471008920023-13.170785236161464,15.404693590629904-13.170785236161464,8.707849608879769,0,15.404693590598981,5.134897863541482,15.404693590598981,13.170785236161464v1.340670418110676c0,8.037514399838983-6.696843981719212,13.395314990679253-15.404693590598981,13.395314990679253-8.706222581709881,0-15.404693590629904-5.35780059084027-15.404693590629904-13.395314990679253v-1.340670418110676ZM1303.916874606220517,890.817361711240665c0-7.591708945270511,5.805233072589544-13.619844745149749,13.395314990670158-13.619844745149749,7.591708945248683,0,13.61984474512974,6.028135799879237,13.61984474512974,13.619844745149749v81.944684758869698c0,7.590081918078795-6.028135799881056,13.395314990659244-13.61984474512974,13.395314990659244-7.36717919081093,0-13.395314990670158-5.80523307258045-13.395314990670158-13.395314990659244v-81.944684758869698Z" fill="#182a4c"/>
            <path d="M1354.660599120830739,926.770868425519438v-.447432481760188c0-33.487473963048615,25.899019072199735-61.618774362488693,61.395871635209915-61.618774362488693,18.531839881399719,0,31.256819663019996,6.028135799870142,41.30371266280963,14.73598540876992,1.786475872679148,1.561946118179549,4.241659927200089,4.910368109060073,4.241659927200089,9.376557790739753,0,6.92137373622063-5.580703318109954,12.279174327049986-12.502077054330584,12.279174327049986-3.348421990880524,0-6.251038527159835-1.340670418119771-8.037514399818974-2.679713809020541-6.921373736251553-5.805233072598639-14.51145565429033-10.046892999798729-25.228683863160768-10.046892999798729-19.646353517829994,0-34.157809172089401,16.968266736019359-34.157809172089401,37.507858190179832v.445805454568472c0,20.987023935929756,14.511455654259407,37.730760917460429,35.273949835709573,37.730760917460429,10.717228208870438,0,18.977645335979105-4.241659927200089,26.344824526750017-10.49269845436902,1.563573145400369-1.339043390891675,4.241659927229193-2.902616536301139,7.367179190809111-2.902616536301139,6.475568281650339,0,11.610466145190003,5.359427618041082,11.610466145190003,11.833368872481515,0,3.571324718139294-1.340670418108857,6.473941254449528-3.795854472649808,8.483319854409274-10.492698454349011,10.046892999800548-23.219305263179194,16.745364008738761-42.865658780989179,16.745364008738761-35.051047108439889,0-60.950066180639624-27.460965190399293-60.950066180639624-60.950066180659633Z" fill="#182a4c"/>
          </g>
          <path d="M1211.446410355110856,1101.053141698310355v-.447432481771102c0-25.451586590408624,19.869256245099677-37.953663644748303,48.670891853609646-37.953663644748303,13.172412263369552,0,22.548970054109304,2.009378599959746,31.702625117579373,4.911995136269979v-2.902616536310234c0-16.74373698151976-10.269795727090241-25.674489317700136-29.247441063060251-25.674489317700136-10.269795727079327,0-18.75311558149042,1.786475872670053-26.121921799480333,4.689092408980287-1.561946118199558.445805454568472-2.900989509098508.668708181838156-4.24165992719827.668708181838156-6.251038527190758,0-11.385936390710413-4.911995136259065-11.385936390710413-11.163033663418901,0-4.911995136259065,3.34842199086961-9.153655063459155,7.367179190789102-10.715601181640523,11.163033663400711-4.241659927200089,22.548970054131132-6.921373736229725,37.95529067194002-6.921373736229725,17.636974917870248,0,30.809387181259808,4.689092408989382,39.069804308381208,13.172412263380465,8.706222581678958,8.483319854420188,12.724979781598449,20.985396908739858,12.724979781598449,36.391717526568755v58.045822617141312c0,7.368806217989913-5.803606045368724,12.949509536088954-13.17241226338956,12.949509536088954-7.812984645330289,0-13.170785236170559-5.357800590820261-13.170785236170559-11.385936390699499v-4.464562654480687c-8.037514399829888,9.599460518020351-20.316688726868961,17.18954243609187-38.401096126508492,17.18954243609187-22.103164599549928,0-41.749518117379921-12.724979781611182-41.749518117379921-36.390090499360667ZM1292.265732780850158,1092.568194816689356v-8.035887372609068c-6.921373736200621-2.679713809029636-16.075028799659776-4.689092408991201-26.790629981309394-4.689092408991201-17.414072190591469,0-27.683867917670796,7.367179190801835-27.683867917670796,19.646353517829994v.447432481771102c0,11.385936390699499,10.046892999800548,17.859877645150846,22.994775508690509,17.859877645150846,17.861504672338924,0,31.47972239028968-10.269795727072051,31.47972239028968-25.228683863151673Z" fill="#182a4c"/>
        </g>
        <g id="north">
          <g>
            <path d="M665.441127521226008,426.644941793249018c0-7.591708945268692,5.803606045388733-13.619844745149749,13.395314990670158-13.619844745149749,7.590081918059695,0,13.618217717938933,6.028135799881056,13.618217717938933,13.619844745149749v5.803606045390552c7.591708945270511-10.938503908930215,18.530212854198908-20.539591454160472,36.837522981109942-20.539591454160472,26.567727254048805,0,41.972420844672342,17.861504672349838,41.972420844672342,45.099567135450343v62.957817753400377c0,7.591708945270511-5.803606045393281,13.395314990661063-13.395314990642873,13.395314990661063-7.590081918077885,0-13.618217717960761-5.803606045390552-13.618217717960761-13.395314990661063v-54.697400626280796c0-18.30731012691831-9.153655063466431-28.801635608488141-25.228683863137121-28.801635608488141-15.627596317921416,0-26.567727254041529,10.940130936138303-26.567727254041529,29.247441063060251v54.251595171708686c0,7.591708945270511-6.028135799879237,13.395314990661063-13.618217717938933,13.395314990661063-7.367179190798197,0-13.395314990670158-5.803606045390552-13.395314990670158-13.395314990661063v-93.3213994800808Z" fill="#182a4c"/>
            <path d="M905.595224274135035,519.966341273329817c0,7.367179190780007-6.028135799879237,13.395314990661063-13.618217717950756,13.395314990661063-7.367179190769093,0-13.618217717928928-5.803606045390552-13.618217717928928-13.395314990661063v-6.028135799879237c-7.591708945270511,11.163033663418901-18.531839881412452,20.764121208649158-36.839150008328943,20.764121208649158-26.567727254049714,0-41.972420844672342-17.861504672358933-41.972420844672342-45.322469862740036v-62.734915026110684c0-7.591708945268692,6.028135799882875-13.619844745149749,13.395314990651968-13.619844745149749,7.591708945277787,0,13.619844745160663,6.028135799881056,13.619844745160663,13.619844745149749v54.697400626271701c0,18.307310126929224,9.153655063459155,28.577105854008551,25.227056835938129,28.577105854008551,15.629223345119499,0,26.569354281250526-10.715601181649618,26.569354281250526-29.022911308569746v-54.251595171710505c0-7.591708945268692,6.026508772658417-13.619844745149749,13.618217717928928-13.619844745149749,7.367179190790921,0,13.618217717950756,6.028135799881056,13.618217717950756,13.619844745149749v93.3213994800808Z" fill="#182a4c"/>
            <path d="M989.828049779005596,534.925229409380336c-34.159436199300217,0-60.504260726069333-24.781251381360562-60.504260726069333-61.172968907920222v-.447432481771102c0-33.712003717548214,23.889640472239989-61.395871635209915,57.601644189770013-61.395871635209915,37.506231162983568,0,56.038071044393291,30.811014208451525,56.038071044393291,58.047449644340304,0,7.591708945270511-5.805233072600458,12.949509536099868-12.726606808810175,12.949509536099868h-73.897948689544137c2.902616536310234,19.200548063261522,16.52083425426099,29.916149244911139,33.934906444828812,29.916149244911139,11.385936390705865,0,20.316688726886241-4.018757199921311,27.906770644955941-10.269795727090241,2.009378599959746-1.561946118190463,3.795854472639803-2.455184054519123,6.921373736219721-2.455184054519123,6.028135799881056,0,10.717228208839515,4.687465381768561,10.717228208839515,10.938503908928396,0,3.350049018070422-1.563573145369446,6.252665554369742-3.572951745338287,8.262044154329487-10.715601181640523,9.599460518020351-24.112543199510583,15.627596317901407-42.418226299245362,15.627596317901407ZM1016.618679760340456,465.044410892569431c-1.786475872680967-17.41407219058965-12.056271599770298-31.032289908540406-29.916149244914777-31.032289908540406-16.522461281452706,0-28.131300399432803,12.724979781611182-30.586484453950106,31.032289908540406h60.502633698864884Z" fill="#182a4c"/>
            <path d="M1062.045279364290764,520.413773755099101c-2.902616536290225-1.56357314539855-5.134897863541482-4.911995136259065-5.134897863541482-9.378184817949659,0-6.026508772680245,4.689092408960278-10.938503908928396,10.940130936131027-10.938503908928396,2.232281327240344,0,4.241659927200089.66870818184907,5.805233072600458,1.561946118188644,11.385936390708594,7.591708945270511,23.217678235969288,11.385936390699499,33.934906444819717,11.385936390699499,11.608839117980096,0,18.307310126929224-4.910368109049159,18.307310126929224-12.724979781609363v-.445805454570291c0-9.15365506345006-12.502077054328765-12.280801354239884-26.344824526759112-16.522461281449068-17.41407219058965-4.910368109040064-36.837522981109942-12.054644572550387-36.837522981109942-34.605241653880512v-.445805454559377c0-22.32606732683962,18.530212854178899-35.944285044790377,41.9724208446587-35.944285044790377,12.502077054299662,0,25.674489317680127,3.571324718150208,37.060425708399634,9.599460518029446,3.795854472640713,2.009378599959746,6.475568281650339,5.582330345310766,6.475568281650339,10.269795727081146,0,6.251038527159835-4.911995136249971,10.940130936138303-11.163033663418901,10.940130936138303-2.232281327251258,0-3.572951745371029-.445805454568472-5.357800590831175-1.339043390908046-9.601087545230257-4.911995136260884-19.425077817739293-8.037514399840802-27.685494944869788-8.037514399840802-10.49269845436902,0-16.520834254239162,4.911995136260884-16.520834254239162,11.608839117989191v.447432481771102c0,8.706222581689872,12.726606808810175,12.279174327039073,26.567727254050624,16.743736981528855,17.191169463298138,5.357800590820261,36.614620253838439,13.172412263380465,36.614620253838439,34.382338926590819v.445805454570291c0,24.781251381369657-19.200548063268798,37.060425708410548-43.758896717339667,37.060425708410548-14.957261108860621,0-31.255192635819185-4.68746538177038-44.875037380968934-14.064023172511952Z" fill="#182a4c"/>
          </g>
          <g>
            <path d="M914.296124045342367,562.037702594519942c-11.831741845260694,0-23.442207990457973,11.16303366342072-29.693246517610532,25.899019072199735v-12.056271599769389c0-7.591708945270511-6.028135799879237-13.619844745149749-13.618217717950756-13.619844745149749-7.591708945266873,0-13.395314990670158,6.028135799879237-13.395314990670158,13.619844745149749v93.321399480078981c0,7.590081918071519,6.028135799882875,13.395314990670158,13.395314990670158,13.395314990670158,7.590081918071519,0,13.618217717950756-6.028135799879237,13.618217717950756-13.395314990670158v-34.828144381168386c0-27.90677064494048,13.172412263382284-42.6427560537104,32.372960326640168-45.99117804458001,6.028135799879237-1.116140663620172,10.715601181640523-5.805233072591363,10.715601181640523-12.949509536090773,0-7.812984645359393-4.910368109049159-13.395314990670158-13.395314990670158-13.395314990670158Z" fill="#182a4c"/>
            <path d="M1024.169256488929932,575.210114857900408c-8.260417127109577-8.483319854409274-21.432829390500046-13.172412263380465-39.069804308365747-13.172412263380465-15.406320617821621,0-26.792257008532033,2.679713809020541-37.955290671950934,6.92137373622063-4.018757199919492,1.563573145389455-7.367179190790921,5.805233072589544-7.367179190790921,10.715601181649618,0,6.252665554358828,5.134897863561491,11.163033663418901,11.385936390721326,11.163033663418901,1.340670418110676,0,2.679713809000532-.222902727289693,4.241659927200089-.66870818184907,7.368806217989913-2.90261653629932,15.852126072390092-4.689092408980287,26.121921799469419-4.689092408980287,18.977645335966372,0,29.247441063066617,8.930752336180376,29.247441063066617,25.674489317700136v2.90261653629932c-9.153655063460064-2.90261653629932-18.530212854216188-4.911995136248152-31.702625117598473-4.911995136248152-28.801635608488141,0-48.670891853598732,12.503704081518663-48.670891853598732,37.953663644748303v.447432481771102c0,23.665110717738571,19.646353517829994,36.390090499349753,41.749518117390835,36.390090499349753,18.084407399630436,0,30.363581726686789-7.590081918060605,38.401096126506673-17.189542436099146v4.464562654487963c0,6.028135799890151,5.35780059084027,11.385936390710413,13.170785236179654,11.385936390710413,7.368806217989913,0,13.172412263380465-5.580703318119049,13.172412263380465-12.949509536099868v-58.045822617139493c0-15.404693590620809-4.018757199930405-27.908397672150386-12.724979781610273-36.39171752655966ZM1011.219746952840069,639.061170547629445c0,14.958888136061432-13.618217717948937,25.228683863140759-31.479722390306051,25.228683863140759-12.94788250889178,0-22.994775508690509-6.473941254440433-22.994775508690509-17.859877645150846v-.447432481769283c0-12.279174327040892,10.269795727090241-19.646353517820899,27.683867917669886-19.646353517820899,10.715601181650527,0,19.869256245096949,2.009378599959746,26.790629981326674,4.689092408971192v8.035887372629077Z" fill="#182a4c"/>
            <path d="M772.541363876162904,648.885160820149395v-62.066206844259796h-7.204800616429566c-6.475568281650339,0-11.610466145190003-5.134897863539663-11.610466145190003-11.608839117989191s5.134897863539663-11.608839117980096,11.610466145190003-11.608839117980096h7.204800616429566v-9.822427555269314c0-7.367179190790921,6.028135799879237-13.395314990670158,13.618217717963489-13.395314990670158,7.368806217978999,0,13.396942017856418,6.028135799879237,13.396942017856418,13.395314990670158v9.822427555269314h21.208299636000447c6.475568281651249,0,11.833368872481515,5.134897863530568,11.833368872481515,11.608839117980096s-5.357800590830266,11.608839117989191-11.833368872481515,11.608839117989191h-21.208299636000447v57.824546917050611c0,10.492698454370839,5.357800590809347,14.734358381569109,14.511455654279416,14.734358381569109,3.125519263572642,0,5.803606045393281-.668708181839975,6.696843981721031-.668708181839975,6.028135799880147,0,11.385936390722236,4.91199513625179,11.385936390722236,11.163033663411625,0,4.910368109060073-3.348421990883253,8.929125308979565-7.14264943631224,10.492698454359925-5.80523307258045,2.009378599979755-11.387563417898491,3.125519263598108-18.531839881407905,3.125519263598108-19.869256245100587,0-33.934906444822445-8.707849608897959-33.934906444822445-34.605241653889607Z" fill="#182a4c"/>
          </g>
        </g>
      </g>
    </g>
    <path d="M991.389892578123181,721.169921875l75.280029296876819,46.830078125-75.280029296876819,46.830078125v-93.66015625M991.389160156248181,697.169921875c-4.01025390625,0-8.02490234375,1.003662109369543-11.65576171875,3.020751953119543-7.61865234375,4.233154296880457-12.343505859375,12.263671875-12.343505859375,20.979248046880457v93.66015625c0,8.715576171869543,4.724853515625,16.74609375,12.343505859375,20.979248046869543,3.63037109375,2.016845703130457,7.64599609375,3.020751953130457,11.65576171875,3.020751953130457,4.4052734375,0,8.803710937501819-1.21142578125,12.677978515621362-3.621337890630457l75.280029296880457-46.830078125c7.04150390625-4.38037109375,11.32275390625-12.085693359369543,11.32275390625-20.378662109369543s-4.28125-15.998291015630457-11.32275390625-20.378662109380457l-75.280029296880457-46.830078125c-3.873779296869543-2.40966796875-8.273193359371362-3.621337890619543-12.677978515621362-3.621337890619543h0Z" fill="#fff"/>
    <rect id="earth" x="512.000000001954504" y="256.000000061551077" width="1023.999999996091447" height="1023.999999876892502" rx="511.999487936486332" ry="511.999487936486332" fill="#5f97fb"/>
    <g id="old_logotype-2" data-name="old logotype">
      <g>
        <g id="south-2" data-name="south">
          <g>
            <path d="M1112.99011301147948,729.493819644048926c0-7.591708945268692,5.803606045410561-13.619844745149749,13.395314990681072-13.619844745149749,7.590081918049691,0,13.618217717939842,6.028135799881056,13.618217717939842,13.619844745149749v5.580703318111773c7.59170894529052-10.492698454359925,17.861504672349838-20.316688726881694,35.944285044790377-20.316688726881694,16.968266736008445,0,29.024538335759644,8.2604171271214,35.275576862919479,20.762494181450165,9.376557790770676-12.502077054328765,21.878634845090346-20.762494181450165,39.740139517440184-20.762494181450165,25.674489317720145,0,41.302085635599724,16.297931526971297,41.302085635599724,45.09794010825135v62.959444780590275c0,7.5900819180697-5.803606045379638,13.395314990670158-13.395314990670158,13.395314990670158-7.590081918049691,0-13.618217717939842-5.805233072600458-13.618217717939842-13.395314990670158v-54.699027653470694c0-18.75311558149042-8.707849608890683-28.800008581289148-23.889640472230894-28.800008581289148-14.734358381569109,0-25.227056835929034,10.269795727079327-25.227056835929034,29.247441063060251v54.251595171699591c0,7.5900819180697-6.028135799890151,13.395314990670158-13.395314990639235,13.395314990670158-7.591708945270511,0-13.619844745180671-5.805233072600458-13.619844745180671-13.395314990670158v-54.921930380760386c0-18.307310126920129-8.930752336169462-28.577105853999456-23.888013445020988-28.577105853999456-14.958888136059613,0-25.22868386313894,11.163033663418901-25.22868386313894,29.247441063060251v54.251595171699591c0,7.5900819180697-6.028135799890151,13.395314990670158-13.618217717939842,13.395314990670158-7.367179190790921,0-13.395314990681072-5.805233072600458-13.395314990681072-13.395314990670158v-93.321399480071705Z" fill="#182a4c"/>
            <path d="M1376.005569042190473,837.774107260180244c-34.159436199350239,0-60.504260726100256-24.782878408570468-60.504260726100256-61.172968907920222v-.447432481771102c0-33.712003717548214,23.889640472239989-61.395871635209915,57.601644189779108-61.395871635209915,37.506231162969925,0,56.038071044411481,30.809387181241618,56.038071044411481,58.047449644351218,0,7.590081918058786-5.805233072620467,12.949509536088954-12.726606808841098,12.949509536088954h-73.897948689529585c2.902616536310234,19.198921036051615,16.520834254250076,29.916149244911139,33.934906444839726,29.916149244911139,11.38593639067949,0,20.316688726890789-4.018757199921311,27.906770644929566-10.269795727090241,2.009378599981574-1.563573145389455,3.795854472640713-2.455184054519123,6.92137373622063-2.455184054519123,6.028135799879237,0,10.717228208870438,4.687465381759466,10.717228208870438,10.938503908928396,0,3.350049018070422-1.563573145400369,6.251038527159835-3.572951745360115,8.260417127119581-10.715601181649618,9.601087545230257-24.110916172319776,15.629223345111313-42.418226299219896,15.629223345111313ZM1402.796199023499867,767.893288743360245c-1.786475872690062-17.414072190580555-12.05627159974938-31.032289908520397-29.917776272099218-31.032289908520397-16.520834254250076,0-28.129673372250181,12.724979781600268-30.584857426780218,31.032289908520397h60.502633698879436ZM1365.288340833320035,698.68280543560104c0-1.561946118190463.893237936350488-3.571324718152027,1.786475872680967-4.910368109050978l12.724979781598449-19.647980545030805c2.456811081730848-4.018757199919492,6.028135799881056-6.473941254438614,10.717228208850429-6.473941254438614,7.144276463510323,0,16.075028799690699,4.464562654489782,16.075028799690699,8.706222581678958,0,2.456811081730848-1.563573145400369,4.689092408989382-3.795854472640713,6.698471008950946l-14.958888136070527,14.288552926989723c-5.357800590798433,4.911995136259065-9.599460517998523,6.028135799870142-15.850499045158358,6.028135799870142-3.795854472640713,0-6.698471008950946-1.786475872670053-6.698471008950946-4.689092408969373Z" fill="#182a4c"/>
          </g>
          <g>
            <path d="M1216.135502764080229,879.440646990040477c0-7.591708945279606,5.803606045390552-13.619844745151568,13.395314990670158-13.619844745151568,7.590081918080614,0,13.618217717928928,6.028135799871961,13.618217717928928,13.619844745151568v12.054644572550387c6.251038527170749-14.734358381570928,17.861504672360752-25.897392044989829,29.693246517641455-25.897392044989829,8.483319854400179,0,13.395314990639235,5.58070331809904,13.395314990639235,13.395314990659244,0,7.144276463510323-4.687465381750371,11.833368872479696-10.715601181629609,12.949509536099868-19.200548063259703,3.34842199086961-32.372960326651082,18.084407399639531-32.372960326651082,45.991178044589105v34.82814438116111c0,7.367179190780007-6.028135799848314,13.395314990659244-13.618217717928928,13.395314990659244-7.367179190790921,0-13.395314990670158-5.80523307258045-13.395314990670158-13.395314990659244v-93.321399480069886Z" fill="#182a4c"/>
            <path d="M1301.907496006260772,851.204130315920338c0-8.035887372619982,6.698471008920023-13.170785236161464,15.404693590629904-13.170785236161464,8.707849608879769,0,15.404693590598981,5.134897863541482,15.404693590598981,13.170785236161464v1.340670418110676c0,8.037514399838983-6.696843981719212,13.395314990679253-15.404693590598981,13.395314990679253-8.706222581709881,0-15.404693590629904-5.35780059084027-15.404693590629904-13.395314990679253v-1.340670418110676ZM1303.916874606220517,890.817361711240665c0-7.591708945270511,5.805233072589544-13.619844745149749,13.395314990670158-13.619844745149749,7.591708945248683,0,13.61984474512974,6.028135799879237,13.61984474512974,13.619844745149749v81.944684758869698c0,7.590081918078795-6.028135799881056,13.395314990659244-13.61984474512974,13.395314990659244-7.36717919081093,0-13.395314990670158-5.80523307258045-13.395314990670158-13.395314990659244v-81.944684758869698Z" fill="#182a4c"/>
            <path d="M1354.660599120830739,926.770868425519438v-.447432481760188c0-33.487473963048615,25.899019072199735-61.618774362488693,61.395871635209915-61.618774362488693,18.531839881399719,0,31.256819663019996,6.028135799870142,41.30371266280963,14.73598540876992,1.786475872679148,1.561946118179549,4.241659927200089,4.910368109060073,4.241659927200089,9.376557790739753,0,6.92137373622063-5.580703318109954,12.279174327049986-12.502077054330584,12.279174327049986-3.348421990880524,0-6.251038527159835-1.340670418119771-8.037514399818974-2.679713809020541-6.921373736251553-5.805233072598639-14.51145565429033-10.046892999798729-25.228683863160768-10.046892999798729-19.646353517829994,0-34.157809172089401,16.968266736019359-34.157809172089401,37.507858190179832v.445805454568472c0,20.987023935929756,14.511455654259407,37.730760917460429,35.273949835709573,37.730760917460429,10.717228208870438,0,18.977645335979105-4.241659927200089,26.344824526750017-10.49269845436902,1.563573145400369-1.339043390891675,4.241659927229193-2.902616536301139,7.367179190809111-2.902616536301139,6.475568281650339,0,11.610466145190003,5.359427618041082,11.610466145190003,11.833368872481515,0,3.571324718139294-1.340670418108857,6.473941254449528-3.795854472649808,8.483319854409274-10.492698454349011,10.046892999800548-23.219305263179194,16.745364008738761-42.865658780989179,16.745364008738761-35.051047108439889,0-60.950066180639624-27.460965190399293-60.950066180639624-60.950066180659633Z" fill="#182a4c"/>
          </g>
          <path d="M1211.446410355110856,1101.053141698310355v-.447432481771102c0-25.451586590408624,19.869256245099677-37.953663644748303,48.670891853609646-37.953663644748303,13.172412263369552,0,22.548970054109304,2.009378599959746,31.702625117579373,4.911995136269979v-2.902616536310234c0-16.74373698151976-10.269795727090241-25.674489317700136-29.247441063060251-25.674489317700136-10.269795727079327,0-18.75311558149042,1.786475872670053-26.121921799480333,4.689092408980287-1.561946118199558.445805454568472-2.900989509098508.668708181838156-4.24165992719827.668708181838156-6.251038527190758,0-11.385936390710413-4.911995136259065-11.385936390710413-11.163033663418901,0-4.911995136259065,3.34842199086961-9.153655063459155,7.367179190789102-10.715601181640523,11.163033663400711-4.241659927200089,22.548970054131132-6.921373736229725,37.95529067194002-6.921373736229725,17.636974917870248,0,30.809387181259808,4.689092408989382,39.069804308381208,13.172412263380465,8.706222581678958,8.483319854420188,12.724979781598449,20.985396908739858,12.724979781598449,36.391717526568755v58.045822617141312c0,7.368806217989913-5.803606045368724,12.949509536088954-13.17241226338956,12.949509536088954-7.812984645330289,0-13.170785236170559-5.357800590820261-13.170785236170559-11.385936390699499v-4.464562654480687c-8.037514399829888,9.599460518020351-20.316688726868961,17.18954243609187-38.401096126508492,17.18954243609187-22.103164599549928,0-41.749518117379921-12.724979781611182-41.749518117379921-36.390090499360667ZM1292.265732780850158,1092.568194816689356v-8.035887372609068c-6.921373736200621-2.679713809029636-16.075028799659776-4.689092408991201-26.790629981309394-4.689092408991201-17.414072190591469,0-27.683867917670796,7.367179190801835-27.683867917670796,19.646353517829994v.447432481771102c0,11.385936390699499,10.046892999800548,17.859877645150846,22.994775508690509,17.859877645150846,17.861504672338924,0,31.47972239028968-10.269795727072051,31.47972239028968-25.228683863151673Z" fill="#182a4c"/>
        </g>
        <g id="north-2" data-name="north">
          <g>
            <path d="M665.441127521226008,426.644941793249018c0-7.591708945268692,5.803606045388733-13.619844745149749,13.395314990670158-13.619844745149749,7.590081918059695,0,13.618217717938933,6.028135799881056,13.618217717938933,13.619844745149749v5.803606045390552c7.591708945270511-10.938503908930215,18.530212854198908-20.539591454160472,36.837522981109942-20.539591454160472,26.567727254048805,0,41.972420844672342,17.861504672349838,41.972420844672342,45.099567135450343v62.957817753400377c0,7.591708945270511-5.803606045393281,13.395314990661063-13.395314990642873,13.395314990661063-7.590081918077885,0-13.618217717960761-5.803606045390552-13.618217717960761-13.395314990661063v-54.697400626280796c0-18.30731012691831-9.153655063466431-28.801635608488141-25.228683863137121-28.801635608488141-15.627596317921416,0-26.567727254041529,10.940130936138303-26.567727254041529,29.247441063060251v54.251595171708686c0,7.591708945270511-6.028135799879237,13.395314990661063-13.618217717938933,13.395314990661063-7.367179190798197,0-13.395314990670158-5.803606045390552-13.395314990670158-13.395314990661063v-93.3213994800808Z" fill="#182a4c"/>
            <path d="M905.595224274135035,519.966341273329817c0,7.367179190780007-6.028135799879237,13.395314990661063-13.618217717950756,13.395314990661063-7.367179190769093,0-13.618217717928928-5.803606045390552-13.618217717928928-13.395314990661063v-6.028135799879237c-7.591708945270511,11.163033663418901-18.531839881412452,20.764121208649158-36.839150008328943,20.764121208649158-26.567727254049714,0-41.972420844672342-17.861504672358933-41.972420844672342-45.322469862740036v-62.734915026110684c0-7.591708945268692,6.028135799882875-13.619844745149749,13.395314990651968-13.619844745149749,7.591708945277787,0,13.619844745160663,6.028135799881056,13.619844745160663,13.619844745149749v54.697400626271701c0,18.307310126929224,9.153655063459155,28.577105854008551,25.227056835938129,28.577105854008551,15.629223345119499,0,26.569354281250526-10.715601181649618,26.569354281250526-29.022911308569746v-54.251595171710505c0-7.591708945268692,6.026508772658417-13.619844745149749,13.618217717928928-13.619844745149749,7.367179190790921,0,13.618217717950756,6.028135799881056,13.618217717950756,13.619844745149749v93.3213994800808Z" fill="#182a4c"/>
            <path d="M989.828049779005596,534.925229409380336c-34.159436199300217,0-60.504260726069333-24.781251381360562-60.504260726069333-61.172968907920222v-.447432481771102c0-33.712003717548214,23.889640472239989-61.395871635209915,57.601644189770013-61.395871635209915,37.506231162983568,0,56.038071044393291,30.811014208451525,56.038071044393291,58.047449644340304,0,7.591708945270511-5.805233072600458,12.949509536099868-12.726606808810175,12.949509536099868h-73.897948689544137c2.902616536310234,19.200548063261522,16.52083425426099,29.916149244911139,33.934906444828812,29.916149244911139,11.385936390705865,0,20.316688726886241-4.018757199921311,27.906770644955941-10.269795727090241,2.009378599959746-1.561946118190463,3.795854472639803-2.455184054519123,6.921373736219721-2.455184054519123,6.028135799881056,0,10.717228208839515,4.687465381768561,10.717228208839515,10.938503908928396,0,3.350049018070422-1.563573145369446,6.252665554369742-3.572951745338287,8.262044154329487-10.715601181640523,9.599460518020351-24.112543199510583,15.627596317901407-42.418226299245362,15.627596317901407ZM1016.618679760340456,465.044410892569431c-1.786475872680967-17.41407219058965-12.056271599770298-31.032289908540406-29.916149244914777-31.032289908540406-16.522461281452706,0-28.131300399432803,12.724979781611182-30.586484453950106,31.032289908540406h60.502633698864884Z" fill="#182a4c"/>
            <path d="M1062.045279364290764,520.413773755099101c-2.902616536290225-1.56357314539855-5.134897863541482-4.911995136259065-5.134897863541482-9.378184817949659,0-6.026508772680245,4.689092408960278-10.938503908928396,10.940130936131027-10.938503908928396,2.232281327240344,0,4.241659927200089.66870818184907,5.805233072600458,1.561946118188644,11.385936390708594,7.591708945270511,23.217678235969288,11.385936390699499,33.934906444819717,11.385936390699499,11.608839117980096,0,18.307310126929224-4.910368109049159,18.307310126929224-12.724979781609363v-.445805454570291c0-9.15365506345006-12.502077054328765-12.280801354239884-26.344824526759112-16.522461281449068-17.41407219058965-4.910368109040064-36.837522981109942-12.054644572550387-36.837522981109942-34.605241653880512v-.445805454559377c0-22.32606732683962,18.530212854178899-35.944285044790377,41.9724208446587-35.944285044790377,12.502077054299662,0,25.674489317680127,3.571324718150208,37.060425708399634,9.599460518029446,3.795854472640713,2.009378599959746,6.475568281650339,5.582330345310766,6.475568281650339,10.269795727081146,0,6.251038527159835-4.911995136249971,10.940130936138303-11.163033663418901,10.940130936138303-2.232281327251258,0-3.572951745371029-.445805454568472-5.357800590831175-1.339043390908046-9.601087545230257-4.911995136260884-19.425077817739293-8.037514399840802-27.685494944869788-8.037514399840802-10.49269845436902,0-16.520834254239162,4.911995136260884-16.520834254239162,11.608839117989191v.447432481771102c0,8.706222581689872,12.726606808810175,12.279174327039073,26.567727254050624,16.743736981528855,17.191169463298138,5.357800590820261,36.614620253838439,13.172412263380465,36.614620253838439,34.382338926590819v.445805454570291c0,24.781251381369657-19.200548063268798,37.060425708410548-43.758896717339667,37.060425708410548-14.957261108860621,0-31.255192635819185-4.68746538177038-44.875037380968934-14.064023172511952Z" fill="#182a4c"/>
          </g>
          <g>
            <path d="M914.296124045342367,562.037702594519942c-11.831741845260694,0-23.442207990457973,11.16303366342072-29.693246517610532,25.899019072199735v-12.056271599769389c0-7.591708945270511-6.028135799879237-13.619844745149749-13.618217717950756-13.619844745149749-7.591708945266873,0-13.395314990670158,6.028135799879237-13.395314990670158,13.619844745149749v93.321399480078981c0,7.590081918071519,6.028135799882875,13.395314990670158,13.395314990670158,13.395314990670158,7.590081918071519,0,13.618217717950756-6.028135799879237,13.618217717950756-13.395314990670158v-34.828144381168386c0-27.90677064494048,13.172412263382284-42.6427560537104,32.372960326640168-45.99117804458001,6.028135799879237-1.116140663620172,10.715601181640523-5.805233072591363,10.715601181640523-12.949509536090773,0-7.812984645359393-4.910368109049159-13.395314990670158-13.395314990670158-13.395314990670158Z" fill="#182a4c"/>
            <path d="M1024.169256488929932,575.210114857900408c-8.260417127109577-8.483319854409274-21.432829390500046-13.172412263380465-39.069804308365747-13.172412263380465-15.406320617821621,0-26.792257008532033,2.679713809020541-37.955290671950934,6.92137373622063-4.018757199919492,1.563573145389455-7.367179190790921,5.805233072589544-7.367179190790921,10.715601181649618,0,6.252665554358828,5.134897863561491,11.163033663418901,11.385936390721326,11.163033663418901,1.340670418110676,0,2.679713809000532-.222902727289693,4.241659927200089-.66870818184907,7.368806217989913-2.90261653629932,15.852126072390092-4.689092408980287,26.121921799469419-4.689092408980287,18.977645335966372,0,29.247441063066617,8.930752336180376,29.247441063066617,25.674489317700136v2.90261653629932c-9.153655063460064-2.90261653629932-18.530212854216188-4.911995136248152-31.702625117598473-4.911995136248152-28.801635608488141,0-48.670891853598732,12.503704081518663-48.670891853598732,37.953663644748303v.447432481771102c0,23.665110717738571,19.646353517829994,36.390090499349753,41.749518117390835,36.390090499349753,18.084407399630436,0,30.363581726686789-7.590081918060605,38.401096126506673-17.189542436099146v4.464562654487963c0,6.028135799890151,5.35780059084027,11.385936390710413,13.170785236179654,11.385936390710413,7.368806217989913,0,13.172412263380465-5.580703318119049,13.172412263380465-12.949509536099868v-58.045822617139493c0-15.404693590620809-4.018757199930405-27.908397672150386-12.724979781610273-36.39171752655966ZM1011.219746952840069,639.061170547629445c0,14.958888136061432-13.618217717948937,25.228683863140759-31.479722390306051,25.228683863140759-12.94788250889178,0-22.994775508690509-6.473941254440433-22.994775508690509-17.859877645150846v-.447432481769283c0-12.279174327040892,10.269795727090241-19.646353517820899,27.683867917669886-19.646353517820899,10.715601181650527,0,19.869256245096949,2.009378599959746,26.790629981326674,4.689092408971192v8.035887372629077Z" fill="#182a4c"/>
            <path d="M772.541363876162904,648.885160820149395v-62.066206844259796h-7.204800616429566c-6.475568281650339,0-11.610466145190003-5.134897863539663-11.610466145190003-11.608839117989191s5.134897863539663-11.608839117980096,11.610466145190003-11.608839117980096h7.204800616429566v-9.822427555269314c0-7.367179190790921,6.028135799879237-13.395314990670158,13.618217717963489-13.395314990670158,7.368806217978999,0,13.396942017856418,6.028135799879237,13.396942017856418,13.395314990670158v9.822427555269314h21.208299636000447c6.475568281651249,0,11.833368872481515,5.134897863530568,11.833368872481515,11.608839117980096s-5.357800590830266,11.608839117989191-11.833368872481515,11.608839117989191h-21.208299636000447v57.824546917050611c0,10.492698454370839,5.357800590809347,14.734358381569109,14.511455654279416,14.734358381569109,3.125519263572642,0,5.803606045393281-.668708181839975,6.696843981721031-.668708181839975,6.028135799880147,0,11.385936390722236,4.91199513625179,11.385936390722236,11.163033663411625,0,4.910368109060073-3.348421990883253,8.929125308979565-7.14264943631224,10.492698454359925-5.80523307258045,2.009378599979755-11.387563417898491,3.125519263598108-18.531839881407905,3.125519263598108-19.869256245100587,0-33.934906444822445-8.707849608897959-33.934906444822445-34.605241653889607Z" fill="#182a4c"/>
          </g>
        </g>
      </g>
    </g>
    <line id="second-hand" x1="1295.529003993869992" y1="1039.529003957230088" x2="1024" y2="767.999999999930878" fill="none" stroke="#fff" stroke-linecap="round" stroke-linejoin="round" stroke-width="24"/>
    <line id="second-hand-2" data-name="second-hand" x1="1024" y1="384" x2="1024" y2="767.999999999930878" fill="none" stroke="#fff" stroke-linecap="round" stroke-linejoin="round" stroke-width="12"/>
    <line id="hour-hand" x1="842.980664028432329" y1="949.019335995870279" x2="1024" y2="767.999999999930878" fill="none" stroke="#fff" stroke-linecap="round" stroke-linejoin="round" stroke-width="24"/>
  </g>
</svg>