<?xml version="1.0" encoding="UTF-8"?>
<svg xmlns="http://www.w3.org/2000/svg" viewBox="0 0 2048 1536">
  <g id="bg">
    <rect id="bg-2" data-name="bg" x="-.000000000001819" y="-.000000000010004" width="2048.000000000001819" height="1536" fill="#5f97fb"/>
  </g>
  <g id="concept">
    <circle id="small-circle" cx="1023.999999999999773" cy="767.999999999997272" r="512.00000000000648" fill="none" isolation="isolate" opacity=".5" stroke="#182a4c" stroke-miterlimit="10"/>
    <g id="a-play">
      <path d="M828.34002685546875,487.02001953125l451.67999267578125,280.97998046875-451.67999267578125,280.97998046875V487.02001953125M828.3355712890625,343.02001953125c-24.06219482421875,0-48.150390625,6.02099609375-69.9346923828125,18.125-45.71124267578125,25.398193359369998-74.06085205078125,73.58154296875-74.06085205078125,125.875v561.9599609375c0,52.29345703125,28.349609375,100.476806640620453,74.06085205078125,125.875,21.781494140625,12.102294921870453,45.87554931640625,18.125,69.9346923828125,18.125,26.43212890625,0,52.822509765625-7.267822265629547,76.0673828125-21.727783203129547l451.6800537109375-280.980224609370453c42.24951171875-26.282470703129547,67.93701171875-72.514404296879547,67.93701171875-122.27197265625,0-49.757568359380002-25.6875-95.989501953130002-67.93701171875-122.27197265625l-451.6800537109375-280.980224609380002c-23.24212646484375-14.458251953119998-49.63836669921875-21.727783203119998-76.0673828125-21.727783203119998h0Z" fill="#fff"/>
    </g>
    <circle id="south-a" cx="768.00000000000955" cy="1109.333333333255268" r="85.3333333333307" fill="#182a4c"/>
    <circle id="center-a" cx="1365.333333333320297" cy="767.999999999959982" r="85.333333333340988" fill="#182a4c"/>
    <circle id="north-a" cx="768.000000000019099" cy="426.666666666637866" r="85.333333333331979" fill="#182a4c"/>
    <g id="icon-grid">
      <g id="padding">
        <rect id="live_area" data-name="live area" x="512.000000000046384" y="255.999999999969532" width="1023.999999999884494" height="1023.999999999969987" fill="none" isolation="isolate" opacity=".5" stroke="#182a4c" stroke-miterlimit="10"/>
      </g>
      <rect id="live-area" x="597.333333333362134" y="341.333333333310293" width="853.333333333307564" height="853.333333333289374" fill="none" isolation="isolate" opacity=".5" stroke="#182a4c" stroke-miterlimit="10"/>
      <g id="keylines">
        <rect id="vertical" x="682.666666666689707" y="341.333333333310293" width="682.666666666600577" height="853.333333333289374" rx="85.333333333326664" ry="85.333333333326664" fill="none" isolation="isolate" opacity=".5" stroke="#182a4c" stroke-miterlimit="10"/>
        <rect id="horizontal" x="597.333333333362134" y="426.666666666650485" width="853.333333333307564" height="682.666666666629794" rx="85.333333333309781" ry="85.333333333309781" fill="none" isolation="isolate" opacity=".5" stroke="#182a4c" stroke-miterlimit="10"/>
        <rect id="square" x="640.000000000026375" y="383.999999999969987" width="767.999999999984539" height="767.999999999969987" rx="85.760009765619998" ry="85.760009765619998" fill="none" isolation="isolate" opacity=".5" stroke="#182a4c" stroke-miterlimit="10"/>
        <circle id="large-circle" cx="1024.000000000007958" cy="767.999999999942247" r="426.66666666665958" fill="none" isolation="isolate" opacity=".5" stroke="#182a4c" stroke-miterlimit="10"/>
        <circle id="medium-circle" cx="1023.999999999996817" cy="767.999999999952706" r="255.999999999985675" fill="none" isolation="isolate" opacity=".5" stroke="#182a4c" stroke-miterlimit="10"/>
        <circle id="small-circle-2" data-name="small-circle" cx="1024.000000000000455" cy="767.999999999942247" r="85.333333333333485" fill="none" isolation="isolate" opacity=".5" stroke="#182a4c" stroke-miterlimit="10"/>
      </g>
    </g>
  </g>
</svg>