<?xml version="1.0" encoding="UTF-8"?>
<svg xmlns="http://www.w3.org/2000/svg" viewBox="0 0 2048 1536">
  <g id="bg">
    <rect x="-.000000000001819" width="2048.000000000001819" height="1536" fill="#fff"/>
  </g>
  <g id="waves">
    <circle cx="1023.999999999999091" cy="768" r="597.333333333401242" fill="#5f97fb" isolation="isolate" opacity=".15"/>
    <circle cx="1024" cy="768" r="768.000000000069576" fill="#5f97fb" isolation="isolate" opacity=".15"/>
  </g>
  <g id="mug">
    <path id="ocean" d="M554.66649999999936,256.000000000001819h938.667000000000371c23.548282392573356,0,42.666500000000269,19.118217607426857,42.666500000000269,42.666500000000269v938.666999999999462c0,23.548282392573356-19.118217607426914,42.666500000000269-42.666500000000269,42.666500000000269h-938.667000000000371c-23.548282392572901,0-42.66649999999936-19.118217607426459-42.66649999999936-42.66649999999936V298.666500000001179c0-23.548282392572901,19.118217607426459-42.66649999999936,42.66649999999936-42.66649999999936Z" fill="#182a4c"/>
    <path id="cup-handle" d="M1536.000015089910448,512h170.66665157675925c47.128280242721303,0,85.333299999989322,38.205019757259834,85.333299999989322,85.333300000000236v341.333399999999529c0,47.128280242740402-38.205019757268019,85.333300000000236-85.333299999989322,85.333300000000236h-170.666666666669698" fill="none" stroke="#182a4c" stroke-miterlimit="10" stroke-width="100"/>
    <rect id="earth" x="512.000000001954504" y="256.000000001953765" width="1023.999999996091447" height="1023.99999999609372" rx="511.999487996092284" ry="511.999487996092284" fill="#5f97fb"/>
    <g id="old_logotype" data-name="old logotype">
      <g>
        <g id="south">
          <g>
            <path d="M1112.99011301147948,729.49381964405984c0-7.591708945279606,5.803606045419656-13.619844745149749,13.395314990690167-13.619844745149749,7.590081918049691,0,13.618217717939842,6.028135799870142,13.618217717939842,13.619844745149749v5.580703318109954c7.591708945281425-10.492698454359925,17.861504672349838-20.316688726879875,35.944285044781282-20.316688726879875,16.968266736008445,0,29.024538335768739,8.260417127110486,35.275576862928574,20.762494181450165,9.376557790761581-12.502077054339679,21.878634845081251-20.762494181450165,39.740139517431089-20.762494181450165,25.674489317720145,0,41.302085635608819,16.297931526960383,41.302085635608819,45.097940108249531v62.959444780590275c0,7.590081918070609-5.803606045388733,13.395314990660154-13.395314990670158,13.395314990660154-7.590081918049691,0-13.618217717939842-5.805233072589544-13.618217717939842-13.395314990660154v-54.699027653469784c0-18.75311558148951-8.707849608899778-28.800008581290058-23.889640472229075-28.800008581290058-14.734358381570928,0-25.227056835930853,10.269795727080236-25.227056835930853,29.247441063060251v54.251595171699591c0,7.590081918070609-6.028135799890151,13.395314990660154-13.39531499064833,13.395314990660154-7.591708945270511,0-13.619844745171577-5.805233072589544-13.619844745171577-13.395314990660154v-54.921930380769481c0-18.307310126910124-8.930752336178557-28.577105853990361-23.888013445019169-28.577105853990361-14.958888136059613,0-25.228683863140759,11.16303366341981-25.228683863140759,29.247441063060251v54.251595171699591c0,7.590081918070609-6.028135799890151,13.395314990660154-13.618217717939842,13.395314990660154-7.367179190789102,0-13.395314990690167-5.805233072589544-13.395314990690167-13.395314990660154v-93.321399480069886Z" fill="#182a4c"/>
            <path d="M1376.005569042190473,837.774107260190249c-34.159436199341144,0-60.504260726091161-24.782878408570468-60.504260726091161-61.172968907920222v-.447432481780197c0-33.712003717540028,23.889640472239989-61.39587163519991,57.601644189780927-61.39587163519991,37.506231162969925,0,56.038071044400567,30.809387181239799,56.038071044400567,58.047449644340304,0,7.5900819180697-5.805233072620467,12.949509536099868-12.726606808830184,12.949509536099868h-73.897948689531404c2.902616536310234,19.198921036049796,16.520834254250076,29.91614924491023,33.934906444841545,29.91614924491023,11.38593639067949,0,20.316688726879875-4.018757199920401,27.906770644929566-10.269795727090241,2.00937859997066-1.563573145390365,3.795854472638894-2.455184054520032,6.921373736218811-2.455184054520032,6.028135799870142,0,10.717228208861343,4.687465381759466,10.717228208861343,10.938503908930215,0,3.350049018069512-1.563573145391274,6.251038527159835-3.57295174535102,8.260417127119581-10.715601181658712,9.601087545230257-24.110916172328871,15.629223345110404-42.418226299228991,15.629223345110404ZM1402.796199023510781,767.893288743360245c-1.786475872690062-17.41407219057055-12.056271599760294-31.032289908510393-29.917776272110132-31.032289908510393-16.520834254250076,0-28.129673372241086,12.724979781600268-30.584857426780218,31.032289908510393h60.502633698890349ZM1365.28834083332913,698.682805435610135c0-1.561946118190463.893237936350488-3.571324718150208,1.786475872671872-4.910368109060073l12.724979781598449-19.647980545029895c2.456811081739943-4.018757199910397,6.028135799881056-6.473941254440433,10.717228208861343-6.473941254440433,7.144276463508504,0,16.075028799679785,4.464562654490692,16.075028799679785,8.706222581690781,0,2.456811081729029-1.563573145391274,4.689092408979377-3.795854472629799,6.698471008940032l-14.958888136070527,14.288552926999728c-5.357800590809347,4.911995136259975-9.599460518009437,6.028135799860138-15.850499045169272,6.028135799860138-3.795854472631618,0-6.698471008941851-1.786475872660958-6.698471008941851-4.689092408960278Z" fill="#182a4c"/>
          </g>
          <g>
            <path d="M1216.135502764089324,879.440646990040477c0-7.591708945270511,5.803606045381457-13.619844745150658,13.395314990670158-13.619844745150658,7.590081918071519,0,13.618217717919833,6.028135799880147,13.618217717919833,13.619844745150658v12.054644572559482c6.251038527179844-14.734358381570019,17.861504672369847-25.897392044989829,29.693246517641455-25.897392044989829,8.483319854400179,0,13.39531499064833,5.58070331809995,13.39531499064833,13.395314990660154,0,7.144276463509414-4.687465381748552,11.833368872479696-10.715601181629609,12.949509536099868-19.200548063268798,3.34842199086961-32.372960326660177,18.084407399639531-32.372960326660177,45.99117804458001v34.828144381169295c0,7.367179190780007-6.028135799848314,13.395314990661063-13.618217717919833,13.395314990661063-7.367179190800016,0-13.395314990670158-5.805233072590454-13.395314990670158-13.395314990661063v-93.321399480078981Z" fill="#182a4c"/>
            <path d="M1301.907496006260772,851.204130315929433c0-8.035887372629077,6.698471008920023-13.17078523616965,15.404693590629904-13.17078523616965,8.707849608879769,0,15.404693590609895,5.134897863540573,15.404693590609895,13.17078523616965v1.340670418110676c0,8.037514399839893-6.696843981730126,13.395314990670158-15.404693590609895,13.395314990670158-8.706222581709881,0-15.404693590629904-5.357800590830266-15.404693590629904-13.395314990670158v-1.340670418110676ZM1303.916874606220517,890.81736171124976c0-7.591708945269602,5.805233072598639-13.619844745149749,13.395314990670158-13.619844745149749,7.591708945259597,0,13.619844745138835,6.028135799880147,13.619844745138835,13.619844745149749v81.944684758869698c0,7.590081918070609-6.028135799879237,13.395314990661063-13.619844745138835,13.395314990661063-7.367179190800016,0-13.395314990670158-5.805233072590454-13.395314990670158-13.395314990661063v-81.944684758869698Z" fill="#182a4c"/>
            <path d="M1354.660599120830739,926.770868425530352v-.447432481770193c0-33.487473963050434,25.899019072199735-61.618774362489603,61.395871635209915-61.618774362489603,18.531839881408814,0,31.256819663019996,6.028135799879237,41.303712662818725,14.73598540876992,1.786475872670053,1.561946118189553,4.241659927200089,4.910368109060073,4.241659927200089,9.376557790749757,0,6.921373736219721-5.580703318119049,12.279174327039982-12.502077054328765,12.279174327039982-3.348421990880524,0-6.251038527161654-1.340670418110676-8.037514399829888-2.679713809010536-6.921373736240639-5.805233072599549-14.51145565429033-10.046892999799638-25.228683863151673-10.046892999799638-19.646353517829994,0-34.157809172098496,16.968266736010264-34.157809172098496,37.507858190179832v.445805454560286c0,20.98702393593976,14.511455654268502,37.730760917469524,35.273949835718668,37.730760917469524,10.717228208861343,0,18.977645335980924-4.24165992719918,26.344824526750017-10.492698454369929,1.563573145391274-1.33904339089986,4.241659927220098-2.90261653629932,7.367179190800016-2.90261653629932,6.475568281661253,0,11.610466145190003,5.359427618039263,11.610466145190003,11.833368872479696,0,3.571324718130199-1.340670418108857,6.473941254449528-3.795854472638894,8.483319854400179-10.49269845435083,10.046892999809643-23.219305263190108,16.745364008739671-42.865658780990998,16.745364008739671-35.051047108448984,0-60.950066180648719-27.460965190390198-60.950066180648719-60.950066180649628Z" fill="#182a4c"/>
          </g>
          <path d="M1211.446410355110856,1101.053141698316722v-.447432481771102c0-25.451586590417719,19.869256245099677-37.953663644748303,48.670891853609646-37.953663644748303,13.172412263378646,0,22.548970054120218,2.009378599959746,31.702625117590287,4.911995136269979v-2.902616536310234c0-16.743736981517031-10.269795727090241-25.674489317697407-29.247441063060251-25.674489317697407-10.269795727081146,0-18.753115581501334,1.786475872670053-26.121921799491247,4.689092408980287-1.561946118188644.445805454560286-2.900989509098508.668708181839975-4.24165992719827.668708181839975-6.251038527181663,0-11.385936390710413-4.911995136259975-11.385936390710413-11.16303366341981,0-4.911995136259975,3.348421990878705-9.153655063460064,7.367179190800016-10.715601181639613,11.163033663398892-4.241659927200089,22.548970054120218-6.921373736230635,37.95529067194002-6.921373736230635,17.636974917868429,0,30.809387181259808,4.689092408980287,39.069804308370294,13.172412263370461,8.706222581688053,8.483319854429283,12.724979781598449,20.985396908745315,12.724979781598449,36.391717526567845v58.045822617146769c0,7.368806217983547-5.803606045368724,12.949509536090773-13.172412263378646,12.949509536090773-7.812984645330289,0-13.170785236170559-5.35780059082208-13.170785236170559-11.385936390699499v-4.464562654487963c-8.037514399840802,9.599460518027627-20.31668872687078,17.189542436099146-38.401096126519406,17.189542436099146-22.103164599549928,0-41.749518117379921-12.724979781611182-41.749518117379921-36.390090499360667ZM1292.265732780859253,1092.568194816695723v-8.035887372619072c-6.921373736198802-2.67971380902145-16.075028799659776-4.689092408983015-26.790629981318489-4.689092408983015-17.414072190591469,0-27.683867917661701,7.367179190803654-27.683867917661701,19.646353517829994v.447432481772012c0,11.385936390700408,10.046892999791453,17.859877645151755,22.994775508690509,17.859877645151755,17.861504672329829,0,31.47972239028968-10.269795727079327,31.47972239028968-25.228683863151673Z" fill="#182a4c"/>
        </g>
        <g id="north">
          <g>
            <path d="M665.441127521226008,426.644941793259932c0-7.591708945279606,5.803606045388733-13.619844745159753,13.395314990670158-13.619844745159753,7.590081918060605,0,13.618217717939842,6.028135799880147,13.618217717939842,13.619844745159753v5.803606045379638c7.591708945270511-10.938503908919301,18.530212854198908-20.539591454159563,36.837522981109942-20.539591454159563,26.567727254048805,0,41.972420844671433,17.861504672359843,41.972420844671433,45.099567135460347v62.957817753389463c0,7.591708945270511-5.803606045392371,13.395314990660154-13.395314990641054,13.395314990660154-7.590081918078795,0-13.61821771796167-5.803606045389643-13.61821771796167-13.395314990660154v-54.697400626269882c0-18.307310126920129-9.153655063466431-28.801635608499964-25.228683863137121-28.801635608499964-15.627596317921416,0-26.567727254041529,10.940130936140122-26.567727254041529,29.247441063060251v54.251595171709596c0,7.591708945270511-6.028135799879237,13.395314990660154-13.618217717939842,13.395314990660154-7.367179190798197,0-13.395314990670158-5.803606045389643-13.395314990670158-13.395314990660154v-93.321399480069886Z" fill="#182a4c"/>
            <path d="M905.595224274138673,519.966341273329817c0,7.367179190780007-6.028135799879237,13.395314990660154-13.618217717950756,13.395314990660154-7.367179190769093,0-13.618217717928928-5.803606045389643-13.618217717928928-13.395314990660154v-6.028135799880147c-7.591708945269602,11.16303366341981-18.531839881412452,20.764121208650067-36.839150008332581,20.764121208650067-26.567727254048805,0-41.972420844671433-17.861504672349838-41.972420844671433-45.322469862730031v-62.734915026109775c0-7.591708945279606,6.028135799882875-13.619844745159753,13.395314990651968-13.619844745159753,7.591708945277787,0,13.619844745160663,6.028135799880147,13.619844745160663,13.619844745159753v54.697400626269882c0,18.307310126920129,9.153655063459155,28.577105854000365,25.227056835938129,28.577105854000365,15.629223345122227,0,26.569354281253254-10.715601181650527,26.569354281253254-29.022911308570656v-54.251595171699591c0-7.591708945279606,6.026508772658417-13.619844745159753,13.618217717928928-13.619844745159753,7.367179190790921,0,13.618217717950756,6.028135799880147,13.618217717950756,13.619844745159753v93.321399480069886Z" fill="#182a4c"/>
            <path d="M989.828049779009234,534.925229409380336c-34.159436199301126,0-60.504260726069333-24.781251381360562-60.504260726069333-61.172968907920222v-.447432481770193c0-33.712003717550033,23.889640472239989-61.395871635209915,57.601644189770013-61.395871635209915,37.506231162989934,0,56.038071044389653,30.811014208449706,56.038071044389653,58.047449644340304,0,7.591708945269602-5.805233072589544,12.949509536099868-12.726606808810175,12.949509536099868h-73.897948689540499c2.902616536310234,19.200548063259703,16.52083425426099,29.91614924491023,33.934906444828812,29.91614924491023,11.385936390712232,0,20.316688726882603-4.018757199920401,27.906770644962307-10.269795727090241,2.009378599959746-1.561946118180458,3.795854472629799-2.455184054520032,6.921373736209716-2.455184054520032,6.028135799881056,0,10.717228208850429,4.687465381769471,10.717228208850429,10.938503908929306,0,3.350049018070422-1.56357314538036,6.252665554370651-3.572951745349201,8.262044154330397-10.715601181640523,9.599460518030355-24.112543199510583,15.627596317900498-42.418226299241724,15.627596317900498ZM1016.618679760340456,465.04441089257034c-1.786475872680967-17.414072190580555-12.056271599760294-31.032289908530402-29.916149244911139-31.032289908530402-16.522461281452706,0-28.131300399432803,12.724979781610273-30.586484453950106,31.032289908530402h60.502633698861246Z" fill="#182a4c"/>
            <path d="M1062.045279364290764,520.41377375510001c-2.90261653628113-1.563573145390365-5.134897863541482-4.911995136259975-5.134897863541482-9.378184817950569,0-6.026508772669331,4.689092408971192-10.938503908929306,10.940130936140122-10.938503908929306,2.232281327240344,0,4.241659927200089.668708181849979,5.805233072591363,1.561946118189553,11.385936390708594,7.591708945270511,23.217678235978383,11.385936390700408,33.934906444828812,11.385936390700408,11.608839117980096,0,18.307310126920129-4.910368109050069,18.307310126920129-12.724979781610273v-.445805454559377c0-9.153655063460974-12.50207705431967-12.280801354250798-26.344824526759112-16.522461281450887-17.414072190580555-4.910368109049159-36.837522981109942-12.054644572559482-36.837522981109942-34.605241653889607v-.445805454560286c0-22.32606732683962,18.530212854189813-35.944285044779463,41.9724208446587-35.944285044779463,12.502077054310575,0,25.674489317691041,3.571324718140204,37.060425708410548,9.599460518019441,3.795854472629799,2.009378599960655,6.475568281650339,5.582330345310766,6.475568281650339,10.269795727080236,0,6.25103852716984-4.911995136260884,10.940130936140122-11.163033663429815,10.940130936140122-2.232281327240344,0-3.572951745360115-.445805454570291-5.357800590820261-1.339043390909865-9.601087545230257-4.911995136259975-19.425077817750207-8.037514399839893-27.685494944869788-8.037514399839893-10.492698454379934,0-16.520834254240981,4.911995136259975-16.520834254240981,11.608839117989191v.447432481771102c0,8.706222581689872,12.726606808810175,12.279174327039073,26.567727254041529,16.743736981529764,17.191169463309052,5.357800590819352,36.614620253838439,13.172412263379556,36.614620253838439,34.382338926599914v.445805454560286c0,24.781251381369657-19.200548063259703,37.060425708409639-43.758896717339667,37.060425708409639-14.957261108849707,0-31.255192635819185-4.687465381760376-44.875037380968934-14.064023172510133Z" fill="#182a4c"/>
          </g>
          <g>
            <path d="M914.296124045346005,562.037702594519942c-11.831741845260694,0-23.442207990457973,11.16303366341981-29.693246517609623,25.899019072199735v-12.056271599759384c0-7.591708945270511-6.028135799880147-13.619844745159753-13.618217717951666-13.619844745159753-7.591708945266873,0-13.395314990670158,6.028135799889242-13.395314990670158,13.619844745159753v93.321399480069886c0,7.590081918079704,6.028135799882875,13.395314990670158,13.395314990670158,13.395314990670158,7.590081918071519,0,13.618217717951666-6.028135799880147,13.618217717951666-13.395314990670158v-34.8281443811602c0-27.906770644949574,13.172412263381375-42.642756053719495,32.372960326639259-45.991178044590015,6.028135799879237-1.116140663620172,10.715601181640523-5.805233072590454,10.715601181640523-12.949509536089863,0-7.812984645350298-4.910368109049159-13.395314990670158-13.395314990670158-13.395314990670158Z" fill="#182a4c"/>
            <path d="M1024.169256488939936,575.210114857900408c-8.260417127109577-8.483319854400179-21.432829390500046-13.172412263380465-39.069804308372113-13.172412263380465-15.406320617821621,0-26.792257008532033,2.679713809020541-37.955290671950934,6.921373736219721-4.018757199919492,1.563573145400369-7.367179190790921,5.805233072600458-7.367179190790921,10.715601181650527,0,6.252665554369742,5.134897863562401,11.16303366341981,11.385936390721326,11.16303366341981,1.340670418110676,0,2.679713809000532-.222902727289693,4.241659927200089-.668708181849979,7.368806217989913-2.902616536300229,15.852126072391002-4.689092408980287,26.121921799469419-4.689092408980287,18.977645335973648,0,29.247441063072984,8.930752336180376,29.247441063072984,25.67448931771014v2.902616536300229c-9.153655063460064-2.902616536300229-18.530212854222555-4.911995136259975-31.702625117604839-4.911995136259975-28.801635608488141,0-48.670891853598732,12.503704081529577-48.670891853598732,37.953663644750122v.447432481770193c0,23.665110717739481,19.646353517829994,36.390090499349753,41.749518117390835,36.390090499349753,18.084407399631345,0,30.363581726683151-7.590081918060605,38.401096126513039-17.189542436100055v4.464562654489782c0,6.028135799890151,5.35780059084027,11.385936390710413,13.170785236179654,11.385936390710413,7.368806217990823,0,13.172412263379556-5.580703318110864,13.172412263379556-12.949509536100777v-58.045822617139493c0-15.4046935906199-4.018757199928586-27.908397672150386-12.724979781609363-36.39171752655966ZM1011.219746952850073,639.061170547640359c0,14.958888136049609-13.618217717955304,25.22868386313985-31.479722390312418,25.22868386313985-12.94788250889178,0-22.994775508690509-6.473941254450438-22.994775508690509-17.859877645149936v-.447432481780197c0-12.279174327039982,10.269795727090241-19.646353517819989,27.683867917668977-19.646353517819989,10.715601181651436,0,19.869256245104225,2.009378599959746,26.79062998133395,4.689092408979377v8.035887372630896Z" fill="#182a4c"/>
            <path d="M772.541363876163814,648.885160820150304v-62.066206844260705h-7.204800616429566c-6.475568281650339,0-11.610466145190003-5.134897863539663-11.610466145190003-11.608839117989191,0-6.473941254440433,5.134897863539663-11.608839117980096,11.610466145190003-11.608839117980096h7.204800616429566v-9.822427555270224c0-7.367179190780007,6.028135799879237-13.395314990660154,13.61821771796258-13.395314990660154,7.368806217978999,0,13.396942017857327,6.028135799880147,13.396942017857327,13.395314990660154v9.822427555270224h21.208299636000447c6.475568281650339,0,11.833368872481515,5.134897863539663,11.833368872481515,11.608839117980096,0,6.473941254449528-5.357800590831175,11.608839117989191-11.833368872481515,11.608839117989191h-21.208299636000447v57.824546917060616c0,10.492698454359925,5.357800590809347,14.734358381560014,14.511455654279416,14.734358381560014,3.125519263572642,0,5.803606045392371-.668708181839975,6.696843981721031-.668708181839975,6.028135799879237,0,11.385936390721326,4.911995136249971,11.385936390721326,11.16303366341981,0,4.910368109050069-3.348421990882343,8.92912530897047-7.142649436311331,10.492698454359925-5.80523307258045,2.00937859996975-11.387563417898491,3.125519263589922-18.531839881408814,3.125519263589922-19.869256245099677,0-33.934906444821536-8.707849608899778-33.934906444821536-34.605241653889607Z" fill="#182a4c"/>
          </g>
        </g>
      </g>
    </g>
    <path id="a-play" d="M991.389892578126819,721.169921875l75.280029296873181,46.830078125-75.280029296873181,46.830078125v-93.66015625M991.389160156251819,697.169921875c-4.01025390625,0-8.02490234375,1.003662109380457-11.65576171875,3.020751953130457-7.61865234375,4.233154296869543-12.343505859375,12.263671875-12.343505859375,20.979248046869543v93.66015625c0,8.715576171880457,4.724853515625,16.74609375,12.343505859375,20.979248046880457,3.63037109375,2.016845703119543,7.64599609375,3.020751953119543,11.65576171875,3.020751953119543,4.4052734375,0,8.803710937498181-1.21142578125,12.677978515628638-3.621337890619543l75.280029296869543-46.830078125c7.04150390625-4.38037109375,11.32275390625-12.085693359380457,11.32275390625-20.378662109380457s-4.28125-15.998291015619543-11.32275390625-20.378662109369543l-75.280029296869543-46.830078125c-3.873779296880457-2.40966796875-8.273193359378638-3.621337890630457-12.677978515628638-3.621337890630457h0Z" fill="#fff"/>
  </g>
</svg>