<?xml version="1.0" encoding="UTF-8"?>
<svg xmlns="http://www.w3.org/2000/svg" viewBox="0 0 2048 1536">
  <style>
    @keyframes bounceScale {
      0%, 100% { transform: scale(1); }
      50% { transform: scale(1.3); }
      70% { transform: scale(1.3); }
    }


    @keyframes sceneClock {
      0%, 33% { opacity: 1; visibility: visible; }
      33.01%, 100% { opacity: 0; visibility: hidden; }
    }

    @keyframes sceneMug {
      0%, 33% { opacity: 0; visibility: hidden; }
      33.01%, 66% { opacity: 1; visibility: visible; }
      66.01%, 100% { opacity: 0; visibility: hidden; }
    }

    @keyframes sceneBag {
      0%, 66% { opacity: 0; visibility: hidden; }
      66.01%, 100% { opacity: 1; visibility: visible; }
    }

    @keyframes sceneAPlayNotClock {
      0%, 33% { opacity: 1; visibility: visible; }
      33.01%, 66% { opacity: 0; visibility: hidden; }
      66.01%, 100% { opacity: 1; visibility: visible; }
    }

    @keyframes mugEntryRotate {
      0%, 0.1% { transform: rotate(-90deg); }
      6% { transform: rotate(0deg); }
      100% { transform: rotate(0deg); }
    }

    @keyframes spinSecondHand {
      from { transform: rotate(0deg); }
      to { transform: rotate(360deg); }
    }

 

    #big-circle,
    #small-circle {
      transform-origin: 50% 50%;
      transform-box: fill-box;
      animation: bounceScale 1.6s cubic-bezier(0.68, -0.55, 0.27, 1.55) infinite;
    }

    #small-circle {
      animation-delay: 0.1s;
    }

    #clock,
    #mug,
    #bag {
      opacity: 0;
      visibility: hidden;
      animation-duration: 4.8s;
      animation-timing-function: steps(1, end);
      animation-iteration-count: infinite;
    }

    #clock {
      animation-name: sceneMug;
    }

    #bag {
      animation-name: sceneBag;
    }

    #mug {
      transform-origin: 50% 50%;
      animation-name: sceneClock, mugEntryRotate;
      animation-duration: 4.8s, 4.8s;
      animation-timing-function: steps(1, end), linear;
      animation-iteration-count: infinite, infinite;
    }

    #a-play {
      transform-origin: 50% 50%;
      transform-box: fill-box;
      animation: sceneAPlayNotClock 4.8s steps(1, end) infinite;
    }

    #second-hand-2 {
      transform-origin: 50% 50%;
      animation: spinSecondHand 60s linear infinite;
    }

  

  </style>
  <g isolation="isolate">
    <g id="bg">
      <rect x="-.000000000001819" width="2048.000000000001819" height="1536" fill="#fff"/>
    </g>
    <g id="waves">
      <circle id="big-circle" cx="1024" cy="768" r="768.000000000069576" fill="#5f97fb" isolation="isolate" opacity=".15"/>
      <circle id="small-circle" cx="1023.999999999999091" cy="768" r="597.333333333401242" fill="#5f97fb" isolation="isolate" opacity=".15"/>
    </g>
    <g id="bag">
      <path id="ocean" d="M509.999999999999318,206.000000000001364h1076.000000000002274v1123.999999999999091H509.999999999999261c-26.49192117571198,0-47.999999999999943-21.508078824288077-47.999999999999943-48V254.000000000001364c0-26.491921175712008,21.50807882428802-48,48-48Z" transform="translate(255.999999999999773 1792.000000000001592) rotate(-90.000000000000014)" fill="#182a4c"/>
      <line id="bag-handle" x1="1194.666666666669698" x2="1194.666666666669698" y2="255.999966666649925" fill="none" mix-blend-mode="luminosity" stroke="#182a4c" stroke-miterlimit="10" stroke-width="100"/>
      <path id="bag-handle-2" data-name="bag-handle" d="M853.333333333332121,255.999951576740386V0" fill="none" mix-blend-mode="luminosity" stroke="#182a4c" stroke-miterlimit="10" stroke-width="100"/>
    </g>
    <g id="mug">
      <rect id="cup" x="512" y="205.999999979906306" width="1024.000000028421709" height="1123.999999812810074" rx="48" ry="48" fill="#182a4c" mix-blend-mode="luminosity"/>
      <path id="cup-handle" d="M1536.000015104120394,511.999999886309524h170.66665157675925c47.128280242721303,0,85.333299999991141,38.205019757260743,85.333299999991141,85.333300000000236v341.333400000000438c0,47.128280242739493-38.205019757269838,85.333299999999326-85.333299999991141,85.333299999999326h-170.666666666669698" fill="none" mix-blend-mode="luminosity" stroke="#182a4c" stroke-linecap="round" stroke-miterlimit="10" stroke-width="100"/>
    </g>
    <!-- <g id="podcast-profile-cover">
      <rect id="bg-2" data-name="bg" x="512" y="255.999999999998636" width="1024" height="1024.000000000000909" rx="47.999999999999091" ry="47.999999999999091" fill="#182a4c"/>
    </g> -->
    <g id="logo">
      <g id="earth-2" data-name="earth">
        <rect x="512.000000001954504" y="256.000000001955868" width="1023.999999996091447" height="1023.999999996090082" rx="511.999487996092739" ry="511.999487996092739" fill="#5f97fb"/>
      </g>
      <g id="logotype">
        <g id="old_logotype-2" data-name="old logotype">
          <g>
            <g id="south-2" data-name="south">
              <g>
                <path d="M1112.99011301147948,729.49381964405984c0-7.591708945269602,5.803606045419656-13.619844745149749,13.395314990690167-13.619844745149749,7.590081918049691,0,13.618217717939842,6.028135799880147,13.618217717939842,13.619844745149749v5.580703318109954c7.591708945281425-10.492698454359925,17.861504672349838-20.316688726879875,35.944285044781282-20.316688726879875,16.968266736008445,0,29.024538335768739,8.26041712712049,35.275576862928574,20.762494181450165,9.376557790761581-12.502077054329675,21.878634845081251-20.762494181450165,39.740139517431089-20.762494181450165,25.674489317720145,0,41.302085635608819,16.297931526960383,41.302085635608819,45.097940108250441v62.959444780589365c0,7.590081918070609-5.803606045388733,13.395314990670158-13.395314990670158,13.395314990670158-7.590081918049691,0-13.618217717939842-5.805233072599549-13.618217717939842-13.395314990670158v-54.699027653469784c0-18.75311558149042-8.707849608899778-28.800008581290058-23.889640472229075-28.800008581290058-14.734358381570928,0-25.227056835930853,10.269795727080236-25.227056835930853,29.247441063060251v54.251595171699591c0,7.590081918070609-6.028135799890151,13.395314990670158-13.39531499064833,13.395314990670158-7.591708945270511,0-13.619844745171577-5.805233072599549-13.619844745171577-13.395314990670158v-54.921930380759477c0-18.307310126920129-8.930752336178557-28.577105854000365-23.888013445019169-28.577105854000365-14.958888136059613,0-25.228683863140759,11.16303366341981-25.228683863140759,29.247441063060251v54.251595171699591c0,7.590081918070609-6.028135799890151,13.395314990670158-13.618217717939842,13.395314990670158-7.367179190789102,0-13.395314990690167-5.805233072599549-13.395314990690167-13.395314990670158v-93.321399480069886Z" fill="#182a4c"/>
                <path d="M1376.005569042190473,837.774107260190249c-34.159436199341144,0-60.504260726091161-24.782878408570468-60.504260726091161-61.172968907920222v-.447432481780197c0-33.712003717540028,23.889640472239989-61.39587163519991,57.601644189780927-61.39587163519991,37.506231162969925,0,56.038071044400567,30.809387181239799,56.038071044400567,58.047449644340304,0,7.5900819180697-5.805233072620467,12.949509536099868-12.726606808830184,12.949509536099868h-73.897948689531404c2.902616536310234,19.198921036049796,16.520834254250076,29.91614924491023,33.934906444841545,29.91614924491023,11.38593639067949,0,20.316688726879875-4.018757199920401,27.906770644918652-10.269795727090241,2.009378599981574-1.563573145390365,3.795854472649808-2.455184054520032,6.921373736229725-2.455184054520032,6.028135799870142,0,10.717228208861343,4.687465381759466,10.717228208861343,10.938503908930215,0,3.350049018069512-1.563573145391274,6.251038527159835-3.57295174535102,8.260417127119581-10.715601181658712,9.601087545230257-24.110916172328871,15.629223345110404-42.418226299228991,15.629223345110404ZM1402.796199023510781,767.893288743370249c-1.786475872690062-17.414072190580555-12.056271599760294-31.032289908520397-29.917776272110132-31.032289908520397-16.520834254250076,0-28.129673372241086,12.724979781600268-30.584857426780218,31.032289908520397h60.502633698890349ZM1365.28834083332913,698.682805435610135c0-1.561946118190463.893237936350488-3.571324718150208,1.786475872671872-4.910368109050069l12.724979781598449-19.6479805450399c2.456811081739943-4.018757199910397,6.028135799881056-6.473941254440433,10.717228208861343-6.473941254440433,7.144276463508504,0,16.075028799679785,4.464562654489782,16.075028799679785,8.706222581689872,0,2.456811081729938-1.563573145391274,4.689092408980287-3.795854472629799,6.698471008940032l-14.958888136070527,14.288552927000637c-5.357800590809347,4.911995136259975-9.599460518009437,6.028135799870142-15.850499045169272,6.028135799870142-3.795854472631618,0-6.698471008941851-1.786475872670053-6.698471008941851-4.689092408970282Z" fill="#182a4c"/>
              </g>
              <g>
                <path d="M1216.135502764089324,879.440646990039568c0-7.591708945269602,5.803606045381457-13.619844745149749,13.395314990670158-13.619844745149749,7.590081918071519,0,13.618217717919833,6.028135799880147,13.618217717919833,13.619844745149749v12.054644572560392c6.251038527179844-14.734358381570019,17.861504672369847-25.897392044989829,29.693246517641455-25.897392044989829,8.483319854400179,0,13.39531499064833,5.58070331809995,13.39531499064833,13.395314990660154,0,7.144276463509414-4.687465381748552,11.833368872479696-10.715601181629609,12.949509536099868-19.200548063268798,3.34842199086961-32.372960326660177,18.084407399639531-32.372960326660177,45.99117804458001v34.828144381170205c0,7.367179190780007-6.028135799848314,13.395314990659244-13.618217717919833,13.395314990659244-7.367179190800016,0-13.395314990670158-5.805233072589544-13.395314990670158-13.395314990659244v-93.3213994800808Z" fill="#182a4c"/>
                <path d="M1301.907496006260772,851.204130315930342c0-8.035887372629986,6.698471008920023-13.170785236170559,15.404693590629904-13.170785236170559,8.707849608879769,0,15.404693590609895,5.134897863540573,15.404693590609895,13.170785236170559v1.340670418109767c0,8.037514399839893-6.696843981730126,13.395314990670158-15.404693590609895,13.395314990670158-8.706222581709881,0-15.404693590629904-5.357800590830266-15.404693590629904-13.395314990670158v-1.340670418109767ZM1303.916874606220517,890.81736171124976c0-7.591708945269602,5.805233072598639-13.619844745149749,13.395314990670158-13.619844745149749,7.591708945248683,0,13.619844745138835,6.028135799880147,13.619844745138835,13.619844745149749v81.944684758870608c0,7.5900819180697-6.028135799890151,13.395314990659244-13.619844745138835,13.395314990659244-7.367179190800016,0-13.395314990670158-5.805233072589544-13.395314990670158-13.395314990659244v-81.944684758870608Z" fill="#182a4c"/>
                <path d="M1354.660599120830739,926.770868425530352v-.447432481770193c0-33.487473963050434,25.899019072199735-61.618774362490512,61.395871635209915-61.618774362490512,18.531839881408814,0,31.256819663019996,6.028135799880147,41.303712662818725,14.73598540876992,1.786475872670053,1.561946118190463,4.241659927200089,4.910368109060073,4.241659927200089,9.376557790750667,0,6.921373736219721-5.580703318119049,12.279174327039982-12.502077054328765,12.279174327039982-3.348421990880524,0-6.251038527161654-1.340670418110676-8.037514399829888-2.679713809010536-6.921373736240639-5.805233072599549-14.51145565429033-10.046892999799638-25.228683863151673-10.046892999799638-19.646353517829994,0-34.157809172098496,16.968266736010264-34.157809172098496,37.507858190179832v.445805454560286c0,20.98702393593976,14.511455654268502,37.730760917469524,35.273949835718668,37.730760917469524,10.717228208861343,0,18.977645335980924-4.241659927200089,26.344824526750017-10.492698454369929,1.563573145391274-1.33904339089986,4.241659927220098-2.902616536300229,7.367179190800016-2.902616536300229,6.475568281661253,0,11.610466145190003,5.359427618040172,11.610466145190003,11.833368872480605,0,3.571324718140204-1.340670418108857,6.473941254449528-3.795854472638894,8.483319854410183-10.49269845435083,10.046892999799638-23.219305263190108,16.745364008729666-42.865658780990998,16.745364008729666-35.051047108448984,0-60.950066180648719-27.460965190390198-60.950066180648719-60.950066180649628Z" fill="#182a4c"/>
              </g>
              <path d="M1211.446410355110856,1101.05314169832036v-.447432481770193c0-25.451586590420447,19.869256245099677-37.953663644750122,48.670891853609646-37.953663644750122,13.172412263378646,0,22.548970054120218,2.009378599959746,31.702625117590287,4.911995136269979v-2.902616536310234c0-16.74373698151976-10.269795727090241-25.674489317700136-29.247441063060251-25.674489317700136-10.269795727081146,0-18.753115581501334,1.786475872670053-26.121921799491247,4.689092408980287-1.561946118188644.445805454560286-2.900989509098508.668708181839975-4.24165992719827.668708181839975-6.251038527181663,0-11.385936390710413-4.911995136259975-11.385936390710413-11.16303366341981,0-4.911995136259975,3.348421990878705-9.153655063460064,7.367179190800016-10.715601181640523,11.163033663398892-4.24165992719918,22.548970054120218-6.921373736229725,37.95529067194002-6.921373736229725,17.636974917868429,0,30.809387181259808,4.689092408980287,39.069804308370294,13.172412263380465,8.706222581688053,8.483319854419278,12.724979781598449,20.985396908739858,12.724979781598449,36.39171752655966v58.045822617150407c0,7.368806217979909-5.803606045368724,12.949509536089863-13.172412263378646,12.949509536089863-7.812984645330289,0-13.170785236170559-5.357800590820261-13.170785236170559-11.385936390700408v-4.464562654489782c-8.037514399840802,9.599460518030355-20.31668872687078,17.189542436100055-38.401096126519406,17.189542436100055-22.103164599549928,0-41.749518117379921-12.724979781610273-41.749518117379921-36.390090499359758ZM1292.265732780859253,1092.56819481670027v-8.035887372619982c-6.921373736198802-2.679713809020541-16.075028799659776-4.689092408980287-26.790629981318489-4.689092408980287-17.414072190591469,0-27.683867917661701,7.367179190800016-27.683867917661701,19.646353517829994v.447432481770193c0,11.385936390699499,10.046892999791453,17.859877645149936,22.994775508690509,17.859877645149936,17.861504672329829,0,31.47972239028968-10.269795727080236,31.47972239028968-25.228683863149854Z" fill="#182a4c"/>
            </g>
            <g id="north-2" data-name="north">
              <g>
                <path d="M665.441127521226917,426.644941793259932c0-7.591708945279606,5.803606045388733-13.619844745149749,13.395314990670158-13.619844745149749,7.590081918058786,0,13.618217717939842,6.028135799870142,13.618217717939842,13.619844745149749v5.803606045389643c7.591708945269602-10.938503908929306,18.530212854198908-20.539591454169567,36.837522981109942-20.539591454169567,26.567727254048805,0,41.972420844670523,17.861504672359843,41.972420844670523,45.099567135460347v62.957817753389463c0,7.591708945270511-5.803606045391462,13.395314990660154-13.395314990640145,13.395314990660154-7.590081918080614,0-13.618217717959851-5.803606045389643-13.618217717959851-13.395314990660154v-54.697400626269882c0-18.307310126920129-9.153655063470069-28.801635608499964-25.228683863140759-28.801635608499964-15.627596317919597,0-26.56772725403971,10.940130936140122-26.56772725403971,29.247441063060251v54.251595171709596c0,7.591708945270511-6.028135799881056,13.395314990660154-13.618217717939842,13.395314990660154-7.367179190800016,0-13.395314990670158-5.803606045389643-13.395314990670158-13.395314990660154v-93.321399480069886Z" fill="#182a4c"/>
                <path d="M905.595224274135944,519.966341273329817c0,7.367179190780007-6.028135799879237,13.395314990660154-13.618217717948937,13.395314990660154-7.367179190770912,0-13.618217717930747-5.803606045389643-13.618217717930747-13.395314990660154v-6.028135799880147c-7.591708945266873,11.16303366342072-18.531839881410633,20.764121208650067-36.839150008328943,20.764121208650067-26.567727254050624,0-41.972420844671433-17.861504672349838-41.972420844671433-45.322469862730031v-62.734915026109775c0-7.591708945279606,6.028135799881056-13.619844745149749,13.395314990650149-13.619844745149749,7.591708945279606,0,13.619844745160663,6.028135799870142,13.619844745160663,13.619844745149749v54.697400626269882c0,18.307310126920129,9.153655063460974,28.577105854000365,25.227056835939948,28.577105854000365,15.629223345120408,0,26.569354281249616-10.715601181640523,26.569354281249616-29.022911308570656v-54.251595171699591c0-7.591708945279606,6.026508772661145-13.619844745149749,13.618217717930747-13.619844745149749,7.367179190789102,0,13.618217717948937,6.028135799870142,13.618217717948937,13.619844745149749v93.321399480069886Z" fill="#182a4c"/>
                <path d="M989.828049779007415,534.92522940939034c-34.159436199300217,0-60.504260726070243-24.781251381370566-60.504260726070243-61.172968907930226v-.447432481770193c0-33.712003717550033,23.889640472239989-61.395871635209915,57.601644189770013-61.395871635209915,37.506231162992663,0,56.038071044392382,30.811014208449706,56.038071044392382,58.047449644340304,0,7.591708945279606-5.805233072589544,12.949509536099868-12.726606808810175,12.949509536099868h-73.897948689543227c2.902616536309324,19.200548063259703,16.52083425426099,29.91614924491023,33.934906444830631,29.91614924491023,11.385936390713141,0,20.316688726883513-4.018757199920401,27.906770644963217-10.269795727080236,2.009378599959746-1.561946118190463,3.795854472629799-2.455184054530037,6.921373736209716-2.455184054530037,6.028135799881056,0,10.717228208839515,4.687465381769471,10.717228208839515,10.938503908930215,0,3.350049018069512-1.563573145369446,6.252665554369742-3.572951745338287,8.262044154329487-10.715601181640523,9.599460518030355-24.112543199510583,15.627596317910502-42.418226299243543,15.627596317910502ZM1016.618679760340456,465.04441089257034c-1.786475872680967-17.414072190580555-12.056271599760294-31.032289908530402-29.916149244912958-31.032289908530402-16.522461281451797,0-28.131300399431893,12.724979781610273-30.586484453950106,31.032289908530402h60.502633698863065Z" fill="#182a4c"/>
                <path d="M1062.045279364290764,520.41377375510001c-2.90261653628113-1.563573145390365-5.134897863541482-4.911995136259975-5.134897863541482-9.378184817949659,0-6.02650877267024,4.689092408971192-10.938503908930215,10.940130936140122-10.938503908930215,2.232281327240344,0,4.241659927200089.668708181849979,5.805233072591363,1.561946118189553,11.385936390708594,7.591708945270511,23.217678235978383,11.385936390700408,33.934906444828812,11.385936390700408,11.608839117980096,0,18.307310126920129-4.910368109050069,18.307310126920129-12.724979781600268v-.445805454570291c0-9.153655063459155-12.502077054328765-12.280801354249888-26.344824526759112-16.522461281449978-17.41407219058965-4.910368109049159-36.837522981109942-12.054644572549478-36.837522981109942-34.605241653889607v-.445805454560286c0-22.32606732683962,18.530212854189813-35.944285044779463,41.9724208446587-35.944285044779463,12.502077054310575,0,25.674489317691041,3.571324718140204,37.060425708410548,9.599460518019441,3.795854472629799,2.009378599960655,6.475568281650339,5.582330345310766,6.475568281650339,10.269795727080236,0,6.25103852716984-4.911995136260884,10.940130936140122-11.163033663429815,10.940130936140122-2.232281327240344,0-3.572951745371029-.445805454570291-5.357800590820261-1.33904339089986-9.601087545230257-4.911995136259975-19.425077817750207-8.037514399839893-27.685494944880702-8.037514399839893-10.49269845436902,0-16.520834254230067,4.911995136249971-16.520834254230067,11.608839117980096v.447432481769283c0,8.706222581690781,12.726606808810175,12.279174327039982,26.567727254041529,16.743736981530674,17.191169463309052,5.357800590829356,36.614620253838439,13.172412263379556,36.614620253838439,34.382338926599914v.445805454569381c0,24.781251381360562-19.200548063259703,37.060425708410548-43.758896717339667,37.060425708410548-14.957261108849707,0-31.255192635819185-4.68746538177038-44.875037380968934-14.064023172520137Z" fill="#182a4c"/>
              </g>
              <g>
                <path d="M914.296124045343277,562.037702594519942c-11.831741845259785,0-23.442207990457973,11.16303366341981-29.693246517606894,25.899019072199735v-12.056271599759384c0-7.591708945270511-6.028135799881966-13.619844745160663-13.618217717952575-13.619844745160663-7.591708945268692,0-13.395314990670158,6.028135799890151-13.395314990670158,13.619844745160663v93.321399480069886c0,7.590081918079704,6.028135799881056,13.395314990670158,13.395314990670158,13.395314990670158,7.590081918070609,0,13.618217717952575-6.028135799880147,13.618217717952575-13.395314990670158v-34.8281443811602c0-27.906770644949574,13.172412263378646-42.642756053720404,32.372960326638349-45.99117804458001,6.028135799879237-1.116140663630176,10.715601181637794-5.805233072599549,10.715601181637794-12.949509536099868,0-7.812984645350298-4.91036810904825-13.395314990670158-13.395314990669249-13.395314990670158Z" fill="#182a4c"/>
                <path d="M1024.169256488929932,575.210114857900408c-8.260417127109577-8.483319854400179-21.432829390490042-13.172412263380465-39.069804308364837-13.172412263380465-15.406320617820711,0-26.792257008530214,2.679713809019631-37.955290671950934,6.921373736219721-4.018757199919492,1.563573145400369-7.367179190790921,5.805233072600458-7.367179190790921,10.715601181650527,0,6.252665554369742,5.134897863561491,11.16303366341981,11.385936390723145,11.16303366341981,1.340670418108857,0,2.679713808998713-.222902727279688,4.24165992719827-.668708181849979,7.368806217991732-2.902616536300229,15.852126072390092-4.689092408970282,26.121921799469419-4.689092408970282,18.977645335965462,0,29.247441063075712,8.930752336170372,29.247441063075712,25.674489317700136v2.902616536300229c-9.153655063470069-2.902616536300229-18.530212854224374-4.911995136259975-31.702625117605749-4.911995136259975-28.80163560848996,0-48.670891853599642,12.503704081529577-48.670891853599642,37.953663644750122v.447432481769283c0,23.66511071774039,19.646353517829994,36.390090499350663,41.749518117389925,36.390090499350663,18.084407399630436,0,30.363581726685879-7.590081918060605,38.401096126505763-17.189542436090051v4.464562654479778c0,6.028135799890151,5.35780059084027,11.385936390710413,13.170785236179654,11.385936390710413,7.368806217989913,0,13.17241226338956-5.580703318109954,13.17241226338956-12.949509536090773v-58.045822617149497c0-15.4046935906199-4.018757199928586-27.908397672150386-12.724979781619368-36.39171752655966ZM1011.219746952840069,639.061170547640359c0,14.958888136049609-13.618217717946209,25.22868386313985-31.479722390305142,25.22868386313985-12.94788250889178,0-22.994775508691419-6.473941254450438-22.994775508691419-17.859877645149936v-.447432481770193c0-12.279174327049986,10.26979572709115-19.646353517829994,27.683867917669886-19.646353517829994,10.715601181651436,0,19.869256245096949,2.009378599959746,26.790629981326674,4.689092408980287v8.035887372629986Z" fill="#182a4c"/>
                <path d="M772.541363876164723,648.885160820150304v-62.066206844260705h-7.204800616431385c-6.47556828164852,0-11.610466145190003-5.134897863539663-11.610466145190003-11.608839117989191,0-6.473941254440433,5.134897863541482-11.608839117980096,11.610466145190003-11.608839117980096h7.204800616431385v-9.822427555270224c0-7.367179190780007,6.028135799879237-13.395314990660154,13.61821771796167-13.395314990660154,7.368806217978999,0,13.396942017858237,6.028135799880147,13.396942017858237,13.395314990660154v9.822427555270224h21.208299635998628c6.475568281651249,0,11.833368872481515,5.134897863539663,11.833368872481515,11.608839117980096,0,6.473941254449528-5.357800590830266,11.608839117989191-11.833368872481515,11.608839117989191h-21.208299635998628v57.824546917060616c0,10.492698454369929,5.357800590809347,14.734358381570019,14.511455654279416,14.734358381570019,3.125519263570823,0,5.803606045391462-.668708181849979,6.696843981719212-.668708181849979,6.028135799881056,0,11.385936390722236,4.911995136259975,11.385936390722236,11.16303366341981,0,4.910368109050069-3.348421990881434,8.92912530896956-7.14264943631224,10.492698454359925-5.805233072578631,2.00937859996975-11.387563417898491,3.125519263589922-18.531839881407905,3.125519263589922-19.869256245100587,0-33.934906444820626-8.707849608899778-33.934906444820626-34.605241653889607Z" fill="#182a4c"/>
              </g>
            </g>
          </g>
        </g>
      </g>
      <g id="a-play">
        <path d="M991.3900146484375,721.169982910159888l75.280029296873181,46.830017089840112-75.280029296873181,46.830017089850116v-93.660034179690228M991.38934326171875,697.169982910159888c-4.0103759765625,0-8.025146484375,1.003540039059772-11.65582275390625,3.020874023440228-7.61859130859375,4.232971191399884-12.343505859375,12.263549804680224-12.343505859375,20.979125976559772v93.660034179690228c0,8.715576171869543,4.72491455078125,16.746154785149884,12.343505859375,20.979125976559772,3.6302490234375,2.01708984375,7.64593505859375,3.020874023440228,11.65582275390625,3.020874023440228,4.40533447265625,0,8.803649902341022-1.211303710940228,12.677856445311591-3.621276855470569l75.279968261719659-46.830017089849207c7.041625976560681-4.380493164060681,11.322875976560681-12.085815429680224,11.322875976560681-20.378723144530341,0-8.292907714840112-4.28125-15.998229980469659-11.322875976560681-20.378723144530341l-75.279968261719659-46.830017089840112c-3.873718261720569-2.40966796875-8.273071289061591-3.621276855469659-12.677856445311591-3.621276855469659h0Z" fill="#fff"/>
      </g>
    </g>
    <g id="clock">
      <path d="M1024,255.999999999929969c282.7696533203125,0,512,229.22998046875,512,512s-229.2303466796875,512-512,512c-282.76959228515625,0-512-229.22998046875-512-512S741.23040771484375,255.999999999929969,1024,255.999999999929969M1024,155.999999999929969c-82.57537841796875,0-162.73382568359375,16.19482421875-238.24847412109375,48.134765625-36.28497314453125,15.34765625-71.27459716796875,34.337890625-103.99615478515625,56.4443359375-32.385009765625,21.87890625-62.83538818359375,47.001953125-90.50457763671875,74.67138671875-27.66961669921875,27.66943359375-52.792724609375,58.11962890625-74.67156982421875,90.50439453125-22.10614013671875,32.72216796875-41.096923828125,67.71142578125-56.4442138671875,103.99609375-31.94000244140625,75.51513671875-48.135009765625,155.673828125-48.135009765625,238.2490234375s16.19500732421875,162.73388671875,48.135009765625,238.2490234375c15.3472900390625,36.28466796875,34.33807373046875,71.27392578125,56.4442138671875,103.99609375,21.87884521484375,32.384765625,47.001953125,62.8349609375,74.67156982421875,90.50439453125,27.669189453125,27.66943359375,58.11956787109375,52.79248046875,90.50457763671875,74.67138671875,32.7215576171875,22.1064453125,67.711181640625,41.0966796875,103.99615478515625,56.4443359375,75.5146484375,31.93994140625,155.673095703125,48.134765625,238.24847412109375,48.134765625,82.575439453125,0,162.73388671875-16.19482421875,238.2484130859375-48.134765625,36.2850341796875-15.34765625,71.274658203125-34.337890625,103.9962158203125-56.4443359375,32.385009765625-21.87890625,62.8353271484375-47.001953125,90.504638671875-74.67138671875,27.6695556640625-27.66943359375,52.7926025390625-58.11962890625,74.6715087890625-90.50439453125,22.106201171875-32.72216796875,41.096923828125-67.71142578125,56.4442138671875-103.99609375,31.9400634765625-75.51513671875,48.135009765625-155.673828125,48.135009765625-238.2490234375s-16.1949462890625-162.73388671875-48.135009765625-238.2490234375c-15.3472900390625-36.28466796875-34.3380126953125-71.27392578125-56.4442138671875-103.99609375-21.87890625-32.384765625-47.001953125-62.8349609375-74.6715087890625-90.50439453125-27.6693115234375-27.66943359375-58.11962890625-52.79248046875-90.504638671875-74.67138671875-32.7215576171875-22.1064453125-67.711181640625-41.0966796875-103.9962158203125-56.4443359375-75.5145263671875-31.93994140625-155.6729736328125-48.134765625-238.2484130859375-48.134765625h0Z" fill="#182a4c"/>
      <g id="clock-hands">
        <line id="second-hand" x1="1350.058772992400918" y1="970.834110924750348" x2="1024" y2="768" fill="none" stroke="#fff" stroke-linecap="round" stroke-linejoin="round" stroke-width="24"/>
        <line id="second-hand-2" data-name="second-hand" x1="1024" y1="384.000000000070031" x2="1024" y2="768" fill="none" stroke="#fff" stroke-linecap="round" stroke-linejoin="round" stroke-width="12"/>
        <line id="hour-hand" x1="806.627502076133169" y1="903.222768594409899" x2="1024" y2="768" fill="none" stroke="#fff" stroke-linecap="round" stroke-linejoin="round" stroke-width="24"/>
      </g>
    </g>
  </g>
</svg>