<?xml version="1.0" encoding="UTF-8"?>
<svg xmlns="http://www.w3.org/2000/svg" xmlns:xlink="http://www.w3.org/1999/xlink" viewBox="0 0 2048 1536">
  <defs>
    <linearGradient id="linear-gradient" x1="1189.273926686524646" y1="360.810691560538544" x2="858.7260733134666" y2="-872.810691560543546" gradientTransform="translate(768 -255.999999999999545) rotate(90)" gradientUnits="userSpaceOnUse">
      <stop offset="0" stop-color="#00e6ff"/>
      <stop offset="1" stop-color="#c0ff1c"/>
    </linearGradient>
  </defs>
  <g id="bg">
    <rect width="2048" height="1536" fill="#fff"/>
  </g>
  <g id="buttons">
    <g id="butt2">
      <g>
        <path d="M512,911.9990234375c-79.4013671875,0-143.9990234375-64.59765625-143.9990234375-143.9990234375s64.59765625-143.9990234375,143.9990234375-143.9990234375h1024c79.4013671875,0,143.9990234375,64.59765625,143.9990234375,143.9990234375s-64.59765625,143.9990234375-143.9990234375,143.9990234375H512Z" fill="url(#linear-gradient)"/>
        <path d="M1536,640.0009765625c34.18994140625,0,66.3330078125,13.314453125,90.5087890625,37.490234375s37.490234375,56.31884765625,37.490234375,90.5087890625-13.314453125,66.3330078125-37.490234375,90.5087890625-56.31884765625,37.490234375-90.5087890625,37.490234375H512c-34.18994140625,0-66.333251953125-13.314453125-90.509033203125-37.490234375s-37.489990234375-56.31884765625-37.489990234375-90.5087890625,13.314208984375-66.3330078125,37.489990234375-90.5087890625,56.319091796875-37.490234375,90.509033203125-37.490234375h1024M1536,608.0009765625H512c-88.365234375,0-159.9990234375,71.6337890625-159.9990234375,159.9990234375s71.6337890625,159.9990234375,159.9990234375,159.9990234375h1024c88.365234375,0,159.9990234375-71.6337890625,159.9990234375-159.9990234375s-71.6337890625-159.9990234375-159.9990234375-159.9990234375h0Z" fill="#2d2d2d"/>
      </g>
    </g>
    <g>
      <path d="M768.2607421875,755.6875c-2.6884765625,4.8486328125-6.8173828125,8.76171875-12.3837890625,11.736328125-5.568359375,2.9765625-12.48046875,4.4638671875-20.7353515625,4.4638671875h-15.2646484375v36.2880859375h-24.6240234375v-101.087890625h39.888671875c8.0634765625,0,14.87890625,1.392578125,20.447265625,4.17578125,5.56640625,2.78515625,9.7431640625,6.6240234375,12.5283203125,11.5205078125,2.783203125,4.8955078125,4.17578125,10.51171875,4.17578125,16.84765625,0,5.8564453125-1.345703125,11.208984375-4.0322265625,16.0556640625ZM743.78125,748.9921875c2.3037109375-2.2080078125,3.4560546875-5.328125,3.4560546875-9.3603515625s-1.15234375-7.150390625-3.4560546875-9.3603515625c-2.3037109375-2.20703125-5.8095703125-3.3115234375-10.51171875-3.3115234375h-13.392578125v25.34375h13.392578125c4.7021484375,0,8.2080078125-1.1025390625,10.51171875-3.3115234375Z" fill="#2d2d2d"/>
      <path d="M784.8916015625,746.111328125c3.1181640625-6.2392578125,7.3662109375-11.0380859375,12.744140625-14.3994140625,5.375-3.359375,11.3759765625-5.0400390625,18-5.0400390625,5.6630859375,0,10.630859375,1.15234375,14.904296875,3.4560546875,4.2705078125,2.3037109375,7.5595703125,5.328125,9.86328125,9.072265625v-11.3759765625h24.6240234375v80.3515625h-24.6240234375v-11.3759765625c-2.400390625,3.744140625-5.7373046875,6.767578125-10.0078125,9.072265625-4.2724609375,2.3037109375-9.240234375,3.4560546875-14.904296875,3.4560546875-6.529296875,0-12.48046875-1.703125-17.85546875-5.1123046875-5.3779296875-3.40625-9.6259765625-8.2548828125-12.744140625-14.5439453125-3.12109375-6.2861328125-4.6796875-13.55859375-4.6796875-21.81640625,0-8.2548828125,1.55859375-15.501953125,4.6796875-21.744140625ZM835.2919921875,753.4560546875c-3.4091796875-3.55078125-7.560546875-5.328125-12.4560546875-5.328125-4.896484375,0-9.0498046875,1.7529296875-12.4560546875,5.255859375-3.4091796875,3.505859375-5.1123046875,8.3291015625-5.1123046875,14.4716796875,0,6.1455078125,1.703125,11.0166015625,5.1123046875,14.6162109375,3.40625,3.6005859375,7.5595703125,5.400390625,12.4560546875,5.400390625,4.8955078125,0,9.046875-1.775390625,12.4560546875-5.328125,3.40625-3.55078125,5.111328125-8.3994140625,5.111328125-14.5439453125,0-6.142578125-1.705078125-10.9912109375-5.111328125-14.5439453125Z" fill="#2d2d2d"/>
      <path d="M918.3046875,730.775390625c4.3203125-2.5419921875,9.1201171875-3.8154296875,14.400390625-3.8154296875v26.0634765625h-6.767578125c-6.1455078125,0-10.7529296875,1.3212890625-13.82421875,3.9599609375-3.0732421875,2.6416015625-4.6083984375,7.2724609375-4.6083984375,13.896484375v37.2958984375h-24.6240234375v-80.3515625h24.6240234375v13.3916015625c2.8798828125-4.4140625,6.48046875-7.8955078125,10.7998046875-10.4404296875Z" fill="#2d2d2d"/>
      <path d="M989.2958984375,787.2958984375v20.8798828125h-12.5283203125c-8.927734375,0-15.888671875-2.1826171875-20.8798828125-6.5517578125-4.9921875-4.3671875-7.4873046875-11.4951171875-7.4873046875-21.3837890625v-31.96875h-9.7919921875v-20.447265625h9.7919921875v-19.583984375h24.6240234375v19.583984375h16.1279296875v20.447265625h-16.1279296875v32.255859375c0,2.4013671875.5751953125,4.12890625,1.7275390625,5.1845703125,1.15234375,1.0576171875,3.0712890625,1.583984375,5.759765625,1.583984375h8.7841796875Z" fill="#2d2d2d"/>
      <path d="M1004.7744140625,715.65625c-2.7353515625-2.54296875-4.103515625-5.6884765625-4.103515625-9.4326171875,0-3.837890625,1.3681640625-7.03125,4.103515625-9.576171875,2.736328125-2.5419921875,6.2646484375-3.8154296875,10.583984375-3.8154296875,4.2236328125,0,7.7041015625,1.2734375,10.4404296875,3.8154296875,2.736328125,2.544921875,4.1044921875,5.73828125,4.1044921875,9.576171875,0,3.744140625-1.3681640625,6.8896484375-4.1044921875,9.4326171875-2.736328125,2.5439453125-6.216796875,3.8154296875-10.4404296875,3.8154296875-4.3193359375,0-7.84765625-1.271484375-10.583984375-3.8154296875ZM1027.5986328125,727.82421875v80.3515625h-24.6240234375v-80.3515625h24.6240234375Z" fill="#2d2d2d"/>
      <path d="M1045.669921875,746.111328125c3.4072265625-6.2392578125,8.1591796875-11.0380859375,14.2568359375-14.3994140625,6.0947265625-3.359375,13.0791015625-5.0400390625,20.951171875-5.0400390625,10.080078125,0,18.5048828125,2.6416015625,25.2724609375,7.919921875,6.767578125,5.2802734375,11.20703125,12.7216796875,13.3203125,22.3203125h-26.2080078125c-2.2099609375-6.142578125-6.48046875-9.216796875-12.81640625-9.216796875-4.513671875,0-8.11328125,1.7529296875-10.7998046875,5.2568359375-2.6884765625,3.5048828125-4.0322265625,8.5205078125-4.0322265625,15.0478515625,0,6.529296875,1.34375,11.544921875,4.0322265625,15.0478515625,2.6865234375,3.505859375,6.2861328125,5.255859375,10.7998046875,5.255859375,6.3359375,0,10.6064453125-3.0712890625,12.81640625-9.2158203125h26.2080078125c-2.11328125,9.4091796875-6.5771484375,16.80078125-13.392578125,22.17578125-6.8173828125,5.3779296875-15.216796875,8.064453125-25.2001953125,8.064453125-7.8720703125,0-14.8564453125-1.6787109375-20.951171875-5.0400390625-6.09765625-3.359375-10.849609375-8.1591796875-14.2568359375-14.400390625-3.408203125-6.2392578125-5.111328125-13.5361328125-5.111328125-21.8876953125,0-8.3525390625,1.703125-15.646484375,5.111328125-21.888671875Z" fill="#2d2d2d"/>
      <path d="M1134.373046875,715.65625c-2.7353515625-2.54296875-4.103515625-5.6884765625-4.103515625-9.4326171875,0-3.837890625,1.3681640625-7.03125,4.103515625-9.576171875,2.736328125-2.5419921875,6.2646484375-3.8154296875,10.583984375-3.8154296875,4.2236328125,0,7.7041015625,1.2734375,10.4404296875,3.8154296875,2.736328125,2.544921875,4.1044921875,5.73828125,4.1044921875,9.576171875,0,3.744140625-1.3681640625,6.8896484375-4.1044921875,9.4326171875-2.736328125,2.5439453125-6.216796875,3.8154296875-10.4404296875,3.8154296875-4.3193359375,0-7.84765625-1.271484375-10.583984375-3.8154296875ZM1157.197265625,727.82421875v80.3515625h-24.6240234375v-80.3515625h24.6240234375Z" fill="#2d2d2d"/>
      <path d="M1209.61328125,730.1279296875c4.22265625-2.3037109375,9.166015625-3.4560546875,14.83203125-3.4560546875,6.6240234375,0,12.6220703125,1.6806640625,18,5.0400390625,5.375,3.361328125,9.623046875,8.16015625,12.744140625,14.3994140625,3.1181640625,6.2421875,4.6796875,13.4892578125,4.6796875,21.744140625,0,8.2578125-1.5615234375,15.5302734375-4.6796875,21.81640625-3.12109375,6.2890625-7.369140625,11.1376953125-12.744140625,14.5439453125-5.3779296875,3.4091796875-11.3759765625,5.1123046875-18,5.1123046875-5.5693359375,0-10.490234375-1.15234375-14.7607421875-3.4560546875-4.2724609375-2.3046875-7.609375-5.2783203125-10.0078125-8.9287109375v49.5361328125h-24.6240234375v-118.6552734375h24.6240234375v11.3759765625c2.3984375-3.744140625,5.7109375-6.7685546875,9.9365234375-9.072265625ZM1229.701171875,753.3837890625c-3.4091796875-3.5029296875-7.609375-5.255859375-12.6005859375-5.255859375-4.8955078125,0-9.048828125,1.77734375-12.4560546875,5.328125-3.408203125,3.552734375-5.111328125,8.4013671875-5.111328125,14.5439453125,0,6.14453125,1.703125,10.9931640625,5.111328125,14.5439453125,3.4072265625,3.552734375,7.560546875,5.328125,12.4560546875,5.328125,4.896484375,0,9.072265625-1.7998046875,12.5283203125-5.400390625,3.4560546875-3.599609375,5.1845703125-8.470703125,5.1845703125-14.6162109375,0-6.142578125-1.7060546875-10.9658203125-5.1123046875-14.4716796875Z" fill="#2d2d2d"/>
      <path d="M1272.6103515625,746.111328125c3.1181640625-6.2392578125,7.3662109375-11.0380859375,12.744140625-14.3994140625,5.375-3.359375,11.3759765625-5.0400390625,18-5.0400390625,5.6630859375,0,10.630859375,1.15234375,14.904296875,3.4560546875,4.2705078125,2.3037109375,7.5595703125,5.328125,9.86328125,9.072265625v-11.3759765625h24.6240234375v80.3515625h-24.6240234375v-11.3759765625c-2.400390625,3.744140625-5.7373046875,6.767578125-10.0078125,9.072265625-4.2724609375,2.3037109375-9.240234375,3.4560546875-14.904296875,3.4560546875-6.529296875,0-12.48046875-1.703125-17.85546875-5.1123046875-5.3779296875-3.40625-9.6259765625-8.2548828125-12.744140625-14.5439453125-3.12109375-6.2861328125-4.6796875-13.55859375-4.6796875-21.81640625,0-8.2548828125,1.55859375-15.501953125,4.6796875-21.744140625ZM1323.0107421875,753.4560546875c-3.4091796875-3.55078125-7.560546875-5.328125-12.4560546875-5.328125-4.896484375,0-9.0498046875,1.7529296875-12.4560546875,5.255859375-3.4091796875,3.505859375-5.1123046875,8.3291015625-5.1123046875,14.4716796875,0,6.1455078125,1.703125,11.0166015625,5.1123046875,14.6162109375,3.40625,3.6005859375,7.5595703125,5.400390625,12.4560546875,5.400390625,4.8955078125,0,9.046875-1.775390625,12.4560546875-5.328125,3.40625-3.55078125,5.111328125-8.3994140625,5.111328125-14.5439453125,0-6.142578125-1.705078125-10.9912109375-5.111328125-14.5439453125Z" fill="#2d2d2d"/>
    </g>
  </g>
</svg>