<?xml version="1.0" encoding="UTF-8"?>
<svg id="gradients" xmlns="http://www.w3.org/2000/svg" xmlns:xlink="http://www.w3.org/1999/xlink" viewBox="0 0 2048 1536">
  <defs>
    <linearGradient id="linear-gradient" x1="1361.148748090106892" y1="883.446245028644626" x2="2222.851251572777528" y2="652.553755104586344" gradientUnits="userSpaceOnUse">
      <stop offset="0" stop-color="#fffc1c"/>
      <stop offset="1" stop-color="#ff9a1c"/>
    </linearGradient>
    <linearGradient id="linear-gradient-2" x1="849.148748397001327" y1="883.446244866545385" x2="1710.851251667951601" y2="652.553754999217404" gradientUnits="userSpaceOnUse">
      <stop offset="0" stop-color="#c0ff1c"/>
      <stop offset=".999193572998047" stop-color="#fffc1c"/>
    </linearGradient>
    <linearGradient id="linear-gradient-3" x1="337.148748398303724" y1="883.446244947625019" x2="1198.851251705683808" y2="652.553755070535772" gradientUnits="userSpaceOnUse">
      <stop offset="0" stop-color="#00e6ff"/>
      <stop offset="1" stop-color="#c0ff1c"/>
    </linearGradient>
    <linearGradient id="linear-gradient-4" x1="-174.851251668829718" y1="883.446244935810682" x2="686.851251741496071" y2="652.553755031137143" gradientUnits="userSpaceOnUse">
      <stop offset="0" stop-color="#1a8deb"/>
      <stop offset="1" stop-color="#00e6ff"/>
    </linearGradient>
  </defs>
  <rect id="y-o" x="1535.999999970995759" y=".000000144529622" width="512.000000167726284" height="1535.999999645455318" fill="url(#linear-gradient)"/>
  <rect id="g-y" x="1024.000000026949238" y=".000000144525984" width="511.999999994662176" height="1535.999999645438947" fill="url(#linear-gradient-2)"/>
  <rect id="c-g" x="511.999999941162059" y=".000000144527803" width="512.00000011157772" height="1535.999999645446223" fill="url(#linear-gradient-3)"/>
  <rect id="b-c" x="-.000000120625373" y=".000000144535079" width="512.000000234338586" height="1535.999999645429853" fill="url(#linear-gradient-4)"/>
  <g>
    <path d="M214.8154296875,1010.4306640625h20.4482421875v-32.8408203125h19.0078125v32.8408203125h22.1767578125v-37.142578125h19.7275390625v61.666015625h-101.087890625v-61.666015625h19.7275390625v37.142578125Z" fill="#fff"/>
    <path d="M296.17578125,910.0458984375l-22.3203125,15.3447265625,22.3203125,12.9072265625v26.5302734375l-41.0400390625-26.38671875-39.3115234375,27.1044921875v-27.53515625l22.17578125-15.3447265625-22.17578125-12.9072265625v-26.5302734375l40.4638671875,26.8173828125,39.8876953125-27.53515625v27.53515625Z" fill="#fff"/>
    <path d="M218.1279296875,838.6279296875c-2.3037109375-4.2060546875-3.4560546875-9.12890625-3.4560546875-14.771484375,0-6.5966796875,1.6806640625-12.5712890625,5.0400390625-17.9267578125,3.361328125-5.3525390625,8.16015625-9.5830078125,14.3994140625-12.69140625,6.2421875-3.10546875,13.4892578125-4.6611328125,21.744140625-4.6611328125,8.2578125,0,15.5302734375,1.5556640625,21.81640625,4.6611328125,6.2890625,3.1083984375,11.1376953125,7.3388671875,14.5439453125,12.69140625,3.4091796875,5.35546875,5.1123046875,11.330078125,5.1123046875,17.9267578125,0,5.5458984375-1.15234375,10.4462890625-3.4560546875,14.69921875-2.3046875,4.255859375-5.2783203125,7.578125-8.9287109375,9.966796875h49.5361328125v24.5234375h-118.6552734375v-24.5234375h11.3759765625c-3.744140625-2.388671875-6.7685546875-5.6865234375-9.072265625-9.89453125ZM241.3837890625,818.6220703125c-3.5029296875,3.39453125-5.255859375,7.578125-5.255859375,12.5478515625,0,4.8759765625,1.77734375,9.0126953125,5.328125,12.4052734375,3.552734375,3.39453125,8.4013671875,5.0908203125,14.5439453125,5.0908203125,6.14453125,0,10.9931640625-1.6962890625,14.5439453125-5.0908203125,3.552734375-3.392578125,5.328125-7.529296875,5.328125-12.4052734375s-1.7998046875-9.0341796875-5.400390625-12.4765625c-3.599609375-3.44140625-8.470703125-5.162109375-14.6162109375-5.162109375-6.142578125,0-10.9658203125,1.6982421875-14.4716796875,5.0908203125Z" fill="#fff"/>
    <path d="M189.6162109375,751.1494140625h106.5595703125v24.5234375h-106.5595703125v-24.5234375Z" fill="#fff"/>
    <path d="M292.2880859375,718.09375c-3.359375,6.263671875-8.1591796875,11.1865234375-14.400390625,14.771484375-6.2392578125,3.5849609375-13.5361328125,5.3779296875-21.8876953125,5.3779296875-8.255859375,0-15.52734375-1.814453125-21.81640625-5.44921875-6.2861328125-3.6328125-11.1103515625-8.6044921875-14.4716796875-14.9150390625-3.359375-6.3095703125-5.0400390625-13.3837890625-5.0400390625-21.224609375,0-7.837890625,1.6806640625-14.9150390625,5.0400390625-21.224609375,3.361328125-6.310546875,8.185546875-11.2802734375,14.4716796875-14.9150390625,6.2890625-3.6318359375,13.560546875-5.44921875,21.81640625-5.44921875,8.2568359375,0,15.529296875,1.841796875,21.8154296875,5.521484375,6.2890625,3.681640625,11.11328125,8.701171875,14.47265625,15.0576171875,3.361328125,6.359375,5.0400390625,13.4580078125,5.0400390625,21.296875,0,7.83984375-1.6787109375,14.8916015625-5.0400390625,21.15234375ZM270.83203125,684.966796875c-3.4560546875-3.298828125-8.3994140625-4.9482421875-14.83203125-4.9482421875-6.4306640625,0-11.3759765625,1.6025390625-14.83203125,4.8046875-3.4560546875,3.2041015625-5.1845703125,7.1474609375-5.1845703125,11.8310546875,0,4.7822265625,1.7060546875,8.748046875,5.1123046875,11.9033203125,3.4091796875,3.154296875,8.376953125,4.732421875,14.904296875,4.732421875,6.4326171875,0,11.3759765625-1.552734375,14.83203125-4.6611328125,3.4560546875-3.10546875,5.18359375-7.001953125,5.18359375-11.6875,0-4.68359375-1.7275390625-8.6767578125-5.18359375-11.974609375Z" fill="#fff"/>
    <path d="M218.775390625,606.7373046875c-2.5419921875-4.302734375-3.8154296875-9.08203125-3.8154296875-14.341796875h26.0634765625v6.740234375c0,6.1201171875,1.3212890625,10.708984375,3.9599609375,13.767578125,2.6416015625,3.0615234375,7.2724609375,4.5888671875,13.896484375,4.5888671875h37.2958984375v24.5234375h-80.3515625v-24.5234375h13.3916015625c-4.4140625-2.8681640625-7.8955078125-6.453125-10.4404296875-10.7548828125Z" fill="#fff"/>
    <path d="M234.111328125,580.8515625c-6.2392578125-3.10546875-11.0380859375-7.3359375-14.3994140625-12.69140625-3.359375-5.353515625-5.0400390625-11.3291015625-5.0400390625-17.92578125,0-5.640625,1.15234375-10.587890625,3.4560546875-14.84375,2.3037109375-4.2529296875,5.328125-7.5283203125,9.072265625-9.8232421875h-11.3759765625v-24.5234375h80.3515625v24.5234375h-11.3759765625c3.744140625,2.390625,6.767578125,5.7138671875,9.072265625,9.966796875,2.3037109375,4.255859375,3.4560546875,9.203125,3.4560546875,14.8427734375,0,6.5029296875-1.703125,12.4296875-5.1123046875,17.783203125-3.40625,5.35546875-8.2548828125,9.5859375-14.5439453125,12.69140625-6.2861328125,3.1083984375-13.55859375,4.6611328125-21.81640625,4.6611328125-8.2548828125,0-15.501953125-1.552734375-21.744140625-4.6611328125ZM241.4560546875,530.658203125c-3.55078125,3.39453125-5.328125,7.529296875-5.328125,12.4052734375s1.7529296875,9.0126953125,5.255859375,12.4052734375c3.505859375,3.39453125,8.3291015625,5.0908203125,14.4716796875,5.0908203125,6.1455078125,0,11.0166015625-1.6962890625,14.6162109375-5.0908203125,3.6005859375-3.392578125,5.400390625-7.529296875,5.400390625-12.4052734375s-1.775390625-9.0107421875-5.328125-12.4052734375c-3.55078125-3.392578125-8.3994140625-5.0908203125-14.5439453125-5.0908203125-6.142578125,0-10.9912109375,1.6982421875-14.5439453125,5.0908203125Z" fill="#fff"/>
  </g>
  <g>
    <path d="M755.6875,1023.7392578125c4.8486328125,2.6884765625,8.76171875,6.8173828125,11.736328125,12.3837890625,2.9765625,5.568359375,4.4638671875,12.48046875,4.4638671875,20.7353515625v15.2646484375h36.2880859375v24.6240234375h-101.087890625v-39.888671875c0-8.0634765625,1.392578125-14.87890625,4.17578125-20.447265625,2.78515625-5.56640625,6.6240234375-9.7431640625,11.5205078125-12.5283203125,4.8955078125-2.783203125,10.51171875-4.17578125,16.84765625-4.17578125,5.8564453125,0,11.208984375,1.345703125,16.0556640625,4.0322265625ZM748.9921875,1048.21875c-2.2080078125-2.3037109375-5.328125-3.4560546875-9.3603515625-3.4560546875s-7.150390625,1.15234375-9.3603515625,3.4560546875c-2.20703125,2.3037109375-3.3115234375,5.8095703125-3.3115234375,10.51171875v13.392578125h25.34375v-13.392578125c0-4.7021484375-1.1025390625-8.2080078125-3.3115234375-10.51171875Z" fill="#fff"/>
    <path d="M746.111328125,1007.1083984375c-6.2392578125-3.1181640625-11.0380859375-7.3662109375-14.3994140625-12.744140625-3.359375-5.375-5.0400390625-11.3759765625-5.0400390625-18,0-5.6630859375,1.15234375-10.630859375,3.4560546875-14.904296875,2.3037109375-4.2705078125,5.328125-7.5595703125,9.072265625-9.86328125h-11.3759765625v-24.6240234375h80.3515625v24.6240234375h-11.3759765625c3.744140625,2.400390625,6.767578125,5.7373046875,9.072265625,10.0078125,2.3037109375,4.2724609375,3.4560546875,9.240234375,3.4560546875,14.904296875,0,6.529296875-1.703125,12.48046875-5.1123046875,17.85546875-3.40625,5.3779296875-8.2548828125,9.6259765625-14.5439453125,12.744140625-6.2861328125,3.12109375-13.55859375,4.6796875-21.81640625,4.6796875-8.2548828125,0-15.501953125-1.55859375-21.744140625-4.6796875ZM753.4560546875,956.7080078125c-3.55078125,3.4091796875-5.328125,7.560546875-5.328125,12.4560546875,0,4.896484375,1.7529296875,9.0498046875,5.255859375,12.4560546875,3.505859375,3.4091796875,8.3291015625,5.1123046875,14.4716796875,5.1123046875,6.1455078125,0,11.0166015625-1.703125,14.6162109375-5.1123046875,3.6005859375-3.40625,5.400390625-7.5595703125,5.400390625-12.4560546875,0-4.8955078125-1.775390625-9.046875-5.328125-12.4560546875-3.55078125-3.40625-8.3994140625-5.111328125-14.5439453125-5.111328125-6.142578125,0-10.9912109375,1.705078125-14.5439453125,5.111328125Z" fill="#fff"/>
    <path d="M730.775390625,873.6953125c-2.5419921875-4.3203125-3.8154296875-9.1201171875-3.8154296875-14.400390625h26.0634765625v6.767578125c0,6.1455078125,1.3212890625,10.7529296875,3.9599609375,13.82421875,2.6416015625,3.0732421875,7.2724609375,4.6083984375,13.896484375,4.6083984375h37.2958984375v24.6240234375h-80.3515625v-24.6240234375h13.3916015625c-4.4140625-2.8798828125-7.8955078125-6.48046875-10.4404296875-10.7998046875Z" fill="#fff"/>
    <path d="M787.2958984375,802.7041015625h20.8798828125v12.5283203125c0,8.927734375-2.1826171875,15.888671875-6.5517578125,20.8798828125-4.3671875,4.9921875-11.4951171875,7.4873046875-21.3837890625,7.4873046875h-31.96875v9.7919921875h-20.447265625v-9.7919921875h-19.583984375v-24.6240234375h19.583984375v-16.1279296875h20.447265625v16.1279296875h32.255859375c2.4013671875,0,4.12890625-.5751953125,5.1845703125-1.7275390625,1.0576171875-1.15234375,1.583984375-3.0712890625,1.583984375-5.759765625v-8.7841796875Z" fill="#fff"/>
    <path d="M715.65625,787.2255859375c-2.54296875,2.7353515625-5.6884765625,4.103515625-9.4326171875,4.103515625-3.837890625,0-7.03125-1.3681640625-9.576171875-4.103515625-2.5419921875-2.736328125-3.8154296875-6.2646484375-3.8154296875-10.583984375,0-4.2236328125,1.2734375-7.7041015625,3.8154296875-10.4404296875,2.544921875-2.736328125,5.73828125-4.1044921875,9.576171875-4.1044921875,3.744140625,0,6.8896484375,1.3681640625,9.4326171875,4.1044921875,2.5439453125,2.736328125,3.8154296875,6.216796875,3.8154296875,10.4404296875,0,4.3193359375-1.271484375,7.84765625-3.8154296875,10.583984375ZM727.82421875,764.4013671875h80.3515625v24.6240234375h-80.3515625v-24.6240234375Z" fill="#fff"/>
    <path d="M746.111328125,746.330078125c-6.2392578125-3.4072265625-11.0380859375-8.1591796875-14.3994140625-14.2568359375-3.359375-6.0947265625-5.0400390625-13.0791015625-5.0400390625-20.951171875,0-10.080078125,2.6416015625-18.5048828125,7.919921875-25.2724609375,5.2802734375-6.767578125,12.7216796875-11.20703125,22.3203125-13.3203125v26.2080078125c-6.142578125,2.2099609375-9.216796875,6.48046875-9.216796875,12.81640625,0,4.513671875,1.7529296875,8.11328125,5.2568359375,10.7998046875,3.5048828125,2.6884765625,8.5205078125,4.0322265625,15.0478515625,4.0322265625,6.529296875,0,11.544921875-1.34375,15.0478515625-4.0322265625,3.505859375-2.6865234375,5.255859375-6.2861328125,5.255859375-10.7998046875,0-6.3359375-3.0712890625-10.6064453125-9.2158203125-12.81640625v-26.2080078125c9.4091796875,2.11328125,16.80078125,6.5771484375,22.17578125,13.392578125,5.3779296875,6.8173828125,8.064453125,15.216796875,8.064453125,25.2001953125,0,7.8720703125-1.6787109375,14.8564453125-5.0400390625,20.951171875-3.359375,6.09765625-8.1591796875,10.849609375-14.400390625,14.2568359375-6.2392578125,3.408203125-13.5361328125,5.111328125-21.8876953125,5.111328125-8.3525390625,0-15.646484375-1.703125-21.888671875-5.111328125Z" fill="#fff"/>
    <path d="M715.65625,657.626953125c-2.54296875,2.7353515625-5.6884765625,4.103515625-9.4326171875,4.103515625-3.837890625,0-7.03125-1.3681640625-9.576171875-4.103515625-2.5419921875-2.736328125-3.8154296875-6.2646484375-3.8154296875-10.583984375,0-4.2236328125,1.2734375-7.7041015625,3.8154296875-10.4404296875,2.544921875-2.736328125,5.73828125-4.1044921875,9.576171875-4.1044921875,3.744140625,0,6.8896484375,1.3681640625,9.4326171875,4.1044921875,2.5439453125,2.736328125,3.8154296875,6.216796875,3.8154296875,10.4404296875,0,4.3193359375-1.271484375,7.84765625-3.8154296875,10.583984375ZM727.82421875,634.802734375h80.3515625v24.6240234375h-80.3515625v-24.6240234375Z" fill="#fff"/>
    <path d="M730.1279296875,582.38671875c-2.3037109375-4.22265625-3.4560546875-9.166015625-3.4560546875-14.83203125,0-6.6240234375,1.6806640625-12.6220703125,5.0400390625-18,3.361328125-5.375,8.16015625-9.623046875,14.3994140625-12.744140625,6.2421875-3.1181640625,13.4892578125-4.6796875,21.744140625-4.6796875,8.2578125,0,15.5302734375,1.5615234375,21.81640625,4.6796875,6.2890625,3.12109375,11.1376953125,7.369140625,14.5439453125,12.744140625,3.4091796875,5.3779296875,5.1123046875,11.3759765625,5.1123046875,18,0,5.5693359375-1.15234375,10.490234375-3.4560546875,14.7607421875-2.3046875,4.2724609375-5.2783203125,7.609375-8.9287109375,10.0078125h49.5361328125v24.6240234375h-118.6552734375v-24.6240234375h11.3759765625c-3.744140625-2.3984375-6.7685546875-5.7109375-9.072265625-9.9365234375ZM753.3837890625,562.298828125c-3.5029296875,3.4091796875-5.255859375,7.609375-5.255859375,12.6005859375,0,4.8955078125,1.77734375,9.048828125,5.328125,12.4560546875,3.552734375,3.408203125,8.4013671875,5.111328125,14.5439453125,5.111328125,6.14453125,0,10.9931640625-1.703125,14.5439453125-5.111328125,3.552734375-3.4072265625,5.328125-7.560546875,5.328125-12.4560546875,0-4.896484375-1.7998046875-9.072265625-5.400390625-12.5283203125-3.599609375-3.4560546875-8.470703125-5.1845703125-14.6162109375-5.1845703125-6.142578125,0-10.9658203125,1.7060546875-14.4716796875,5.1123046875Z" fill="#fff"/>
    <path d="M746.111328125,519.3896484375c-6.2392578125-3.1181640625-11.0380859375-7.3662109375-14.3994140625-12.744140625-3.359375-5.375-5.0400390625-11.3759765625-5.0400390625-18,0-5.6630859375,1.15234375-10.630859375,3.4560546875-14.904296875,2.3037109375-4.2705078125,5.328125-7.5595703125,9.072265625-9.86328125h-11.3759765625v-24.6240234375h80.3515625v24.6240234375h-11.3759765625c3.744140625,2.400390625,6.767578125,5.7373046875,9.072265625,10.0078125,2.3037109375,4.2724609375,3.4560546875,9.240234375,3.4560546875,14.904296875,0,6.529296875-1.703125,12.48046875-5.1123046875,17.85546875-3.40625,5.3779296875-8.2548828125,9.6259765625-14.5439453125,12.744140625-6.2861328125,3.12109375-13.55859375,4.6796875-21.81640625,4.6796875-8.2548828125,0-15.501953125-1.55859375-21.744140625-4.6796875ZM753.4560546875,468.9892578125c-3.55078125,3.4091796875-5.328125,7.560546875-5.328125,12.4560546875,0,4.896484375,1.7529296875,9.0498046875,5.255859375,12.4560546875,3.505859375,3.4091796875,8.3291015625,5.1123046875,14.4716796875,5.1123046875,6.1455078125,0,11.0166015625-1.703125,14.6162109375-5.1123046875,3.6005859375-3.40625,5.400390625-7.5595703125,5.400390625-12.4560546875,0-4.8955078125-1.775390625-9.046875-5.328125-12.4560546875-3.55078125-3.40625-8.3994140625-5.111328125-14.5439453125-5.111328125-6.142578125,0-10.9912109375,1.705078125-14.5439453125,5.111328125Z" fill="#fff"/>
  </g>
  <g>
    <path d="M1302.3193359375,1015.0283203125v37.728515625l17.8564453125,6.0478515625v25.7763671875l-101.087890625-36.576171875v-28.51171875l101.087890625-36.576171875v26.0634765625l-17.8564453125,6.0478515625ZM1283.3115234375,1021.365234375l-37.0078125,12.52734375,37.0078125,12.3837890625v-24.9111328125Z" fill="#fff"/>
    <path d="M1242.1279296875,937.2685546875c-2.3037109375-4.22265625-3.4560546875-9.166015625-3.4560546875-14.83203125,0-6.6240234375,1.6806640625-12.6220703125,5.0400390625-18,3.361328125-5.375,8.16015625-9.623046875,14.3994140625-12.744140625,6.2421875-3.1181640625,13.4892578125-4.6796875,21.744140625-4.6796875,8.2578125,0,15.5302734375,1.5615234375,21.81640625,4.6796875,6.2890625,3.12109375,11.1376953125,7.369140625,14.5439453125,12.744140625,3.4091796875,5.3779296875,5.1123046875,11.3759765625,5.1123046875,18,0,5.5693359375-1.15234375,10.490234375-3.4560546875,14.7607421875-2.3046875,4.2724609375-5.2783203125,7.609375-8.9287109375,10.0078125h49.5361328125v24.6240234375h-118.6552734375v-24.6240234375h11.3759765625c-3.744140625-2.3984375-6.7685546875-5.7109375-9.072265625-9.9365234375ZM1265.3837890625,917.1806640625c-3.5029296875,3.4091796875-5.255859375,7.609375-5.255859375,12.6005859375,0,4.8955078125,1.77734375,9.048828125,5.328125,12.4560546875,3.552734375,3.408203125,8.4013671875,5.111328125,14.5439453125,5.111328125,6.14453125,0,10.9931640625-1.703125,14.5439453125-5.111328125,3.552734375-3.4072265625,5.328125-7.560546875,5.328125-12.4560546875,0-4.896484375-1.7998046875-9.072265625-5.400390625-12.5283203125-3.599609375-3.4560546875-8.470703125-5.1845703125-14.6162109375-5.1845703125-6.142578125,0-10.9658203125,1.7060546875-14.4716796875,5.1123046875Z" fill="#fff"/>
    <path d="M1242.775390625,838.630859375c-2.5419921875-4.3203125-3.8154296875-9.1201171875-3.8154296875-14.400390625h26.0634765625v6.767578125c0,6.1455078125,1.3212890625,10.7529296875,3.9599609375,13.82421875,2.6416015625,3.0732421875,7.2724609375,4.6083984375,13.896484375,4.6083984375h37.2958984375v24.6240234375h-80.3515625v-24.6240234375h13.3916015625c-4.4140625-2.8798828125-7.8955078125-6.48046875-10.4404296875-10.7998046875Z" fill="#fff"/>
    <path d="M1285.9033203125,737.111328125v55.728515625c4.9931640625-.3828125,8.8095703125-1.9912109375,11.4482421875-4.82421875,2.6416015625-2.830078125,3.9599609375-6.3115234375,3.9599609375-10.4404296875,0-6.142578125-2.591796875-10.4150390625-7.775390625-12.8154296875v-26.2080078125c5.2802734375,1.345703125,10.0322265625,3.7685546875,14.255859375,7.271484375,4.2255859375,3.505859375,7.537109375,7.8974609375,9.935546875,13.1767578125,2.4013671875,5.2802734375,3.6005859375,11.1845703125,3.6005859375,17.7119140625,0,7.8720703125-1.6787109375,14.880859375-5.0400390625,21.0234375-3.359375,6.14453125-8.1591796875,10.9443359375-14.400390625,14.400390625-6.2392578125,3.4560546875-13.5361328125,5.18359375-21.8876953125,5.18359375-8.3525390625,0-15.646484375-1.703125-21.888671875-5.111328125-6.2392578125-3.4072265625-11.0380859375-8.18359375-14.3994140625-14.328125-3.359375-6.142578125-5.0400390625-13.19921875-5.0400390625-21.16796875,0-7.7763671875,1.6337890625-14.6884765625,4.8955078125-20.736328125,3.265625-6.0478515625,7.919921875-10.775390625,13.96875-14.18359375,6.0478515625-3.4072265625,13.103515625-5.1123046875,21.16796875-5.1123046875,2.3037109375,0,4.7041015625.1435546875,7.19921875.431640625ZM1272.2236328125,761.8798828125c-4.22265625,0-7.58203125,1.439453125-10.080078125,4.3193359375-2.4951171875,2.8798828125-3.744140625,6.48046875-3.744140625,10.80078125,0,4.1279296875,1.2021484375,7.609375,3.6005859375,10.439453125,2.400390625,2.8330078125,5.8095703125,4.5859375,10.2236328125,5.255859375v-30.8154296875Z" fill="#fff"/>
    <path d="M1248.103515625,652.224609375c6.09765625-5.6162109375,14.47265625-8.423828125,25.1279296875-8.423828125h46.9443359375v24.4794921875h-43.6318359375c-5.375,0-9.5517578125,1.392578125-12.5283203125,4.17578125-2.974609375,2.7861328125-4.4638671875,6.5302734375-4.4638671875,11.232421875,0,4.705078125,1.4892578125,8.4482421875,4.4638671875,11.232421875,2.9765625,2.78515625,7.1533203125,4.17578125,12.5283203125,4.17578125h43.6318359375v24.6240234375h-80.3515625v-24.6240234375h10.6552734375c-3.5498046875-2.4951171875-6.3583984375-5.8544921875-8.423828125-10.080078125-2.0634765625-4.2236328125-3.095703125-8.9755859375-3.095703125-14.255859375,0-9.4072265625,3.048828125-16.919921875,9.1435546875-22.5361328125Z" fill="#fff"/>
    <path d="M1258.111328125,626.880859375c-6.2392578125-3.1181640625-11.0380859375-7.3662109375-14.3994140625-12.744140625-3.359375-5.375-5.0400390625-11.3759765625-5.0400390625-18,0-5.2783203125,1.1044921875-10.1025390625,3.3115234375-14.4716796875,2.2099609375-4.3671875,5.1845703125-7.798828125,8.9287109375-10.2958984375h-37.2958984375v-24.6240234375h106.5595703125v24.6240234375h-11.51953125c3.83984375,2.3037109375,6.9111328125,5.5927734375,9.2158203125,9.86328125,2.3037109375,4.2734375,3.4560546875,9.2412109375,3.4560546875,14.904296875,0,6.6240234375-1.703125,12.625-5.1123046875,18-3.40625,5.3779296875-8.2548828125,9.6259765625-14.5439453125,12.744140625-6.2861328125,3.12109375-13.55859375,4.6796875-21.81640625,4.6796875-8.2548828125,0-15.501953125-1.55859375-21.744140625-4.6796875ZM1265.4560546875,576.48046875c-3.55078125,3.4091796875-5.328125,7.560546875-5.328125,12.4560546875,0,4.896484375,1.7529296875,9.0498046875,5.255859375,12.4560546875,3.505859375,3.4091796875,8.3291015625,5.1123046875,14.4716796875,5.1123046875,6.1455078125,0,11.0166015625-1.703125,14.6162109375-5.1123046875,3.6005859375-3.40625,5.400390625-7.5595703125,5.400390625-12.4560546875,0-4.8955078125-1.775390625-9.046875-5.328125-12.4560546875-3.55078125-3.40625-8.3994140625-5.111328125-14.5439453125-5.111328125-6.142578125,0-10.9912109375,1.705078125-14.5439453125,5.111328125Z" fill="#fff"/>
    <path d="M1285.9033203125,453.578125v55.728515625c4.9931640625-.3828125,8.8095703125-1.9912109375,11.4482421875-4.82421875,2.6416015625-2.830078125,3.9599609375-6.3115234375,3.9599609375-10.4404296875,0-6.142578125-2.591796875-10.4150390625-7.775390625-12.8154296875v-26.2080078125c5.2802734375,1.345703125,10.0322265625,3.7685546875,14.255859375,7.271484375,4.2255859375,3.505859375,7.537109375,7.8974609375,9.935546875,13.1767578125,2.4013671875,5.2802734375,3.6005859375,11.1845703125,3.6005859375,17.7119140625,0,7.8720703125-1.6787109375,14.880859375-5.0400390625,21.0234375-3.359375,6.14453125-8.1591796875,10.9443359375-14.400390625,14.400390625-6.2392578125,3.4560546875-13.5361328125,5.18359375-21.8876953125,5.18359375-8.3525390625,0-15.646484375-1.703125-21.888671875-5.111328125-6.2392578125-3.4072265625-11.0380859375-8.18359375-14.3994140625-14.328125-3.359375-6.142578125-5.0400390625-13.19921875-5.0400390625-21.16796875,0-7.7763671875,1.6337890625-14.6884765625,4.8955078125-20.736328125,3.265625-6.0478515625,7.919921875-10.775390625,13.96875-14.18359375,6.0478515625-3.4072265625,13.103515625-5.1123046875,21.16796875-5.1123046875,2.3037109375,0,4.7041015625.1435546875,7.19921875.431640625ZM1272.2236328125,478.3466796875c-4.22265625,0-7.58203125,1.439453125-10.080078125,4.3193359375-2.4951171875,2.8798828125-3.744140625,6.48046875-3.744140625,10.80078125,0,4.1279296875,1.2021484375,7.609375,3.6005859375,10.439453125,2.400390625,2.8330078125,5.8095703125,4.5859375,10.2236328125,5.255859375v-30.8154296875Z" fill="#fff"/>
  </g>
  <g>
    <path d="M1754.775390625,1135.9140625c-7.8232421875-4.3193359375-13.91796875-10.3427734375-18.2880859375-18.0712890625-4.3671875-7.7265625-6.5517578125-16.48828125-6.5517578125-26.2802734375,0-11.9990234375,3.16796875-22.2705078125,9.50390625-30.81640625,6.3359375-8.54296875,14.9765625-14.255859375,25.919921875-17.1357421875v27.072265625c-4.22265625,2.015625-7.4384765625,4.873046875-9.6474609375,8.5673828125-2.20703125,3.697265625-3.3125,7.8984375-3.3125,12.6005859375,0,7.5849609375,2.6416015625,13.7294921875,7.919921875,18.431640625,5.28125,4.705078125,12.3369140625,7.056640625,21.16796875,7.056640625,8.833984375,0,15.8896484375-2.3515625,21.1689453125-7.056640625,5.2802734375-4.7021484375,7.919921875-10.8466796875,7.919921875-18.431640625,0-4.7021484375-1.1025390625-8.9033203125-3.3125-12.6005859375-2.20703125-3.6943359375-5.4228515625-6.5517578125-9.6474609375-8.5673828125v-27.072265625c10.943359375,2.8798828125,19.5615234375,8.5927734375,25.84765625,17.1357421875,6.2890625,8.5458984375,9.431640625,18.8173828125,9.431640625,30.81640625,0,9.7919921875-2.1826171875,18.5537109375-6.5517578125,26.2802734375-4.3671875,7.728515625-10.4404296875,13.751953125-18.2158203125,18.0712890625-7.7763671875,4.3203125-16.654296875,6.48046875-26.640625,6.48046875-9.982421875,0-18.8857421875-2.16015625-26.7119140625-6.48046875Z" fill="#fff"/>
    <path d="M1828.2880859375,1013.15625c-3.359375,6.2880859375-8.1591796875,11.2314453125-14.400390625,14.83203125-6.2392578125,3.599609375-13.5361328125,5.3994140625-21.8876953125,5.3994140625-8.255859375,0-15.52734375-1.822265625-21.81640625-5.4716796875-6.2861328125-3.6474609375-11.1103515625-8.6396484375-14.4716796875-14.9765625-3.359375-6.3359375-5.0400390625-13.4384765625-5.0400390625-21.3115234375,0-7.8701171875,1.6806640625-14.9755859375,5.0400390625-21.3115234375,3.361328125-6.3369140625,8.185546875-11.3271484375,14.4716796875-14.9765625,6.2890625-3.6474609375,13.560546875-5.4716796875,21.81640625-5.4716796875,8.2568359375,0,15.529296875,1.849609375,21.8154296875,5.5439453125,6.2890625,3.6962890625,11.11328125,8.736328125,14.47265625,15.1201171875,3.361328125,6.384765625,5.0400390625,13.513671875,5.0400390625,21.3837890625,0,7.873046875-1.6787109375,14.953125-5.0400390625,21.240234375ZM1806.83203125,979.8916015625c-3.4560546875-3.3115234375-8.3994140625-4.9677734375-14.83203125-4.9677734375-6.4306640625,0-11.3759765625,1.6083984375-14.83203125,4.82421875-3.4560546875,3.2177734375-5.1845703125,7.177734375-5.1845703125,11.8798828125,0,4.8017578125,1.7060546875,8.7841796875,5.1123046875,11.9521484375,3.4091796875,3.16796875,8.376953125,4.751953125,14.904296875,4.751953125,6.4326171875,0,11.3759765625-1.5595703125,14.83203125-4.6796875,3.4560546875-3.119140625,5.18359375-7.03125,5.18359375-11.736328125,0-4.7021484375-1.7275390625-8.7119140625-5.18359375-12.0244140625Z" fill="#fff"/>
    <path d="M1760.0322265625,810.4052734375c6.0478515625-5.904296875,14.44921875-8.85546875,25.19921875-8.85546875h46.9443359375v24.4794921875h-43.6318359375c-5.1845703125,0-9.19140625,1.3681640625-12.0244140625,4.1044921875-2.830078125,2.7353515625-4.248046875,6.50390625-4.248046875,11.3037109375,0,4.8017578125,1.41796875,8.5673828125,4.248046875,11.3037109375,2.8330078125,2.736328125,6.83984375,4.1044921875,12.0244140625,4.1044921875h43.6318359375v24.4794921875h-43.6318359375c-5.1845703125,0-9.19140625,1.3681640625-12.0244140625,4.1044921875-2.830078125,2.7353515625-4.248046875,6.5048828125-4.248046875,11.3037109375,0,4.8017578125,1.41796875,8.568359375,4.248046875,11.3037109375,2.8330078125,2.736328125,6.83984375,4.1044921875,12.0244140625,4.1044921875h43.6318359375v24.6240234375h-80.3515625v-24.6240234375h10.0791015625c-3.3583984375-2.4951171875-6.0224609375-5.759765625-7.9912109375-9.7919921875-1.966796875-4.0322265625-2.9521484375-8.5908203125-2.9521484375-13.6806640625,0-6.0478515625,1.2958984375-11.447265625,3.8876953125-16.19921875s6.2890625-8.4716796875,11.087890625-11.16015625c-4.4140625-2.783203125-8.0146484375-6.5751953125-10.7998046875-11.3759765625-2.783203125-4.7998046875-4.17578125-10.0302734375-4.17578125-15.6962890625,0-9.9833984375,3.0234375-17.927734375,9.072265625-23.83203125Z" fill="#fff"/>
    <path d="M1754.1279296875,749.7109375c-2.3037109375-4.22265625-3.4560546875-9.166015625-3.4560546875-14.83203125,0-6.6240234375,1.6806640625-12.6220703125,5.0400390625-18,3.361328125-5.375,8.16015625-9.623046875,14.3994140625-12.744140625,6.2421875-3.1181640625,13.4892578125-4.6796875,21.744140625-4.6796875,8.2578125,0,15.5302734375,1.5615234375,21.81640625,4.6796875,6.2890625,3.12109375,11.1376953125,7.369140625,14.5439453125,12.744140625,3.4091796875,5.3779296875,5.1123046875,11.3759765625,5.1123046875,18,0,5.5693359375-1.15234375,10.490234375-3.4560546875,14.7607421875-2.3046875,4.2724609375-5.2783203125,7.609375-8.9287109375,10.0078125h49.5361328125v24.6240234375h-118.6552734375v-24.6240234375h11.3759765625c-3.744140625-2.3984375-6.7685546875-5.7109375-9.072265625-9.9365234375ZM1777.3837890625,729.623046875c-3.5029296875,3.4091796875-5.255859375,7.609375-5.255859375,12.6005859375,0,4.8955078125,1.77734375,9.048828125,5.328125,12.4560546875,3.552734375,3.408203125,8.4013671875,5.111328125,14.5439453125,5.111328125,6.14453125,0,10.9931640625-1.703125,14.5439453125-5.111328125,3.552734375-3.4072265625,5.328125-7.560546875,5.328125-12.4560546875,0-4.896484375-1.7998046875-9.072265625-5.400390625-12.5283203125-3.599609375-3.4560546875-8.470703125-5.1845703125-14.6162109375-5.1845703125-6.142578125,0-10.9658203125,1.7060546875-14.4716796875,5.1123046875Z" fill="#fff"/>
    <path d="M1770.111328125,686.7138671875c-6.2392578125-3.1181640625-11.0380859375-7.3662109375-14.3994140625-12.744140625-3.359375-5.375-5.0400390625-11.3759765625-5.0400390625-18,0-5.6630859375,1.15234375-10.630859375,3.4560546875-14.904296875,2.3037109375-4.2705078125,5.328125-7.5595703125,9.072265625-9.86328125h-11.3759765625v-24.6240234375h80.3515625v24.6240234375h-11.3759765625c3.744140625,2.400390625,6.767578125,5.7373046875,9.072265625,10.0078125,2.3037109375,4.2724609375,3.4560546875,9.240234375,3.4560546875,14.904296875,0,6.529296875-1.703125,12.48046875-5.1123046875,17.85546875-3.40625,5.3779296875-8.2548828125,9.6259765625-14.5439453125,12.744140625-6.2861328125,3.12109375-13.55859375,4.6796875-21.81640625,4.6796875-8.2548828125,0-15.501953125-1.55859375-21.744140625-4.6796875ZM1777.4560546875,636.3134765625c-3.55078125,3.4091796875-5.328125,7.560546875-5.328125,12.4560546875,0,4.896484375,1.7529296875,9.0498046875,5.255859375,12.4560546875,3.505859375,3.4091796875,8.3291015625,5.1123046875,14.4716796875,5.1123046875,6.1455078125,0,11.0166015625-1.703125,14.6162109375-5.1123046875,3.6005859375-3.40625,5.400390625-7.5595703125,5.400390625-12.4560546875,0-4.8955078125-1.775390625-9.046875-5.328125-12.4560546875-3.55078125-3.40625-8.3994140625-5.111328125-14.5439453125-5.111328125-6.142578125,0-10.9912109375,1.705078125-14.5439453125,5.111328125Z" fill="#fff"/>
    <path d="M1754.775390625,553.30078125c-2.5419921875-4.3203125-3.8154296875-9.1201171875-3.8154296875-14.400390625h26.0634765625v6.767578125c0,6.1455078125,1.3212890625,10.7529296875,3.9599609375,13.82421875,2.6416015625,3.0732421875,7.2724609375,4.6083984375,13.896484375,4.6083984375h37.2958984375v24.6240234375h-80.3515625v-24.6240234375h13.3916015625c-4.4140625-2.8798828125-7.8955078125-6.48046875-10.4404296875-10.7998046875Z" fill="#fff"/>
    <path d="M1811.2958984375,482.3095703125h20.8798828125v12.5283203125c0,8.927734375-2.1826171875,15.888671875-6.5517578125,20.8798828125-4.3671875,4.9921875-11.4951171875,7.4873046875-21.3837890625,7.4873046875h-31.96875v9.7919921875h-20.447265625v-9.7919921875h-19.583984375v-24.6240234375h19.583984375v-16.1279296875h20.447265625v16.1279296875h32.255859375c2.4013671875,0,4.12890625-.5751953125,5.1845703125-1.7275390625,1.0576171875-1.15234375,1.583984375-3.0712890625,1.583984375-5.759765625v-8.7841796875Z" fill="#fff"/>
    <path d="M1797.9033203125,393.318359375v55.728515625c4.9931640625-.3828125,8.8095703125-1.9912109375,11.4482421875-4.82421875,2.6416015625-2.830078125,3.9599609375-6.3115234375,3.9599609375-10.4404296875,0-6.142578125-2.591796875-10.4150390625-7.775390625-12.8154296875v-26.2080078125c5.2802734375,1.345703125,10.0322265625,3.7685546875,14.255859375,7.271484375,4.2255859375,3.505859375,7.537109375,7.8974609375,9.935546875,13.1767578125,2.4013671875,5.2802734375,3.6005859375,11.1845703125,3.6005859375,17.7119140625,0,7.8720703125-1.6787109375,14.880859375-5.0400390625,21.0234375-3.359375,6.14453125-8.1591796875,10.9443359375-14.400390625,14.400390625-6.2392578125,3.4560546875-13.5361328125,5.18359375-21.8876953125,5.18359375-8.3525390625,0-15.646484375-1.703125-21.888671875-5.111328125-6.2392578125-3.4072265625-11.0380859375-8.18359375-14.3994140625-14.328125-3.359375-6.142578125-5.0400390625-13.19921875-5.0400390625-21.16796875,0-7.7763671875,1.6337890625-14.6884765625,4.8955078125-20.736328125,3.265625-6.0478515625,7.919921875-10.775390625,13.96875-14.18359375,6.0478515625-3.4072265625,13.103515625-5.1123046875,21.16796875-5.1123046875,2.3037109375,0,4.7041015625.1435546875,7.19921875.431640625ZM1784.2236328125,418.0869140625c-4.22265625,0-7.58203125,1.439453125-10.080078125,4.3193359375-2.4951171875,2.8798828125-3.744140625,6.48046875-3.744140625,10.80078125,0,4.1279296875,1.2021484375,7.609375,3.6005859375,10.439453125,2.400390625,2.8330078125,5.8095703125,4.5859375,10.2236328125,5.255859375v-30.8154296875Z" fill="#fff"/>
  </g>
</svg>