<?xml version="1.0" encoding="UTF-8"?>
<svg xmlns="http://www.w3.org/2000/svg" xmlns:xlink="http://www.w3.org/1999/xlink" viewBox="0 0 2048 1536">
  <defs>
    <linearGradient id="linear-gradient" x1="437.044841441200333" y1="397.274139786790329" x2="1610.95515855879944" y2="82.725860213208648" gradientUnits="userSpaceOnUse">
      <stop offset="0" stop-color="#1a8deb"/>
      <stop offset="1" stop-color="#00e6ff"/>
    </linearGradient>
    <linearGradient id="linear-gradient-2" x1="421.567368949712545" y1="753.421315489527842" x2="1626.432631050280634" y2="430.5786845104696" gradientUnits="userSpaceOnUse">
      <stop offset="0" stop-color="#00e6ff"/>
      <stop offset="1" stop-color="#c0ff1c"/>
    </linearGradient>
    <linearGradient id="linear-gradient-3" x1="421.567368949714364" y1="1105.421315489526023" x2="1626.432631050280861" y2="782.578684510468293" gradientUnits="userSpaceOnUse">
      <stop offset="0" stop-color="#c0ff1c"/>
      <stop offset=".9991943359375" stop-color="#fffc1c"/>
    </linearGradient>
    <linearGradient id="linear-gradient-4" x1="421.567368949714364" y1="1457.421315489527842" x2="1626.432631050282453" y2="1134.578684510469657" gradientUnits="userSpaceOnUse">
      <stop offset="0" stop-color="#fffc1c"/>
      <stop offset=".9991943359375" stop-color="#ff9a1c"/>
    </linearGradient>
    <linearGradient id="New_Gradient_Swatch_1" data-name="New Gradient Swatch 1" x1="1498.136196266335901" y1="336" x2="1498.136196266335901" y2="144" gradientUnits="userSpaceOnUse">
      <stop offset="0" stop-color="#fff" stop-opacity="0"/>
      <stop offset="1" stop-color="#fff"/>
    </linearGradient>
  </defs>
  <g id="bg">
    <rect width="2048" height="1536" fill="#fff"/>
  </g>
  <g id="gradients-buttons-hover">
    <g>
      <path d="M544,384c-79.4013671875,0-144-64.5986328125-144-144s64.5986328125-144,144-144h960c79.4013671875,0,144,64.5986328125,144,144s-64.5986328125,144-144,144h-960Z" fill="url(#linear-gradient)"/>
      <path d="M1504.000244140625,112c34.190185546875,0,66.333740234375,13.314208984375,90.509521484375,37.490234375s37.490234375,56.31982421875,37.490234375,90.510009765625c0,34.18994140625-13.314453125,66.33349609375-37.490234375,90.509521484375s-56.3193359375,37.490234375-90.509521484375,37.490234375h-960.00048828125c-34.18994140625,0-66.33349609375-13.314208984375-90.509521484375-37.490234375s-37.490234375-56.31982421875-37.490234375-90.510009765625c0-34.18994140625,13.314208984375-66.33349609375,37.490234375-90.509521484375s56.319580078125-37.490234375,90.509521484375-37.490234375h960.00048828125M1504.000244140625,80h-960.00048828125c-88.365478515625,0-159.999755859375,71.63427734375-159.999755859375,159.999755859375v.00048828125c0,88.365478515625,71.63427734375,159.999755859375,159.999755859375,159.999755859375h960.00048828125c88.365478515625,0,159.999755859375-71.63427734375,159.999755859375-159.999755859375v-.00048828125c0-88.365478515625-71.63427734375-159.999755859375-159.999755859375-159.999755859375h0Z" fill="#2d2d2d"/>
    </g>
    <rect x="384" y="432.000000060215825" width="1280" height="319.99999987956835" rx="159.999839984029705" ry="159.999839984029705" fill="url(#linear-gradient-2)"/>
    <rect x="384" y="784.000000060215825" width="1280" height="319.99999987956835" rx="159.99983989462271" ry="159.99983989462271" fill="url(#linear-gradient-3)"/>
    <rect x="384" y="1136.00000000061118" width="1280" height="319.999999998777866" rx="159.999839998930611" ry="159.999839998930611" fill="url(#linear-gradient-4)"/>
    <g>
      <path d="M545.4140625,198.8154296875v20.4482421875h32.8408203125v19.0078125h-32.8408203125v22.1767578125h37.1435546875v19.7275390625h-61.666015625v-101.087890625h61.666015625v19.7275390625h-37.1435546875Z" fill="#2d2d2d"/>
      <path d="M645.798828125,280.17578125l-15.3447265625-22.3203125-12.9072265625,22.3203125h-26.5302734375l26.38671875-41.0400390625-27.1044921875-39.3115234375h27.53515625l15.3447265625,22.17578125,12.90625-22.17578125h26.53125l-26.8173828125,40.4638671875,27.5341796875,39.8876953125h-27.5341796875Z" fill="#2d2d2d"/>
      <path d="M717.2158203125,202.1279296875c4.2060546875-2.3037109375,9.12890625-3.4560546875,14.771484375-3.4560546875,6.5966796875,0,12.5703125,1.6806640625,17.92578125,5.0400390625,5.353515625,3.361328125,9.583984375,8.16015625,12.6923828125,14.3994140625,3.10546875,6.2421875,4.66015625,13.4892578125,4.66015625,21.744140625,0,8.2578125-1.5546875,15.5302734375-4.66015625,21.81640625-3.1083984375,6.2890625-7.3388671875,11.1376953125-12.6923828125,14.5439453125-5.35546875,3.4091796875-11.3291015625,5.1123046875-17.92578125,5.1123046875-5.5458984375,0-10.4462890625-1.15234375-14.69921875-3.4560546875-4.255859375-2.3046875-7.5791015625-5.2783203125-9.9677734375-8.9287109375v49.5361328125h-24.5224609375v-118.6552734375h24.5224609375v11.3759765625c2.388671875-3.744140625,5.6875-6.7685546875,9.8955078125-9.072265625ZM737.2216796875,225.3837890625c-3.39453125-3.5029296875-7.578125-5.255859375-12.548828125-5.255859375-4.8759765625,0-9.01171875,1.77734375-12.404296875,5.328125-3.39453125,3.552734375-5.0908203125,8.4013671875-5.0908203125,14.5439453125,0,6.14453125,1.6962890625,10.9931640625,5.0908203125,14.5439453125,3.392578125,3.552734375,7.5283203125,5.328125,12.404296875,5.328125s9.03515625-1.7998046875,12.4765625-5.400390625c3.4423828125-3.599609375,5.1630859375-8.470703125,5.1630859375-14.6162109375,0-6.142578125-1.6982421875-10.9658203125-5.0908203125-14.4716796875Z" fill="#2d2d2d"/>
      <path d="M804.693359375,173.6162109375v106.5595703125h-24.5224609375v-106.5595703125h24.5224609375Z" fill="#2d2d2d"/>
      <path d="M837.7490234375,276.2880859375c-6.2626953125-3.359375-11.185546875-8.1591796875-14.7705078125-14.400390625-3.5859375-6.2392578125-5.3779296875-13.5361328125-5.3779296875-21.8876953125,0-8.255859375,1.814453125-15.52734375,5.44921875-21.81640625,3.6328125-6.2861328125,8.6044921875-11.1103515625,14.9150390625-14.4716796875,6.3095703125-3.359375,13.3837890625-5.0400390625,21.224609375-5.0400390625,7.837890625,0,14.9140625,1.6806640625,21.224609375,5.0400390625,6.3095703125,3.361328125,11.2802734375,8.185546875,14.9140625,14.4716796875,3.6328125,6.2890625,5.4501953125,13.560546875,5.4501953125,21.81640625,0,8.2568359375-1.841796875,15.529296875-5.521484375,21.8154296875-3.681640625,6.2890625-8.701171875,11.11328125-15.05859375,14.47265625-6.3583984375,3.361328125-13.4580078125,5.0400390625-21.2958984375,5.0400390625-7.8408203125,0-14.892578125-1.6787109375-21.1533203125-5.0400390625ZM870.876953125,254.83203125c3.298828125-3.4560546875,4.9482421875-8.3994140625,4.9482421875-14.83203125,0-6.4306640625-1.6025390625-11.3759765625-4.8046875-14.83203125-3.2041015625-3.4560546875-7.1484375-5.1845703125-11.8310546875-5.1845703125-4.7822265625,0-8.748046875,1.7060546875-11.9033203125,5.1123046875-3.1552734375,3.4091796875-4.732421875,8.376953125-4.732421875,14.904296875,0,6.4326171875,1.552734375,11.3759765625,4.6611328125,14.83203125,3.10546875,3.4560546875,7.001953125,5.18359375,11.6875,5.18359375,4.68359375,0,8.6767578125-1.7275390625,11.974609375-5.18359375Z" fill="#2d2d2d"/>
      <path d="M949.10546875,202.775390625c4.302734375-2.5419921875,9.08203125-3.8154296875,14.3408203125-3.8154296875v26.0634765625h-6.740234375c-6.119140625,0-10.7080078125,1.3212890625-13.7666015625,3.9599609375-3.0615234375,2.6416015625-4.58984375,7.2724609375-4.58984375,13.896484375v37.2958984375h-24.5224609375v-80.3515625h24.5224609375v13.3916015625c2.8681640625-4.4140625,6.4541015625-7.8955078125,10.755859375-10.4404296875Z" fill="#2d2d2d"/>
      <path d="M974.990234375,218.111328125c3.10546875-6.2392578125,7.3359375-11.0380859375,12.69140625-14.3994140625,5.353515625-3.359375,11.3291015625-5.0400390625,17.92578125-5.0400390625,5.640625,0,10.587890625,1.15234375,14.8427734375,3.4560546875,4.2529296875,2.3037109375,7.529296875,5.328125,9.82421875,9.072265625v-11.3759765625h24.5224609375v80.3515625h-24.5224609375v-11.3759765625c-2.3916015625,3.744140625-5.7138671875,6.767578125-9.966796875,9.072265625-4.255859375,2.3037109375-9.203125,3.4560546875-14.84375,3.4560546875-6.501953125,0-12.4287109375-1.703125-17.7822265625-5.1123046875-5.35546875-3.40625-9.5859375-8.2548828125-12.69140625-14.5439453125-3.1083984375-6.2861328125-4.6611328125-13.55859375-4.6611328125-21.81640625,0-8.2548828125,1.552734375-15.501953125,4.6611328125-21.744140625ZM1025.18359375,225.4560546875c-3.3955078125-3.55078125-7.529296875-5.328125-12.4052734375-5.328125s-9.0126953125,1.7529296875-12.4052734375,5.255859375c-3.39453125,3.505859375-5.0908203125,8.3291015625-5.0908203125,14.4716796875,0,6.1455078125,1.6962890625,11.0166015625,5.0908203125,14.6162109375,3.392578125,3.6005859375,7.529296875,5.400390625,12.4052734375,5.400390625s9.009765625-1.775390625,12.4052734375-5.328125c3.3916015625-3.55078125,5.0908203125-8.3994140625,5.0908203125-14.5439453125,0-6.142578125-1.69921875-10.9912109375-5.0908203125-14.5439453125Z" fill="#2d2d2d"/>
    </g>
    <g>
      <path d="M768.2607421875,579.6875c-2.6884765625,4.8486328125-6.8173828125,8.76171875-12.3837890625,11.736328125-5.568359375,2.9765625-12.48046875,4.4638671875-20.7353515625,4.4638671875h-15.2646484375v36.2880859375h-24.6240234375v-101.087890625h39.888671875c8.0634765625,0,14.87890625,1.392578125,20.447265625,4.17578125,5.56640625,2.78515625,9.7431640625,6.6240234375,12.5283203125,11.5205078125,2.783203125,4.8955078125,4.17578125,10.51171875,4.17578125,16.84765625,0,5.8564453125-1.345703125,11.208984375-4.0322265625,16.0556640625ZM743.78125,572.9921875c2.3037109375-2.2080078125,3.4560546875-5.328125,3.4560546875-9.3603515625s-1.15234375-7.150390625-3.4560546875-9.3603515625c-2.3037109375-2.20703125-5.8095703125-3.3115234375-10.51171875-3.3115234375h-13.392578125v25.34375h13.392578125c4.7021484375,0,8.2080078125-1.1025390625,10.51171875-3.3115234375Z" fill="#2d2d2d"/>
      <path d="M784.8916015625,570.111328125c3.1181640625-6.2392578125,7.3662109375-11.0380859375,12.744140625-14.3994140625,5.375-3.359375,11.3759765625-5.0400390625,18-5.0400390625,5.6630859375,0,10.630859375,1.15234375,14.904296875,3.4560546875,4.2705078125,2.3037109375,7.5595703125,5.328125,9.86328125,9.072265625v-11.3759765625h24.6240234375v80.3515625h-24.6240234375v-11.3759765625c-2.400390625,3.744140625-5.7373046875,6.767578125-10.0078125,9.072265625-4.2724609375,2.3037109375-9.240234375,3.4560546875-14.904296875,3.4560546875-6.529296875,0-12.48046875-1.703125-17.85546875-5.1123046875-5.3779296875-3.40625-9.6259765625-8.2548828125-12.744140625-14.5439453125-3.12109375-6.2861328125-4.6796875-13.55859375-4.6796875-21.81640625,0-8.2548828125,1.55859375-15.501953125,4.6796875-21.744140625ZM835.2919921875,577.4560546875c-3.4091796875-3.55078125-7.560546875-5.328125-12.4560546875-5.328125-4.896484375,0-9.0498046875,1.7529296875-12.4560546875,5.255859375-3.4091796875,3.505859375-5.1123046875,8.3291015625-5.1123046875,14.4716796875,0,6.1455078125,1.703125,11.0166015625,5.1123046875,14.6162109375,3.40625,3.6005859375,7.5595703125,5.400390625,12.4560546875,5.400390625,4.8955078125,0,9.046875-1.775390625,12.4560546875-5.328125,3.40625-3.55078125,5.111328125-8.3994140625,5.111328125-14.5439453125,0-6.142578125-1.705078125-10.9912109375-5.111328125-14.5439453125Z" fill="#2d2d2d"/>
      <path d="M918.3046875,554.775390625c4.3203125-2.5419921875,9.1201171875-3.8154296875,14.400390625-3.8154296875v26.0634765625h-6.767578125c-6.1455078125,0-10.7529296875,1.3212890625-13.82421875,3.9599609375-3.0732421875,2.6416015625-4.6083984375,7.2724609375-4.6083984375,13.896484375v37.2958984375h-24.6240234375v-80.3515625h24.6240234375v13.3916015625c2.8798828125-4.4140625,6.48046875-7.8955078125,10.7998046875-10.4404296875Z" fill="#2d2d2d"/>
      <path d="M989.2958984375,611.2958984375v20.8798828125h-12.5283203125c-8.927734375,0-15.888671875-2.1826171875-20.8798828125-6.5517578125-4.9921875-4.3671875-7.4873046875-11.4951171875-7.4873046875-21.3837890625v-31.96875h-9.7919921875v-20.447265625h9.7919921875v-19.583984375h24.6240234375v19.583984375h16.1279296875v20.447265625h-16.1279296875v32.255859375c0,2.4013671875.5751953125,4.12890625,1.7275390625,5.1845703125,1.15234375,1.0576171875,3.0712890625,1.583984375,5.759765625,1.583984375h8.7841796875Z" fill="#2d2d2d"/>
      <path d="M1004.7744140625,539.65625c-2.7353515625-2.54296875-4.103515625-5.6884765625-4.103515625-9.4326171875,0-3.837890625,1.3681640625-7.03125,4.103515625-9.576171875,2.736328125-2.5419921875,6.2646484375-3.8154296875,10.583984375-3.8154296875,4.2236328125,0,7.7041015625,1.2734375,10.4404296875,3.8154296875,2.736328125,2.544921875,4.1044921875,5.73828125,4.1044921875,9.576171875,0,3.744140625-1.3681640625,6.8896484375-4.1044921875,9.4326171875-2.736328125,2.5439453125-6.216796875,3.8154296875-10.4404296875,3.8154296875-4.3193359375,0-7.84765625-1.271484375-10.583984375-3.8154296875ZM1027.5986328125,551.82421875v80.3515625h-24.6240234375v-80.3515625h24.6240234375Z" fill="#2d2d2d"/>
      <path d="M1045.669921875,570.111328125c3.4072265625-6.2392578125,8.1591796875-11.0380859375,14.2568359375-14.3994140625,6.0947265625-3.359375,13.0791015625-5.0400390625,20.951171875-5.0400390625,10.080078125,0,18.5048828125,2.6416015625,25.2724609375,7.919921875,6.767578125,5.2802734375,11.20703125,12.7216796875,13.3203125,22.3203125h-26.2080078125c-2.2099609375-6.142578125-6.48046875-9.216796875-12.81640625-9.216796875-4.513671875,0-8.11328125,1.7529296875-10.7998046875,5.2568359375-2.6884765625,3.5048828125-4.0322265625,8.5205078125-4.0322265625,15.0478515625,0,6.529296875,1.34375,11.544921875,4.0322265625,15.0478515625,2.6865234375,3.505859375,6.2861328125,5.255859375,10.7998046875,5.255859375,6.3359375,0,10.6064453125-3.0712890625,12.81640625-9.2158203125h26.2080078125c-2.11328125,9.4091796875-6.5771484375,16.80078125-13.392578125,22.17578125-6.8173828125,5.3779296875-15.216796875,8.064453125-25.2001953125,8.064453125-7.8720703125,0-14.8564453125-1.6787109375-20.951171875-5.0400390625-6.09765625-3.359375-10.849609375-8.1591796875-14.2568359375-14.400390625-3.408203125-6.2392578125-5.111328125-13.5361328125-5.111328125-21.8876953125,0-8.3525390625,1.703125-15.646484375,5.111328125-21.888671875Z" fill="#2d2d2d"/>
      <path d="M1134.373046875,539.65625c-2.7353515625-2.54296875-4.103515625-5.6884765625-4.103515625-9.4326171875,0-3.837890625,1.3681640625-7.03125,4.103515625-9.576171875,2.736328125-2.5419921875,6.2646484375-3.8154296875,10.583984375-3.8154296875,4.2236328125,0,7.7041015625,1.2734375,10.4404296875,3.8154296875,2.736328125,2.544921875,4.1044921875,5.73828125,4.1044921875,9.576171875,0,3.744140625-1.3681640625,6.8896484375-4.1044921875,9.4326171875-2.736328125,2.5439453125-6.216796875,3.8154296875-10.4404296875,3.8154296875-4.3193359375,0-7.84765625-1.271484375-10.583984375-3.8154296875ZM1157.197265625,551.82421875v80.3515625h-24.6240234375v-80.3515625h24.6240234375Z" fill="#2d2d2d"/>
      <path d="M1209.61328125,554.1279296875c4.22265625-2.3037109375,9.166015625-3.4560546875,14.83203125-3.4560546875,6.6240234375,0,12.6220703125,1.6806640625,18,5.0400390625,5.375,3.361328125,9.623046875,8.16015625,12.744140625,14.3994140625,3.1181640625,6.2421875,4.6796875,13.4892578125,4.6796875,21.744140625,0,8.2578125-1.5615234375,15.5302734375-4.6796875,21.81640625-3.12109375,6.2890625-7.369140625,11.1376953125-12.744140625,14.5439453125-5.3779296875,3.4091796875-11.3759765625,5.1123046875-18,5.1123046875-5.5693359375,0-10.490234375-1.15234375-14.7607421875-3.4560546875-4.2724609375-2.3046875-7.609375-5.2783203125-10.0078125-8.9287109375v49.5361328125h-24.6240234375v-118.6552734375h24.6240234375v11.3759765625c2.3984375-3.744140625,5.7109375-6.7685546875,9.9365234375-9.072265625ZM1229.701171875,577.3837890625c-3.4091796875-3.5029296875-7.609375-5.255859375-12.6005859375-5.255859375-4.8955078125,0-9.048828125,1.77734375-12.4560546875,5.328125-3.408203125,3.552734375-5.111328125,8.4013671875-5.111328125,14.5439453125,0,6.14453125,1.703125,10.9931640625,5.111328125,14.5439453125,3.4072265625,3.552734375,7.560546875,5.328125,12.4560546875,5.328125,4.896484375,0,9.072265625-1.7998046875,12.5283203125-5.400390625,3.4560546875-3.599609375,5.1845703125-8.470703125,5.1845703125-14.6162109375,0-6.142578125-1.7060546875-10.9658203125-5.1123046875-14.4716796875Z" fill="#2d2d2d"/>
      <path d="M1272.6103515625,570.111328125c3.1181640625-6.2392578125,7.3662109375-11.0380859375,12.744140625-14.3994140625,5.375-3.359375,11.3759765625-5.0400390625,18-5.0400390625,5.6630859375,0,10.630859375,1.15234375,14.904296875,3.4560546875,4.2705078125,2.3037109375,7.5595703125,5.328125,9.86328125,9.072265625v-11.3759765625h24.6240234375v80.3515625h-24.6240234375v-11.3759765625c-2.400390625,3.744140625-5.7373046875,6.767578125-10.0078125,9.072265625-4.2724609375,2.3037109375-9.240234375,3.4560546875-14.904296875,3.4560546875-6.529296875,0-12.48046875-1.703125-17.85546875-5.1123046875-5.3779296875-3.40625-9.6259765625-8.2548828125-12.744140625-14.5439453125-3.12109375-6.2861328125-4.6796875-13.55859375-4.6796875-21.81640625,0-8.2548828125,1.55859375-15.501953125,4.6796875-21.744140625ZM1323.0107421875,577.4560546875c-3.4091796875-3.55078125-7.560546875-5.328125-12.4560546875-5.328125-4.896484375,0-9.0498046875,1.7529296875-12.4560546875,5.255859375-3.4091796875,3.505859375-5.1123046875,8.3291015625-5.1123046875,14.4716796875,0,6.1455078125,1.703125,11.0166015625,5.1123046875,14.6162109375,3.40625,3.6005859375,7.5595703125,5.400390625,12.4560546875,5.400390625,4.8955078125,0,9.046875-1.775390625,12.4560546875-5.328125,3.40625-3.55078125,5.111328125-8.3994140625,5.111328125-14.5439453125,0-6.142578125-1.705078125-10.9912109375-5.111328125-14.5439453125Z" fill="#2d2d2d"/>
    </g>
    <g>
      <path d="M776.9716796875,966.3193359375h-37.728515625l-6.0478515625,17.8564453125h-25.7763671875l36.576171875-101.087890625h28.51171875l36.576171875,101.087890625h-26.0634765625l-6.0478515625-17.8564453125ZM770.634765625,947.3115234375l-12.52734375-37.0078125-12.3837890625,37.0078125h24.9111328125Z" fill="#2d2d2d"/>
      <path d="M854.7314453125,906.1279296875c4.22265625-2.3037109375,9.166015625-3.4560546875,14.83203125-3.4560546875,6.6240234375,0,12.6220703125,1.6806640625,18,5.0400390625,5.375,3.361328125,9.623046875,8.16015625,12.744140625,14.3994140625,3.1181640625,6.2421875,4.6796875,13.4892578125,4.6796875,21.744140625,0,8.2578125-1.5615234375,15.5302734375-4.6796875,21.81640625-3.12109375,6.2890625-7.369140625,11.1376953125-12.744140625,14.5439453125-5.3779296875,3.4091796875-11.3759765625,5.1123046875-18,5.1123046875-5.5693359375,0-10.490234375-1.15234375-14.7607421875-3.4560546875-4.2724609375-2.3046875-7.609375-5.2783203125-10.0078125-8.9287109375v49.5361328125h-24.6240234375v-118.6552734375h24.6240234375v11.3759765625c2.3984375-3.744140625,5.7109375-6.7685546875,9.9365234375-9.072265625ZM874.8193359375,929.3837890625c-3.4091796875-3.5029296875-7.609375-5.255859375-12.6005859375-5.255859375-4.8955078125,0-9.048828125,1.77734375-12.4560546875,5.328125-3.408203125,3.552734375-5.111328125,8.4013671875-5.111328125,14.5439453125,0,6.14453125,1.703125,10.9931640625,5.111328125,14.5439453125,3.4072265625,3.552734375,7.560546875,5.328125,12.4560546875,5.328125,4.896484375,0,9.072265625-1.7998046875,12.5283203125-5.400390625,3.4560546875-3.599609375,5.1845703125-8.470703125,5.1845703125-14.6162109375,0-6.142578125-1.7060546875-10.9658203125-5.1123046875-14.4716796875Z" fill="#2d2d2d"/>
      <path d="M953.369140625,906.775390625c4.3203125-2.5419921875,9.1201171875-3.8154296875,14.400390625-3.8154296875v26.0634765625h-6.767578125c-6.1455078125,0-10.7529296875,1.3212890625-13.82421875,3.9599609375-3.0732421875,2.6416015625-4.6083984375,7.2724609375-4.6083984375,13.896484375v37.2958984375h-24.6240234375v-80.3515625h24.6240234375v13.3916015625c2.8798828125-4.4140625,6.48046875-7.8955078125,10.7998046875-10.4404296875Z" fill="#2d2d2d"/>
      <path d="M1054.888671875,949.9033203125h-55.728515625c.3828125,4.9931640625,1.9912109375,8.8095703125,4.82421875,11.4482421875,2.830078125,2.6416015625,6.3115234375,3.9599609375,10.4404296875,3.9599609375,6.142578125,0,10.4150390625-2.591796875,12.8154296875-7.775390625h26.2080078125c-1.345703125,5.2802734375-3.7685546875,10.0322265625-7.271484375,14.255859375-3.505859375,4.2255859375-7.8974609375,7.537109375-13.1767578125,9.935546875-5.2802734375,2.4013671875-11.1845703125,3.6005859375-17.7119140625,3.6005859375-7.8720703125,0-14.880859375-1.6787109375-21.0234375-5.0400390625-6.14453125-3.359375-10.9443359375-8.1591796875-14.400390625-14.400390625-3.4560546875-6.2392578125-5.18359375-13.5361328125-5.18359375-21.8876953125,0-8.3525390625,1.703125-15.646484375,5.111328125-21.888671875,3.4072265625-6.2392578125,8.18359375-11.0380859375,14.328125-14.3994140625,6.142578125-3.359375,13.19921875-5.0400390625,21.16796875-5.0400390625,7.7763671875,0,14.6884765625,1.6337890625,20.736328125,4.8955078125,6.0478515625,3.265625,10.775390625,7.919921875,14.18359375,13.96875,3.4072265625,6.0478515625,5.1123046875,13.103515625,5.1123046875,21.16796875,0,2.3037109375-.1435546875,4.7041015625-.431640625,7.19921875ZM1030.1201171875,936.2236328125c0-4.22265625-1.439453125-7.58203125-4.3193359375-10.080078125-2.8798828125-2.4951171875-6.48046875-3.744140625-10.80078125-3.744140625-4.1279296875,0-7.609375,1.2021484375-10.439453125,3.6005859375-2.8330078125,2.400390625-4.5859375,5.8095703125-5.255859375,10.2236328125h30.8154296875Z" fill="#2d2d2d"/>
      <path d="M1139.775390625,912.103515625c5.6162109375,6.09765625,8.423828125,14.47265625,8.423828125,25.1279296875v46.9443359375h-24.4794921875v-43.6318359375c0-5.375-1.392578125-9.5517578125-4.17578125-12.5283203125-2.7861328125-2.974609375-6.5302734375-4.4638671875-11.232421875-4.4638671875-4.705078125,0-8.4482421875,1.4892578125-11.232421875,4.4638671875-2.78515625,2.9765625-4.17578125,7.1533203125-4.17578125,12.5283203125v43.6318359375h-24.6240234375v-80.3515625h24.6240234375v10.6552734375c2.4951171875-3.5498046875,5.8544921875-6.3583984375,10.080078125-8.423828125,4.2236328125-2.0634765625,8.9755859375-3.095703125,14.255859375-3.095703125,9.4072265625,0,16.919921875,3.048828125,22.5361328125,9.1435546875Z" fill="#2d2d2d"/>
      <path d="M1165.119140625,922.111328125c3.1181640625-6.2392578125,7.3662109375-11.0380859375,12.744140625-14.3994140625,5.375-3.359375,11.3759765625-5.0400390625,18-5.0400390625,5.2783203125,0,10.1025390625,1.1044921875,14.4716796875,3.3115234375,4.3671875,2.2099609375,7.798828125,5.1845703125,10.2958984375,8.9287109375v-37.2958984375h24.6240234375v106.5595703125h-24.6240234375v-11.51953125c-2.3037109375,3.83984375-5.5927734375,6.9111328125-9.86328125,9.2158203125-4.2734375,2.3037109375-9.2412109375,3.4560546875-14.904296875,3.4560546875-6.6240234375,0-12.625-1.703125-18-5.1123046875-5.3779296875-3.40625-9.6259765625-8.2548828125-12.744140625-14.5439453125-3.12109375-6.2861328125-4.6796875-13.55859375-4.6796875-21.81640625,0-8.2548828125,1.55859375-15.501953125,4.6796875-21.744140625ZM1215.51953125,929.4560546875c-3.4091796875-3.55078125-7.560546875-5.328125-12.4560546875-5.328125-4.896484375,0-9.0498046875,1.7529296875-12.4560546875,5.255859375-3.4091796875,3.505859375-5.1123046875,8.3291015625-5.1123046875,14.4716796875,0,6.1455078125,1.703125,11.0166015625,5.1123046875,14.6162109375,3.40625,3.6005859375,7.5595703125,5.400390625,12.4560546875,5.400390625,4.8955078125,0,9.046875-1.775390625,12.4560546875-5.328125,3.40625-3.55078125,5.111328125-8.3994140625,5.111328125-14.5439453125,0-6.142578125-1.705078125-10.9912109375-5.111328125-14.5439453125Z" fill="#2d2d2d"/>
      <path d="M1338.421875,949.9033203125h-55.728515625c.3828125,4.9931640625,1.9912109375,8.8095703125,4.82421875,11.4482421875,2.830078125,2.6416015625,6.3115234375,3.9599609375,10.4404296875,3.9599609375,6.142578125,0,10.4150390625-2.591796875,12.8154296875-7.775390625h26.2080078125c-1.345703125,5.2802734375-3.7685546875,10.0322265625-7.271484375,14.255859375-3.505859375,4.2255859375-7.8974609375,7.537109375-13.1767578125,9.935546875-5.2802734375,2.4013671875-11.1845703125,3.6005859375-17.7119140625,3.6005859375-7.8720703125,0-14.880859375-1.6787109375-21.0234375-5.0400390625-6.14453125-3.359375-10.9443359375-8.1591796875-14.400390625-14.400390625-3.4560546875-6.2392578125-5.18359375-13.5361328125-5.18359375-21.8876953125,0-8.3525390625,1.703125-15.646484375,5.111328125-21.888671875,3.4072265625-6.2392578125,8.18359375-11.0380859375,14.328125-14.3994140625,6.142578125-3.359375,13.19921875-5.0400390625,21.16796875-5.0400390625,7.7763671875,0,14.6884765625,1.6337890625,20.736328125,4.8955078125,6.0478515625,3.265625,10.775390625,7.919921875,14.18359375,13.96875,3.4072265625,6.0478515625,5.1123046875,13.103515625,5.1123046875,21.16796875,0,2.3037109375-.1435546875,4.7041015625-.431640625,7.19921875ZM1313.6533203125,936.2236328125c0-4.22265625-1.439453125-7.58203125-4.3193359375-10.080078125-2.8798828125-2.4951171875-6.48046875-3.744140625-10.80078125-3.744140625-4.1279296875,0-7.609375,1.2021484375-10.439453125,3.6005859375-2.8330078125,2.400390625-4.5859375,5.8095703125-5.255859375,10.2236328125h30.8154296875Z" fill="#2d2d2d"/>
    </g>
    <g>
      <path d="M656.0859375,1258.775390625c4.3193359375-7.8232421875,10.3427734375-13.91796875,18.0712890625-18.2880859375,7.7265625-4.3671875,16.48828125-6.5517578125,26.2802734375-6.5517578125,11.9990234375,0,22.2705078125,3.16796875,30.81640625,9.50390625,8.54296875,6.3359375,14.255859375,14.9765625,17.1357421875,25.919921875h-27.072265625c-2.015625-4.22265625-4.873046875-7.4384765625-8.5673828125-9.6474609375-3.697265625-2.20703125-7.8984375-3.3125-12.6005859375-3.3125-7.5849609375,0-13.7294921875,2.6416015625-18.431640625,7.919921875-4.705078125,5.28125-7.056640625,12.3369140625-7.056640625,21.16796875,0,8.833984375,2.3515625,15.8896484375,7.056640625,21.1689453125,4.7021484375,5.2802734375,10.8466796875,7.919921875,18.431640625,7.919921875,4.7021484375,0,8.9033203125-1.1025390625,12.6005859375-3.3125,3.6943359375-2.20703125,6.5517578125-5.4228515625,8.5673828125-9.6474609375h27.072265625c-2.8798828125,10.943359375-8.5927734375,19.5615234375-17.1357421875,25.84765625-8.5458984375,6.2890625-18.8173828125,9.431640625-30.81640625,9.431640625-9.7919921875,0-18.5537109375-2.1826171875-26.2802734375-6.5517578125-7.728515625-4.3671875-13.751953125-10.4404296875-18.0712890625-18.2158203125-4.3203125-7.7763671875-6.48046875-16.654296875-6.48046875-26.640625,0-9.982421875,2.16015625-18.8857421875,6.48046875-26.7119140625Z" fill="#2d2d2d"/>
      <path d="M778.8447265625,1332.2880859375c-6.2880859375-3.359375-11.2314453125-8.1591796875-14.83203125-14.400390625-3.599609375-6.2392578125-5.3994140625-13.5361328125-5.3994140625-21.8876953125,0-8.255859375,1.822265625-15.52734375,5.4716796875-21.81640625,3.6474609375-6.2861328125,8.6396484375-11.1103515625,14.9765625-14.4716796875,6.3359375-3.359375,13.4384765625-5.0400390625,21.3115234375-5.0400390625,7.8701171875,0,14.9755859375,1.6806640625,21.3115234375,5.0400390625,6.3369140625,3.361328125,11.3271484375,8.185546875,14.9765625,14.4716796875,3.6474609375,6.2890625,5.4716796875,13.560546875,5.4716796875,21.81640625,0,8.2568359375-1.849609375,15.529296875-5.5439453125,21.8154296875-3.6962890625,6.2890625-8.736328125,11.11328125-15.1201171875,14.47265625-6.384765625,3.361328125-13.513671875,5.0400390625-21.3837890625,5.0400390625-7.873046875,0-14.953125-1.6787109375-21.240234375-5.0400390625ZM812.109375,1310.83203125c3.3115234375-3.4560546875,4.9677734375-8.3994140625,4.9677734375-14.83203125,0-6.4306640625-1.6083984375-11.3759765625-4.82421875-14.83203125-3.2177734375-3.4560546875-7.177734375-5.1845703125-11.8798828125-5.1845703125-4.8017578125,0-8.7841796875,1.7060546875-11.9521484375,5.1123046875-3.16796875,3.4091796875-4.751953125,8.376953125-4.751953125,14.904296875,0,6.4326171875,1.5595703125,11.3759765625,4.6796875,14.83203125,3.119140625,3.4560546875,7.03125,5.18359375,11.736328125,5.18359375,4.7021484375,0,8.7119140625-1.7275390625,12.0244140625-5.18359375Z" fill="#2d2d2d"/>
      <path d="M981.595703125,1264.0322265625c5.904296875,6.0478515625,8.85546875,14.44921875,8.85546875,25.19921875v46.9443359375h-24.4794921875v-43.6318359375c0-5.1845703125-1.3681640625-9.19140625-4.1044921875-12.0244140625-2.7353515625-2.830078125-6.50390625-4.248046875-11.3037109375-4.248046875-4.8017578125,0-8.5673828125,1.41796875-11.3037109375,4.248046875-2.736328125,2.8330078125-4.1044921875,6.83984375-4.1044921875,12.0244140625v43.6318359375h-24.4794921875v-43.6318359375c0-5.1845703125-1.3681640625-9.19140625-4.1044921875-12.0244140625-2.7353515625-2.830078125-6.5048828125-4.248046875-11.3037109375-4.248046875-4.8017578125,0-8.568359375,1.41796875-11.3037109375,4.248046875-2.736328125,2.8330078125-4.1044921875,6.83984375-4.1044921875,12.0244140625v43.6318359375h-24.6240234375v-80.3515625h24.6240234375v10.0791015625c2.4951171875-3.3583984375,5.759765625-6.0224609375,9.7919921875-7.9912109375,4.0322265625-1.966796875,8.5908203125-2.9521484375,13.6806640625-2.9521484375,6.0478515625,0,11.447265625,1.2958984375,16.19921875,3.8876953125s8.4716796875,6.2890625,11.16015625,11.087890625c2.783203125-4.4140625,6.5751953125-8.0146484375,11.3759765625-10.7998046875,4.7998046875-2.783203125,10.0302734375-4.17578125,15.6962890625-4.17578125,9.9833984375,0,17.927734375,3.0234375,23.83203125,9.072265625Z" fill="#2d2d2d"/>
      <path d="M1042.2900390625,1258.1279296875c4.22265625-2.3037109375,9.166015625-3.4560546875,14.83203125-3.4560546875,6.6240234375,0,12.6220703125,1.6806640625,18,5.0400390625,5.375,3.361328125,9.623046875,8.16015625,12.744140625,14.3994140625,3.1181640625,6.2421875,4.6796875,13.4892578125,4.6796875,21.744140625,0,8.2578125-1.5615234375,15.5302734375-4.6796875,21.81640625-3.12109375,6.2890625-7.369140625,11.1376953125-12.744140625,14.5439453125-5.3779296875,3.4091796875-11.3759765625,5.1123046875-18,5.1123046875-5.5693359375,0-10.490234375-1.15234375-14.7607421875-3.4560546875-4.2724609375-2.3046875-7.609375-5.2783203125-10.0078125-8.9287109375v49.5361328125h-24.6240234375v-118.6552734375h24.6240234375v11.3759765625c2.3984375-3.744140625,5.7109375-6.7685546875,9.9365234375-9.072265625ZM1062.3779296875,1281.3837890625c-3.4091796875-3.5029296875-7.609375-5.255859375-12.6005859375-5.255859375-4.8955078125,0-9.048828125,1.77734375-12.4560546875,5.328125-3.408203125,3.552734375-5.111328125,8.4013671875-5.111328125,14.5439453125,0,6.14453125,1.703125,10.9931640625,5.111328125,14.5439453125,3.4072265625,3.552734375,7.560546875,5.328125,12.4560546875,5.328125,4.896484375,0,9.072265625-1.7998046875,12.5283203125-5.400390625,3.4560546875-3.599609375,5.1845703125-8.470703125,5.1845703125-14.6162109375,0-6.142578125-1.7060546875-10.9658203125-5.1123046875-14.4716796875Z" fill="#2d2d2d"/>
      <path d="M1105.287109375,1274.111328125c3.1181640625-6.2392578125,7.3662109375-11.0380859375,12.744140625-14.3994140625,5.375-3.359375,11.3759765625-5.0400390625,18-5.0400390625,5.6630859375,0,10.630859375,1.15234375,14.904296875,3.4560546875,4.2705078125,2.3037109375,7.5595703125,5.328125,9.86328125,9.072265625v-11.3759765625h24.6240234375v80.3515625h-24.6240234375v-11.3759765625c-2.400390625,3.744140625-5.7373046875,6.767578125-10.0078125,9.072265625-4.2724609375,2.3037109375-9.240234375,3.4560546875-14.904296875,3.4560546875-6.529296875,0-12.48046875-1.703125-17.85546875-5.1123046875-5.3779296875-3.40625-9.6259765625-8.2548828125-12.744140625-14.5439453125-3.12109375-6.2861328125-4.6796875-13.55859375-4.6796875-21.81640625,0-8.2548828125,1.55859375-15.501953125,4.6796875-21.744140625ZM1155.6875,1281.4560546875c-3.4091796875-3.55078125-7.560546875-5.328125-12.4560546875-5.328125-4.896484375,0-9.0498046875,1.7529296875-12.4560546875,5.255859375-3.4091796875,3.505859375-5.1123046875,8.3291015625-5.1123046875,14.4716796875,0,6.1455078125,1.703125,11.0166015625,5.1123046875,14.6162109375,3.40625,3.6005859375,7.5595703125,5.400390625,12.4560546875,5.400390625,4.8955078125,0,9.046875-1.775390625,12.4560546875-5.328125,3.40625-3.55078125,5.111328125-8.3994140625,5.111328125-14.5439453125,0-6.142578125-1.705078125-10.9912109375-5.111328125-14.5439453125Z" fill="#2d2d2d"/>
      <path d="M1238.7001953125,1258.775390625c4.3203125-2.5419921875,9.1201171875-3.8154296875,14.400390625-3.8154296875v26.0634765625h-6.767578125c-6.1455078125,0-10.7529296875,1.3212890625-13.82421875,3.9599609375-3.0732421875,2.6416015625-4.6083984375,7.2724609375-4.6083984375,13.896484375v37.2958984375h-24.6240234375v-80.3515625h24.6240234375v13.3916015625c2.8798828125-4.4140625,6.48046875-7.8955078125,10.7998046875-10.4404296875Z" fill="#2d2d2d"/>
      <path d="M1309.69140625,1315.2958984375v20.8798828125h-12.5283203125c-8.927734375,0-15.888671875-2.1826171875-20.8798828125-6.5517578125-4.9921875-4.3671875-7.4873046875-11.4951171875-7.4873046875-21.3837890625v-31.96875h-9.7919921875v-20.447265625h9.7919921875v-19.583984375h24.6240234375v19.583984375h16.1279296875v20.447265625h-16.1279296875v32.255859375c0,2.4013671875.5751953125,4.12890625,1.7275390625,5.1845703125,1.15234375,1.0576171875,3.0712890625,1.583984375,5.759765625,1.583984375h8.7841796875Z" fill="#2d2d2d"/>
      <path d="M1398.6826171875,1301.9033203125h-55.728515625c.3828125,4.9931640625,1.9912109375,8.8095703125,4.82421875,11.4482421875,2.830078125,2.6416015625,6.3115234375,3.9599609375,10.4404296875,3.9599609375,6.142578125,0,10.4150390625-2.591796875,12.8154296875-7.775390625h26.2080078125c-1.345703125,5.2802734375-3.7685546875,10.0322265625-7.271484375,14.255859375-3.505859375,4.2255859375-7.8974609375,7.537109375-13.1767578125,9.935546875-5.2802734375,2.4013671875-11.1845703125,3.6005859375-17.7119140625,3.6005859375-7.8720703125,0-14.880859375-1.6787109375-21.0234375-5.0400390625-6.14453125-3.359375-10.9443359375-8.1591796875-14.400390625-14.400390625-3.4560546875-6.2392578125-5.18359375-13.5361328125-5.18359375-21.8876953125,0-8.3525390625,1.703125-15.646484375,5.111328125-21.888671875,3.4072265625-6.2392578125,8.18359375-11.0380859375,14.328125-14.3994140625,6.142578125-3.359375,13.19921875-5.0400390625,21.16796875-5.0400390625,7.7763671875,0,14.6884765625,1.6337890625,20.736328125,4.8955078125,6.0478515625,3.265625,10.775390625,7.919921875,14.18359375,13.96875,3.4072265625,6.0478515625,5.1123046875,13.103515625,5.1123046875,21.16796875,0,2.3037109375-.1435546875,4.7041015625-.431640625,7.19921875ZM1373.9140625,1288.2236328125c0-4.22265625-1.439453125-7.58203125-4.3193359375-10.080078125-2.8798828125-2.4951171875-6.48046875-3.744140625-10.80078125-3.744140625-4.1279296875,0-7.609375,1.2021484375-10.439453125,3.6005859375-2.8330078125,2.400390625-4.5859375,5.8095703125-5.255859375,10.2236328125h30.8154296875Z" fill="#2d2d2d"/>
    </g>
    <g id="hover-eye">
      <circle cx="1498.136196266335901" cy="240.000000000004547" r="95.999999999997726" fill="url(#New_Gradient_Swatch_1)"/>
      <circle cx="1498.136196266334991" cy="239.999999999999091" r="56.000000000018922" fill="#2d2d2d"/>
    </g>
  </g>
</svg>