<?xml version="1.0" encoding="UTF-8"?>
<svg xmlns="http://www.w3.org/2000/svg" xmlns:xlink="http://www.w3.org/1999/xlink" viewBox="0 0 2048 1536">
  <defs>
    <linearGradient id="background-gradient" x1="0" y1="0" x2="2048" y2="0" gradientUnits="userSpaceOnUse" gradientTransform="rotate(15 1024 768)">
      <stop offset="0" stop-color="#ffffff"/>
      <stop offset="1" stop-color="#ffffff"/>
    </linearGradient>
    <linearGradient id="linear-gradient" x1="730.514202204108187" y1="743.634389644485054" x2="1317.485797795900908" y2="586.355824625656624" gradientUnits="userSpaceOnUse">
      <stop offset=".1" stop-color="#1a8deb"/>
      <stop offset=".3" stop-color="#00e6ff">
        <animate attributeName="offset" values=".3;.4;.3" dur="6s" repeatCount="indefinite"/>
      </stop>
      <stop offset=".5" stop-color="#c0ff1c"/>
      <stop offset=".7" stop-color="#fffc1c">
        <animate attributeName="offset" values=".7;.6;.7" dur="6s" repeatCount="indefinite"/>
      </stop>
      <stop offset=".9" stop-color="#ff9a1c"/>
    </linearGradient>
    <linearGradient id="New_Gradient_Swatch_1" data-name="New Gradient Swatch 1" x1="0.5" y1="1" x2="0.5" y2="0" gradientUnits="objectBoundingBox">
      <stop offset="0" stop-color="#fff" stop-opacity="0"/>
      <stop offset="1" stop-color="#fff"/>
    </linearGradient>
    <linearGradient id="New_Gradient_Swatch_3" data-name="New Gradient Swatch 3" x1="582.376903632658468" y1="884.258429057372268" x2="1465.623096367345397" y2="647.59332499624918" gradientUnits="userSpaceOnUse">
      <stop offset=".1" stop-color="#1a8deb"/>
      <stop offset=".3" stop-color="#00e6ff"/>
      <stop offset=".5" stop-color="#c0ff1c"/>
      <stop offset=".7" stop-color="#fffc1c"/>
      <stop offset=".9" stop-color="#ff9a1c"/>
    </linearGradient>
    <linearGradient id="New_Gradient_Swatch_3-2" data-name="New Gradient Swatch 3" x1="918.379681749587689" y1="742.030370635624422" x2="1129.620345523139804" y2="685.428605368886792" xlink:href="#New_Gradient_Swatch_3"/>
    <linearGradient id="New_Gradient_Swatch_3-3" data-name="New Gradient Swatch 3" x1="465.968476767158791" y1="915.449973028160457" x2="1582.031523232841664" y2="616.401781025462242" xlink:href="#New_Gradient_Swatch_3"/>
    <linearGradient id="New_Gradient_Swatch_3-4" data-name="New Gradient Swatch 3" x1="1049.16127642162246" y1="441.030802252698777" x2="1480.848399168443393" y2="325.360586329773184" gradientTransform="translate(48.092787387631688 671.827807918240978)" xlink:href="#New_Gradient_Swatch_3"/>
    <linearGradient id="New_Gradient_Swatch_3-5" data-name="New Gradient Swatch 3" x1="992.874791168056618" y1="61.330931407017488" x2="1029.283130368383127" y2="197.208703121837829" gradientTransform="translate(1183.827807918240069 2066.102462977698451) rotate(-90)" xlink:href="#New_Gradient_Swatch_3"/>
    <linearGradient id="New_Gradient_Swatch_3-6" data-name="New Gradient Swatch 3" x1="1000.407636146237564" y1="89.443891591079591" x2="1021.75028539022685" y2="169.095742937769273" gradientTransform="translate(1183.827807918240069 2066.102462977698451) rotate(-90)" xlink:href="#New_Gradient_Swatch_3"/>
    <linearGradient id="New_Gradient_Swatch_3-7" data-name="New Gradient Swatch 3" x1="1266.539550194085678" y1="-530.312148321090717" x2="1302.947889394413096" y2="-394.434376606266824" gradientTransform="translate(1183.827807918240069 2066.102462977698451) rotate(-90)" xlink:href="#New_Gradient_Swatch_3"/>
    <linearGradient id="New_Gradient_Swatch_3-8" data-name="New Gradient Swatch 3" x1="1274.072395172259348" y1="-502.199188137026795" x2="1295.415044416248293" y2="-422.547336790338875" gradientTransform="translate(1183.827807918240069 2066.102462977698451) rotate(-90)" xlink:href="#New_Gradient_Swatch_3"/>
    <linearGradient id="New_Gradient_Swatch_3-9" data-name="New Gradient Swatch 3" x1="1266.533819561420387" y1="-669.94851195746196" x2="1302.942158761746896" y2="-534.070740242641591" gradientTransform="translate(1183.827807918240069 2066.102462977698451) rotate(-90)" xlink:href="#New_Gradient_Swatch_3"/>
    <linearGradient id="New_Gradient_Swatch_3-10" data-name="New Gradient Swatch 3" x1="1274.06666453959042" y1="-641.835551773399857" x2="1295.409313783579364" y2="-562.183700426711994" gradientTransform="translate(1183.827807918240069 2066.102462977698451) rotate(-90)" xlink:href="#New_Gradient_Swatch_3"/>
    <linearGradient id="New_Gradient_Swatch_3-11" data-name="New Gradient Swatch 3" x1="1499.266822290835989" y1="74.778788042518499" x2="1535.675161491162044" y2="210.656559757337078" gradientTransform="translate(1183.827807918240069 2066.102462977698451) rotate(-90)" xlink:href="#New_Gradient_Swatch_3"/>
    <linearGradient id="New_Gradient_Swatch_3-12" data-name="New Gradient Swatch 3" x1="1506.799667269007841" y1="102.891748226582422" x2="1528.142316512996786" y2="182.543599573270342" gradientTransform="translate(1183.827807918240069 2066.102462977698451) rotate(-90)" xlink:href="#New_Gradient_Swatch_3"/>
    <linearGradient id="New_Gradient_Swatch_3-13" data-name="New Gradient Swatch 3" x1="1499.266822290835989" y1="214.415151678889742" x2="1535.675161491162498" y2="350.292923393710112" gradientTransform="translate(1183.827807918240069 2066.102462977698451) rotate(-90)" xlink:href="#New_Gradient_Swatch_3"/>
    <linearGradient id="New_Gradient_Swatch_3-14" data-name="New Gradient Swatch 3" x1="1506.799667269006022" y1="242.528111862951846" x2="1528.142316512995421" y2="322.179963209641528" gradientTransform="translate(1183.827807918240069 2066.102462977698451) rotate(-90)" xlink:href="#New_Gradient_Swatch_3"/>
    <linearGradient id="New_Gradient_Swatch_3-15" data-name="New Gradient Swatch 3" x1="663.752116302805007" y1="761.455142870687268" x2="1384.247885226360722" y2="568.398883437579798" xlink:href="#New_Gradient_Swatch_3"/>
    <linearGradient id="New_Gradient_Swatch_3-16" data-name="New Gradient Swatch 3" x1="727.787869218063861" y1="744.294162185189634" x2="1320.219367146625927" y2="585.552620744471142" xlink:href="#New_Gradient_Swatch_3"/>
    <linearGradient id="New_Gradient_Swatch_3-17" data-name="New Gradient Swatch 3" x1="685.394104399067146" y1="755.658856137097246" x2="1362.598661084939067" y2="574.202442062441492" xlink:href="#New_Gradient_Swatch_3"/>
    <linearGradient id="New_Gradient_Swatch_3-18" data-name="New Gradient Swatch 3" x1="706.658810314456787" y1="749.958326090551054" x2="1341.341188979223261" y2="579.895695277062941" xlink:href="#New_Gradient_Swatch_3"/>
    <linearGradient id="New_Gradient_Swatch_3-19" data-name="New Gradient Swatch 3" x1="723.710569729013514" y1="745.389334745399537" x2="1324.289435035720544" y2="584.46471279526736" xlink:href="#New_Gradient_Swatch_3"/>
  </defs>
  <g id="background">
    <rect x="0" y="0" width="2048" height="1536" fill="url(#background-gradient)"/>
  </g>
  <g id="safe-area">
    <rect x="512" y="253.925877026809758" width="1024" height="1024" rx="222.064000000000306" ry="222.064000000000306" fill="#fff"/>
  </g>
  <g id="icon-logotype-vertical">
    <g id="icon-2" data-name="icon">
      <path id="gradient" d="M861.090909532278602,781.358743183440311h129.405490569040921c29.37234262668062,0,51.401963584419718-26.871817619670765,45.641573268520006-55.673769199171147l-24.275946739679057-121.379733698409837c-5.760390315900622-28.801951579498564,16.269230641839385-55.673769199158414,45.641573268520006-55.673769199158414h129.405490569050016" fill="none" stroke="url(#linear-gradient)" stroke-linecap="round" stroke-linejoin="round" stroke-width="232.727265520011997"/>
      <g id="contour">
        <path d="M1186.909057617189319,455.541015625c51.33056640625,0,93.090942382810681,41.76025390625,93.090942382810681,93.09033203125,0,51.33056640625-41.760375976560681,93.0908203125-93.090942382810681,93.0908203125h-44.241455078128638c-6.972412109371362,0-13.577392578121362,3.12646484375-17.997680664060681,8.5185546875-4.420532226560681,5.3916015625-6.190551757810681,12.4814453125-4.822998046869543,19.31884765625l7.573852539058862,37.86865234375c8.237060546871362,41.18310546875-2.310180664058862,83.431640625-28.93701171875,115.91259765625-26.627319335939319,32.48046875-65.987182617189319,51.10888671875-107.987243652345569,51.10888671875h-129.4056396484375c-51.33050537109375,0-93.09088134765625-41.76025390625-93.09088134765625-93.0908203125s41.7603759765625-93.0908203125,93.09088134765625-93.0908203125h44.24072265625c6.972412109375,0,13.577392578125-3.12646484375,17.99774169921875-8.51806640625,4.42041015625-5.39208984375,6.1904296875-12.48193359375,4.82305908203125-19.31884765625l-7.57354736328125-37.86865234375c-8.23687744140625-41.1845703125,2.3106689453125-83.43359375,28.93798828125-115.9130859375,26.62738037109375-32.48046875,65.986999511715112-51.1083984375,107.986694335935681-51.1083984375h129.405517578128638M1186.909057617189319,432.26806640625h-129.405517578128638c-48.999267578120453,0-94.919067382810681,21.73291015625-125.984436035154431,59.62646484375-31.06524658203125,37.89306640625-43.37060546875,87.18359375-33.760986328125,135.23193359375l7.573486328125,37.86865234375h-44.24072265625c-64.265625,0-116.3636474609375,52.09814453125-116.3636474609375,116.36376953125s52.0980224609375,116.36376953125,116.3636474609375,116.36376953125h129.4056396484375c48.999938964845569,0,94.919616699216931-21.73291015625,125.985046386716931-59.62744140625,31.064575195319776-37.89404296875,43.3701171875-87.18359375,33.759887695319776-135.2314453125l-7.573852539069776-37.86865234375h44.241455078128638c64.265625,0,116.363647460941138-52.09814453125,116.363647460941138-116.36376953125s-52.098022460941138-116.36328125-116.363647460941138-116.36328125h0Z" fill="#333"/>
      </g>
      <g id="rigth-eye">
        <circle cx="1186.909090467727765" cy="548.631471086700913" r="69.818181818184257" fill="url(#New_Gradient_Swatch_1)"/>
        <circle cx="1186.909090467719579" cy="548.631471086699094" r="40.727272727286646" fill="#333"/>
      </g>
      <g id="left-eye">
        <circle cx="861.090909532279511" cy="781.358743183440311" r="69.81818181817971" fill="url(#New_Gradient_Swatch_1)"/>
        <circle cx="861.09427315856442" cy="781.362106730386586" r="40.732077482614564" fill="#333"/>
      </g>
    </g>
    <g id="logotype-2" data-name="logotype">
      <path id="a-last-child" d="M1396.178163058729297,975.152912849109271l-37.779257774350299.000000177340553c-2.761423750639551.0000000129603-4.999999991589902,2.238576276631647-4.99999997652958,5.000000027259375l.000000065329914,11.980792025031406c-6.330968565530384-9.785019597391511-21.010188740030571-22.450242147009703-47.203855033810214-22.450242147009703-42.597319010020328,0-80.302117027769782,32.812201954378907-80.302117027769782,85.196100297389421,0,45.765302754020013,29.645964143869605,85.483978547408697,80.302117027769782,85.483978547408697,18.710235123459825,0,38.569618456370335-7.194115347068873,47.203855033810214-22.73788365504879l-.000000065780114,12.269853959360262c-.000000014800207,2.76142374328083,2.238576214869681,5.000000003690729,4.999999958149601,5.000000026810085l37.779257808369948.000000316238584c2.761423765929976.000000023112079,5.000000042470674-2.238576235187793,5.000000041850399-5.000000001118678l-.000000033570359-149.742599574779888c-.000000000619366-2.761423757880038-2.238576265589472-5.000000011839802-5.000000023469511-4.999999998881322ZM1354.279448214248987,1055.023502203230237c0,22.502234617380964-18.241665382630345,40.743899999999485-40.743900000009489,40.743899999999485-22.50223461737005,0-40.743900000000394-18.241665382618521-40.743900000000394-40.743899999999485,0-22.50223461737005,18.241665382630345-40.743899999999485,40.743900000000394-40.743899999999485,22.502234617379145,0,40.743900000009489,18.241665382629435,40.743900000009489,40.743899999999485Z" fill="#2d2d2d"/>
      <g id="i">
        <circle cx="1175.570023963891572" cy="927.379161717737588" r="23.886918814462547" fill="#2d2d2d"/>
        <path d="M1156.680412762969354,975.152944708770519l37.77922236223003-.000000046791683c2.761423751359871-.0000000034197,5.000000005889888,2.238576248091704,5.000000006190021,4.999999999450665l.000000016420017,149.742653428329504c.000000000300133,2.76142375262134-2.238576255710541,5.000000005140464-5.000000008330062,5.000000000542059l-37.779222387610389-.000000062900654c-2.761423746020228-.000000004591129-4.999999991840014-2.238576254268992-4.999999991679942-5.000000000291038l.000000008970346-149.742653318638986c.000000000159162-2.761423746620494,2.238576247189485-4.999999996280167,4.999999993809979-4.999999999699867Z" fill="#2d2d2d"/>
      </g>
      <path id="v" d="M1076.012738469279611,1134.895598320439603l-38.731888201120455-.000000374819138c-2.11075544050982-.000000020419975-3.994155048540051-1.325491380970561-4.706585072240159-3.312381410889429l-53.692534798119596-149.742653346580482c-1.16794207599014-3.257263715920999,1.24625920040944-6.687618602480143,4.706585139950221-6.687618589110571l36.502679113949853.000000141069904c3.50785285279926.000000013560566,6.606534495349479,2.285218010269091,7.642892077469696,5.636485621011161l29.053776871320224,93.951144931788804,29.053776770520017-93.951144884449604c1.036357580199365-3.35126761446918,4.135039225039691-5.636485614459161,7.642892080809361-5.636485627410366l36.490628008420572-.000000134779839c3.463700977899862-.000000012791133,5.878167414190102,3.436551077840704,4.703887545590078,6.695123043369676l-53.962221961040086,149.74265367416956c-.714606642750368,1.983000164400437-2.596056390179911,3.304876977032109-4.703887575509725,3.304876956630324Z" fill="#2d2d2d"/>
      <path id="a" d="M959.946261984689045,975.152912858789932l-37.779257669189974.00000021931919c-2.761423737029872.000000016039849-4.999999969850251,2.238576260951959-4.999999970969839,4.999999997980922l-.000000004840331,11.98079200265056c-6.330968565539479-9.785019597391511-21.010070368769448-22.450242147009703-47.20373666255-22.450242147009703-42.597437381289637,0-80.30235377029021,32.812201954378907-80.30235377029021,85.196100297389421,0,45.765302754020013,29.646082515130729,85.483978547408697,80.30235377029021,85.483978547408697,18.710235123460734,0,38.56961845638034-7.194115347068873,47.20373666255-22.73788365504879l.000000004870344,12.26985403846993c.000000001089575,2.761423735661083,2.238576231769912,4.999999980031134,4.999999967430085,4.999999998010026l37.779257761500048.000000246091076c2.76142376307962.000000017978891,5.00000003426976-2.238576240011753,5.000000032569915-5.000000003092282l-.000000092350092-149.74259954525769c-.000000001699846-2.761423759282479-2.238576269740406-5.000000012951205-5.000000029020157-4.999999996911356ZM917.258543532389012,1055.024271463011246c0,22.502234617379145-18.241665382630345,40.743899999997666-40.743900000000394,40.743899999997666-22.502234617379145,0-40.743899999999485-18.241665382618521-40.743899999999485-40.743899999997666,0-22.502234617371869,18.24166538262034-40.743900000001304,40.743899999999485-40.743900000001304,22.50223461737005,0,40.743900000000394,18.241665382629435,40.743900000000394,40.743900000001304Z" fill="#2d2d2d"/>
      <path id="s" d="M730.809608894528537,1020.053556566061161c-3.843041670209459.0000136676681-7.345372966449759-2.199566008810507-9.004631201979464-5.66595193466128-1.561262585550139-3.26166146847936-5.142237648030459-6.422378358589413-13.675538402299935-6.422378358589413-10.074360729900036,0-13.52838002505996,6.330976363040463-13.52838002505996,10.64807724684033,0,7.195719282230129,11.802197093449649,12.089866588230507,24.465832220839729,15.831574477939284,27.055106618089667,7.48341577931933,55.838049599739861,15.542224552758853,55.838049599739861,50.08068505097981,0,35.115506920390544-29.646034447409875,55.837921848069527-65.04766543201913,55.837921848069527-22.988424863180626,0-57.164811023651055-9.886039642329706-64.183125844290771-46.979343152879665-.586318810419471-3.09882103388918,1.7525590285004-5.979932679629201,4.906360155320726-5.979928580940395l35.521671672209777.000046164110245c3.228361718089218.000004195590009,6.236047134450018,1.862932999840268,7.472234003189442,4.845241067159805,4.076183303730431,9.833816114700312,15.094676260940105,9.833816114700312,16.858254324140034,9.833816114700312,8.05882721117996,0,16.69304873289002-4.604797380809032,16.69304873289002-12.375909657228476,0-10.937427172011667-11.80054366153945-12.377563085312431-42.309669574729924-24.17807974839161-20.724115770489334-6.620326288219076-37.994212245899689-20.14702193362973-37.994212245899689-41.734179780509294,0-33.099978013051441,28.782942981740234-54.111742865859924,61.882996724169971-54.111742865859924,19.980001288990024,0,53.753161574260048,7.546900857609216,60.486350907210181,44.419867045058709.564301658089789,3.090285291160399-1.77071617665024,5.950154858781389-4.912101148600414,5.950166031019762l-33.469474464830455.000119033182273Z" fill="#2d2d2d"/>
    </g>
  </g>
  <g id="safe-area-grid">
    <animate attributeName="opacity" values="0;0;0.5;1;0.8;0.5;0" dur="6s" repeatCount="indefinite"/>
    <rect x="651.636363636363967" y="391.488212277090497" width="744.727272727275704" height="748.875329499438521" fill="none" stroke="url(#New_Gradient_Swatch_3)" stroke-miterlimit="10" stroke-width="1.003670923417807"/>
    <line x1="1024.000013636364201" y1="292.563377731659784" x2="1024.000013636364201" y2="1134.895598272847565" fill="none" stroke="url(#New_Gradient_Swatch_3-2)" stroke-miterlimit="10" stroke-width=".704822814224583"/>
    <rect x="512" y="253.925877026809758" width="1024" height="1024" rx="222.064000000000306" ry="222.064000000000306" fill="none" stroke="url(#New_Gradient_Swatch_3-3)" stroke-miterlimit="10"/>
    <g isolation="isolate">
      <circle cx="1313.097625182662341" cy="1055.023502209477556" r="222.902374817332202" fill="none" stroke="url(#New_Gradient_Swatch_3-4)" stroke-miterlimit="10"/>
    </g>
    <g isolation="isolate">
      <circle cx="1313.097625182667798" cy="1055.023502209480284" r="69.818181818181529" fill="none" stroke="url(#New_Gradient_Swatch_3-5)" stroke-miterlimit="10"/>
      <circle cx="1313.09762518266507" cy="1055.023502209471189" r="40.728713895993806" fill="none" stroke="url(#New_Gradient_Swatch_3-6)" stroke-miterlimit="10"/>
    </g>
    <g isolation="isolate">
      <circle cx="721.454545454561867" cy="781.358743183449405" r="69.818181818182211" fill="none" stroke="url(#New_Gradient_Swatch_3-7)" stroke-miterlimit="10"/>
      <circle cx="721.454545454558684" cy="781.358743183447586" r="40.728713895997117" fill="none" stroke="url(#New_Gradient_Swatch_3-8)" stroke-miterlimit="10"/>
    </g>
    <g isolation="isolate">
      <circle cx="581.818181818188805" cy="781.364473816118334" r="69.818181818182211" fill="none" stroke="url(#New_Gradient_Swatch_3-9)" stroke-miterlimit="10"/>
      <circle cx="581.818181818185622" cy="781.364473816116515" r="40.728713895997117" fill="none" stroke="url(#New_Gradient_Swatch_3-10)" stroke-miterlimit="10"/>
    </g>
    <g isolation="isolate">
      <circle cx="1326.545481818170629" cy="548.631471086700913" r="69.818181818181529" fill="none" stroke="url(#New_Gradient_Swatch_3-11)" stroke-miterlimit="10"/>
      <circle cx="1326.545481818166991" cy="548.631471086699094" r="40.728713895997487" fill="none" stroke="url(#New_Gradient_Swatch_3-12)" stroke-miterlimit="10"/>
    </g>
    <g isolation="isolate">
      <circle cx="1466.181845454541872" cy="548.631471086700913" r="69.818181818181529" fill="none" stroke="url(#New_Gradient_Swatch_3-13)" stroke-miterlimit="10"/>
      <circle cx="1466.181845454538234" cy="548.631471086699094" r="40.728713895997487" fill="none" stroke="url(#New_Gradient_Swatch_3-14)" stroke-miterlimit="10"/>
    </g>
  </g>
  <g id="icon-grid">
    <animate attributeName="opacity" values="0;0;0.5;1;0.8;0.5;0" dur="6s" repeatCount="indefinite"/>
    <g>
      <path id="watch" d="M1024,292.563377731659784h0c205.650745738639671,0,372.363636363639671,166.712868430398885,372.363636363639671,372.36363636364149h0c0,205.650745738639671-166.712890625,372.363636363628757-372.363636363639671,372.363636363628757h0c-205.650745738636033,0-372.363636363636033-166.712890624989086-372.363636363636033-372.363636363628757h0c0-205.650767933242605,166.712890625-372.36363636364149,372.363636363636033-372.36363636364149Z" fill="none" stroke="url(#New_Gradient_Swatch_3-15)" stroke-miterlimit="10"/>
      <rect x="775.759987571022975" y="354.621549784220406" width="496.48726029829686" height="620.603670987209625" rx="62.058172052549601" ry="62.058172052549601" fill="none" isolation="isolate" stroke="url(#New_Gradient_Swatch_3-16)" stroke-miterlimit="10"/>
      <rect x="713.694557883522975" y="416.687023860918998" width="620.603648792616696" height="496.487238103691197" rx="62.058172052560614" ry="62.058172052560614" fill="none" isolation="isolate" stroke="url(#New_Gradient_Swatch_3-17)" stroke-miterlimit="10"/>
      <rect x="744.727272727272975" y="385.654286822569702" width="558.545454545456778" height="558.545454545450411" rx="62.370916193180875" ry="62.370916193180875" fill="none" isolation="isolate" stroke="url(#New_Gradient_Swatch_3-18)" stroke-miterlimit="10"/>
      <circle cx="1023.999999999999545" cy="664.927019643950189" r="310.305483731355025" fill="none" isolation="isolate" stroke="url(#New_Gradient_Swatch_3-19)" stroke-miterlimit="10"/>
    </g>
  </g>
</svg>