<?xml version="1.0" encoding="UTF-8"?>
<svg xmlns="http://www.w3.org/2000/svg" xmlns:xlink="http://www.w3.org/1999/xlink" viewBox="0 0 2048 1536">
  <defs>
    <linearGradient id="linear-gradient" x1="484.255927822085141" y1="831.252296829423358" x2="956.371987770744681" y2="704.74917983241653" gradientUnits="userSpaceOnUse">
      <stop offset=".1" stop-color="#1a8deb"/>
      <stop offset=".3" stop-color="#00e6ff">
        <animate attributeName="offset" values=".3;.4;.3" dur="6s" repeatCount="indefinite"/>
      </stop>
      <stop offset=".5" stop-color="#c0ff1c"/>
      <stop offset=".7" stop-color="#fffc1c">
        <animate attributeName="offset" values=".7;.6;.7" dur="6s" repeatCount="indefinite"/>
      </stop>
      <stop offset=".9" stop-color="#ff9a1c"/>
    </linearGradient>
    <linearGradient id="New_Gradient_Swatch_1" data-name="New Gradient Swatch 1" x1="0.5" y1="1" x2="0.5" y2="0" gradientUnits="objectBoundingBox">
      <stop offset="0" stop-color="#fff" stop-opacity="0"/>
      <stop offset="1" stop-color="#fff"/>
    </linearGradient>
    <linearGradient id="New_Gradient_Swatch_3" data-name="New Gradient Swatch 3" x1="890.306869724631724" y1="539.294786846037823" x2="999.57324549708278" y2="510.016949697933967" gradientUnits="userSpaceOnUse">
      <stop offset=".1" stop-color="#1a8deb"/>
      <stop offset=".3" stop-color="#00e6ff">
        <animate attributeName="offset" values=".3;.4;.3" dur="6s" repeatCount="indefinite"/>
      </stop>
      <stop offset=".5" stop-color="#c0ff1c"/>
      <stop offset=".7" stop-color="#fffc1c">
        <animate attributeName="offset" values=".7;.6;.7" dur="6s" repeatCount="indefinite"/>
      </stop>
      <stop offset=".9" stop-color="#ff9a1c"/>
    </linearGradient>
    <linearGradient id="New_Gradient_Swatch_3-2" data-name="New Gradient Swatch 3" x1="912.918278858292979" y1="533.239508337610459" x2="976.967247262377214" y2="516.077638977689617" xlink:href="#New_Gradient_Swatch_3"/>
    <linearGradient id="New_Gradient_Swatch_3-3" data-name="New Gradient Swatch 3" x1="483.798670960910385" y1="912.663559768134292" x2="1563.576137113840332" y2="623.338059707132743" xlink:href="#New_Gradient_Swatch_3"/>
    <linearGradient id="New_Gradient_Swatch_3-4" data-name="New Gradient Swatch 3" x1="530.959627117212221" y1="900.026485754990063" x2="1516.415180957539178" y2="635.97446592670974" xlink:href="#New_Gradient_Swatch_3"/>
    <linearGradient id="New_Gradient_Swatch_3-5" data-name="New Gradient Swatch 3" x1="803.839606485208606" y1="413.701270283005215" x2="844.160137495301115" y2="564.17954060082684" gradientTransform="translate(455.999652168939065 1592.000347831100953) rotate(-90)" xlink:href="#New_Gradient_Swatch_3"/>
    <linearGradient id="New_Gradient_Swatch_3-6" data-name="New Gradient Swatch 3" x1="1157.693130275369185" y1="1025.984669777330055" x2="1048.426754502919948" y2="996.706832629226597" gradientTransform="translate(2048) rotate(-180) scale(1 -1)" xlink:href="#New_Gradient_Swatch_3"/>
    <linearGradient id="New_Gradient_Swatch_3-7" data-name="New Gradient Swatch 3" x1="1135.092750820092988" y1="1019.93089681631136" x2="1071.032544857150242" y2="1002.766016361569427" gradientTransform="translate(2048) rotate(-180) scale(1 -1)" xlink:href="#New_Gradient_Swatch_3"/>
    <linearGradient id="New_Gradient_Swatch_3-8" data-name="New Gradient Swatch 3" x1="1513.348415843751354" y1="876.233864907419047" x2="1404.082040071302117" y2="846.956027759315589" gradientTransform="translate(2048) rotate(-180) scale(1 -1)" xlink:href="#New_Gradient_Swatch_3"/>
    <linearGradient id="New_Gradient_Swatch_3-9" data-name="New Gradient Swatch 3" x1="1490.748036388476976" y1="870.180091946396715" x2="1426.687830425536049" y2="853.01521149165535" gradientTransform="translate(2048) rotate(-180) scale(1 -1)" xlink:href="#New_Gradient_Swatch_3"/>
    <linearGradient id="New_Gradient_Swatch_3-10" data-name="New Gradient Swatch 3" x1="494.792418289309353" y1="846.881965760780076" x2="385.526042516860002" y2="817.604128612676618" gradientTransform="translate(2048) rotate(-180) scale(1 -1)" xlink:href="#New_Gradient_Swatch_3"/>
    <linearGradient id="New_Gradient_Swatch_3-11" data-name="New Gradient Swatch 3" x1="472.192038834034975" y1="840.828192799763201" x2="408.131832871094105" y2="823.663312345021836" gradientTransform="translate(2048) rotate(-180) scale(1 -1)" xlink:href="#New_Gradient_Swatch_3"/>
    <linearGradient id="New_Gradient_Swatch_3-12" data-name="New Gradient Swatch 3" x1="622.034390023658489" y1="846.881965760780076" x2="512.768014251210957" y2="817.604128612677187" gradientTransform="translate(2048) rotate(-180) scale(1 -1)" xlink:href="#New_Gradient_Swatch_3"/>
    <linearGradient id="New_Gradient_Swatch_3-13" data-name="New Gradient Swatch 3" x1="599.434010568378653" y1="840.828192799763201" x2="535.373804605437726" y2="823.663312345021836" gradientTransform="translate(2048) rotate(-180) scale(1 -1)" xlink:href="#New_Gradient_Swatch_3"/>
    <linearGradient id="New_Gradient_Swatch_3-14" data-name="New Gradient Swatch 3" x1="268.36935726331285" y1="915.002545187315263" x2="-130.270387603101938" y2="808.187347479410505" gradientTransform="translate(658.331551423099882) rotate(-180) scale(1 -1)" xlink:href="#New_Gradient_Swatch_3"/>
    <linearGradient id="New_Gradient_Swatch_3-15" data-name="New Gradient Swatch 3" x1="185.500181629656254" y1="892.805078293196857" x2="-47.381371739036979" y2="830.404654135950068" gradientTransform="translate(658.331551423099882) rotate(-180) scale(1 -1)" xlink:href="#New_Gradient_Swatch_3"/>
    <linearGradient id="New_Gradient_Swatch_3-16" data-name="New Gradient Swatch 3" x1="195.004008706750938" y1="194.102211506789899" x2="1451.045674045120677" y2="530.657561394048571" gradientTransform="translate(200.662568386211206 1130.383405040800426) scale(1 -1)" xlink:href="#New_Gradient_Swatch_3"/>
  </defs>
  <g id="bg">
    <rect width="2048" height="1536" fill="#fff"/>
  </g>
  <g id="safe-area">
    <path d="M589.284843283020564,468.502048750080576c-113.7209722826492,0-205.910035208269619,92.189062925617691-205.910035208269619,205.910035208264162v187.182898039691281c.000039394105443,113.720972276305474,92.189134261306208,205.910003273027542,205.91010653759713,205.909963878926646l868.80508451723108.000035664672396c113.720951951838288.000004665665983,205.910000870420845-92.189040470653708,205.910000870420845-205.909992422491996v-187.182905160798327c0-113.720972282646471-92.189062925617691-205.910035208264162-205.910035208271438-205.910035208264162h-868.805121508707998Z" fill="#fff"/>
  </g>
  <g id="icon-logotype-horizontal">
    <g id="icon-2" data-name="icon">
      <path id="gradient" d="M589.282066592993942,861.594946333361804h104.08410060289043c23.624916156603831,0,41.343896038572893-21.613680812220991,36.710668788976363-44.779817060209098l-19.525756376895515-97.628781884475757c-4.63322724959653-23.166136247984468,13.085752632371623-44.779817060200003,36.710668788978182-44.779817060200003h104.084100602892249" fill="none" stroke="url(#linear-gradient)" stroke-linecap="round" stroke-linejoin="round" stroke-width="187.188408607500634"/>
      <g id="contour">
        <path d="M851.34588623046875,599.53125c41.286376953125,0,74.8753662109375,33.5888671875,74.8753662109375,74.875244140625s-33.5889892578125,74.87548828125-74.8753662109375,74.87548828125h-35.5845947265625c-5.608154296875,0-10.92071533203125,2.514404296875-14.47613525390625,6.851318359375s-4.97906494140625,10.03955078125-3.87921142578125,15.53857421875l6.0919189453125,30.458984375c6.62542724609375,33.12451171875-1.85797119140625,67.106201171875-23.27471923828125,93.2314453125-21.4169921875,26.124755859375-53.0750732421875,41.108154296875-86.85699462890625,41.108154296875h-104.0841064453125c-41.286376953125,0-74.8753662109375-33.589111328125-74.8753662109375-74.87548828125s33.5889892578125-74.87548828125,74.8753662109375-74.87548828125h35.58404541015625c5.60797119140625,0,10.92059326171875-2.51416015625,14.4759521484375-6.85107421875,3.5555419921875-4.3369140625,4.9791259765625-10.03955078125,3.87939453125-15.53857421875l-6.0916748046875-30.459228515625c-6.62518310546875-33.12548828125,1.8583984375-67.10693359375,23.27569580078125-93.231689453125,21.41693115234375-26.12451171875,53.0748291015625-41.107666015625,86.8563232421875-41.107666015625h104.0841064453125M851.34588623046875,580.8125h-104.0841064453125c-39.41143798828125,0-76.3458251953125,17.480224609375-101.3323974609375,47.958984375-24.9866943359375,30.478515625-34.88433837890625,70.1240234375-27.1549072265625,108.770263671875l6.09161376953125,30.458984375h-35.58404541015625c-51.69049072265625,0-93.59417724609375,41.90380859375-93.59417724609375,93.59423828125s41.9036865234375,93.59423828125,93.59417724609375,93.59423828125h104.0841064453125c39.4119873046875,0,76.346435546875-17.480224609375,101.3331298828125-47.95947265625,24.9859619140625-30.479248046875,34.88360595703125-70.124267578125,27.15386962890625-108.770263671875l-6.09185791015625-30.458740234375h35.5845947265625c51.69049072265625,0,93.59417724609375-41.903564453125,93.59417724609375-93.59423828125,0-51.6904296875-41.9036865234375-93.593994140625-93.59417724609375-93.593994140625h0Z" fill="#333"/>
      </g>
      <g id="rigth-eye">
        <circle cx="851.345848999835425" cy="674.406530328474673" r="56.156524953609392" fill="url(#New_Gradient_Swatch_1)"/>
        <circle cx="851.345848999831787" cy="674.406530328476038" r="32.757972889616568" fill="#333"/>
      </g>
      <g id="left-eye">
        <circle cx="589.282066592993942" cy="861.594946333362259" r="56.156524953612234" fill="url(#New_Gradient_Swatch_1)"/>
        <circle cx="589.284772042470422" cy="861.597651719023816" r="32.761837475539465" fill="#333"/>
      </g>
    </g>
    <g id="logotype-2" data-name="logotype">
      <path id="a-last-child" d="M1547.665330075677048,768.000433710942161l-30.386763466152843.000000142639692c-2.221079377517526.000000010424628-4.021619958302836,1.800545099069495-4.021619946190185,4.021630014758557l.000000052545147,9.636462509150078c-5.092149916268681-7.870345658664519-16.898998901349842-18.05731343295156-37.967193166427023-18.05731343295156-34.262045717814544,0-64.588919415222335,26.391707102118744-64.588919415222335,68.525438445662076,0,36.810222837322726,23.844960256936247,68.756986406575379,64.588919415222335,68.756986406575379,15.049091024722657,0,31.022469525836641-5.78641401033201,37.967193166427023-18.28867097613329l-.000000052907126,9.868962538126652c-.000000011903467,2.221084909779165,1.800540559808724,4.02162999580105,4.021619931405439,4.021630014396578l30.386763493519538.000000254358383c2.221079389815714.000000018590072,4.021619999228278-1.800545065734696,4.021619998728056-4.02162999373104l-.000000027001079-120.441865930917629c-.000000000498403-2.221084921522561-1.800540600603199-4.021630002356687-4.021619983946948-4.021629991933878ZM1513.965188449828929,832.242425249285589c0,18.099132328599808-14.672209139773258,32.771378052990258-32.771296338953107,32.771378052990258-18.099087199172573,0-32.77129633894765-14.67224572439045-32.77129633894765-32.771378052990258,0-18.099132328592532,14.672209139775077-32.771378052990258,32.77129633894765-32.771378052990258,18.099087199179849,0,32.771296338953107,14.672245724397726,32.771296338953107,32.771378052990258Z" fill="#2d2d2d"/>
      <g id="i">
        <circle cx="1370.224910747621607" cy="729.57476362693842" r="19.212845874851727" fill="#2d2d2d"/>
        <path d="M1355.031543240021165,768.000459336497443l30.386734983337192-.00000003763671c2.221079378096874-.000000002750312,4.021619969806125,1.800545076113849,4.021619970047141,4.021629992390444l.000000013206773,120.441909246726937c.000000000241926,2.22108491729341-1.800540592657853,4.021629996967022-4.021619971767905,4.021629993269016l-30.3867350037508-.000000050593371c-2.22107937380224-.000000003692548-4.021619958504743-1.800545081081509-4.021619958376505-4.021629993065289l.000000007215021-120.441909158500494c.000000000128239-2.221084912465813,1.800540585804811-4.021629989840221,4.021619960089083-4.021629992590533Z" fill="#2d2d2d"/>
      </g>
      <path id="v" d="M1290.14859734500078,896.485628716352949l-31.15298697488106-.000000301475666c-1.697731244185888-.000000016425474-3.212594737356994-1.06612717859025-3.785619298761958-2.664234485946508l-43.186193983844532-120.441909180975927c-.939403834168843-2.619901890901019,1.002396176402726-5.379025510470456,3.785619353222501-5.37902549971659l29.359980620626629.000000113464921c2.82145021346696.000000010908479,5.313794205280828,1.838060258052792,6.147361473922501,4.533571925525393l23.368649825265493,75.567348463720919,23.368649744190407-75.567348425644013c.833567267095532-2.695511670472115,3.325911260752036-4.533571920255781,6.147361476608239-4.533571930673133l29.350287627306898-.000000108406311c2.785937801148975-.000000010288204,4.727951086183566,2.764107377308392,3.783449613355515,5.385061527384096l-43.403109839588979,120.441909444461999c-.574775268330995,1.594978587389051-2.088070441837772,2.658198474691744-3.783449637421654,2.658198458280822Z" fill="#2d2d2d"/>
      <path id="a" d="M1196.793545523897592,768.000433718729255l-30.386763381572564.000000176403773c-2.221079366569938.000000012902092-4.0216199408178,1.800545086458442-4.0216199417182,4.021629991208101l-.000000003893547,9.636462491149359c-5.092149916277776-7.870345658664519-16.898903692504973-18.05731343295156-37.967097957583974-18.05731343295156-34.26214092666487,0-64.589109832909344,26.391707102118744-64.589109832909344,68.525438445662076,0,36.810222837322726,23.845055465780206,68.756986406575379,64.589109832909344,68.756986406575379,15.049091024725385,0,31.022469525846645-5.78641401033201,37.967097957583974-18.28867097613329l.000000003918103,9.868962601756721c.000000000875843,2.22108490365099,1.800540573402031,4.021629976770782,4.021619938870572,4.021629991231748l30.386763455819164.00000019793697c2.221079387522877.000000014460966,4.021619992632623-1.8005450696146,4.021619991264743-4.021629995319017l-.000000074279342-120.441865907172541c-.000000001366971-2.221084922650334-1.800540603942864-4.021630003249811-4.021619988408929-4.021629990347719ZM1162.458789365703524,832.243043984926771c0,18.099132328599808-14.672209139775077,32.771378052988439-32.77129633894674,32.771378052988439-18.099087199178939,0-32.771296338945831-14.672245724388631-32.771296338945831-32.771378052988439,0-18.099132328594351,14.672209139766892-32.771378052992077,32.771296338945831-32.771378052992077,18.099087199171663,0,32.77129633894674,14.672245724397726,32.77129633894674,32.771378052992077Z" fill="#2d2d2d"/>
      <path id="s" d="M1012.49343776464957,804.115188804855279c-3.091050621500472.00001099326073-5.908059714549381-1.769168126449586-7.242640923990621-4.557272447675132-1.255760956953054-2.623439117620364-4.136025118089492-5.165685886444408-10.999563654349004-5.165685886444408-8.103050049332523,0-10.881200640761563,5.092168885103092-10.881200640761563,8.564525364377914,0,5.787704097083406,9.492790292536483,9.724194016112961,19.678455864266652,12.73374695084749,21.761071386469666,6.019105869389023,44.911883016153297,12.501015283340166,44.911883016153297,40.281197012520352,0,28.244315168907633-23.845016803758881,44.911892248321237-52.319397996493535,44.911892248321237-18.490141679046246,0-45.979029062410518-7.951598707182711-51.624028063173682-37.786707093433506-.471590286775609-2.492462322461506,1.409625275795406-4.809815323904331,3.946303191290099-4.809812027220687l28.570932797909336.000037130992496c2.596648787985941.000003374623702,5.015802331801751,1.498405445359822,6.010097090177624,3.89715335963956,3.278572031112162,7.909593966174725,12.141010283447031,7.909593966174725,13.559498433231056,7.909593966174725,6.481908081502297,0,13.426619612408103-3.703758251514955,13.426619612408103-9.95426589321869,0-8.797257031876143-9.49146039758034-9.95559578841312-34.030682375431752-19.447058137044223-16.668903548195885-5.324900552606778-30.559656505028215-16.204773534906053-30.559656505028215-33.567885826309066,0-26.623172867874018,23.150811629755481-43.52348161475129,49.773979024831533-43.52348161475129,16.07039441717734,0,43.23495755451313,6.070168568377994,48.650623284508583,35.728053917204306.453881362898755,2.485596802667715-1.42422950569744,4.785864248413418-3.950920809928903,4.785873234535757l-26.920301345619009.000095741483165Z" fill="#2d2d2d"/>
    </g>
  </g>
  <g id="safe-area-grid">
    <animate attributeName="opacity" values="0;0;0.5;1;0.8;0.5;0" dur="6s" repeatCount="indefinite"/>
    <g>
      <circle cx="944.940057610856684" cy="524.655868271987401" r="56.156524953609164" fill="none" stroke="url(#New_Gradient_Swatch_3)" stroke-miterlimit="10" stroke-width=".779950857162476"/>
      <circle cx="944.942763060333164" cy="524.658573657648958" r="32.761837475539906" fill="none" stroke="url(#New_Gradient_Swatch_3-2)" stroke-miterlimit="10" stroke-width=".779950857162476"/>
    </g>
    <rect x="495.68785798197041" y="580.81239322559486" width="1055.999092110810125" height="374.376833024074585" fill="none" stroke="url(#New_Gradient_Swatch_3-3)" stroke-miterlimit="10" stroke-width=".779950857162476"/>
    <line x1="1551.686950092780535" y1="768.000475840850413" x2="495.68785798197041" y2="768.000475840850413" fill="none" stroke="url(#New_Gradient_Swatch_3-4)" stroke-miterlimit="10" stroke-width=".779950857162476"/>
    <line x1="944.940057610855547" y1="468.499343318375395" x2="944.940057610855547" y2="1067.501608363323612" fill="none" stroke="url(#New_Gradient_Swatch_3-5)" stroke-miterlimit="10" stroke-width=".779950857162476"/>
    <g>
      <circle cx="944.940057610855774" cy="1011.345751203278269" r="56.156524953611893" fill="none" stroke="url(#New_Gradient_Swatch_3-6)" stroke-miterlimit="10" stroke-width=".779950857162476"/>
      <circle cx="944.937352161379977" cy="1011.348456588941644" r="32.761837475540602" fill="none" stroke="url(#New_Gradient_Swatch_3-7)" stroke-miterlimit="10" stroke-width=".779950857162476"/>
    </g>
    <g>
      <circle cx="589.284772042470422" cy="861.594946333364078" r="56.156524953611438" fill="none" stroke="url(#New_Gradient_Swatch_3-8)" stroke-miterlimit="10" stroke-width=".779950857162476"/>
      <circle cx="589.282066592994397" cy="861.597651719027908" r="32.761837475540588" fill="none" stroke="url(#New_Gradient_Swatch_3-9)" stroke-miterlimit="10" stroke-width=".779950857162476"/>
    </g>
    <g>
      <circle cx="1607.840769596915834" cy="832.243047186725562" r="56.156524953609505" fill="none" stroke="url(#New_Gradient_Swatch_3-10)" stroke-miterlimit="10" stroke-width=".779950857162476"/>
      <circle cx="1607.838064147438217" cy="832.245752572389847" r="32.761837475539082" fill="none" stroke="url(#New_Gradient_Swatch_3-11)" stroke-miterlimit="10" stroke-width=".779950857162476"/>
    </g>
    <g>
      <circle cx="1480.598797862568517" cy="832.243047186725562" r="56.156524953609505" fill="none" stroke="url(#New_Gradient_Swatch_3-12)" stroke-miterlimit="10" stroke-width=".779950857162476"/>
      <circle cx="1480.596092413091355" cy="832.245752572389847" r="32.761837475538897" fill="none" stroke="url(#New_Gradient_Swatch_3-13)" stroke-miterlimit="10" stroke-width=".779950857162476"/>
    </g>
    <g>
      <circle cx="589.28206659299417" cy="861.594946333362259" r="205.910035208271552" fill="none" stroke="url(#New_Gradient_Swatch_3-14)" stroke-miterlimit="10" stroke-width=".779950857162476"/>
      <circle cx="589.272146477791239" cy="861.604866214573576" r="120.129774285791555" fill="none" stroke="url(#New_Gradient_Swatch_3-15)" stroke-miterlimit="10" stroke-width=".779950857162476"/>
    </g>
    <path d="M589.284843283020564,468.502048750080576c-113.7209722826492,0-205.910035208269619,92.189062925617691-205.910035208269619,205.910035208264162v187.182898039691281c.000039394105443,113.720972276305474,92.189134261306208,205.910003273027542,205.91010653759713,205.909963878926646l868.80508451723108.000035664672396c113.720951951838288.000004665665983,205.910000870420845-92.189040470653708,205.910000870420845-205.909992422491996v-187.182905160798327c0-113.720972282646471-92.189062925617691-205.910035208264162-205.910035208271438-205.910035208264162h-868.805121508707998Z" fill="none" stroke="url(#New_Gradient_Swatch_3-16)" stroke-miterlimit="10" stroke-width=".779950857162476"/>
  </g>
</svg>