<?xml version="1.0" encoding="UTF-8"?>
<svg xmlns="http://www.w3.org/2000/svg" xmlns:xlink="http://www.w3.org/1999/xlink" viewBox="0 0 2048 1536">
  <defs>
    <linearGradient id="New_Gradient_Swatch_1" data-name="New Gradient Swatch 1" x1="1023.999999999999091" y1="1408" x2="1023.999999999999204" y2="128" gradientUnits="userSpaceOnUse">
      <stop offset="0" stop-color="#fff" stop-opacity="0"/>
      <stop offset="1" stop-color="#fff"/>
    </linearGradient>
    <linearGradient id="New_Gradient_Swatch_6" data-name="New Gradient Swatch 6" x1="1426.289358050675219" y1="950.857142464781646" x2="1718.86078662210457" y2="950.857142464781646" gradientUnits="userSpaceOnUse">
      <stop offset="0" stop-color="#fffc1c"/>
      <stop offset="1" stop-color="#ff9a1c"/>
    </linearGradient>
    <linearGradient id="New_Gradient_Swatch_1-2" data-name="New Gradient Swatch 1" x1="1572.575072336392623" y1="1023.999996728322003" x2="1572.575072336392623" y2="877.714288201228555" xlink:href="#New_Gradient_Swatch_1"/>
    <linearGradient id="New_Gradient_Swatch_5" data-name="New Gradient Swatch 5" x1="1050.931637189272806" y1="992.638230616852525" x2="1362.789901199249243" y2="909.076060622407454" gradientUnits="userSpaceOnUse">
      <stop offset="0" stop-color="#c0ff1c"/>
      <stop offset=".999193572998047" stop-color="#fffc1c"/>
    </linearGradient>
    <linearGradient id="linear-gradient" x1="1206.860769258911205" y1="1051.428567077156913" x2="1206.860769258911205" y2="850.285717852406378" gradientUnits="userSpaceOnUse">
      <stop offset="0" stop-color="#fff" stop-opacity="0"/>
      <stop offset="1" stop-color="#fff"/>
    </linearGradient>
    <linearGradient id="cyan-green" x1="685.217334111794116" y1="992.638230616848887" x2="997.075598121771009" y2="909.076060622403702" gradientUnits="userSpaceOnUse">
      <stop offset="0" stop-color="#00e6ff"/>
      <stop offset="1" stop-color="#c0ff1c"/>
    </linearGradient>
    <linearGradient id="New_Gradient_Swatch_1-3" data-name="New Gradient Swatch 1" x1="841.146466181432515" y1="1060.571423860121286" x2="841.146466181432515" y2="841.142861069465653" xlink:href="#New_Gradient_Swatch_1"/>
    <linearGradient id="New_Gradient_Swatch_1-4" data-name="New Gradient Swatch 1" x1="1572.575063960428452" y1="585.142865909407192" x2="1572.575063960428452" y2="493.714292845001182" xlink:href="#New_Gradient_Swatch_1"/>
    <linearGradient id="linear-gradient-2" x1="360.133813589020974" y1="-9830.036951482545192" x2="590.730511828863769" y2="-9768.248760639491593" gradientTransform="translate(0 -9214) scale(1 -1)" gradientUnits="userSpaceOnUse">
      <stop offset=".1" stop-color="#1a8deb"/>
      <stop offset=".300000019073486" stop-color="#00e6ff"/>
      <stop offset=".5" stop-color="#c0ff1c"/>
      <stop offset=".7" stop-color="#fffc1c"/>
      <stop offset=".9" stop-color="#ff9a1c"/>
    </linearGradient>
    <linearGradient id="New_Gradient_Swatch_1-5" data-name="New Gradient Swatch 1" x1="539.432823251941045" y1="566.858055136983239" x2="539.432823251941045" y2="512.000356403632395" xlink:href="#New_Gradient_Swatch_1"/>
    <linearGradient id="New_Gradient_Swatch_1-6" data-name="New Gradient Swatch 1" x1="539.432823251941045" y1="555.572027400461593" x2="539.432823251941045" y2="523.286384140154041" xlink:href="#New_Gradient_Swatch_1"/>
    <linearGradient id="New_Gradient_Swatch_1-7" data-name="New Gradient Swatch 1" x1="411.431502955966607" y1="658.285297631646245" x2="411.431502955966607" y2="603.4275988982954" xlink:href="#New_Gradient_Swatch_1"/>
    <linearGradient id="New_Gradient_Swatch_1-8" data-name="New Gradient Swatch 1" x1="411.432828290736325" y1="647.002879688508983" x2="411.432828290736325" y2="614.712667510970277" xlink:href="#New_Gradient_Swatch_1"/>
    <linearGradient id="blue-cyan" x1="319.503031034319065" y1="990.999394956179458" x2="631.361295044295048" y2="907.437224961734501" gradientUnits="userSpaceOnUse">
      <stop offset="0" stop-color="#1a8deb"/>
      <stop offset="1" stop-color="#00e6ff"/>
    </linearGradient>
    <linearGradient id="linear-gradient-3" x1="475.432163103958374" y1="1040.646874637079236" x2="475.432163103958374" y2="857.78973897114156" gradientUnits="userSpaceOnUse">
      <stop offset="0" stop-color="#fff" stop-opacity="0"/>
      <stop offset="1" stop-color="#fff"/>
    </linearGradient>
  </defs>
  <g id="bg">
    <rect width="2048" height="1536" fill="#f2f2f2"/>
  </g>
  <g id="safe-area">
    <rect x="256" y="128" width="1536" height="1280" rx="128" ry="128" fill="url(#New_Gradient_Swatch_1)"/>
  </g>
  <g id="icons">
    <g id="mail">
      <path d="M1718.860763740045513,990.571417896382627c0,4.06935321592573.001691545694484,8.138061203080724-.024012973382924,12.207414419002816-.019688196771313,3.427542415296557-.059221537849226,6.854334970132186-.152099603386887,10.280848507120027-.202375131544613,7.466744265218949-.641845677859237,14.998307863823356-1.969168449268182,22.382166390118073-1.346505248333415,7.490617729679798-3.543997488837704,14.46215763381224-7.008248189518781,21.26797837594313-3.404872215296564,6.689173843818935-7.854003597072733,12.810563809320229-13.161463628097408,18.118023840344904-5.307460031022856,5.307460031022856-11.428849996525969,9.756591412799025-18.118023840344904,13.161463628097408-6.805820742127253,3.464250700681077-13.777343207646481,5.661725502566696-21.26797837594313,7.008248189518781-7.383841087677865,1.327322771408944-14.915422124899123,1.766793317721749-22.382166390118073,1.969168449268182-3.426513536986022.092878065537661-6.85330609182347.132411406615574-10.280831068503176.152099603385068-4.069353215923911.025704519077408-8.138061203077086.023995534769711-12.207414419000997.023995534769711h-79.428568301820633c-4.069353215920273,0-8.138061203077086.001708984307697-12.207414419000997-.023995534769711-3.427524976679706-.019688196769494-6.854317531513516-.059221537847407-10.280831068503176-.152099603385068-7.466744265220768-.202375131546432-14.998325302440207-.641845677859237-22.382166390116254-1.969168449268182-7.490635168298468-1.346522686952085-14.462157633815877-3.543997488837704-21.267978375944949-7.008248189518781-6.689173843820754-3.404872215298383-12.810563809320229-7.854003597074552-18.118023840344904-13.161463628097408s-9.756591412800844-11.428849996525969-13.161463628097408-18.118023840344904c-3.464250700679258-6.805820742130891-5.661742941185366-13.777360646263332-7.008248189515143-21.26797837594313-1.327322771412582-7.383858526294716-1.766793317727206-14.915422124899123-1.969168449268182-22.382166390118073-.092878065541299-3.426513536987841-.132411406619212-6.85330609182347-.152099603390525-10.280848507120027-.025721957690621-4.069353215922092-.024012973382924-8.138061203077086-.024012973382924-12.207414419002816v-79.428550863201963c0-4.069353215923911-.001708984307697-8.138061203077086.024012973382924-12.207414419002816.019688196771313-3.427524976679706.059221537849226-6.854334970128548.152099603390525-10.280831068503176.202375131540975-7.466744265218949.641845677855599-14.998325302438388,1.969168449268182-22.382166390118073,1.346505248329777-7.49063516829483,3.543997488835885-14.46215763381224,7.008248189515143-21.267995814558162,3.404872215296564-6.689156405203903,7.854003597072733-12.810546370705197,13.161463628097408-18.118006401729872s11.42884999652415-9.756591412799025,18.118023840344904-13.161463628095589c6.805820742129072-3.464268139296109,13.777343207646481-5.661742941185366,21.267978375944949-7.008248189516962,7.383841087676046-1.327340210025795,14.915422124895485-1.766793317725387,22.382166390116254-1.969185887885033,3.42651353698966-.092860626924448,6.85330609182347-.132393968002361,10.280831068503176-.152099603386887,4.069353215923911-.025704519079227,8.138061203080724-.023995534769711,12.207414419000997-.023995534769711h79.428568301820633c4.069353215923911,0,8.138061203077086-.001708984309516,12.207414419000997.023995534769711,3.427524976679706.019705635384526,6.854317531517154.059238976462439,10.280831068503176.152099603386887,7.466744265218949.202392570159645,14.998325302440207.641845677859237,22.382166390118073,1.969185887885033,7.490635168296649,1.346505248331596,14.462157633815877,3.543980050220853,21.26797837594313,7.008248189516962,6.689173843818935,3.404872215296564,12.810563809322048,7.854003597072733,18.118023840344904,13.161463628095589,5.307460031024675,5.307460031024675,9.756591412800844,11.428849996525969,13.161463628097408,18.118006401729872,3.464250700681077,6.805838180745923,5.661742941185366,13.777360646263332,7.008248189518781,21.267995814558162,1.327322771408944,7.383841087679684,1.766793317723568,14.915422124899123,1.969168449268182,22.382166390118073.092878065537661,3.426496098374628.132411406615574,6.85330609182347.152099603386887,10.280831068503176.025704519077408,4.06935321592573.024012973382924,8.138061203078905.024012973382924,12.207414419002816v79.428550863201963Z" fill="url(#New_Gradient_Swatch_6)"/>
      <g>
        <rect x="1462.860790941072992" y="877.714288201227646" width="219.428562790637443" height="146.285708527093448" rx="9.142856782942545" ry="9.142856782942545" fill="url(#New_Gradient_Swatch_1-2)"/>
        <g>
          <path d="M1673.146466942238476,886.85693359375l.0001220703125.00048828125-.0001220703125,127.99951171875-201.142822265625.00048828125v-128.00048828125h201.142822265625M1673.146466942238476,877.71435546875h-201.142822265625c-5.04949951171875,0-9.14288330078125,4.09326171875-9.14288330078125,9.142578125v128.00048828125c0,5.04931640625,4.0933837890625,9.142578125,9.14288330078125,9.142578125h201.142822265625c5.0494384765625,0,9.1429443359375-4.09326171875,9.1429443359375-9.14306640625v-127.99951171875c0-5.0498046875-4.093505859375-9.14306640625-9.1429443359375-9.14306640625h0Z" fill="#333"/>
          <path d="M1469.091509271936957,886.179907641108002l98.637858594218415,61.64866915946368c2.964756791905529,1.852973221510183,6.726652226936494,1.852973346911313,9.691409142375051.000000323054337l97.554293688281177-60.971431966052478" fill="none" stroke="#333" stroke-linecap="round" stroke-linejoin="round" stroke-width="9.142828211515781"/>
        </g>
      </g>
    </g>
    <g id="clock">
      <path d="M1353.146460662565914,990.571417896382627c0,4.06935321592573.001691545692665,8.138061203080724-.024012973382924,12.207414419002816-.019688196771313,3.427542415292919-.059221537849226,6.854334970132186-.152099603386887,10.280848507120027-.202375131545523,7.466744265218949-.641845677859237,14.998307863823356-1.969168449268182,22.382166390118073-1.346505248334324,7.490617729679798-3.543997488837704,14.46215763381224-7.008248189519691,21.26797837594313-3.404872215296564,6.689173843818935-7.854003597070914,12.810563809320229-13.161463628096499,18.118023840344904-5.307460031023766,5.307460031022856-11.428849996525969,9.756591412797206-18.118023840344904,13.161463628097408-6.805820742128162,3.464250700681077-13.777343207647391,5.661725502566696-21.267978375942221,7.008248189518781-7.383841087679684,1.327322771408944-14.915422124900033,1.766793317721749-22.382166390118982,1.969168449268182-3.426513536987841.092878065534023-6.85330609182347.132411406615574-10.280831068503176.152099603385068-4.069353215924821.025704519077408-8.138061203077086.023995534769711-12.207414419002816.023995534769711h-79.428568301818814c-4.069353215922092,0-8.138061203077086.001708984307697-12.207414419001907-.023995534769711-3.427524976679706-.019688196769494-6.854317531512606-.059221537851045-10.280831068503176-.152099603385068-7.466744265218949-.202375131546432-14.998325302439298-.641845677859237-22.382166390116254-1.969168449268182-7.490635168298468-1.346522686952085-14.462157633814058-3.543997488837704-21.267978375944949-7.008248189518781-6.689173843819844-3.404872215300202-12.810563809319319-7.854003597074552-18.118023840344904-13.161463628097408-5.307460031022856-5.307460031024675-9.756591412799935-11.428849996525969-13.161463628096499-18.118023840344904-3.464250700679258-6.805820742130891-5.661742941185366-13.777360646263332-7.008248189516962-21.26797837594313-1.327322771411673-7.383858526294716-1.766793317726297-14.915422124899123-1.969168449268182-22.382166390118073-.09287806554039-3.426513536987841-.132411406618303-6.853306091827108-.152099603388706-10.280848507120027-.025721957690621-4.069353215922092-.024012973383833-8.138061203077086-.024012973383833-12.207414419002816v-79.428550863201963c0-4.069353215923911-.001708984306788-8.138061203077086.024012973383833-12.207414419004635.019688196770403-3.427524976677887.059221537848316-6.854334970126729.152099603388706-10.280831068503176.202375131541885-7.46674426521713.641845677856509-14.998325302440207,1.969168449268182-22.382166390116254,1.346505248331596-7.49063516829483,3.543997488837704-14.46215763381224,7.008248189516962-21.267995814558162,3.404872215296564-6.689156405203903,7.854003597073643-12.810546370705197,13.161463628096499-18.118006401729872,5.307460031025585-5.307460031022856,11.428849996525059-9.756591412799025,18.118023840344904-13.161463628095589,6.805820742130891-3.464268139296109,13.777343207646481-5.661742941189004,21.267978375944949-7.008248189516962,7.383841087676956-1.327340210025795,14.915422124897304-1.766793317725387,22.382166390116254-1.969185887885033,3.426513536990569-.092860626924448,6.85330609182347-.132393968002361,10.280831068503176-.152099603386887,4.069353215924821-.025704519079227,8.138061203079815-.023995534769711,12.207414419001907-.023995534769711h79.428568301818814c4.06935321592573,0,8.138061203077996-.001708984309516,12.207414419002816.023995534769711,3.427524976679706.019705635384526,6.854317531515335.059238976462439,10.280831068503176.152099603386887,7.466744265218949.202392570159645,14.998325302439298.641845677859237,22.382166390118982,1.969185887885033,7.49063516829483,1.346505248327958,14.462157633814058,3.543980050220853,21.267978375942221,7.008248189516962,6.689173843818935,3.404872215296564,12.810563809321138,7.854003597072733,18.118023840344904,13.161463628095589,5.307460031025585,5.307460031024675,9.756591412799935,11.428849996525969,13.161463628096499,18.118006401729872,3.464250700681987,6.805838180745923,5.661742941185366,13.777360646263332,7.008248189519691,21.267995814558162,1.327322771408944,7.383841087676046,1.766793317722659,14.915422124899123,1.969168449268182,22.382166390116254.092878065537661,3.426496098376447.132411406615574,6.853306091825289.152099603386887,10.280831068503176.025704519075589,4.069353215927549.024012973382924,8.138061203080724.024012973382924,12.207414419004635v79.428550863201963Z" fill="url(#New_Gradient_Swatch_5)"/>
      <g>
        <g id="Path_602" data-name="Path 602">
          <circle cx="1206.860769258913706" cy="950.857142464787103" r="100.571424612374244" fill="url(#linear-gradient)"/>
        </g>
        <g id="Path_602-2" data-name="Path 602">
          <path d="M1206.860761375832226,859.95556640625c50.12322998046875,0,90.9014892578125,40.7783203125,90.9014892578125,90.9013671875,0,50.12353515625-40.77825927734375,90.90185546875-90.9014892578125,90.90185546875s-90.9014892578125-40.7783203125-90.9014892578125-90.90185546875c0-50.123046875,40.77825927734375-90.9013671875,90.9014892578125-90.9013671875M1206.860761375832226,850.28564453125c-55.5440673828125,0-100.5714111328125,45.02734375-100.5714111328125,100.5712890625,0,55.54443359375,45.02734375,100.57177734375,100.5714111328125,100.57177734375s100.5714111328125-45.02734375,100.5714111328125-100.57177734375c0-55.5439453125-45.02734375-100.5712890625-100.5714111328125-100.5712890625h0Z" fill="#333"/>
        </g>
        <path id="Path_603" data-name="Path 603" d="M1206.861689429908438,889.907560875271884l-.001087046273824,60.949565404444002h48.762070081286765" fill="none" stroke="#333" stroke-linecap="round" stroke-linejoin="round" stroke-width="9.142856782943227"/>
      </g>
    </g>
    <g id="location">
      <path d="M987.432157585088135,990.571417896382627c0,4.069353215923911.001691545693575,8.138061203080724-.024012973382924,12.207414419000997-.019688196771313,3.427542415292919-.059221537849226,6.854334970132186-.152099603386887,10.280848507120027-.202375131544613,7.466744265218949-.641845677859237,14.998307863823356-1.969168449268182,22.382166390119892-1.346505248334324,7.490617729677979-3.543997488837704,14.462157633810421-7.008248189518781,21.267978375941311-3.404872215296564,6.689173843818935-7.854003597071824,12.810563809322048-13.161463628097408,18.118023840344904-5.307460031022856,5.307460031022856-11.428849996525059,9.756591412797206-18.118023840344904,13.161463628097408-6.805820742128162,3.464250700681077-13.777343207646481,5.661725502568515-21.267978375942221,7.008248189518781-7.383841087678775,1.327322771408944-14.915422124900033,1.766793317723568-22.382166390118982,1.969168449268182-3.426513536986931.092878065535842-6.85330609182347.132411406615574-10.280831068503176.152099603386887-4.069353215923911.025704519075589-8.138061203077086.023995534769711-12.207414419001907.023995534769711h-79.428568301819723c-4.069353215921183,0-8.138061203077086.001708984305878-12.207414419001907-.023995534769711-3.427524976678797-.019688196771313-6.854317531512606-.059221537851045-10.280831068503176-.152099603386887-7.466744265218949-.202375131544613-14.998325302439298-.641845677859237-22.382166390116254-1.969168449268182-7.490635168297558-1.346522686950266-14.462157633814058-3.543997488837704-21.267978375944949-7.008248189518781-6.689173843819844-3.404872215300202-12.81056380931841-7.854003597074552-18.118023840344904-13.161463628097408-5.307460031022856-5.307460031022856-9.756591412799935-11.428849996525969-13.161463628096499-18.118023840344904-3.464250700679258-6.805820742130891-5.661742941185366-13.777360646263332-7.008248189516053-21.267978375941311-1.327322771411673-7.383858526296535-1.766793317726297-14.915422124900942-1.969168449268182-22.382166390119892-.092878065541299-3.426513536987841-.132411406619212-6.853306091827108-.152099603389615-10.280848507120027-.025721957690621-4.069353215920273-.024012973383833-8.138061203077086-.024012973383833-12.207414419000997v-79.428550863203782c0-4.069353215923911-.001708984306788-8.138061203077086.024012973383833-12.207414419004635.019688196770403-3.427524976676068.059221537848316-6.854334970126729.152099603389615-10.280831068503176.202375131541885-7.46674426521713.641845677856509-14.998325302440207,1.969168449268182-22.382166390116254,1.346505248330686-7.49063516829483,3.543997488836794-14.46215763381224,7.008248189516053-21.267995814558162,3.404872215296564-6.689156405203903,7.854003597073643-12.810546370705197,13.161463628096499-18.118006401728053,5.307460031026494-5.307460031022856,11.428849996525059-9.756591412800844,18.118023840344904-13.161463628097408,6.805820742130891-3.464268139296109,13.777343207647391-5.661742941187185,21.267978375944949-7.008248189516962,7.383841087676956-1.327340210025795,14.915422124897304-1.766793317725387,22.382166390116254-1.969185887883214,3.426513536990569-.092860626926267,6.853306091824379-.13239396800418,10.280831068503176-.152099603386887,4.069353215924821-.025704519081046,8.138061203080724-.023995534769711,12.207414419001907-.023995534769711h79.428568301819723c4.069353215924821,0,8.138061203077996-.001708984311335,12.207414419001907.023995534769711,3.427524976679706.019705635382707,6.854317531516244.05923897646062,10.280831068503176.152099603386887,7.466744265218949.202392570157826,14.998325302440207.641845677857418,22.382166390118982,1.969185887883214,7.490635168295739,1.346505248329777,14.462157633814058,3.543980050220853,21.267978375942221,7.008248189516962,6.689173843819844,3.404872215296564,12.810563809322048,7.854003597074552,18.118023840344904,13.161463628097408,5.307460031025585,5.307460031022856,9.756591412800844,11.42884999652415,13.161463628097408,18.118006401728053,3.464250700681077,6.805838180745923,5.661742941184457,13.777360646263332,7.008248189518781,21.267995814558162,1.327322771408944,7.383841087676046,1.766793317723568,14.915422124899123,1.969168449268182,22.382166390116254.092878065537661,3.426496098376447.132411406615574,6.853306091827108.152099603386887,10.280831068503176.025704519076498,4.069353215927549.024012973382924,8.138061203080724.024012973382924,12.207414419004635v79.428550863203782Z" fill="url(#cyan-green)"/>
      <path d="M926.479796155575968,926.476191043608196c.000005812874406,60.952378552956361-85.333329974139815,134.095232816513089-85.333329974139815,134.095232816513089,0,0-85.333324161272685-73.14285426355309-85.333329974146181-134.095232816513089-.000004494505447-47.128296794358903,38.20503317978455-85.333329974142544,85.333329974143453-85.333329974142544,47.128296794357993,0,85.333325479634368,38.205033179783641,85.333329974142544,85.333329974142544Z" fill="url(#New_Gradient_Swatch_1-3)"/>
      <path d="M841.146466942238476,850.2861328125c42.01153564453125,0,76.190460205078125,34.1787109375,76.19049072265625,76.18994140625,0,22.72314453125-13.97222900390625,51.72802734375-40.406280517578125,83.8798828125-13.9569091796875,16.9755859375-28.072906494140625,30.73876953125-35.7841796875,37.89990234375-7.712371826171875-7.16259765625-21.828582763671875-20.92578125-35.78424072265625-37.89990234375-26.433990478515625-32.15185546875-40.406280517578125-61.15673828125-40.406280517578125-83.8798828125,0-42.01123046875,34.17889404296875-76.18994140625,76.19049072265625-76.18994140625M841.146466942238476,841.14306640625c-47.1282958984375,0-85.333343505859375,38.20458984375-85.333343505859375,85.3330078125.000030517578125,60.95263671875,85.333343505859375,134.09521484375,85.333343505859375,134.09521484375,0,0,85.333343505859375-73.142578125,85.333343505859375-134.09521484375-.000030517578125-47.12841796875-38.205047607421875-85.3330078125-85.333343505859375-85.3330078125h0Z" fill="#333"/>
      <path d="M841.146466942238476,886.85888671875c20.165557861328125,0,36.571441650390625,16.40576171875,36.571441650390625,36.5712890625s-16.4058837890625,36.57080078125-36.571441650390625,36.57080078125-36.571441650390625-16.4052734375-36.571441650390625-36.57080078125,16.4058837890625-36.5712890625,36.571441650390625-36.5712890625M841.146466942238476,877.7158203125c-25.247314453125,0-45.71429443359375,20.466796875-45.71429443359375,45.71435546875,0,25.2470703125,20.46697998046875,45.7138671875,45.71429443359375,45.7138671875s45.71429443359375-20.466796875,45.71429443359375-45.7138671875c0-25.24755859375-20.46697998046875-45.71435546875-45.71429443359375-45.71435546875h0Z" fill="#333"/>
    </g>
    <g id="user-2" data-name="user">
      <path d="M1718.860763740043694,624.857143616718531c0,4.06935344892554.001691545790891,8.138061669045783-.02401297475808,12.207415117969504-.019688197897267,3.427542611549143-.059221541239822,6.854335362593702-.152099612096208,10.28084909577592-.202375143131576,7.466744692746943-.64184571460828,14.998308722588263-1.96916856201824,22.382167671667048-1.346505325431281,7.490618158572033-3.543997691756886,14.462158461878062-7.008248590793301,21.267979593692871-3.40487241025221,6.689174226825344-7.854004046772388,12.810564542824068-13.161464381690166,18.118024877738208-5.30746033491414,5.307460334915959-11.428850650912864,9.756591971439775-18.118024877738208,13.161464381690166-6.805821131811172,3.464250899036415-13.777343996503987,5.661725826745169-21.26797959369469,7.00824859079512-7.383841510460115,1.327322847408141-14.915422978920105,1.766793418884845-22.382167671665229,1.96916856201824-3.426513733182219.092878070856386-6.853306484228597.132411414197122-10.280831657159069.152099612094389-4.06935344892554.02570452054897-8.138061669042145.023995536144866-12.207415117969504.023995536144866h-79.428572849703414c-4.069353448921902,0-8.138061669042145.001708984404104-12.207415117969504-.023995536144866-3.427525172930473-.019688197897267-6.854317923973213-.059221541238003-10.28083165715725-.152099612094389-7.466744692745124-.202375143133395-14.998326161206933-.641845714610099-22.38216767166341-1.96916856201824-7.490635597194341-1.346522764049951-14.4621584618817-3.543997691758705-21.267979593696509-7.00824859079512-6.689174226827163-3.404872410250391-12.81056454282043-7.854004046774207-18.118024877740027-13.161464381690166-5.30746033491414-5.30746033491414-9.756591971437956-11.428850650912864-13.161464381690166-18.118024877738208-3.464250899032777-6.80582113181481-5.66174326536202-13.777361435120838-7.008248590791482-21.267979593692871-1.32732284740996-7.383858949078785-1.766793418886664-14.915422978920105-1.969168562016421-22.382167671667048-.092878070860024-3.426513733182219-.13241141420076-6.853306484226778-.152099612099846-10.28084909577592-.025721959162183-4.069353448923721-.02401297475808-8.138061669043964-.02401297475808-12.207415117969504v-79.428555411086563c0-4.06935344892554-.001708984404104-8.138061669042145.02401297475808-12.207415117967685.019688197899086-3.427525172930473.059221541239822-6.854335362591883.152099612099846-10.280831657159069.202375143129757-7.466744692745124.641845714606461-14.998326161205114,1.969168562016421-22.382167671665229,1.346505325429462-7.490635597190703,3.543997691758705-14.462158461879881,7.008248590791482-21.267997032311541,3.40487241025221-6.689156788208493,7.854004046776026-12.810547104207217,13.161464381690166-18.118007439121357,5.307460334919597-5.307460334915959,11.428850650912864-9.756591971439775,18.118024877740027-13.161464381690166,6.80582113181481-3.464268337651447,13.777343996502168-5.66174326536202,21.267979593696509-7.008248590791482,7.383841510456477-1.327340286026811,14.915422978918286-1.766793418888483,22.38216767166341-1.969186000635091,3.426513733184038-.092860632241354,6.853306484226778-.132393975583909,10.28083165715725-.152099612096208,4.069353448927359-.025704520550789,8.138061669047602-.023995536143048,12.207415117969504-.023995536143048h79.428572849703414c4.069353448927359,0,8.138061669043964-.001708984407742,12.207415117969504.023995536143048,3.427525172930473.019705636512299,6.854317923976851.059238979854854,10.280831657159069.152099612096208,7.466744692745124.202392581746608,14.998326161205114.64184571460828,22.382167671665229,1.969186000635091,7.490635597190703,1.346505325429462,14.462158461883519,3.543980253140035,21.26797959369469,7.008248590791482,6.689174226825344,3.404872410250391,12.810564542824068,7.854004046774207,18.118024877738208,13.161464381690166,5.307460334917778,5.30746033491414,9.756591971437956,11.428850650912864,13.161464381690166,18.118007439121357,3.464250899036415,6.805838570431661,5.66174326536202,13.777361435120838,7.008248590793301,21.267997032311541,1.32732284740996,7.383841510460115,1.766793418886664,14.915422978920105,1.96916856201824,22.382167671665229.092878070856386,3.426496294567187.132411414198941,6.853306484228597.152099612096208,10.280831657159069.02570452054897,4.06935344892554.02401297475808,8.138061669042145.02401297475808,12.207415117967685v79.428555411086563Z" fill="#fff"/>
      <path d="M1618.289411278175976,603.4287109375c20.16552734375,0,36.5714111328125,16.40576171875,36.5714111328125,36.5712890625v27.42822265625l-164.571533203125.00048828125v-27.4287109375c0-20.16552734375,16.406005859375-36.5712890625,36.571533203125-36.5712890625h91.4285888671875M1618.289411278175976,594.28564453125h-91.4285888671875c-25.247314453125,0-45.71435546875,20.46728515625-45.71435546875,45.71435546875v27.4287109375c0,5.04931640625,4.0933837890625,9.142578125,9.142822265625,9.142578125h164.571533203125c5.0494384765625,0,9.142822265625-4.09326171875,9.142822265625-9.142578125v-27.4287109375c0-25.2470703125-20.467041015625-45.71435546875-45.7142333984375-45.71435546875h0Z" fill="#333"/>
      <circle cx="1572.575063960439365" cy="539.428579377193273" r="45.714286431495111" fill="url(#New_Gradient_Swatch_1-4)"/>
      <path d="M1572.575055809425976,502.857421875c20.1656494140625,0,36.571533203125,16.40576171875,36.571533203125,36.5712890625s-16.4058837890625,36.5712890625-36.571533203125,36.5712890625c-20.16552734375,0-36.5714111328125-16.40576171875-36.5714111328125-36.5712890625s16.4058837890625-36.5712890625,36.5714111328125-36.5712890625M1572.575055809425976,493.71435546875c-25.247314453125,0-45.7142333984375,20.466796875-45.7142333984375,45.71435546875,0,25.2470703125,20.4669189453125,45.71435546875,45.7142333984375,45.71435546875s45.71435546875-20.46728515625,45.71435546875-45.71435546875c0-25.24755859375-20.467041015625-45.71435546875-45.71435546875-45.71435546875h0Z" fill="#333"/>
    </g>
    <g id="savia">
      <path d="M621.717854507608536,624.857132966817517c0,4.06935321592573.001691545693575,8.138061203080724-.024012973382924,12.207414419002816-.019688196770403,3.427542415294738-.059221537848316,6.854334970132186-.152099603386887,10.280848507120027-.202375131544613,7.466744265218949-.641845677859237,14.998307863821537-1.969168449268182,22.382166390118073-1.346505248334324,7.490617729677979-3.543997488836794,14.46215763381224-7.008248189518781,21.267978375941311-3.404872215296564,6.689173843820754-7.854003597071824,12.810563809322048-13.161463628097408,18.118023840344904-5.307460031022856,5.307460031024675-11.428849996525059,9.756591412800844-18.118023840344904,13.161463628097408-6.805820742127253,3.464250700682896-13.777343207646481,5.661725502568515-21.267978375942221,7.008248189518781-7.383841087678775,1.327322771408944-14.915422124899123,1.766793317723568-22.382166390118073,1.969168449268182-3.426513536987841.09287806553948-6.853306091824379.132411406617393-10.280831068503176.152099603386887-4.069353215924821.025704519077408-8.138061203077996.023995534769711-12.207414419002816.023995534769711h-79.428568301818814c-4.069353215922092,0-8.138061203077996.001708984307697-12.207414419002816-.023995534769711-3.427524976678797-.019688196769494-6.854317531512606-.059221537847407-10.280831068503176-.152099603386887-7.466744265218949-.202375131544613-14.998325302439298-.641845677859237-22.382166390115344-1.969168449268182-7.490635168298468-1.346522686950266-14.462157633814968-3.543997488835885-21.267978375945859-7.008248189518781-6.689173843818935-3.404872215296564-12.81056380931841-7.854003597072733-18.118023840343994-13.161463628097408-5.307460031023766-5.307460031022856-9.756591412800844-11.42884999652415-13.161463628097408-18.118023840344904-3.464250700679258-6.805820742129072-5.661742941184457-13.777360646263332-7.008248189516053-21.267978375941311-1.327322771411673-7.383858526296535-1.766793317726297-14.915422124899123-1.969168449268182-22.382166390118073-.092878065541299-3.426513536987841-.132411406619212-6.853306091825289-.152099603389615-10.280848507120027-.025721957690621-4.069353215922092-.024012973383833-8.138061203077086-.024012973383833-12.207414419002816v-79.428550863201963c0-4.06935321592573-.001708984306788-8.138061203078905.024012973383833-12.207414419002816.019688196770403-3.427524976679706.059221537848316-6.854334970128548.152099603389615-10.280831068503176.202375131541885-7.466744265218949.641845677856509-14.998325302440207,1.969168449268182-22.382166390118073,1.346505248331596-7.490635168296649,3.543997488836794-14.46215763381224,7.008248189516053-21.267995814559981,3.404872215296564-6.689156405202084,7.854003597073643-12.810546370705197,13.161463628097408-18.118006401728053,5.307460031025585-5.307460031022856,11.428849996525059-9.756591412800844,18.118023840343994-13.161463628097408,6.805820742130891-3.46426813929429,13.777343207647391-5.661742941183547,21.267978375945859-7.008248189515143,7.383841087676046-1.327340210025795,14.915422124896395-1.766793317727206,22.382166390115344-1.969185887885033,3.426513536990569-.092860626924448,6.853306091824379-.132393968002361,10.280831068503176-.152099603386887,4.069353215924821-.025704519079227,8.138061203080724-.023995534769711,12.207414419002816-.023995534769711h79.428568301818814c4.069353215924821,0,8.138061203077996-.001708984309516,12.207414419002816.023995534769711,3.427524976678797.019705635384526,6.854317531515335.059238976462439,10.280831068503176.152099603386887,7.466744265218949.202392570157826,14.998325302439298.641845677859237,22.382166390118073,1.969185887885033,7.490635168295739,1.346505248331596,14.462157633814968,3.543980050220853,21.267978375942221,7.008248189515143,6.689173843819844,3.404872215296564,12.810563809322048,7.854003597074552,18.118023840344904,13.161463628097408,5.307460031025585,5.307460031022856,9.756591412800844,11.428849996525969,13.161463628097408,18.118006401728053,3.464250700681987,6.805838180747742,5.661742941184457,13.777360646263332,7.008248189518781,21.267995814559981,1.327322771408944,7.383841087677865,1.766793317723568,14.915422124899123,1.969168449268182,22.382166390118073.092878065538571,3.426496098374628.132411406616484,6.85330609182347.152099603386887,10.280831068503176.025704519076498,4.069353215923911.024012973382924,8.138061203077086.024012973382924,12.207414419002816v79.428550863201963Z" fill="#fff"/>
      <path id="gradient" d="M411.431502955966607,630.856478782547129h50.838394343582877c11.539253870527318,0,20.193829422692033-10.556640209431862,17.93078542695639-21.871511415800342l-9.537074122335071-47.684202224445471c-2.263026557120611-11.314888644985331,6.391566433660046-21.871528854417193,17.930802865572332-21.871528854417193h50.838411782197909" fill="none" stroke="url(#linear-gradient-2)" stroke-linecap="round" stroke-linejoin="round" stroke-width="91.428376004663036"/>
      <path d="M539.432823251941045,502.8585023410742c9.768693811877711,0,18.95274060436077,3.80405084076483,25.860280790030629,10.711434078895763,6.907540185669859,6.907313483668986,10.711634622973179,16.091011503844129,10.711634622973179,25.859321666184769,0,9.768310162338821-3.80409443730332,18.951990743898932-10.711634622973179,25.85932166618295-6.907540185669859,6.90736579951772-16.091586978152918,10.711425359590066-25.860280790030629,10.711425359590066h-17.380754059099672c-2.739187950206542,0-5.333984165024958,1.228097049868666-7.070556362288698,3.346435415140149-1.736607074494714,2.118286049424569-2.431954424354444,4.903581698708877-1.894740438805457,7.589564433374107l2.975516065902411,14.876778153206033c3.236014102523768,16.178745177847304-.907575299093878,32.776104318008947-11.368198492215924,45.536253090253012-10.460797579276004,12.759956947473256-25.923792227262311,20.07817652545782-42.424157788653247,20.07817652545782h-50.838446659429792c-9.768728689108684,0-18.952723165744828-3.804059560072346-25.860298228645661-10.711425359588247-6.907487869823854-6.907313483668986-10.711599745742205-16.091011503844129-10.711599745742205-25.859321666184769,0-9.768310162338821,3.804111875918352-18.951990743898932,10.711599745742205-25.859321666184769,6.907575062900833-6.907365799515901,16.091569539536977-10.711425359588247,25.860298228645661-10.711425359588247h17.380527357100618c2.739118195744595,0,5.333966726409017-1.228097049868666,7.070538923672757-3.346383099293234s2.431954424354444-4.903599137323909,1.894757877420489-7.589512117529011l-2.975376556979427-14.876935100744959c-3.235944348061821-16.179268336307359.907732246632804-32.776627476470821,11.368564703139782-45.536357721943205,10.460937088198989-12.759895912320644,25.923844543108316-20.078028297228229,42.423913648038251-20.078028297228229h50.838411782197909M539.432823251941045,493.715645558129836h-50.838411782197909c-19.249929487751615,0-37.289985278710446,8.537815302855961-49.494347940018997,23.424306764831272-12.204414977155466,14.886491461975311-17.038695618324709,34.250190476497664-13.263427212252282,53.126026787011142l2.975376556979427,14.876882784898044h-17.380527357100618c-25.247470406788125,0-45.71475475733132,20.466796069313204-45.71475475733132,45.713603808715561,0,25.246860055249272,20.467284350543196,45.71360380871738,45.71475475733132,45.71360380871738h50.838446659429792c19.250191066981643,0,37.29029917378648-8.537771706316562,49.494644396479998-23.424559624754693,12.20406620484755-14.886805357051344,17.038399161862799-34.250329985421558,13.262973808252355-53.125922155319131l-2.975481188671438-14.876725837359118h17.380754059099672c25.247452968172183,0,45.714772195947262-20.466796069313204,45.714772195947262-45.713603808715561,0-25.246860055251091-20.467319227775079-45.713612528024896-45.714772195947262-45.713612528024896h0Z" fill="#333"/>
      <g id="rigth-eye">
        <circle cx="539.432823251940817" cy="539.429205770307817" r="27.428849366675536" fill="url(#New_Gradient_Swatch_1-5)"/>
        <circle cx="539.432823251940817" cy="539.429205770307817" r="15.999964492919505" fill="#333" stroke="url(#New_Gradient_Swatch_1-6)" stroke-miterlimit="10" stroke-width=".285714274466976"/>
      </g>
      <g id="left-eye">
        <circle cx="411.43150295596638" cy="630.856448264970822" r="27.428849366675536" fill="url(#New_Gradient_Swatch_1-7)"/>
        <circle cx="411.432828290735642" cy="630.85777359974054" r="16.002248951534852" fill="#333" stroke="url(#New_Gradient_Swatch_1-8)" stroke-miterlimit="10" stroke-width=".285714274466976"/>
      </g>
    </g>
    <g id="calendar-2" data-name="calendar">
      <path d="M621.717854507612174,988.932582235711379c0,4.06935321592573.001691545693575,8.138061203080724-.024012973382924,12.207414419002816-.019688196770403,3.427542415292919-.059221537848316,6.854334970132186-.152099603386887,10.280848507120027-.202375131544613,7.466744265218949-.641845677859237,14.998307863823356-1.969168449268182,22.382166390118073-1.346505248334324,7.490617729679798-3.543997488836794,14.46215763381224-7.008248189518781,21.26797837594313-3.404872215297473,6.689173843818935-7.854003597071824,12.810563809322048-13.161463628097408,18.118023840344904-5.307460031022856,5.307460031022856-11.428849996525059,9.756591412797206-18.118023840344904,13.161463628095589-6.805820742128162,3.464250700682896-13.777343207646481,5.661725502568515-21.267978375942221,7.0082481895206-7.383841087679684,1.327322771407125-14.915422124899123,1.766793317721749-22.382166390118073,1.969168449268182-3.426513536987841.092878065534023-6.853306091824379.132411406615574-10.280831068503176.152099603385068-4.069353215924821.025704519077408-8.138061203077996.023995534769711-12.207414419002816.023995534769711h-79.428568301818814c-4.069353215922092,0-8.138061203077996.001708984307697-12.207414419002816-.023995534769711-3.427524976678797-.019688196769494-6.854317531512606-.059221537851045-10.280831068503176-.152099603385068-7.466744265218949-.202375131546432-14.998325302439298-.641845677861056-22.382166390116254-1.969168449268182-7.490635168297558-1.346522686952085-14.462157633814058-3.543997488837704-21.267978375944949-7.0082481895206-6.689173843818935-3.404872215298383-12.81056380931841-7.854003597072733-18.118023840344904-13.161463628095589-5.307460031022856-5.307460031022856-9.756591412799935-11.428849996525969-13.161463628096499-18.118023840344904-3.464250700679258-6.805820742130891-5.661742941184457-13.777360646263332-7.008248189516053-21.26797837594313-1.327322771411673-7.383858526294716-1.766793317726297-14.915422124899123-1.969168449268182-22.382166390118073-.092878065541299-3.426513536987841-.132411406619212-6.853306091827108-.152099603389615-10.280848507120027-.025721957690621-4.069353215922092-.024012973383833-8.138061203077086-.024012973383833-12.207414419002816v-79.428550863201963c0-4.06935321592573-.001708984306788-8.138061203077086.024012973383833-12.207414419004635.019688196770403-3.427524976677887.059221537848316-6.854334970126729.152099603389615-10.280831068504995.202375131541885-7.466744265215311.641845677856509-14.998325302438388,1.969168449268182-22.382166390114435,1.346505248331596-7.49063516829483,3.543997488836794-14.46215763381224,7.008248189516053-21.267995814558162,3.404872215296564-6.689156405203903,7.854003597073643-12.810546370705197,13.161463628096499-18.118006401729872,5.307460031026494-5.307460031022856,11.428849996525969-9.756591412799025,18.118023840344904-13.161463628097408,6.805820742130891-3.46426813929429,13.777343207647391-5.661742941187185,21.267978375944949-7.008248189515143,7.383841087676956-1.327340210025795,14.915422124897304-1.766793317725387,22.382166390116254-1.969185887885033,3.426513536990569-.092860626924448,6.853306091824379-.132393968002361,10.280831068503176-.152099603386887,4.069353215924821-.025704519079227,8.138061203080724-.023995534769711,12.207414419002816-.023995534769711h79.428568301818814c4.069353215924821,0,8.138061203077996-.001708984309516,12.207414419002816.023995534769711,3.427524976678797.019705635384526,6.854317531515335.059238976462439,10.280831068503176.152099603386887,7.466744265218949.202392570159645,14.998325302438388.641845677859237,22.382166390118073,1.969185887885033,7.490635168295739,1.346505248327958,14.462157633814058,3.543980050220853,21.267978375942221,7.008248189515143,6.689173843819844,3.404872215298383,12.810563809322048,7.854003597074552,18.118023840344904,13.161463628097408,5.307460031025585,5.307460031024675,9.756591412799935,11.428849996525969,13.161463628097408,18.118006401729872,3.464250700681987,6.805838180745923,5.661742941184457,13.777360646263332,7.008248189518781,21.267995814558162,1.327322771408944,7.383841087676046,1.766793317723568,14.915422124899123,1.969168449268182,22.382166390114435.092878065538571,3.426496098378266.132411406616484,6.853306091827108.152099603386887,10.280831068504995.025704519076498,4.069353215927549.024012973382924,8.138061203078905.024012973382924,12.207414419004635v79.428550863201963Z" fill="url(#blue-cyan)"/>
      <rect x="384.003595270987717" y="857.78973897114156" width="182.857135665941314" height="182.857135665937676" rx="45.714283914715452" ry="45.714283914715452" fill="url(#linear-gradient-3)"/>
      <path d="M521.146453857421875,866.93212890625c20.165557861328125,0,36.571456909179688,16.40625,36.571456909179688,36.57177734375v91.4287109375c0,20.16552734375-16.405899047851562,36.5712890625-36.571456909179688,36.5712890625h-91.428569793701172c-20.165561676025391,0-36.571435928344727-16.40576171875-36.571435928344727-36.5712890625v-91.4287109375c0-20.16552734375,16.405874252319336-36.57177734375,36.571435928344727-36.57177734375h91.428569793701172M521.146453857421875,857.78955078125h-91.428569793701172c-25.247310638427734,0-45.714279510546476,20.46728515625-45.714279510546476,45.71435546875v91.4287109375c0,25.2470703125,20.466968872118741,45.71435546875,45.714279510546476,45.71435546875h91.428569793701172c25.247314453125,0,45.714279174804688-20.46728515625,45.714279174804688-45.71435546875v-91.4287109375c0-25.2470703125-20.466964721679688-45.71435546875-45.714279174804688-45.71435546875h0Z" fill="#333"/>
      <polygon points="557.7178955078125 921.78955078125 393.036656379699707 921.78955078125 393.036656379699707 930.9326171875 557.7178955078125 930.9326171875 557.7178955078125 921.78955078125 557.7178955078125 921.78955078125" fill="#333"/>
      <polygon points="448.00360107421875 839.50390625 438.860736846923828 839.50390625 438.860736846923828 885.21826171875 448.00360107421875 885.21826171875 448.00360107421875 839.50390625 448.00360107421875 839.50390625" fill="#333"/>
      <polygon points="512.003585815429688 839.50390625 502.860725402832031 839.50390625 502.860725402832031 885.21826171875 512.003585815429688 885.21826171875 512.003585815429688 839.50390625 512.003585815429688 839.50390625" fill="#333"/>
    </g>
    <g id="screen-icons">
      <path d="M1625.1640625,280.8359375h-54.1494140625c-6.8291015625,0-10.3828125-.66796875-14.0830078125-2.646484375-3.361328125-1.796875-5.978515625-4.4140625-7.7783203125-7.77734375-1.978515625-3.69921875-2.646484375-7.2529296875-2.646484375-14.083984375v-8.2978515625c0-6.830078125.66796875-10.3837890625,2.646484375-14.083984375,1.7998046875-3.3642578125,4.4169921875-5.98046875,7.7783203125-7.77734375,3.697265625-1.978515625,7.2509765625-2.646484375,14.0830078125-2.646484375h54.1494140625c6.83203125,0,10.3857421875.66796875,14.083984375,2.646484375,3.361328125,1.7978515625,5.978515625,4.4140625,7.77734375,7.77734375,1.978515625,3.7001953125,2.646484375,7.25390625,2.646484375,14.083984375v8.2978515625c0,6.8310546875-.66796875,10.384765625-2.646484375,14.0830078125-1.7978515625,3.36328125-4.4150390625,5.98046875-7.7783203125,7.7783203125-3.7001953125,1.978515625-7.25390625,2.646484375-14.0830078125,2.646484375ZM1571.0146484375,231.1650390625c-6.6904296875,0-8.6337890625.7548828125-10.478515625,1.7421875-2.0078125,1.0732421875-3.5703125,2.6357421875-4.64453125,4.6435546875-.9873046875,1.845703125-1.7421875,3.7900390625-1.7421875,10.4794921875v8.2978515625c0,6.689453125.7548828125,8.6328125,1.7421875,10.4794921875,1.07421875,2.0078125,2.63671875,3.5703125,4.6435546875,4.6435546875,1.8466796875.9873046875,3.791015625,1.7421875,10.4794921875,1.7421875h54.1494140625c6.6884765625,0,8.6328125-.7548828125,10.4794921875-1.7421875,2.0078125-1.0732421875,3.5703125-2.6357421875,4.6435546875-4.6435546875.9873046875-1.8466796875,1.7421875-3.7900390625,1.7421875-10.4794921875v-8.2978515625c0-6.689453125-.7548828125-8.6337890625-1.7421875-10.48046875-1.0732421875-2.0068359375-2.6357421875-3.5693359375-4.6435546875-4.642578125-1.845703125-.9873046875-3.7890625-1.7421875-10.4794921875-1.7421875h-54.1494140625Z" fill="#f2f2f2"/>
      <path d="M1649.671641791044749,245.17444029850958v15.28358208955251c3.074789246516957-1.294429949863115,5.074287528421337-4.30564037721706,5.074287528421337-7.641791044778074,0-3.336151123046875-1.99949828190438-6.347361322659708-5.074287528421337-7.641791044774436" fill="#f2f2f2"/>
      <path d="M1570.215570706041035,234.985074626867572h55.747851926887961c4.258001982276255,0,5.802049323694519.443346194366313,7.358711812034016,1.275857726137474,1.556662488339498.832511560241983,2.778342175839498,2.05418828708207,3.610854419308453,3.610849181219237.832504955691547,1.556661121881916,1.275857042910502,3.100715295593545,1.275857042910502,7.35871454494918v9.897216796875c0,4.258000160334632-.443352087218955,5.802052967585041-1.275857042910502,7.358713633981097-.832512243468955,1.556662488339498-2.054191930968955,2.778338531948975-3.610854419308453,3.61085077541793s-3.100709829757761,1.275857042910502-7.358711812034016,1.275857042910502h-55.747851926887961c-4.257999249359273,0-5.802053423070902-.443344799437909-7.358714544952818-1.275857042910502-1.556660894137167-.832512243468955-2.778337620977254-2.054188287078432-3.610849181217418-3.61085077541793-.83251153177298-1.556660666396056-1.275857726139293-3.100713473646465-1.275857726139293-7.358713633981097v-9.897216796875c0-4.257999249355635.443346194366313-5.802053423067264,1.275857726139293-7.35871454494918.832511560240164-1.556660894137167,2.054188287080251-2.778337620977254,3.610849181217418-3.610849181219237,1.556661121881916-.832511531771161,3.100715295593545-1.275857726137474,7.358714544952818-1.275857726137474Z" fill="#f2f2f2"/>
      <path d="M1490.567503060867239,237.356172020758095c9.503170184236296.000394451082684,18.642949801773284,3.458332118701946,25.530280725279226,9.659110453590984.518634853078765.478723326723411,1.347616167211527.472685401116905,1.858413013060272-.01353705107249l4.957668930737782-4.738176488164754c.258636019123514-.246611182370543.402839319029226-.580659325445595.400718575092469-.928226300140523-.002171758394979-.347566063726845-.150485366137218-.67999449772833-.412153101678996-.923724274136475-18.077046408581737-16.405789958898822-46.595668508045492-16.405789958898822-64.672709479260448,0-.26185839923528.243548492886475-.410433667586403.575875808943238-.412878193190409.923443694609887-.002384735236774.347566974698566.141560369580475.681717146690062.400012301093739.928506879667111l4.959098502769848,4.738176488164754c.510470262215676.486954874064395,1.340090623543801.492998265508504,1.85841119111501.01353705107249,6.888209100980021-6.201185539586731,16.029038158814728-9.659133227905841,25.533137534981506-9.659110453590984h0ZM1490.56068169892751,253.182781162548054c5.186272009093955-.000317018424539,10.187467204990753,1.918777693561424,14.03181115904772,5.384388482390932.519968516791778.491850440183043,1.339049381997029.481184774373105,1.845914470615753-.024031454056967l4.918664732977049-4.947586287311424c.259025915343955-.259516018541035.402751865671235-.611570443681558.399086112405712-.977400594685605-.003807864972259-.365830151000409-.154690415112782-.714903874184529-.418967175839498-.969121676771465-11.706801684935272-10.84107720674001-29.836274559818776-10.84107720674001-41.54307806669749,0-.264438913829508.254214158700051-.415313265217264.603462788596516-.418845105526998.969411366022541-.003408859025512.365948577426025.140815393247976.717970207555481.400386070137756.977110905434529l4.917239061041982,4.947586287311424c.506870554454508.505216228430072,1.325951419659759.51588189424001,1.845918114506276.024031454056967,3.841804162779226-3.463320604008914,8.839027518655712-5.382251340950461,14.021870627331737-5.384388482390932h0ZM1499.806064890392008,264.711742799674539c.257142024252971-.276789878731506.398750874534016-.657685692629457.39139386077477-1.052763526120543-.007353369870543-.395077833487449-.163027635262551-.769316260491905-.430259590719288-1.034358238106506-5.3115234375-4.927271600980021-13.090727393306224-4.927271600980021-18.402250830806224,0-.267417793844288.264826988106506-.423343487640523.638948810636066-.430962861473745,1.034030288014037-.007619373835041.395077833487449.133743513875743.776097539644979.39071063141273,1.053091476213012l8.318352087220774,9.20556640625c.243801743235963.270544251397951.576201026118724.422804191930481.923026469215984.422804191930481s.679221082089498-.152259940532531.923026469215984-.422804191930481l8.316963765159016-9.20556640625Z" fill="#f2f2f2"/>
      <path d="M1359.874595983704239,255.999907080808043h4.075622103107889c2.25090368470137,0,4.075621647621119,1.967274224578432,4.075621647621119,4.39403021513499v8.788060430269979c0,2.426754168609477-1.824717962919749,4.394028393191547-4.075621647621119,4.394028393191547h-4.075622103107889c-2.250904026315766,0-4.07562210310698-1.96727422458207-4.07562210310698-4.394028393191547v-8.788060430269979c0-2.426755990556558,1.824718076791214-4.39403021513499,4.07562210310698-4.39403021513499h0ZM1380.125342525652741,246.829757462688576h4.075621647622029c2.250903684700461,0,4.07562164762021,1.995785841299949,4.07562164762021,4.457710835471516v17.83084516382587c0,2.461928638062091-1.824717962919749,4.457712657418597-4.07562164762021,4.457712657418597h-4.075621647622029c-2.25090368470137,0-4.075621647621119-1.995784019356506-4.075621647621119-4.457712657418597v-17.83084516382587c0-2.461924994171568,1.824717962919749-4.457710835471516,4.075621647621119-4.457710835471516ZM1400.758176888992239,236.895429468866496h4.075621647622029c2.250903684700461,0,4.075621647621119,1.970694926247234,4.075621647621119,4.401671452309529v27.877251923975564c0,2.430977437030378-1.824717962920658,4.401673274252971-4.075621647621119,4.401673274252971h-4.075621647622029c-2.25090368470137,0-4.075621647621119-1.970695837222593-4.075621647621119-4.401673274252971v-27.877251923975564c0-2.430976526062295,1.824717962919749-4.401671452309529,4.075621647621119-4.401671452309529ZM1425.08454553404772,227.725279850747029c2.25090368470228,0,4.075625291512551,1.924507254985656,4.075625291512551,4.298507462684938v37.253731343284016c0,2.374001574160502-1.824721606810272,4.298507462688576-4.075625291512551,4.298507462688576h-4.075618003729687c-2.25090368470228,0-4.075625291512551-1.924505888528074-4.075625291512551-4.298507462688576v-37.253731343284016c0-2.374000207699282,1.824721606810272-4.298507462684938,4.075625291512551-4.298507462684938h4.075618003729687Z" fill="#f2f2f2"/>
      <path d="M492.585813607742239,226.278509794778074c2.448111007463012,0,4.771017957089498.450306451140932,6.968698985541778,1.350921175373514,2.197688316230597.900614724228944,4.146513526118724,2.294732392721926,5.846475629663473,4.182354827422387,1.699976679105021,1.887622434704099,3.036847014926025,4.311284762712603,4.010640158582646,7.270988805972593.973793143656621,2.959702221312909,1.460689715484477,6.505914033346926,1.460689715484477,10.638628148321004v.063432835821004c0,5.141033115669416-.741298390857992,9.541354506760399-2.223866021455251,13.200967817163473-1.482582206156621,3.659613310399436-3.60006121735023,6.463954640857992-6.352451609141099,8.413027635258914-2.752390391791778,1.94907299440456-6.04578912080251,2.923609491605021-9.880167035914383,2.923609491605021-2.806247084888128,0-5.335543959888128-.512250757928996-7.587905200560272-1.536759561564395-2.252361240671235-1.024508803639037-4.11760290345137-2.439438549441547-5.595717700559362-4.244796525188576-1.478122084888128-1.805357975747029-2.464800023321004-3.872292589785502-2.96003381529863-6.200807486005942l-.074830923506852-.341942630599078h8.040607509327856l.116954291044749.308739505599078c.40471227845137,1.061177267954918.981722248134247,1.991608121501486,1.731022621268494,2.791292560632428s1.656519647855021,1.419805270521465,2.721665111940638,1.860366138062091c1.065138176305481.440560867536988,2.26904296875.660841301305481,3.61170708955251.660841301305481,2.415068213618724,0,4.389094566230597-.713371618472593,5.922057194496119-2.140114855410502,1.532955340484477-1.426743236941547,2.68209246735023-3.342117537315062,3.447425956156621-5.746122901120543.765318913246119-2.404005363805481,1.200851212686757-5.064631675606506,1.30656774720137-7.981882579289959.021149137126486-.309566668609477.031716417910502-.61706725163458.031716417910502-.922501749068033v-.900696711752971l-1.413858442164383-7.642170009330584c0-1.754314365669416-.402985074626486-3.336750087451946-1.208940648321004-4.747303521453432-.805970149252971-1.410555255948566-1.890595848880366-2.529879897389037-3.253913537779226-3.357975746268494-1.363310401119634-.828095848879457-2.897016382928996-1.242143773321004-4.60111065764977-1.242143773321004-1.668748542443609,0-3.190058010727626.405209669424949-4.563942980410502,1.215630830221926-1.373877681902741.810421160800615-2.469085237872605,1.906701842352049-3.285622667910502,3.288843866605021-.816530142256852,1.382142024252971-1.224798857276255,2.933025303173054-1.224798857276255,4.652649836752971v.063432835821004c0,1.755305503731506.390508395523284,3.316843516793597,1.171525186568033,4.684614039178996s1.849551072760732,2.442328154153074,3.205588269589498,3.223676539178996c1.356044484607992.78134838502956,2.896681145055481,1.172020755599078,4.621924556902741,1.172020755599078,1.733165228544749,0,3.28504693330251-.382083722015523,4.655623250932877-1.146251166046568s2.460507520988358-1.817831010957889,3.269771746734477-3.160987056900922c.809264225747029-1.343156045943033,1.213896338619634-2.878017140857992,1.213896338619634-4.604579640857992v-.04162779850958h1.891586986940638v8.416744402988115h-1.110074626865753c-.543143656716893,1.200927734375-1.353559351678996,2.322152664411988-2.43126166044749,3.363674790110963-1.077702308769403,1.041522125698975-2.406898612406621,1.879941114737449-3.987603486474654,2.515260611005942-1.580697586286988.635319496268494-3.420504897387218.95297924440456-5.519400069962103.95297924440456-2.921547049906621,0-5.506843225280136-.654315094448975-7.755903101678996-1.962948927241086-2.249052588619634-1.308633832788473-4.010640158582646-3.105567135025922-5.284748134328765-5.390799906715984s-1.911161963619634-4.87342583955251-1.911161963619634-7.764575559700461v-.063432835821004c0-3.091359608210041.726008628731506-5.849862625349488,2.178025886194519-8.275507229478535s3.458824043843379-4.331850877446414,6.020420359142008-5.718618819963012c2.56159631529772-1.386767942512961,5.489170359141099-2.080151002795901,8.782722131529226-2.080151002795901ZM523.59953649720137,267.041044776120543c-1.437806086753881,0-2.637739039178996-.481033552940062-3.599813432835617-1.443097014926025-.962059818097259-.962063461985963-1.443097014925115-2.140858208953432-1.443097014925115-3.536380597015523,0-1.416667881294416.481037196827856-2.606033552936424,1.443097014925115-3.568097014926025.962074393656621-.962063461985963,2.162007346081737-1.443097014922387,3.599813432835617-1.443097014922387,1.458955223880366,0,2.664179104477626.481033552936424,3.615671641790868,1.443097014922387.951492537314152.962063461989601,1.427238805970774,2.151429133631609,1.427238805970774,3.568097014926025,0,1.395522388062091-.475746268656621,2.57431713502956-1.427238805970774,3.536380597015523-.951492537313243.962063461985963-2.156716417910502,1.443097014926025-3.615671641790868,1.443097014926025ZM523.59953649720137,243.507462686568033c-1.437806086753881,0-2.637739039178996-.481033552940062-3.599813432835617-1.443097014926025-.962059818097259-.962063461985963-1.443097014925115-2.140858208953432-1.443097014925115-3.536380597015523,0-1.416666059350973.481037196827856-2.606031730992981,1.443097014925115-3.568097014926025.962074393656621-.962065283929405,2.162007346081737-1.443097014922387,3.599813432835617-1.443097014922387,1.458955223880366,0,2.664179104477626.481031730992981,3.615671641790868,1.443097014922387.951492537314152.962065283933043,1.427238805970774,2.151430955575051,1.427238805970774,3.568097014926025,0,1.395522388062091-.475746268656621,2.57431713502956-1.427238805970774,3.536380597015523-.951492537313243.962063461985963-2.156716417910502,1.443097014926025-3.615671641790868,1.443097014926025ZM558.53132287779863,273.194029850747029v-8.790403451494058h-22.367012593284016v-6.677792677237449c1.194000699627395-2.065200122433453,2.402431203358901-4.133541277984477,3.625335237873514-6.205019822762551,1.222889458955251-2.071478544774436,2.459931786380366-4.136266907647951,3.711068680036988-6.194365088616905,1.251151469216893-2.058098180972593,2.50766674440365-4.096952979245543,3.769545825560272-6.116560750935605,1.261879081156621-2.019609593629866,2.523452075559362-4.015925620915368,3.784660680969864-5.988951725743391s2.516572411380366-3.904258614158607,3.76607684235114-5.793697527984477h11.542298274252971v30.233179804101383h6.170329990672144v6.743207789178996h-6.170329990672144v8.790403451494058h-7.831972947760732ZM543.757914528918263,257.842788013062091h14.91563666044749v-23.873542444031045h-.460879197761642c-.949189598880366,1.436488820545492-1.911001632462103,2.916010159166035-2.885450676305481,4.438564015857992-.974449043843379,1.522552034748514-1.958153568097259,3.075417589785502-2.951113572761642,4.658596665110963-.992960004663473,1.583179075325461-1.980629081156621,3.175274749301025-2.963007229477626,4.776294309700461-.982378148320095,1.601019560403074-1.948912663246119,3.200053200795082-2.899574393656621,4.79710820895707s-1.86921350279863,3.177752594448975-2.755611590484477,4.742100046642008v.460879197762551ZM589.841184701492239,273.194029850747029v-37.706360774252971h-.547603777984477l-11.388671875,8.03515625v-7.683302238805481l11.95808069029863-8.412284281715984h8.137739039178996v45.766791044774436h-8.159544076493148Z" fill="#f2f2f2"/>
      <path d="M1179.852174673507761,322.865671641793597c10.231809701492239,0,20.283290578357992.039616371268494,30.411642957089498-2.448548274256609,9.992158348880366-2.453460237873514,19.216388759327856-7.090485074626486,27.187179337686757-13.713152985073975,16.051335121268494-13.339151410913473,25.354973180969864-33.438491138058453,25.354973180969864-54.524865904852049,0-21.086378410680481-9.302442863806391-41.184431844681967-25.354973180969864-54.523585077538883-7.968254430970774-6.621383439251076-17.18997784514977-11.258406909546466-27.180882695895889-13.713150479899923-10.130888526119634-2.489444426639238-20.18359375-2.44983160674019-30.417939598880366-2.44983160674019h-311.705653859608901c-10.233026760727626,0-20.283217700559362-.039612819899048-30.41158465485023,2.448546224568418-9.992176568330251,2.453458643671183-19.216406978777741,7.090482569452433-27.185940415111872,13.713149568928202-16.051293216534759,13.339155054803996-25.354965893190638,33.438492960001895-25.354965893190638,54.524871370682376,0,21.085092117540626,9.303672676655879,41.185714493938576,25.353705107276255,54.523583255599078,7.968272650419749,6.621385261194519,17.189981489039383,11.25841009794749,27.180897271455251,13.713152985073975,10.130888526119634,2.489447294778074,20.183601037780136,2.44983092350958,30.417888584421235,2.44983092350958h311.705653859608901Z" fill="#f2f2f2" fill-rule="evenodd"/>
    </g>
  </g>
</svg>