<?xml version="1.0" encoding="UTF-8"?>
<svg xmlns="http://www.w3.org/2000/svg" xmlns:xlink="http://www.w3.org/1999/xlink" viewBox="0 0 2048 1536">
  <defs>
    <linearGradient id="background-gradient" x1="0" y1="0" x2="2048" y2="0" gradientUnits="userSpaceOnUse" gradientTransform="rotate(15 1024 768)">
      <stop offset="0" stop-color="#000000"/>
      <stop offset="1" stop-color="#2d2d2d"/>
    </linearGradient>
    <linearGradient id="linear-gradient" x1="620.453455067961841" y1="876.220666710447404" x2="1427.541919898148308" y2="659.961964338724329" gradientUnits="userSpaceOnUse">
      <stop offset=".1" stop-color="#1a8deb"/>
      <stop offset=".3" stop-color="#00e6ff">
        <animate attributeName="offset" values=".3;.4;.3" dur="6s" repeatCount="indefinite"/>
      </stop>
      <stop offset=".5" stop-color="#c0ff1c"/>
      <stop offset=".7" stop-color="#fffc1c">
        <animate attributeName="offset" values=".7;.6;.7" dur="6s" repeatCount="indefinite"/>
      </stop>
      <stop offset=".9" stop-color="#ff9a1c"/>
    </linearGradient>
    <linearGradient id="New_Gradient_Swatch_1" data-name="New Gradient Swatch 1" x1="0.5" y1="1" x2="0.5" y2="0" gradientUnits="objectBoundingBox">
      <stop offset="0" stop-color="#fff" stop-opacity="0"/>
      <stop offset="1" stop-color="#fff"/>
    </linearGradient>
    <linearGradient id="New_Gradient_Swatch_3" data-name="New Gradient Swatch 3" x1="477.765053359275953" y1="914.363203972241536" x2="1570.234946188174717" y2="621.636778433422933" gradientUnits="userSpaceOnUse">
      <stop offset=".1" stop-color="#1a8deb"/>
      <stop offset=".3" stop-color="#00e6ff">
        <animate attributeName="offset" values=".3;.4;.3" dur="6s" repeatCount="indefinite"/>
      </stop>
      <stop offset=".5" stop-color="#c0ff1c"/>
      <stop offset=".7" stop-color="#fffc1c">
        <animate attributeName="offset" values=".7;.6;.7" dur="6s" repeatCount="indefinite"/>
      </stop>
      <stop offset=".9" stop-color="#ff9a1c"/>
    </linearGradient>
    <linearGradient id="New_Gradient_Swatch_3-2" data-name="New Gradient Swatch 3" x1="528.840271008786658" y1="900.677648495206085" x2="1519.159731093815708" y2="635.322348916597093" xlink:href="#New_Gradient_Swatch_3"/>
    <linearGradient id="New_Gradient_Swatch_3-3" data-name="New Gradient Swatch 3" x1="616.889431267267355" y1="877.081300052646839" x2="1431.120518734179086" y2="658.908737713573032" xlink:href="#New_Gradient_Swatch_3"/>
    <linearGradient id="New_Gradient_Swatch_3-4" data-name="New Gradient Swatch 3" x1="558.598004641145963" y1="892.707754236520486" x2="1489.392047899360023" y2="643.302242025782562" xlink:href="#New_Gradient_Swatch_3"/>
    <linearGradient id="New_Gradient_Swatch_3-5" data-name="New Gradient Swatch 3" x1="587.836975274809447" y1="884.869525422520383" x2="1460.163023754003916" y2="651.130465195887837" xlink:href="#New_Gradient_Swatch_3"/>
    <linearGradient id="New_Gradient_Swatch_3-6" data-name="New Gradient Swatch 3" x1="611.283144469822219" y1="878.587162322926815" x2="1436.716862081686941" y2="657.412864283408226" xlink:href="#New_Gradient_Swatch_3"/>
    <linearGradient id="New_Gradient_Swatch_3-7" data-name="New Gradient Swatch 3" x1="776.178654174371331" y1="834.403529481172882" x2="1271.821345825628669" y2="701.596470518830529" xlink:href="#New_Gradient_Swatch_3"/>
    <linearGradient id="New_Gradient_Swatch_3-8" data-name="New Gradient Swatch 3" x1="941.07411327799673" y1="790.219923801161713" x2="1106.925833509335916" y2="745.780089301861949" gradientTransform="translate(842.98065954704839 -499.135341096700358) rotate(45.000000000000014)" xlink:href="#New_Gradient_Swatch_3"/>
  </defs>
   <g id="background">
    <rect x="0" y="0" width="2048" height="1536" fill="url(#background-gradient)"/>
  </g>
  <g isolation="isolate">
    <g id="app-icon-shape">
      <path d="M1535.999940067969874,906.999949643293803c0,14.24273681640625.005920410159888,28.48321533203125-.084045410148974,42.7259521484375-.068908691409888,11.99639892578125-.207275390630457,23.99017333984375-.532348632810681,35.98297119140625-.708312988290345,26.133605957033069-2.246459960939319,52.494079589841931-6.89208984375,78.337585449222388-4.712768554689319,26.217163085930224-12.403991699220569,50.617553710930224-24.528869628909888,74.437927246090112-11.917053222659888,23.412109375-27.489013671869543,44.836975097659888-46.065124511720569,63.4130859375-18.576110839840112,18.576110839840112-40.0009765625,34.148071289060681-63.4130859375,46.065124511720569-23.820373535148974,12.124877929689319-48.220703125,19.816040039058862-74.437927246090112,24.528869628909888-25.84344482421875,4.645629882808862-52.203979492189319,6.183776855459655-78.33758544921875,6.89208984375-11.992797851560681.325073242180224-23.986572265630457.463439941398974-35.98291015625.532348632808862-14.242736816409888.089965820310681-28.48321533203125.083984375-42.725952148441138.083984375h-277.999999999998181c-14.24273681640625,0-28.48321533203125.005981445310681-42.725952148436591-.083984375-11.996337890625-.068908691409888-23.990112304688409-.207275390628638-35.98291015625-.532348632808862-26.133605957032159-.708312988290345-52.494140625-2.246459960941138-78.337585449219659-6.89208984375-26.21722412109375-4.712829589851026-50.6175537109375-12.403991699220569-74.43792724609375-24.528869628909888-23.412109375-11.917053222659888-44.83697509765625-27.489013671880457-63.4130859375-46.065124511720569s-34.1480712890625-40.0009765625-46.06512451171875-63.4130859375c-12.1248779296875-23.820373535159888-19.81610107421875-48.220764160159888-24.52886962890625-74.437927246090112-4.6456298828125-25.843505859380457-6.18377685546875-52.203979492189319-6.89208984375-78.337585449222388-.3250732421875-11.9927978515625-.46343994140625-23.986572265625-.5323486328125-35.98297119140625-.09002685546875-14.24273681640625-.08404541015625-28.48321533203125-.08404541015625-42.7259521484375v-277.99993896484375c0-14.24273681640625-.0059814453125-28.48321533203125.08404541015625-42.7259521484375.06890869140625-11.996337890625.207275390625-23.99017333984375.5323486328125-35.98291015625.70831298828125-26.13360595703125,2.2464599609375-52.494140625,6.89208984375-78.33758544921875,4.7127685546875-26.21722412109375,12.40399169921875-50.6175537109375,24.52886962890625-74.43798828125,11.91705322265625-23.41204833984375,27.489013671875-44.8369140625,46.06512451171875-63.41302490234375s40.0009765625-34.1480712890625,63.4130859375-46.06512451171875c23.82037353515625-12.12493896484375,48.220703125-19.81610107421875,74.43792724609375-24.52886962890625,25.843444824219659-4.64569091796875,52.2039794921875-6.18377685546875,78.337585449219659-6.89215087890625,11.992797851561591-.32501220703125,23.986572265625-.46337890625,35.98291015625-.5323486328125,14.242736816405341-.0899658203125,28.483215332030341-.083984375,42.725952148436591-.083984375h277.999999999998181c14.242736816409888,0,28.48321533203125-.0059814453125,42.725952148441138.083984375,11.996337890619543.0689697265625,23.990112304689319.20733642578125,35.98291015625.5323486328125,26.133605957029431.7083740234375,52.494140625,2.2464599609375,78.33758544921875,6.89215087890625,26.217224121090112,4.7127685546875,50.617553710941138,12.4039306640625,74.437927246090112,24.52886962890625,23.412109375,11.91705322265625,44.836975097659888,27.489013671875,63.4130859375,46.06512451171875,18.576110839851026,18.57611083984375,34.148071289060681,40.0009765625,46.065124511720569,63.41302490234375,12.124877929689319,23.8204345703125,19.816101074220569,48.22076416015625,24.528869628909888,74.43798828125,4.645629882810681,25.84344482421875,6.183776855459655,52.2039794921875,6.89208984375,78.33758544921875.325073242180224,11.99273681640625.463439941400793,23.986572265625.532348632810681,35.98291015625.089965820308862,14.24273681640625.084045410148974,28.48321533203125.084045410148974,42.7259521484375v277.99993896484375Z" fill="#fff" mix-blend-mode="screen"/>
    </g>
    <g id="icon">
      <g id="icon-2" data-name="icon">
        <path id="gradient" d="M799.995375572991179,928.089002685992455h177.934386461171016c40.387388056127747,0,70.678429586518178-36.948215224067098,62.757811132627467-76.55032628682784l-33.379771367469402-166.894721749171367c-7.920618453893439-39.602111062757103,22.370423076500629-76.550326286813288,62.757811132630195-76.550326286813288h177.934386461169197" fill="none" stroke="url(#linear-gradient)" stroke-linecap="round" stroke-linejoin="round" stroke-width="319.999329458198019"/>
        <g id="contour">
          <path d="M1248,480.096160888671875c34.1904296875,0,66.334594726560681,13.314178466796875,90.510986328130457,37.490020751953125,24.176391601558862,24.17559814453125,37.49072265625,56.31854248046875,37.49072265625,90.50762939453125s-13.314331054691138,66.33197021484375-37.49072265625,90.50762939453125c-24.176391601569776,24.17578125-56.320556640630457,37.489990234375-90.510986328130457,37.489990234375h-60.832641601560681c-9.587158203128638,0-18.6689453125,4.29833984375-24.746948242189319,11.7125244140625-6.078125,7.41400146484375-8.511840820310681,17.16253662109375-6.631591796869543,26.5634765625l10.414306640619543,52.0687255859375c11.326049804689319,56.6256103515625-3.176513671869543,114.71636962890625-39.788696289060681,159.37689208984375-36.61279296875,44.659851074224207-90.733276367189319,70.273620605474207-148.484558105470569,70.273620605474207h-177.9345703125c-34.1905517578125,0-66.33453369140625-13.314208984380457-90.51104736328125-37.489990234380457-24.17620849609375-24.17559814453125-37.4906005859375-56.31854248046875-37.4906005859375-90.50762939453125s13.31439208984375-66.33197021484375,37.4906005859375-90.50762939453125c24.176513671875-24.17578125,56.32049560546875-37.489990234375,90.51104736328125-37.489990234375h60.83184814453125c9.5869140625,0,18.66888427734375-4.29833984375,24.74688720703125-11.71234130859375s8.5118408203125-17.16259765625,6.63165283203125-26.56329345703125l-10.413818359375-52.06927490234375c-11.3258056640625-56.62744140625,3.17706298828125-114.71820068359375,39.78997802734375-159.37725830078125,36.61328125-44.659637451171875,90.733459472658978-70.273101806640625,148.483703613279431-70.273101806640625h177.934448242189319M1248,448.096160888671875h-177.934448242189319c-67.374755859370453,0-130.514953613279431,29.882354736328125-173.230224609373181,81.985076904296875-42.7154541015625,52.10272216796875-59.63543701171875,119.87567138671875-46.4219970703125,185.94110107421875l10.413818359375,52.069091796875h-60.83184814453125c-88.36614990234375,0-160.00164794921875,71.6337890625-160.00164794921875,159.99761962890625,0,88.364013671871362,71.635498046875,159.997619628911707,160.00164794921875,159.997619628911707h177.9345703125c67.375671386720569,0,130.516052246091931-29.882202148441138,173.23126220703125-81.985961914069776,42.714233398439319-52.103820800779431,59.634399414060681-119.876159667966931,46.42041015625-185.940734863279431l-10.414184570310681-52.06854248046875h60.832641601560681c88.366088867189319,0,160.001708984380457-71.6337890625,160.001708984380457-159.99761962890625,0-88.364013671875-71.635620117191138-159.997650146484375-160.001708984380457-159.997650146484375h0Z" fill="#333"/>
        </g>
        <g id="rigth-eye">
          <circle cx="1247.99999939312238" cy="608.093628363176322" r="96.000991078693005" fill="url(#New_Gradient_Swatch_1)"/>
          <circle cx="1247.999999393120561" cy="608.093628363180414" r="55.999884393741972" fill="#333"/>
        </g>
        <g id="left-eye">
          <circle cx="799.995375572991406" cy="928.089002685992455" r="96.000991078695051" fill="url(#New_Gradient_Swatch_1)"/>
          <circle cx="800.000000606880349" cy="928.093627496201407" r="56.007845260341796" fill="#333"/>
        </g>
      </g>
    </g>
    <g id="safe-area-grid">
      <animate attributeName="opacity" values="0;0;0.5;1;0.8;0.5;0" dur="6s" repeatCount="indefinite"/>
      <g id="icon-grid">
      <g>
        <path d="M1535.999940067969874,906.999949643293803c0,14.24273681640625.005920410159888,28.48321533203125-.084045410148974,42.7259521484375-.068908691409888,11.99639892578125-.207275390630457,23.99017333984375-.532348632810681,35.98297119140625-.708312988290345,26.133605957033069-2.246459960939319,52.494079589841931-6.89208984375,78.337585449222388-4.712768554689319,26.217163085930224-12.403991699220569,50.617553710930224-24.528869628909888,74.437927246090112-11.917053222659888,23.412109375-27.489013671869543,44.836975097659888-46.065124511720569,63.4130859375-18.576110839840112,18.576110839840112-40.0009765625,34.148071289060681-63.4130859375,46.065124511720569-23.820373535148974,12.124877929689319-48.220703125,19.816040039058862-74.437927246090112,24.528869628909888-25.84344482421875,4.645629882808862-52.203979492189319,6.183776855459655-78.33758544921875,6.89208984375-11.992797851560681.325073242180224-23.986572265630457.463439941398974-35.98291015625.532348632808862-14.242736816409888.089965820310681-28.48321533203125.083984375-42.725952148441138.083984375h-277.999999999998181c-14.24273681640625,0-28.48321533203125.005981445310681-42.725952148436591-.083984375-11.996337890625-.068908691409888-23.990112304688409-.207275390628638-35.98291015625-.532348632808862-26.133605957032159-.708312988290345-52.494140625-2.246459960941138-78.337585449219659-6.89208984375-26.21722412109375-4.712829589851026-50.6175537109375-12.403991699220569-74.43792724609375-24.528869628909888-23.412109375-11.917053222659888-44.83697509765625-27.489013671880457-63.4130859375-46.065124511720569s-34.1480712890625-40.0009765625-46.06512451171875-63.4130859375c-12.1248779296875-23.820373535159888-19.81610107421875-48.220764160159888-24.52886962890625-74.437927246090112-4.6456298828125-25.843505859380457-6.18377685546875-52.203979492189319-6.89208984375-78.337585449222388-.3250732421875-11.9927978515625-.46343994140625-23.986572265625-.5323486328125-35.98297119140625-.09002685546875-14.24273681640625-.08404541015625-28.48321533203125-.08404541015625-42.7259521484375v-277.99993896484375c0-14.24273681640625-.0059814453125-28.48321533203125.08404541015625-42.7259521484375.06890869140625-11.996337890625.207275390625-23.99017333984375.5323486328125-35.98291015625.70831298828125-26.13360595703125,2.2464599609375-52.494140625,6.89208984375-78.33758544921875,4.7127685546875-26.21722412109375,12.40399169921875-50.6175537109375,24.52886962890625-74.43798828125,11.91705322265625-23.41204833984375,27.489013671875-44.8369140625,46.06512451171875-63.41302490234375s40.0009765625-34.1480712890625,63.4130859375-46.06512451171875c23.82037353515625-12.12493896484375,48.220703125-19.81610107421875,74.43792724609375-24.52886962890625,25.843444824219659-4.64569091796875,52.2039794921875-6.18377685546875,78.337585449219659-6.89215087890625,11.992797851561591-.32501220703125,23.986572265625-.46337890625,35.98291015625-.5323486328125,14.242736816405341-.0899658203125,28.483215332030341-.083984375,42.725952148436591-.083984375h277.999999999998181c14.242736816409888,0,28.48321533203125-.0059814453125,42.725952148441138.083984375,11.996337890619543.0689697265625,23.990112304689319.20733642578125,35.98291015625.5323486328125,26.133605957029431.7083740234375,52.494140625,2.2464599609375,78.33758544921875,6.89215087890625,26.217224121090112,4.7127685546875,50.617553710941138,12.4039306640625,74.437927246090112,24.52886962890625,23.412109375,11.91705322265625,44.836975097659888,27.489013671875,63.4130859375,46.06512451171875,18.576110839851026,18.57611083984375,34.148071289060681,40.0009765625,46.065124511720569,63.41302490234375,12.124877929689319,23.8204345703125,19.816101074220569,48.22076416015625,24.528869628909888,74.43798828125,4.645629882810681,25.84344482421875,6.183776855459655,52.2039794921875,6.89208984375,78.33758544921875.325073242180224,11.99273681640625.463439941400793,23.986572265625.532348632810681,35.98291015625.089965820308862,14.24273681640625.084045410148974,28.48321533203125.084045410148974,42.7259521484375v277.99993896484375Z" fill="none" stroke="url(#New_Gradient_Swatch_3)" stroke-miterlimit="10"/>
        <path id="watch" d="M1024,256h0c282.769775390630457,0,512,229.230194091796875,512,512h0c0,282.769775390630457-229.230224609369543,512-512,512h0c-282.769775390625,0-512-229.230224609369543-512-512h0c0-282.769805908203125,229.230224609375-512,512-512Z" fill="none" stroke="url(#New_Gradient_Swatch_3-2)" stroke-miterlimit="10"/>
        <rect x="682.66998291015625" y="341.329986572265625" width="682.669982910154431" height="853.330047607423694" rx="85.329986572265625" ry="85.329986572265625" fill="none" isolation="isolate" stroke="url(#New_Gradient_Swatch_3-3)" stroke-miterlimit="10"/>
        <rect x="597.33001708984375" y="426.670013427734375" width="853.330017089845569" height="682.669952392576306" rx="85.329986572265639" ry="85.329986572265639" fill="none" isolation="isolate" stroke="url(#New_Gradient_Swatch_3-4)" stroke-miterlimit="10"/>
        <rect x="640" y="384" width="768" height="768" rx="85.760009765625" ry="85.760009765625" fill="none" isolation="isolate" stroke="url(#New_Gradient_Swatch_3-5)" stroke-miterlimit="10"/>
        <g>
          <circle cx="1023.999999999999545" cy="768.000007629394077" r="426.67004013061387" fill="none" isolation="isolate" stroke="url(#New_Gradient_Swatch_3-6)" stroke-miterlimit="10"/>
          <circle cx="1024" cy="768" r="256" fill="none" isolation="isolate" stroke="url(#New_Gradient_Swatch_3-7)" stroke-miterlimit="10"/>
          <circle cx="1023.999984741211392" cy="768" r="85.33000183105105" transform="translate(-243.135356355488739 949.019325194163571) rotate(-45.000000000000014)" fill="none" isolation="isolate" stroke="url(#New_Gradient_Swatch_3-8)" stroke-miterlimit="10"/>
        </g>
      </g>
      </g>
    </g>
  </g>
</svg>