<?xml version="1.0" encoding="UTF-8"?>
<svg xmlns="http://www.w3.org/2000/svg" viewBox="0 0 2048 1536">
  <g id="bg">
    <rect width="2048" height="1536" fill="#fff"/>
  </g>
  <g id="safe-area">
    <rect x="565.36733687658068" y="574.786843288358796" width="917.265326246838981" height="396.145745439151142" rx="169.83699999999817" ry="169.83699999999817" fill="#fff"/>
  </g>
  <g id="logotype">
    <g id="logotype-2" data-name="logotype">
      <path id="a-last-child" d="M1396.178163058730206,721.225006846489123l-37.779257774350299.000000177340553c-2.761423750639551.0000000129603-4.999999991589902,2.238576276631647-4.99999997652958,5.000000027259375l.000000065329914,11.980792025031406c-6.330968565530384-9.785019597391511-21.010188740030571-22.450242147009703-47.203855033810214-22.450242147009703-42.597319010020328,0-80.302117027769782,32.812201954378907-80.302117027769782,85.196100297389421,0,45.765302754020013,29.645964143869605,85.483978547408697,80.302117027769782,85.483978547408697,18.710235123459825,0,38.569618456370335-7.194115347068873,47.203855033810214-22.73788365504879l-.000000065780114,12.269853959360262c-.000000014800207,2.76142374328083,2.238576214869681,5.000000003690729,4.999999958149601,5.000000026810085l37.779257808369948.000000316238584c2.761423765929976.000000023112079,5.000000042470674-2.238576235187793,5.000000041850399-5.000000001118678l-.000000033570359-149.742599574779888c-.000000000619366-2.761423757880038-2.238576265589472-5.000000011839802-5.000000023469511-4.999999998881322ZM1354.279448214249896,801.095596200610089c0,22.502234617380964-18.241665382630345,40.743899999999485-40.743900000009489,40.743899999999485-22.50223461737005,0-40.743900000000394-18.241665382618521-40.743900000000394-40.743899999999485,0-22.50223461737005,18.241665382630345-40.743899999999485,40.743900000000394-40.743899999999485,22.502234617379145,0,40.743900000009489,18.241665382629435,40.743900000009489,40.743899999999485Z" fill="#2d2d2d"/>
      <g id="i">
        <circle cx="1175.570023963892481" cy="673.451255715117441" r="23.886918814462547" fill="#2d2d2d"/>
        <path d="M1156.680412762970263,721.225038706150372l37.77922236223003-.000000046791683c2.761423751359871-.0000000034197,5.000000005889888,2.238576248091704,5.000000006190021,4.999999999450665l.000000016420017,149.742653428329504c.000000000300133,2.76142375262134-2.238576255710541,5.000000005140464-5.000000008330062,5.000000000542059l-37.779222387610389-.000000062900654c-2.761423746020228-.000000004591129-4.999999991840014-2.238576254268992-4.999999991679942-5.000000000291038l.000000008970346-149.742653318638986c.000000000159162-2.761423746620494,2.238576247189485-4.999999996280167,4.999999993809979-4.999999999699867Z" fill="#2d2d2d"/>
      </g>
      <path id="v" d="M1076.012738469280521,880.967692317819456l-38.731888201120455-.000000374819138c-2.11075544050982-.000000020419975-3.994155048540051-1.325491380970561-4.706585072240159-3.312381410889429l-53.692534798119596-149.742653346580482c-1.16794207599014-3.257263715920999,1.24625920040944-6.687618602480143,4.706585139950221-6.687618589110571l36.502679113949853.000000141069904c3.50785285279926.000000013560566,6.606534495349479,2.285218010269091,7.642892077469696,5.636485621011161l29.053776871320224,93.951144931788804,29.053776770520017-93.951144884449604c1.036357580199365-3.35126761446918,4.135039225039691-5.636485614459161,7.642892080809361-5.636485627410366l36.490628008420572-.000000134779839c3.463700977899862-.000000012791133,5.878167414190102,3.436551077840704,4.703887545590078,6.695123043369676l-53.962221961040086,149.74265367416956c-.714606642750368,1.983000164400437-2.596056390179911,3.304876977032109-4.703887575509725,3.304876956630324Z" fill="#2d2d2d"/>
      <path id="a" d="M959.946261984689954,721.225006856169784l-37.779257669189974.00000021931919c-2.761423737029872.000000016039849-4.999999969850251,2.238576260951959-4.999999970969839,4.999999997980922l-.000000004840331,11.98079200265056c-6.330968565539479-9.785019597391511-21.010070368769448-22.450242147009703-47.20373666255-22.450242147009703-42.597437381289637,0-80.30235377029021,32.812201954378907-80.30235377029021,85.196100297389421,0,45.765302754020013,29.646082515130729,85.483978547408697,80.30235377029021,85.483978547408697,18.710235123460734,0,38.56961845638034-7.194115347068873,47.20373666255-22.73788365504879l.000000004870344,12.26985403846993c.000000001089575,2.761423735661083,2.238576231769912,4.999999980031134,4.999999967430085,4.999999998010026l37.779257761500048.000000246091076c2.76142376307962.000000017978891,5.00000003426976-2.238576240011753,5.000000032569915-5.000000003092282l-.000000092350092-149.74259954525769c-.000000001699846-2.761423759282479-2.238576269740406-5.000000012951205-5.000000029020157-4.999999996911356ZM917.258543532389922,801.096365460391098c0,22.502234617379145-18.241665382630345,40.743899999997666-40.743900000000394,40.743899999997666-22.502234617379145,0-40.743899999999485-18.241665382618521-40.743899999999485-40.743899999997666,0-22.502234617371869,18.24166538262034-40.743900000001304,40.743899999999485-40.743900000001304,22.50223461737005,0,40.743900000000394,18.241665382629435,40.743900000000394,40.743900000001304Z" fill="#2d2d2d"/>
      <path id="s" d="M730.809608894529447,766.125650563441013c-3.843041670209459.0000136676681-7.345372966449759-2.199566008810507-9.004631201979464-5.66595193466128-1.561262585550139-3.26166146847936-5.142237648030459-6.422378358589413-13.675538402299935-6.422378358589413-10.074360729900036,0-13.52838002505996,6.330976363040463-13.52838002505996,10.64807724684033,0,7.195719282230129,11.802197093449649,12.089866588230507,24.465832220839729,15.831574477939284,27.055106618089667,7.48341577931933,55.838049599739861,15.542224552758853,55.838049599739861,50.08068505097981,0,35.115506920390544-29.646034447409875,55.837921848069527-65.04766543201913,55.837921848069527-22.988424863180626,0-57.164811023651055-9.886039642329706-64.183125844290771-46.979343152879665-.586318810419471-3.09882103388918,1.7525590285004-5.979932679629201,4.906360155320726-5.979928580940395l35.521671672209777.000046164110245c3.228361718089218.000004195590009,6.236047134450018,1.862932999840268,7.472234003189442,4.845241067159805,4.076183303730431,9.833816114700312,15.094676260940105,9.833816114700312,16.858254324140034,9.833816114700312,8.05882721117996,0,16.69304873289002-4.604797380809032,16.69304873289002-12.375909657228476,0-10.937427172011667-11.80054366153945-12.377563085312431-42.309669574729924-24.17807974839161-20.724115770489334-6.620326288219076-37.994212245899689-20.14702193362973-37.994212245899689-41.734179780509294,0-33.099978013051441,28.782942981740234-54.111742865859924,61.882996724169971-54.111742865859924,19.980001288990024,0,53.753161574260048,7.546900857609216,60.486350907210181,44.419867045058709.564301658089789,3.090285291160399-1.77071617665024,5.950154858781389-4.912101148600414,5.950166031019762l-33.469474464830455.000119033182273Z" fill="#2d2d2d"/>
    </g>
  </g>
</svg>