<?xml version="1.0" encoding="UTF-8"?>
<svg xmlns="http://www.w3.org/2000/svg" viewBox="0 0 2048 1536">
  <g id="bg">
    <rect width="2048" height="1536" fill="#fff"/>
  </g>
  <g id="safe-area">
    <g id="safe-area-2" data-name="safe-area">
      <path d="M589.28485107421875,468.502044677734375c-113.720977783203125,0-205.9100341796875,92.189056396484375-205.9100341796875,205.910064697265625v187.182861328125c.000030517578125,113.720947265625,92.18914794921875,205.9100341796875,205.91009521484375,205.909912109375h868.80517578125c113.720947265625,0,205.9100341796875-92.18902587890625,205.9100341796875-205.90997314453125v-187.18292236328125c0-113.720947265625-92.1890869140625-205.9100341796875-205.9100341796875-205.9100341796875h-868.80511474609375l-.0001220703125.000091552734375Z" fill="#fff"/>
    </g>
  </g>
  <g id="icon-logotype-horizontal-save">
    <g id="logotype-2" data-name="logotype">
      <path id="a-last-child" d="M1547.665330075677048,768.000433710942161l-30.386763466152843.000000142639692c-2.221079377517526.000000010424628-4.021619958302836,1.800545099069495-4.021619946190185,4.021630014758557l.000000052545147,9.636462509150078c-5.092149916268681-7.870345658664519-16.898998901349842-18.05731343295156-37.967193166427023-18.05731343295156-34.262045717814544,0-64.588919415222335,26.391707102118744-64.588919415222335,68.525438445662076,0,36.810222837322726,23.844960256936247,68.756986406575379,64.588919415222335,68.756986406575379,15.049091024722657,0,31.022469525836641-5.78641401033201,37.967193166427023-18.28867097613329l-.000000052907126,9.868962538126652c-.000000011903467,2.221084909779165,1.800540559808724,4.02162999580105,4.021619931405439,4.021630014396578l30.386763493519538.000000254358383c2.221079389815714.000000018590072,4.021619999228278-1.800545065734696,4.021619998728056-4.02162999373104l-.000000027001079-120.441865930917629c-.000000000498403-2.221084921522561-1.800540600603199-4.021630002356687-4.021619983946948-4.021629991933878ZM1513.965188449828929,832.242425249285589c0,18.099132328599808-14.672209139773258,32.771378052990258-32.771296338953107,32.771378052990258-18.099087199172573,0-32.77129633894765-14.67224572439045-32.77129633894765-32.771378052990258,0-18.099132328592532,14.672209139775077-32.771378052990258,32.77129633894765-32.771378052990258,18.099087199179849,0,32.771296338953107,14.672245724397726,32.771296338953107,32.771378052990258Z" fill="#2d2d2d"/>
      <g id="i">
        <circle cx="1370.224910747621607" cy="729.57476362693842" r="19.212845874851727" fill="#2d2d2d"/>
        <path d="M1355.031543240021165,768.000459336497443l30.386734983337192-.00000003763671c2.221079378096874-.000000002750312,4.021619969806125,1.800545076113849,4.021619970047141,4.021629992390444l.000000013206773,120.441909246726937c.000000000241926,2.22108491729341-1.800540592657853,4.021629996967022-4.021619971767905,4.021629993269016l-30.3867350037508-.000000050593371c-2.22107937380224-.000000003692548-4.021619958504743-1.800545081081509-4.021619958376505-4.021629993065289l.000000007215021-120.441909158500494c.000000000128239-2.221084912465813,1.800540585804811-4.021629989840221,4.021619960089083-4.021629992590533Z" fill="#2d2d2d"/>
      </g>
      <path id="v" d="M1290.14859734500078,896.485628716352949l-31.15298697488106-.000000301475666c-1.697731244185888-.000000016425474-3.212594737356994-1.06612717859025-3.785619298761958-2.664234485946508l-43.186193983844532-120.441909180975927c-.939403834168843-2.619901890901019,1.002396176402726-5.379025510470456,3.785619353222501-5.37902549971659l29.359980620626629.000000113464921c2.82145021346696.000000010908479,5.313794205280828,1.838060258052792,6.147361473922501,4.533571925525393l23.368649825265493,75.567348463720919,23.368649744190407-75.567348425644013c.833567267095532-2.695511670472115,3.325911260752036-4.533571920255781,6.147361476608239-4.533571930673133l29.350287627306898-.000000108406311c2.785937801148975-.000000010288204,4.727951086183566,2.764107377308392,3.783449613355515,5.385061527384096l-43.403109839588979,120.441909444461999c-.574775268330995,1.594978587389051-2.088070441837772,2.658198474691744-3.783449637421654,2.658198458280822Z" fill="#2d2d2d"/>
      <path id="a" d="M1196.793545523897592,768.000433718729255l-30.386763381572564.000000176403773c-2.221079366569938.000000012902092-4.0216199408178,1.800545086458442-4.0216199417182,4.021629991208101l-.000000003893547,9.636462491149359c-5.092149916277776-7.870345658664519-16.898903692504973-18.05731343295156-37.967097957583974-18.05731343295156-34.26214092666487,0-64.589109832909344,26.391707102118744-64.589109832909344,68.525438445662076,0,36.810222837322726,23.845055465780206,68.756986406575379,64.589109832909344,68.756986406575379,15.049091024725385,0,31.022469525846645-5.78641401033201,37.967097957583974-18.28867097613329l.000000003918103,9.868962601756721c.000000000875843,2.22108490365099,1.800540573402031,4.021629976770782,4.021619938870572,4.021629991231748l30.386763455819164.00000019793697c2.221079387522877.000000014460966,4.021619992632623-1.8005450696146,4.021619991264743-4.021629995319017l-.000000074279342-120.441865907172541c-.000000001366971-2.221084922650334-1.800540603942864-4.021630003249811-4.021619988408929-4.021629990347719ZM1162.458789365703524,832.243043984926771c0,18.099132328599808-14.672209139775077,32.771378052988439-32.77129633894674,32.771378052988439-18.099087199178939,0-32.771296338945831-14.672245724388631-32.771296338945831-32.771378052988439,0-18.099132328594351,14.672209139766892-32.771378052992077,32.771296338945831-32.771378052992077,18.099087199171663,0,32.77129633894674,14.672245724397726,32.77129633894674,32.771378052992077Z" fill="#2d2d2d"/>
      <path id="s" d="M1012.49343776464957,804.115188804855279c-3.091050621500472.00001099326073-5.908059714549381-1.769168126449586-7.242640923990621-4.557272447675132-1.255760956953054-2.623439117620364-4.136025118089492-5.165685886444408-10.999563654349004-5.165685886444408-8.103050049332523,0-10.881200640761563,5.092168885103092-10.881200640761563,8.564525364377914,0,5.787704097083406,9.492790292536483,9.724194016112961,19.678455864266652,12.73374695084749,21.761071386469666,6.019105869389023,44.911883016153297,12.501015283340166,44.911883016153297,40.281197012520352,0,28.244315168907633-23.845016803758881,44.911892248321237-52.319397996493535,44.911892248321237-18.490141679046246,0-45.979029062410518-7.951598707182711-51.624028063173682-37.786707093433506-.471590286775609-2.492462322461506,1.409625275795406-4.809815323904331,3.946303191290099-4.809812027220687l28.570932797909336.000037130992496c2.596648787985941.000003374623702,5.015802331801751,1.498405445359822,6.010097090177624,3.89715335963956,3.278572031112162,7.909593966174725,12.141010283447031,7.909593966174725,13.559498433231056,7.909593966174725,6.481908081502297,0,13.426619612408103-3.703758251514955,13.426619612408103-9.95426589321869,0-8.797257031876143-9.49146039758034-9.95559578841312-34.030682375431752-19.447058137044223-16.668903548195885-5.324900552606778-30.559656505028215-16.204773534906053-30.559656505028215-33.567885826309066,0-26.623172867874018,23.150811629755481-43.52348161475129,49.773979024831533-43.52348161475129,16.07039441717734,0,43.23495755451313,6.070168568377994,48.650623284508583,35.728053917204306.453881362898755,2.485596802667715-1.42422950569744,4.785864248413418-3.950920809928903,4.785873234535757l-26.920301345619009.000095741483165Z" fill="#2d2d2d"/>
    </g>
  </g>
</svg>