<svg version="1.1" xmlns="http://www.w3.org/2000/svg" viewBox="0 0 2048 1536">
  <defs>
    <style>
      .bg { fill: #f5f5f5; }
      .save-area { fill: #ffffff; }
      .logo { fill: #2c3e50; }
      .accent { fill: #e74c3c; }
      .shadow { fill: #bdc3c7; opacity: 0.3; }
    </style>
  </defs>
  
  <!-- Background -->
  <rect class="bg" width="2048" height="1536"/>
  
  <!-- Main circular area -->
  <circle class="save-area" cx="1024" cy="768" r="512"/>
  <circle class="shadow" cx="1024" cy="780" r="500"/>
  
  <!-- Logo -->
  <path class="logo" d="M1237.4,704.1c-24.7-49.5-74.9-60.8-125.9-4.5,21.9-43.9,60.8-125.7,29.8-187.6-53.3-106.7-234.7-64-298.7,64-21.3,42.6-53.3,128-21.3,192h64c-32-64-64-128-32-192,53.3-106.7,202.7-106.7,256,0,10.7,21.3,21.3,64-10.7,128-4.2,8.4-17.7,35.4-31.4,62.8-.2.4-.4.8-.6,1.2h0c-10.1,20.1-20.2,40.3-26.7,53.3l-90.7-181.3h-64l128,256h10.7l21.3-64,32-64c32-64,95.9-64.1,128,0,32,64,32,128,0,192-85.3,170.7-288,128-384-64l-32,64c96,192,341.3,170.6,426.7,0,64-128,42.7-213.3,21.4-255.9h.1,0Z"/>
  
  <!-- Simplified decorative elements -->
  <g class="accent">
    <!-- Right curve -->
    <circle cx="1350" cy="200" r="8"/>
    <circle cx="1340" cy="250" r="6"/>
    <circle cx="1320" cy="300" r="8"/>
    <circle cx="1290" cy="350" r="6"/>
    <circle cx="1250" cy="400" r="8"/>
    <circle cx="1200" cy="450" r="6"/>
    <circle cx="1140" cy="500" r="8"/>
    <circle cx="1070" cy="550" r="6"/>
    
    <!-- Left curve -->
    <circle cx="698" cy="200" r="8"/>
    <circle cx="708" cy="250" r="6"/>
    <circle cx="728" cy="300" r="8"/>
    <circle cx="758" cy="350" r="6"/>
    <circle cx="798" cy="400" r="8"/>
    <circle cx="848" cy="450" r="6"/>
    <circle cx="908" cy="500" r="8"/>
    <circle cx="978" cy="550" r="6"/>
  </g>
</svg>