<?xml version="1.0" encoding="UTF-8"?>
<svg xmlns="http://www.w3.org/2000/svg" viewBox="0 0 2048 1536">
  <g id="bg">
    <g id="bg-2" data-name="bg">
      <rect y=".000000000000909" width="2048" height="1535.999999999999091"/>
    </g>
  </g>
  <g id="logo">
    <g id="monogram">
      <path id="Save_area" data-name="Save area" d="M1024,256h0c282.800048828130457,0,512,229.200012207029886,512,512h0c0,282.800048828130457-229.199951171869543,512-512,512h0c-282.79998779296875,0-512-229.199951171869543-512-512h0c0-282.799987792970114,229.20001220703125-512,512-512Z" fill="#fff"/>
      <path id="Logo" d="M1237.400024414060681,704.099975585939774c-24.699951171871362-49.5-74.900024414060681-60.799987792969659-125.900024414060681-4.5,21.900024414060681-43.900024414059772,60.800048828130457-125.700012207029886,29.800048828130457-187.600006103519718-53.300048828130457-106.699981689449942-234.700012207036707-64-298.700012207036707,64.000030517579944-21.29998779296875,42.599975585939774-53.29998779296875,128-21.29998779296875,192h64c-32-64-64-128-32-192,53.29998779296875-106.700012207029886,202.699951171875-106.700012207029886,256.000000000005457,0,10.699951171869543,21.299987792970114,21.300048828119543,64-10.699951171880457,128-4.199951171869543,8.400024414060226-17.699951171869543,35.400024414060226-31.400024414060681,62.799987792970114-.199951171878638.400024414059772-.400024414058862.799987792969659-.599975585939319,1.200012207029886h0c-10.099975585939319,20.099975585939774-20.199951171869543,40.299987792970114-26.699951171869543,53.299987792970114l-90.700012207036707-181.299987792970114h-64l127.999999999996362,256h10.700012207040345l21.300048828119543-64,32-64c32-64,95.900024414060681-64.099975585939774,128,0,32,64,32,128,0,192-85.300048828119543,170.699951171880457-288,128-384-64l-32,64c96,192,341.300048828130457,170.599975585939319,426.699951171880457,0,64-128,42.699951171869543-213.299987792970114,21.400024414058862-255.900024414060226h.099853515621362Z" fill="#0d0e11"/>
    </g>
  </g>
</svg>