<?xml version="1.0" encoding="UTF-8"?>
<svg id="Layer_2" data-name="Layer 2" xmlns="http://www.w3.org/2000/svg" xmlns:xlink="http://www.w3.org/1999/xlink" viewBox="0 0 512 512">
  <defs>
    <linearGradient id="blue-cyan" x1="-46.851251684409362" y1="337.148748315592456" x2="558.851251684407089" y2="174.851251684408709" gradientUnits="userSpaceOnUse">
      <stop offset="0" stop-color="#1a8deb"/>
      <stop offset="1" stop-color="#00e6ff"/>
    </linearGradient>
    <linearGradient id="linear-gradient" x1="255.99999526980173" y1="415.999982759385603" x2="255.999995269801758" y2="96.000080360121501" gradientUnits="userSpaceOnUse">
      <stop offset="0" stop-color="#fff" stop-opacity="0"/>
      <stop offset="1" stop-color="#fff"/>
    </linearGradient>
  </defs>
  <g id="icons">
    <g>
      <rect width="512" height="512" fill="url(#blue-cyan)"/>
      <g>
        <rect x="96.000044091721065" y="96.000080360121729" width="319.999902356161328" height="319.999902399261828" rx="79.999975585949869" ry="79.999975585949869" fill="url(#linear-gradient)"/>
        <path d="M336,112c35.289794921875,0,64,28.71044921875,64,64v160c0,35.28955078125-28.710205078125,64-64,64h-160c-35.289794921875,0-64-28.71044921875-64-64v-160c0-35.28955078125,28.710205078125-64,64-64h160M336,96h-160c-44.182861328125,0-80,35.8173828125-80,80v160c0,44.1826171875,35.817138671875,80,80,80h160c44.1826171875,0,80-35.8173828125,80-80v-160c0-44.1826171875-35.8173828125-80-80-80h0Z" fill="#333"/>
        <polygon points="400 208 111.807861328125 208 111.807861328125 224 400 224 400 208 400 208" fill="#333"/>
        <path d="M200,64c-4.418212890625,0-8,3.58203125-8,8v64c0,4.41845703125,3.581787109375,8,8,8s8-3.58154296875,8-8v-64c0-4.41796875-3.581787109375-8-8-8h0Z" fill="#333"/>
        <path d="M312,64c-4.418212890625,0-8,3.58203125-8,8v64c0,4.41845703125,3.581787109375,8,8,8s8-3.58154296875,8-8v-64c0-4.41796875-3.581787109375-8-8-8h0Z" fill="#333"/>
      </g>
    </g>
  </g>
</svg>