<?xml version="1.0" encoding="UTF-8"?>
<svg id="Layer_2" data-name="Layer 2" xmlns="http://www.w3.org/2000/svg" xmlns:xlink="http://www.w3.org/1999/xlink" viewBox="0 0 1023.999999999998181 1023.999999999998181">
  <defs>
    <linearGradient id="linear-gradient" x1="156.759061502092663" y1="253.985701026093011" x2="861.106172872903812" y2="65.25648647390787" gradientUnits="userSpaceOnUse">
      <stop offset="0" stop-color="#1a8deb"/>
      <stop offset="1" stop-color="#00e6ff"/>
    </linearGradient>
    <linearGradient id="linear-gradient-2" x1="156.759061502092663" y1="488.778669776091192" x2="861.106172872904722" y2="300.049455223905852" gradientUnits="userSpaceOnUse">
      <stop offset="0" stop-color="#00e6ff"/>
      <stop offset="1" stop-color="#c0ff1c"/>
    </linearGradient>
    <linearGradient id="New_Gradient_Swatch_1" data-name="New Gradient Swatch 1" x1="508.9326171875" y1="480.814453125" x2="508.9326171875" y2="308.013671875" gradientUnits="userSpaceOnUse">
      <stop offset="0" stop-color="#fff" stop-opacity="0"/>
      <stop offset="1" stop-color="#fff"/>
    </linearGradient>
    <linearGradient id="linear-gradient-3" x1="156.759061502092663" y1="723.571638526093011" x2="861.106172872904722" y2="534.842423973907671" gradientUnits="userSpaceOnUse">
      <stop offset="0" stop-color="#c0ff1c"/>
      <stop offset=".9991943359375" stop-color="#fffc1c"/>
    </linearGradient>
    <linearGradient id="New_Gradient_Swatch_1-2" data-name="New Gradient Swatch 1" y1="715.607421875" y2="542.806640625" xlink:href="#New_Gradient_Swatch_1"/>
    <linearGradient id="linear-gradient-4" x1="156.759061502092663" y1="958.364607276093011" x2="861.106172872903812" y2="769.635392723907898" gradientUnits="userSpaceOnUse">
      <stop offset="0" stop-color="#fffc1c"/>
      <stop offset=".9991943359375" stop-color="#ff9a1c"/>
    </linearGradient>
    <linearGradient id="New_Gradient_Swatch_1-3" data-name="New Gradient Swatch 1" y1="950.400390625" y2="777.599609375" xlink:href="#New_Gradient_Swatch_1"/>
  </defs>
  <g id="gradients-buttons">
    <g id="gradients-buttons-hover">
      <g>
        <rect width="1023.999999999998181" height="1023.999999999998181" fill="#fff"/>
        <g>
          <g>
            <path d="M220.9326171875,246.021484375c-47.6416015625,0-86.400390625-38.7587890625-86.400390625-86.400390625s38.7587890625-86.400390625,86.400390625-86.400390625h576c47.6416015625,0,86.400390625,38.7587890625,86.400390625,86.400390625s-38.7587890625,86.400390625-86.400390625,86.400390625H220.9326171875Z" fill="url(#linear-gradient)"/>
            <path d="M220.9326171875,246.021484375c-47.6416015625,0-86.400390625-38.7587890625-86.400390625-86.400390625s38.7587890625-86.400390625,86.400390625-86.400390625h576c47.6416015625,0,86.400390625,38.7587890625,86.400390625,86.400390625s-38.7587890625,86.400390625-86.400390625,86.400390625H220.9326171875Z" fill="#2d2d2d"/>
            <path d="M796.932861328125,82.8212890625c42.34765625,0,76.800048828125,34.4521484375,76.800048828125,76.7998046875s-34.452392578125,76.7998046875-76.800048828125,76.7998046875H220.9326171875c-42.34765625,0-76.7998046875-34.4521484375-76.7998046875-76.7998046875s34.4521484375-76.7998046875,76.7998046875-76.7998046875h576.000244140625M796.932861328125,63.62109375H220.9326171875c-53.019287109375,0-95.999755859375,42.98046875-95.999755859375,96s42.98046875,96,95.999755859375,96h576.000244140625c53.019287109375,0,96-42.98046875,96-96s-42.980712890625-96-96-96h0Z" fill="#2d2d2d"/>
          </g>
          <g>
            <path d="M363.474707031253274,134.910402794255788v12.268945312496726h19.704492187498545v11.404687500004002h-19.704492187498545v13.306054687498545h22.2861328125v11.836523437501455h-36.999609374999636v-60.652734375000364h36.999609374999636v11.836523437499636h-22.2861328125Z" fill="#fff"/>
            <path d="M423.705566406255457,183.726613731756515l-9.206835937504366-13.392187500001455-7.744335937497453,13.392187500001455h-15.918164062499272l15.832031249998181-24.624023437501819-16.262695312496362-23.5869140625h16.521093749995998l9.206835937500728,13.305468750002547,7.743750000003274-13.305468750002547h15.918749999993452l-16.090429687494179,24.278320312501819,16.520507812498181,23.9326171875h-16.520507812498181Z" fill="#fff"/>
            <path d="M466.555761718753274,136.89790279425506c2.523632812501091-1.382226562500364,5.477343750000728-2.073632812500364,8.862890624999636-2.073632812500364,3.958007812498181,0,7.542187499997453,1.008398437501455,10.755468750001455,3.024023437499636,3.212109375001091,2.016796874999272,5.750390625000364,4.896093750001455,7.615429687501091,8.6396484375,1.86328125,3.745312499999272,2.796093749999272,8.093554687500728,2.796093749999272,13.046484374999636,0,4.954687500001455-.932812499999272,9.318164062500728-2.796093749999272,13.089843750001819-1.865039062500728,3.773437500001819-4.4033203125,6.6826171875-7.615429687501091,8.726367187500728-3.213281250004002,2.045507812497817-6.797460937503274,3.0673828125-10.755468750001455,3.0673828125-3.327539062498545,0-6.267773437499272-.69140625-8.819531249999272-2.073632812498545-2.553515624998909-1.382812500003638-4.547460937499636-3.166992187501819-5.980664062497453-5.357226562502547v29.7216796875h-14.713476562501455v-71.193164062500728h14.713476562501455v6.825585937500364c1.433203124997817-2.246484375000364,3.412499999996726-4.061132812501455,5.93730468749709-5.443359375ZM478.559277343754729,150.851418419253605c-2.036718750003274-2.101757812499272-4.546875-3.153515624999272-7.529296875003638-3.153515624999272-2.92558593749709,0-5.40703124999709,1.06640625-7.442578124997453,3.196875000001455-2.036718749997817,2.131640624998909-3.054492187498909,5.040820312500728-3.054492187498909,8.726367187498909,0,3.686718750001091,1.017773437501091,6.595898437501091,3.054492187498909,8.726367187498909,2.035546875000364,2.131640625002547,4.516992187500364,3.196875000001455,7.442578124997453,3.196875000001455,2.925585937502547,0,5.42109375000291-1.079882812500728,7.485937500003274-3.240234375,2.0654296875-2.159765624999636,3.097851562501091-5.082421875000364,3.097851562501091-8.769726562501091,0-3.685546874998181-1.018945312502183-6.579492187500364-3.054492187500728-8.683007812500364Z" fill="#fff"/>
            <path d="M519.042285156254366,119.790871544253605v63.93574218750291h-14.713476562499636v-63.93574218750291h14.713476562499636Z" fill="#fff"/>
            <path d="M538.875683593754729,181.39399654425506c-3.757617187500728-2.015625-6.711328125002183-4.895507812501819-8.8623046875-8.640234374997817-2.151562500001091-3.743554687502183-3.226757812499272-8.121679687499636-3.226757812499272-13.132617187502547,0-4.953515625002183,1.08867187499709-9.316406249998181,3.26953125-13.089843749998181,2.1796875-3.771679687501091,5.162695312497817-6.66621093750291,8.94902343749709-8.683007812502183,3.785742187499636-2.015624999998181,8.0302734375-3.024023437499636,12.734765625002183-3.024023437499636,4.702734375001455,0,8.948437499999272,1.008398437501455,12.734765624996726,3.024023437499636,3.785742187503274,2.016796874999272,6.768164062501455,4.911328125001091,8.948437500001091,8.683007812502183,2.1796875,3.7734375,3.270117187503274,8.136328124995998,3.270117187503274,13.089843749998181,0,4.9541015625-1.105078125003274,9.317578125001091-3.312890625004002,13.089257812500364-2.208984375001819,3.7734375-5.220703125,6.66796875-9.035156249994543,8.68359375-3.815039062505093,2.016796875001091-8.074804687505093,3.024023437501455-12.77753906250291,3.024023437501455-4.704492187500364,0-8.935546875001819-1.007226562500364-12.691992187499636-3.024023437501455ZM558.752441406251819,168.520363731753605c1.979296875004366-2.073632812496726,2.96894531250291-5.039648437501455,2.96894531250291-8.899218749998909,0-3.858398437498181-.961523437501455-6.825585937498545-2.8828125-8.899218749998909-1.922460937503274-2.073632812502183-4.289062500001819-3.110742187502183-7.0986328125-3.110742187502183-2.869335937499272,0-5.248828125000728,1.02363281250291-7.141992187502183,3.0673828125-1.893164062501455,2.045507812501455-2.839453124999636,5.026171875002547-2.839453124999636,8.942578125001091,0,3.859570312497453.931640625,6.825585937502183,2.796679687502547,8.899218749998909,1.863281249998181,2.073632812504002,4.201171875,3.110156249998909,7.012499999998909,3.110156249998909,2.810156249999636,0,5.206054687498181-1.036523437494907,7.184765624997453-3.110156249998909Z" fill="#fff"/>
            <path d="M605.689550781253274,137.286379356755788c2.581640624997817-1.525195312500728,5.44921875-2.289257812499272,8.6044921875-2.289257812499272v15.638085937496726h-4.04414062500291c-3.671484374997817,0-6.4248046875.792773437502547-8.259960937495634,2.375976562501819-1.836914062501819,1.5849609375-2.753906250003638,4.363476562501091-2.753906250003638,8.337890625v22.377539062501455h-14.713476562499636v-48.210937500001819h14.713476562499636v8.034960937500728c1.720898437499272-2.648437500001819,3.872460937502183-4.737304687501819,6.453515625002183-6.264257812499636Z" fill="#fff"/>
            <path d="M621.220410156251091,146.487941856754333c1.86328125-3.743554687498545,4.401562500001091-6.622851562500728,7.614843750003274-8.6396484375,3.212109375001091-2.015624999998181,6.797460937495998-3.024023437499636,10.755468749999636-3.024023437499636,3.384374999997817,0,6.352734374997453.69140625,8.905664062498545,2.073632812500364,2.5517578125,1.382226562498545,4.517578125,3.196874999999636,5.894531250001819,5.443359375v-6.825585937500364h14.713476562495998v48.210937500001819h-14.713476562495998v-6.825585937500364c-1.434960937504002,2.246484374998545-3.428320312503274,4.060546874998181-5.980078125003274,5.443359375001819-2.553515625000728,1.382226562498545-5.521874999996726,2.073632812498545-8.90625,2.073632812498545-3.90117187499709,0-7.457226562495634-1.021875000002183-10.669335937496726-3.0673828125-3.213281250002183-2.043750000000728-5.751562500003274-4.952929687498909-7.614843750003274-8.726367187500728-1.865039062500728-3.771679687501091-2.796679687500728-8.135156250000364-2.796679687500728-13.089843750001819,0-4.952929687498909.931640625-9.301171875000364,2.796679687500728-13.046484374999636ZM651.336425781253638,150.894777794255788c-2.037304687501091-2.130468750001455-4.517578124998181-3.196875000001455-7.443164062500728-3.196875000001455s-5.407617187498545,1.0517578125-7.443164062500728,3.153515624999272c-2.036718749999636,2.103515625-3.054492187500728,4.997460937502183-3.054492187500728,8.683007812500364,0,3.687304687500728,1.017773437501091,6.609960937501455,3.054492187500728,8.769726562501091,2.035546875002183,2.160351562499272,4.517578124998181,3.240234375,7.443164062500728,3.240234375s5.405859374999636-1.065234374998909,7.443164062500728-3.196875000001455c2.034960937500728-2.130468749997817,3.054492187500728-5.039648437497817,3.054492187500728-8.726367187498909,0-3.685546874998181-1.01953125-6.5947265625-3.054492187500728-8.726367187498909Z" fill="#fff"/>
          </g>
        </g>
        <g>
          <g>
            <path d="M220.9326171875,480.814453125c-47.6416015625,0-86.400390625-38.7587890625-86.400390625-86.400390625s38.7587890625-86.400390625,86.400390625-86.400390625h576c47.6416015625,0,86.400390625,38.7587890625,86.400390625,86.400390625s-38.7587890625,86.400390625-86.400390625,86.400390625H220.9326171875Z" fill="url(#linear-gradient-2)"/>
            <path d="M220.9326171875,480.814453125c-47.6416015625,0-86.400390625-38.7587890625-86.400390625-86.400390625s38.7587890625-86.400390625,86.400390625-86.400390625h576c47.6416015625,0,86.400390625,38.7587890625,86.400390625,86.400390625s-38.7587890625,86.400390625-86.400390625,86.400390625H220.9326171875Z" fill="url(#New_Gradient_Swatch_1)"/>
            <path d="M796.932861328125,317.6142578125c42.34765625,0,76.800048828125,34.4521484375,76.800048828125,76.7998046875s-34.452392578125,76.7998046875-76.800048828125,76.7998046875H220.9326171875c-42.34765625,0-76.7998046875-34.4521484375-76.7998046875-76.7998046875s34.4521484375-76.7998046875,76.7998046875-76.7998046875h576.000244140625M796.932861328125,298.4140625H220.9326171875c-53.019287109375,0-95.999755859375,42.98046875-95.999755859375,96s42.98046875,96,95.999755859375,96h576.000244140625c53.019287109375,0,96-42.98046875,96-96s-42.980712890625-96-96-96h0Z" fill="#2d2d2d"/>
          </g>
          <g>
            <path d="M355.489257812498181,387.026596654504829c-1.61308593749709,2.9091796875-4.090429687497817,5.257031249999272-7.430273437497817,7.04179687499709-3.341015624999272,1.785937500004366-7.488281249998181,2.678320312501455-12.441210937498909,2.678320312501455h-9.158789062501455v21.772851562502183h-14.7744140625v-60.652734375002183h23.933203125001455c4.838085937497453,0,8.927343749999636.835546875001455,12.268359375002547,2.505468750001455,3.339843749998181,1.671093749999272,5.845898437495634,3.97441406249709,7.516992187498545,6.91230468750291,1.669921874996362,2.93730468749709,2.505468749999636,6.307031249998545,2.505468749999636,10.108593749995634,0,3.51386718750291-.807421875000728,6.725390625004366-2.419335937504002,9.633398437501455ZM340.801562500002547,383.009409154503373c1.382226562498545-1.324804687497817,2.073632812498545-3.196875000001455,2.073632812498545-5.6162109375s-.69140625-4.290234374999272-2.073632812498545-5.6162109375c-1.382226562498545-1.324218749996362-3.485742187498545-1.986914062497817-6.307031249998545-1.986914062497817h-8.035546875004002v15.206249999999272h8.035546875004002c2.8212890625,0,4.9248046875-.661523437498545,6.307031249998545-1.986914062501455Z" fill="#2d2d2d"/>
            <path d="M365.4677734375,381.280893529503373c1.870898437502547-3.743554687498545,4.419726562502547-6.62285156249709,7.646484375-8.6396484375,3.225000000002183-2.015625,6.825585937500364-3.024023437501455,10.799999999999272-3.024023437501455,3.397851562502183,0,6.378515625001455.691406250003638,8.94257812500291,2.073632812502183,2.562304687498909,1.382226562498545,4.535742187497817,3.196875000001455,5.91796875,5.443359375v-6.825585937498545h14.7744140625v48.2109375h-14.7744140625v-6.825585937502183c-1.440234375000728,2.246484375002183-3.4423828125,4.060546875-6.004687500002547,5.443359375-2.5634765625,1.382226562502183-5.544140624997453,2.073632812498545-8.942578124997453,2.073632812498545-3.917578125003274,0-7.48828125-1.021874999998545-10.713281250002183-3.0673828125-3.226757812497453-2.04374999999709-5.775585937497453-4.95292968749709-7.646484375-8.72636718749709-1.872656249995998-3.771679687499272-2.807812500001091-8.135156249998545-2.807812500001091-13.08984375,0-4.952929687500728.935156250005093-9.301171874998545,2.807812500001091-13.046484375001455ZM395.7080078125,385.687729467004829c-2.045507812499636-2.130468750001455-4.536328124997453-3.196875000001455-7.4736328125-3.196875000001455-2.937890624998545,0-5.429882812501091,1.0517578125-7.4736328125,3.15351562500291-2.045507812499636,2.103515624996362-3.0673828125,4.997460937498545-3.0673828125,8.683007812498545,0,3.68730468749709,1.021875000000364,6.609960937501455,3.0673828125,8.769726562495634,2.043749999998909,2.16035156250291,4.535742187501455,3.240234375007276,7.4736328125,3.240234375007276,2.937304687502547,0,5.428125000000364-1.065234375004366,7.4736328125-3.196875000005093,2.043750000000728-2.130468749997817,3.066796875002183-5.039648437497817,3.066796875002183-8.72636718749709,0-3.685546875003638-1.023046875001455-6.5947265625-3.066796875002183-8.726367187500728Z" fill="#2d2d2d"/>
            <path d="M445.515625,372.079331029504829c2.592187500002183-1.52519531249709,5.472070312500364-2.289257812499272,8.640234375001455-2.289257812499272v15.638085937502183h-4.060546875001819c-3.687304687500728,0-6.451757812497817.79277343749709-8.294531249999636,2.375976562496362-1.843945312497453,1.5849609375-2.765039062500364,4.363476562499272-2.765039062500364,8.337890625v22.377539062501455h-14.774414062498181v-48.2109375h14.774414062498181v8.034960937500728c1.727929687500364-2.6484375,3.888281250001455-4.7373046875,6.479882812500364-6.264257812501455Z" fill="#2d2d2d"/>
            <path d="M488.1103515625,405.991635717004101v12.527929687501455h-7.516992187504002c-5.356640624993815,0-9.533203124996362-1.3095703125-12.527929687495998-3.931054687502183-2.995312500001091-2.620312499999272-4.492382812501091-6.897070312497817-4.492382812501091-12.830273437495634v-19.181250000001455h-5.875195312499272v-12.268359375000728h5.875195312499272v-11.750390625002183h14.7744140625v11.750390625002183h9.6767578125v12.268359375000728h-9.6767578125v19.353515625c0,1.440820312498545.345117187500364,2.47734374999709,1.036523437502183,3.110742187498545.69140625.634570312500728,1.842773437501819.950390624999272,3.455859374998909.950390624999272h5.2705078125Z" fill="#2d2d2d"/>
            <path d="M497.397460937501819,363.007846654505556c-1.641210937497817-1.525781250002183-2.46210937500291-3.4130859375-2.46210937500291-5.659570312502183,0-2.302734375.820898437505093-4.21875,2.46210937500291-5.745703125001455,1.641796874999272-1.52519531249709,3.758789062498181-2.289257812495634,6.35039062499709-2.289257812495634,2.5341796875,0,4.622460937502183.764062499998545,6.264257812503274,2.289257812495634,1.641796874997453,1.526953125001455,2.462695312500728,3.442968750001455,2.462695312500728,5.745703125001455,0,2.246484375002183-.820898437503274,4.1337890625-2.462695312500728,5.659570312502183-1.641796875001091,1.5263671875-3.730078125003274,2.289257812499272-6.264257812503274,2.289257812499272-2.591601562498909,0-4.708593749997817-.762890624999272-6.35039062499709-2.289257812499272ZM511.091992187501091,370.308627904505556v48.2109375h-14.7744140625v-48.2109375h14.7744140625Z" fill="#2d2d2d"/>
            <path d="M521.934765625001091,381.280893529503373c2.044335937500364-3.743554687498545,4.895507812501819-6.62285156249709,8.554101562500364-8.6396484375,3.656835937499636-2.015625,7.847460937502547-3.024023437501455,12.570703124998545-3.024023437501455,6.048046875001091,0,11.102929687500364,1.5849609375,15.163476562502183,4.751953125,4.060546874998181,3.16816406250291,6.724218749999636,7.63300781250291,7.992187500001819,13.392187500001455h-15.72480468750291c-1.32597656249709-3.685546875-3.888281250001455-5.53007812499709-7.689843750002183-5.53007812499709-2.708203124999272,0-4.867968749998909,1.0517578125-6.479882812498545,3.15410156249709-1.613085937500728,2.102929687498545-2.419335937500364,5.1123046875-2.419335937500364,9.028710937502183,0,3.917578125001455.806249999999636,6.926953124999272,2.419335937500364,9.028710937502183,1.611914062499636,2.103515625,3.771679687499272,3.153515624999272,6.479882812498545,3.153515624999272,3.801562500000728,0,6.363867187505093-1.842773437503638,7.689843750002183-5.52949218750291h15.72480468750291c-1.267968750002183,5.645507812503638-3.946289062501819,10.080468750002183-8.035546875004002,13.305468750000728-4.090429687495998,3.226757812499272-9.130078124999272,4.83867187499709-15.1201171875,4.83867187499709-4.723242187495998,0-8.913867187498909-1.007226562498545-12.570703124998545-3.024023437497817-3.658593749998545-2.015625-6.509765625-4.895507812496362-8.554101562500364-8.640234375001455-2.044921875-3.743554687498545-3.066796875002183-8.121679687497817-3.066796875002183-13.13261718749709,0-5.011523437500728,1.021875000002183-9.387890624999272,3.066796875002183-13.133203125002183Z" fill="#2d2d2d"/>
            <path d="M575.156640625000364,363.007846654505556c-1.641210937501455-1.525781250002183-2.462109374999272-3.4130859375-2.462109374999272-5.659570312502183,0-2.302734375.820898437497817-4.21875,2.462109374999272-5.745703125001455,1.641796874999272-1.52519531249709,3.758789062498181-2.289257812495634,6.350390625000728-2.289257812495634,2.5341796875,0,4.622460937496726.764062499998545,6.264257812497817,2.289257812495634,1.641796875001091,1.526953125001455,2.462695312500728,3.442968750001455,2.462695312500728,5.745703125001455,0,2.246484375002183-.820898437499636,4.1337890625-2.462695312500728,5.659570312502183-1.641796875001091,1.5263671875-3.730078124997817,2.289257812499272-6.264257812497817,2.289257812499272-2.591601562502547,0-4.708593750001455-.762890624999272-6.350390625000728-2.289257812499272ZM588.851171875001455,370.308627904505556v48.2109375h-14.7744140625v-48.2109375h14.7744140625Z" fill="#2d2d2d"/>
            <path d="M620.300781250001819,371.690854467004101c2.533593750000364-1.382226562498545,5.499609374994179-2.073632812502183,8.89921874999709-2.073632812502183,3.974414062502547,0,7.573242187501819,1.008398437501455,10.800000000001091,3.024023437501455,3.225000000004002,2.01679687500291,5.773828125002183,4.896093750001455,7.646484375,8.6396484375,1.870898437498909,3.74531250000291,2.807812500001091,8.093554687500728,2.807812500001091,13.046484375001455,0,4.954687500001455-.936914062502183,9.318164062500728-2.807812500001091,13.08984375-1.872656249997817,3.7734375-4.421484374995998,6.6826171875-7.646484375,8.72636718749709-3.226757812499272,2.045507812501455-6.825585937498545,3.0673828125-10.800000000001091,3.0673828125-3.341601562498909,0-6.294140624999272-.691406249996362-8.8564453125-2.073632812498545-2.5634765625-1.3828125-4.565624999997453-3.1669921875-6.004687500000728-5.357226562500728v29.721679687503638h-14.774414062496362v-71.193164062500728h14.774414062496362v6.825585937498545c1.439062500003274-2.246484374998545,3.426562500000728-4.061132812501455,5.961914062503638-5.443359375ZM632.353515624998181,385.644370092006284c-2.045507812495998-2.10175781250291-4.565624999999272-3.15351562500291-7.56035156249709-3.15351562500291-2.937304687498909,0-5.429296875003274,1.06640625-7.4736328125,3.196875000001455-2.044921875,2.131640625000728-3.066796875002183,5.04082031249709-3.066796875002183,8.726367187500728,0,3.686718749999272,1.021875000002183,6.595898437499272,3.066796875002183,8.72636718749709,2.044335937496726,2.131640625000728,4.536328125001091,3.196875000005093,7.4736328125,3.196875000005093,2.937890624998545,0,5.443359375-1.079882812504366,7.516992187498545-3.240234375007276,2.073632812500364-2.159765624994179,3.110742187500364-5.082421874998545,3.110742187500364-8.769726562495634,0-3.685546875-1.023632812501091-6.579492187502183-3.067382812501819-8.683007812498545Z" fill="#2d2d2d"/>
            <path d="M658.099023437502183,381.280893529503373c1.870898437498909-3.743554687498545,4.419726562498909-6.62285156249709,7.646484375-8.6396484375,3.224999999996726-2.015625,6.825585937496726-3.024023437501455,10.799999999995634-3.024023437501455,3.397851562502183,0,6.378515625003274.691406250003638,8.942578125001091,2.073632812502183,2.562304687502547,1.382226562498545,4.535742187501455,3.196875000001455,5.91796875,5.443359375v-6.825585937498545h14.774414062501819v48.2109375h-14.774414062501819v-6.825585937502183c-1.44023437499709,2.246484375002183-3.442382812498181,4.060546875-6.004687499998909,5.443359375-2.5634765625,1.382226562502183-5.544140624999272,2.073632812498545-8.942578125001091,2.073632812498545-3.917578124995998,0-7.48828125-1.021874999998545-10.713281249996726-3.0673828125-3.226757812501091-2.04374999999709-5.775585937501091-4.95292968749709-7.646484375-8.72636718749709-1.872656250003274-3.771679687499272-2.807812500001091-8.135156249998545-2.807812500001091-13.08984375,0-4.952929687500728.935156249997817-9.301171874998545,2.807812500001091-13.046484375001455ZM688.339257812502183,385.687729467004829c-2.045507812503274-2.130468750001455-4.536328124999272-3.196875000001455-7.473632812498181-3.196875000001455-2.937890625004002,0-5.42988281250291,1.0517578125-7.473632812503638,3.15351562500291-2.045507812501455,2.103515624996362-3.067382812498181,4.997460937498545-3.067382812498181,8.683007812498545,0,3.68730468749709,1.021874999996726,6.609960937501455,3.067382812498181,8.769726562495634,2.043750000000728,2.16035156250291,4.535742187499636,3.240234375007276,7.473632812503638,3.240234375007276,2.937304687498909,0,5.428124999994907-1.065234375004366,7.473632812498181-3.196875000005093,2.043749999998909-2.130468749997817,3.066796874996726-5.039648437497817,3.066796874996726-8.72636718749709,0-3.685546875003638-1.023046874997817-6.5947265625-3.066796874996726-8.726367187500728Z" fill="#2d2d2d"/>
          </g>
        </g>
        <g>
          <g>
            <path d="M220.9326171875,715.607421875c-47.6416015625,0-86.400390625-38.7587890625-86.400390625-86.400390625s38.7587890625-86.400390625,86.400390625-86.400390625h576c47.6416015625,0,86.400390625,38.7587890625,86.400390625,86.400390625s-38.7587890625,86.400390625-86.400390625,86.400390625H220.9326171875Z" fill="url(#linear-gradient-3)"/>
            <path d="M220.9326171875,715.607421875c-47.6416015625,0-86.400390625-38.7587890625-86.400390625-86.400390625s38.7587890625-86.400390625,86.400390625-86.400390625h576c47.6416015625,0,86.400390625,38.7587890625,86.400390625,86.400390625s-38.7587890625,86.400390625-86.400390625,86.400390625H220.9326171875Z" fill="url(#New_Gradient_Swatch_1-2)"/>
            <path d="M796.932861328125,552.4072265625c42.34765625,0,76.800048828125,34.4521484375,76.800048828125,76.7998046875s-34.452392578125,76.7998046875-76.800048828125,76.7998046875H220.9326171875c-42.34765625,0-76.7998046875-34.4521484375-76.7998046875-76.7998046875s34.4521484375-76.7998046875,76.7998046875-76.7998046875h576.000244140625M796.932861328125,533.20703125H220.9326171875c-53.019287109375,0-95.999755859375,42.98046875-95.999755859375,96s42.98046875,96,95.999755859375,96h576.000244140625c53.019287109375,0,96-42.98046875,96-96s-42.980712890625-96-96-96h0Z" fill="#2d2d2d"/>
          </g>
          <g>
            <path d="M360.7158203125,642.59864988974914h-22.637109374998545l-3.628710937502547,10.713867187503638h-15.465820312498181l21.945703125000364-60.652734375000364h17.107031249999636l21.945703125000364,60.652734375000364h-15.638085937498545l-3.628710937502547-10.713867187503638ZM356.913671874999636,631.193962389752414l-7.516406249998909-22.204687499999636-7.430273437499636,22.204687499999636h14.946679687498545Z" fill="#2d2d2d"/>
            <path d="M407.371679687499636,606.483806139751323c2.533593750000364-1.382226562498545,5.499609375001455-2.073632812498545,8.899218750002547-2.073632812498545,3.974414062498909,0,7.5732421875,1.008398437501455,10.799999999999272,3.024023437501455,3.224999999998545,2.016796874997453,5.773828124996726,4.896093749995998,7.646484375,8.639648437498181,1.870898437500728,3.74531250000291,2.807812500001091,8.093554687498909,2.807812500001091,13.046484374997817,0,4.954687500001455-.936914062500364,9.318164062502547-2.807812500001091,13.08984375-1.872656250003274,3.773437500001819-4.421484375001455,6.6826171875-7.646484375,8.726367187502547-3.226757812499272,2.045507812499636-6.825585937500364,3.0673828125-10.799999999999272,3.0673828125-3.341601562500728,0-6.294140625001091-.69140625-8.8564453125-2.073632812504002-2.5634765625-1.382812499996362-4.565625000001091-3.166992187496362-6.004687500000728-5.35722656249709v29.7216796875h-14.774414062501819v-71.193164062498909h14.774414062501819v6.825585937500364c1.439062499999636-2.246484375000364,3.426562499998909-4.061132812501455,5.961914062498181-5.443359375001819ZM419.424414062501455,620.437321764751687c-2.045507812501455-2.101757812499272-4.565624999999272-3.153515624999272-7.560351562502547-3.153515624999272-2.937304687498909,0-5.429296874995998,1.066406250001819-7.473632812498181,3.196874999997817-2.044921875001819,2.131640625002547-3.066796874998545,5.040820312500728-3.066796874998545,8.726367187502547,0,3.686718749997453,1.021874999996726,6.595898437497453,3.066796874998545,8.726367187498909,2.044335937502183,2.131640625000728,4.536328124999272,3.196874999999636,7.473632812498181,3.196874999999636,2.937890625002183,0,5.443359375003638-1.079882812498909,7.516992187502183-3.240234374998181,2.073632812498545-2.159765625001455,3.110742187500364-5.082421875000364,3.110742187500364-8.76972656250291,0-3.685546875-1.023632812497453-6.579492187498545-3.0673828125-8.683007812498545Z" fill="#2d2d2d"/>
            <path d="M466.554296874999636,606.872282702250232c2.592187500000364-1.525195312498909,5.472070312502183-2.289257812497453,8.640234375001455-2.289257812497453v15.638085937498545h-4.060546875001819c-3.687304687498909,0-6.451757812497817.792773437498909-8.294531249997817,2.375976562501819-1.843945312499272,1.5849609375-2.765039062500364,4.363476562497453-2.765039062500364,8.337890625v22.377539062499636h-14.7744140625v-48.2109375h14.7744140625v8.034960937498909c1.727929687496726-2.648437499996362,3.888281249997817-4.7373046875,6.479882812498545-6.264257812501455Z" fill="#2d2d2d"/>
            <path d="M527.46601562500291,632.749040514752778h-33.437109375003274c.229687499999272,2.995898437498909,1.194726562500364,5.285742187499636,2.89453125,6.868945312498909,1.698046875002547,1.5849609375,3.786914062500728,2.3759765625,6.264257812501455,2.3759765625,3.685546875,0,6.2490234375-1.555078124998545,7.689257812500728-4.665234374997453h15.724804687499272c-.807421875000728,3.168164062497453-2.261132812502183,6.01933593749709-4.362890625001455,8.553515624998909-2.103515624998181,2.535351562501091-4.738476562495634,4.52226562499709-7.906054687500728,5.961328124998545-3.168164062499272,1.440820312500364-6.710742187498909,2.160351562501091-10.627148437499272,2.160351562501091-4.723242187501455,0-8.928515625000728-1.007226562502183-12.614062500000728-3.024023437499636-3.686718749997453-2.015625-6.566601562499272-4.895507812501819-8.640234374997817-8.640234375001455-2.073632812502183-3.743554687498545-3.11015624999709-8.121679687501455-3.11015624999709-13.132617187498909,0-5.011523437502547,1.021874999994907-9.387890624997453,3.066796874996726-13.133203125000364,2.044335937500364-3.743554687502183,4.910156249998181-6.622851562500728,8.596875000001091-8.639648437498181,3.685546874998181-2.015625,7.919531249997817-3.024023437501455,12.700781249997817-3.024023437501455,4.665820312502547,0,8.813085937501455.980273437498909,12.441796875000364,2.937304687498909,3.628710937498909,1.959374999998545,6.465234375002183,4.751953125,8.510156250002183,8.381250000002183,2.044335937498545,3.628710937498909,3.0673828125,7.862109375000728,3.0673828125,12.700781249997817,0,1.382226562500364-.086132812501091,2.822460937501091-.258984374999272,4.319531250001091ZM512.604882812502183,624.541228014750232c0-2.533593749998545-.863671875000364-4.549218749998545-2.591601562500728-6.048046874997453-1.727929687500364-1.497070312498181-3.888281250001455-2.246484374998545-6.48046875-2.246484374998545-2.476757812499272,0-4.565624999999272.721289062497817-6.263671875,2.160351562497453-1.699804687501455,1.440234375000728-2.751562500001455,3.485742187498545-3.153515624999272,6.134179687498545h18.4892578125Z" fill="#2d2d2d"/>
            <path d="M578.398046874999636,610.069157702255325c3.369726562501455,3.658593749996726,5.054296875001455,8.683593749998181,5.054296875001455,15.076757812497817v28.166601562499636h-14.687695312501091v-26.179101562500364c0-3.225000000002183-.835546874995998-5.731054687501455-2.505468749995998-7.516992187502183-1.671679687506185-1.784765624997817-3.91816406250291-2.678320312497817-6.73945312500291-2.678320312497817-2.823046875000728,0-5.068945312501455.8935546875-6.739453125001091,2.678320312497817-1.671093749999272,1.785937500000728-2.505468750001455,4.2919921875-2.505468750001455,7.516992187502183v26.179101562500364h-14.774414062496362v-48.2109375h14.774414062496362v6.393164062499636c1.497070312501819-2.129882812501819,3.512695312501819-3.815039062499636,6.048046874999272-5.054296875003274,2.534179687501819-1.23808593749709,5.385351562503274-1.857421874996362,8.553515625004366-1.857421874996362,5.644335937498909,0,10.151953124995998,1.829296874997453,13.521679687497453,5.486132812502547Z" fill="#2d2d2d"/>
            <path d="M593.604296874998909,616.073845202252414c1.870898437500728-3.743554687502183,4.419726562500728-6.622851562500728,7.646484375-8.639648437498181,3.225000000004002-2.015625,6.825585937502183-3.024023437501455,10.800000000001091-3.024023437501455,3.166992187501819,0,6.061523437498181.662695312499636,8.683007812498545,1.986914062499636,2.620312499999272,1.325976562500728,4.679296875001455,3.110742187500364,6.177539062502547,5.357226562500728v-22.377539062501455h14.7744140625v63.935742187501091h-14.7744140625v-6.911718749999636c-1.382226562502183,2.303906249999272-3.355664062501091,4.146679687499272-5.91796875,5.529492187495634-2.564062499999636,1.382226562504002-5.544726562502547,2.073632812504002-8.942578125001091,2.073632812504002-3.974414062498909,0-7.57499999999709-1.021875000000364-10.800000000001091-3.0673828125-3.226757812499272-2.043750000002547-5.775585937499272-4.952929687500728-7.646484375-8.726367187502547-1.872656249997817-3.771679687497453-2.807812499997453-8.135156249998545-2.807812499997453-13.08984375,0-4.952929687498909.935156249999636-9.301171874994907,2.807812499997453-13.046484374997817ZM623.844531249998909,620.480681139750232c-2.045507812497817-2.130468749995998-4.536328124999272-3.196874999997817-7.4736328125-3.196874999997817-2.937890625000364,0-5.429882812497453,1.0517578125-7.4736328125,3.153515624999272-2.045507812497817,2.103515625-3.0673828125,4.997460937498545-3.0673828125,8.683007812498545,0,3.687304687502547,1.021875000002183,6.609960937501455,3.0673828125,8.76972656250291,2.043750000002547,2.160351562499272,4.535742187499636,3.240234374998181,7.4736328125,3.240234374998181,2.937304687500728,0,5.428125000002183-1.065234374998909,7.4736328125-3.196874999999636,2.043750000002547-2.130468750001455,3.066796875002183-5.039648437501455,3.066796875002183-8.726367187498909,0-3.685546875001819-1.023046874999636-6.5947265625-3.066796875002183-8.726367187502547Z" fill="#2d2d2d"/>
            <path d="M697.5859375,632.749040514752778h-33.437109374995998c.229687499997453,2.995898437498909,1.194726562494907,5.285742187499636,2.894531249998181,6.868945312498909,1.698046874998909,1.5849609375,3.786914062498909,2.3759765625,6.264257812497817,2.3759765625,3.685546875,0,6.2490234375-1.555078124998545,7.689257812498909-4.665234374997453h15.724804687499272c-.80742187499709,3.168164062497453-2.261132812498545,6.01933593749709-4.362890624997817,8.553515624998909-2.103515625,2.535351562501091-4.738476562497453,4.52226562499709-7.906054687502547,5.961328124998545-3.168164062495634,1.440820312500364-6.710742187498909,2.160351562501091-10.627148437499272,2.160351562501091-4.723242187499636,0-8.928515624998909-1.007226562502183-12.614062500000728-3.024023437499636-3.686718749999272-2.015625-6.566601562493815-4.895507812501819-8.640234374997817-8.640234375001455-2.073632812498545-3.743554687498545-3.110156249998909-8.121679687501455-3.110156249998909-13.132617187498909,0-5.011523437502547,1.021874999996726-9.387890624997453,3.066796874996726-13.133203125000364,2.044335937504002-3.743554687502183,4.910156250003638-6.622851562500728,8.59687500000291-8.639648437498181,3.685546874998181-2.015625,7.919531250003274-3.024023437501455,12.700781249997817-3.024023437501455,4.665820312502547,0,8.813085937501455.980273437498909,12.441796875000364,2.937304687498909,3.628710937502547,1.959374999998545,6.465234374998545,4.751953125,8.510156250002183,8.381250000002183,2.044335937498545,3.628710937498909,3.0673828125,7.862109375000728,3.0673828125,12.700781249997817,0,1.382226562500364-.086132812501091,2.822460937501091-.258984375001091,4.319531250001091ZM682.724804687501091,624.541228014750232c0-2.533593749998545-.863671875002183-4.549218749998545-2.591601562500728-6.048046874997453-1.727929687500364-1.497070312498181-3.888281250001455-2.246484374998545-6.480468749998181-2.246484374998545-2.476757812501091,0-4.565625000001091.721289062497817-6.263671875003638,2.160351562497453-1.699804687499636,1.440234375000728-2.751562499999636,3.485742187498545-3.153515624997453,6.134179687498545h18.4892578125Z" fill="#2d2d2d"/>
          </g>
        </g>
        <g>
          <g>
            <path d="M220.9326171875,950.400390625c-47.6416015625,0-86.400390625-38.7587890625-86.400390625-86.400390625s38.7587890625-86.400390625,86.400390625-86.400390625h576c47.6416015625,0,86.400390625,38.7587890625,86.400390625,86.400390625s-38.7587890625,86.400390625-86.400390625,86.400390625H220.9326171875Z" fill="url(#linear-gradient-4)"/>
            <path d="M220.9326171875,950.400390625c-47.6416015625,0-86.400390625-38.7587890625-86.400390625-86.400390625s38.7587890625-86.400390625,86.400390625-86.400390625h576c47.6416015625,0,86.400390625,38.7587890625,86.400390625,86.400390625s-38.7587890625,86.400390625-86.400390625,86.400390625H220.9326171875Z" fill="url(#New_Gradient_Swatch_1-3)"/>
            <path d="M796.932861328125,787.2001953125c42.34765625,0,76.800048828125,34.4521484375,76.800048828125,76.7998046875s-34.452392578125,76.7998046875-76.800048828125,76.7998046875H220.9326171875c-42.34765625,0-76.7998046875-34.4521484375-76.7998046875-76.7998046875s34.4521484375-76.7998046875,76.7998046875-76.7998046875h576.000244140625M796.932861328125,768H220.9326171875c-53.019287109375,0-95.999755859375,42.98046875-95.999755859375,96s42.98046875,96,95.999755859375,96h576.000244140625c53.019287109375,0,96-42.98046875,96-96s-42.980712890625-96-96-96h0Z" fill="#2d2d2d"/>
          </g>
          <g>
            <path d="M288.184375000002547,841.665234374999272c2.59160156249709-4.693945312499636,6.205664062501455-8.350781249999272,10.8427734375-10.972851562499272,4.635937499997453-2.620312500001091,9.892968749998545-3.931054687500364,15.768164062497817-3.931054687500364,7.199414062501091,0,13.362304687503638,1.900781250000364,18.489843749999636,5.70234375000291,5.125781250000728,3.80156249999709,8.553515624998909,8.985937499997817,10.281445312501091,15.551953124997453h-16.243359374999272c-1.209375000000364-2.533593749998545-2.923828125001819-4.463085937497453-5.140429687500728-5.788476562500364-2.218359375001455-1.324218749998181-4.73906249999709-1.987499999999272-7.560351562502547-1.987499999999272-4.550976562497453,0-8.237695312498545,1.5849609375-11.058984374998545,4.751953124998181-2.82304687499709,3.168750000000728-4.233984374997817,7.402148437498909-4.233984374997817,12.700781250001455,0,5.300390625001455,1.410937500000728,9.533789062501455,4.233984374997817,12.701367187499272,2.8212890625,3.168164062499272,6.508007812501091,4.751953124998181,11.058984374998545,4.751953124998181,2.821289062505457,0,5.341992187501091-.661523437500364,7.560351562502547-1.987499999999272,2.216601562498909-1.324218749998181,3.931054687500364-3.253710937500728,5.140429687500728-5.788476562498545h16.243359374999272c-1.727929687502183,6.566015624997817-5.155664062500364,11.736914062499636-10.281445312501091,15.508593749998909-5.127539062495998,3.7734375-11.290429687498545,5.658984374998909-18.489843749999636,5.658984374998909-5.875195312499272,0-11.132226562500364-1.309570312498181-15.768164062497817-3.931054687500364-4.637109374998545-2.620312499995634-8.25117187500291-6.264257812499636-10.8427734375-10.929492187500728-2.592187500000364-4.665820312498909-3.888281250001455-9.992578124996726-3.888281250001455-15.984374999996362,0-5.989453124999272,1.296093750001091-11.331445312498545,3.888281250001455-16.027148437500728Z" fill="#2d2d2d"/>
            <path d="M361.839648437502547,885.772851562498545c-3.772851562502183-2.015625-6.738867187501455-4.895507812498181-8.899218750000728-8.640234374997817-2.159765624999636-3.743554687502183-3.239648437502183-8.121679687503274-3.239648437502183-13.132617187500728,0-4.953515624998545,1.093359375001455-9.31640625,3.283007812502547-13.08984375,2.188476562498181-3.771679687501091,5.183789062499272-6.666210937501091,8.985937499997817-8.683007812500364,3.801562500000728-2.015625,8.063085937501455-3.024023437499636,12.786914062502547-3.024023437499636,4.722070312498545,0,8.985351562498181,1.008398437499636,12.786914062498909,3.024023437499636,3.802148437498545,2.016796874999272,6.796289062496726,4.911328124999272,8.985937499999636,8.683007812500364,2.1884765625,3.7734375,3.283007812498909,8.136328125001455,3.283007812498909,13.08984375,0,4.954101562498181-1.109765625000364,9.317578124999272-3.326367187497453,13.089257812498545-2.217773437503638,3.7734375-5.241796875001455,6.66796875-9.072070312500728,8.68359375-3.830859375000728,2.016796875001091-8.108203125000728,3.024023437497817-12.830273437501091,3.024023437497817-4.723828124999272,0-8.971875000001091-1.007226562496726-12.744140624998181-3.024023437497817ZM381.798437499999636,872.899218749998909c1.986914062501455-2.073632812500364,2.98066406250291-5.039648437499636,2.98066406250291-8.899218749998909,0-3.8583984375-.96503906250291-6.825585937500364-2.894531250001819-8.899218750000728-1.930664062498181-2.073632812498545-4.306640624998181-3.110742187500364-7.127929687498181-3.110742187500364-2.881054687501091,0-5.2705078125,1.023632812497453-7.171289062502183,3.067382812503638-1.900781250000364,2.045507812495998-2.851171874997817,5.026171874998909-2.851171874997817,8.942578124997453,0,3.859570312499272.935742187497453,6.825585937498545,2.807812499999272,8.899218749998909,1.871484374998545,2.073632812500364,4.218749999998181,3.110156250002547,7.041796874998909,3.110156250002547,2.8212890625,0,5.227148437499636-1.036523437502183,7.214648437498909-3.110156250002547Z" fill="#2d2d2d"/>
            <path d="M483.490234375001819,844.8193359375c3.542578124997817,3.628710937500728,5.31328124999709,8.669531250001455,5.31328124999709,15.119531249998545v28.166601562501455h-14.687695312499272v-26.179101562498545c0-3.110742187504002-.820898437499636-5.51484375000291-2.462695312500728-7.214648437500728-1.641210937497817-1.698046875004366-3.902343749998181-2.548828124998181-6.7822265625-2.548828124998181-2.881054687499272,0-5.14042968749709.850781249993815-6.782226562498181,2.548828124998181-1.641796875001091,1.699804687497817-2.462695312500728,4.103906249996726-2.462695312500728,7.214648437500728v26.179101562498545h-14.687695312501091v-26.179101562498545c0-3.110742187504002-.820898437497817-5.51484375000291-2.462695312498909-7.214648437500728-1.641210937499636-1.698046875004366-3.902929687497817-2.548828124998181-6.7822265625-2.548828124998181-2.881054687501091,0-5.141015624998545.850781249993815-6.782226562498181,2.548828124998181-1.641796874999272,1.699804687497817-2.462695312500728,4.103906249996726-2.462695312500728,7.214648437500728v26.179101562498545h-14.7744140625v-48.210937500001819h14.7744140625v6.047460937503274c1.497070312501819-2.015039062502183,3.455859374998909-3.613476562501091,5.875195312501091-4.794726562500728,2.419335937500364-1.180078125002183,5.154492187499272-1.771289062504366,8.208398437500364-1.771289062504366,3.628710937498909,0,6.868359374997453.77753906250291,9.719531249998909,2.332617187503274,2.851171875001455,1.555078124996726,5.0830078125,3.773437500001819,6.696093750000728,6.652734375000364,1.669921875-2.648437500003638,3.945117187498909-4.808789062497453,6.825585937496726-6.479882812498545,2.8798828125-1.669921875001819,6.018164062503274-2.505468750005093,9.417773437498909-2.505468750005093,5.990039062502547,0,10.756640625004366,1.814062500005093,14.299218750004002,5.443359375003638Z" fill="#2d2d2d"/>
            <path d="M519.906835937501455,841.276757812500364c2.533593749998545-1.382226562502183,5.499609375001455-2.073632812500364,8.899218749998909-2.073632812500364,3.974414062500728,0,7.573242187501819,1.008398437499636,10.800000000001091,3.024023437499636,3.225000000000364,2.016796874999272,5.773828124996726,4.896093749999636,7.646484375,8.6396484375,1.870898437498909,3.745312500001091,2.807812499997453,8.093554687500728,2.807812499997453,13.046484374999636,0,4.954687500003274-.936914062498545,9.318164062500728-2.807812499997453,13.08984375-1.872656250003274,3.773437499998181-4.421484374999636,6.6826171875-7.646484375,8.72636718749709-3.226757812499272,2.045507812505093-6.825585937500364,3.0673828125-10.800000000001091,3.0673828125-3.341601562498909,0-6.294140624999272-.691406249996362-8.856445312496362-2.073632812494907-2.5634765625-1.382812500001819-4.56562500000291-3.1669921875-6.004687500006185-5.357226562500728v29.721679687498181h-14.774414062498181v-71.193164062500728h14.774414062498181v6.825585937500364c1.439062500003274-2.246484374998545,3.426562500002547-4.061132812497817,5.961914062503638-5.443359374998181ZM531.959570312497817,855.230273437498909c-2.045507812497817-2.101757812497453-4.565624999997453-3.153515624997453-7.560351562498909-3.153515624997453-2.937304687498909,0-5.429296874997817,1.066406249998181-7.473632812498181,3.196874999995998-2.044921875001819,2.131640625000728-3.066796874996726,5.040820312502547-3.066796874996726,8.726367187502547,0,3.686718749999272,1.021874999994907,6.595898437499272,3.066796874996726,8.726367187500728,2.044335937500364,2.131640624998909,4.536328124999272,3.196874999999636,7.473632812498181,3.196874999999636,2.937890625002183,0,5.443359375-1.079882812498909,7.516992187502183-3.240234375001819,2.073632812496726-2.159765624999636,3.110742187500364-5.082421875002183,3.110742187500364-8.769726562499272,0-3.685546875-1.023632812497453-6.579492187498545-3.067382812503638-8.683007812500364Z" fill="#2d2d2d"/>
            <path d="M557.705078125,850.866796874999636c1.870898437498909-3.743554687500364,4.419726562498909-6.622851562500728,7.646484375-8.6396484375,3.225000000004002-2.015625,6.825585937500364-3.024023437499636,10.800000000001091-3.024023437499636,3.397851562498545,0,6.378515624997817.691406249998181,8.942578124997453,2.073632812500364,2.562304687502547,1.382226562500364,4.535742187501455,3.196874999999636,5.917968750001819,5.443359374998181v-6.825585937500364h14.774414062501819v48.210937500001819h-14.774414062501819v-6.825585937500364c-1.440234375000728,2.246484375000364-3.442382812501819,4.060546875-6.004687499998909,5.443359375001819-2.5634765625,1.382226562498545-5.544140624999272,2.073632812494907-8.942578124999272,2.073632812494907-3.917578125001455,0-7.488281249998181-1.021874999994907-10.713281250002183-3.0673828125-3.226757812501091-2.04374999999709-5.775585937501091-4.952929687498909-7.646484375-8.72636718749709-1.872656249995998-3.771679687499272-2.807812500001091-8.135156249996726-2.807812500001091-13.08984375,0-4.952929687498909.935156250005093-9.301171874998545,2.807812500001091-13.046484374999636ZM587.9453125,855.273632812497453c-2.045507812495998-2.130468749997817-4.536328125001091-3.196874999995998-7.4736328125-3.196874999995998-2.937890625000364,0-5.429882812501091,1.0517578125-7.4736328125,3.153515624997453-2.045507812495998,2.103515625001819-3.0673828125,4.997460937500364-3.0673828125,8.683007812500364,0,3.68730468749709,1.021875000004002,6.609960937499636,3.0673828125,8.769726562499272,2.043749999998909,2.16035156250291,4.535742187499636,3.240234375001819,7.4736328125,3.240234375001819,2.937304687498909,0,5.428125000004002-1.065234375000728,7.4736328125-3.196874999999636,2.043749999998909-2.130468750001455,3.066796875000364-5.039648437501455,3.066796875000364-8.726367187500728,0-3.685546875-1.023046875001455-6.594726562501819-3.066796875000364-8.726367187502547Z" fill="#2d2d2d"/>
            <path d="M637.7529296875,841.665234374999272c2.592187500002183-1.525195312500728,5.472070312504002-2.28925781250291,8.640234374999636-2.28925781250291v15.638085937504002h-4.060546875001819c-3.687304687498909,0-6.451757812499636.792773437498909-8.294531249995998,2.375976562498181-1.843945312501091,1.5849609375-2.765039062500364,4.363476562501091-2.765039062500364,8.337890625v22.377539062501455h-14.774414062503638v-48.210937500001819h14.774414062503638v8.034960937500728c1.727929687498545-2.648437499996362,3.888281249999636-4.7373046875,6.479882812498545-6.264257812499636Z" fill="#2d2d2d"/>
            <path d="M680.347656250001819,875.577539062498545v12.527929687501455h-7.516992187502183c-5.356640624999272,0-9.533203125-1.309570312503638-12.527929687499636-3.931054687500364-2.995312499999272-2.620312499999272-4.492382812501091-6.897070312499636-4.492382812501091-12.830273437499272v-19.181249999997817h-5.875195312497453v-12.268359375004366h5.875195312497453v-11.750390624996726h14.7744140625v11.750390624996726h9.6767578125v12.268359375004366h-9.6767578125v19.353515624996362c0,1.440820312500364.345117187502183,2.477343750002547,1.036523437504002,3.110742187500364.691406249998181.634570312500728,1.842773437498181.950390624999272,3.45585937499709.950390624999272h5.270507812501819Z" fill="#2d2d2d"/>
            <path d="M733.742382812501091,867.5419921875h-33.437109374999636c.229687499997453,2.995898437500728,1.194726562498545,5.285742187501455,2.89453125,6.868945312498909,1.698046875000728,1.584960937501819,3.786914062500728,2.3759765625,6.264257812499636,2.3759765625,3.685546875001819,0,6.249023437501819-1.555078125000364,7.689257812498909-4.665234374999272h15.724804687501091c-.807421875002547,3.16816406250291-2.261132812502183,6.019335937498909-4.362890625001455,8.553515625000728-2.103515625,2.535351562499272-4.738476562497453,4.522265624998909-7.906054687500728,5.961328124998545-3.168164062497453,1.440820312498545-6.710742187500728,2.160351562497453-10.627148437497453,2.160351562497453-4.723242187499636,0-8.928515625000728-1.007226562496726-12.614062500000728-3.024023437497817-3.686718749999272-2.015625-6.566601562501091-4.895507812498181-8.640234374999636-8.640234374997817-2.073632812500364-3.743554687502183-3.110156250002547-8.121679687503274-3.110156250002547-13.132617187500728,0-5.011523437500728,1.021875000000364-9.387890624999272,3.066796875000364-13.133203125000364,2.044335937502183-3.743554687500364,4.91015625-6.622851562500728,8.596875000001091-8.6396484375,3.685546874998181-2.015625,7.919531249999636-3.024023437499636,12.700781250001455-3.024023437499636,4.665820312502547,0,8.813085937499636.980273437500728,12.441796875000364,2.937304687498909,3.62871093749709,1.959375000000364,6.465234375002183,4.751953125001819,8.510156250000364,8.381250000000364,2.044335937496726,3.628710937500728,3.067382812498181,7.862109374998909,3.067382812498181,12.700781250001455,0,1.382226562496726-.086132812499272,2.822460937499272-.258984374999272,4.319531249999272ZM718.881249999998545,859.334179687499272c0-2.533593749998545-.863671875000364-4.549218750000364-2.591601562498909-6.048046874999272-1.727929687498545-1.4970703125-3.888281249997817-2.246484374998545-6.480468750001819-2.246484374998545-2.476757812495634,0-4.565624999993815.721289062495998-6.263671874996362,2.160351562499272-1.699804687499636,1.440234375000728-2.751562499999636,3.485742187498545-3.153515624997453,6.134179687498545h18.489257812494543Z" fill="#2d2d2d"/>
          </g>
        </g>
      </g>
    </g>
  </g>
</svg>