<?xml version="1.0" encoding="UTF-8"?>
<svg id="Layer_2" data-name="Layer 2" xmlns="http://www.w3.org/2000/svg" xmlns:xlink="http://www.w3.org/1999/xlink" viewBox="0 0 512 512">
  <defs>
    <linearGradient id="cyan-green" x1="-46.851251684409362" y1="337.148748315590638" x2="558.851251684407089" y2="174.85125168440689" gradientUnits="userSpaceOnUse">
      <stop offset="0" stop-color="#00e6ff"/>
      <stop offset="1" stop-color="#c0ff1c"/>
    </linearGradient>
    <linearGradient id="New_Gradient_Swatch_1" data-name="New Gradient Swatch 1" x1="255.999999999996362" y1="448.00000343528518" x2="255.99999999999639" y2="63.999996564753019" gradientUnits="userSpaceOnUse">
      <stop offset="0" stop-color="#fff" stop-opacity="0"/>
      <stop offset="1" stop-color="#fff"/>
    </linearGradient>
  </defs>
  <g id="icons">
    <g>
      <rect width="512" height="512" fill="url(#cyan-green)"/>
      <path d="M405.333327454747632,213.333332569955019c.000010172530892,106.666668575149743-149.333327454745813,234.666670865330161-149.333327454745813,234.666670865330161,0,0-149.333317282225835-128.000002290180419-149.333327454754908-234.666670865330161-.000007865382941-82.474524112416475,66.8588080646241-149.333336005202,149.33332745475127-149.333336005202,82.474519390125351,0,149.333319589359235,66.858811892785525,149.333327454749451,149.333336005202Z" fill="url(#New_Gradient_Swatch_1)"/>
      <path d="M256,80c35.61474609375,0,69.09765625,13.869140625,94.281005859375,39.05224609375,25.18310546875,25.18359375,39.05224609375,58.66650390625,39.05224609375,94.28125,0,39.76513671875-24.451416015625,90.52392578125-70.7109375,146.78955078125-24.4267578125,29.7099609375-49.1318359375,53.796875-62.625732421875,66.32861328125-13.42138671875-12.458984375-37.935302734375-36.35546875-62.312255859375-65.9560546875-46.460205078125-56.416015625-71.017578125-107.3037109375-71.017578125-147.162109375,0-35.61474609375,13.869140625-69.09765625,39.05224609375-94.28125,25.183349609375-25.18310546875,58.666259765625-39.05224609375,94.281005859375-39.05224609375M256,64c-82.474609375,0-149.333251953125,66.85888671875-149.333251953125,149.33349609375,0,106.66650390625,149.333251953125,234.66650390625,149.333251953125,234.66650390625,0,0,149.333251953125-128,149.333251953125-234.66650390625,0-82.474609375-66.858642578125-149.33349609375-149.333251953125-149.33349609375h0Z" fill="#333"/>
      <path d="M256,144.00244140625c35.289794921875,0,64,28.71044921875,64,64s-28.710205078125,64-64,64-64-28.71044921875-64-64,28.710205078125-64,64-64M256,128.00244140625c-44.182861328125,0-80,35.8173828125-80,80s35.817138671875,80,80,80,80-35.8173828125,80-80-35.817138671875-80-80-80h0Z" fill="#333"/>
    </g>
  </g>
</svg>