<svg xmlns="http://www.w3.org/2000/svg" viewBox="0 0 1024 1536"><defs><clipPath id="clippath"><path d="M0 0h1024v1536H0z" class="st37"/></clipPath><clipPath id="clippath-1"><path d="M0 0h1024v1536H0z" class="st37"/></clipPath><style>.st0,.st1,.st2,.st3{fill:#ffe68a}.st1,.st10,.st11,.st12,.st13,.st14,.st15,.st2,.st4,.st5,.st6,.st7,.st8,.st9{stroke:#080b57}.st10,.st11,.st12,.st16,.st17,.st18,.st19,.st20,.st21,.st22,.st23,.st24,.st25,.st26,.st27,.st28,.st29,.st30,.st31,.st32,.st33,.st34,.st4,.st5,.st6{fill:none}.st1,.st2,.st20,.st21,.st4,.st5,.st6{stroke-linejoin:round}.st1,.st10,.st11,.st12,.st13,.st14,.st15,.st2,.st20,.st21,.st22,.st23,.st24,.st25,.st26,.st35,.st36,.st4,.st5,.st6,.st7,.st8,.st9{stroke-width:1.12px}.st10,.st11,.st12,.st13,.st14,.st15,.st16,.st17,.st18,.st19,.st22,.st23,.st24,.st25,.st26,.st27,.st28,.st29,.st30,.st31,.st32,.st33,.st34,.st35,.st36,.st7,.st8,.st9{stroke-miterlimit:10}.st37,.st7,.st8,.st9{fill:#8187e4}.st16,.st17,.st18,.st19,.st20,.st21,.st22,.st23,.st31,.st32,.st35,.st36{stroke:#fff}.st16,.st17,.st29,.st30{stroke-width:2.62px}.st18,.st19,.st27,.st28{stroke-width:3.37px}.st35,.st36,.st38{fill:#fff}.st13,.st14,.st15,.st40{fill:#080b57}.st24,.st25,.st26,.st27,.st28,.st29,.st30,.st33,.st34{stroke:#8187e4}.st31,.st32,.st33,.st34{stroke-width:1.87px}</style></defs><g id="frame2"><path d="M0 0h1024v1536H0z" class="st37"/><g style="clip-path:url(#clippath)"><path d="M-64.05 706.16v-21.75c0-4.21 2.14-7.94 5.3-9.25l28.14-11.71a6.33 6.33 0 0 1 2.41-.49H216.76c4.19 0 7.59 4.3 7.59 9.6v33.6M-64.05 706.16v19.2c0 5.3 3.4 9.6 7.59 9.6H216.75c4.19 0 7.59-4.3 7.59-9.6v-19.2" class="st36"/><path d="M80.46 686.96h118.9c1.06 0 1.92 1.09 1.92 2.43v34.51c0 .81-.52 1.46-1.16 1.46H64c-.64 0-1.16-.65-1.16-1.46v-27.98c0-1.05.53-1.98 1.32-2.31l15.69-6.53c.19-.08.4-.12.6-.12Z" class="st38"/><path d="M201.27 723.4H62.84" class="st18"/><path d="M201.27 717.74H62.84" class="st17"/><path d="M201.27 712.09H62.84" class="st32"/><path d="M201.27 706.44H62.84" class="st22"/><path d="M80.15 686.96h119.2c1.06 0 1.92 1.09 1.92 2.43v33.54c0 1.34-.86 2.43-1.92 2.43H64.77c-1.06 0-1.92-1.09-1.92-2.43v-27.01c0-1.05.53-1.98 1.32-2.31l15.98-6.65Z" class="st21"/><path d="M212.81 706.16v-28.74c0-2.68-1.72-4.86-3.85-4.86H75c-.41 0-.81.08-1.2.24l-31.38 13.06c-1.58.66-2.64 2.52-2.64 4.62v15.68M39.77 706.16v19.13c0 2.69 1.72 4.87 3.85 4.87h165.34c2.12 0 3.85-2.18 3.85-4.86v-19.14" class="st22"/><path d="M-64.05 711.25V689.5c0-4.21 2.14-7.94 5.3-9.25l28.14-11.71a6.33 6.33 0 0 1 2.41-.49H216.76c4.19 0 7.59 4.3 7.59 9.6v33.6" class="st14"/><path d="M-64.05 711.25v19.2c0 5.3 3.4 9.6 7.59 9.6H216.75c4.19 0 7.59-4.3 7.59-9.6v-19.2" class="st8"/><path d="M80.46 692.05h118.9c1.06 0 1.92 1.09 1.92 2.43v34.51c0 .81-.52 1.46-1.16 1.46H64c-.64 0-1.16-.65-1.16-1.46v-27.98c0-1.05.53-1.98 1.32-2.31l15.69-6.53c.19-.08.4-.12.6-.12Z" class="st3"/><path d="M201.27 728.49H62.84" class="st27"/><path d="M201.27 722.84H62.84" class="st30"/><path d="M201.27 717.18H62.84" class="st34"/><path d="M201.27 711.53H62.84" class="st25"/><path d="M80.15 692.05h119.2c1.06 0 1.92 1.09 1.92 2.43v33.54c0 1.34-.86 2.43-1.92 2.43H64.77c-1.06 0-1.92-1.09-1.92-2.43v-27.01c0-1.05.53-1.98 1.32-2.31l15.98-6.65Z" class="st5"/><path d="M212.81 711.25v-28.74c0-2.68-1.72-4.86-3.85-4.86H75c-.41 0-.81.08-1.2.24l-31.38 13.06c-1.58.66-2.64 2.52-2.64 4.62v15.68" class="st25"/><path d="M39.77 711.25v19.13c0 2.69 1.72 4.87 3.85 4.87h165.34c2.12 0 3.85-2.18 3.85-4.86v-19.14" class="st11"/><path d="M1087.95 701.94v21.75c0 4.21-2.14 7.94-5.3 9.25l-28.14 11.71c-.78.32-1.59.49-2.41.49H807.14c-4.19 0-7.59-4.3-7.59-9.6v-33.6M1087.95 701.94v-19.2c0-5.3-3.4-9.6-7.59-9.6H807.15c-4.19 0-7.59 4.3-7.59 9.6v19.2" class="st36"/><path d="M943.44 721.14h-118.9c-1.06 0-1.92-1.09-1.92-2.43V684.2c0-.81.52-1.46 1.16-1.46H959.9c.64 0 1.16.65 1.16 1.46v27.98c0 1.05-.53 1.98-1.32 2.31l-15.69 6.53c-.19.08-.4.12-.6.12Z" class="st38"/><path d="M822.62 684.71h138.43" class="st18"/><path d="M822.62 690.36h138.43" class="st17"/><path d="M822.62 696.01h138.43" class="st32"/><path d="M822.62 701.66h138.43" class="st22"/><path d="M943.75 721.14h-119.2c-1.06 0-1.92-1.09-1.92-2.43v-33.54c0-1.34.86-2.43 1.92-2.43h134.59c1.06 0 1.92 1.09 1.92 2.43v27.01c0 1.05-.53 1.98-1.32 2.31l-15.98 6.65Z" class="st21"/><path d="M811.09 701.94v28.74c0 2.68 1.72 4.86 3.85 4.86h133.97c.41 0 .81-.08 1.2-.24l31.38-13.06c1.58-.66 2.64-2.52 2.64-4.62v-15.68M984.13 701.94v-19.13c0-2.69-1.72-4.87-3.85-4.87H814.94c-2.12 0-3.85 2.18-3.85 4.86v19.14" class="st22"/><path d="M1087.95 696.85v21.75c0 4.21-2.14 7.94-5.3 9.25l-28.14 11.71c-.78.32-1.59.49-2.41.49H807.14c-4.19 0-7.59-4.3-7.59-9.6v-33.6" class="st14"/><path d="M1087.95 696.85v-19.2c0-5.3-3.4-9.6-7.59-9.6H807.15c-4.19 0-7.59 4.3-7.59 9.6v19.2" class="st8"/><path d="M943.44 716.05h-118.9c-1.06 0-1.92-1.09-1.92-2.43v-34.51c0-.81.52-1.46 1.16-1.46H959.9c.64 0 1.16.65 1.16 1.46v27.98c0 1.05-.53 1.98-1.32 2.31l-15.69 6.53c-.19.08-.4.12-.6.12Z" class="st3"/><path d="M822.62 679.61h138.43" class="st27"/><path d="M822.62 685.27h138.43" class="st30"/><path d="M822.62 690.92h138.43" class="st34"/><path d="M822.62 696.57h138.43" class="st25"/><path d="M943.75 716.05h-119.2c-1.06 0-1.92-1.09-1.92-2.43v-33.54c0-1.34.86-2.43 1.92-2.43h134.59c1.06 0 1.92 1.09 1.92 2.43v27.01c0 1.05-.53 1.98-1.32 2.31l-15.98 6.65Z" class="st5"/><path d="M811.09 696.85v28.74c0 2.68 1.72 4.86 3.85 4.86h133.97c.41 0 .81-.08 1.2-.24l31.38-13.06c1.58-.66 2.64-2.52 2.64-4.62v-15.68" class="st25"/><path d="M984.13 696.85v-19.13c0-2.69-1.72-4.87-3.85-4.87H814.94c-2.12 0-3.85 2.18-3.85 4.86v19.14" class="st11"/><path d="m727.56 895.17-57.16 57.16c-9.02 9.02-9.03 23.64-.02 32.65l156.39 156.39c4.33 4.33 10.2 6.76 16.32 6.75l29.84-.02c6.12 0 12-2.44 16.33-6.77l42.23-42.23" class="st14"/><path d="m931.49 1099.1 32.66-32.66c9.02-9.02 9.03-23.64.02-32.65l-171.3-171.3c-9.01-9.01-23.63-9-32.65.02l-32.66 32.66" class="st8"/><path d="m795.17 1028.1-79.88-79.88a5.776 5.776 0 0 1 0-8.16l57.16-57.16c2.25-2.25 5.91-2.26 8.16 0l89.73 89.73a5.776 5.776 0 0 1 0 8.16l-47.3 47.3a5.776 5.776 0 0 1-4.08 1.69h-19.7c-1.53.01-3-.6-4.08-1.68Z" class="st3"/><path d="m795.17 1028.1-79.88-79.88a5.776 5.776 0 0 1 0-8.16l57.16-57.16c2.25-2.25 5.91-2.26 8.16 0l89.73 89.73a5.776 5.776 0 0 1 0 8.16l-47.3 47.3a5.776 5.776 0 0 1-4.08 1.69h-19.7c-1.53.01-3-.6-4.08-1.68Z" class="st5"/><path d="m735.72 903.32-48.99 48.99c-4.51 4.51-4.51 11.82 0 16.32l86.35 86.35c2.16 2.16 5.1 3.38 8.16 3.38l39.41-.02c3.06 0 6-1.22 8.16-3.38l29.28-29.28" class="st25"/><path d="m858.08 1025.68 32.66-32.66c4.51-4.51 4.51-11.82 0-16.32L784.7 870.66c-4.5-4.5-11.81-4.5-16.32 0l-32.66 32.66" class="st11"/><path d="m816.76 919.04-23.94 41.38M792.92 895.2l-.1 65.22M757.03 898.33l35.79 62.09M730.72 924.64l62.1 35.78M727.6 960.53l65.22-.11M751.43 984.36l41.39-23.94M768.88 1001.81l23.94-41.39M792.72 1025.65l.1-65.23M828.61 1022.52l-35.79-62.1M854.92 996.21l-62.1-35.79M858.04 960.32l-65.22.1M834.21 936.49l-41.39 23.93" class="st5"/><path d="m808.18 951.54-6.48-6.48-8.85-2.36-8.87 2.39-6.49 6.5-2.39 8.86 2.36 8.86 6.48 6.47 8.85 2.36 8.86-2.38 6.5-6.5 2.39-8.86-2.36-8.86z" class="st1"/><path d="m703.07 488.44 57.16 57.16c9.02 9.02 23.64 9.03 32.65.02l156.39-156.39c4.33-4.33 6.76-10.2 6.75-16.32l-.02-29.84c0-6.12-2.44-12-6.77-16.33L907 284.51" class="st14"/><path d="m906.99 284.51-32.66-32.66c-9.02-9.02-23.64-9.03-32.65-.02l-171.3 171.3c-9.01 9.01-9 23.63.02 32.65l32.66 32.66" class="st8"/><path d="m836 420.83-79.88 79.88a5.776 5.776 0 0 1-8.16 0l-57.16-57.16c-2.25-2.25-2.26-5.91 0-8.16l89.73-89.73a5.776 5.776 0 0 1 8.16 0l47.3 47.3a5.776 5.776 0 0 1 1.69 4.08v19.7c.01 1.53-.6 3-1.68 4.08Z" class="st3"/><path d="m836 420.83-79.88 79.88a5.776 5.776 0 0 1-8.16 0l-57.16-57.16c-2.25-2.25-2.26-5.91 0-8.16l89.73-89.73a5.776 5.776 0 0 1 8.16 0l47.3 47.3a5.776 5.776 0 0 1 1.69 4.08v19.7c.01 1.53-.6 3-1.68 4.08Z" class="st5"/><path d="m711.22 480.28 48.99 48.99c4.51 4.51 11.82 4.51 16.32 0l86.35-86.35c2.16-2.16 3.38-5.1 3.38-8.16l-.02-39.41c0-3.06-1.22-6-3.38-8.16l-29.28-29.28" class="st25"/><path d="m833.58 357.92-32.66-32.66c-4.51-4.51-11.82-4.51-16.32 0L678.56 431.3c-4.5 4.5-4.5 11.81 0 16.32l32.66 32.66" class="st11"/><path d="m726.94 399.24 41.38 23.94M703.1 423.08l65.22.1M706.22 458.97l62.1-35.79M732.53 485.28l35.79-62.1M768.42 488.4l-.1-65.22M792.26 464.57l-23.94-41.39M809.71 447.12l-41.39-23.94M833.55 423.28l-65.23-.1M830.42 387.39l-62.1 35.79M804.11 361.08l-35.79 62.1M768.22 357.96l.1 65.22M744.38 381.79l23.94 41.39" class="st5"/><path d="m759.44 407.82-6.48 6.48-2.36 8.85 2.39 8.87 6.5 6.49 8.86 2.39 8.86-2.36 6.47-6.48 2.36-8.85-2.39-8.86-6.49-6.5-8.87-2.39-8.85 2.36z" class="st1"/><path d="m296.34 512.93 57.16-57.16c9.02-9.02 9.03-23.64.02-32.65L197.13 266.73a23.026 23.026 0 0 0-16.32-6.75l-29.84.02c-6.12 0-12 2.44-16.33 6.77L92.41 309" class="st14"/><path d="m92.41 309.01-32.66 32.66c-9.02 9.02-9.03 23.64-.02 32.65l171.3 171.3c9.01 9.01 23.63 9 32.65-.02l32.66-32.66" class="st8"/><path d="m228.72 380 79.88 79.88a5.776 5.776 0 0 1 0 8.16l-57.16 57.16c-2.25 2.25-5.91 2.26-8.16 0l-89.73-89.73a5.776 5.776 0 0 1 0-8.16l47.3-47.3a5.776 5.776 0 0 1 4.08-1.69h19.7c1.53-.01 3 .6 4.08 1.68Z" class="st3"/><path d="m228.72 380 79.88 79.88a5.776 5.776 0 0 1 0 8.16l-57.16 57.16c-2.25 2.25-5.91 2.26-8.16 0l-89.73-89.73a5.776 5.776 0 0 1 0-8.16l47.3-47.3a5.776 5.776 0 0 1 4.08-1.69h19.7c1.53-.01 3 .6 4.08 1.68Z" class="st5"/><path d="m288.18 504.78 48.99-48.99c4.51-4.51 4.51-11.82 0-16.32l-86.35-86.35c-2.16-2.16-5.1-3.38-8.16-3.38l-39.41.02c-3.06 0-6 1.22-8.16 3.38l-29.28 29.28" class="st25"/><path d="m165.82 382.42-32.66 32.66c-4.51 4.51-4.51 11.82 0 16.32L239.2 537.44c4.5 4.5 11.81 4.5 16.32 0l32.66-32.66" class="st11"/><path d="m207.14 489.06 23.94-41.38M230.98 512.9l.1-65.22M266.87 509.78l-35.79-62.1M293.18 483.46l-62.1-35.78M296.3 447.57l-65.22.11M272.47 423.74l-41.39 23.94M255.02 406.29l-23.94 41.39M231.18 382.45l-.1 65.23M195.29 385.58l35.79 62.1M168.98 411.89l62.1 35.79M165.86 447.78l65.22-.1M189.69 471.62l41.39-23.94" class="st5"/><path d="m215.72 456.56 6.47 6.48 8.86 2.36 8.86-2.39 6.5-6.5 2.39-8.86-2.36-8.86-6.48-6.47-8.85-2.36-8.87 2.39-6.49 6.49-2.39 8.87 2.36 8.85z" class="st1"/><path d="m320.83 919.66-57.16-57.16c-9.02-9.02-23.64-9.03-32.65-.02L74.63 1018.87a23.026 23.026 0 0 0-6.75 16.32l.02 29.84c0 6.12 2.44 12 6.77 16.33l42.23 42.23" class="st14"/><path d="m116.9 1123.59 32.66 32.66c9.02 9.02 23.64 9.03 32.65.02l171.3-171.3c9.01-9.01 9-23.63-.02-32.65l-32.66-32.66" class="st8"/><path d="m187.9 987.28 79.88-79.88a5.776 5.776 0 0 1 8.16 0l57.16 57.16c2.25 2.25 2.26 5.91 0 8.16l-89.73 89.73a5.776 5.776 0 0 1-8.16 0l-47.3-47.3a5.776 5.776 0 0 1-1.69-4.08v-19.7c-.01-1.53.6-3 1.68-4.08Z" class="st3"/><path d="m187.9 987.28 79.88-79.88a5.776 5.776 0 0 1 8.16 0l57.16 57.16c2.25 2.25 2.26 5.91 0 8.16l-89.73 89.73a5.776 5.776 0 0 1-8.16 0l-47.3-47.3a5.776 5.776 0 0 1-1.69-4.08v-19.7c-.01-1.53.6-3 1.68-4.08Z" class="st5"/><path d="m312.68 927.82-48.99-48.99c-4.51-4.51-11.82-4.51-16.32 0l-86.35 86.35c-2.16 2.16-3.38 5.1-3.38 8.16l.02 39.41c0 3.06 1.22 6 3.38 8.16l29.28 29.28" class="st25"/><path d="m190.32 1050.18 32.66 32.66c4.51 4.51 11.82 4.51 16.32 0L345.34 976.8c4.5-4.5 4.5-11.81 0-16.32l-32.66-32.66" class="st11"/><path d="m296.96 1008.86-41.38-23.94M320.8 985.02l-65.22-.1M317.67 949.13l-62.09 35.79M291.36 922.82l-35.78 62.1M255.47 919.7l.11 65.22M231.64 943.53l23.94 41.39M214.19 960.98l41.39 23.94M190.35 984.82l65.23.1M193.48 1020.71l62.1-35.79M219.79 1047.02l35.79-62.1M255.68 1050.14l-.1-65.22M279.51 1026.31l-23.93-41.39" class="st5"/><path d="m264.46 1000.28 6.48-6.47 2.36-8.86-2.39-8.86-6.5-6.5-8.86-2.39-8.86 2.36-6.47 6.48-2.36 8.85 2.38 8.87 6.5 6.49 8.86 2.39 8.86-2.36z" class="st1"/><path d="M514.06 1280.05h-21.75c-4.21 0-7.94-2.14-9.25-5.3l-11.71-28.14a6.33 6.33 0 0 1-.49-2.41V999.24c0-4.19 4.3-7.59 9.6-7.59h33.6M514.06 1280.05h19.2c5.3 0 9.6-3.4 9.6-7.59V999.25c0-4.19-4.3-7.59-9.6-7.59h-19.2" class="st36"/><path d="M494.86 1135.54v-118.9c0-1.06 1.09-1.92 2.43-1.92h34.51c.81 0 1.46.52 1.46 1.16V1152c0 .64-.65 1.16-1.46 1.16h-27.98c-1.05 0-1.98-.53-2.31-1.32l-6.53-15.69c-.08-.19-.12-.4-.12-.6Z" class="st38"/><path d="M531.29 1014.73v138.43" class="st18"/><path d="M525.64 1014.73v138.43" class="st17"/><path d="M519.99 1014.73v138.43" class="st32"/><path d="M514.34 1014.73v138.43" class="st22"/><path d="M494.86 1135.85v-119.2c0-1.06 1.09-1.92 2.43-1.92h33.54c1.34 0 2.43.86 2.43 1.92v134.59c0 1.06-1.09 1.92-2.43 1.92h-27.01c-1.05 0-1.98-.53-2.31-1.32l-6.65-15.98Z" class="st21"/><path d="M514.06 1003.19h-28.74c-2.68 0-4.86 1.72-4.86 3.85v133.97c0 .41.08.81.24 1.2l13.06 31.38c.66 1.58 2.52 2.64 4.62 2.64h15.68M514.06 1176.23h19.13c2.69 0 4.87-1.72 4.87-3.85v-165.34c0-2.12-2.18-3.85-4.86-3.85h-19.14" class="st22"/><path d="M519.15 1280.05H497.4c-4.21 0-7.94-2.14-9.25-5.3l-11.71-28.14a6.33 6.33 0 0 1-.49-2.41V999.24c0-4.19 4.3-7.59 9.6-7.59h33.6" class="st14"/><path d="M519.15 1280.05h19.2c5.3 0 9.6-3.4 9.6-7.59V999.25c0-4.19-4.3-7.59-9.6-7.59h-19.2" class="st8"/><path d="M499.95 1135.54v-118.9c0-1.06 1.09-1.92 2.43-1.92h34.51c.81 0 1.46.52 1.46 1.16V1152c0 .64-.65 1.16-1.46 1.16h-27.98c-1.05 0-1.98-.53-2.31-1.32l-6.53-15.69c-.08-.19-.12-.4-.12-.6Z" class="st3"/><path d="M536.39 1014.73v138.43" class="st27"/><path d="M530.73 1014.73v138.43" class="st30"/><path d="M525.08 1014.73v138.43" class="st34"/><path d="M519.43 1014.73v138.43" class="st25"/><path d="M499.95 1135.85v-119.2c0-1.06 1.09-1.92 2.43-1.92h33.54c1.34 0 2.43.86 2.43 1.92v134.59c0 1.06-1.09 1.92-2.43 1.92h-27.01c-1.05 0-1.98-.53-2.31-1.32l-6.65-15.98Z" class="st5"/><path d="M519.15 1003.19h-28.74c-2.68 0-4.86 1.72-4.86 3.85v133.97c0 .41.08.81.24 1.2l13.06 31.38c.66 1.58 2.52 2.64 4.62 2.64h15.68" class="st25"/><path d="M519.15 1176.23h19.13c2.69 0 4.87-1.72 4.87-3.85v-165.34c0-2.12-2.18-3.85-4.86-3.85h-19.14" class="st11"/><path d="M509.84 128.05h21.75c4.21 0 7.94 2.14 9.25 5.3l11.71 28.14c.32.78.49 1.59.49 2.41V408.86c0 4.19-4.3 7.59-9.6 7.59h-33.6" class="st36"/><path d="M509.84 128.05h-19.2c-5.3 0-9.6 3.4-9.6 7.59V408.85c0 4.19 4.3 7.59 9.6 7.59h19.2" class="st36"/><path d="M529.04 272.56v118.9c0 1.06-1.09 1.92-2.43 1.92H492.1c-.81 0-1.46-.52-1.46-1.16V256.1c0-.64.65-1.16 1.46-1.16h27.98c1.05 0 1.98.53 2.31 1.32l6.53 15.69c.08.19.12.4.12.6Z" class="st38"/><path d="M492.6 393.38V254.95" class="st18"/><path d="M498.26 393.38V254.95" class="st17"/><path d="M503.91 393.38V254.95" class="st32"/><path d="M509.56 393.38V254.95" class="st22"/><path d="M529.04 272.25v119.2c0 1.06-1.09 1.92-2.43 1.92h-33.54c-1.34 0-2.43-.86-2.43-1.92V256.86c0-1.06 1.09-1.92 2.43-1.92h27.01c1.05 0 1.98.53 2.31 1.32l6.65 15.98Z" class="st21"/><path d="M509.84 404.91h28.74c2.68 0 4.86-1.72 4.86-3.85V267.09c0-.41-.08-.81-.24-1.2l-13.06-31.38c-.66-1.58-2.52-2.64-4.62-2.64h-15.68M509.84 231.87h-19.13c-2.69 0-4.87 1.72-4.87 3.85v165.34c0 2.12 2.18 3.85 4.86 3.85h19.14" class="st22"/><path d="M504.75 128.05h21.75c4.21 0 7.94 2.14 9.25 5.3l11.71 28.14c.32.78.49 1.59.49 2.41V408.86c0 4.19-4.3 7.59-9.6 7.59h-33.6" class="st14"/><path d="M504.75 128.05h-19.2c-5.3 0-9.6 3.4-9.6 7.59V408.85c0 4.19 4.3 7.59 9.6 7.59h19.2" class="st8"/><path d="M523.95 272.56v118.9c0 1.06-1.09 1.92-2.43 1.92h-34.51c-.81 0-1.46-.52-1.46-1.16V256.1c0-.64.65-1.16 1.46-1.16h27.98c1.05 0 1.98.53 2.31 1.32l6.53 15.69c.08.19.12.4.12.6Z" class="st3"/><path d="M487.51 393.38V254.95" class="st27"/><path d="M493.16 393.38V254.95" class="st30"/><path d="M498.82 393.38V254.95" class="st34"/><path d="M504.47 393.38V254.95" class="st25"/><path d="M523.95 272.25v119.2c0 1.06-1.09 1.92-2.43 1.92h-33.54c-1.34 0-2.43-.86-2.43-1.92V256.86c0-1.06 1.09-1.92 2.43-1.92h27.01c1.05 0 1.98.53 2.31 1.32l6.65 15.98Z" class="st5"/><path d="M504.75 404.91h28.74c2.68 0 4.86-1.72 4.86-3.85V267.09c0-.41-.08-.81-.24-1.2l-13.06-31.38c-.66-1.58-2.52-2.64-4.62-2.64h-15.68" class="st25"/><path d="M504.75 231.87h-19.13c-2.69 0-4.87 1.72-4.87 3.85v165.34c0 2.12 2.18 3.85 4.86 3.85h19.14" class="st11"/><path d="M511.95 928.41c-30.2 0-59.6-5.96-87.39-17.71-26.74-11.31-50.71-27.46-71.26-48-20.54-20.54-36.69-44.52-48-71.25-11.75-27.78-17.71-57.19-17.71-87.39s5.96-59.6 17.71-87.39c11.31-26.74 27.46-50.71 48-71.26s44.52-36.69 71.26-48c27.78-11.75 57.19-17.71 87.39-17.71s59.6 5.96 87.39 17.71c26.74 11.31 50.71 27.46 71.25 48s36.69 44.52 48 71.26c11.75 27.78 17.71 57.19 17.71 87.39s-5.96 59.6-17.71 87.39c-11.31 26.74-27.46 50.71-48 71.25s-44.52 36.69-71.25 48c-27.78 11.75-57.19 17.71-87.39 17.71Z" class="st0"/><path d="M511.95 864.3c-88.36 0-160.25-71.89-160.25-160.25S423.59 543.8 511.95 543.8 672.2 615.69 672.2 704.05 600.31 864.3 511.95 864.3Z" class="st37"/><path d="M511.95 832.25c-70.69 0-128.2-57.51-128.2-128.2s57.51-128.2 128.2-128.2 128.2 57.51 128.2 128.2-57.51 128.2-128.2 128.2Z" class="st0"/><path d="M511.95 768.15c-35.35 0-64.1-28.76-64.1-64.1s28.76-64.1 64.1-64.1 64.1 28.76 64.1 64.1-28.76 64.1-64.1 64.1Z" class="st37"/><circle cx="511.95" cy="704.05" r="32.05" class="st0"/></g><path d="M87.31 1466.56c-.71 1.51-.95 2.46-1.23 3.85-2.74 1.23-5.91 1.59-8.06 1.59-8.13 0-14.01-4.21-14.01-12.62s5.91-16.03 16.55-16.03c3.77 0 7.54.87 10.63 3.06-.75 1.55-1.03 2.62-1.23 4.37l-.99-.08c-1.15-3.49-4.76-4.64-7.26-4.64-7.94 0-10.83 9.48-10.83 15.12 0 6.67 4.64 8.14 7.66 8.14s5.83-1.11 8.06-3.06l.71.32ZM99.85 1468.35c2.14 0 3.53-1.98 4.21-3.81 1.51-4.05 2.38-9.4 2.86-12.7 1.23.16 2.42.24 3.49.24 1.19 0 2.34-.12 3.02-.24-1.11 4.01-3.26 12.86-4.17 19.56-.83-.12-1.71-.24-2.94-.24-1.03 0-2.34.12-3.41.24.32-1.03.59-2.06.83-3.09-.87 1.07-2.9 3.53-7.06 3.53-3.21 0-5.24-1.71-5.24-4.52 0-1.98.87-5 1.27-6.83.64-3.02 1.19-5.67 1.59-8.65 1.15.16 2.7.24 3.89.24 1.27 0 2.1-.12 3.05-.24-2.46 8.69-3.57 12.7-3.57 14.25 0 1.27.87 2.26 2.18 2.26ZM125.39 1472c-3.85 0-5.44-2.1-6.15-3.01-1.43.79-2.3 1.43-3.65 2.42-.32-.08-.6-.12-.75-.12-.04 0-.48 0-.91.12 1.31-4.52 1.59-5.95 5.16-22.18.91-4.17 1.03-5.83 1.19-7.22 1.27.16 2.02.24 3.29.24s2.06-.08 3.34-.24c-.44 1.39-.71 2.38-1.07 3.77-.32 1.23-1.51 6.71-1.75 7.82 1.55-1.55 3.57-2.34 5.68-2.34 4.6 0 7.26 3.69 7.26 7.7 0 5.75-3.77 13.06-11.63 13.06Zm2.11-18.02c-2.1 0-3.29 1.91-4.01 3.93-.95 2.66-1.87 6.27-1.87 8.81 0 1.83.99 3.13 2.9 3.13 1.23 0 2.62-.55 4.01-3.69 1.43-3.25 2.1-6.75 2.1-8.49 0-2.66-1.71-3.69-3.13-3.69ZM156.62 1471.01c-1.23.59-2.42.71-3.41.71-1.98 0-3.21-.67-4.09-2.74-.71.95-2.22 2.94-5.48 2.94-2.86 0-5.47-1.63-5.47-5.12 0-5.99 6.19-6.43 9.17-6.63 2.22-.16 3.33-.28 3.33-2.38 0-2.26-1.11-3.29-3.41-3.29-1.79 0-3.53.67-5 1.71.04-.44.08-.87.08-1.31 0-.48 0-.91-.08-1.39 2.18-1.23 4.64-2.1 7.54-2.1s6.71.79 6.71 5.56c0 1.98-.59 4.05-1.11 6.11-.52 1.98-1.07 4.37-1.07 5.32 0 .83.36 1.43 1.27 1.43.44 0 .87-.08 1.27-.2l-.24 1.39Zm-12.66-4.52c0 1.27.63 2.34 2.02 2.34s2.14-.87 2.54-2.1c.32-.95.99-3.69 1.27-4.88-1.55.04-5.83.2-5.83 4.64ZM175.62 1468.39c-.59.87-1.03 1.63-1.55 2.7-1.51.59-3.13.83-4.76.83-5.75 0-10.08-3.69-10.08-9.25 0-4.37 3.06-11.15 11.63-11.15 3.05 0 5.55 1.07 7.06 2.22-.99 1.98-1.39 3.53-1.67 4.44l-1.27-.16c.16-2.38-.79-4.21-3.45-4.21-4.01 0-5.72 5.48-5.72 9.37 0 3.33 1.47 6.03 5.12 6.03 1.15 0 2.54-.28 4.01-1.51l.67.67ZM196.73 1468.39c-.12.24-.71 1.15-1.27 2.34-.95.36-3.13 1.23-6.67 1.23-6.11 0-9.84-3.53-9.84-9.09 0-5.83 4.21-11.43 11.31-11.43 4.76 0 7.82 2.46 7.82 7.42 0 1.23-.16 2.3-.48 3.49-.87-.12-2.22-.32-5.08-.32h-7.06c-.04.36-.08.91-.08 1.27 0 2.38 1.27 5.99 5.6 5.99 2.78 0 4.37-1.11 5.2-1.75l.56.83Zm-4.93-8.41c.28-.91.76-2.58.76-4.33s-1.15-2.42-2.1-2.42c-2.9 0-4.44 3.81-4.84 6.75h6.19ZM209.06 1442.24c1.23 0 2.1-.08 3.37-.24-1.31 4.96-4.88 20.95-6.39 29.41-.67-.08-1.87-.24-3.21-.24s-2.54.16-3.25.24c.87-2.86 1.63-5.71 2.26-8.61 2.66-12.14 2.94-13.49 4.05-20.79 1.03.16 1.98.24 3.18.24Z" class="st38"/><path d="M234.14 1463.51c-.99 4.6-1.19 6.39-1.39 7.9-1.23-.16-2.5-.2-3.77-.2-1.19 0-2.38.08-3.57.2 1.98-6.98 4.88-20.28 5.32-24.29-.55-.04-1.15-.04-1.79-.04-1.98 0-4.17.16-5.55.36.44-1.27.63-2.22.71-3.49 3.61.16 7.66.2 10.83.2 3.33 0 8.22-.12 10.83-.2-.4 1.07-.67 2.3-.79 3.49-1.59-.28-3.25-.36-4.52-.36-.71 0-1.63 0-2.5.04-.71 2.18-1.51 5.71-3.81 16.39ZM250.28 1468.35c2.14 0 3.53-1.98 4.21-3.81 1.51-4.05 2.38-9.4 2.86-12.7 1.23.16 2.42.24 3.49.24 1.19 0 2.34-.12 3.01-.24-1.11 4.01-3.25 12.86-4.17 19.56-.83-.12-1.71-.24-2.94-.24-1.03 0-2.34.12-3.41.24.32-1.03.6-2.06.83-3.09-.87 1.07-2.9 3.53-7.06 3.53-3.21 0-5.24-1.71-5.24-4.52 0-1.98.87-5 1.27-6.83.63-3.02 1.19-5.67 1.59-8.65 1.15.16 2.7.24 3.89.24 1.27 0 2.1-.12 3.06-.24-2.46 8.69-3.57 12.7-3.57 14.25 0 1.27.87 2.26 2.18 2.26ZM279.8 1457.6c-.44-.24-.91-.48-1.91-.48-2.58 0-3.97 1.79-4.64 4.05-.67 2.22-1.67 7.78-1.98 10.24a23.2 23.2 0 0 0-3.41-.24c-.99 0-2.1.12-3.13.24.99-3.73 3.57-14.17 4.09-19.56 1.19.12 2.14.24 3.37.24 1.31 0 2.38-.12 3.06-.24-.52 1.63-.76 2.7-1.15 4.52.71-1.27 2.62-4.88 6.31-4.88.36 0 .63.04.83.08-.67 2.1-.95 3.61-1.03 5.79l-.4.24Z" class="st0"/><path d="m841.84 1470.15 18.37-17.99-11.59.03-12.67 12.43c1.66 2.56 3.72 4.22 5.88 5.53m-6.85-7.22c-4.45-9.49.29-16.69 3.01-19.39 1.64-1.52 9.22-8.56 20.32-3.49l-23.33 22.88Zm32.24-2.01h-12.78l-10.46 10.28c11.91 4.34 20.71-3.32 23.23-10.28M873.47 1460.22c.6-3.19.96-5.39 1.25-7.9 1.71.03 3.44.14 5.16.14 2.85 0 5.31-.06 6.11-.14-.12.34-.25.69-.34 1.2-.11.6-.1.85-.12 1.28-2.19-.14-5.64-.34-6.52-.34-.54 2.08-.92 4.13-1.32 6.22 2.54-.06 4.42-.11 6.65-.23-.24.66-.32.91-.39 1.28-.06.31-.05.57-.07 1.17-2.18-.17-4.35-.26-6.56-.26-.23 1.2-.49 2.42-.72 3.65-.23 1.2-.43 2.42-.58 3.56 2.18 0 4.45-.12 6.74-.37-.13.4-.24.68-.36 1.28-.11.6-.11.88-.11 1.23-1.04-.03-2.39-.14-5.07-.14-4.75 0-5.55.08-6.2.14.65-2.51 1.12-4.7 1.72-7.9l.73-3.88ZM891.12 1456.97c.2-1.08.4-2.11.39-2.51-1.14 0-3.61.17-5.4.37.17-.43.3-.83.38-1.25.08-.43.1-.83.09-1.25 2.63.09 3.93.14 7.55.14s4.93-.06 7.42-.14c-.17.43-.3.83-.38 1.25-.08.43-.1.83-.09 1.25-1.53-.2-3.95-.37-5.11-.37-.13.4-.33 1.43-.53 2.51l-1.34 7.13c-.6 3.19-.96 5.39-1.25 7.9-.63-.06-1.4-.14-2.36-.14s-1.76.09-2.41.14c.65-2.51 1.12-4.71 1.72-7.9l1.34-7.13ZM901.79 1460.22c.6-3.19.96-5.39 1.25-7.9 1.71.03 3.44.14 5.16.14 2.85 0 5.31-.06 6.11-.14-.12.34-.25.69-.34 1.2-.11.6-.1.85-.12 1.28-2.19-.14-5.64-.34-6.52-.34-.54 2.08-.92 4.13-1.32 6.22 2.54-.06 4.42-.11 6.65-.23-.24.66-.32.91-.39 1.28-.06.31-.05.57-.07 1.17-2.18-.17-4.35-.26-6.56-.26-.23 1.2-.49 2.42-.72 3.65-.23 1.2-.43 2.42-.58 3.56 2.18 0 4.45-.12 6.74-.37-.13.4-.24.68-.36 1.28-.11.6-.11.88-.11 1.23-1.04-.03-2.39-.14-5.07-.14-4.75 0-5.55.08-6.2.14.65-2.51 1.12-4.7 1.72-7.9l.73-3.88ZM929.55 1468.69c-.47.8-.86 1.63-1.1 2.42-1.69.8-3.79 1.26-6.18 1.26-6.76 0-9.97-4.14-8.95-9.52 1.48-7.87 7.5-10.89 13.61-10.89 2.04 0 4.49.6 5.68 1.4-.56.94-.95 1.94-1.22 2.91h-.41c-1.12-1.77-2.46-2.54-4.53-2.54-3.12 0-7.14 2.65-8.28 8.7-1.1 5.87 2.01 8.18 5.36 8.18 1.86 0 4.18-.85 5.67-2.14l.34.23ZM942.96 1456.18c-.31-1.63-1.29-2.45-3.06-2.45s-3.25 1.2-3.51 2.57c-.79 4.22 8.26 3.17 7.04 9.64-.72 3.82-4.3 6.44-8.93 6.44-2.1 0-3.73-.6-4.46-1.22.63-1.31 1.08-2.34 1.53-3.62h.55c0 1.65 1.08 3.08 3.44 3.08s3.65-1.31 3.95-2.91c.81-4.31-8.08-3.17-6.86-9.64.74-3.93 4.24-6.1 7.7-6.1 2.1 0 3.57.54 4.51 1.4-.52.88-.85 1.57-1.46 2.82h-.44ZM961.16 1472c-.92-.06-1.72-.14-2.53-.14s-1.68.09-2.5.14c-.25-1.94-.55-3.91-.91-5.84-1.25-.03-2.46-.06-3.72-.06-1.02 0-2.01.03-3.04.06a68.326 68.326 0 0 0-3.08 5.84c-.46-.06-.88-.14-1.34-.14s-.92.09-1.48.14c2.02-3.17 8.3-13.31 12.03-19.82.37.06.7.14 1.08.14s.75-.09 1.13-.14c1.25 6.5 3.03 15.17 4.36 19.82m-6.3-7.53c-.41-2.31-.8-4.56-1.31-6.79-1.41 2.22-2.74 4.48-4.02 6.79h5.33Z" class="st40"/></g><g id="frame1"><path d="M0 0h1024v1536H0z" class="st37"/><g style="clip-path:url(#clippath-1)"><path d="M511.95 928.41c-30.2 0-59.6-5.96-87.39-17.71-26.74-11.31-50.71-27.46-71.26-48-20.54-20.54-36.69-44.52-48-71.25-11.75-27.78-17.71-57.19-17.71-87.39s5.96-59.6 17.71-87.39c11.31-26.74 27.46-50.71 48-71.26s44.52-36.69 71.26-48c27.78-11.75 57.19-17.71 87.39-17.71s59.6 5.96 87.39 17.71c26.74 11.31 50.71 27.46 71.25 48s36.69 44.52 48 71.26c11.75 27.78 17.71 57.19 17.71 87.39s-5.96 59.6-17.71 87.39c-11.31 26.74-27.46 50.71-48 71.25s-44.52 36.69-71.25 48c-27.78 11.75-57.19 17.71-87.39 17.71Z" class="st0"/><path d="M511.95 864.3c-88.36 0-160.25-71.89-160.25-160.25S423.59 543.8 511.95 543.8 672.2 615.69 672.2 704.05 600.31 864.3 511.95 864.3Z" class="st37"/><path d="M511.95 832.25c-70.69 0-128.2-57.51-128.2-128.2s57.51-128.2 128.2-128.2 128.2 57.51 128.2 128.2-57.51 128.2-128.2 128.2Z" class="st0"/><path d="M511.95 768.15c-35.35 0-64.1-28.76-64.1-64.1s28.76-64.1 64.1-64.1 64.1 28.76 64.1 64.1-28.76 64.1-64.1 64.1Z" class="st37"/><circle cx="511.95" cy="704.05" r="32.05" class="st0"/><path d="M529.27 991.65h-80.84c-12.76 0-23.1 10.33-23.1 23.07v221.16c0 6.12 2.43 11.99 6.76 16.31l21.11 21.09a23.101 23.101 0 0 0 16.33 6.76h59.72" class="st13"/><path d="M529.27 1280.05h46.19c12.76 0 23.1-10.33 23.1-23.07v-242.25c0-12.74-10.34-23.07-23.1-23.07h-46.19" class="st7"/><path d="M483.08 1133.46v-112.97c0-3.19 2.59-5.77 5.77-5.77h80.84c3.19 0 5.77 2.58 5.77 5.77v126.9c0 3.19-2.59 5.77-5.77 5.77h-66.9c-1.53 0-3-.61-4.08-1.69l-13.94-13.93a5.776 5.776 0 0 1-1.69-4.08Z" class="st3"/><path d="M483.08 1133.46v-112.97c0-3.19 2.59-5.77 5.77-5.77h80.84c3.19 0 5.77 2.58 5.77 5.77v126.9c0 3.19-2.59 5.77-5.77 5.77h-66.9c-1.53 0-3-.61-4.08-1.69l-13.94-13.93a5.776 5.776 0 0 1-1.69-4.08Z" class="st6"/><path d="M529.27 1003.19h-69.29c-6.38 0-11.55 5.16-11.55 11.54v122.12c0 3.06 1.22 5.99 3.38 8.16l27.88 27.85c2.17 2.16 5.1 3.38 8.17 3.38h41.41" class="st24"/><path d="M529.27 1176.23h46.19c6.38 0 11.55-5.16 11.55-11.54v-149.97c0-6.37-5.17-11.54-11.55-11.54h-46.19" class="st10"/><path d="m575.46 1071.6-46.19 12.34M575.46 1037.89l-46.19 46.05M547.88 1014.72l-18.61 69.22M510.67 1014.72l18.6 69.22M483.08 1037.89l46.19 46.05M483.08 1071.6l46.19 12.34M483.08 1096.28l46.19-12.34M483.08 1129.99l46.19-46.05M510.67 1153.16l18.6-69.22M547.88 1153.16l-18.61-69.22M575.46 1129.99l-46.19-46.05M575.46 1096.28l-46.19-12.34" class="st6"/><path d="M546.41 1088.52v-9.16l-4.59-7.93-7.96-4.58h-9.18l-7.96 4.58-4.59 7.93v9.16l4.59 7.93 7.96 4.58h9.18l7.96-4.58 4.59-7.93z" class="st2"/><path d="M799.55 686.73v80.84c0 12.76 10.33 23.1 23.07 23.1h221.16c6.12 0 11.99-2.43 16.31-6.76l21.09-21.11a23.101 23.101 0 0 0 6.76-16.33v-59.72" class="st13"/><path d="M1087.95 686.73v-46.19c0-12.76-10.33-23.1-23.07-23.1H822.63c-12.74 0-23.07 10.34-23.07 23.1v46.19" class="st7"/><path d="M941.36 732.92H828.39c-3.19 0-5.77-2.59-5.77-5.77v-80.84c0-3.19 2.58-5.77 5.77-5.77h126.9c3.19 0 5.77 2.59 5.77 5.77v66.9c0 1.53-.61 3-1.69 4.08l-13.93 13.94a5.776 5.776 0 0 1-4.08 1.69Z" class="st3"/><path d="M941.36 732.92H828.39c-3.19 0-5.77-2.59-5.77-5.77v-80.84c0-3.19 2.58-5.77 5.77-5.77h126.9c3.19 0 5.77 2.59 5.77 5.77v66.9c0 1.53-.61 3-1.69 4.08l-13.93 13.94a5.776 5.776 0 0 1-4.08 1.69Z" class="st6"/><path d="M811.09 686.73v69.29c0 6.38 5.16 11.55 11.54 11.55h122.12c3.06 0 5.99-1.22 8.16-3.38l27.85-27.88c2.16-2.17 3.38-5.1 3.38-8.17v-41.41" class="st24"/><path d="M984.13 686.73v-46.19c0-6.38-5.16-11.55-11.54-11.55H822.62c-6.37 0-11.54 5.17-11.54 11.55v46.19" class="st10"/><path d="m879.5 640.54 12.34 46.19M845.79 640.54l46.05 46.19M822.62 668.12l69.22 18.61M822.62 705.33l69.22-18.6M845.79 732.92l46.05-46.19M879.5 732.92l12.34-46.19M904.18 732.92l-12.34-46.19M937.89 732.92l-46.05-46.19M961.05 705.33l-69.21-18.6M961.05 668.12l-69.21 18.61M937.89 640.54l-46.05 46.19M904.18 640.54l-12.34 46.19" class="st6"/><path d="M896.42 669.59h-9.16l-7.93 4.59-4.58 7.96v9.18l4.58 7.96 7.93 4.59h9.16l7.93-4.59 4.58-7.96v-9.18l-4.58-7.96-7.93-4.59z" class="st2"/><path d="M494.63 416.45h80.84c12.76 0 23.1-10.33 23.1-23.07V172.22c0-6.12-2.43-11.99-6.76-16.31l-21.11-21.09a23.101 23.101 0 0 0-16.33-6.76h-59.72" class="st13"/><path d="M494.63 128.05h-46.19c-12.76 0-23.1 10.33-23.1 23.07v242.25c0 12.74 10.34 23.07 23.1 23.07h46.19" class="st7"/><path d="M540.82 274.64v112.97c0 3.19-2.59 5.77-5.77 5.77h-80.84c-3.19 0-5.77-2.58-5.77-5.77v-126.9c0-3.19 2.59-5.77 5.77-5.77h66.9c1.53 0 3 .61 4.08 1.69l13.94 13.93a5.776 5.776 0 0 1 1.69 4.08Z" class="st3"/><path d="M540.82 274.64v112.97c0 3.19-2.59 5.77-5.77 5.77h-80.84c-3.19 0-5.77-2.58-5.77-5.77v-126.9c0-3.19 2.59-5.77 5.77-5.77h66.9c1.53 0 3 .61 4.08 1.69l13.94 13.93a5.776 5.776 0 0 1 1.69 4.08Z" class="st6"/><path d="M494.63 404.91h69.29c6.38 0 11.55-5.16 11.55-11.54V271.25c0-3.06-1.22-5.99-3.38-8.16l-27.88-27.85c-2.17-2.16-5.1-3.38-8.17-3.38h-41.41" class="st24"/><path d="M494.63 231.87h-46.19c-6.38 0-11.55 5.16-11.55 11.54v149.97c0 6.37 5.17 11.54 11.55 11.54h46.19" class="st10"/><path d="m448.43 336.5 46.2-12.34M448.43 370.21l46.2-46.05M476.02 393.38l18.61-69.22M513.23 393.38l-18.6-69.22M540.82 370.21l-46.19-46.05M540.82 336.5l-46.19-12.34M540.82 311.82l-46.19 12.34M540.82 278.11l-46.19 46.05M513.23 254.95l-18.6 69.21M476.02 254.95l18.61 69.21M448.43 278.11l46.2 46.05M448.43 311.82l46.2 12.34" class="st6"/><path d="M477.48 319.58v9.16l4.6 7.93 7.95 4.58h9.19l7.96-4.58 4.59-7.93v-9.16l-4.59-7.93-7.96-4.58h-9.19l-7.95 4.58-4.6 7.93z" class="st2"/><path d="M224.35 721.37v-80.84c0-12.76-10.33-23.1-23.07-23.1H-19.89c-6.12 0-11.99 2.43-16.31 6.76l-21.09 21.11a23.101 23.101 0 0 0-6.76 16.33v59.72" class="st13"/><path d="M-64.05 721.37v46.19c0 12.76 10.33 23.1 23.07 23.1h242.25c12.74 0 23.07-10.34 23.07-23.1v-46.19" class="st7"/><path d="M82.54 675.18h112.97c3.19 0 5.77 2.59 5.77 5.77v80.84c0 3.19-2.58 5.77-5.77 5.77H68.61c-3.19 0-5.77-2.59-5.77-5.77v-66.9c0-1.53.61-3 1.69-4.08l13.93-13.94a5.776 5.776 0 0 1 4.08-1.69Z" class="st3"/><path d="M82.54 675.18h112.97c3.19 0 5.77 2.59 5.77 5.77v80.84c0 3.19-2.58 5.77-5.77 5.77H68.61c-3.19 0-5.77-2.59-5.77-5.77v-66.9c0-1.53.61-3 1.69-4.08l13.93-13.94a5.776 5.776 0 0 1 4.08-1.69Z" class="st6"/><path d="M212.81 721.37v-69.29c0-6.38-5.16-11.55-11.54-11.55H79.15c-3.06 0-5.99 1.22-8.16 3.38l-27.85 27.88c-2.16 2.17-3.38 5.1-3.38 8.17v41.41" class="st24"/><path d="M39.77 721.37v46.19c0 6.38 5.16 11.55 11.54 11.55h149.97c6.37 0 11.54-5.17 11.54-11.55v-46.19" class="st10"/><path d="m144.4 767.57-12.34-46.2M178.11 767.57l-46.05-46.2M201.28 739.98l-69.22-18.61M201.28 702.77l-69.22 18.6M178.11 675.18l-46.05 46.19M144.4 675.18l-12.34 46.19M119.72 675.18l12.34 46.19M86.01 675.18l46.05 46.19M62.84 702.77l69.22 18.6M62.84 739.98l69.22-18.61M86.01 767.57l46.05-46.2M119.72 767.57l12.34-46.2" class="st6"/><path d="M127.48 738.52h9.16l7.93-4.6 4.58-7.95v-9.19l-4.58-7.96-7.93-4.59h-9.16l-7.93 4.59-4.58 7.96v9.19l4.58 7.95 7.93 4.6z" class="st2"/><path d="m106.02 1112.71-15.38-15.38c-2.97-2.97-4.1-7.12-2.8-10.29l11.62-28.18c.32-.78.78-1.47 1.36-2.05l162.27-162.27 10.94-10.94c2.97-2.97 8.41-2.33 12.16 1.42l23.76 23.76M106.02 1112.71l13.58 13.58c3.75 3.75 9.19 4.38 12.16 1.42l10.95-10.95 171.3-171.3 10.94-10.94c2.97-2.97 2.33-8.41-1.42-12.16l-13.58-13.58" class="st35"/><path d="m194.62 996.95 84.07-84.07c.75-.75 2.13-.59 3.08.36l24.4 24.4c.57.57.67 1.4.22 1.85l-96.25 96.25c-.45.45-1.28.35-1.85-.22l-19.78-19.78c-.74-.74-1.02-1.78-.7-2.57l6.48-15.71c.08-.19.19-.37.34-.51Z" class="st38"/><path d="m305.82 937.28-97.89 97.89" class="st19"/><path d="m301.82 933.28-97.88 97.89" class="st16"/><path d="m297.83 929.29-97.89 97.88" class="st31"/><path d="m293.83 925.29-97.89 97.89" class="st23"/><path d="m194.41 997.17 84.29-84.29c.75-.75 2.13-.59 3.08.36l23.72 23.72c.95.95 1.11 2.33.36 3.08l-95.17 95.17c-.75.75-2.13.59-3.08-.36l-19.1-19.1c-.74-.74-1.02-1.78-.7-2.57l6.6-16Z" class="st20"/><path d="m301.79 916.94-20.32-20.32c-1.9-1.9-4.65-2.22-6.16-.72l-94.73 94.73c-.29.29-.52.63-.68 1.02l-12.96 31.42c-.65 1.58-.09 3.65 1.4 5.13l11.09 11.09" class="st23"/><path d="m179.43 1039.29 13.53 13.53c1.9 1.9 4.66 2.22 6.16.72l116.92-116.92c1.5-1.5 1.18-4.26-.72-6.16l-13.53-13.53" class="st23"/><path d="m109.75 1116.44-15.38-15.38c-2.97-2.97-4.1-7.12-2.8-10.29l11.62-28.18c.32-.78.78-1.47 1.36-2.05l162.27-162.27 10.94-10.94c2.97-2.97 8.41-2.33 12.16 1.42l23.76 23.76" class="st15"/><path d="m109.75 1116.44 13.58 13.58c3.75 3.75 9.19 4.38 12.16 1.42l10.95-10.95 171.3-171.3 10.94-10.94c2.97-2.97 2.33-8.41-1.42-12.16l-13.58-13.58" class="st9"/><path d="m198.35 1000.68 84.07-84.07c.75-.75 2.13-.59 3.08.36l24.4 24.4c.57.57.67 1.4.22 1.85l-96.25 96.25c-.45.45-1.28.35-1.85-.22l-19.78-19.78c-.74-.74-1.02-1.78-.7-2.57l6.48-15.71c.08-.19.19-.37.34-.51Z" class="st3"/><path d="m309.55 941.01-97.89 97.89" class="st28"/><path d="m305.55 937.01-97.88 97.89" class="st29"/><path d="m301.56 933.02-97.89 97.88" class="st33"/><path d="m297.56 929.02-97.89 97.88" class="st26"/><path d="m198.13 1000.89 84.29-84.29c.75-.75 2.13-.59 3.08.36l23.72 23.72c.95.95 1.11 2.33.36 3.08l-95.17 95.17c-.75.75-2.13.59-3.08-.36l-19.1-19.1c-.74-.74-1.02-1.78-.7-2.57l6.6-16Z" class="st4"/><path d="m305.52 920.66-20.32-20.32c-1.9-1.9-4.65-2.22-6.16-.72l-94.73 94.73c-.29.29-.52.63-.68 1.02l-12.96 31.42c-.65 1.58-.09 3.65 1.4 5.13l11.09 11.09" class="st26"/><path d="m183.16 1043.02 13.53 13.53c1.9 1.9 4.66 2.22 6.16.72l116.92-116.92c1.5-1.5 1.18-4.26-.72-6.16l-13.53-13.53" class="st12"/><path d="m920.6 1109.98-15.38 15.38c-2.97 2.97-7.12 4.1-10.29 2.8l-28.18-11.62c-.78-.32-1.47-.78-2.05-1.36L702.43 952.91l-10.94-10.94c-2.97-2.97-2.33-8.41 1.42-12.16l23.76-23.76" class="st35"/><path d="m920.6 1109.98 13.58-13.58c3.75-3.75 4.38-9.19 1.42-12.16l-10.95-10.95-171.3-171.3-10.94-10.94c-2.97-2.97-8.41-2.33-12.16 1.42l-13.58 13.58" class="st35"/><path d="m804.85 1021.38-84.07-84.07c-.75-.75-.59-2.13.36-3.08l24.4-24.4c.57-.57 1.4-.67 1.85-.22l96.25 96.25c.45.45.35 1.28-.22 1.85l-19.78 19.78c-.74.74-1.78 1.02-2.57.7l-15.71-6.48c-.19-.08-.37-.19-.51-.34Z" class="st38"/><path d="m745.18 910.18 97.88 97.89" class="st19"/><path d="m741.18 914.18 97.89 97.88" class="st16"/><path d="m737.19 918.17 97.88 97.89" class="st31"/><path d="m733.19 922.17 97.88 97.89" class="st23"/><path d="m805.06 1021.59-84.29-84.29c-.75-.75-.59-2.13.36-3.08l23.72-23.72c.95-.95 2.33-1.11 3.08-.36l95.17 95.17c.75.75.59 2.13-.36 3.08l-19.1 19.1c-.74.74-1.78 1.02-2.57.7l-16-6.6Z" class="st20"/><path d="m724.83 914.21-20.32 20.32c-1.9 1.9-2.22 4.65-.72 6.16l94.73 94.73c.29.29.63.52 1.02.68l31.42 12.96c1.58.65 3.65.09 5.13-1.4l11.09-11.09M847.19 1036.57l13.53-13.53c1.9-1.9 2.22-4.66.72-6.16L744.52 899.96c-1.5-1.5-4.26-1.18-6.16.72l-13.53 13.53" class="st23"/><path d="m924.33 1106.25-15.38 15.38c-2.97 2.97-7.12 4.1-10.29 2.8l-28.18-11.62c-.78-.32-1.47-.78-2.05-1.36L706.16 949.18l-10.94-10.94c-2.97-2.97-2.33-8.41 1.42-12.16l23.76-23.76" class="st15"/><path d="m924.33 1106.25 13.58-13.58c3.75-3.75 4.38-9.19 1.42-12.16l-10.95-10.95-171.3-171.3-10.94-10.94c-2.97-2.97-8.41-2.33-12.16 1.42l-13.58 13.58" class="st9"/><path d="m808.58 1017.65-84.07-84.07c-.75-.75-.59-2.13.36-3.08l24.4-24.4c.57-.57 1.4-.67 1.85-.22l96.25 96.25c.45.45.35 1.28-.22 1.85l-19.78 19.78c-.74.74-1.78 1.02-2.57.7l-15.71-6.48c-.19-.08-.37-.19-.51-.34Z" class="st3"/><path d="m748.91 906.45 97.88 97.89" class="st28"/><path d="m744.91 910.45 97.89 97.88" class="st29"/><path d="m740.91 914.44 97.89 97.89" class="st33"/><path d="m736.92 918.44 97.88 97.89" class="st26"/><path d="m808.79 1017.87-84.29-84.29c-.75-.75-.59-2.13.36-3.08l23.72-23.72c.95-.95 2.33-1.11 3.08-.36l95.17 95.17c.75.75.59 2.13-.36 3.08l-19.1 19.1c-.74.74-1.78 1.02-2.57.7l-16-6.6Z" class="st4"/><path d="m728.56 910.48-20.32 20.32c-1.9 1.9-2.22 4.65-.72 6.16l94.73 94.73c.29.29.63.52 1.02.68l31.42 12.96c1.58.65 3.65.09 5.13-1.4l11.09-11.09" class="st26"/><path d="m850.92 1032.84 13.53-13.53c1.9-1.9 2.22-4.66.72-6.16L748.25 896.23c-1.5-1.5-4.26-1.18-6.16.72l-13.53 13.53" class="st12"/><path d="m917.88 295.39 15.38 15.38c2.97 2.97 4.1 7.12 2.8 10.29l-11.62 28.18c-.32.78-.78 1.47-1.36 2.05L760.81 513.56l-10.94 10.94c-2.97 2.97-8.41 2.33-12.16-1.42l-23.76-23.76M917.88 295.39l-13.58-13.58c-3.75-3.75-9.19-4.38-12.16-1.42l-10.95 10.95-171.3 171.3-10.94 10.94c-2.97 2.97-2.33 8.41 1.42 12.16l13.58 13.58" class="st35"/><path d="m829.27 411.15-84.07 84.07c-.75.75-2.13.59-3.08-.36l-24.4-24.4c-.57-.57-.67-1.4-.22-1.85l96.25-96.25c.45-.45 1.28-.35 1.85.22l19.78 19.78c.74.74 1.02 1.78.7 2.57l-6.48 15.71c-.08.19-.19.37-.34.51Z" class="st38"/><path d="m718.08 470.82 97.88-97.88" class="st19"/><path d="m722.08 474.82 97.88-97.89" class="st16"/><path d="m726.07 478.81 97.89-97.88" class="st31"/><path d="m730.07 482.81 97.88-97.88" class="st23"/><path d="m829.49 410.94-84.29 84.29c-.75.75-2.13.59-3.08-.36l-23.72-23.72c-.95-.95-1.11-2.33-.36-3.08l95.17-95.17c.75-.75 2.13-.59 3.08.36l19.1 19.1c.74.74 1.02 1.78.7 2.57l-6.6 16Z" class="st20"/><path d="m722.11 491.17 20.32 20.32c1.9 1.9 4.65 2.22 6.16.72l94.73-94.73c.29-.29.52-.63.68-1.02l12.96-31.42c.65-1.58.09-3.65-1.4-5.13l-11.09-11.09M844.47 368.81l-13.53-13.53c-1.9-1.9-4.66-2.22-6.16-.72L707.86 471.48c-1.5 1.5-1.18 4.26.72 6.16l13.53 13.53" class="st23"/><path d="m914.15 291.67 15.38 15.38c2.97 2.97 4.1 7.12 2.8 10.29l-11.62 28.18c-.32.78-.78 1.47-1.36 2.05L757.08 509.84l-10.94 10.94c-2.97 2.97-8.41 2.33-12.16-1.42l-23.76-23.76" class="st15"/><path d="m914.15 291.67-13.58-13.58c-3.75-3.75-9.19-4.38-12.16-1.42l-10.95 10.95-171.3 171.3-10.94 10.94c-2.97 2.97-2.33 8.41 1.42 12.16l13.58 13.58" class="st9"/><path d="m825.55 407.42-84.07 84.07c-.75.75-2.13.59-3.08-.36l-24.4-24.4c-.57-.57-.67-1.4-.22-1.85l96.25-96.25c.45-.45 1.28-.35 1.85.22l19.78 19.78c.74.74 1.02 1.78.7 2.57l-6.48 15.71c-.08.19-.19.37-.34.51Z" class="st3"/><path d="m714.35 467.09 97.89-97.88" class="st28"/><path d="m718.35 471.09 97.88-97.89" class="st29"/><path d="m722.34 475.09 97.89-97.89" class="st33"/><path d="m726.34 479.08 97.89-97.88" class="st26"/><path d="m825.76 407.21-84.29 84.29c-.75.75-2.13.59-3.08-.36l-23.72-23.72c-.95-.95-1.11-2.33-.36-3.08l95.17-95.17c.75-.75 2.13-.59 3.08.36l19.1 19.1c.74.74 1.02 1.78.7 2.57l-6.6 16Z" class="st4"/><path d="m718.38 487.44 20.32 20.32c1.9 1.9 4.65 2.22 6.16.72l94.73-94.73c.29-.29.52-.63.68-1.02l12.96-31.42c.65-1.58.09-3.65-1.4-5.13l-11.09-11.09" class="st26"/><path d="m840.74 365.08-13.53-13.53c-1.9-1.9-4.66-2.22-6.16-.72L704.13 467.75c-1.5 1.5-1.18 4.26.72 6.16l13.53 13.53" class="st12"/><path d="m103.29 298.12 15.38-15.38c2.97-2.97 7.12-4.1 10.29-2.8l28.18 11.62c.78.32 1.47.78 2.05 1.36l162.27 162.27 10.94 10.94c2.97 2.97 2.33 8.41-1.42 12.16l-23.76 23.76" class="st35"/><path d="M103.29 298.12 89.71 311.7c-3.75 3.75-4.38 9.19-1.42 12.16l10.95 10.95 171.3 171.3 10.94 10.94c2.97 2.97 8.41 2.33 12.16-1.42l13.58-13.58" class="st35"/><path d="m219.05 386.73 84.07 84.07c.75.75.59 2.13-.36 3.08l-24.4 24.4c-.57.57-1.4.67-1.85.22l-96.25-96.25c-.45-.45-.35-1.28.22-1.85l19.78-19.78c.74-.74 1.78-1.02 2.57-.7l15.71 6.48c.19.08.37.19.51.34Z" class="st38"/><path d="m278.72 497.92-97.89-97.88" class="st19"/><path d="m282.72 493.92-97.89-97.88" class="st16"/><path d="m286.71 489.93-97.88-97.89" class="st31"/><path d="m290.71 485.93-97.89-97.88" class="st23"/><path d="m218.83 386.51 84.29 84.29c.75.75.59 2.13-.36 3.08l-23.72 23.72c-.95.95-2.33 1.11-3.08.36l-95.17-95.17c-.75-.75-.59-2.13.36-3.08l19.1-19.1c.74-.74 1.78-1.02 2.57-.7l16 6.6Z" class="st20"/><path d="m299.06 493.89 20.32-20.32c1.9-1.9 2.22-4.65.72-6.16l-94.73-94.73c-.29-.29-.63-.52-1.02-.68l-31.42-12.96c-1.58-.65-3.65-.09-5.13 1.4l-11.09 11.09" class="st23"/><path d="m176.71 371.53-13.53 13.53c-1.9 1.9-2.22 4.66-.72 6.16l116.92 116.92c1.5 1.5 4.26 1.18 6.16-.72l13.53-13.53" class="st23"/><path d="m99.56 301.85 15.38-15.38c2.97-2.97 7.12-4.1 10.29-2.8l28.18 11.62c.78.32 1.47.78 2.05 1.36l162.27 162.27 10.94 10.94c2.97 2.97 2.33 8.41-1.42 12.16l-23.76 23.76" class="st15"/><path d="m99.56 301.85-13.58 13.58c-3.75 3.75-4.38 9.19-1.42 12.16l10.95 10.95 171.3 171.3 10.94 10.94c2.97 2.97 8.41 2.33 12.16-1.42l13.58-13.58" class="st9"/><path d="m215.32 390.45 84.07 84.07c.75.75.59 2.13-.36 3.08l-24.4 24.4c-.57.57-1.4.67-1.85.22l-96.25-96.25c-.45-.45-.35-1.28.22-1.85l19.78-19.78c.74-.74 1.78-1.02 2.57-.7l15.71 6.48c.19.08.37.19.51.34Z" class="st3"/><path d="m274.99 501.65-97.89-97.89" class="st28"/><path d="m278.99 497.65-97.89-97.88" class="st29"/><path d="m282.98 493.66-97.88-97.89" class="st33"/><path d="m286.98 489.66-97.88-97.89" class="st26"/><path d="m215.11 390.24 84.29 84.29c.75.75.59 2.13-.36 3.08l-23.72 23.72c-.95.95-2.33 1.11-3.08.36l-95.17-95.17c-.75-.75-.59-2.13.36-3.08l19.1-19.1c.74-.74 1.78-1.02 2.57-.7l16 6.6Z" class="st4"/><path d="m295.34 497.62 20.32-20.32c1.9-1.9 2.22-4.65.72-6.16l-94.73-94.73c-.29-.29-.63-.52-1.02-.68l-31.42-12.96c-1.58-.65-3.65-.09-5.13 1.4l-11.09 11.09" class="st26"/><path d="m172.98 375.26-13.53 13.53c-1.9 1.9-2.22 4.66-.72 6.16l116.92 116.92c1.5 1.5 4.26 1.18 6.16-.72l13.53-13.53" class="st12"/></g><path d="M87.31 1466.56c-.71 1.51-.95 2.46-1.23 3.85-2.74 1.23-5.91 1.59-8.06 1.59-8.13 0-14.01-4.21-14.01-12.62s5.91-16.03 16.55-16.03c3.77 0 7.54.87 10.63 3.06-.75 1.55-1.03 2.62-1.23 4.37l-.99-.08c-1.15-3.49-4.76-4.64-7.26-4.64-7.94 0-10.83 9.48-10.83 15.12 0 6.67 4.64 8.14 7.66 8.14s5.83-1.11 8.06-3.06l.71.32ZM99.85 1468.35c2.14 0 3.53-1.98 4.21-3.81 1.51-4.05 2.38-9.4 2.86-12.7 1.23.16 2.42.24 3.49.24 1.19 0 2.34-.12 3.02-.24-1.11 4.01-3.26 12.86-4.17 19.56-.83-.12-1.71-.24-2.94-.24-1.03 0-2.34.12-3.41.24.32-1.03.59-2.06.83-3.09-.87 1.07-2.9 3.53-7.06 3.53-3.21 0-5.24-1.71-5.24-4.52 0-1.98.87-5 1.27-6.83.64-3.02 1.19-5.67 1.59-8.65 1.15.16 2.7.24 3.89.24 1.27 0 2.1-.12 3.05-.24-2.46 8.69-3.57 12.7-3.57 14.25 0 1.27.87 2.26 2.18 2.26ZM125.39 1472c-3.85 0-5.44-2.1-6.15-3.01-1.43.79-2.3 1.43-3.65 2.42-.32-.08-.6-.12-.75-.12-.04 0-.48 0-.91.12 1.31-4.52 1.59-5.95 5.16-22.18.91-4.17 1.03-5.83 1.19-7.22 1.27.16 2.02.24 3.29.24s2.06-.08 3.34-.24c-.44 1.39-.71 2.38-1.07 3.77-.32 1.23-1.51 6.71-1.75 7.82 1.55-1.55 3.57-2.34 5.68-2.34 4.6 0 7.26 3.69 7.26 7.7 0 5.75-3.77 13.06-11.63 13.06Zm2.11-18.02c-2.1 0-3.29 1.91-4.01 3.93-.95 2.66-1.87 6.27-1.87 8.81 0 1.83.99 3.13 2.9 3.13 1.23 0 2.62-.55 4.01-3.69 1.43-3.25 2.1-6.75 2.1-8.49 0-2.66-1.71-3.69-3.13-3.69ZM156.62 1471.01c-1.23.59-2.42.71-3.41.71-1.98 0-3.21-.67-4.09-2.74-.71.95-2.22 2.94-5.48 2.94-2.86 0-5.47-1.63-5.47-5.12 0-5.99 6.19-6.43 9.17-6.63 2.22-.16 3.33-.28 3.33-2.38 0-2.26-1.11-3.29-3.41-3.29-1.79 0-3.53.67-5 1.71.04-.44.08-.87.08-1.31 0-.48 0-.91-.08-1.39 2.18-1.23 4.64-2.1 7.54-2.1s6.71.79 6.71 5.56c0 1.98-.59 4.05-1.11 6.11-.52 1.98-1.07 4.37-1.07 5.32 0 .83.36 1.43 1.27 1.43.44 0 .87-.08 1.27-.2l-.24 1.39Zm-12.66-4.52c0 1.27.63 2.34 2.02 2.34s2.14-.87 2.54-2.1c.32-.95.99-3.69 1.27-4.88-1.55.04-5.83.2-5.83 4.64ZM175.62 1468.39c-.59.87-1.03 1.63-1.55 2.7-1.51.59-3.13.83-4.76.83-5.75 0-10.08-3.69-10.08-9.25 0-4.37 3.06-11.15 11.63-11.15 3.05 0 5.55 1.07 7.06 2.22-.99 1.98-1.39 3.53-1.67 4.44l-1.27-.16c.16-2.38-.79-4.21-3.45-4.21-4.01 0-5.72 5.48-5.72 9.37 0 3.33 1.47 6.03 5.12 6.03 1.15 0 2.54-.28 4.01-1.51l.67.67ZM196.73 1468.39c-.12.24-.71 1.15-1.27 2.34-.95.36-3.13 1.23-6.67 1.23-6.11 0-9.84-3.53-9.84-9.09 0-5.83 4.21-11.43 11.31-11.43 4.76 0 7.82 2.46 7.82 7.42 0 1.23-.16 2.3-.48 3.49-.87-.12-2.22-.32-5.08-.32h-7.06c-.04.36-.08.91-.08 1.27 0 2.38 1.27 5.99 5.6 5.99 2.78 0 4.37-1.11 5.2-1.75l.56.83Zm-4.93-8.41c.28-.91.76-2.58.76-4.33s-1.15-2.42-2.1-2.42c-2.9 0-4.44 3.81-4.84 6.75h6.19ZM209.06 1442.24c1.23 0 2.1-.08 3.37-.24-1.31 4.96-4.88 20.95-6.39 29.41-.67-.08-1.87-.24-3.21-.24s-2.54.16-3.25.24c.87-2.86 1.63-5.71 2.26-8.61 2.66-12.14 2.94-13.49 4.05-20.79 1.03.16 1.98.24 3.18.24Z" class="st38"/><path d="M234.14 1463.51c-.99 4.6-1.19 6.39-1.39 7.9-1.23-.16-2.5-.2-3.77-.2-1.19 0-2.38.08-3.57.2 1.98-6.98 4.88-20.28 5.32-24.29-.55-.04-1.15-.04-1.79-.04-1.98 0-4.17.16-5.55.36.44-1.27.63-2.22.71-3.49 3.61.16 7.66.2 10.83.2 3.33 0 8.22-.12 10.83-.2-.4 1.07-.67 2.3-.79 3.49-1.59-.28-3.25-.36-4.52-.36-.71 0-1.63 0-2.5.04-.71 2.18-1.51 5.71-3.81 16.39ZM250.28 1468.35c2.14 0 3.53-1.98 4.21-3.81 1.51-4.05 2.38-9.4 2.86-12.7 1.23.16 2.42.24 3.49.24 1.19 0 2.34-.12 3.01-.24-1.11 4.01-3.25 12.86-4.17 19.56-.83-.12-1.71-.24-2.94-.24-1.03 0-2.34.12-3.41.24.32-1.03.6-2.06.83-3.09-.87 1.07-2.9 3.53-7.06 3.53-3.21 0-5.24-1.71-5.24-4.52 0-1.98.87-5 1.27-6.83.63-3.02 1.19-5.67 1.59-8.65 1.15.16 2.7.24 3.89.24 1.27 0 2.1-.12 3.06-.24-2.46 8.69-3.57 12.7-3.57 14.25 0 1.27.87 2.26 2.18 2.26ZM279.8 1457.6c-.44-.24-.91-.48-1.91-.48-2.58 0-3.97 1.79-4.64 4.05-.67 2.22-1.67 7.78-1.98 10.24a23.2 23.2 0 0 0-3.41-.24c-.99 0-2.1.12-3.13.24.99-3.73 3.57-14.17 4.09-19.56 1.19.12 2.14.24 3.37.24 1.31 0 2.38-.12 3.06-.24-.52 1.63-.76 2.7-1.15 4.52.71-1.27 2.62-4.88 6.31-4.88.36 0 .63.04.83.08-.67 2.1-.95 3.61-1.03 5.79l-.4.24Z" class="st0"/><path d="m841.84 1470.15 18.37-17.99-11.59.03-12.67 12.43c1.66 2.56 3.72 4.22 5.88 5.53m-6.85-7.22c-4.45-9.49.29-16.69 3.01-19.39 1.64-1.52 9.22-8.56 20.32-3.49l-23.33 22.88Zm32.24-2.01h-12.78l-10.46 10.28c11.91 4.34 20.71-3.32 23.23-10.28M873.47 1460.22c.6-3.19.96-5.39 1.25-7.9 1.71.03 3.44.14 5.16.14 2.85 0 5.31-.06 6.11-.14-.12.34-.25.69-.34 1.2-.11.6-.1.85-.12 1.28-2.19-.14-5.64-.34-6.52-.34-.54 2.08-.92 4.13-1.32 6.22 2.54-.06 4.42-.11 6.65-.23-.24.66-.32.91-.39 1.28-.06.31-.05.57-.07 1.17-2.18-.17-4.35-.26-6.56-.26-.23 1.2-.49 2.42-.72 3.65-.23 1.2-.43 2.42-.58 3.56 2.18 0 4.45-.12 6.74-.37-.13.4-.24.68-.36 1.28-.11.6-.11.88-.11 1.23-1.04-.03-2.39-.14-5.07-.14-4.75 0-5.55.08-6.2.14.65-2.51 1.12-4.7 1.72-7.9l.73-3.88ZM891.12 1456.97c.2-1.08.4-2.11.39-2.51-1.14 0-3.61.17-5.4.37.17-.43.3-.83.38-1.25.08-.43.1-.83.09-1.25 2.63.09 3.93.14 7.55.14s4.93-.06 7.42-.14c-.17.43-.3.83-.38 1.25-.08.43-.1.83-.09 1.25-1.53-.2-3.95-.37-5.11-.37-.13.4-.33 1.43-.53 2.51l-1.34 7.13c-.6 3.19-.96 5.39-1.25 7.9-.63-.06-1.4-.14-2.36-.14s-1.76.09-2.41.14c.65-2.51 1.12-4.71 1.72-7.9l1.34-7.13ZM901.79 1460.22c.6-3.19.96-5.39 1.25-7.9 1.71.03 3.44.14 5.16.14 2.85 0 5.31-.06 6.11-.14-.12.34-.25.69-.34 1.2-.11.6-.1.85-.12 1.28-2.19-.14-5.64-.34-6.52-.34-.54 2.08-.92 4.13-1.32 6.22 2.54-.06 4.42-.11 6.65-.23-.24.66-.32.91-.39 1.28-.06.31-.05.57-.07 1.17-2.18-.17-4.35-.26-6.56-.26-.23 1.2-.49 2.42-.72 3.65-.23 1.2-.43 2.42-.58 3.56 2.18 0 4.45-.12 6.74-.37-.13.4-.24.68-.36 1.28-.11.6-.11.88-.11 1.23-1.04-.03-2.39-.14-5.07-.14-4.75 0-5.55.08-6.2.14.65-2.51 1.12-4.7 1.72-7.9l.73-3.88ZM929.55 1468.69c-.47.8-.86 1.63-1.1 2.42-1.69.8-3.79 1.26-6.18 1.26-6.76 0-9.97-4.14-8.95-9.52 1.48-7.87 7.5-10.89 13.61-10.89 2.04 0 4.49.6 5.68 1.4-.56.94-.95 1.94-1.22 2.91h-.41c-1.12-1.77-2.46-2.54-4.53-2.54-3.12 0-7.14 2.65-8.28 8.7-1.1 5.87 2.01 8.18 5.36 8.18 1.86 0 4.18-.85 5.67-2.14l.34.23ZM942.96 1456.18c-.31-1.63-1.29-2.45-3.06-2.45s-3.25 1.2-3.51 2.57c-.79 4.22 8.26 3.17 7.04 9.64-.72 3.82-4.3 6.44-8.93 6.44-2.1 0-3.73-.6-4.46-1.22.63-1.31 1.08-2.34 1.53-3.62h.55c0 1.65 1.08 3.08 3.44 3.08s3.65-1.31 3.95-2.91c.81-4.31-8.08-3.17-6.86-9.64.74-3.93 4.24-6.1 7.7-6.1 2.1 0 3.57.54 4.51 1.4-.52.88-.85 1.57-1.46 2.82h-.44ZM961.16 1472c-.92-.06-1.72-.14-2.53-.14s-1.68.09-2.5.14c-.25-1.94-.55-3.91-.91-5.84-1.25-.03-2.46-.06-3.72-.06-1.02 0-2.01.03-3.04.06a68.326 68.326 0 0 0-3.08 5.84c-.46-.06-.88-.14-1.34-.14s-.92.09-1.48.14c2.02-3.17 8.3-13.31 12.03-19.82.37.06.7.14 1.08.14s.75-.09 1.13-.14c1.25 6.5 3.03 15.17 4.36 19.82m-6.3-7.53c-.41-2.31-.8-4.56-1.31-6.79-1.41 2.22-2.74 4.48-4.02 6.79h5.33Z" class="st40"/></g>
<style>
    #frame1 {
      animation: rotation 1s steps(1) infinite;
    }
    @keyframes rotation {
      0%, 100% { opacity: 1; }
      50% { opacity: 0; }
    }
  </style>
  <g id="frame2"> ... </g>
  <g id="frame1"> ... </g>
</svg>