<?xml version="1.0" encoding="UTF-8"?>
<svg id="Layer_1" xmlns="http://www.w3.org/2000/svg" version="1.1" viewBox="0 0 2048 768">
  <!-- Generator: Adobe Illustrator 30.1.0, SVG Export Plug-In . SVG Version: 2.1.1 Build 136)  -->
  <defs>
    <style>
      .st0, .st1 {
        fill: #ffe68a;
      }

      .st2, .st3, .st4, .st5, .st6, .st7, .st8, .st9, .st1 {
        stroke-width: 1.12px;
      }

      .st2, .st3, .st4, .st8, .st1 {
        stroke: #080b57;
      }

      .st2, .st10, .st11, .st4, .st5, .st7, .st9, .st12, .st13, .st14, .st15 {
        fill: none;
      }

      .st2, .st5, .st1 {
        stroke-linejoin: round;
      }

      .st3, .st10, .st11, .st4, .st6, .st7, .st8, .st9, .st12, .st13, .st14, .st15 {
        stroke-miterlimit: 10;
      }

      .st3, .st16, .st17 {
        fill: #8187e4;
      }

      .st10, .st11, .st5, .st6, .st7, .st14 {
        stroke: #fff;
      }

      .st10, .st13 {
        stroke-width: 2.62px;
      }

      .st11, .st12 {
        stroke-width: 3.37px;
      }

      .st6, .st18 {
        fill: #fff;
      }

      .st8, .st19 {
        fill: #080b57;
      }

      .st20, .st17 {
        opacity: .8;
      }

      .st9, .st12, .st13, .st15 {
        stroke: #8187e4;
      }

      .st14, .st15 {
        stroke-width: 1.87px;
      }

      .st17 {
        isolation: isolate;
      }
    </style>
  </defs>
  <path id="BG" class="st18" d="M0-384h2048v1536H0V-384Z"/>
  <g id="frame2">
    <path class="st17" d="M256-384h1536v1536H256V-384Z"/>
    <path class="st17" d="M0-384h2048v1536H0V-384Z"/>
    <g class="st20">
      <path class="st16" d="M0,0h2048v768H0V0Z"/>
    </g>
    <path class="st17" d="M512-384h1024v1536H512V-384Z"/>
    <path class="st8" d="M832.88,535.61l-57.16-57.16c-9.02-9.02-23.64-9.03-32.65-.02l-156.39,156.39c-4.33,4.33-6.76,10.2-6.75,16.32l.02,29.84c0,6.12,2.44,12,6.77,16.33l42.23,42.23"/>
    <path class="st3" d="M628.95,739.54l32.66,32.66c9.02,9.02,23.64,9.03,32.65.02l171.3-171.3c9.01-9.01,9-23.63-.02-32.65l-32.66-32.66"/>
    <path class="st0" d="M699.95,603.23l79.88-79.88c2.25-2.25,5.91-2.25,8.16,0l57.16,57.16c2.25,2.25,2.26,5.91,0,8.16l-89.73,89.73c-2.25,2.25-5.91,2.25-8.16,0l-47.3-47.3c-1.08-1.08-1.69-2.55-1.69-4.08v-19.7c-.01-1.53.6-3,1.68-4.08h0Z"/>
    <path class="st2" d="M699.95,603.23l79.88-79.88c2.25-2.25,5.91-2.25,8.16,0l57.16,57.16c2.25,2.25,2.26,5.91,0,8.16l-89.73,89.73c-2.25,2.25-5.91,2.25-8.16,0l-47.3-47.3c-1.08-1.08-1.69-2.55-1.69-4.08v-19.7c-.01-1.53.6-3,1.68-4.08h0Z"/>
    <path class="st9" d="M824.73,543.77l-48.99-48.99c-4.51-4.51-11.82-4.51-16.32,0l-86.35,86.35c-2.16,2.16-3.38,5.1-3.38,8.16l.02,39.41c0,3.06,1.22,6,3.38,8.16l29.28,29.28"/>
    <path class="st4" d="M702.37,666.13l32.66,32.66c4.51,4.51,11.82,4.51,16.32,0l106.04-106.04c4.5-4.5,4.5-11.81,0-16.32l-32.66-32.66"/>
    <path class="st2" d="M809.01,624.81l-41.38-23.94M832.85,600.97l-65.22-.1M829.73,565.08l-62.1,35.79M803.41,538.77l-35.78,62.1M767.52,535.65l.11,65.22M743.69,559.48l23.94,41.39M726.24,576.93l41.39,23.94M702.4,600.77l65.23.1M705.53,636.66l62.1-35.79M731.84,662.97l35.79-62.1M767.73,666.09l-.1-65.22M791.57,642.26l-23.94-41.39"/>
    <path class="st1" d="M776.51,616.23l6.48-6.47,2.36-8.86-2.39-8.86-6.5-6.5-8.86-2.39-8.86,2.36-6.47,6.48-2.36,8.85,2.39,8.87,6.49,6.49,8.87,2.39,8.85-2.36Z"/>
    <path class="st8" d="M1239.61,511.12l-57.16,57.16c-9.02,9.02-9.03,23.64-.02,32.65l156.39,156.39c4.33,4.33,10.2,6.76,16.32,6.75l29.84-.02c6.12,0,12-2.44,16.33-6.77l42.23-42.23"/>
    <path class="st3" d="M1443.54,715.04l32.66-32.66c9.02-9.02,9.03-23.64.02-32.65l-171.3-171.3c-9.01-9.01-23.63-9-32.65.02l-32.66,32.66"/>
    <path class="st0" d="M1307.23,644.05l-79.88-79.88c-2.25-2.25-2.25-5.91,0-8.16l57.16-57.16c2.25-2.25,5.91-2.26,8.16,0l89.73,89.73c2.25,2.25,2.25,5.91,0,8.16l-47.3,47.3c-1.08,1.08-2.55,1.69-4.08,1.69h-19.7c-1.53.01-3-.6-4.08-1.68h-.01Z"/>
    <path class="st2" d="M1307.23,644.05l-79.88-79.88c-2.25-2.25-2.25-5.91,0-8.16l57.16-57.16c2.25-2.25,5.91-2.26,8.16,0l89.73,89.73c2.25,2.25,2.25,5.91,0,8.16l-47.3,47.3c-1.08,1.08-2.55,1.69-4.08,1.69h-19.7c-1.53.01-3-.6-4.08-1.68h-.01Z"/>
    <path class="st9" d="M1247.77,519.27l-48.99,48.99c-4.51,4.51-4.51,11.82,0,16.32l86.35,86.35c2.16,2.16,5.1,3.38,8.16,3.38l39.41-.02c3.06,0,6-1.22,8.16-3.38l29.28-29.28"/>
    <path class="st4" d="M1370.13,641.63l32.66-32.66c4.51-4.51,4.51-11.82,0-16.32l-106.04-106.04c-4.5-4.5-11.81-4.5-16.32,0l-32.66,32.66"/>
    <path class="st2" d="M1328.81,534.99l-23.94,41.38M1304.97,511.15l-.1,65.22M1269.08,514.27l35.79,62.1M1242.77,540.59l62.1,35.78M1239.65,576.48l65.22-.11M1263.48,600.31l41.39-23.94M1280.93,617.76l23.94-41.39M1304.77,641.6l.1-65.23M1340.66,638.47l-35.79-62.1M1366.97,612.16l-62.1-35.79M1370.09,576.27l-65.22.1M1346.26,552.43l-41.39,23.94"/>
    <path class="st1" d="M1320.23,567.49l-6.47-6.48-8.86-2.36-8.86,2.39-6.5,6.5-2.39,8.86,2.36,8.86,6.48,6.47,8.85,2.36,8.87-2.39,6.49-6.49,2.39-8.87-2.36-8.85Z"/>
    <path class="st8" d="M1215.12,104.39l57.16,57.16c9.02,9.02,23.64,9.03,32.65.02L1461.32,5.18c4.33-4.33,6.76-10.2,6.75-16.32l-.02-29.84c0-6.12-2.44-12-6.77-16.33l-42.23-42.23"/>
    <path class="st3" d="M1419.05-99.54l-32.66-32.66c-9.02-9.02-23.64-9.03-32.65-.02l-171.3,171.3c-9.01,9.01-9,23.63.02,32.65l32.66,32.66"/>
    <path class="st0" d="M1348.05,36.77l-79.88,79.88c-2.25,2.25-5.91,2.25-8.16,0l-57.16-57.16c-2.25-2.25-2.26-5.91,0-8.16l89.73-89.73c2.25-2.25,5.91-2.25,8.16,0l47.3,47.3c1.08,1.08,1.69,2.55,1.69,4.08v19.7c.01,1.53-.6,3-1.68,4.08h0Z"/>
    <path class="st2" d="M1348.05,36.77l-79.88,79.88c-2.25,2.25-5.91,2.25-8.16,0l-57.16-57.16c-2.25-2.25-2.26-5.91,0-8.16l89.73-89.73c2.25-2.25,5.91-2.25,8.16,0l47.3,47.3c1.08,1.08,1.69,2.55,1.69,4.08v19.7c.01,1.53-.6,3-1.68,4.08h0Z"/>
    <path class="st9" d="M1223.27,96.23l48.99,48.99c4.51,4.51,11.82,4.51,16.32,0l86.35-86.35c2.16-2.16,3.38-5.1,3.38-8.16l-.02-39.41c0-3.06-1.22-6-3.38-8.16l-29.28-29.28"/>
    <path class="st4" d="M1345.63-26.13l-32.66-32.66c-4.51-4.51-11.82-4.51-16.32,0l-106.04,106.04c-4.5,4.5-4.5,11.81,0,16.32l32.66,32.66"/>
    <path class="st2" d="M1238.99,15.19l41.38,23.94M1215.15,39.03l65.22.1M1218.27,74.92l62.1-35.79M1244.59,101.23l35.78-62.1M1280.48,104.35l-.11-65.22M1304.31,80.52l-23.94-41.39M1321.76,63.07l-41.39-23.94M1345.6,39.23l-65.23-.1M1342.47,3.34l-62.1,35.79M1316.16-22.97l-35.79,62.1M1280.27-26.09l.1,65.22M1256.43-2.26l23.94,41.39"/>
    <path class="st1" d="M1271.49,23.77l-6.48,6.47-2.36,8.86,2.39,8.86,6.5,6.5,8.86,2.39,8.86-2.36,6.47-6.48,2.36-8.85-2.39-8.87-6.49-6.49-8.87-2.39-8.85,2.36h0Z"/>
    <path class="st8" d="M808.39,128.88l57.16-57.16c9.02-9.02,9.03-23.64.02-32.65l-156.39-156.39c-4.33-4.33-10.2-6.76-16.32-6.75l-29.84.02c-6.12,0-12,2.44-16.33,6.77l-42.23,42.23"/>
    <path class="st3" d="M604.46-75.05l-32.66,32.66c-9.02,9.02-9.03,23.64-.02,32.65l171.3,171.3c9.01,9.01,23.63,9,32.65-.02l32.66-32.66"/>
    <path class="st0" d="M740.77-4.05l79.88,79.88c2.25,2.25,2.25,5.91,0,8.16l-57.16,57.16c-2.25,2.25-5.91,2.26-8.16,0l-89.73-89.73c-2.25-2.25-2.25-5.91,0-8.16l47.3-47.3c1.08-1.08,2.55-1.69,4.08-1.69h19.7c1.53-.01,3,.6,4.08,1.68h0Z"/>
    <path class="st2" d="M740.77-4.05l79.88,79.88c2.25,2.25,2.25,5.91,0,8.16l-57.16,57.16c-2.25,2.25-5.91,2.26-8.16,0l-89.73-89.73c-2.25-2.25-2.25-5.91,0-8.16l47.3-47.3c1.08-1.08,2.55-1.69,4.08-1.69h19.7c1.53-.01,3,.6,4.08,1.68h0Z"/>
    <path class="st9" d="M800.23,120.73l48.99-48.99c4.51-4.51,4.51-11.82,0-16.32l-86.35-86.35c-2.16-2.16-5.1-3.38-8.16-3.38l-39.41.02c-3.06,0-6,1.22-8.16,3.38l-29.28,29.28"/>
    <path class="st4" d="M677.87-1.63l-32.66,32.66c-4.51,4.51-4.51,11.82,0,16.32l106.04,106.04c4.5,4.5,11.81,4.5,16.32,0l32.66-32.66"/>
    <path class="st2" d="M719.19,105.01l23.94-41.38M743.03,128.85l.1-65.22M778.92,125.73l-35.79-62.1M805.23,99.41l-62.1-35.78M808.35,63.52l-65.22.11M784.52,39.69l-41.39,23.94M767.07,22.24l-23.94,41.39M743.23-1.6l-.1,65.23M707.34,1.53l35.79,62.1M681.03,27.84l62.1,35.79M677.91,63.73l65.22-.1M701.74,87.57l41.39-23.94"/>
    <path class="st1" d="M727.77,72.51l6.47,6.48,8.86,2.36,8.86-2.39,6.5-6.5,2.39-8.86-2.36-8.86-6.48-6.47-8.85-2.36-8.87,2.39-6.49,6.49-2.39,8.87,2.36,8.85h0Z"/>
    <path class="st6" d="M448,321.93v-21.75c0-4.21,2.14-7.94,5.3-9.25l28.14-11.71c.76-.32,1.58-.49,2.41-.49h244.96c4.19,0,7.59,4.3,7.59,9.6v33.6M448,321.93v19.2c0,5.3,3.4,9.6,7.59,9.6h273.21c4.19,0,7.59-4.3,7.59-9.6v-19.2"/>
    <path class="st18" d="M592.51,302.73h118.9c1.06,0,1.92,1.09,1.92,2.43v34.51c0,.81-.52,1.46-1.16,1.46h-136.12c-.64,0-1.16-.65-1.16-1.46v-27.98c0-1.05.53-1.98,1.32-2.31l15.69-6.53c.19-.08.4-.12.6-.12h.01Z"/>
    <path class="st11" d="M713.33,339.16h-138.43"/>
    <path class="st10" d="M713.33,333.51h-138.43"/>
    <path class="st14" d="M713.33,327.86h-138.43"/>
    <path class="st7" d="M713.33,322.21h-138.43"/>
    <path class="st5" d="M592.2,302.73h119.2c1.06,0,1.92,1.09,1.92,2.43v33.54c0,1.34-.86,2.43-1.92,2.43h-134.59c-1.06,0-1.92-1.09-1.92-2.43v-27.01c0-1.05.53-1.98,1.32-2.31l15.98-6.65h.01Z"/>
    <path class="st7" d="M724.86,321.93v-28.74c0-2.68-1.72-4.86-3.85-4.86h-133.97c-.41,0-.81.08-1.2.24l-31.38,13.06c-1.58.66-2.64,2.52-2.64,4.62v15.68M551.82,321.93v19.13c0,2.69,1.72,4.87,3.85,4.87h165.34c2.12,0,3.85-2.18,3.85-4.86v-19.14"/>
    <path class="st8" d="M448,327.2v-21.75c0-4.21,2.14-7.94,5.3-9.25l28.14-11.71c.76-.32,1.58-.49,2.41-.49h244.96c4.19,0,7.59,4.3,7.59,9.6v33.6"/>
    <path class="st3" d="M448,327.2v19.2c0,5.3,3.4,9.6,7.59,9.6h273.21c4.19,0,7.59-4.3,7.59-9.6v-19.2"/>
    <path class="st0" d="M592.51,308h118.9c1.06,0,1.92,1.09,1.92,2.43v34.51c0,.81-.52,1.46-1.16,1.46h-136.12c-.64,0-1.16-.65-1.16-1.46v-27.98c0-1.05.53-1.98,1.32-2.31l15.69-6.53c.19-.08.4-.12.6-.12h.01Z"/>
    <path class="st12" d="M713.33,344.44h-138.43"/>
    <path class="st13" d="M713.33,338.78h-138.43"/>
    <path class="st15" d="M713.33,333.13h-138.43"/>
    <path class="st9" d="M713.33,327.48h-138.43"/>
    <path class="st2" d="M592.2,308h119.2c1.06,0,1.92,1.09,1.92,2.43v33.54c0,1.34-.86,2.43-1.92,2.43h-134.59c-1.06,0-1.92-1.09-1.92-2.43v-27.01c0-1.05.53-1.98,1.32-2.31l15.98-6.65h.01Z"/>
    <path class="st9" d="M724.86,327.2v-28.74c0-2.68-1.72-4.86-3.85-4.86h-133.97c-.41,0-.81.08-1.2.24l-31.38,13.06c-1.58.66-2.64,2.52-2.64,4.62v15.68"/>
    <path class="st4" d="M551.82,327.2v19.13c0,2.69,1.72,4.87,3.85,4.87h165.34c2.12,0,3.85-2.18,3.85-4.86v-19.14"/>
    <path class="st6" d="M1025.93,896h-21.75c-4.21,0-7.94-2.14-9.25-5.3l-11.71-28.14c-.32-.76-.49-1.58-.49-2.41v-244.96c0-4.19,4.3-7.59,9.6-7.59h33.6M1025.93,896h19.2c5.3,0,9.6-3.4,9.6-7.59v-273.21c0-4.19-4.3-7.59-9.6-7.59h-19.2"/>
    <path class="st18" d="M1006.73,751.49v-118.9c0-1.06,1.09-1.92,2.43-1.92h34.51c.81,0,1.46.52,1.46,1.16v136.12c0,.64-.65,1.16-1.46,1.16h-27.98c-1.05,0-1.98-.53-2.31-1.32l-6.53-15.69c-.08-.19-.12-.4-.12-.6h0Z"/>
    <path class="st11" d="M1043.16,630.67v138.43"/>
    <path class="st10" d="M1037.51,630.67v138.43"/>
    <path class="st14" d="M1031.86,630.67v138.43"/>
    <path class="st7" d="M1026.21,630.67v138.43"/>
    <path class="st5" d="M1006.73,751.8v-119.2c0-1.06,1.09-1.92,2.43-1.92h33.54c1.34,0,2.43.86,2.43,1.92v134.59c0,1.06-1.09,1.92-2.43,1.92h-27.01c-1.05,0-1.98-.53-2.31-1.32l-6.65-15.98h0Z"/>
    <path class="st7" d="M1025.93,619.14h-28.74c-2.68,0-4.86,1.72-4.86,3.85v133.97c0,.41.08.81.24,1.2l13.06,31.38c.66,1.58,2.52,2.64,4.62,2.64h15.68M1025.93,792.18h19.13c2.69,0,4.87-1.72,4.87-3.85v-165.34c0-2.12-2.18-3.85-4.86-3.85h-19.14"/>
    <path class="st8" d="M1031.2,896h-21.75c-4.21,0-7.94-2.14-9.25-5.3l-11.71-28.14c-.32-.76-.49-1.58-.49-2.41v-244.96c0-4.19,4.3-7.59,9.6-7.59h33.6"/>
    <path class="st3" d="M1031.2,896h19.2c5.3,0,9.6-3.4,9.6-7.59v-273.21c0-4.19-4.3-7.59-9.6-7.59h-19.2"/>
    <path class="st0" d="M1012,751.49v-118.9c0-1.06,1.09-1.92,2.43-1.92h34.51c.81,0,1.46.52,1.46,1.16v136.12c0,.64-.65,1.16-1.46,1.16h-27.98c-1.05,0-1.98-.53-2.31-1.32l-6.53-15.69c-.08-.19-.12-.4-.12-.6h0Z"/>
    <path class="st12" d="M1048.44,630.67v138.43"/>
    <path class="st13" d="M1042.78,630.67v138.43"/>
    <path class="st15" d="M1037.13,630.67v138.43"/>
    <path class="st9" d="M1031.48,630.67v138.43"/>
    <path class="st2" d="M1012,751.8v-119.2c0-1.06,1.09-1.92,2.43-1.92h33.54c1.34,0,2.43.86,2.43,1.92v134.59c0,1.06-1.09,1.92-2.43,1.92h-27.01c-1.05,0-1.98-.53-2.31-1.32l-6.65-15.98h0Z"/>
    <path class="st9" d="M1031.2,619.14h-28.74c-2.68,0-4.86,1.72-4.86,3.85v133.97c0,.41.08.81.24,1.2l13.06,31.38c.66,1.58,2.52,2.64,4.62,2.64h15.68"/>
    <path class="st4" d="M1031.2,792.18h19.13c2.69,0,4.87-1.72,4.87-3.85v-165.34c0-2.12-2.18-3.85-4.86-3.85h-19.14"/>
    <path class="st6" d="M1600,318.07v21.75c0,4.21-2.14,7.94-5.3,9.25l-28.14,11.71c-.78.32-1.59.49-2.41.49h-244.96c-4.19,0-7.59-4.3-7.59-9.6v-33.6M1600,318.07v-19.2c0-5.3-3.4-9.6-7.59-9.6h-273.21c-4.19,0-7.59,4.3-7.59,9.6v19.2"/>
    <path class="st18" d="M1455.49,337.27h-118.9c-1.06,0-1.92-1.09-1.92-2.43v-34.51c0-.81.52-1.46,1.16-1.46h136.12c.64,0,1.16.65,1.16,1.46v27.98c0,1.05-.53,1.98-1.32,2.31l-15.69,6.53c-.19.08-.4.12-.6.12h-.01Z"/>
    <path class="st11" d="M1334.67,300.84h138.43"/>
    <path class="st10" d="M1334.67,306.49h138.43"/>
    <path class="st14" d="M1334.67,312.14h138.43"/>
    <path class="st7" d="M1334.67,317.79h138.43"/>
    <path class="st5" d="M1455.8,337.27h-119.2c-1.06,0-1.92-1.09-1.92-2.43v-33.54c0-1.34.86-2.43,1.92-2.43h134.59c1.06,0,1.92,1.09,1.92,2.43v27.01c0,1.05-.53,1.98-1.32,2.31l-15.98,6.65h-.01Z"/>
    <path class="st7" d="M1323.14,318.07v28.74c0,2.68,1.72,4.86,3.85,4.86h133.97c.41,0,.81-.08,1.2-.24l31.38-13.06c1.58-.66,2.64-2.52,2.64-4.62v-15.68M1496.18,318.07v-19.13c0-2.69-1.72-4.87-3.85-4.87h-165.34c-2.12,0-3.85,2.18-3.85,4.86v19.14"/>
    <path class="st8" d="M1600,312.8v21.75c0,4.21-2.14,7.94-5.3,9.25l-28.14,11.71c-.78.32-1.59.49-2.41.49h-244.96c-4.19,0-7.59-4.3-7.59-9.6v-33.6"/>
    <path class="st3" d="M1600,312.8v-19.2c0-5.3-3.4-9.6-7.59-9.6h-273.21c-4.19,0-7.59,4.3-7.59,9.6v19.2"/>
    <path class="st0" d="M1455.49,332h-118.9c-1.06,0-1.92-1.09-1.92-2.43v-34.51c0-.81.52-1.46,1.16-1.46h136.12c.64,0,1.16.65,1.16,1.46v27.98c0,1.05-.53,1.98-1.32,2.31l-15.69,6.53c-.19.08-.4.12-.6.12h-.01Z"/>
    <path class="st12" d="M1334.67,295.56h138.43"/>
    <path class="st13" d="M1334.67,301.22h138.43"/>
    <path class="st15" d="M1334.67,306.87h138.43"/>
    <path class="st9" d="M1334.67,312.52h138.43"/>
    <path class="st2" d="M1455.8,332h-119.2c-1.06,0-1.92-1.09-1.92-2.43v-33.54c0-1.34.86-2.43,1.92-2.43h134.59c1.06,0,1.92,1.09,1.92,2.43v27.01c0,1.05-.53,1.98-1.32,2.31l-15.98,6.65h-.01Z"/>
    <path class="st9" d="M1323.14,312.8v28.74c0,2.68,1.72,4.86,3.85,4.86h133.97c.41,0,.81-.08,1.2-.24l31.38-13.06c1.58-.66,2.64-2.52,2.64-4.62v-15.68"/>
    <path class="st4" d="M1496.18,312.8v-19.13c0-2.69-1.72-4.87-3.85-4.87h-165.34c-2.12,0-3.85,2.18-3.85,4.86v19.14"/>
    <path class="st6" d="M1022.07-256h21.75c4.21,0,7.94,2.14,9.25,5.3l11.71,28.14c.32.78.49,1.59.49,2.41V24.81c0,4.19-4.3,7.59-9.6,7.59h-33.6M1022.07-256h-19.2c-5.3,0-9.6,3.4-9.6,7.59V24.8c0,4.19,4.3,7.59,9.6,7.59h19.2"/>
    <path class="st18" d="M1041.27-111.49V7.41c0,1.06-1.09,1.92-2.43,1.92h-34.51c-.81,0-1.46-.52-1.46-1.16V-127.95c0-.64.65-1.16,1.46-1.16h27.98c1.05,0,1.98.53,2.31,1.32l6.53,15.69c.08.19.12.4.12.6h0Z"/>
    <path class="st11" d="M1004.84,9.33v-138.43"/>
    <path class="st10" d="M1010.49,9.33v-138.43"/>
    <path class="st14" d="M1016.14,9.33v-138.43"/>
    <path class="st7" d="M1021.79,9.33v-138.43"/>
    <path class="st5" d="M1041.27-111.8V7.4c0,1.06-1.09,1.92-2.43,1.92h-33.54c-1.34,0-2.43-.86-2.43-1.92V-127.19c0-1.06,1.09-1.92,2.43-1.92h27.01c1.05,0,1.98.53,2.31,1.32l6.65,15.98h0Z"/>
    <path class="st7" d="M1022.07,20.86h28.74c2.68,0,4.86-1.72,4.86-3.85V-116.96c0-.41-.08-.81-.24-1.2l-13.06-31.38c-.66-1.58-2.52-2.64-4.62-2.64h-15.68M1022.07-152.18h-19.13c-2.69,0-4.87,1.72-4.87,3.85V17.01c0,2.12,2.18,3.85,4.86,3.85h19.14"/>
    <path class="st8" d="M1016.8-256h21.75c4.21,0,7.94,2.14,9.25,5.3l11.71,28.14c.32.78.49,1.59.49,2.41V24.81c0,4.19-4.3,7.59-9.6,7.59h-33.6"/>
    <path class="st3" d="M1016.8-256h-19.2c-5.3,0-9.6,3.4-9.6,7.59V24.8c0,4.19,4.3,7.59,9.6,7.59h19.2"/>
    <path class="st0" d="M1036-111.49V7.41c0,1.06-1.09,1.92-2.43,1.92h-34.51c-.81,0-1.46-.52-1.46-1.16V-127.95c0-.64.65-1.16,1.46-1.16h27.98c1.05,0,1.98.53,2.31,1.32l6.53,15.69c.08.19.12.4.12.6h0Z"/>
    <path class="st12" d="M999.56,9.33v-138.43"/>
    <path class="st13" d="M1005.22,9.33v-138.43"/>
    <path class="st15" d="M1010.87,9.33v-138.43"/>
    <path class="st9" d="M1016.52,9.33v-138.43"/>
    <path class="st2" d="M1036-111.8V7.4c0,1.06-1.09,1.92-2.43,1.92h-33.54c-1.34,0-2.43-.86-2.43-1.92V-127.19c0-1.06,1.09-1.92,2.43-1.92h27.01c1.05,0,1.98.53,2.31,1.32l6.65,15.98h0Z"/>
    <path class="st9" d="M1016.8,20.86h28.74c2.68,0,4.86-1.72,4.86-3.85V-116.96c0-.41-.08-.81-.24-1.2l-13.06-31.38c-.66-1.58-2.52-2.64-4.62-2.64h-15.68"/>
    <path class="st4" d="M1016.8-152.18h-19.13c-2.69,0-4.87,1.72-4.87,3.85V17.01c0,2.12,2.18,3.85,4.86,3.85h19.14"/>
    <path class="st0" d="M1023.95,544.41c-30.2,0-59.6-5.96-87.39-17.71-26.74-11.31-50.71-27.46-71.26-48-20.54-20.54-36.69-44.52-48-71.25-11.75-27.78-17.71-57.19-17.71-87.39s5.96-59.6,17.71-87.39c11.31-26.74,27.46-50.71,48-71.26s44.52-36.69,71.26-48c27.78-11.75,57.19-17.71,87.39-17.71s59.6,5.96,87.39,17.71c26.74,11.31,50.71,27.46,71.25,48s36.69,44.52,48,71.26c11.75,27.78,17.71,57.19,17.71,87.39s-5.96,59.6-17.71,87.39c-11.31,26.74-27.46,50.71-48,71.25s-44.52,36.69-71.25,48c-27.78,11.75-57.19,17.71-87.39,17.71h0Z"/>
    <path class="st16" d="M1023.95,480.3c-88.36,0-160.25-71.89-160.25-160.25s71.89-160.25,160.25-160.25,160.25,71.89,160.25,160.25-71.89,160.25-160.25,160.25h0Z"/>
    <path class="st0" d="M1023.95,448.25c-70.69,0-128.2-57.51-128.2-128.2s57.51-128.2,128.2-128.2,128.2,57.51,128.2,128.2-57.51,128.2-128.2,128.2Z"/>
    <path class="st16" d="M1023.95,384.15c-35.35,0-64.1-28.76-64.1-64.1s28.76-64.1,64.1-64.1,64.1,28.76,64.1,64.1-28.76,64.1-64.1,64.1h0Z"/>
    <circle class="st0" cx="1023.95" cy="320.05" r="32.05"/>
    <path class="st0" d="M70.09,624.73h-6.09v24.39h6.09v6.09h6.1v-6.1h-6.1v-6.09h6.1v6.09h6.09v-12.19h-6.09v-6.09h-6.1v-6.1h0ZM70.09,575.97h-6.09v42.67h18.28v-6.1h-12.19v-30.47h12.19v-6.1h-12.19ZM70.09,661.3h-6.09v42.67h18.28v-6.09h-12.19v-30.48h12.19v-6.1h-12.19Z"/>
    <path class="st0" d="M76.19,588.16h6.09v18.29h-6.09v-18.29ZM76.19,624.73h6.09v6.09h-6.09v-6.09ZM76.19,673.5h6.09v18.29h-6.09v-18.29ZM88.38,575.97h-6.1v6.1h18.29v-6.1h-12.19ZM94.47,606.45v-18.29h-12.19v18.29h12.19ZM88.38,612.54h-6.1v6.1h18.29v-6.1h-12.19ZM88.38,624.73h-6.1v12.2h6.1v6.09h-6.1v12.19h18.29v-6.1h-6.1v-6.09h6.1v-6.1h-6.1v-6.09h6.1v-6.1h-12.19ZM88.38,661.3h-6.1v6.1h18.29v-6.1h-12.19ZM94.47,691.78v-18.28h-12.19v18.28h12.19ZM88.38,697.88h-6.1v6.09h18.29v-6.09h-12.19ZM100.57,575.97h6.09v42.67h-6.09v-42.67ZM100.57,624.73h6.09v6.09h-6.09v-6.09ZM100.57,636.92h6.09v6.09h-6.09v-6.09ZM100.57,649.11v6.1h12.19v-6.1h-12.19ZM100.57,673.5v30.47h6.1v-42.67h-6.1v12.2h0ZM118.86,588.16h-6.1v36.57h6.1v-18.28h6.09v-6.1h-6.09v-12.19ZM112.76,636.92h6.09v6.09h-6.09v-6.09ZM112.76,697.88h6.09v6.09h-6.09v-6.09ZM118.86,630.83v6.09h12.19v-6.09h-12.19ZM118.86,643.02v6.09h6.09v6.1h-12.19v6.09h6.1v6.1h-6.1v6.09h18.29v-6.09h-6.1v-12.19h6.1v-12.19h-12.19ZM124.95,685.69v-12.19h-12.19v18.28h6.1v-6.09h6.09Z"/>
    <path class="st0" d="M118.86,691.78v6.1h6.09v6.09h6.1v-12.19h-12.19ZM124.95,588.16h6.09v12.19h-6.09v-12.19ZM124.95,606.45h6.09v18.29h-6.09v-18.29ZM131.05,636.92h6.09v6.09h-6.09v-6.09ZM131.05,697.88h6.09v6.09h-6.09v-6.09ZM143.24,582.07v-6.1h-12.19v6.1h12.19ZM137.14,588.16h6.09v6.09h-6.09v-6.09ZM137.14,600.35h-6.09v6.1h6.09v12.19h-6.09v6.09h6.09v12.19h6.1v-36.57h-6.1ZM143.24,673.5h-6.1v12.18h-6.09v6.1h6.09v-6.09h6.1v6.09h6.09v-12.19h-6.09v-6.09h0ZM143.24,655.21h-6.1v-6.1h-6.09v12.19h6.09v6.1h-6.09v6.09h12.19v-6.09h6.09v-30.48h-6.09v18.29ZM149.33,575.97v42.67h12.19v-6.1h-6.09v-30.47h6.09v-6.1h-12.19ZM149.33,624.73v6.1h6.1v6.09h-6.1v6.1h6.1v-6.09h6.09v-12.2h-12.19ZM149.33,649.11h6.09v6.09h-6.09v-6.09ZM155.43,643.02h6.09v6.09h-6.09v-6.09ZM155.43,655.21h6.09v12.19h-6.09v-12.19ZM155.43,679.59h-6.1v6.09h6.1s6.09.01,6.09.01v-12.19h-6.09v6.09ZM155.43,697.88h6.09v6.09h-6.09v-6.09ZM161.52,679.59h6.09v6.09h-6.09v-6.09ZM167.62,575.97h-6.1v6.1h18.29v-6.1h-12.19ZM167.62,588.16h-6.1v18.29h18.29v-18.29h-12.19ZM167.62,612.54h-6.1v6.1h18.29v-6.1h-12.19ZM167.62,624.73h-6.1v12.2h12.19v6.09h-12.19v18.28h6.1v12.19h12.19v-18.28h-12.19v-6.1h6.09s6.1.01,6.1.01v-24.39h-12.19ZM167.62,691.78h-6.1v6.1h6.1v6.09h6.09v-6.09h6.1v-6.1h-6.1v-6.1h-6.09v6.1ZM173.71,679.59h6.09v6.09h-6.09v-6.09ZM179.81,630.83v24.38h6.1v6.09h6.09v-6.09h-6.09v-18.29h6.09v-6.09h-12.19ZM179.81,661.3h6.09v6.09h-6.09v-6.09ZM179.81,697.88h6.09v6.09h-6.09v-6.09ZM185.91,575.97h-6.1v6.1h6.1v30.47h-6.1v6.1h12.19v-42.67h-6.09ZM185.91,667.4h6.09v6.09h-6.09v-6.09ZM185.91,673.5h6.09v6.09h-6.09v-6.09Z"/>
    <path class="st18" d="M343.25,698.53c-.71,1.51-.95,2.46-1.23,3.85-2.74,1.23-5.91,1.59-8.06,1.59-8.13,0-14.01-4.21-14.01-12.62s5.91-16.03,16.55-16.03c3.77,0,7.54.87,10.63,3.06-.75,1.55-1.03,2.62-1.23,4.37l-.99-.08c-1.15-3.49-4.76-4.64-7.26-4.64-7.94,0-10.83,9.48-10.83,15.12,0,6.67,4.64,8.14,7.66,8.14s5.83-1.11,8.06-3.06l.71.32v-.02ZM355.78,700.32c2.14,0,3.53-1.98,4.21-3.81,1.51-4.05,2.38-9.4,2.86-12.7,1.23.16,2.42.24,3.49.24,1.19,0,2.34-.12,3.02-.24-1.11,4.01-3.26,12.86-4.17,19.56-.83-.12-1.71-.24-2.94-.24-1.03,0-2.34.12-3.41.24.32-1.03.59-2.06.83-3.09-.87,1.07-2.9,3.53-7.06,3.53-3.21,0-5.24-1.71-5.24-4.52,0-1.98.87-5,1.27-6.83.64-3.02,1.19-5.67,1.59-8.65,1.15.16,2.7.24,3.89.24,1.27,0,2.1-.12,3.05-.24-2.46,8.69-3.57,12.7-3.57,14.25,0,1.27.87,2.26,2.18,2.26h0ZM381.33,703.97c-3.85,0-5.44-2.1-6.15-3.01-1.43.79-2.3,1.43-3.65,2.42-.32-.08-.6-.12-.75-.12-.04,0-.48,0-.91.12,1.31-4.52,1.59-5.95,5.16-22.18.91-4.17,1.03-5.83,1.19-7.22,1.27.16,2.02.24,3.29.24s2.06-.08,3.34-.24c-.44,1.39-.71,2.38-1.07,3.77-.32,1.23-1.51,6.71-1.75,7.82,1.55-1.55,3.57-2.34,5.68-2.34,4.6,0,7.26,3.69,7.26,7.7,0,5.75-3.77,13.06-11.63,13.06v-.02ZM383.43,685.95c-2.1,0-3.29,1.91-4.01,3.93-.95,2.66-1.87,6.27-1.87,8.81,0,1.83.99,3.13,2.9,3.13,1.23,0,2.62-.55,4.01-3.69,1.43-3.25,2.1-6.75,2.1-8.49,0-2.66-1.71-3.69-3.13-3.69h0ZM412.55,702.98c-1.23.59-2.42.71-3.41.71-1.98,0-3.21-.67-4.09-2.74-.71.95-2.22,2.94-5.48,2.94-2.86,0-5.47-1.63-5.47-5.12,0-5.99,6.19-6.43,9.17-6.63,2.22-.16,3.33-.28,3.33-2.38,0-2.26-1.11-3.29-3.41-3.29-1.79,0-3.53.67-5,1.71.04-.44.08-.87.08-1.31,0-.48,0-.91-.08-1.39,2.18-1.23,4.64-2.1,7.54-2.1s6.71.79,6.71,5.56c0,1.98-.59,4.05-1.11,6.11-.52,1.98-1.07,4.37-1.07,5.32,0,.83.36,1.43,1.27,1.43.44,0,.87-.08,1.27-.2l-.24,1.39h-.01ZM399.89,698.46c0,1.27.63,2.34,2.02,2.34s2.14-.87,2.54-2.1c.32-.95.99-3.69,1.27-4.88-1.55.04-5.83.2-5.83,4.64ZM431.55,700.36c-.59.87-1.03,1.63-1.55,2.7-1.51.59-3.13.83-4.76.83-5.75,0-10.08-3.69-10.08-9.25,0-4.37,3.06-11.15,11.63-11.15,3.05,0,5.55,1.07,7.06,2.22-.99,1.98-1.39,3.53-1.67,4.44l-1.27-.16c.16-2.38-.79-4.21-3.45-4.21-4.01,0-5.72,5.48-5.72,9.37,0,3.33,1.47,6.03,5.12,6.03,1.15,0,2.54-.28,4.01-1.51l.67.67v.02ZM452.66,700.36c-.12.24-.71,1.15-1.27,2.34-.95.36-3.13,1.23-6.67,1.23-6.11,0-9.84-3.53-9.84-9.09s4.21-11.43,11.31-11.43c4.76,0,7.82,2.46,7.82,7.42,0,1.23-.16,2.3-.48,3.49-.87-.12-2.22-.32-5.08-.32h-7.06c-.04.36-.08.91-.08,1.27,0,2.38,1.27,5.99,5.6,5.99,2.78,0,4.37-1.11,5.2-1.75l.56.83v.02ZM447.74,691.95c.28-.91.76-2.58.76-4.33s-1.15-2.42-2.1-2.42c-2.9,0-4.44,3.81-4.84,6.75h6.19-.01ZM465,674.21c1.23,0,2.1-.08,3.37-.24-1.31,4.96-4.88,20.95-6.39,29.41-.67-.08-1.87-.24-3.21-.24s-2.54.16-3.25.24c.87-2.86,1.63-5.71,2.26-8.61,2.66-12.14,2.94-13.49,4.05-20.79,1.03.16,1.98.24,3.18.24h0Z"/>
    <path class="st0" d="M490.07,695.48c-.99,4.6-1.19,6.39-1.39,7.9-1.23-.16-2.5-.2-3.77-.2-1.19,0-2.38.08-3.57.2,1.98-6.98,4.88-20.28,5.32-24.29-.55-.04-1.15-.04-1.79-.04-1.98,0-4.17.16-5.55.36.44-1.27.63-2.22.71-3.49,3.61.16,7.66.2,10.83.2,3.33,0,8.22-.12,10.83-.2-.4,1.07-.67,2.3-.79,3.49-1.59-.28-3.25-.36-4.52-.36-.71,0-1.63,0-2.5.04-.71,2.18-1.51,5.71-3.81,16.39h0ZM506.22,700.32c2.14,0,3.53-1.98,4.21-3.81,1.51-4.05,2.38-9.4,2.86-12.7,1.23.16,2.42.24,3.49.24,1.19,0,2.34-.12,3.01-.24-1.11,4.01-3.25,12.86-4.17,19.56-.83-.12-1.71-.24-2.94-.24-1.03,0-2.34.12-3.41.24.32-1.03.6-2.06.83-3.09-.87,1.07-2.9,3.53-7.06,3.53-3.21,0-5.24-1.71-5.24-4.52,0-1.98.87-5,1.27-6.83.63-3.02,1.19-5.67,1.59-8.65,1.15.16,2.7.24,3.89.24,1.27,0,2.1-.12,3.06-.24-2.46,8.69-3.57,12.7-3.57,14.25,0,1.27.87,2.26,2.18,2.26h0ZM535.73,689.57c-.44-.24-.91-.48-1.91-.48-2.58,0-3.97,1.79-4.64,4.05-.67,2.22-1.67,7.78-1.98,10.24-1.13-.16-2.27-.24-3.41-.24-.99,0-2.1.12-3.13.24.99-3.73,3.57-14.17,4.09-19.56,1.19.12,2.14.24,3.37.24,1.31,0,2.38-.12,3.06-.24-.52,1.63-.76,2.7-1.15,4.52.71-1.27,2.62-4.88,6.31-4.88.36,0,.63.04.83.08-.67,2.1-.95,3.61-1.03,5.79l-.4.24h-.01Z"/>
    <path class="st19" d="M1983.28,687.55h-1.58c-.4,0-.74.3-.74.71v8.34c0,3.19-1.59,4.84-3.81,4.84-1.22,0-1.92-.67-1.92-2.15v-11.03c0-.4-.37-.71-.78-.71h-1.55c-.4,0-.77.3-.77.71v11.5c0,2.76,1.62,4.24,4.08,4.24,2.73,0,3.95-1.38,4.89-2.39l.4,1.58c.1.4.37.64.74.64h1.04c.4,0,.74-.34.74-.74v-14.83c0-.4-.34-.71-.74-.71h0ZM1968.78,701.44c-.1-.37-.37-.67-.88-.5-.67.17-1.45.27-2.33.27-2.53,0-3.78-1.82-3.78-5.67,0-3.54,1.42-5.56,3.54-5.56.91,0,1.65.23,2.16.44.54.2.77-.1.91-.44l.4-1.18c.1-.37-.07-.71-.54-.91-.67-.3-1.79-.57-2.93-.57-4.05,0-6.77,3.43-6.77,8.22,0,5.56,2.66,8.46,6.7,8.46,1.21,0,2.26-.13,3.24-.44.47-.17.61-.5.54-.87l-.27-1.25h.01ZM1953.67,699.55c-1.25,0-2.22.98-2.22,2.22s.98,2.23,2.22,2.23,2.23-.98,2.23-2.23-.98-2.22-2.23-2.22ZM1947.38,699.35v-5.87c0-2.73-.44-6.17-5.8-6.17-1.45,0-3.1.37-4.08.64-.4.1-.57.44-.47.87l.27,1.25c.1.44.44.67.88.54.91-.23,1.92-.57,3.24-.57,2.4,0,2.94.91,2.94,2.87v.81l-3.71.23c-2.73.2-5.05,1.62-5.05,5.22,0,3.03,1.65,4.82,4.35,4.82,1.86,0,3.61-.67,4.65-2.32l.24,1.48c.07.47.37.67.77.67h1.55c.44,0,.67-.3.6-.74l-.2-.98c-.2-1.01-.17-1.92-.17-2.76h-.01ZM1944.35,698.44c0,1.25-1.38,3.1-3.54,3.1-1.25,0-2.13-.74-2.13-2.36,0-2.53,1.48-3.14,3.54-3.2l2.13-.07v2.53h0ZM1928.63,694.22c-1.45-.81-2.77-1.48-2.77-2.63,0-1.08.77-1.82,2.19-1.82,1.01,0,2.09.37,2.76.61.37.17.71.03.88-.4l.37-.98c.17-.44-.04-.77-.4-.94-1.01-.47-1.98-.74-3.64-.74-3.24,0-5.19,1.85-5.19,4.48,0,2.36,1.85,3.51,3.64,4.52,1.65.88,3.21,1.65,3.21,3.07,0,1.22-.74,1.96-2.3,1.96-1.32,0-2.63-.4-3.74-.91-.4-.2-.77,0-.91.47l-.37,1.21c-.13.4,0,.74.4.94,1.28.61,3.1.94,4.62.94,3.47,0,5.39-2.05,5.39-4.68,0-2.76-2.22-4.01-4.14-5.09h0ZM1919.36,701.44c-.1-.37-.37-.67-.88-.5-.67.17-1.45.27-2.33.27-2.53,0-3.78-1.82-3.78-5.67,0-3.54,1.42-5.56,3.54-5.56.91,0,1.65.23,2.16.44.54.2.77-.1.91-.44l.4-1.18c.1-.37-.07-.71-.54-.91-.67-.3-1.79-.57-2.93-.57-4.05,0-6.77,3.43-6.77,8.22,0,5.56,2.66,8.46,6.7,8.46,1.21,0,2.26-.13,3.24-.44.47-.17.61-.5.54-.87l-.27-1.25h.01ZM1900.06,687.32c-3.71,0-6.2,3.2-6.2,8.29,0,5.53,2.59,8.39,7.21,8.39,1.96,0,3.1-.3,4.18-.77.37-.17.57-.51.44-.91l-.37-1.08c-.13-.37-.4-.64-.91-.47-.98.27-1.89.57-3.17.57-3.04,0-4.05-1.76-4.18-4.89h8.4c.4,0,.74-.34.74-.74,0-6.2-2.69-8.39-6.13-8.39h0ZM1897.06,694.13c.34-3.51,1.86-4.35,3.1-4.35,2.09,0,2.83,2.19,2.9,4.35h-6ZM1891.15,701.27c-.3.07-.74.13-1.05.13-.77,0-1.15-.4-1.15-1.31v-10.15h1.92c.4,0,.74-.34.74-.74v-.91c0-.4-.34-.74-.74-.74h-1.92v-4.25c0-.57-.44-.67-.94-.5l-1.52.44c-.37.1-.57.47-.57.88v3.44h-1.82c-.44,0-.71.34-.71.74v.91c0,.4.27.74.71.74h1.82v10.66c0,2.25,1.08,3.4,3.5,3.4.81,0,1.62-.1,2.19-.27.44-.13.54-.47.5-.88l-.17-1.04c-.07-.4-.44-.6-.81-.54h.02ZM1875.35,687.32c-3.71,0-6.2,3.2-6.2,8.29,0,5.53,2.59,8.39,7.21,8.39,1.96,0,3.1-.3,4.18-.77.37-.17.57-.51.44-.91l-.37-1.08c-.13-.37-.4-.64-.91-.47-.98.27-1.89.57-3.17.57-3.04,0-4.05-1.76-4.18-4.89h8.39c.4,0,.74-.34.74-.74,0-6.2-2.69-8.39-6.13-8.39h0ZM1872.35,694.13c.34-3.51,1.86-4.35,3.1-4.35,2.09,0,2.83,2.19,2.9,4.35h-6ZM1864.24,699.55c-1.25,0-2.22.98-2.22,2.22s.98,2.23,2.22,2.23,2.22-.98,2.22-2.23-.98-2.22-2.22-2.22ZM1859.63,687.55h-1.72c-.44,0-.74.23-.84.67l-1.92,10.36c-.2,1.04-.34,2.59-.47,3.63-.1-1.08-.3-2.59-.54-3.63l-2.33-10.33c-.09-.42-.46-.71-.88-.71h-2.29c-.4,0-.74.23-.84.67l-2.4,10.36c-.23,1.04-.37,2.59-.54,3.63-.07-1.08-.17-2.56-.4-3.66l-1.99-10.29c-.1-.5-.37-.71-.84-.71h-1.89c-.4,0-.71.3-.57.87l3.44,14.74c.13.5.37.67.81.67h2.73c.44,0,.78-.24.88-.67l2.26-10.06c.2-1.01.34-2.25.47-3.53.13,1.24.2,2.52.44,3.53l2.22,10.06c.1.5.37.67.78.67h2.76c.47,0,.74-.24.84-.67l3.37-14.77c.13-.54-.17-.84-.54-.84h0ZM1836.08,687.55h-1.72c-.44,0-.74.23-.84.67l-1.92,10.36c-.2,1.04-.34,2.59-.47,3.63-.1-1.08-.3-2.59-.54-3.63l-2.32-10.33c-.09-.42-.46-.71-.88-.71h-2.29c-.4,0-.74.23-.84.67l-2.39,10.36c-.24,1.04-.37,2.59-.54,3.63-.07-1.08-.17-2.56-.4-3.66l-1.99-10.29c-.1-.5-.37-.71-.84-.71h-1.89c-.4,0-.71.3-.57.87l3.44,14.74c.13.5.37.67.81.67h2.73c.44,0,.77-.24.88-.67l2.26-10.06c.2-1.01.34-2.25.47-3.53.13,1.24.2,2.52.44,3.53l2.23,10.06c.1.5.37.67.77.67h2.76c.47,0,.74-.24.84-.67l3.37-14.77c.13-.54-.17-.84-.54-.84h-.02ZM1812.52,687.55h-1.72c-.44,0-.74.23-.84.67l-1.92,10.36c-.2,1.04-.34,2.59-.47,3.63-.1-1.08-.3-2.59-.54-3.63l-2.32-10.33c-.09-.42-.46-.71-.88-.71h-2.29c-.4,0-.74.23-.84.67l-2.39,10.36c-.24,1.04-.37,2.59-.54,3.63-.07-1.08-.17-2.56-.4-3.66l-1.99-10.29c-.1-.5-.37-.71-.84-.71h-1.89c-.4,0-.71.3-.57.87l3.44,14.74c.13.5.37.67.81.67h2.73c.44,0,.77-.24.88-.67l2.26-10.06c.2-1.01.34-2.25.47-3.53.13,1.24.2,2.52.44,3.53l2.23,10.06c.1.5.37.67.77.67h2.77c.47,0,.74-.24.84-.67l3.37-14.77c.13-.54-.17-.84-.54-.84h-.03ZM1608.67,702.15l18.37-17.99-11.59.03-12.67,12.43c1.66,2.56,3.72,4.22,5.88,5.53M1601.81,694.93c-4.45-9.49.29-16.69,3.01-19.39,1.64-1.52,9.22-8.56,20.32-3.49l-23.33,22.88ZM1634.06,692.92h-12.78l-10.46,10.28c11.91,4.34,20.71-3.32,23.23-10.28M1640.3,692.22c.6-3.19.96-5.39,1.25-7.9,1.71.03,3.44.14,5.16.14,2.85,0,5.31-.06,6.11-.14-.12.34-.25.69-.34,1.2-.11.6-.1.85-.12,1.28-2.19-.14-5.64-.34-6.52-.34-.54,2.08-.92,4.13-1.32,6.22,2.54-.06,4.42-.11,6.65-.23-.24.66-.32.91-.39,1.28-.06.31-.05.57-.07,1.17-2.18-.17-4.35-.26-6.56-.26-.23,1.2-.49,2.42-.72,3.65-.23,1.2-.43,2.42-.58,3.56,2.18,0,4.45-.12,6.74-.37-.13.4-.24.68-.36,1.28-.11.6-.11.88-.11,1.23-1.04-.03-2.39-.14-5.07-.14-4.75,0-5.55.08-6.2.14.65-2.51,1.12-4.7,1.72-7.9l.73-3.88h0ZM1657.95,688.97c.2-1.08.4-2.11.39-2.51-1.14,0-3.61.17-5.4.37.17-.43.3-.83.38-1.25.08-.43.1-.83.09-1.25,2.63.09,3.93.14,7.55.14s4.93-.06,7.42-.14c-.17.43-.3.83-.38,1.25-.08.43-.1.83-.09,1.25-1.53-.2-3.95-.37-5.11-.37-.13.4-.33,1.43-.53,2.51l-1.34,7.13c-.6,3.19-.96,5.39-1.25,7.9-.63-.06-1.4-.14-2.36-.14s-1.76.09-2.41.14c.65-2.51,1.12-4.71,1.72-7.9l1.34-7.13h-.02ZM1668.62,692.22c.6-3.19.96-5.39,1.25-7.9,1.71.03,3.44.14,5.16.14,2.85,0,5.31-.06,6.11-.14-.12.34-.25.69-.34,1.2-.11.6-.1.85-.12,1.28-2.19-.14-5.64-.34-6.52-.34-.54,2.08-.92,4.13-1.32,6.22,2.54-.06,4.42-.11,6.65-.23-.24.66-.32.91-.39,1.28-.06.31-.05.57-.07,1.17-2.18-.17-4.35-.26-6.56-.26-.23,1.2-.49,2.42-.72,3.65-.23,1.2-.43,2.42-.58,3.56,2.18,0,4.45-.12,6.74-.37-.13.4-.24.68-.36,1.28-.11.6-.11.88-.11,1.23-1.04-.03-2.39-.14-5.07-.14-4.75,0-5.55.08-6.2.14.65-2.51,1.12-4.7,1.72-7.9l.73-3.88h0ZM1696.39,700.69c-.47.8-.86,1.63-1.1,2.42-1.69.8-3.79,1.26-6.18,1.26-6.76,0-9.97-4.14-8.95-9.52,1.48-7.87,7.5-10.89,13.61-10.89,2.04,0,4.49.6,5.68,1.4-.56.94-.95,1.94-1.22,2.91h-.41c-1.12-1.77-2.46-2.54-4.53-2.54-3.12,0-7.14,2.65-8.28,8.7-1.1,5.87,2.01,8.18,5.36,8.18,1.86,0,4.18-.85,5.67-2.14l.34.23h.01ZM1709.79,688.18c-.31-1.63-1.29-2.45-3.06-2.45s-3.25,1.2-3.51,2.57c-.79,4.22,8.26,3.17,7.04,9.64-.72,3.82-4.3,6.44-8.93,6.44-2.1,0-3.73-.6-4.46-1.22.63-1.31,1.08-2.34,1.53-3.62h.55c0,1.65,1.08,3.08,3.44,3.08s3.65-1.31,3.95-2.91c.81-4.31-8.08-3.17-6.86-9.64.74-3.93,4.24-6.1,7.7-6.1,2.1,0,3.57.54,4.51,1.4-.52.88-.85,1.57-1.46,2.82h-.44ZM1727.99,704c-.92-.06-1.72-.14-2.53-.14s-1.68.09-2.5.14c-.25-1.94-.55-3.91-.91-5.84-1.25-.03-2.46-.06-3.72-.06-1.02,0-2.01.03-3.04.06-1.12,1.9-2.15,3.84-3.08,5.84-.46-.06-.88-.14-1.34-.14s-.92.09-1.48.14c2.02-3.17,8.3-13.31,12.03-19.82.37.06.7.14,1.08.14s.75-.09,1.13-.14c1.25,6.5,3.03,15.17,4.36,19.82M1721.69,696.47c-.41-2.31-.8-4.56-1.31-6.79-1.41,2.22-2.74,4.48-4.02,6.79h5.33Z"/>
  </g>
  <g id="frame1">
    <path class="st17" d="M256-384h1536v1536H256V-384Z"/>
    <path class="st17" d="M0-384h2048v1536H0V-384Z"/>
    <g class="st20">
      <path class="st16" d="M0,0h2048v768H0V0Z"/>
    </g>
    <path class="st17" d="M512-384h1024v1536H512V-384Z"/>
    <path class="st8" d="M1041.32,607.6h-80.84c-12.76,0-23.1,10.33-23.1,23.07v221.17c0,6.12,2.43,11.99,6.77,16.31l21.11,21.09c4.33,4.33,10.21,6.76,16.33,6.76h59.72"/>
    <path class="st3" d="M1041.32,896h46.19c12.76,0,23.1-10.33,23.1-23.07v-242.25c0-12.74-10.34-23.07-23.1-23.07h-46.19"/>
    <path class="st0" d="M995.14,749.41v-112.97c0-3.19,2.58-5.77,5.77-5.77h80.84c3.18,0,5.78,2.58,5.77,5.77v126.9c0,3.19-2.58,5.77-5.77,5.77h-66.89c-1.53,0-3-.61-4.08-1.69l-13.93-13.93c-1.09-1.07-1.7-2.55-1.7-4.07h0Z"/>
    <path class="st2" d="M995.14,749.41v-112.97c0-3.19,2.58-5.77,5.77-5.77h80.84c3.18,0,5.78,2.58,5.77,5.77v126.9c0,3.19-2.58,5.77-5.77,5.77h-66.89c-1.53,0-3-.61-4.08-1.69l-13.93-13.93c-1.09-1.07-1.7-2.55-1.7-4.07h0Z"/>
    <path class="st9" d="M1041.32,619.13h-69.28c-6.38,0-11.55,5.17-11.54,11.54v122.12c0,3.05,1.22,6,3.38,8.16l27.88,27.85c2.16,2.16,5.11,3.38,8.16,3.38h41.41"/>
    <path class="st4" d="M1041.32,792.18h46.19c6.38,0,11.55-5.17,11.54-11.54v-149.96c0-6.36-5.17-11.53-11.54-11.54h-46.19"/>
    <path class="st2" d="M1087.51,687.55l-46.19,12.33M1087.51,653.84l-46.19,46.05M1059.93,630.67l-18.6,69.22M1022.71,630.67l18.61,69.21M995.13,653.85l46.2,46.04M995.13,687.55l46.2,12.34M995.13,712.23l46.2-12.34M995.13,745.94l46.2-46.05M1022.72,769.1l18.6-69.22M1059.93,769.1l-18.6-69.22M1087.51,745.93l-46.19-46.05M1087.52,712.23l-46.2-12.34"/>
    <path class="st1" d="M1058.46,704.47v-9.16s-4.59-7.93-4.59-7.93l-7.95-4.57h-9.19l-7.95,4.57-4.6,7.93v9.16s4.6,7.93,4.6,7.93l7.96,4.58h9.18l7.96-4.58,4.59-7.93Z"/>
    <path class="st8" d="M1311.6,302.68v80.84c0,12.76,10.33,23.1,23.07,23.1h221.17c6.12,0,11.99-2.43,16.31-6.77l21.09-21.11c4.33-4.33,6.76-10.21,6.76-16.33v-59.72"/>
    <path class="st3" d="M1600,302.68v-46.19c0-12.76-10.33-23.1-23.07-23.1h-242.25c-12.74,0-23.07,10.35-23.07,23.1v46.19"/>
    <path class="st0" d="M1453.41,348.86h-112.97c-3.19,0-5.77-2.58-5.77-5.77v-80.84c0-3.18,2.58-5.78,5.77-5.77h126.9c3.19,0,5.77,2.58,5.77,5.77v66.89c0,1.53-.61,3-1.69,4.08l-13.93,13.93c-1.07,1.09-2.55,1.7-4.07,1.7h0Z"/>
    <path class="st2" d="M1453.41,348.86h-112.97c-3.19,0-5.77-2.58-5.77-5.77v-80.84c0-3.18,2.58-5.78,5.77-5.77h126.9c3.19,0,5.77,2.58,5.77,5.77v66.89c0,1.53-.61,3-1.69,4.08l-13.93,13.93c-1.07,1.09-2.55,1.7-4.07,1.7h0Z"/>
    <path class="st9" d="M1323.13,302.68v69.28c0,6.38,5.17,11.55,11.54,11.54h122.12c3.05,0,6-1.22,8.16-3.38l27.85-27.88c2.16-2.16,3.38-5.11,3.38-8.16v-41.41"/>
    <path class="st4" d="M1496.18,302.68v-46.19c0-6.38-5.17-11.55-11.54-11.54h-149.96c-6.36,0-11.53,5.17-11.54,11.54v46.19"/>
    <path class="st2" d="M1391.55,256.49l12.33,46.19M1357.84,256.49l46.05,46.19M1334.67,284.07l69.22,18.6M1334.67,321.29l69.21-18.61M1357.85,348.87l46.04-46.2M1391.55,348.87l12.34-46.2M1416.23,348.87l-12.34-46.2M1449.94,348.87l-46.05-46.2M1473.1,321.28l-69.22-18.6M1473.1,284.07l-69.22,18.6M1449.93,256.49l-46.05,46.19M1416.23,256.48l-12.34,46.2"/>
    <path class="st1" d="M1408.47,285.54h-9.16s-7.93,4.59-7.93,4.59l-4.57,7.95v9.19l4.57,7.95,7.93,4.6h9.16s7.93-4.6,7.93-4.6l4.58-7.96v-9.18l-4.58-7.96-7.93-4.59Z"/>
    <path class="st8" d="M1006.68,32.4h80.84c12.76,0,23.1-10.33,23.1-23.07v-221.17c0-6.12-2.43-11.99-6.77-16.31l-21.11-21.09c-4.33-4.33-10.21-6.76-16.33-6.76h-59.72"/>
    <path class="st3" d="M1006.68-256h-46.19c-12.76,0-23.1,10.33-23.1,23.07V9.33c0,12.74,10.34,23.07,23.1,23.07h46.19"/>
    <path class="st0" d="M1052.86-109.41V3.56c0,3.19-2.58,5.77-5.77,5.77h-80.84c-3.18,0-5.78-2.58-5.77-5.77v-126.9c0-3.19,2.58-5.77,5.77-5.77h66.89c1.53,0,3,.61,4.08,1.69l13.93,13.93c1.09,1.07,1.7,2.55,1.7,4.07h0Z"/>
    <path class="st2" d="M1052.86-109.41V3.56c0,3.19-2.58,5.77-5.77,5.77h-80.84c-3.18,0-5.78-2.58-5.77-5.77v-126.9c0-3.19,2.58-5.77,5.77-5.77h66.89c1.53,0,3,.61,4.08,1.69l13.93,13.93c1.09,1.07,1.7,2.55,1.7,4.07h0Z"/>
    <path class="st9" d="M1006.68,20.87h69.28c6.38,0,11.55-5.17,11.54-11.54v-122.12c0-3.05-1.22-6-3.38-8.16l-27.88-27.85c-2.16-2.16-5.11-3.38-8.16-3.38h-41.41"/>
    <path class="st4" d="M1006.68-152.18h-46.19c-6.38,0-11.55,5.17-11.54,11.54V9.33c0,6.36,5.17,11.53,11.54,11.54h46.19"/>
    <path class="st2" d="M960.49-47.55l46.19-12.33M960.49-13.84l46.19-46.05M988.07,9.33l18.6-69.22M1025.29,9.33l-18.61-69.21M1052.87-13.85l-46.2-46.04M1052.87-47.55l-46.2-12.34M1052.87-72.23l-46.2,12.34M1052.87-105.94l-46.2,46.05M1025.28-129.1l-18.6,69.22M988.07-129.1l18.6,69.22M960.49-105.93l46.19,46.05M960.48-72.23l46.2,12.34"/>
    <path class="st1" d="M989.54-64.47v9.16s4.59,7.93,4.59,7.93l7.95,4.57h9.19l7.95-4.57,4.6-7.93v-9.16s-4.6-7.93-4.6-7.93l-7.96-4.58h-9.18l-7.96,4.58-4.59,7.93h0Z"/>
    <path class="st8" d="M736.4,337.32v-80.84c0-12.76-10.33-23.1-23.07-23.1h-221.17c-6.12,0-11.99,2.43-16.31,6.77l-21.09,21.11c-4.33,4.33-6.76,10.21-6.76,16.33v59.72"/>
    <path class="st3" d="M448,337.32v46.19c0,12.76,10.33,23.1,23.07,23.1h242.25c12.74,0,23.07-10.34,23.07-23.1v-46.19"/>
    <path class="st0" d="M594.59,291.14h112.97c3.19,0,5.77,2.58,5.77,5.77v80.84c0,3.18-2.58,5.78-5.77,5.77h-126.9c-3.19,0-5.77-2.58-5.77-5.77v-66.89c0-1.53.61-3,1.69-4.08l13.93-13.93c1.07-1.09,2.55-1.7,4.07-1.7h0Z"/>
    <path class="st2" d="M594.59,291.14h112.97c3.19,0,5.77,2.58,5.77,5.77v80.84c0,3.18-2.58,5.78-5.77,5.77h-126.9c-3.19,0-5.77-2.58-5.77-5.77v-66.89c0-1.53.61-3,1.69-4.08l13.93-13.93c1.07-1.09,2.55-1.7,4.07-1.7h0Z"/>
    <path class="st9" d="M724.87,337.32v-69.28c0-6.38-5.17-11.55-11.54-11.54h-122.12c-3.05,0-6,1.22-8.16,3.38l-27.85,27.88c-2.16,2.16-3.38,5.11-3.38,8.16v41.41"/>
    <path class="st4" d="M551.82,337.32v46.19c0,6.38,5.17,11.55,11.54,11.54h149.96c6.36,0,11.53-5.17,11.54-11.54v-46.19"/>
    <path class="st2" d="M656.45,383.51l-12.33-46.19M690.16,383.51l-46.05-46.19M713.33,355.93l-69.22-18.6M713.33,318.71l-69.21,18.61M690.15,291.13l-46.04,46.2M656.45,291.13l-12.34,46.2M631.77,291.13l12.34,46.2M598.06,291.13l46.05,46.2M574.9,318.72l69.22,18.6M574.9,355.93l69.22-18.6M598.07,383.51l46.05-46.19M631.77,383.52l12.34-46.2"/>
    <path class="st1" d="M639.53,354.46h9.16s7.93-4.59,7.93-4.59l4.57-7.95v-9.19l-4.57-7.95-7.93-4.6h-9.16s-7.93,4.6-7.93,4.6l-4.58,7.96v9.18l4.58,7.96,7.93,4.59h0Z"/>
    <path class="st6" d="M618.07,728.66l-15.38-15.38c-2.98-2.98-4.1-7.13-2.79-10.29l11.62-28.18c.31-.77.78-1.46,1.36-2.05l173.21-173.21c2.96-2.96,8.41-2.33,12.16,1.42l23.76,23.76M618.07,728.66l13.58,13.58c3.75,3.75,9.19,4.38,12.16,1.42l193.19-193.19c2.96-2.96,2.33-8.41-1.42-12.16l-13.58-13.58"/>
    <path class="st18" d="M706.68,612.9l84.08-84.08c.75-.75,2.13-.59,3.08.36l24.4,24.4c.57.57.66,1.4.21,1.85l-96.25,96.25c-.45.45-1.28.36-1.85-.21l-19.78-19.78c-.74-.74-1.03-1.77-.7-2.57l6.48-15.71c.08-.19.2-.37.34-.51h0Z"/>
    <path class="st11" d="M817.87,553.22l-97.88,97.88"/>
    <path class="st10" d="M813.88,549.23l-97.88,97.88"/>
    <path class="st14" d="M809.88,545.23l-97.88,97.88"/>
    <path class="st7" d="M805.89,541.24l-97.88,97.88"/>
    <path class="st5" d="M706.46,613.12l84.29-84.29c.75-.75,2.13-.59,3.08.36l23.72,23.72c.95.95,1.11,2.33.36,3.08l-95.17,95.17c-.75.75-2.13.59-3.08-.36l-19.1-19.1c-.74-.74-1.03-1.77-.7-2.57l6.6-16h0Z"/>
    <path class="st7" d="M813.84,532.89l-20.32-20.32c-1.9-1.9-4.65-2.22-6.16-.71l-94.73,94.73c-.29.29-.52.63-.68,1.02l-12.95,31.42c-.65,1.58-.08,3.65,1.4,5.13l11.09,11.09M691.48,655.25l13.53,13.53c1.9,1.9,4.66,2.23,6.17.72l116.91-116.91c1.5-1.5,1.18-4.26-.71-6.16l-13.53-13.53"/>
    <path class="st8" d="M621.8,732.38l-15.38-15.38c-2.98-2.98-4.1-7.13-2.79-10.29l11.62-28.18c.31-.77.78-1.46,1.36-2.05l173.21-173.21c2.96-2.96,8.41-2.33,12.16,1.42l23.76,23.76"/>
    <path class="st3" d="M621.8,732.38l13.58,13.58c3.75,3.75,9.19,4.38,12.16,1.42l193.19-193.19c2.96-2.96,2.33-8.41-1.42-12.16l-13.58-13.58"/>
    <path class="st0" d="M710.41,616.62l84.08-84.08c.75-.75,2.13-.59,3.08.36l24.4,24.4c.57.57.66,1.4.21,1.85l-96.25,96.25c-.45.45-1.28.36-1.85-.21l-19.78-19.78c-.74-.74-1.03-1.77-.7-2.57l6.48-15.71c.08-.19.2-.37.34-.51h0Z"/>
    <path class="st12" d="M821.6,556.96l-97.88,97.88"/>
    <path class="st13" d="M817.6,552.96l-97.88,97.88"/>
    <path class="st15" d="M813.61,548.96l-97.88,97.88"/>
    <path class="st9" d="M809.61,544.97l-97.88,97.88"/>
    <path class="st2" d="M710.19,616.84l84.29-84.29c.75-.75,2.13-.59,3.08.36l23.72,23.72c.95.95,1.11,2.33.36,3.08l-95.17,95.17c-.75.75-2.13.59-3.08-.36l-19.1-19.1c-.74-.74-1.03-1.77-.7-2.57l6.6-16h0Z"/>
    <path class="st9" d="M817.57,536.62l-20.32-20.32c-1.9-1.9-4.65-2.22-6.16-.71l-94.73,94.73c-.29.29-.52.63-.68,1.02l-12.95,31.42c-.65,1.58-.08,3.65,1.4,5.13l11.09,11.09"/>
    <path class="st4" d="M695.21,658.97l13.53,13.53c1.9,1.9,4.66,2.23,6.17.72l116.91-116.91c1.5-1.5,1.18-4.26-.71-6.16l-13.53-13.53"/>
    <path class="st6" d="M1432.66,725.93l-15.38,15.38c-2.98,2.98-7.13,4.1-10.29,2.79l-28.18-11.62c-.77-.31-1.46-.78-2.05-1.36l-173.21-173.21c-2.96-2.96-2.33-8.41,1.42-12.16l23.76-23.76M1432.66,725.93l13.58-13.58c3.75-3.75,4.38-9.19,1.42-12.16l-193.19-193.19c-2.96-2.96-8.41-2.33-12.16,1.42l-13.58,13.58"/>
    <path class="st18" d="M1316.9,637.32l-84.08-84.08c-.75-.75-.59-2.13.36-3.08l24.4-24.4c.57-.57,1.4-.66,1.85-.21l96.25,96.25c.45.45.36,1.28-.21,1.85l-19.78,19.78c-.74.74-1.77,1.03-2.57.7l-15.71-6.48c-.19-.08-.37-.2-.51-.34h0Z"/>
    <path class="st11" d="M1257.23,526.13l97.88,97.88"/>
    <path class="st10" d="M1253.23,530.12l97.88,97.88"/>
    <path class="st14" d="M1249.23,534.12l97.88,97.88"/>
    <path class="st7" d="M1245.24,538.11l97.88,97.88"/>
    <path class="st5" d="M1317.12,637.54l-84.29-84.29c-.75-.75-.59-2.13.36-3.08l23.72-23.72c.95-.95,2.33-1.11,3.08-.36l95.17,95.17c.75.75.59,2.13-.36,3.08l-19.1,19.1c-.74.74-1.77,1.03-2.57.7l-16-6.6h0Z"/>
    <path class="st7" d="M1236.89,530.16l-20.32,20.32c-1.9,1.9-2.22,4.65-.71,6.16l94.73,94.73c.29.29.63.52,1.02.68l31.42,12.95c1.58.65,3.65.08,5.13-1.4l11.09-11.09M1359.25,652.52l13.53-13.53c1.9-1.9,2.23-4.66.72-6.17l-116.91-116.91c-1.5-1.5-4.26-1.18-6.16.71l-13.53,13.53"/>
    <path class="st8" d="M1436.38,722.2l-15.38,15.38c-2.98,2.98-7.13,4.1-10.29,2.79l-28.18-11.62c-.77-.31-1.46-.78-2.05-1.36l-173.21-173.21c-2.96-2.96-2.33-8.41,1.42-12.16l23.76-23.76"/>
    <path class="st3" d="M1436.38,722.2l13.58-13.58c3.75-3.75,4.38-9.19,1.42-12.16l-193.19-193.19c-2.96-2.96-8.41-2.33-12.16,1.42l-13.58,13.58"/>
    <path class="st0" d="M1320.62,633.59l-84.08-84.08c-.75-.75-.59-2.13.36-3.08l24.4-24.4c.57-.57,1.4-.66,1.85-.21l96.25,96.25c.45.45.36,1.28-.21,1.85l-19.78,19.78c-.74.74-1.77,1.03-2.57.7l-15.71-6.48c-.19-.08-.37-.2-.51-.34h0Z"/>
    <path class="st12" d="M1260.96,522.4l97.88,97.88"/>
    <path class="st13" d="M1256.96,526.4l97.88,97.88"/>
    <path class="st15" d="M1252.96,530.39l97.88,97.88"/>
    <path class="st9" d="M1248.97,534.39l97.88,97.88"/>
    <path class="st2" d="M1320.84,633.81l-84.29-84.29c-.75-.75-.59-2.13.36-3.08l23.72-23.72c.95-.95,2.33-1.11,3.08-.36l95.17,95.17c.75.75.59,2.13-.36,3.08l-19.1,19.1c-.74.74-1.77,1.03-2.57.7l-16-6.6h0Z"/>
    <path class="st9" d="M1240.62,526.43l-20.32,20.32c-1.9,1.9-2.22,4.65-.71,6.16l94.73,94.73c.29.29.63.52,1.02.68l31.42,12.95c1.58.65,3.65.08,5.13-1.4l11.09-11.09"/>
    <path class="st4" d="M1362.97,648.79l13.53-13.53c1.9-1.9,2.23-4.66.72-6.17l-116.91-116.91c-1.5-1.5-4.26-1.18-6.16.71l-13.53,13.53"/>
    <path class="st6" d="M1429.93-88.66l15.38,15.38c2.98,2.98,4.1,7.13,2.79,10.29l-11.62,28.18c-.33.78-.78,1.47-1.36,2.05l-173.21,173.21c-2.96,2.96-8.41,2.33-12.16-1.42l-23.76-23.76M1429.93-88.66l-13.58-13.58c-3.75-3.75-9.19-4.38-12.16-1.42l-193.19,193.19c-2.96,2.96-2.33,8.41,1.42,12.16l13.58,13.58"/>
    <path class="st18" d="M1341.32,27.1l-84.08,84.08c-.75.75-2.13.59-3.08-.36l-24.4-24.4c-.57-.57-.66-1.4-.21-1.85l96.25-96.25c.45-.45,1.28-.36,1.85.21l19.78,19.78c.74.74,1.03,1.77.7,2.57l-6.48,15.71c-.08.19-.2.37-.34.51h0Z"/>
    <path class="st11" d="M1230.13,86.77l97.88-97.88"/>
    <path class="st10" d="M1234.12,90.77l97.88-97.88"/>
    <path class="st14" d="M1238.12,94.77L1336-3.12"/>
    <path class="st7" d="M1242.11,98.76L1340,.88"/>
    <path class="st5" d="M1341.54,26.88l-84.29,84.29c-.75.75-2.13.59-3.08-.36l-23.72-23.72c-.95-.95-1.11-2.33-.36-3.08l95.17-95.17c.75-.75,2.13-.59,3.08.36l19.1,19.1c.74.74,1.03,1.77.7,2.57l-6.6,16h0Z"/>
    <path class="st7" d="M1234.16,107.11l20.32,20.32c1.9,1.9,4.65,2.22,6.16.71l94.73-94.73c.29-.29.52-.63.68-1.02l12.95-31.42c.65-1.58.08-3.65-1.4-5.13l-11.09-11.09M1356.52-15.25l-13.53-13.53c-1.9-1.9-4.66-2.23-6.17-.72l-116.91,116.91c-1.5,1.5-1.18,4.26.71,6.16l13.53,13.53"/>
    <path class="st8" d="M1426.2-92.38l15.38,15.38c2.98,2.98,4.1,7.13,2.79,10.29l-11.62,28.18c-.33.78-.78,1.47-1.36,2.05l-173.21,173.21c-2.96,2.96-8.41,2.33-12.16-1.42l-23.76-23.76"/>
    <path class="st3" d="M1426.2-92.38l-13.58-13.58c-3.75-3.75-9.19-4.38-12.16-1.42l-193.19,193.19c-2.96,2.96-2.33,8.41,1.42,12.16l13.58,13.58"/>
    <path class="st0" d="M1337.59,23.38l-84.08,84.08c-.75.75-2.13.59-3.08-.36l-24.4-24.4c-.57-.57-.66-1.4-.21-1.85l96.25-96.25c.45-.45,1.28-.36,1.85.21l19.78,19.78c.74.74,1.03,1.77.7,2.57l-6.48,15.71c-.08.19-.2.37-.34.51h0Z"/>
    <path class="st12" d="M1226.4,83.04l97.88-97.88"/>
    <path class="st13" d="M1230.4,87.04l97.88-97.88"/>
    <path class="st15" d="M1234.39,91.04l97.88-97.88"/>
    <path class="st9" d="M1238.39,95.03L1336.27-2.85"/>
    <path class="st2" d="M1337.81,23.16l-84.29,84.29c-.75.75-2.13.59-3.08-.36l-23.72-23.72c-.95-.95-1.11-2.33-.36-3.08l95.17-95.17c.75-.75,2.13-.59,3.08.36l19.1,19.1c.74.74,1.03,1.77.7,2.57l-6.6,16h0Z"/>
    <path class="st9" d="M1230.43,103.38l20.32,20.32c1.9,1.9,4.65,2.22,6.16.71l94.73-94.73c.29-.29.52-.63.68-1.02l12.95-31.42c.65-1.58.08-3.65-1.4-5.13l-11.09-11.09"/>
    <path class="st4" d="M1352.79-18.97l-13.53-13.53c-1.9-1.9-4.66-2.23-6.17-.72l-116.91,116.91c-1.5,1.5-1.18,4.26.71,6.16l13.53,13.53"/>
    <path class="st6" d="M615.34-85.93l15.38-15.38c2.98-2.98,7.13-4.1,10.29-2.79l28.18,11.62c.78.33,1.47.78,2.05,1.36l173.21,173.21c2.96,2.96,2.33,8.41-1.42,12.16l-23.76,23.76M615.34-85.93l-13.58,13.58c-3.75,3.75-4.38,9.19-1.42,12.16l193.19,193.19c2.96,2.96,8.41,2.33,12.16-1.42l13.58-13.58"/>
    <path class="st18" d="M731.1,2.68l84.07,84.07c.75.75.59,2.13-.36,3.08l-24.4,24.4c-.57.57-1.4.66-1.85.21l-96.25-96.25c-.45-.45-.36-1.28.21-1.85l19.78-19.78c.74-.74,1.77-1.03,2.57-.7l15.71,6.48c.19.08.37.2.51.34h0Z"/>
    <path class="st11" d="M790.77,113.87l-97.88-97.88"/>
    <path class="st10" d="M794.77,109.88l-97.88-97.88"/>
    <path class="st14" d="M798.77,105.88L700.88,8"/>
    <path class="st7" d="M802.76,101.89L704.88,4"/>
    <path class="st5" d="M730.88,2.46l84.29,84.29c.75.75.59,2.13-.36,3.08l-23.72,23.72c-.95.95-2.33,1.11-3.08.36l-95.17-95.17c-.75-.75-.59-2.13.36-3.08l19.1-19.1c.74-.74,1.77-1.03,2.57-.7l16,6.6h0Z"/>
    <path class="st7" d="M811.11,109.84l20.32-20.32c1.9-1.9,2.22-4.65.71-6.16l-94.73-94.73c-.29-.29-.63-.52-1.02-.68l-31.42-12.95c-1.58-.65-3.65-.08-5.13,1.4l-11.09,11.09M688.75-12.52l-13.53,13.53c-1.9,1.9-2.23,4.66-.72,6.17l116.91,116.91c1.5,1.5,4.26,1.18,6.16-.71l13.53-13.53"/>
    <path class="st8" d="M611.62-82.2l15.38-15.38c2.98-2.98,7.13-4.1,10.29-2.79l28.18,11.62c.78.33,1.47.78,2.05,1.36l173.21,173.21c2.96,2.96,2.33,8.41-1.42,12.16l-23.76,23.76"/>
    <path class="st3" d="M611.62-82.2l-13.58,13.58c-3.75,3.75-4.38,9.19-1.42,12.16l193.19,193.19c2.96,2.96,8.41,2.33,12.16-1.42l13.58-13.58"/>
    <path class="st0" d="M727.38,6.41l84.07,84.07c.75.75.59,2.13-.36,3.08l-24.4,24.4c-.57.57-1.4.66-1.85.21l-96.25-96.25c-.45-.45-.36-1.28.21-1.85L708.58.28c.74-.74,1.77-1.03,2.57-.7l15.71,6.48c.19.08.37.2.51.34h0Z"/>
    <path class="st12" d="M787.04,117.6l-97.88-97.88"/>
    <path class="st13" d="M791.04,113.6l-97.88-97.88"/>
    <path class="st15" d="M795.04,109.61l-97.88-97.88"/>
    <path class="st9" d="M799.03,105.61L701.15,7.73"/>
    <path class="st2" d="M727.16,6.19l84.29,84.29c.75.75.59,2.13-.36,3.08l-23.72,23.72c-.95.95-2.33,1.11-3.08.36l-95.17-95.17c-.75-.75-.59-2.13.36-3.08L708.58.28c.74-.74,1.77-1.03,2.57-.7l16,6.6h0Z"/>
    <path class="st9" d="M807.38,113.57l20.32-20.32c1.9-1.9,2.22-4.65.71-6.16L733.69-7.65c-.29-.29-.63-.52-1.02-.68l-31.42-12.95c-1.58-.65-3.65-.08-5.13,1.4l-11.09,11.09"/>
    <path class="st4" d="M685.03-8.79l-13.53,13.53c-1.9,1.9-2.23,4.66-.72,6.17l116.91,116.91c1.5,1.5,4.26,1.18,6.16-.71l13.53-13.53"/>
    <path class="st0" d="M1182.65,478.72c-21.35,21.35-46.36,37.93-74.32,49.27-26.91,10.91-55.27,16.44-84.33,16.45-29.05,0-57.42-5.54-84.32-16.44-27.95-11.33-52.96-27.92-74.32-49.27s-37.93-46.36-49.27-74.32c-10.91-26.91-16.44-55.27-16.45-84.33,0-29.05,5.54-57.42,16.45-84.33,11.33-27.95,27.92-52.96,49.27-74.32,21.35-21.35,46.36-37.93,74.32-49.27,26.91-10.91,55.27-16.44,84.32-16.44s57.42,5.54,84.33,16.45c27.95,11.33,52.96,27.92,74.32,49.27,21.35,21.35,37.93,46.36,49.27,74.32,10.91,26.91,16.44,55.27,16.44,84.32,0,29.05-5.54,57.42-16.44,84.32-11.33,27.95-27.92,52.96-49.27,74.32h0Z"/>
    <path class="st16" d="M1137.31,433.38c-62.48,62.48-164.15,62.48-226.63,0s-62.48-164.15,0-226.63c62.48-62.48,164.15-62.48,226.63,0,62.48,62.48,62.48,164.15,0,226.63h0Z"/>
    <path class="st0" d="M1114.65,410.72c-49.99,49.99-131.32,49.99-181.3,0-49.99-49.99-49.99-131.32,0-181.3s131.32-49.99,181.3,0,49.99,131.32,0,181.3Z"/>
    <path class="st16" d="M1069.33,365.4c-25,25-65.66,24.99-90.65,0s-24.99-65.66,0-90.65c24.99-24.99,65.66-24.99,90.65,0,24.99,24.99,24.99,65.66,0,90.65h0Z"/>
    <circle class="st0" cx="1024" cy="320.07" r="32.05"/>
    <path class="st0" d="M70.09,624.74h-6.09v24.39h6.09v6.09h6.1v-6.1h-6.1v-6.09h6.1v6.09h6.09v-12.19h-6.09v-6.09h-6.1v-6.1h0ZM70.09,575.98h-6.09v42.67h18.28v-6.1h-12.19v-30.47h12.19v-6.1h-12.19ZM70.09,661.31h-6.09v42.67h18.28v-6.09h-12.19v-30.48h12.19v-6.1h-12.19Z"/>
    <path class="st0" d="M76.19,588.17h6.09v18.29h-6.09v-18.29ZM76.19,624.74h6.09v6.09h-6.09v-6.09ZM76.19,673.51h6.09v18.29h-6.09v-18.29ZM88.38,575.98h-6.1v6.1h18.29v-6.1h-12.19ZM94.47,606.46v-18.29h-12.19v18.29h12.19ZM88.38,612.55h-6.1v6.1h18.29v-6.1h-12.19ZM88.38,624.74h-6.1v12.2h6.1v6.09h-6.1v12.19h18.29v-6.1h-6.1v-6.09h6.1v-6.1h-6.1v-6.09h6.1v-6.1h-12.19ZM88.38,661.31h-6.1v6.1h18.29v-6.1h-12.19ZM94.47,691.79v-18.28h-12.19v18.28h12.19ZM88.38,697.89h-6.1v6.09h18.29v-6.09h-12.19ZM100.57,575.98h6.09v42.67h-6.09v-42.67ZM100.57,624.74h6.09v6.09h-6.09v-6.09ZM100.57,636.93h6.09v6.09h-6.09v-6.09ZM100.57,649.12v6.1h12.19v-6.1h-12.19ZM100.57,673.51v30.47h6.1v-42.67h-6.1v12.2h0ZM118.86,588.17h-6.1v36.57h6.1v-18.28h6.09v-6.1h-6.09v-12.19ZM112.76,636.93h6.09v6.09h-6.09v-6.09ZM112.76,697.89h6.09v6.09h-6.09v-6.09ZM118.86,630.84v6.09h12.19v-6.09h-12.19ZM118.86,643.03v6.09h6.09v6.1h-12.19v6.09h6.1v6.1h-6.1v6.09h18.29v-6.09h-6.1v-12.19h6.1v-12.19h-12.19ZM124.95,685.7v-12.19h-12.19v18.28h6.1v-6.09h6.09Z"/>
    <path class="st0" d="M118.86,691.79v6.1h6.09v6.09h6.1v-12.19h-12.19ZM124.95,588.17h6.09v12.19h-6.09v-12.19ZM124.95,606.46h6.09v18.29h-6.09v-18.29ZM131.05,636.93h6.09v6.09h-6.09v-6.09ZM131.05,697.89h6.09v6.09h-6.09v-6.09ZM143.24,582.08v-6.1h-12.19v6.1h12.19ZM137.14,588.17h6.09v6.09h-6.09v-6.09ZM137.14,600.36h-6.09v6.1h6.09v12.19h-6.09v6.09h6.09v12.19h6.1v-36.57h-6.1ZM143.24,673.51h-6.1v12.18h-6.09v6.1h6.09v-6.09h6.1v6.09h6.09v-12.19h-6.09v-6.09h0ZM143.24,655.22h-6.1v-6.1h-6.09v12.19h6.09v6.1h-6.09v6.09h12.19v-6.09h6.09v-30.48h-6.09v18.29ZM149.33,575.98v42.67h12.19v-6.1h-6.09v-30.47h6.09v-6.1h-12.19ZM149.33,624.74v6.1h6.1v6.09h-6.1v6.1h6.1v-6.09h6.09v-12.2h-12.19ZM149.33,649.12h6.09v6.09h-6.09v-6.09ZM155.43,643.03h6.09v6.09h-6.09v-6.09ZM155.43,655.22h6.09v12.19h-6.09v-12.19ZM155.43,679.6h-6.1v6.09h6.1s6.09.01,6.09.01v-12.19h-6.09v6.09ZM155.43,697.89h6.09v6.09h-6.09v-6.09ZM161.52,679.6h6.09v6.09h-6.09v-6.09ZM167.62,575.98h-6.1v6.1h18.29v-6.1h-12.19ZM167.62,588.17h-6.1v18.29h18.29v-18.29h-12.19ZM167.62,612.55h-6.1v6.1h18.29v-6.1h-12.19ZM167.62,624.74h-6.1v12.2h12.19v6.09h-12.19v18.28h6.1v12.19h12.19v-18.28h-12.19v-6.1h6.09s6.1.01,6.1.01v-24.39h-12.19ZM167.62,691.79h-6.1v6.1h6.1v6.09h6.09v-6.09h6.1v-6.1h-6.1v-6.1h-6.09v6.1ZM173.71,679.6h6.09v6.09h-6.09v-6.09ZM179.81,630.84v24.38h6.1v6.09h6.09v-6.09h-6.09v-18.29h6.09v-6.09h-12.19ZM179.81,661.31h6.09v6.09h-6.09v-6.09ZM179.81,697.89h6.09v6.09h-6.09v-6.09ZM185.91,575.98h-6.1v6.1h6.1v30.47h-6.1v6.1h12.19v-42.67h-6.09ZM185.91,667.41h6.09v6.09h-6.09v-6.09ZM185.91,673.51h6.09v6.09h-6.09v-6.09Z"/>
    <path class="st18" d="M343.25,698.54c-.71,1.51-.95,2.46-1.23,3.85-2.74,1.23-5.91,1.59-8.06,1.59-8.13,0-14.01-4.21-14.01-12.62s5.91-16.03,16.55-16.03c3.77,0,7.54.87,10.63,3.06-.75,1.55-1.03,2.62-1.23,4.37l-.99-.08c-1.15-3.49-4.76-4.64-7.26-4.64-7.94,0-10.83,9.48-10.83,15.12,0,6.67,4.64,8.14,7.66,8.14s5.83-1.11,8.06-3.06l.71.32v-.02ZM355.78,700.33c2.14,0,3.53-1.98,4.21-3.81,1.51-4.05,2.38-9.4,2.86-12.7,1.23.16,2.42.24,3.49.24,1.19,0,2.34-.12,3.02-.24-1.11,4.01-3.26,12.86-4.17,19.56-.83-.12-1.71-.24-2.94-.24-1.03,0-2.34.12-3.41.24.32-1.03.59-2.06.83-3.09-.87,1.07-2.9,3.53-7.06,3.53-3.21,0-5.24-1.71-5.24-4.52,0-1.98.87-5,1.27-6.83.64-3.02,1.19-5.67,1.59-8.65,1.15.16,2.7.24,3.89.24,1.27,0,2.1-.12,3.05-.24-2.46,8.69-3.57,12.7-3.57,14.25,0,1.27.87,2.26,2.18,2.26h0ZM381.33,703.98c-3.85,0-5.44-2.1-6.15-3.01-1.43.79-2.3,1.43-3.65,2.42-.32-.08-.6-.12-.75-.12-.04,0-.48,0-.91.12,1.31-4.52,1.59-5.95,5.16-22.18.91-4.17,1.03-5.83,1.19-7.22,1.27.16,2.02.24,3.29.24s2.06-.08,3.34-.24c-.44,1.39-.71,2.38-1.07,3.77-.32,1.23-1.51,6.71-1.75,7.82,1.55-1.55,3.57-2.34,5.68-2.34,4.6,0,7.26,3.69,7.26,7.7,0,5.75-3.77,13.06-11.63,13.06v-.02ZM383.43,685.96c-2.1,0-3.29,1.91-4.01,3.93-.95,2.66-1.87,6.27-1.87,8.81,0,1.83.99,3.13,2.9,3.13,1.23,0,2.62-.55,4.01-3.69,1.43-3.25,2.1-6.75,2.1-8.49,0-2.66-1.71-3.69-3.13-3.69h0ZM412.55,702.99c-1.23.59-2.42.71-3.41.71-1.98,0-3.21-.67-4.09-2.74-.71.95-2.22,2.94-5.48,2.94-2.86,0-5.47-1.63-5.47-5.12,0-5.99,6.19-6.43,9.17-6.63,2.22-.16,3.33-.28,3.33-2.38,0-2.26-1.11-3.29-3.41-3.29-1.79,0-3.53.67-5,1.71.04-.44.08-.87.08-1.31,0-.48,0-.91-.08-1.39,2.18-1.23,4.64-2.1,7.54-2.1s6.71.79,6.71,5.56c0,1.98-.59,4.05-1.11,6.11-.52,1.98-1.07,4.37-1.07,5.32,0,.83.36,1.43,1.27,1.43.44,0,.87-.08,1.27-.2l-.24,1.39h-.01ZM399.89,698.47c0,1.27.63,2.34,2.02,2.34s2.14-.87,2.54-2.1c.32-.95.99-3.69,1.27-4.88-1.55.04-5.83.2-5.83,4.64ZM431.55,700.37c-.59.87-1.03,1.63-1.55,2.7-1.51.59-3.13.83-4.76.83-5.75,0-10.08-3.69-10.08-9.25,0-4.37,3.06-11.15,11.63-11.15,3.05,0,5.55,1.07,7.06,2.22-.99,1.98-1.39,3.53-1.67,4.44l-1.27-.16c.16-2.38-.79-4.21-3.45-4.21-4.01,0-5.72,5.48-5.72,9.37,0,3.33,1.47,6.03,5.12,6.03,1.15,0,2.54-.28,4.01-1.51l.67.67v.02ZM452.66,700.37c-.12.24-.71,1.15-1.27,2.34-.95.36-3.13,1.23-6.67,1.23-6.11,0-9.84-3.53-9.84-9.09s4.21-11.43,11.31-11.43c4.76,0,7.82,2.46,7.82,7.42,0,1.23-.16,2.3-.48,3.49-.87-.12-2.22-.32-5.08-.32h-7.06c-.04.36-.08.91-.08,1.27,0,2.38,1.27,5.99,5.6,5.99,2.78,0,4.37-1.11,5.2-1.75l.56.83v.02ZM447.74,691.96c.28-.91.76-2.58.76-4.33s-1.15-2.42-2.1-2.42c-2.9,0-4.44,3.81-4.84,6.75h6.19-.01ZM465,674.22c1.23,0,2.1-.08,3.37-.24-1.31,4.96-4.88,20.95-6.39,29.41-.67-.08-1.87-.24-3.21-.24s-2.54.16-3.25.24c.87-2.86,1.63-5.71,2.26-8.61,2.66-12.14,2.94-13.49,4.05-20.79,1.03.16,1.98.24,3.18.24h0Z"/>
    <path class="st0" d="M490.07,695.49c-.99,4.6-1.19,6.39-1.39,7.9-1.23-.16-2.5-.2-3.77-.2-1.19,0-2.38.08-3.57.2,1.98-6.98,4.88-20.28,5.32-24.29-.55-.04-1.15-.04-1.79-.04-1.98,0-4.17.16-5.55.36.44-1.27.63-2.22.71-3.49,3.61.16,7.66.2,10.83.2,3.33,0,8.22-.12,10.83-.2-.4,1.07-.67,2.3-.79,3.49-1.59-.28-3.25-.36-4.52-.36-.71,0-1.63,0-2.5.04-.71,2.18-1.51,5.71-3.81,16.39h0ZM506.22,700.33c2.14,0,3.53-1.98,4.21-3.81,1.51-4.05,2.38-9.4,2.86-12.7,1.23.16,2.42.24,3.49.24,1.19,0,2.34-.12,3.01-.24-1.11,4.01-3.25,12.86-4.17,19.56-.83-.12-1.71-.24-2.94-.24-1.03,0-2.34.12-3.41.24.32-1.03.6-2.06.83-3.09-.87,1.07-2.9,3.53-7.06,3.53-3.21,0-5.24-1.71-5.24-4.52,0-1.98.87-5,1.27-6.83.63-3.02,1.19-5.67,1.59-8.65,1.15.16,2.7.24,3.89.24,1.27,0,2.1-.12,3.06-.24-2.46,8.69-3.57,12.7-3.57,14.25,0,1.27.87,2.26,2.18,2.26h0ZM535.73,689.58c-.44-.24-.91-.48-1.91-.48-2.58,0-3.97,1.79-4.64,4.05-.67,2.22-1.67,7.78-1.98,10.24-1.13-.16-2.27-.24-3.41-.24-.99,0-2.1.12-3.13.24.99-3.73,3.57-14.17,4.09-19.56,1.19.12,2.14.24,3.37.24,1.31,0,2.38-.12,3.06-.24-.52,1.63-.76,2.7-1.15,4.52.71-1.27,2.62-4.88,6.31-4.88.36,0,.63.04.83.08-.67,2.1-.95,3.61-1.03,5.79l-.4.24h-.01Z"/>
    <path class="st19" d="M1983.28,687.55h-1.58c-.4,0-.74.3-.74.71v8.34c0,3.19-1.59,4.84-3.81,4.84-1.22,0-1.92-.67-1.92-2.15v-11.03c0-.4-.37-.71-.78-.71h-1.55c-.4,0-.77.3-.77.71v11.5c0,2.76,1.62,4.24,4.08,4.24,2.73,0,3.95-1.38,4.89-2.39l.4,1.58c.1.4.37.64.74.64h1.04c.4,0,.74-.34.74-.74v-14.83c0-.4-.34-.71-.74-.71h0ZM1968.78,701.44c-.1-.37-.37-.67-.88-.5-.67.17-1.45.27-2.33.27-2.53,0-3.78-1.82-3.78-5.67,0-3.54,1.42-5.56,3.54-5.56.91,0,1.65.23,2.16.44.54.2.77-.1.91-.44l.4-1.18c.1-.37-.07-.71-.54-.91-.67-.3-1.79-.57-2.93-.57-4.05,0-6.77,3.43-6.77,8.22,0,5.56,2.66,8.46,6.7,8.46,1.21,0,2.26-.13,3.24-.44.47-.17.61-.5.54-.87l-.27-1.25h.01ZM1953.67,699.55c-1.25,0-2.22.98-2.22,2.22s.98,2.23,2.22,2.23,2.23-.98,2.23-2.23-.98-2.22-2.23-2.22ZM1947.38,699.35v-5.87c0-2.73-.44-6.17-5.8-6.17-1.45,0-3.1.37-4.08.64-.4.1-.57.44-.47.87l.27,1.25c.1.44.44.67.88.54.91-.23,1.92-.57,3.24-.57,2.4,0,2.94.91,2.94,2.87v.81l-3.71.23c-2.73.2-5.05,1.62-5.05,5.22,0,3.03,1.65,4.82,4.35,4.82,1.86,0,3.61-.67,4.65-2.32l.24,1.48c.07.47.37.67.77.67h1.55c.44,0,.67-.3.6-.74l-.2-.98c-.2-1.01-.17-1.92-.17-2.76h-.01ZM1944.35,698.44c0,1.25-1.38,3.1-3.54,3.1-1.25,0-2.13-.74-2.13-2.36,0-2.53,1.48-3.14,3.54-3.2l2.13-.07v2.53h0ZM1928.63,694.22c-1.45-.81-2.77-1.48-2.77-2.63,0-1.08.77-1.82,2.19-1.82,1.01,0,2.09.37,2.76.61.37.17.71.03.88-.4l.37-.98c.17-.44-.04-.77-.4-.94-1.01-.47-1.98-.74-3.64-.74-3.24,0-5.19,1.85-5.19,4.48,0,2.36,1.85,3.51,3.64,4.52,1.65.88,3.21,1.65,3.21,3.07,0,1.22-.74,1.96-2.3,1.96-1.32,0-2.63-.4-3.74-.91-.4-.2-.77,0-.91.47l-.37,1.21c-.13.4,0,.74.4.94,1.28.61,3.1.94,4.62.94,3.47,0,5.39-2.05,5.39-4.68,0-2.76-2.22-4.01-4.14-5.09h0ZM1919.36,701.44c-.1-.37-.37-.67-.88-.5-.67.17-1.45.27-2.33.27-2.53,0-3.78-1.82-3.78-5.67,0-3.54,1.42-5.56,3.54-5.56.91,0,1.65.23,2.16.44.54.2.77-.1.91-.44l.4-1.18c.1-.37-.07-.71-.54-.91-.67-.3-1.79-.57-2.93-.57-4.05,0-6.77,3.43-6.77,8.22,0,5.56,2.66,8.46,6.7,8.46,1.21,0,2.26-.13,3.24-.44.47-.17.61-.5.54-.87l-.27-1.25h.01ZM1900.06,687.32c-3.71,0-6.2,3.2-6.2,8.29,0,5.53,2.59,8.39,7.21,8.39,1.96,0,3.1-.3,4.18-.77.37-.17.57-.51.44-.91l-.37-1.08c-.13-.37-.4-.64-.91-.47-.98.27-1.89.57-3.17.57-3.04,0-4.05-1.76-4.18-4.89h8.4c.4,0,.74-.34.74-.74,0-6.2-2.69-8.39-6.13-8.39h0ZM1897.06,694.13c.34-3.51,1.86-4.35,3.1-4.35,2.09,0,2.83,2.19,2.9,4.35h-6ZM1891.15,701.27c-.3.07-.74.13-1.05.13-.77,0-1.15-.4-1.15-1.31v-10.15h1.92c.4,0,.74-.34.74-.74v-.91c0-.4-.34-.74-.74-.74h-1.92v-4.25c0-.57-.44-.67-.94-.5l-1.52.44c-.37.1-.57.47-.57.88v3.44h-1.82c-.44,0-.71.34-.71.74v.91c0,.4.27.74.71.74h1.82v10.66c0,2.25,1.08,3.4,3.5,3.4.81,0,1.62-.1,2.19-.27.44-.13.54-.47.5-.88l-.17-1.04c-.07-.4-.44-.6-.81-.54h.02ZM1875.35,687.32c-3.71,0-6.2,3.2-6.2,8.29,0,5.53,2.59,8.39,7.21,8.39,1.96,0,3.1-.3,4.18-.77.37-.17.57-.51.44-.91l-.37-1.08c-.13-.37-.4-.64-.91-.47-.98.27-1.89.57-3.17.57-3.04,0-4.05-1.76-4.18-4.89h8.39c.4,0,.74-.34.74-.74,0-6.2-2.69-8.39-6.13-8.39h0ZM1872.35,694.13c.34-3.51,1.86-4.35,3.1-4.35,2.09,0,2.83,2.19,2.9,4.35h-6ZM1864.24,699.55c-1.25,0-2.22.98-2.22,2.22s.98,2.23,2.22,2.23,2.22-.98,2.22-2.23-.98-2.22-2.22-2.22ZM1859.63,687.55h-1.72c-.44,0-.74.23-.84.67l-1.92,10.36c-.2,1.04-.34,2.59-.47,3.63-.1-1.08-.3-2.59-.54-3.63l-2.33-10.33c-.09-.42-.46-.71-.88-.71h-2.29c-.4,0-.74.23-.84.67l-2.4,10.36c-.23,1.04-.37,2.59-.54,3.63-.07-1.08-.17-2.56-.4-3.66l-1.99-10.29c-.1-.5-.37-.71-.84-.71h-1.89c-.4,0-.71.3-.57.87l3.44,14.74c.13.5.37.67.81.67h2.73c.44,0,.78-.24.88-.67l2.26-10.06c.2-1.01.34-2.25.47-3.53.13,1.24.2,2.52.44,3.53l2.22,10.06c.1.5.37.67.78.67h2.76c.47,0,.74-.24.84-.67l3.37-14.77c.13-.54-.17-.84-.54-.84h0ZM1836.08,687.55h-1.72c-.44,0-.74.23-.84.67l-1.92,10.36c-.2,1.04-.34,2.59-.47,3.63-.1-1.08-.3-2.59-.54-3.63l-2.32-10.33c-.09-.42-.46-.71-.88-.71h-2.29c-.4,0-.74.23-.84.67l-2.39,10.36c-.24,1.04-.37,2.59-.54,3.63-.07-1.08-.17-2.56-.4-3.66l-1.99-10.29c-.1-.5-.37-.71-.84-.71h-1.89c-.4,0-.71.3-.57.87l3.44,14.74c.13.5.37.67.81.67h2.73c.44,0,.77-.24.88-.67l2.26-10.06c.2-1.01.34-2.25.47-3.53.13,1.24.2,2.52.44,3.53l2.23,10.06c.1.5.37.67.77.67h2.76c.47,0,.74-.24.84-.67l3.37-14.77c.13-.54-.17-.84-.54-.84h-.02ZM1812.52,687.55h-1.72c-.44,0-.74.23-.84.67l-1.92,10.36c-.2,1.04-.34,2.59-.47,3.63-.1-1.08-.3-2.59-.54-3.63l-2.32-10.33c-.09-.42-.46-.71-.88-.71h-2.29c-.4,0-.74.23-.84.67l-2.39,10.36c-.24,1.04-.37,2.59-.54,3.63-.07-1.08-.17-2.56-.4-3.66l-1.99-10.29c-.1-.5-.37-.71-.84-.71h-1.89c-.4,0-.71.3-.57.87l3.44,14.74c.13.5.37.67.81.67h2.73c.44,0,.77-.24.88-.67l2.26-10.06c.2-1.01.34-2.25.47-3.53.13,1.24.2,2.52.44,3.53l2.23,10.06c.1.5.37.67.77.67h2.77c.47,0,.74-.24.84-.67l3.37-14.77c.13-.54-.17-.84-.54-.84h-.03ZM1608.67,702.15l18.37-17.99-11.59.03-12.67,12.43c1.66,2.56,3.72,4.22,5.88,5.53M1601.81,694.93c-4.45-9.49.29-16.69,3.01-19.39,1.64-1.52,9.22-8.56,20.32-3.49l-23.33,22.88ZM1634.06,692.92h-12.78l-10.46,10.28c11.91,4.34,20.71-3.32,23.23-10.28M1640.3,692.22c.6-3.19.96-5.39,1.25-7.9,1.71.03,3.44.14,5.16.14,2.85,0,5.31-.06,6.11-.14-.12.34-.25.69-.34,1.2-.11.6-.1.85-.12,1.28-2.19-.14-5.64-.34-6.52-.34-.54,2.08-.92,4.13-1.32,6.22,2.54-.06,4.42-.11,6.65-.23-.24.66-.32.91-.39,1.28-.06.31-.05.57-.07,1.17-2.18-.17-4.35-.26-6.56-.26-.23,1.2-.49,2.42-.72,3.65-.23,1.2-.43,2.42-.58,3.56,2.18,0,4.45-.12,6.74-.37-.13.4-.24.68-.36,1.28-.11.6-.11.88-.11,1.23-1.04-.03-2.39-.14-5.07-.14-4.75,0-5.55.08-6.2.14.65-2.51,1.12-4.7,1.72-7.9l.73-3.88h0ZM1657.95,688.97c.2-1.08.4-2.11.39-2.51-1.14,0-3.61.17-5.4.37.17-.43.3-.83.38-1.25.08-.43.1-.83.09-1.25,2.63.09,3.93.14,7.55.14s4.93-.06,7.42-.14c-.17.43-.3.83-.38,1.25-.08.43-.1.83-.09,1.25-1.53-.2-3.95-.37-5.11-.37-.13.4-.33,1.43-.53,2.51l-1.34,7.13c-.6,3.19-.96,5.39-1.25,7.9-.63-.06-1.4-.14-2.36-.14s-1.76.09-2.41.14c.65-2.51,1.12-4.71,1.72-7.9l1.34-7.13h-.02ZM1668.62,692.22c.6-3.19.96-5.39,1.25-7.9,1.71.03,3.44.14,5.16.14,2.85,0,5.31-.06,6.11-.14-.12.34-.25.69-.34,1.2-.11.6-.1.85-.12,1.28-2.19-.14-5.64-.34-6.52-.34-.54,2.08-.92,4.13-1.32,6.22,2.54-.06,4.42-.11,6.65-.23-.24.66-.32.91-.39,1.28-.06.31-.05.57-.07,1.17-2.18-.17-4.35-.26-6.56-.26-.23,1.2-.49,2.42-.72,3.65-.23,1.2-.43,2.42-.58,3.56,2.18,0,4.45-.12,6.74-.37-.13.4-.24.68-.36,1.28-.11.6-.11.88-.11,1.23-1.04-.03-2.39-.14-5.07-.14-4.75,0-5.55.08-6.2.14.65-2.51,1.12-4.7,1.72-7.9l.73-3.88h0ZM1696.39,700.69c-.47.8-.86,1.63-1.1,2.42-1.69.8-3.79,1.26-6.18,1.26-6.76,0-9.97-4.14-8.95-9.52,1.48-7.87,7.5-10.89,13.61-10.89,2.04,0,4.49.6,5.68,1.4-.56.94-.95,1.94-1.22,2.91h-.41c-1.12-1.77-2.46-2.54-4.53-2.54-3.12,0-7.14,2.65-8.28,8.7-1.1,5.87,2.01,8.18,5.36,8.18,1.86,0,4.18-.85,5.67-2.14l.34.23h.01ZM1709.79,688.18c-.31-1.63-1.29-2.45-3.06-2.45s-3.25,1.2-3.51,2.57c-.79,4.22,8.26,3.17,7.04,9.64-.72,3.82-4.3,6.44-8.93,6.44-2.1,0-3.73-.6-4.46-1.22.63-1.31,1.08-2.34,1.53-3.62h.55c0,1.65,1.08,3.08,3.44,3.08s3.65-1.31,3.95-2.91c.81-4.31-8.08-3.17-6.86-9.64.74-3.93,4.24-6.1,7.7-6.1,2.1,0,3.57.54,4.51,1.4-.52.88-.85,1.57-1.46,2.82h-.44ZM1727.99,704c-.92-.06-1.72-.14-2.53-.14s-1.68.09-2.5.14c-.25-1.94-.55-3.91-.91-5.84-1.25-.03-2.46-.06-3.72-.06-1.02,0-2.01.03-3.04.06-1.12,1.9-2.15,3.84-3.08,5.84-.46-.06-.88-.14-1.34-.14s-.92.09-1.48.14c2.02-3.17,8.3-13.31,12.03-19.82.37.06.7.14,1.08.14s.75-.09,1.13-.14c1.25,6.5,3.03,15.17,4.36,19.82M1721.69,696.47c-.41-2.31-.8-4.56-1.31-6.79-1.41,2.22-2.74,4.48-4.02,6.79h5.33Z"/>
  </g>
</svg>