<svg xmlns="http://www.w3.org/2000/svg" id="Layer_1" version="1.1" viewBox="0 0 2048 1536"><defs><style>.st0,.st1{fill:#ffe68a}.st1,.st2,.st3,.st4,.st5,.st6,.st7,.st8,.st9{stroke-width:1.12px}.st1,.st2,.st3,.st4,.st8{stroke:#080b57}.st10,.st11,.st12,.st13,.st14,.st15,.st2,.st4,.st5,.st7,.st9{fill:none}.st1,.st2,.st5{stroke-linejoin:round}.st10,.st11,.st12,.st13,.st14,.st15,.st3,.st4,.st6,.st7,.st8,.st9{stroke-miterlimit:10}.st16,.st17,.st3{fill:#8187e4}.st10,.st11,.st14,.st5,.st6,.st7{stroke:#fff}.st10,.st13{stroke-width:2.62px}.st11,.st12{stroke-width:3.37px}.st18,.st6{fill:#fff}.st19,.st8{fill:#080b57}.st17,.st20{opacity:.8}.st12,.st13,.st15,.st9{stroke:#8187e4}.st14,.st15{stroke-width:1.87px}.st17{isolation:isolate}</style></defs><path id="BG" d="M0 0h2048v1536H0V0Z" class="st18"/><g id="frame2"><g id="frame21" data-name="frame2"><path d="M256 0h1536v1536H256V0Z" class="st17"/><path d="M0 0h2048v1536H0V0Z" class="st17"/><g class="st20"><path d="M0 384h2048v768H0V384Z" class="st16"/></g><path d="M512 0h1024v1536H512V0Z" class="st17"/><path d="m832.88 919.61-57.16-57.16c-9.02-9.02-23.64-9.03-32.65-.02l-156.39 156.39a23.026 23.026 0 0 0-6.75 16.32l.02 29.84c0 6.12 2.44 12 6.77 16.33l42.23 42.23" class="st8"/><path d="m628.95 1123.54 32.66 32.66c9.02 9.02 23.64 9.03 32.65.02l171.3-171.3c9.01-9.01 9-23.63-.02-32.65l-32.66-32.66" class="st3"/><path d="m699.95 987.23 79.88-79.88a5.776 5.776 0 0 1 8.16 0l57.16 57.16c2.25 2.25 2.26 5.91 0 8.16l-89.73 89.73a5.776 5.776 0 0 1-8.16 0l-47.3-47.3a5.776 5.776 0 0 1-1.69-4.08v-19.7c-.01-1.53.6-3 1.68-4.08Z" class="st0"/><path d="m699.95 987.23 79.88-79.88a5.776 5.776 0 0 1 8.16 0l57.16 57.16c2.25 2.25 2.26 5.91 0 8.16l-89.73 89.73a5.776 5.776 0 0 1-8.16 0l-47.3-47.3a5.776 5.776 0 0 1-1.69-4.08v-19.7c-.01-1.53.6-3 1.68-4.08Z" class="st2"/><path d="m824.73 927.77-48.99-48.99c-4.51-4.51-11.82-4.51-16.32 0l-86.35 86.35c-2.16 2.16-3.38 5.1-3.38 8.16l.02 39.41c0 3.06 1.22 6 3.38 8.16l29.28 29.28" class="st9"/><path d="m702.37 1050.13 32.66 32.66c4.51 4.51 11.82 4.51 16.32 0l106.04-106.04c4.5-4.5 4.5-11.81 0-16.32l-32.66-32.66" class="st4"/><path d="m809.01 1008.81-41.38-23.94m65.22.1-65.22-.1m62.1-35.79-62.1 35.79m35.78-62.1-35.78 62.1m-.11-65.22.11 65.22m-23.94-41.39 23.94 41.39m-41.39-23.94 41.39 23.94m-65.23-.1 65.23.1m-62.1 35.79 62.1-35.79m-35.79 62.1 35.79-62.1m.1 65.22-.1-65.22m23.94 41.39-23.94-41.39" class="st2"/><path d="m776.51 1000.23 6.48-6.47 2.36-8.86-2.39-8.86-6.5-6.5-8.86-2.39-8.86 2.36-6.47 6.48-2.36 8.85 2.39 8.87 6.49 6.49 8.87 2.39 8.85-2.36Z" class="st1"/><path d="m1239.61 895.12-57.16 57.16c-9.02 9.02-9.03 23.64-.02 32.65l156.39 156.39c4.33 4.33 10.2 6.76 16.32 6.75l29.84-.02c6.12 0 12-2.44 16.33-6.77l42.23-42.23" class="st8"/><path d="m1443.54 1099.04 32.66-32.66c9.02-9.02 9.03-23.64.02-32.65l-171.3-171.3c-9.01-9.01-23.63-9-32.65.02l-32.66 32.66" class="st3"/><path d="m1307.23 1028.05-79.88-79.88a5.776 5.776 0 0 1 0-8.16l57.16-57.16c2.25-2.25 5.91-2.26 8.16 0l89.73 89.73a5.776 5.776 0 0 1 0 8.16l-47.3 47.3a5.776 5.776 0 0 1-4.08 1.69h-19.7c-1.53.01-3-.6-4.08-1.68h-.01Z" class="st0"/><path d="m1307.23 1028.05-79.88-79.88a5.776 5.776 0 0 1 0-8.16l57.16-57.16c2.25-2.25 5.91-2.26 8.16 0l89.73 89.73a5.776 5.776 0 0 1 0 8.16l-47.3 47.3a5.776 5.776 0 0 1-4.08 1.69h-19.7c-1.53.01-3-.6-4.08-1.68h-.01Z" class="st2"/><path d="m1247.77 903.27-48.99 48.99c-4.51 4.51-4.51 11.82 0 16.32l86.35 86.35c2.16 2.16 5.1 3.38 8.16 3.38l39.41-.02c3.06 0 6-1.22 8.16-3.38l29.28-29.28" class="st9"/><path d="m1370.13 1025.63 32.66-32.66c4.51-4.51 4.51-11.82 0-16.32l-106.04-106.04c-4.5-4.5-11.81-4.5-16.32 0l-32.66 32.66" class="st4"/><path d="m1328.81 918.99-23.94 41.38m.1-65.22-.1 65.22m-35.79-62.1 35.79 62.1m-62.1-35.78 62.1 35.78m-65.22.11 65.22-.11m-41.39 23.94 41.39-23.94m-23.94 41.39 23.94-41.39m-.1 65.23.1-65.23m35.79 62.1-35.79-62.1m62.1 35.79-62.1-35.79m65.22-.1-65.22.1m41.39-23.94-41.39 23.94" class="st2"/><path d="m1320.23 951.49-6.47-6.48-8.86-2.36-8.86 2.39-6.5 6.5-2.39 8.86 2.36 8.86 6.48 6.47 8.85 2.36 8.87-2.39 6.49-6.49 2.39-8.87-2.36-8.85Z" class="st1"/><path d="m1215.12 488.39 57.16 57.16c9.02 9.02 23.64 9.03 32.65.02l156.39-156.39c4.33-4.33 6.76-10.2 6.75-16.32l-.02-29.84c0-6.12-2.44-12-6.77-16.33l-42.23-42.23" class="st8"/><path d="m1419.05 284.46-32.66-32.66c-9.02-9.02-23.64-9.03-32.65-.02l-171.3 171.3c-9.01 9.01-9 23.63.02 32.65l32.66 32.66" class="st3"/><path d="m1348.05 420.77-79.88 79.88a5.776 5.776 0 0 1-8.16 0l-57.16-57.16c-2.25-2.25-2.26-5.91 0-8.16l89.73-89.73a5.776 5.776 0 0 1 8.16 0l47.3 47.3a5.776 5.776 0 0 1 1.69 4.08v19.7c.01 1.53-.6 3-1.68 4.08Z" class="st0"/><path d="m1348.05 420.77-79.88 79.88a5.776 5.776 0 0 1-8.16 0l-57.16-57.16c-2.25-2.25-2.26-5.91 0-8.16l89.73-89.73a5.776 5.776 0 0 1 8.16 0l47.3 47.3a5.776 5.776 0 0 1 1.69 4.08v19.7c.01 1.53-.6 3-1.68 4.08Z" class="st2"/><path d="m1223.27 480.23 48.99 48.99c4.51 4.51 11.82 4.51 16.32 0l86.35-86.35c2.16-2.16 3.38-5.1 3.38-8.16l-.02-39.41c0-3.06-1.22-6-3.38-8.16l-29.28-29.28" class="st9"/><path d="m1345.63 357.87-32.66-32.66c-4.51-4.51-11.82-4.51-16.32 0l-106.04 106.04c-4.5 4.5-4.5 11.81 0 16.32l32.66 32.66" class="st4"/><path d="m1238.99 399.19 41.38 23.94m-65.22-.1 65.22.1m-62.1 35.79 62.1-35.79m-35.78 62.1 35.78-62.1m.11 65.22-.11-65.22m23.94 41.39-23.94-41.39m41.39 23.94-41.39-23.94m65.23.1-65.23-.1m62.1-35.79-62.1 35.79m35.79-62.1-35.79 62.1m-.1-65.22.1 65.22m-23.94-41.39 23.94 41.39" class="st2"/><path d="m1271.49 407.77-6.48 6.47-2.36 8.86 2.39 8.86 6.5 6.5 8.86 2.39 8.86-2.36 6.47-6.48 2.36-8.85-2.39-8.87-6.49-6.49-8.87-2.39-8.85 2.36Z" class="st1"/><path d="m808.39 512.88 57.16-57.16c9.02-9.02 9.03-23.64.02-32.65L709.18 266.68a23.026 23.026 0 0 0-16.32-6.75l-29.84.02c-6.12 0-12 2.44-16.33 6.77l-42.23 42.23" class="st8"/><path d="m604.46 308.95-32.66 32.66c-9.02 9.02-9.03 23.64-.02 32.65l171.3 171.3c9.01 9.01 23.63 9 32.65-.02l32.66-32.66" class="st3"/><path d="m740.77 379.95 79.88 79.88a5.776 5.776 0 0 1 0 8.16l-57.16 57.16c-2.25 2.25-5.91 2.26-8.16 0l-89.73-89.73a5.776 5.776 0 0 1 0-8.16l47.3-47.3a5.776 5.776 0 0 1 4.08-1.69h19.7c1.53-.01 3 .6 4.08 1.68Z" class="st0"/><path d="m740.77 379.95 79.88 79.88a5.776 5.776 0 0 1 0 8.16l-57.16 57.16c-2.25 2.25-5.91 2.26-8.16 0l-89.73-89.73a5.776 5.776 0 0 1 0-8.16l47.3-47.3a5.776 5.776 0 0 1 4.08-1.69h19.7c1.53-.01 3 .6 4.08 1.68Z" class="st2"/><path d="m800.23 504.73 48.99-48.99c4.51-4.51 4.51-11.82 0-16.32l-86.35-86.35c-2.16-2.16-5.1-3.38-8.16-3.38l-39.41.02c-3.06 0-6 1.22-8.16 3.38l-29.28 29.28" class="st9"/><path d="m677.87 382.37-32.66 32.66c-4.51 4.51-4.51 11.82 0 16.32l106.04 106.04c4.5 4.5 11.81 4.5 16.32 0l32.66-32.66" class="st4"/><path d="m719.19 489.01 23.94-41.38m-.1 65.22.1-65.22m35.79 62.1-35.79-62.1m62.1 35.78-62.1-35.78m65.22-.11-65.22.11m41.39-23.94-41.39 23.94m23.94-41.39-23.94 41.39m.1-65.23-.1 65.23m-35.79-62.1 35.79 62.1m-62.1-35.79 62.1 35.79m-65.22.1 65.22-.1m-41.39 23.94 41.39-23.94" class="st2"/><path d="m727.77 456.51 6.47 6.48 8.86 2.36 8.86-2.39 6.5-6.5 2.39-8.86-2.36-8.86-6.48-6.47-8.85-2.36-8.87 2.39-6.49 6.49-2.39 8.87 2.36 8.85Z" class="st1"/><path d="M448 705.93v-21.75c0-4.21 2.14-7.94 5.3-9.25l28.14-11.71c.76-.32 1.58-.49 2.41-.49h244.96c4.19 0 7.59 4.3 7.59 9.6v33.6m-288.4 0v19.2c0 5.3 3.4 9.6 7.59 9.6H728.8c4.19 0 7.59-4.3 7.59-9.6v-19.2" class="st6"/><path d="M592.51 686.73h118.9c1.06 0 1.92 1.09 1.92 2.43v34.51c0 .81-.52 1.46-1.16 1.46H576.05c-.64 0-1.16-.65-1.16-1.46v-27.98c0-1.05.53-1.98 1.32-2.31l15.69-6.53c.19-.08.4-.12.6-.12h.01Z" class="st18"/><path d="M713.33 723.16H574.9" class="st11"/><path d="M713.33 717.51H574.9" class="st10"/><path d="M713.33 711.86H574.9" class="st14"/><path d="M713.33 706.21H574.9" class="st7"/><path d="M592.2 686.73h119.2c1.06 0 1.92 1.09 1.92 2.43v33.54c0 1.34-.86 2.43-1.92 2.43H576.81c-1.06 0-1.92-1.09-1.92-2.43v-27.01c0-1.05.53-1.98 1.32-2.31l15.98-6.65h.01Z" class="st5"/><path d="M724.86 705.93v-28.74c0-2.68-1.72-4.86-3.85-4.86H587.04c-.41 0-.81.08-1.2.24l-31.38 13.06c-1.58.66-2.64 2.52-2.64 4.62v15.68m0 0v19.13c0 2.69 1.72 4.87 3.85 4.87h165.34c2.12 0 3.85-2.18 3.85-4.86v-19.14" class="st7"/><path d="M448 711.2v-21.75c0-4.21 2.14-7.94 5.3-9.25l28.14-11.71c.76-.32 1.58-.49 2.41-.49h244.96c4.19 0 7.59 4.3 7.59 9.6v33.6" class="st8"/><path d="M448 711.2v19.2c0 5.3 3.4 9.6 7.59 9.6H728.8c4.19 0 7.59-4.3 7.59-9.6v-19.2" class="st3"/><path d="M592.51 692h118.9c1.06 0 1.92 1.09 1.92 2.43v34.51c0 .81-.52 1.46-1.16 1.46H576.05c-.64 0-1.16-.65-1.16-1.46v-27.98c0-1.05.53-1.98 1.32-2.31l15.69-6.53c.19-.08.4-.12.6-.12h.01Z" class="st0"/><path d="M713.33 728.44H574.9" class="st12"/><path d="M713.33 722.78H574.9" class="st13"/><path d="M713.33 717.13H574.9" class="st15"/><path d="M713.33 711.48H574.9" class="st9"/><path d="M592.2 692h119.2c1.06 0 1.92 1.09 1.92 2.43v33.54c0 1.34-.86 2.43-1.92 2.43H576.81c-1.06 0-1.92-1.09-1.92-2.43v-27.01c0-1.05.53-1.98 1.32-2.31l15.98-6.65h.01Z" class="st2"/><path d="M724.86 711.2v-28.74c0-2.68-1.72-4.86-3.85-4.86H587.04c-.41 0-.81.08-1.2.24l-31.38 13.06c-1.58.66-2.64 2.52-2.64 4.62v15.68" class="st9"/><path d="M551.82 711.2v19.13c0 2.69 1.72 4.87 3.85 4.87h165.34c2.12 0 3.85-2.18 3.85-4.86V711.2" class="st4"/><path d="M1025.93 1280h-21.75c-4.21 0-7.94-2.14-9.25-5.3l-11.71-28.14c-.32-.76-.49-1.58-.49-2.41V999.19c0-4.19 4.3-7.59 9.6-7.59h33.6m0 288.4h19.2c5.3 0 9.6-3.4 9.6-7.59V999.2c0-4.19-4.3-7.59-9.6-7.59h-19.2" class="st6"/><path d="M1006.73 1135.49v-118.9c0-1.06 1.09-1.92 2.43-1.92h34.51c.81 0 1.46.52 1.46 1.16v136.12c0 .64-.65 1.16-1.46 1.16h-27.98c-1.05 0-1.98-.53-2.31-1.32l-6.53-15.69c-.08-.19-.12-.4-.12-.6Z" class="st18"/><path d="M1043.16 1014.67v138.43" class="st11"/><path d="M1037.51 1014.67v138.43" class="st10"/><path d="M1031.86 1014.67v138.43" class="st14"/><path d="M1026.21 1014.67v138.43" class="st7"/><path d="M1006.73 1135.8v-119.2c0-1.06 1.09-1.92 2.43-1.92h33.54c1.34 0 2.43.86 2.43 1.92v134.59c0 1.06-1.09 1.92-2.43 1.92h-27.01c-1.05 0-1.98-.53-2.31-1.32l-6.65-15.98Z" class="st5"/><path d="M1025.93 1003.14h-28.74c-2.68 0-4.86 1.72-4.86 3.85v133.97c0 .41.08.81.24 1.2l13.06 31.38c.66 1.58 2.52 2.64 4.62 2.64h15.68m0 0h19.13c2.69 0 4.87-1.72 4.87-3.85v-165.34c0-2.12-2.18-3.85-4.86-3.85h-19.14" class="st7"/><path d="M1031.2 1280h-21.75c-4.21 0-7.94-2.14-9.25-5.3l-11.71-28.14c-.32-.76-.49-1.58-.49-2.41V999.19c0-4.19 4.3-7.59 9.6-7.59h33.6" class="st8"/><path d="M1031.2 1280h19.2c5.3 0 9.6-3.4 9.6-7.59V999.2c0-4.19-4.3-7.59-9.6-7.59h-19.2" class="st3"/><path d="M1012 1135.49v-118.9c0-1.06 1.09-1.92 2.43-1.92h34.51c.81 0 1.46.52 1.46 1.16v136.12c0 .64-.65 1.16-1.46 1.16h-27.98c-1.05 0-1.98-.53-2.31-1.32l-6.53-15.69c-.08-.19-.12-.4-.12-.6Z" class="st0"/><path d="M1048.44 1014.67v138.43" class="st12"/><path d="M1042.78 1014.67v138.43" class="st13"/><path d="M1037.13 1014.67v138.43" class="st15"/><path d="M1031.48 1014.67v138.43" class="st9"/><path d="M1012 1135.8v-119.2c0-1.06 1.09-1.92 2.43-1.92h33.54c1.34 0 2.43.86 2.43 1.92v134.59c0 1.06-1.09 1.92-2.43 1.92h-27.01c-1.05 0-1.98-.53-2.31-1.32l-6.65-15.98Z" class="st2"/><path d="M1031.2 1003.14h-28.74c-2.68 0-4.86 1.72-4.86 3.85v133.97c0 .41.08.81.24 1.2l13.06 31.38c.66 1.58 2.52 2.64 4.62 2.64h15.68" class="st9"/><path d="M1031.2 1176.18h19.13c2.69 0 4.87-1.72 4.87-3.85v-165.34c0-2.12-2.18-3.85-4.86-3.85h-19.14" class="st4"/><path d="M1600 702.07v21.75c0 4.21-2.14 7.94-5.3 9.25l-28.14 11.71c-.78.32-1.59.49-2.41.49h-244.96c-4.19 0-7.59-4.3-7.59-9.6v-33.6m288.4 0v-19.2c0-5.3-3.4-9.6-7.59-9.6H1319.2c-4.19 0-7.59 4.3-7.59 9.6v19.2" class="st6"/><path d="M1455.49 721.27h-118.9c-1.06 0-1.92-1.09-1.92-2.43v-34.51c0-.81.52-1.46 1.16-1.46h136.12c.64 0 1.16.65 1.16 1.46v27.98c0 1.05-.53 1.98-1.32 2.31l-15.69 6.53c-.19.08-.4.12-.6.12h-.01Z" class="st18"/><path d="M1334.67 684.84h138.43" class="st11"/><path d="M1334.67 690.49h138.43" class="st10"/><path d="M1334.67 696.14h138.43" class="st14"/><path d="M1334.67 701.79h138.43" class="st7"/><path d="M1455.8 721.27h-119.2c-1.06 0-1.92-1.09-1.92-2.43V685.3c0-1.34.86-2.43 1.92-2.43h134.59c1.06 0 1.92 1.09 1.92 2.43v27.01c0 1.05-.53 1.98-1.32 2.31l-15.98 6.65h-.01Z" class="st5"/><path d="M1323.14 702.07v28.74c0 2.68 1.72 4.86 3.85 4.86h133.97c.41 0 .81-.08 1.2-.24l31.38-13.06c1.58-.66 2.64-2.52 2.64-4.62v-15.68m0 0v-19.13c0-2.69-1.72-4.87-3.85-4.87h-165.34c-2.12 0-3.85 2.18-3.85 4.86v19.14" class="st7"/><path d="M1600 696.8v21.75c0 4.21-2.14 7.94-5.3 9.25l-28.14 11.71c-.78.32-1.59.49-2.41.49h-244.96c-4.19 0-7.59-4.3-7.59-9.6v-33.6" class="st8"/><path d="M1600 696.8v-19.2c0-5.3-3.4-9.6-7.59-9.6H1319.2c-4.19 0-7.59 4.3-7.59 9.6v19.2" class="st3"/><path d="M1455.49 716h-118.9c-1.06 0-1.92-1.09-1.92-2.43v-34.51c0-.81.52-1.46 1.16-1.46h136.12c.64 0 1.16.65 1.16 1.46v27.98c0 1.05-.53 1.98-1.32 2.31l-15.69 6.53c-.19.08-.4.12-.6.12h-.01Z" class="st0"/><path d="M1334.67 679.56h138.43" class="st12"/><path d="M1334.67 685.22h138.43" class="st13"/><path d="M1334.67 690.87h138.43" class="st15"/><path d="M1334.67 696.52h138.43" class="st9"/><path d="M1455.8 716h-119.2c-1.06 0-1.92-1.09-1.92-2.43v-33.54c0-1.34.86-2.43 1.92-2.43h134.59c1.06 0 1.92 1.09 1.92 2.43v27.01c0 1.05-.53 1.98-1.32 2.31l-15.98 6.65h-.01Z" class="st2"/><path d="M1323.14 696.8v28.74c0 2.68 1.72 4.86 3.85 4.86h133.97c.41 0 .81-.08 1.2-.24l31.38-13.06c1.58-.66 2.64-2.52 2.64-4.62V696.8" class="st9"/><path d="M1496.18 696.8v-19.13c0-2.69-1.72-4.87-3.85-4.87h-165.34c-2.12 0-3.85 2.18-3.85 4.86v19.14" class="st4"/><path d="M1022.07 128h21.75c4.21 0 7.94 2.14 9.25 5.3l11.71 28.14c.32.78.49 1.59.49 2.41v244.96c0 4.19-4.3 7.59-9.6 7.59h-33.6m0-288.4h-19.2c-5.3 0-9.6 3.4-9.6 7.59V408.8c0 4.19 4.3 7.59 9.6 7.59h19.2" class="st6"/><path d="M1041.27 272.51v118.9c0 1.06-1.09 1.92-2.43 1.92h-34.51c-.81 0-1.46-.52-1.46-1.16V256.05c0-.64.65-1.16 1.46-1.16h27.98c1.05 0 1.98.53 2.31 1.32l6.53 15.69c.08.19.12.4.12.6Z" class="st18"/><path d="M1004.84 393.33V254.9" class="st11"/><path d="M1010.49 393.33V254.9" class="st10"/><path d="M1016.14 393.33V254.9" class="st14"/><path d="M1021.79 393.33V254.9" class="st7"/><path d="M1041.27 272.2v119.2c0 1.06-1.09 1.92-2.43 1.92h-33.54c-1.34 0-2.43-.86-2.43-1.92V256.81c0-1.06 1.09-1.92 2.43-1.92h27.01c1.05 0 1.98.53 2.31 1.32l6.65 15.98Z" class="st5"/><path d="M1022.07 404.86h28.74c2.68 0 4.86-1.72 4.86-3.85V267.04c0-.41-.08-.81-.24-1.2l-13.06-31.38c-.66-1.58-2.52-2.64-4.62-2.64h-15.68m0 0h-19.13c-2.69 0-4.87 1.72-4.87 3.85v165.34c0 2.12 2.18 3.85 4.86 3.85h19.14" class="st7"/><path d="M1016.8 128h21.75c4.21 0 7.94 2.14 9.25 5.3l11.71 28.14c.32.78.49 1.59.49 2.41v244.96c0 4.19-4.3 7.59-9.6 7.59h-33.6" class="st8"/><path d="M1016.8 128h-19.2c-5.3 0-9.6 3.4-9.6 7.59V408.8c0 4.19 4.3 7.59 9.6 7.59h19.2" class="st3"/><path d="M1036 272.51v118.9c0 1.06-1.09 1.92-2.43 1.92h-34.51c-.81 0-1.46-.52-1.46-1.16V256.05c0-.64.65-1.16 1.46-1.16h27.98c1.05 0 1.98.53 2.31 1.32l6.53 15.69c.08.19.12.4.12.6Z" class="st0"/><path d="M999.56 393.33V254.9" class="st12"/><path d="M1005.22 393.33V254.9" class="st13"/><path d="M1010.87 393.33V254.9" class="st15"/><path d="M1016.52 393.33V254.9" class="st9"/><path d="M1036 272.2v119.2c0 1.06-1.09 1.92-2.43 1.92h-33.54c-1.34 0-2.43-.86-2.43-1.92V256.81c0-1.06 1.09-1.92 2.43-1.92h27.01c1.05 0 1.98.53 2.31 1.32l6.65 15.98Z" class="st2"/><path d="M1016.8 404.86h28.74c2.68 0 4.86-1.72 4.86-3.85V267.04c0-.41-.08-.81-.24-1.2l-13.06-31.38c-.66-1.58-2.52-2.64-4.62-2.64h-15.68" class="st9"/><path d="M1016.8 231.82h-19.13c-2.69 0-4.87 1.72-4.87 3.85v165.34c0 2.12 2.18 3.85 4.86 3.85h19.14" class="st4"/><path d="M1023.95 928.41c-30.2 0-59.6-5.96-87.39-17.71-26.74-11.31-50.71-27.46-71.26-48-20.54-20.54-36.69-44.52-48-71.25-11.75-27.78-17.71-57.19-17.71-87.39s5.96-59.6 17.71-87.39c11.31-26.74 27.46-50.71 48-71.26s44.52-36.69 71.26-48c27.78-11.75 57.19-17.71 87.39-17.71s59.6 5.96 87.39 17.71c26.74 11.31 50.71 27.46 71.25 48s36.69 44.52 48 71.26c11.75 27.78 17.71 57.19 17.71 87.39s-5.96 59.6-17.71 87.39c-11.31 26.74-27.46 50.71-48 71.25s-44.52 36.69-71.25 48c-27.78 11.75-57.19 17.71-87.39 17.71Z" class="st0"/><path d="M1023.95 864.3c-88.36 0-160.25-71.89-160.25-160.25s71.89-160.25 160.25-160.25 160.25 71.89 160.25 160.25-71.89 160.25-160.25 160.25Z" class="st16"/><path d="M1023.95 832.25c-70.69 0-128.2-57.51-128.2-128.2s57.51-128.2 128.2-128.2 128.2 57.51 128.2 128.2-57.51 128.2-128.2 128.2Z" class="st0"/><path d="M1023.95 768.15c-35.35 0-64.1-28.76-64.1-64.1s28.76-64.1 64.1-64.1 64.1 28.76 64.1 64.1-28.76 64.1-64.1 64.1Z" class="st16"/><circle cx="1023.95" cy="704.05" r="32.05" class="st0"/><path d="M326.09 1392.76H320v24.39h6.09v6.09h6.1v-6.1h-6.1v-6.09h6.1v6.09h6.09v-12.19h-6.09v-6.09h-6.1v-6.1Zm0-48.76H320v42.67h18.28v-6.1h-12.19v-30.47h12.19v-6.1h-12.19Zm0 85.33H320V1472h18.28v-6.09h-12.19v-30.48h12.19v-6.1h-12.19Z" class="st0"/><path d="M332.19 1356.19h6.09v18.29h-6.09v-18.29Zm0 36.57h6.09v6.09h-6.09v-6.09Zm0 48.77h6.09v18.29h-6.09v-18.29Zm12.19-97.53h-6.1v6.1h18.29v-6.1h-12.19Zm6.09 30.48v-18.29h-12.19v18.29h12.19Zm-6.09 6.09h-6.1v6.1h18.29v-6.1h-12.19Zm0 12.19h-6.1v12.2h6.1v6.09h-6.1v12.19h18.29v-6.1h-6.1v-6.09h6.1v-6.1h-6.1v-6.09h6.1v-6.1h-12.19Zm0 36.57h-6.1v6.1h18.29v-6.1h-12.19Zm6.09 30.48v-18.28h-12.19v18.28h12.19Zm-6.09 6.1h-6.1v6.09h18.29v-6.09h-12.19ZM356.57 1344h6.09v42.67h-6.09V1344Zm0 48.76h6.09v6.09h-6.09v-6.09Zm0 12.19h6.09v6.09h-6.09v-6.09Zm0 12.19v6.1h12.19v-6.1h-12.19Zm0 24.39V1472h6.1v-42.67h-6.1v12.2Zm18.29-85.34h-6.1v36.57h6.1v-18.28h6.09v-6.1h-6.09v-12.19Zm-6.1 48.76h6.09v6.09h-6.09v-6.09Zm0 60.96h6.09v6.09h-6.09v-6.09Zm6.1-67.05v6.09h12.19v-6.09h-12.19Zm0 12.19v6.09h6.09v6.1h-12.19v6.09h6.1v6.1h-6.1v6.09h18.29v-6.09h-6.1v-12.19h6.1v-12.19h-12.19Zm6.09 42.67v-12.19h-12.19v18.28h6.1v-6.09h6.09Z" class="st0"/><path d="M374.86 1459.81v6.1h6.09v6.09h6.1v-12.19h-12.19Zm6.09-103.62h6.09v12.19h-6.09v-12.19Zm0 18.29h6.09v18.29h-6.09v-18.29Zm6.1 30.47h6.09v6.09h-6.09v-6.09Zm0 60.96h6.09v6.09h-6.09v-6.09Zm12.19-115.81v-6.1h-12.19v6.1h12.19Zm-6.1 6.09h6.09v6.09h-6.09v-6.09Zm0 12.19h-6.09v6.1h6.09v12.19h-6.09v6.09h6.09v12.19h6.1v-36.57h-6.1Zm6.1 73.15h-6.1v12.18h-6.09v6.1h6.09v-6.09h6.1v6.09h6.09v-12.19h-6.09v-6.09Zm0-18.29h-6.1v-6.1h-6.09v12.19h6.09v6.1h-6.09v6.09h12.19v-6.09h6.09v-30.48h-6.09v18.29Zm6.09-79.24v42.67h12.19v-6.1h-6.09v-30.47h6.09v-6.1h-12.19Zm0 48.76v6.1h6.1v6.09h-6.1v6.1h6.1v-6.09h6.09v-12.2h-12.19Zm0 24.38h6.09v6.09h-6.09v-6.09Zm6.1-6.09h6.09v6.09h-6.09v-6.09Zm0 12.19h6.09v12.19h-6.09v-12.19Zm0 24.38h-6.1v6.09h6.1l6.09.01v-12.19h-6.09v6.09Zm0 18.29h6.09v6.09h-6.09v-6.09Zm6.09-18.29h6.09v6.09h-6.09v-6.09Zm6.1-103.62h-6.1v6.1h18.29v-6.1h-12.19Zm0 12.19h-6.1v18.29h18.29v-18.29h-12.19Zm0 24.38h-6.1v6.1h18.29v-6.1h-12.19Zm0 12.19h-6.1v12.2h12.19v6.09h-12.19v18.28h6.1v12.19h12.19v-18.28h-12.19v-6.1h6.09l6.1.01v-24.39h-12.19Zm0 67.05h-6.1v6.1h6.1v6.09h6.09v-6.09h6.1v-6.1h-6.1v-6.1h-6.09v6.1Zm6.09-12.19h6.09v6.09h-6.09v-6.09Zm6.1-48.76v24.38h6.1v6.09H448v-6.09h-6.09v-18.29H448v-6.09h-12.19Zm0 30.47h6.09v6.09h-6.09v-6.09Zm0 36.58h6.09v6.09h-6.09v-6.09Zm6.1-121.91h-6.1v6.1h6.1v30.47h-6.1v6.1H448V1344h-6.09Zm0 91.43H448v6.09h-6.09v-6.09Zm0 6.1H448v6.09h-6.09v-6.09Z" class="st0"/><path d="M599.25 1466.56c-.71 1.51-.95 2.46-1.23 3.85-2.74 1.23-5.91 1.59-8.06 1.59-8.13 0-14.01-4.21-14.01-12.62s5.91-16.03 16.55-16.03c3.77 0 7.54.87 10.63 3.06-.75 1.55-1.03 2.62-1.23 4.37l-.99-.08c-1.15-3.49-4.76-4.64-7.26-4.64-7.94 0-10.83 9.48-10.83 15.12 0 6.67 4.64 8.14 7.66 8.14s5.83-1.11 8.06-3.06l.71.32v-.02Zm12.53 1.79c2.14 0 3.53-1.98 4.21-3.81 1.51-4.05 2.38-9.4 2.86-12.7 1.23.16 2.42.24 3.49.24 1.19 0 2.34-.12 3.02-.24-1.11 4.01-3.26 12.86-4.17 19.56-.83-.12-1.71-.24-2.94-.24-1.03 0-2.34.12-3.41.24.32-1.03.59-2.06.83-3.09-.87 1.07-2.9 3.53-7.06 3.53-3.21 0-5.24-1.71-5.24-4.52 0-1.98.87-5 1.27-6.83.64-3.02 1.19-5.67 1.59-8.65 1.15.16 2.7.24 3.89.24 1.27 0 2.1-.12 3.05-.24-2.46 8.69-3.57 12.7-3.57 14.25 0 1.27.87 2.26 2.18 2.26Zm25.55 3.65c-3.85 0-5.44-2.1-6.15-3.01-1.43.79-2.3 1.43-3.65 2.42-.32-.08-.6-.12-.75-.12-.04 0-.48 0-.91.12 1.31-4.52 1.59-5.95 5.16-22.18.91-4.17 1.03-5.83 1.19-7.22 1.27.16 2.02.24 3.29.24s2.06-.08 3.34-.24c-.44 1.39-.71 2.38-1.07 3.77-.32 1.23-1.51 6.71-1.75 7.82 1.55-1.55 3.57-2.34 5.68-2.34 4.6 0 7.26 3.69 7.26 7.7 0 5.75-3.77 13.06-11.63 13.06v-.02Zm2.1-18.02c-2.1 0-3.29 1.91-4.01 3.93-.95 2.66-1.87 6.27-1.87 8.81 0 1.83.99 3.13 2.9 3.13 1.23 0 2.62-.55 4.01-3.69 1.43-3.25 2.1-6.75 2.1-8.49 0-2.66-1.71-3.69-3.13-3.69Zm29.12 17.03c-1.23.59-2.42.71-3.41.71-1.98 0-3.21-.67-4.09-2.74-.71.95-2.22 2.94-5.48 2.94-2.86 0-5.47-1.63-5.47-5.12 0-5.99 6.19-6.43 9.17-6.63 2.22-.16 3.33-.28 3.33-2.38 0-2.26-1.11-3.29-3.41-3.29-1.79 0-3.53.67-5 1.71.04-.44.08-.87.08-1.31 0-.48 0-.91-.08-1.39 2.18-1.23 4.64-2.1 7.54-2.1s6.71.79 6.71 5.56c0 1.98-.59 4.05-1.11 6.11-.52 1.98-1.07 4.37-1.07 5.32 0 .83.36 1.43 1.27 1.43.44 0 .87-.08 1.27-.2l-.24 1.39h-.01Zm-12.66-4.52c0 1.27.63 2.34 2.02 2.34s2.14-.87 2.54-2.1c.32-.95.99-3.69 1.27-4.88-1.55.04-5.83.2-5.83 4.64Zm31.66 1.9c-.59.87-1.03 1.63-1.55 2.7-1.51.59-3.13.83-4.76.83-5.75 0-10.08-3.69-10.08-9.25 0-4.37 3.06-11.15 11.63-11.15 3.05 0 5.55 1.07 7.06 2.22-.99 1.98-1.39 3.53-1.67 4.44l-1.27-.16c.16-2.38-.79-4.21-3.45-4.21-4.01 0-5.72 5.48-5.72 9.37 0 3.33 1.47 6.03 5.12 6.03 1.15 0 2.54-.28 4.01-1.51l.67.67v.02Zm21.11 0c-.12.24-.71 1.15-1.27 2.34-.95.36-3.13 1.23-6.67 1.23-6.11 0-9.84-3.53-9.84-9.09s4.21-11.43 11.31-11.43c4.76 0 7.82 2.46 7.82 7.42 0 1.23-.16 2.3-.48 3.49-.87-.12-2.22-.32-5.08-.32h-7.06c-.04.36-.08.91-.08 1.27 0 2.38 1.27 5.99 5.6 5.99 2.78 0 4.37-1.11 5.2-1.75l.56.83v.02Zm-4.92-8.41c.28-.91.76-2.58.76-4.33s-1.15-2.42-2.1-2.42c-2.9 0-4.44 3.81-4.84 6.75h6.19-.01Zm17.26-17.74c1.23 0 2.1-.08 3.37-.24-1.31 4.96-4.88 20.95-6.39 29.41-.67-.08-1.87-.24-3.21-.24s-2.54.16-3.25.24c.87-2.86 1.63-5.71 2.26-8.61 2.66-12.14 2.94-13.49 4.05-20.79 1.03.16 1.98.24 3.18.24Z" class="st18"/><path d="M746.07 1463.51c-.99 4.6-1.19 6.39-1.39 7.9-1.23-.16-2.5-.2-3.77-.2-1.19 0-2.38.08-3.57.2 1.98-6.98 4.88-20.28 5.32-24.29-.55-.04-1.15-.04-1.79-.04-1.98 0-4.17.16-5.55.36.44-1.27.63-2.22.71-3.49 3.61.16 7.66.2 10.83.2 3.33 0 8.22-.12 10.83-.2-.4 1.07-.67 2.3-.79 3.49-1.59-.28-3.25-.36-4.52-.36-.71 0-1.63 0-2.5.04-.71 2.18-1.51 5.71-3.81 16.39Zm16.15 4.84c2.14 0 3.53-1.98 4.21-3.81 1.51-4.05 2.38-9.4 2.86-12.7 1.23.16 2.42.24 3.49.24 1.19 0 2.34-.12 3.01-.24-1.11 4.01-3.25 12.86-4.17 19.56-.83-.12-1.71-.24-2.94-.24-1.03 0-2.34.12-3.41.24.32-1.03.6-2.06.83-3.09-.87 1.07-2.9 3.53-7.06 3.53-3.21 0-5.24-1.71-5.24-4.52 0-1.98.87-5 1.27-6.83.63-3.02 1.19-5.67 1.59-8.65 1.15.16 2.7.24 3.89.24 1.27 0 2.1-.12 3.06-.24-2.46 8.69-3.57 12.7-3.57 14.25 0 1.27.87 2.26 2.18 2.26Zm29.51-10.75c-.44-.24-.91-.48-1.91-.48-2.58 0-3.97 1.79-4.64 4.05-.67 2.22-1.67 7.78-1.98 10.24-1.13-.16-2.27-.24-3.41-.24-.99 0-2.1.12-3.13.24.99-3.73 3.57-14.17 4.09-19.56 1.19.12 2.14.24 3.37.24 1.31 0 2.38-.12 3.06-.24-.52 1.63-.76 2.7-1.15 4.52.71-1.27 2.62-4.88 6.31-4.88.36 0 .63.04.83.08-.67 2.1-.95 3.61-1.03 5.79l-.4.24h-.01Z" class="st0"/><path d="M1727.26 1455.55h-1.58c-.4 0-.74.3-.74.71v8.34c0 3.19-1.59 4.84-3.81 4.84-1.22 0-1.92-.67-1.92-2.15v-11.03c0-.4-.37-.71-.78-.71h-1.55c-.4 0-.77.3-.77.71v11.5c0 2.76 1.62 4.24 4.08 4.24 2.73 0 3.95-1.38 4.89-2.39l.4 1.58c.1.4.37.64.74.64h1.04c.4 0 .74-.34.74-.74v-14.83c0-.4-.34-.71-.74-.71Zm-14.5 13.89c-.1-.37-.37-.67-.88-.5-.67.17-1.45.27-2.33.27-2.53 0-3.78-1.82-3.78-5.67 0-3.54 1.42-5.56 3.54-5.56.91 0 1.65.23 2.16.44.54.2.77-.1.91-.44l.4-1.18c.1-.37-.07-.71-.54-.91-.67-.3-1.79-.57-2.93-.57-4.05 0-6.77 3.43-6.77 8.22 0 5.56 2.66 8.46 6.7 8.46 1.21 0 2.26-.13 3.24-.44.47-.17.61-.5.54-.87l-.27-1.25h.01Zm-15.11-1.89c-1.25 0-2.22.98-2.22 2.22s.98 2.23 2.22 2.23 2.23-.98 2.23-2.23-.98-2.22-2.23-2.22Zm-6.29-.2v-5.87c0-2.73-.44-6.17-5.8-6.17-1.45 0-3.1.37-4.08.64-.4.1-.57.44-.47.87l.27 1.25c.1.44.44.67.88.54.91-.23 1.92-.57 3.24-.57 2.4 0 2.94.91 2.94 2.87v.81l-3.71.23c-2.73.2-5.05 1.62-5.05 5.22 0 3.03 1.65 4.82 4.35 4.82 1.86 0 3.61-.67 4.65-2.32l.24 1.48c.07.47.37.67.77.67h1.55c.44 0 .67-.3.6-.74l-.2-.98c-.2-1.01-.17-1.92-.17-2.76h-.01Zm-3.03-.91c0 1.25-1.38 3.1-3.54 3.1-1.25 0-2.13-.74-2.13-2.36 0-2.53 1.48-3.14 3.54-3.2l2.13-.07v2.53Zm-15.72-4.22c-1.45-.81-2.77-1.48-2.77-2.63 0-1.08.77-1.82 2.19-1.82 1.01 0 2.09.37 2.76.61.37.17.71.03.88-.4l.37-.98c.17-.44-.04-.77-.4-.94-1.01-.47-1.98-.74-3.64-.74-3.24 0-5.19 1.85-5.19 4.48 0 2.36 1.85 3.51 3.64 4.52 1.65.88 3.21 1.65 3.21 3.07 0 1.22-.74 1.96-2.3 1.96-1.32 0-2.63-.4-3.74-.91-.4-.2-.77 0-.91.47l-.37 1.21c-.13.4 0 .74.4.94 1.28.61 3.1.94 4.62.94 3.47 0 5.39-2.05 5.39-4.68 0-2.76-2.22-4.01-4.14-5.09Zm-9.27 7.22c-.1-.37-.37-.67-.88-.5-.67.17-1.45.27-2.33.27-2.53 0-3.78-1.82-3.78-5.67 0-3.54 1.42-5.56 3.54-5.56.91 0 1.65.23 2.16.44.54.2.77-.1.91-.44l.4-1.18c.1-.37-.07-.71-.54-.91-.67-.3-1.79-.57-2.93-.57-4.05 0-6.77 3.43-6.77 8.22 0 5.56 2.66 8.46 6.7 8.46 1.21 0 2.26-.13 3.24-.44.47-.17.61-.5.54-.87l-.27-1.25h.01Zm-19.3-14.12c-3.71 0-6.2 3.2-6.2 8.29 0 5.53 2.59 8.39 7.21 8.39 1.96 0 3.1-.3 4.18-.77.37-.17.57-.51.44-.91l-.37-1.08c-.13-.37-.4-.64-.91-.47-.98.27-1.89.57-3.17.57-3.04 0-4.05-1.76-4.18-4.89h8.4c.4 0 .74-.34.74-.74 0-6.2-2.69-8.39-6.13-8.39Zm-3 6.81c.34-3.51 1.86-4.35 3.1-4.35 2.09 0 2.83 2.19 2.9 4.35h-6Zm-5.91 7.14c-.3.07-.74.13-1.05.13-.77 0-1.15-.4-1.15-1.31v-10.15h1.92c.4 0 .74-.34.74-.74v-.91c0-.4-.34-.74-.74-.74h-1.92v-4.25c0-.57-.44-.67-.94-.5l-1.52.44c-.37.1-.57.47-.57.88v3.44h-1.82c-.44 0-.71.34-.71.74v.91c0 .4.27.74.71.74h1.82v10.66c0 2.25 1.08 3.4 3.5 3.4.81 0 1.62-.1 2.19-.27.44-.13.54-.47.5-.88l-.17-1.04c-.07-.4-.44-.6-.81-.54h.02Zm-15.8-13.95c-3.71 0-6.2 3.2-6.2 8.29 0 5.53 2.59 8.39 7.21 8.39 1.96 0 3.1-.3 4.18-.77.37-.17.57-.51.44-.91l-.37-1.08c-.13-.37-.4-.64-.91-.47-.98.27-1.89.57-3.17.57-3.04 0-4.05-1.76-4.18-4.89h8.39c.4 0 .74-.34.74-.74 0-6.2-2.69-8.39-6.13-8.39Zm-3 6.81c.34-3.51 1.86-4.35 3.1-4.35 2.09 0 2.83 2.19 2.9 4.35h-6Zm-8.11 5.42c-1.25 0-2.22.98-2.22 2.22s.98 2.23 2.22 2.23 2.22-.98 2.22-2.23-.98-2.22-2.22-2.22Zm-4.61-12h-1.72c-.44 0-.74.23-.84.67l-1.92 10.36c-.2 1.04-.34 2.59-.47 3.63-.1-1.08-.3-2.59-.54-3.63l-2.33-10.33a.898.898 0 0 0-.88-.71h-2.29c-.4 0-.74.23-.84.67l-2.4 10.36c-.23 1.04-.37 2.59-.54 3.63-.07-1.08-.17-2.56-.4-3.66l-1.99-10.29c-.1-.5-.37-.71-.84-.71h-1.89c-.4 0-.71.3-.57.87l3.44 14.74c.13.5.37.67.81.67h2.73c.44 0 .78-.24.88-.67l2.26-10.06c.2-1.01.34-2.25.47-3.53.13 1.24.2 2.52.44 3.53l2.22 10.06c.1.5.37.67.78.67h2.76c.47 0 .74-.24.84-.67l3.37-14.77c.13-.54-.17-.84-.54-.84Zm-23.55 0h-1.72c-.44 0-.74.23-.84.67l-1.92 10.36c-.2 1.04-.34 2.59-.47 3.63-.1-1.08-.3-2.59-.54-3.63l-2.32-10.33a.898.898 0 0 0-.88-.71h-2.29c-.4 0-.74.23-.84.67l-2.39 10.36c-.24 1.04-.37 2.59-.54 3.63-.07-1.08-.17-2.56-.4-3.66l-1.99-10.29c-.1-.5-.37-.71-.84-.71h-1.89c-.4 0-.71.3-.57.87l3.44 14.74c.13.5.37.67.81.67h2.73c.44 0 .77-.24.88-.67l2.26-10.06c.2-1.01.34-2.25.47-3.53.13 1.24.2 2.52.44 3.53l2.23 10.06c.1.5.37.67.77.67h2.76c.47 0 .74-.24.84-.67l3.37-14.77c.13-.54-.17-.84-.54-.84h-.02Zm-23.56 0h-1.72c-.44 0-.74.23-.84.67l-1.92 10.36c-.2 1.04-.34 2.59-.47 3.63-.1-1.08-.3-2.59-.54-3.63l-2.32-10.33a.898.898 0 0 0-.88-.71h-2.29c-.4 0-.74.23-.84.67l-2.39 10.36c-.24 1.04-.37 2.59-.54 3.63-.07-1.08-.17-2.56-.4-3.66l-1.99-10.29c-.1-.5-.37-.71-.84-.71h-1.89c-.4 0-.71.3-.57.87l3.44 14.74c.13.5.37.67.81.67h2.73c.44 0 .77-.24.88-.67l2.26-10.06c.2-1.01.34-2.25.47-3.53.13 1.24.2 2.52.44 3.53l2.23 10.06c.1.5.37.67.77.67h2.77c.47 0 .74-.24.84-.67l3.37-14.77c.13-.54-.17-.84-.54-.84h-.03Zm-203.85 14.6 18.37-17.99-11.59.03-12.67 12.43c1.66 2.56 3.72 4.22 5.88 5.53m-6.85-7.22c-4.45-9.49.29-16.69 3.01-19.39 1.64-1.52 9.22-8.56 20.32-3.49l-23.33 22.88Zm32.25-2.01h-12.78l-10.46 10.28c11.91 4.34 20.71-3.32 23.23-10.28m6.25-.7c.6-3.19.96-5.39 1.25-7.9 1.71.03 3.44.14 5.16.14 2.85 0 5.31-.06 6.11-.14-.12.34-.25.69-.34 1.2-.11.6-.1.85-.12 1.28-2.19-.14-5.64-.34-6.52-.34-.54 2.08-.92 4.13-1.32 6.22 2.54-.06 4.42-.11 6.65-.23-.24.66-.32.91-.39 1.28-.06.31-.05.57-.07 1.17-2.18-.17-4.35-.26-6.56-.26-.23 1.2-.49 2.42-.72 3.65-.23 1.2-.43 2.42-.58 3.56 2.18 0 4.45-.12 6.74-.37-.13.4-.24.68-.36 1.28-.11.6-.11.88-.11 1.23-1.04-.03-2.39-.14-5.07-.14-4.75 0-5.55.08-6.2.14.65-2.51 1.12-4.7 1.72-7.9l.73-3.88Zm17.65-3.25c.2-1.08.4-2.11.39-2.51-1.14 0-3.61.17-5.4.37.17-.43.3-.83.38-1.25.08-.43.1-.83.09-1.25 2.63.09 3.93.14 7.55.14s4.93-.06 7.42-.14c-.17.43-.3.83-.38 1.25-.08.43-.1.83-.09 1.25-1.53-.2-3.95-.37-5.11-.37-.13.4-.33 1.43-.53 2.51l-1.34 7.13c-.6 3.19-.96 5.39-1.25 7.9-.63-.06-1.4-.14-2.36-.14s-1.76.09-2.41.14c.65-2.51 1.12-4.71 1.72-7.9l1.34-7.13h-.02Zm10.67 3.25c.6-3.19.96-5.39 1.25-7.9 1.71.03 3.44.14 5.16.14 2.85 0 5.31-.06 6.11-.14-.12.34-.25.69-.34 1.2-.11.6-.1.85-.12 1.28-2.19-.14-5.64-.34-6.52-.34-.54 2.08-.92 4.13-1.32 6.22 2.54-.06 4.42-.11 6.65-.23-.24.66-.32.91-.39 1.28-.06.31-.05.57-.07 1.17-2.18-.17-4.35-.26-6.56-.26-.23 1.2-.49 2.42-.72 3.65-.23 1.2-.43 2.42-.58 3.56 2.18 0 4.45-.12 6.74-.37-.13.4-.24.68-.36 1.28-.11.6-.11.88-.11 1.23-1.04-.03-2.39-.14-5.07-.14-4.75 0-5.55.08-6.2.14.65-2.51 1.12-4.7 1.72-7.9l.73-3.88Zm27.77 8.47c-.47.8-.86 1.63-1.1 2.42-1.69.8-3.79 1.26-6.18 1.26-6.76 0-9.97-4.14-8.95-9.52 1.48-7.87 7.5-10.89 13.61-10.89 2.04 0 4.49.6 5.68 1.4-.56.94-.95 1.94-1.22 2.91h-.41c-1.12-1.77-2.46-2.54-4.53-2.54-3.12 0-7.14 2.65-8.28 8.7-1.1 5.87 2.01 8.18 5.36 8.18 1.86 0 4.18-.85 5.67-2.14l.34.23h.01Zm13.4-12.51c-.31-1.63-1.29-2.45-3.06-2.45s-3.25 1.2-3.51 2.57c-.79 4.22 8.26 3.17 7.04 9.64-.72 3.82-4.3 6.44-8.93 6.44-2.1 0-3.73-.6-4.46-1.22.63-1.31 1.08-2.34 1.53-3.62h.55c0 1.65 1.08 3.08 3.44 3.08s3.65-1.31 3.95-2.91c.81-4.31-8.08-3.17-6.86-9.64.74-3.93 4.24-6.1 7.7-6.1 2.1 0 3.57.54 4.51 1.4-.52.88-.85 1.57-1.46 2.82h-.44Zm18.2 15.82c-.92-.06-1.72-.14-2.53-.14s-1.68.09-2.5.14c-.25-1.94-.55-3.91-.91-5.84-1.25-.03-2.46-.06-3.72-.06-1.02 0-2.01.03-3.04.06-1.12 1.9-2.15 3.84-3.08 5.84-.46-.06-.88-.14-1.34-.14s-.92.09-1.48.14c2.02-3.17 8.3-13.31 12.03-19.82.37.06.7.14 1.08.14s.75-.09 1.13-.14c1.25 6.5 3.03 15.17 4.36 19.82m-6.3-7.53c-.41-2.31-.8-4.56-1.31-6.79-1.41 2.22-2.74 4.48-4.02 6.79h5.33Z" class="st19"/></g></g><g id="frame1"><path d="M256 0h1536v1536H256V0Z" class="st17"/><path d="M0 0h2048v1536H0V0Z" class="st17"/><g class="st20"><path d="M0 384h2048v768H0V384Z" class="st16"/></g><path d="M512 0h1024v1536H512V0Z" class="st17"/><path d="M1041.32 991.6h-80.84c-12.76 0-23.1 10.33-23.1 23.07v221.17c0 6.12 2.43 11.99 6.77 16.31l21.11 21.09a23.101 23.101 0 0 0 16.33 6.76h59.72" class="st8"/><path d="M1041.32 1280h46.19c12.76 0 23.1-10.33 23.1-23.07v-242.25c0-12.74-10.34-23.07-23.1-23.07h-46.19" class="st3"/><path d="M995.14 1133.41v-112.97c0-3.19 2.58-5.77 5.77-5.77h80.84c3.18 0 5.78 2.58 5.77 5.77v126.9c0 3.19-2.58 5.77-5.77 5.77h-66.89c-1.53 0-3-.61-4.08-1.69l-13.93-13.93a5.72 5.72 0 0 1-1.7-4.07Z" class="st0"/><path d="M995.14 1133.41v-112.97c0-3.19 2.58-5.77 5.77-5.77h80.84c3.18 0 5.78 2.58 5.77 5.77v126.9c0 3.19-2.58 5.77-5.77 5.77h-66.89c-1.53 0-3-.61-4.08-1.69l-13.93-13.93a5.72 5.72 0 0 1-1.7-4.07Z" class="st2"/><path d="M1041.32 1003.13h-69.28c-6.38 0-11.55 5.17-11.54 11.54v122.12c0 3.05 1.22 6 3.38 8.16l27.88 27.85c2.16 2.16 5.11 3.38 8.16 3.38h41.41" class="st9"/><path d="M1041.32 1176.18h46.19c6.38 0 11.55-5.17 11.54-11.54v-149.96c0-6.36-5.17-11.53-11.54-11.54h-46.19" class="st4"/><path d="m1087.51 1071.55-46.19 12.33m46.19-46.04-46.19 46.05m18.61-69.22-18.6 69.22m-18.62-69.22 18.61 69.21m-46.19-46.03 46.2 46.04m-46.2-12.34 46.2 12.34m-46.2 12.34 46.2-12.34m-46.2 46.05 46.2-46.05m-18.61 69.21 18.6-69.22m18.61 69.22-18.6-69.22m46.18 46.05-46.19-46.05m46.2 12.35-46.2-12.34" class="st2"/><path d="M1058.46 1088.47v-9.16l-4.59-7.93-7.95-4.57h-9.19l-7.95 4.57-4.6 7.93v9.16l4.6 7.93 7.96 4.58h9.18l7.96-4.58 4.59-7.93Z" class="st1"/><path d="M1311.6 686.68v80.84c0 12.76 10.33 23.1 23.07 23.1h221.17c6.12 0 11.99-2.43 16.31-6.77l21.09-21.11a23.101 23.101 0 0 0 6.76-16.33v-59.72" class="st8"/><path d="M1600 686.68v-46.19c0-12.76-10.33-23.1-23.07-23.1h-242.25c-12.74 0-23.07 10.35-23.07 23.1v46.19" class="st3"/><path d="M1453.41 732.86h-112.97c-3.19 0-5.77-2.58-5.77-5.77v-80.84c0-3.18 2.58-5.78 5.77-5.77h126.9c3.19 0 5.77 2.58 5.77 5.77v66.89c0 1.53-.61 3-1.69 4.08l-13.93 13.93a5.72 5.72 0 0 1-4.07 1.7Z" class="st0"/><path d="M1453.41 732.86h-112.97c-3.19 0-5.77-2.58-5.77-5.77v-80.84c0-3.18 2.58-5.78 5.77-5.77h126.9c3.19 0 5.77 2.58 5.77 5.77v66.89c0 1.53-.61 3-1.69 4.08l-13.93 13.93a5.72 5.72 0 0 1-4.07 1.7Z" class="st2"/><path d="M1323.13 686.68v69.28c0 6.38 5.17 11.55 11.54 11.54h122.12c3.05 0 6-1.22 8.16-3.38l27.85-27.88c2.16-2.16 3.38-5.11 3.38-8.16v-41.41" class="st9"/><path d="M1496.18 686.68v-46.19c0-6.38-5.17-11.55-11.54-11.54h-149.96c-6.36 0-11.53 5.17-11.54 11.54v46.19" class="st4"/><path d="m1391.55 640.49 12.33 46.19m-46.04-46.19 46.05 46.19m-69.22-18.61 69.22 18.6m-69.22 18.62 69.21-18.61m-46.03 46.19 46.04-46.2m-12.34 46.2 12.34-46.2m12.34 46.2-12.34-46.2m46.05 46.2-46.05-46.2m69.21 18.61-69.22-18.6m69.22-18.61-69.22 18.6m46.05-46.18-46.05 46.19m12.35-46.2-12.34 46.2" class="st2"/><path d="M1408.47 669.54h-9.16l-7.93 4.59-4.57 7.95v9.19l4.57 7.95 7.93 4.6h9.16l7.93-4.6 4.58-7.96v-9.18l-4.58-7.96-7.93-4.59Z" class="st1"/><path d="M1006.68 416.4h80.84c12.76 0 23.1-10.33 23.1-23.07V172.16c0-6.12-2.43-11.99-6.77-16.31l-21.11-21.09a23.101 23.101 0 0 0-16.33-6.76h-59.72" class="st8"/><path d="M1006.68 128h-46.19c-12.76 0-23.1 10.33-23.1 23.07v242.25c0 12.74 10.34 23.07 23.1 23.07h46.19" class="st3"/><path d="M1052.86 274.59v112.97c0 3.19-2.58 5.77-5.77 5.77h-80.84c-3.18 0-5.78-2.58-5.77-5.77v-126.9c0-3.19 2.58-5.77 5.77-5.77h66.89c1.53 0 3 .61 4.08 1.69l13.93 13.93a5.72 5.72 0 0 1 1.7 4.07Z" class="st0"/><path d="M1052.86 274.59v112.97c0 3.19-2.58 5.77-5.77 5.77h-80.84c-3.18 0-5.78-2.58-5.77-5.77v-126.9c0-3.19 2.58-5.77 5.77-5.77h66.89c1.53 0 3 .61 4.08 1.69l13.93 13.93a5.72 5.72 0 0 1 1.7 4.07Z" class="st2"/><path d="M1006.68 404.87h69.28c6.38 0 11.55-5.17 11.54-11.54V271.21c0-3.05-1.22-6-3.38-8.16l-27.88-27.85a11.569 11.569 0 0 0-8.16-3.38h-41.41" class="st9"/><path d="M1006.68 231.82h-46.19c-6.38 0-11.55 5.17-11.54 11.54v149.96c0 6.36 5.17 11.53 11.54 11.54h46.19" class="st4"/><path d="m960.49 336.45 46.19-12.33m-46.19 46.04 46.19-46.05m-18.61 69.22 18.6-69.22m18.62 69.22-18.61-69.21m46.19 46.03-46.2-46.04m46.2 12.34-46.2-12.34m46.2-12.34-46.2 12.34m46.2-46.05-46.2 46.05m18.61-69.21-18.6 69.22m-18.61-69.22 18.6 69.22m-46.18-46.05 46.19 46.05m-46.2-12.35 46.2 12.34" class="st2"/><path d="M989.54 319.53v9.16l4.59 7.93 7.95 4.57h9.19l7.95-4.57 4.6-7.93v-9.16l-4.6-7.93-7.96-4.58h-9.18l-7.96 4.58-4.59 7.93Z" class="st1"/><path d="M736.4 721.32v-80.84c0-12.76-10.33-23.1-23.07-23.1H492.16c-6.12 0-11.99 2.43-16.31 6.77l-21.09 21.11a23.101 23.101 0 0 0-6.76 16.33v59.72" class="st8"/><path d="M448 721.32v46.19c0 12.76 10.33 23.1 23.07 23.1h242.25c12.74 0 23.07-10.34 23.07-23.1v-46.19" class="st3"/><path d="M594.59 675.14h112.97c3.19 0 5.77 2.58 5.77 5.77v80.84c0 3.18-2.58 5.78-5.77 5.77h-126.9c-3.19 0-5.77-2.58-5.77-5.77v-66.89c0-1.53.61-3 1.69-4.08l13.93-13.93a5.72 5.72 0 0 1 4.07-1.7Z" class="st0"/><path d="M594.59 675.14h112.97c3.19 0 5.77 2.58 5.77 5.77v80.84c0 3.18-2.58 5.78-5.77 5.77h-126.9c-3.19 0-5.77-2.58-5.77-5.77v-66.89c0-1.53.61-3 1.69-4.08l13.93-13.93a5.72 5.72 0 0 1 4.07-1.7Z" class="st2"/><path d="M724.87 721.32v-69.28c0-6.38-5.17-11.55-11.54-11.54H591.21c-3.05 0-6 1.22-8.16 3.38l-27.85 27.88a11.569 11.569 0 0 0-3.38 8.16v41.41" class="st9"/><path d="M551.82 721.32v46.19c0 6.38 5.17 11.55 11.54 11.54h149.96c6.36 0 11.53-5.17 11.54-11.54v-46.19" class="st4"/><path d="m656.45 767.51-12.33-46.19m46.04 46.19-46.05-46.19m69.22 18.61-69.22-18.6m69.22-18.62-69.21 18.61m46.03-46.19-46.04 46.2m12.34-46.2-12.34 46.2m-12.34-46.2 12.34 46.2m-46.05-46.2 46.05 46.2m-69.21-18.61 69.22 18.6m-69.22 18.61 69.22-18.6m-46.05 46.18 46.05-46.19m-12.35 46.2 12.34-46.2" class="st2"/><path d="M639.53 738.46h9.16l7.93-4.59 4.57-7.95v-9.19l-4.57-7.95-7.93-4.6h-9.16l-7.93 4.6-4.58 7.96v9.18l4.58 7.96 7.93 4.59Z" class="st1"/><path d="m618.07 1112.66-15.38-15.38c-2.98-2.98-4.1-7.13-2.79-10.29l11.62-28.18c.31-.77.78-1.46 1.36-2.05l173.21-173.21c2.96-2.96 8.41-2.33 12.16 1.42l23.76 23.76m-203.94 203.93 13.58 13.58c3.75 3.75 9.19 4.38 12.16 1.42L837 934.47c2.96-2.96 2.33-8.41-1.42-12.16L822 908.73" class="st6"/><path d="m706.68 996.9 84.08-84.08c.75-.75 2.13-.59 3.08.36l24.4 24.4c.57.57.66 1.4.21 1.85l-96.25 96.25c-.45.45-1.28.36-1.85-.21l-19.78-19.78c-.74-.74-1.03-1.77-.7-2.57l6.48-15.71c.08-.19.2-.37.34-.51Z" class="st18"/><path d="m817.87 937.22-97.88 97.88" class="st11"/><path d="M813.88 933.23 716 1031.11" class="st10"/><path d="M809.88 929.23 712 1027.11" class="st14"/><path d="m805.89 925.24-97.88 97.88" class="st7"/><path d="m706.46 997.12 84.29-84.29c.75-.75 2.13-.59 3.08.36l23.72 23.72c.95.95 1.11 2.33.36 3.08l-95.17 95.17c-.75.75-2.13.59-3.08-.36l-19.1-19.1c-.74-.74-1.03-1.77-.7-2.57l6.6-16Z" class="st5"/><path d="m813.84 916.89-20.32-20.32c-1.9-1.9-4.65-2.22-6.16-.71l-94.73 94.73c-.29.29-.52.63-.68 1.02L679 1023.03c-.65 1.58-.08 3.65 1.4 5.13l11.09 11.09m-.01 0 13.53 13.53c1.9 1.9 4.66 2.23 6.17.72l116.91-116.91c1.5-1.5 1.18-4.26-.71-6.16l-13.53-13.53" class="st7"/><path d="M621.8 1116.38 606.42 1101c-2.98-2.98-4.1-7.13-2.79-10.29l11.62-28.18c.31-.77.78-1.46 1.36-2.05l173.21-173.21c2.96-2.96 8.41-2.33 12.16 1.42l23.76 23.76" class="st8"/><path d="m621.8 1116.38 13.58 13.58c3.75 3.75 9.19 4.38 12.16 1.42l193.19-193.19c2.96-2.96 2.33-8.41-1.42-12.16l-13.58-13.58" class="st3"/><path d="m710.41 1000.62 84.08-84.08c.75-.75 2.13-.59 3.08.36l24.4 24.4c.57.57.66 1.4.21 1.85l-96.25 96.25c-.45.45-1.28.36-1.85-.21l-19.78-19.78c-.74-.74-1.03-1.77-.7-2.57l6.48-15.71c.08-.19.2-.37.34-.51Z" class="st0"/><path d="m821.6 940.96-97.88 97.88" class="st12"/><path d="m817.6 936.96-97.88 97.88" class="st13"/><path d="m813.61 932.96-97.88 97.88" class="st15"/><path d="m809.61 928.97-97.88 97.88" class="st9"/><path d="m710.19 1000.84 84.29-84.29c.75-.75 2.13-.59 3.08.36l23.72 23.72c.95.95 1.11 2.33.36 3.08l-95.17 95.17c-.75.75-2.13.59-3.08-.36l-19.1-19.1c-.74-.74-1.03-1.77-.7-2.57l6.6-16Z" class="st2"/><path d="m817.57 920.62-20.32-20.32c-1.9-1.9-4.65-2.22-6.16-.71l-94.73 94.73c-.29.29-.52.63-.68 1.02l-12.95 31.42c-.65 1.58-.08 3.65 1.4 5.13l11.09 11.09" class="st9"/><path d="m695.21 1042.97 13.53 13.53c1.9 1.9 4.66 2.23 6.17.72l116.91-116.91c1.5-1.5 1.18-4.26-.71-6.16l-13.53-13.53" class="st4"/><path d="m1432.66 1109.93-15.38 15.38c-2.98 2.98-7.13 4.1-10.29 2.79l-28.18-11.62c-.77-.31-1.46-.78-2.05-1.36l-173.21-173.21c-2.96-2.96-2.33-8.41 1.42-12.16l23.76-23.76m203.93 203.94 13.58-13.58c3.75-3.75 4.38-9.19 1.42-12.16L1254.47 891c-2.96-2.96-8.41-2.33-12.16 1.42L1228.73 906" class="st6"/><path d="m1316.9 1021.32-84.08-84.08c-.75-.75-.59-2.13.36-3.08l24.4-24.4c.57-.57 1.4-.66 1.85-.21l96.25 96.25c.45.45.36 1.28-.21 1.85l-19.78 19.78c-.74.74-1.77 1.03-2.57.7l-15.71-6.48c-.19-.08-.37-.2-.51-.34Z" class="st18"/><path d="m1257.23 910.13 97.88 97.88" class="st11"/><path d="m1253.23 914.12 97.88 97.88" class="st10"/><path d="m1249.23 918.12 97.88 97.88" class="st14"/><path d="m1245.24 922.11 97.88 97.88" class="st7"/><path d="m1317.12 1021.54-84.29-84.29c-.75-.75-.59-2.13.36-3.08l23.72-23.72c.95-.95 2.33-1.11 3.08-.36l95.17 95.17c.75.75.59 2.13-.36 3.08l-19.1 19.1c-.74.74-1.77 1.03-2.57.7l-16-6.6Z" class="st5"/><path d="m1236.89 914.16-20.32 20.32c-1.9 1.9-2.22 4.65-.71 6.16l94.73 94.73c.29.29.63.52 1.02.68l31.42 12.95c1.58.65 3.65.08 5.13-1.4l11.09-11.09m0 .01 13.53-13.53c1.9-1.9 2.23-4.66.72-6.17l-116.91-116.91c-1.5-1.5-4.26-1.18-6.16.71l-13.53 13.53" class="st7"/><path d="m1436.38 1106.2-15.38 15.38c-2.98 2.98-7.13 4.1-10.29 2.79l-28.18-11.62c-.77-.31-1.46-.78-2.05-1.36l-173.21-173.21c-2.96-2.96-2.33-8.41 1.42-12.16l23.76-23.76" class="st8"/><path d="m1436.38 1106.2 13.58-13.58c3.75-3.75 4.38-9.19 1.42-12.16l-193.19-193.19c-2.96-2.96-8.41-2.33-12.16 1.42l-13.58 13.58" class="st3"/><path d="m1320.62 1017.59-84.08-84.08c-.75-.75-.59-2.13.36-3.08l24.4-24.4c.57-.57 1.4-.66 1.85-.21l96.25 96.25c.45.45.36 1.28-.21 1.85l-19.78 19.78c-.74.74-1.77 1.03-2.57.7l-15.71-6.48c-.19-.08-.37-.2-.51-.34Z" class="st0"/><path d="m1260.96 906.4 97.88 97.88" class="st12"/><path d="m1256.96 910.4 97.88 97.88" class="st13"/><path d="m1252.96 914.39 97.88 97.88" class="st15"/><path d="m1248.97 918.39 97.88 97.88" class="st9"/><path d="m1320.84 1017.81-84.29-84.29c-.75-.75-.59-2.13.36-3.08l23.72-23.72c.95-.95 2.33-1.11 3.08-.36l95.17 95.17c.75.75.59 2.13-.36 3.08l-19.1 19.1c-.74.74-1.77 1.03-2.57.7l-16-6.6Z" class="st2"/><path d="m1240.62 910.43-20.32 20.32c-1.9 1.9-2.22 4.65-.71 6.16l94.73 94.73c.29.29.63.52 1.02.68l31.42 12.95c1.58.65 3.65.08 5.13-1.4l11.09-11.09" class="st9"/><path d="m1362.97 1032.79 13.53-13.53c1.9-1.9 2.23-4.66.72-6.17l-116.91-116.91c-1.5-1.5-4.26-1.18-6.16.71l-13.53 13.53" class="st4"/><path d="m1429.93 295.34 15.38 15.38c2.98 2.98 4.1 7.13 2.79 10.29l-11.62 28.18c-.33.78-.78 1.47-1.36 2.05l-173.21 173.21c-2.96 2.96-8.41 2.33-12.16-1.42l-23.76-23.76m203.94-203.93-13.58-13.58c-3.75-3.75-9.19-4.38-12.16-1.42L1211 473.53c-2.96 2.96-2.33 8.41 1.42 12.16l13.58 13.58" class="st6"/><path d="m1341.32 411.1-84.08 84.08c-.75.75-2.13.59-3.08-.36l-24.4-24.4c-.57-.57-.66-1.4-.21-1.85l96.25-96.25c.45-.45 1.28-.36 1.85.21l19.78 19.78c.74.74 1.03 1.77.7 2.57l-6.48 15.71c-.08.19-.2.37-.34.51Z" class="st18"/><path d="m1230.13 470.77 97.88-97.88" class="st11"/><path d="m1234.12 474.77 97.88-97.88" class="st10"/><path d="m1238.12 478.77 97.88-97.88" class="st14"/><path d="m1242.11 482.76 97.88-97.88" class="st7"/><path d="m1341.54 410.88-84.29 84.29c-.75.75-2.13.59-3.08-.36l-23.72-23.72c-.95-.95-1.11-2.33-.36-3.08l95.17-95.17c.75-.75 2.13-.59 3.08.36l19.1 19.1c.74.74 1.03 1.77.7 2.57l-6.6 16Z" class="st5"/><path d="m1234.16 491.11 20.32 20.32c1.9 1.9 4.65 2.22 6.16.71l94.73-94.73c.29-.29.52-.63.68-1.02l12.95-31.42c.65-1.58.08-3.65-1.4-5.13l-11.09-11.09m.01 0-13.53-13.53c-1.9-1.9-4.66-2.23-6.17-.72l-116.91 116.91c-1.5 1.5-1.18 4.26.71 6.16l13.53 13.53" class="st7"/><path d="m1426.2 291.62 15.38 15.38c2.98 2.98 4.1 7.13 2.79 10.29l-11.62 28.18c-.33.78-.78 1.47-1.36 2.05l-173.21 173.21c-2.96 2.96-8.41 2.33-12.16-1.42l-23.76-23.76" class="st8"/><path d="m1426.2 291.62-13.58-13.58c-3.75-3.75-9.19-4.38-12.16-1.42l-193.19 193.19c-2.96 2.96-2.33 8.41 1.42 12.16l13.58 13.58" class="st3"/><path d="m1337.59 407.38-84.08 84.08c-.75.75-2.13.59-3.08-.36l-24.4-24.4c-.57-.57-.66-1.4-.21-1.85l96.25-96.25c.45-.45 1.28-.36 1.85.21l19.78 19.78c.74.74 1.03 1.77.7 2.57l-6.48 15.71c-.08.19-.2.37-.34.51Z" class="st0"/><path d="m1226.4 467.04 97.88-97.88" class="st12"/><path d="m1230.4 471.04 97.88-97.88" class="st13"/><path d="m1234.39 475.04 97.88-97.88" class="st15"/><path d="m1238.39 479.03 97.88-97.88" class="st9"/><path d="m1337.81 407.16-84.29 84.29c-.75.75-2.13.59-3.08-.36l-23.72-23.72c-.95-.95-1.11-2.33-.36-3.08l95.17-95.17c.75-.75 2.13-.59 3.08.36l19.1 19.1c.74.74 1.03 1.77.7 2.57l-6.6 16Z" class="st2"/><path d="m1230.43 487.38 20.32 20.32c1.9 1.9 4.65 2.22 6.16.71l94.73-94.73c.29-.29.52-.63.68-1.02l12.95-31.42c.65-1.58.08-3.65-1.4-5.13l-11.09-11.09" class="st9"/><path d="m1352.79 365.03-13.53-13.53c-1.9-1.9-4.66-2.23-6.17-.72l-116.91 116.91c-1.5 1.5-1.18 4.26.71 6.16l13.53 13.53" class="st4"/><path d="m615.34 298.07 15.38-15.38c2.98-2.98 7.13-4.1 10.29-2.79l28.18 11.62c.78.33 1.47.78 2.05 1.36l173.21 173.21c2.96 2.96 2.33 8.41-1.42 12.16l-23.76 23.76M615.34 298.07l-13.58 13.58c-3.75 3.75-4.38 9.19-1.42 12.16L793.53 517c2.96 2.96 8.41 2.33 12.16-1.42L819.27 502" class="st6"/><path d="m731.1 386.68 84.07 84.07c.75.75.59 2.13-.36 3.08l-24.4 24.4c-.57.57-1.4.66-1.85.21l-96.25-96.25c-.45-.45-.36-1.28.21-1.85l19.78-19.78c.74-.74 1.77-1.03 2.57-.7l15.71 6.48c.19.08.37.2.51.34Z" class="st18"/><path d="m790.77 497.87-97.88-97.88" class="st11"/><path d="M794.77 493.88 696.89 396" class="st10"/><path d="M798.77 489.88 700.89 392" class="st14"/><path d="m802.76 485.89-97.88-97.88" class="st7"/><path d="m730.88 386.46 84.29 84.29c.75.75.59 2.13-.36 3.08l-23.72 23.72c-.95.95-2.33 1.11-3.08.36l-95.17-95.17c-.75-.75-.59-2.13.36-3.08l19.1-19.1c.74-.74 1.77-1.03 2.57-.7l16 6.6Z" class="st5"/><path d="m811.11 493.84 20.32-20.32c1.9-1.9 2.22-4.65.71-6.16l-94.73-94.73c-.29-.29-.63-.52-1.02-.68L704.97 359c-1.58-.65-3.65-.08-5.13 1.4l-11.09 11.09m0-.01-13.53 13.53c-1.9 1.9-2.23 4.66-.72 6.17l116.91 116.91c1.5 1.5 4.26 1.18 6.16-.71l13.53-13.53" class="st7"/><path d="M611.62 301.8 627 286.42c2.98-2.98 7.13-4.1 10.29-2.79l28.18 11.62c.78.33 1.47.78 2.05 1.36l173.21 173.21c2.96 2.96 2.33 8.41-1.42 12.16l-23.76 23.76" class="st8"/><path d="m611.62 301.8-13.58 13.58c-3.75 3.75-4.38 9.19-1.42 12.16l193.19 193.19c2.96 2.96 8.41 2.33 12.16-1.42l13.58-13.58" class="st3"/><path d="m727.38 390.41 84.07 84.07c.75.75.59 2.13-.36 3.08l-24.4 24.4c-.57.57-1.4.66-1.85.21l-96.25-96.25c-.45-.45-.36-1.28.21-1.85l19.78-19.78c.74-.74 1.77-1.03 2.57-.7l15.71 6.48c.19.08.37.2.51.34Z" class="st0"/><path d="m787.04 501.6-97.88-97.88" class="st12"/><path d="m791.04 497.6-97.88-97.88" class="st13"/><path d="m795.04 493.61-97.88-97.88" class="st15"/><path d="m799.03 489.61-97.88-97.88" class="st9"/><path d="m727.16 390.19 84.29 84.29c.75.75.59 2.13-.36 3.08l-23.72 23.72c-.95.95-2.33 1.11-3.08.36l-95.17-95.17c-.75-.75-.59-2.13.36-3.08l19.1-19.1c.74-.74 1.77-1.03 2.57-.7l16 6.6Z" class="st2"/><path d="m807.38 497.57 20.32-20.32c1.9-1.9 2.22-4.65.71-6.16l-94.73-94.73c-.29-.29-.63-.52-1.02-.68l-31.42-12.95c-1.58-.65-3.65-.08-5.13 1.4l-11.09 11.09" class="st9"/><path d="m685.03 375.21-13.53 13.53c-1.9 1.9-2.23 4.66-.72 6.17l116.91 116.91c1.5 1.5 4.26 1.18 6.16-.71l13.53-13.53" class="st4"/><path d="M1182.65 862.72c-21.35 21.35-46.36 37.93-74.32 49.27-26.91 10.91-55.27 16.44-84.33 16.45-29.05 0-57.42-5.54-84.32-16.44-27.95-11.33-52.96-27.92-74.32-49.27s-37.93-46.36-49.27-74.32c-10.91-26.91-16.44-55.27-16.45-84.33 0-29.05 5.54-57.42 16.45-84.33 11.33-27.95 27.92-52.96 49.27-74.32 21.35-21.35 46.36-37.93 74.32-49.27 26.91-10.91 55.27-16.44 84.32-16.44s57.42 5.54 84.33 16.45c27.95 11.33 52.96 27.92 74.32 49.27 21.35 21.35 37.93 46.36 49.27 74.32 10.91 26.91 16.44 55.27 16.44 84.32 0 29.05-5.54 57.42-16.44 84.32-11.33 27.95-27.92 52.96-49.27 74.32Z" class="st0"/><path d="M1137.31 817.38c-62.48 62.48-164.15 62.48-226.63 0s-62.48-164.15 0-226.63c62.48-62.48 164.15-62.48 226.63 0 62.48 62.48 62.48 164.15 0 226.63Z" class="st16"/><path d="M1114.65 794.72c-49.99 49.99-131.32 49.99-181.3 0-49.99-49.99-49.99-131.32 0-181.3s131.32-49.99 181.3 0 49.99 131.32 0 181.3Z" class="st0"/><path d="M1069.33 749.4c-25 25-65.66 24.99-90.65 0s-24.99-65.66 0-90.65c24.99-24.99 65.66-24.99 90.65 0 24.99 24.99 24.99 65.66 0 90.65Z" class="st16"/><circle cx="1024" cy="704.07" r="32.05" class="st0"/><path d="M326.09 1392.76H320v24.39h6.09v6.09h6.1v-6.1h-6.1v-6.09h6.1v6.09h6.09v-12.19h-6.09v-6.09h-6.1v-6.1Zm0-48.76H320v42.67h18.28v-6.1h-12.19v-30.47h12.19v-6.1h-12.19Zm0 85.33H320V1472h18.28v-6.09h-12.19v-30.48h12.19v-6.1h-12.19Z" class="st0"/><path d="M332.19 1356.19h6.09v18.29h-6.09v-18.29Zm0 36.57h6.09v6.09h-6.09v-6.09Zm0 48.77h6.09v18.29h-6.09v-18.29Zm12.19-97.53h-6.1v6.1h18.29v-6.1h-12.19Zm6.09 30.48v-18.29h-12.19v18.29h12.19Zm-6.09 6.09h-6.1v6.1h18.29v-6.1h-12.19Zm0 12.19h-6.1v12.2h6.1v6.09h-6.1v12.19h18.29v-6.1h-6.1v-6.09h6.1v-6.1h-6.1v-6.09h6.1v-6.1h-12.19Zm0 36.57h-6.1v6.1h18.29v-6.1h-12.19Zm6.09 30.48v-18.28h-12.19v18.28h12.19Zm-6.09 6.1h-6.1v6.09h18.29v-6.09h-12.19ZM356.57 1344h6.09v42.67h-6.09V1344Zm0 48.76h6.09v6.09h-6.09v-6.09Zm0 12.19h6.09v6.09h-6.09v-6.09Zm0 12.19v6.1h12.19v-6.1h-12.19Zm0 24.39V1472h6.1v-42.67h-6.1v12.2Zm18.29-85.34h-6.1v36.57h6.1v-18.28h6.09v-6.1h-6.09v-12.19Zm-6.1 48.76h6.09v6.09h-6.09v-6.09Zm0 60.96h6.09v6.09h-6.09v-6.09Zm6.1-67.05v6.09h12.19v-6.09h-12.19Zm0 12.19v6.09h6.09v6.1h-12.19v6.09h6.1v6.1h-6.1v6.09h18.29v-6.09h-6.1v-12.19h6.1v-12.19h-12.19Zm6.09 42.67v-12.19h-12.19v18.28h6.1v-6.09h6.09Z" class="st0"/><path d="M374.86 1459.81v6.1h6.09v6.09h6.1v-12.19h-12.19Zm6.09-103.62h6.09v12.19h-6.09v-12.19Zm0 18.29h6.09v18.29h-6.09v-18.29Zm6.1 30.47h6.09v6.09h-6.09v-6.09Zm0 60.96h6.09v6.09h-6.09v-6.09Zm12.19-115.81v-6.1h-12.19v6.1h12.19Zm-6.1 6.09h6.09v6.09h-6.09v-6.09Zm0 12.19h-6.09v6.1h6.09v12.19h-6.09v6.09h6.09v12.19h6.1v-36.57h-6.1Zm6.1 73.15h-6.1v12.18h-6.09v6.1h6.09v-6.09h6.1v6.09h6.09v-12.19h-6.09v-6.09Zm0-18.29h-6.1v-6.1h-6.09v12.19h6.09v6.1h-6.09v6.09h12.19v-6.09h6.09v-30.48h-6.09v18.29Zm6.09-79.24v42.67h12.19v-6.1h-6.09v-30.47h6.09v-6.1h-12.19Zm0 48.76v6.1h6.1v6.09h-6.1v6.1h6.1v-6.09h6.09v-12.2h-12.19Zm0 24.38h6.09v6.09h-6.09v-6.09Zm6.1-6.09h6.09v6.09h-6.09v-6.09Zm0 12.19h6.09v12.19h-6.09v-12.19Zm0 24.38h-6.1v6.09h6.1l6.09.01v-12.19h-6.09v6.09Zm0 18.29h6.09v6.09h-6.09v-6.09Zm6.09-18.29h6.09v6.09h-6.09v-6.09Zm6.1-103.62h-6.1v6.1h18.29v-6.1h-12.19Zm0 12.19h-6.1v18.29h18.29v-18.29h-12.19Zm0 24.38h-6.1v6.1h18.29v-6.1h-12.19Zm0 12.19h-6.1v12.2h12.19v6.09h-12.19v18.28h6.1v12.19h12.19v-18.28h-12.19v-6.1h6.09l6.1.01v-24.39h-12.19Zm0 67.05h-6.1v6.1h6.1v6.09h6.09v-6.09h6.1v-6.1h-6.1v-6.1h-6.09v6.1Zm6.09-12.19h6.09v6.09h-6.09v-6.09Zm6.1-48.76v24.38h6.1v6.09H448v-6.09h-6.09v-18.29H448v-6.09h-12.19Zm0 30.47h6.09v6.09h-6.09v-6.09Zm0 36.58h6.09v6.09h-6.09v-6.09Zm6.1-121.91h-6.1v6.1h6.1v30.47h-6.1v6.1H448V1344h-6.09Zm0 91.43H448v6.09h-6.09v-6.09Zm0 6.1H448v6.09h-6.09v-6.09Z" class="st0"/><path d="M599.25 1466.56c-.71 1.51-.95 2.46-1.23 3.85-2.74 1.23-5.91 1.59-8.06 1.59-8.13 0-14.01-4.21-14.01-12.62s5.91-16.03 16.55-16.03c3.77 0 7.54.87 10.63 3.06-.75 1.55-1.03 2.62-1.23 4.37l-.99-.08c-1.15-3.49-4.76-4.64-7.26-4.64-7.94 0-10.83 9.48-10.83 15.12 0 6.67 4.64 8.14 7.66 8.14s5.83-1.11 8.06-3.06l.71.32v-.02Zm12.53 1.79c2.14 0 3.53-1.98 4.21-3.81 1.51-4.05 2.38-9.4 2.86-12.7 1.23.16 2.42.24 3.49.24 1.19 0 2.34-.12 3.02-.24-1.11 4.01-3.26 12.86-4.17 19.56-.83-.12-1.71-.24-2.94-.24-1.03 0-2.34.12-3.41.24.32-1.03.59-2.06.83-3.09-.87 1.07-2.9 3.53-7.06 3.53-3.21 0-5.24-1.71-5.24-4.52 0-1.98.87-5 1.27-6.83.64-3.02 1.19-5.67 1.59-8.65 1.15.16 2.7.24 3.89.24 1.27 0 2.1-.12 3.05-.24-2.46 8.69-3.57 12.7-3.57 14.25 0 1.27.87 2.26 2.18 2.26Zm25.55 3.65c-3.85 0-5.44-2.1-6.15-3.01-1.43.79-2.3 1.43-3.65 2.42-.32-.08-.6-.12-.75-.12-.04 0-.48 0-.91.12 1.31-4.52 1.59-5.95 5.16-22.18.91-4.17 1.03-5.83 1.19-7.22 1.27.16 2.02.24 3.29.24s2.06-.08 3.34-.24c-.44 1.39-.71 2.38-1.07 3.77-.32 1.23-1.51 6.71-1.75 7.82 1.55-1.55 3.57-2.34 5.68-2.34 4.6 0 7.26 3.69 7.26 7.7 0 5.75-3.77 13.06-11.63 13.06v-.02Zm2.1-18.02c-2.1 0-3.29 1.91-4.01 3.93-.95 2.66-1.87 6.27-1.87 8.81 0 1.83.99 3.13 2.9 3.13 1.23 0 2.62-.55 4.01-3.69 1.43-3.25 2.1-6.75 2.1-8.49 0-2.66-1.71-3.69-3.13-3.69Zm29.12 17.03c-1.23.59-2.42.71-3.41.71-1.98 0-3.21-.67-4.09-2.74-.71.95-2.22 2.94-5.48 2.94-2.86 0-5.47-1.63-5.47-5.12 0-5.99 6.19-6.43 9.17-6.63 2.22-.16 3.33-.28 3.33-2.38 0-2.26-1.11-3.29-3.41-3.29-1.79 0-3.53.67-5 1.71.04-.44.08-.87.08-1.31 0-.48 0-.91-.08-1.39 2.18-1.23 4.64-2.1 7.54-2.1s6.71.79 6.71 5.56c0 1.98-.59 4.05-1.11 6.11-.52 1.98-1.07 4.37-1.07 5.32 0 .83.36 1.43 1.27 1.43.44 0 .87-.08 1.27-.2l-.24 1.39h-.01Zm-12.66-4.52c0 1.27.63 2.34 2.02 2.34s2.14-.87 2.54-2.1c.32-.95.99-3.69 1.27-4.88-1.55.04-5.83.2-5.83 4.64Zm31.66 1.9c-.59.87-1.03 1.63-1.55 2.7-1.51.59-3.13.83-4.76.83-5.75 0-10.08-3.69-10.08-9.25 0-4.37 3.06-11.15 11.63-11.15 3.05 0 5.55 1.07 7.06 2.22-.99 1.98-1.39 3.53-1.67 4.44l-1.27-.16c.16-2.38-.79-4.21-3.45-4.21-4.01 0-5.72 5.48-5.72 9.37 0 3.33 1.47 6.03 5.12 6.03 1.15 0 2.54-.28 4.01-1.51l.67.67v.02Zm21.11 0c-.12.24-.71 1.15-1.27 2.34-.95.36-3.13 1.23-6.67 1.23-6.11 0-9.84-3.53-9.84-9.09s4.21-11.43 11.31-11.43c4.76 0 7.82 2.46 7.82 7.42 0 1.23-.16 2.3-.48 3.49-.87-.12-2.22-.32-5.08-.32h-7.06c-.04.36-.08.91-.08 1.27 0 2.38 1.27 5.99 5.6 5.99 2.78 0 4.37-1.11 5.2-1.75l.56.83v.02Zm-4.92-8.41c.28-.91.76-2.58.76-4.33s-1.15-2.42-2.1-2.42c-2.9 0-4.44 3.81-4.84 6.75h6.19-.01Zm17.26-17.74c1.23 0 2.1-.08 3.37-.24-1.31 4.96-4.88 20.95-6.39 29.41-.67-.08-1.87-.24-3.21-.24s-2.54.16-3.25.24c.87-2.86 1.63-5.71 2.26-8.61 2.66-12.14 2.94-13.49 4.05-20.79 1.03.16 1.98.24 3.18.24Z" class="st18"/><path d="M746.07 1463.51c-.99 4.6-1.19 6.39-1.39 7.9-1.23-.16-2.5-.2-3.77-.2-1.19 0-2.38.08-3.57.2 1.98-6.98 4.88-20.28 5.32-24.29-.55-.04-1.15-.04-1.79-.04-1.98 0-4.17.16-5.55.36.44-1.27.63-2.22.71-3.49 3.61.16 7.66.2 10.83.2 3.33 0 8.22-.12 10.83-.2-.4 1.07-.67 2.3-.79 3.49-1.59-.28-3.25-.36-4.52-.36-.71 0-1.63 0-2.5.04-.71 2.18-1.51 5.71-3.81 16.39Zm16.15 4.84c2.14 0 3.53-1.98 4.21-3.81 1.51-4.05 2.38-9.4 2.86-12.7 1.23.16 2.42.24 3.49.24 1.19 0 2.34-.12 3.01-.24-1.11 4.01-3.25 12.86-4.17 19.56-.83-.12-1.71-.24-2.94-.24-1.03 0-2.34.12-3.41.24.32-1.03.6-2.06.83-3.09-.87 1.07-2.9 3.53-7.06 3.53-3.21 0-5.24-1.71-5.24-4.52 0-1.98.87-5 1.27-6.83.63-3.02 1.19-5.67 1.59-8.65 1.15.16 2.7.24 3.89.24 1.27 0 2.1-.12 3.06-.24-2.46 8.69-3.57 12.7-3.57 14.25 0 1.27.87 2.26 2.18 2.26Zm29.51-10.75c-.44-.24-.91-.48-1.91-.48-2.58 0-3.97 1.79-4.64 4.05-.67 2.22-1.67 7.78-1.98 10.24-1.13-.16-2.27-.24-3.41-.24-.99 0-2.1.12-3.13.24.99-3.73 3.57-14.17 4.09-19.56 1.19.12 2.14.24 3.37.24 1.31 0 2.38-.12 3.06-.24-.52 1.63-.76 2.7-1.15 4.52.71-1.27 2.62-4.88 6.31-4.88.36 0 .63.04.83.08-.67 2.1-.95 3.61-1.03 5.79l-.4.24h-.01Z" class="st0"/><path d="M1727.26 1455.55h-1.58c-.4 0-.74.3-.74.71v8.34c0 3.19-1.59 4.84-3.81 4.84-1.22 0-1.92-.67-1.92-2.15v-11.03c0-.4-.37-.71-.78-.71h-1.55c-.4 0-.77.3-.77.71v11.5c0 2.76 1.62 4.24 4.08 4.24 2.73 0 3.95-1.38 4.89-2.39l.4 1.58c.1.4.37.64.74.64h1.04c.4 0 .74-.34.74-.74v-14.83c0-.4-.34-.71-.74-.71Zm-14.5 13.89c-.1-.37-.37-.67-.88-.5-.67.17-1.45.27-2.33.27-2.53 0-3.78-1.82-3.78-5.67 0-3.54 1.42-5.56 3.54-5.56.91 0 1.65.23 2.16.44.54.2.77-.1.91-.44l.4-1.18c.1-.37-.07-.71-.54-.91-.67-.3-1.79-.57-2.93-.57-4.05 0-6.77 3.43-6.77 8.22 0 5.56 2.66 8.46 6.7 8.46 1.21 0 2.26-.13 3.24-.44.47-.17.61-.5.54-.87l-.27-1.25h.01Zm-15.11-1.89c-1.25 0-2.22.98-2.22 2.22s.98 2.23 2.22 2.23 2.23-.98 2.23-2.23-.98-2.22-2.23-2.22Zm-6.29-.2v-5.87c0-2.73-.44-6.17-5.8-6.17-1.45 0-3.1.37-4.08.64-.4.1-.57.44-.47.87l.27 1.25c.1.44.44.67.88.54.91-.23 1.92-.57 3.24-.57 2.4 0 2.94.91 2.94 2.87v.81l-3.71.23c-2.73.2-5.05 1.62-5.05 5.22 0 3.03 1.65 4.82 4.35 4.82 1.86 0 3.61-.67 4.65-2.32l.24 1.48c.07.47.37.67.77.67h1.55c.44 0 .67-.3.6-.74l-.2-.98c-.2-1.01-.17-1.92-.17-2.76h-.01Zm-3.03-.91c0 1.25-1.38 3.1-3.54 3.1-1.25 0-2.13-.74-2.13-2.36 0-2.53 1.48-3.14 3.54-3.2l2.13-.07v2.53Zm-15.72-4.22c-1.45-.81-2.77-1.48-2.77-2.63 0-1.08.77-1.82 2.19-1.82 1.01 0 2.09.37 2.76.61.37.17.71.03.88-.4l.37-.98c.17-.44-.04-.77-.4-.94-1.01-.47-1.98-.74-3.64-.74-3.24 0-5.19 1.85-5.19 4.48 0 2.36 1.85 3.51 3.64 4.52 1.65.88 3.21 1.65 3.21 3.07 0 1.22-.74 1.96-2.3 1.96-1.32 0-2.63-.4-3.74-.91-.4-.2-.77 0-.91.47l-.37 1.21c-.13.4 0 .74.4.94 1.28.61 3.1.94 4.62.94 3.47 0 5.39-2.05 5.39-4.68 0-2.76-2.22-4.01-4.14-5.09Zm-9.27 7.22c-.1-.37-.37-.67-.88-.5-.67.17-1.45.27-2.33.27-2.53 0-3.78-1.82-3.78-5.67 0-3.54 1.42-5.56 3.54-5.56.91 0 1.65.23 2.16.44.54.2.77-.1.91-.44l.4-1.18c.1-.37-.07-.71-.54-.91-.67-.3-1.79-.57-2.93-.57-4.05 0-6.77 3.43-6.77 8.22 0 5.56 2.66 8.46 6.7 8.46 1.21 0 2.26-.13 3.24-.44.47-.17.61-.5.54-.87l-.27-1.25h.01Zm-19.3-14.12c-3.71 0-6.2 3.2-6.2 8.29 0 5.53 2.59 8.39 7.21 8.39 1.96 0 3.1-.3 4.18-.77.37-.17.57-.51.44-.91l-.37-1.08c-.13-.37-.4-.64-.91-.47-.98.27-1.89.57-3.17.57-3.04 0-4.05-1.76-4.18-4.89h8.4c.4 0 .74-.34.74-.74 0-6.2-2.69-8.39-6.13-8.39Zm-3 6.81c.34-3.51 1.86-4.35 3.1-4.35 2.09 0 2.83 2.19 2.9 4.35h-6Zm-5.91 7.14c-.3.07-.74.13-1.05.13-.77 0-1.15-.4-1.15-1.31v-10.15h1.92c.4 0 .74-.34.74-.74v-.91c0-.4-.34-.74-.74-.74h-1.92v-4.25c0-.57-.44-.67-.94-.5l-1.52.44c-.37.1-.57.47-.57.88v3.44h-1.82c-.44 0-.71.34-.71.74v.91c0 .4.27.74.71.74h1.82v10.66c0 2.25 1.08 3.4 3.5 3.4.81 0 1.62-.1 2.19-.27.44-.13.54-.47.5-.88l-.17-1.04c-.07-.4-.44-.6-.81-.54h.02Zm-15.8-13.95c-3.71 0-6.2 3.2-6.2 8.29 0 5.53 2.59 8.39 7.21 8.39 1.96 0 3.1-.3 4.18-.77.37-.17.57-.51.44-.91l-.37-1.08c-.13-.37-.4-.64-.91-.47-.98.27-1.89.57-3.17.57-3.04 0-4.05-1.76-4.18-4.89h8.39c.4 0 .74-.34.74-.74 0-6.2-2.69-8.39-6.13-8.39Zm-3 6.81c.34-3.51 1.86-4.35 3.1-4.35 2.09 0 2.83 2.19 2.9 4.35h-6Zm-8.11 5.42c-1.25 0-2.22.98-2.22 2.22s.98 2.23 2.22 2.23 2.22-.98 2.22-2.23-.98-2.22-2.22-2.22Zm-4.61-12h-1.72c-.44 0-.74.23-.84.67l-1.92 10.36c-.2 1.04-.34 2.59-.47 3.63-.1-1.08-.3-2.59-.54-3.63l-2.33-10.33a.898.898 0 0 0-.88-.71h-2.29c-.4 0-.74.23-.84.67l-2.4 10.36c-.23 1.04-.37 2.59-.54 3.63-.07-1.08-.17-2.56-.4-3.66l-1.99-10.29c-.1-.5-.37-.71-.84-.71h-1.89c-.4 0-.71.3-.57.87l3.44 14.74c.13.5.37.67.81.67h2.73c.44 0 .78-.24.88-.67l2.26-10.06c.2-1.01.34-2.25.47-3.53.13 1.24.2 2.52.44 3.53l2.22 10.06c.1.5.37.67.78.67h2.76c.47 0 .74-.24.84-.67l3.37-14.77c.13-.54-.17-.84-.54-.84Zm-23.55 0h-1.72c-.44 0-.74.23-.84.67l-1.92 10.36c-.2 1.04-.34 2.59-.47 3.63-.1-1.08-.3-2.59-.54-3.63l-2.32-10.33a.898.898 0 0 0-.88-.71h-2.29c-.4 0-.74.23-.84.67l-2.39 10.36c-.24 1.04-.37 2.59-.54 3.63-.07-1.08-.17-2.56-.4-3.66l-1.99-10.29c-.1-.5-.37-.71-.84-.71h-1.89c-.4 0-.71.3-.57.87l3.44 14.74c.13.5.37.67.81.67h2.73c.44 0 .77-.24.88-.67l2.26-10.06c.2-1.01.34-2.25.47-3.53.13 1.24.2 2.52.44 3.53l2.23 10.06c.1.5.37.67.77.67h2.76c.47 0 .74-.24.84-.67l3.37-14.77c.13-.54-.17-.84-.54-.84h-.02Zm-23.56 0h-1.72c-.44 0-.74.23-.84.67l-1.92 10.36c-.2 1.04-.34 2.59-.47 3.63-.1-1.08-.3-2.59-.54-3.63l-2.32-10.33a.898.898 0 0 0-.88-.71h-2.29c-.4 0-.74.23-.84.67l-2.39 10.36c-.24 1.04-.37 2.59-.54 3.63-.07-1.08-.17-2.56-.4-3.66l-1.99-10.29c-.1-.5-.37-.71-.84-.71h-1.89c-.4 0-.71.3-.57.87l3.44 14.74c.13.5.37.67.81.67h2.73c.44 0 .77-.24.88-.67l2.26-10.06c.2-1.01.34-2.25.47-3.53.13 1.24.2 2.52.44 3.53l2.23 10.06c.1.5.37.67.77.67h2.77c.47 0 .74-.24.84-.67l3.37-14.77c.13-.54-.17-.84-.54-.84h-.03Zm-203.85 14.6 18.37-17.99-11.59.03-12.67 12.43c1.66 2.56 3.72 4.22 5.88 5.53m-6.85-7.22c-4.45-9.49.29-16.69 3.01-19.39 1.64-1.52 9.22-8.56 20.32-3.49l-23.33 22.88Zm32.25-2.01h-12.78l-10.46 10.28c11.91 4.34 20.71-3.32 23.23-10.28m6.25-.7c.6-3.19.96-5.39 1.25-7.9 1.71.03 3.44.14 5.16.14 2.85 0 5.31-.06 6.11-.14-.12.34-.25.69-.34 1.2-.11.6-.1.85-.12 1.28-2.19-.14-5.64-.34-6.52-.34-.54 2.08-.92 4.13-1.32 6.22 2.54-.06 4.42-.11 6.65-.23-.24.66-.32.91-.39 1.28-.06.31-.05.57-.07 1.17-2.18-.17-4.35-.26-6.56-.26-.23 1.2-.49 2.42-.72 3.65-.23 1.2-.43 2.42-.58 3.56 2.18 0 4.45-.12 6.74-.37-.13.4-.24.68-.36 1.28-.11.6-.11.88-.11 1.23-1.04-.03-2.39-.14-5.07-.14-4.75 0-5.55.08-6.2.14.65-2.51 1.12-4.7 1.72-7.9l.73-3.88Zm17.65-3.25c.2-1.08.4-2.11.39-2.51-1.14 0-3.61.17-5.4.37.17-.43.3-.83.38-1.25.08-.43.1-.83.09-1.25 2.63.09 3.93.14 7.55.14s4.93-.06 7.42-.14c-.17.43-.3.83-.38 1.25-.08.43-.1.83-.09 1.25-1.53-.2-3.95-.37-5.11-.37-.13.4-.33 1.43-.53 2.51l-1.34 7.13c-.6 3.19-.96 5.39-1.25 7.9-.63-.06-1.4-.14-2.36-.14s-1.76.09-2.41.14c.65-2.51 1.12-4.71 1.72-7.9l1.34-7.13h-.02Zm10.67 3.25c.6-3.19.96-5.39 1.25-7.9 1.71.03 3.44.14 5.16.14 2.85 0 5.31-.06 6.11-.14-.12.34-.25.69-.34 1.2-.11.6-.1.85-.12 1.28-2.19-.14-5.64-.34-6.52-.34-.54 2.08-.92 4.13-1.32 6.22 2.54-.06 4.42-.11 6.65-.23-.24.66-.32.91-.39 1.28-.06.31-.05.57-.07 1.17-2.18-.17-4.35-.26-6.56-.26-.23 1.2-.49 2.42-.72 3.65-.23 1.2-.43 2.42-.58 3.56 2.18 0 4.45-.12 6.74-.37-.13.4-.24.68-.36 1.28-.11.6-.11.88-.11 1.23-1.04-.03-2.39-.14-5.07-.14-4.75 0-5.55.08-6.2.14.65-2.51 1.12-4.7 1.72-7.9l.73-3.88Zm27.77 8.47c-.47.8-.86 1.63-1.1 2.42-1.69.8-3.79 1.26-6.18 1.26-6.76 0-9.97-4.14-8.95-9.52 1.48-7.87 7.5-10.89 13.61-10.89 2.04 0 4.49.6 5.68 1.4-.56.94-.95 1.94-1.22 2.91h-.41c-1.12-1.77-2.46-2.54-4.53-2.54-3.12 0-7.14 2.65-8.28 8.7-1.1 5.87 2.01 8.18 5.36 8.18 1.86 0 4.18-.85 5.67-2.14l.34.23h.01Zm13.4-12.51c-.31-1.63-1.29-2.45-3.06-2.45s-3.25 1.2-3.51 2.57c-.79 4.22 8.26 3.17 7.04 9.64-.72 3.82-4.3 6.44-8.93 6.44-2.1 0-3.73-.6-4.46-1.22.63-1.31 1.08-2.34 1.53-3.62h.55c0 1.65 1.08 3.08 3.44 3.08s3.65-1.31 3.95-2.91c.81-4.31-8.08-3.17-6.86-9.64.74-3.93 4.24-6.1 7.7-6.1 2.1 0 3.57.54 4.51 1.4-.52.88-.85 1.57-1.46 2.82h-.44Zm18.2 15.82c-.92-.06-1.72-.14-2.53-.14s-1.68.09-2.5.14c-.25-1.94-.55-3.91-.91-5.84-1.25-.03-2.46-.06-3.72-.06-1.02 0-2.01.03-3.04.06-1.12 1.9-2.15 3.84-3.08 5.84-.46-.06-.88-.14-1.34-.14s-.92.09-1.48.14c2.02-3.17 8.3-13.31 12.03-19.82.37.06.7.14 1.08.14s.75-.09 1.13-.14c1.25 6.5 3.03 15.17 4.36 19.82m-6.3-7.53c-.41-2.31-.8-4.56-1.31-6.79-1.41 2.22-2.74 4.48-4.02 6.79h5.33Z" class="st19"/></g>
<style>
    #frame1 {
      animation: rotation 1s steps(1) infinite;
    }
    @keyframes rotation {
      0%, 100% { opacity: 1; }
      50% { opacity: 0; }
    }
  </style>
  <g id="frame2"> ... </g>
  <g id="frame1"> ... </g>
  </svg>