<?xml version="1.0" encoding="UTF-8"?>
<svg id="sim_card" data-name="sim card" xmlns="http://www.w3.org/2000/svg" xmlns:xlink="http://www.w3.org/1999/xlink" viewBox="0 0 2048 1536">
  <defs>
    <linearGradient id="linear-gradient" x1="1561.870650260849288" y1="874.08794051570294" x2="1339.160718538249284" y2="651.378008793102936" gradientUnits="userSpaceOnUse">
      <stop offset="0" stop-color="#fff"/>
      <stop offset=".5" stop-color="#000" stop-opacity=".300000011920929"/>
      <stop offset="1" stop-color="#e7e7e7"/>
    </linearGradient>
    <linearGradient id="linear-gradient-2" x1="1573.403000820351735" y1="1157.30085546731425" x2="794.699662260354671" y2="378.597516907317072" gradientUnits="userSpaceOnUse">
      <stop offset="0" stop-color="#fff"/>
      <stop offset=".499193572998047" stop-color="#000" stop-opacity=".300000011920929"/>
      <stop offset="1" stop-color="#e7e7e7"/>
    </linearGradient>
  </defs>
  <path d="M1610.783688838189846,810.400014284123245c0,9.052734375-3.522656249999272,17.560546875-9.919335937509459,23.962500000001455l-21.090234374991269,21.114843749999636c-6.401953125008731,6.408984375002547-14.908007812509823,9.935156250001455-23.955468750038563,9.935156250001455h-221.162695312581491c-18.6767578125,0-33.871289062499272-15.205078125-33.871289062499272-33.897656250001091v-127.030078125053478c0-18.689062500008731,15.194531249999272-33.89414062501146,33.871289062499272-33.89414062501146h242.254687500120781c18.678515625000728,0,33.873046875,15.205078125002728,33.873046875,33.89414062501146v105.915234375052023Z" fill="none" stroke="url(#linear-gradient)" stroke-miterlimit="10"/>
  <g>
    <g>
      <path d="M1406.141208199509492,571.612887052106998c-.714247264699225,1.508210660570512-.951798252270237,2.461603868830025-1.229206788098963,3.850241802644632-2.739010715740733,1.22920763134789-5.9148601602501,1.586331508711737-8.057601954260463,1.586331508711737-8.134128446819886,0-14.007536756980699-4.205771376964549-14.007536756980699-12.618908433851175,0-8.095870755169017,5.913265858400337-16.032311207925886,16.54885403344997-16.032311207925886,3.768929762511107,0,7.537859525091335.873678057057077,10.633993873150757,3.056278896767253-.752510510950742,1.548068236112158-1.031513348709268,2.619439868176414-1.230801089959641,4.36520167928029l-.991655800469744-.079715151197888c-1.151085993460583-3.491523622262321-4.760585563029963-4.642610405448067-7.260450989249875-4.642610405448067-7.938029309500052,0-10.834875916310921,9.484508688907226-10.834875916310921,15.11877557524349,0,6.667375245793664,4.642607220150239,8.135728330795246,7.659026471719699,8.135728330795246,2.976561703340849,0,5.83355076189946-1.111229207646829,8.056007652310655-3.056278896783624l.714247264699225.317266301763993Z" fill="#fff"/>
      <path d="M1418.67242136933055,573.39850643882437c2.142741793890309,0,3.531378774929181-1.983312961711817,4.207362793258653-3.808789923969016,1.506615323911319-4.047935377607246,2.37869847957154-9.404793537786645,2.856989058591353-12.698623585095447,1.229206788029842.157835999392773,2.420150329769967.237551150568834,3.49152122671876.237551150568834,1.189349239801231,0,2.340435233239987-.117978423772001,3.016419251520347-.237551150568834-1.112822747069004,4.008077801991021-3.255564541039348,12.85645958443547-4.167505244990025,19.563692405792608-.832225607438886-.11957272676409-1.705903065079838-.237551150530635-2.936704155050393-.237551150530635-1.031513348720182,0-2.340435233309108.117978423766544-3.411806130219702.237551150530635.315671782120262-1.031514056437118.594674619869693-2.063028112875145.832225607440705-3.094542169314082-.873677457640952,1.07137163207517-2.896846606810868,3.531381197866722-7.062757549920207,3.531381197866722-3.214112690879119,0-5.238876141989749-1.707498538546133-5.238876141989749-4.524631981714265,0-1.983312961691809.873677457599115-4.999734282808276,1.269064336300289-6.825211245142782.636126470009913-3.016421321157395,1.192537843629907-5.674124461907923,1.587924722240132-8.650688207488201,1.151085993518791.157835999392773,2.699153167470286.237551150568834,3.89009670924861.237551150568834,1.269064336300289,0,2.101289943720985-.117978423772001,3.054682497890099-.237551150568834-2.460007878020406,8.690545783103516-3.571236323239646,12.698623585095447-3.571236323239646,14.246691821244895,0,1.269065206941377.873677457640952,2.260721687819569,2.182599342200774,2.260721687819569Z" fill="#fff"/>
      <path d="M1444.221109797690588,577.049460363463368c-3.848644859050182,0-5.436569581341246-2.102885688481365-6.150816845960435-3.014827018098003-1.428494529309319.792368602833449-2.30217198695027,1.428495509386266-3.650951419769626,2.420151990187151-.318860385959852-.079715151219716-.596268921801311-.11957272676409-.754104812851438-.11957272676409-.039857548259533,0-.476696277070005,0-.913535005898666.11957272676409,1.310516186460518-4.524631981665152,1.587924722300158-5.95312749108416,5.159161045468863-22.183132274023592.911940703990695-4.165913801318311,1.031513348751105-5.833554764262772,1.190943541700108-7.222192698067374,1.270658638261011.159430302393957,2.023169149169917.237551150547006,3.292233485510224.237551150547006,1.270658638180976,0,2.064620999290128-.078120848153048,3.335279637560234-.237551150547006-.436838728770454,1.388637933804603-.714247264650112,2.380294414619129-1.071370896979715,3.770526651445834-.318860385970765,1.229207631407007-1.508209625801101,6.705638518342312-1.747354915280084,7.816867725964585,1.548067173989693-1.548068236158542,3.571236323199628-2.340436839046561,5.675714870800221-2.340436839046561,4.602749671939819,0,7.260450989269884,3.689217197243124,7.260450989269884,7.697294999234146,0,5.753839613135824-3.768929762520202,13.055747462403815-11.625649673569569,13.055747462403815ZM1446.323994043350467,559.033836193882962c-2.10288424565988,0-3.293827787400005,1.905192113464182-4.008075052021013,3.928362650727649-.951798252259323,2.659297443824471-1.865333258139799,6.270393792878167-1.865333258139799,8.810118509867607,0,1.82547696229085.993250102439561,3.134399744918483,2.896846606859981,3.134399744918483,1.230801089930537,0,2.619438070969409-.554817452270072,4.008075052021013-3.690811500197015,1.428494529280215-3.253972471720772,2.102884245699897-6.745496093972179,2.102884245699897-8.491257905136081,0-2.6592974438081-1.705903065139864-3.690811500180644-3.134397594420079-3.690811500180644Z" fill="#fff"/>
      <path d="M1475.443918794919227,576.057803882609733c-1.230801089968736.5946750279345-2.42174463163974.714247754693133-3.41340043216951.714247754693133-1.984905902840183,0-3.214112690839102-.674390179083275-4.087790148509157-2.737418291937502-.714247264661026.951798905218311-2.220862588519594,2.936706169948593-5.476427129560761,2.936706169948593-2.856989058620456,0-5.47483282768917-1.627783387361887-5.47483282768917-5.119307009650583,0-5.992985066659458,6.189080092299264-6.429824095172989,9.165641795649208-6.627517670154703,2.222456890380272-.159430302384862,3.333685335630435-.277408726156864,3.333685335630435-2.380294414664604,0-2.262315990848947-1.111228445250163-3.293830047259689-3.411806130219702-3.293830047259689-1.785618161609818,0-3.532973076880808.674390179088732-5.001325154429651,1.705904235532216.039857548279542-.436839028558097.079715096508153-.873678057099823.079715096508153-1.310517085657921,0-.475102301099469,0-.911941329575711-.079715096508153-1.388637933765494,2.182599342209869-1.229207631418831,4.644201522100047-2.102885688485912,7.539453827008401-2.102885688485912,2.856989058591353,0,6.707228219531316.793962905880107,6.707228219531316,5.556146038141378,0,1.983312961710908-.594674619900616,4.04793537761725-1.111228445210145,6.110963490504218-.516553825351366,1.983312961667252-1.071370896979715,4.365201679356687-1.071370896979715,5.317000584542257,0,.833820481533621.357123632358707,1.428495509429922,1.269064336318479,1.428495509429922.436838728781368,0,.873677457600934-.078120848233084,1.270658638160967-.197693574958976l-.237550987530994,1.388637933743667ZM1462.785161470630555,571.534766203958497c0,1.269065206930463.634532168180158,2.340436838989262,2.023169149189926,2.340436838989262,1.388636981049785,0,2.142741793919413-.872083754028608,2.539722974528559-2.102885688469541.317266084090079-.951798905240139.991655800451554-3.69081150025886,1.26906433628028-4.88175585906356-1.546472872088998.039857575615315-5.831956459998764.199287877989264-5.831956459998764,4.644204708543839Z" fill="#fff"/>
      <path d="M1494.444809196729693,573.43836401439512c-.593080317959902.873678057095276-1.029919046819487,1.627783387359159-1.546472872129016,2.699155019363388-1.508209625761083.594675027972698-3.134397594340044.833820481555449-4.762179864870632.833820481555449-5.753835665429506,0-10.079176801509675-3.690811500261589-10.079176801509675-9.246957538409333,0-4.36520167935123,3.05627679977988-11.150555348900525,11.627243975470265-11.150555348900525,3.054682497879185,0,5.554547924190047,1.071371632066985,7.062757549958405,2.22245841525546-.99165580045883,1.983312961727279-1.388636981029777,3.531381197883093-1.666045516858503,4.443322527497003l-1.270658638190071-.157835999310919c.159430192939908-2.381888717667607-.793962361180093-4.207365680013027-3.451663678490149-4.207365680013027-4.008075052061031,0-5.715572419070668,5.476430886976232-5.715572419070668,9.366530265217079,0,3.332093319839259,1.469946379480461,6.031248339279045,5.120897799220984,6.031248339279045,1.151085993469678,0,2.538128672538733-.277408726162321,4.008075052019194-1.508210660616896l.672795414449865.674390179083275Z" fill="#fff"/>
      <path d="M1515.551772448079646,573.43836401439512c-.119572644749496.239145453604579-.714247264650112,1.151086783283972-1.270658638230088,2.342031142090491-.951798252230219.357123877272898-3.134397594340044,1.229207631424288-6.667370671329991,1.229207631424288-6.109364995680153,0-9.840031511939742-3.531381197896735-9.840031511939742-9.085932933016011,0-5.833554764322798,4.205768491330673-11.429558378079491,11.309977891449307-11.429558378079491,4.760585563009954,0,7.816862362840766,2.460009565805194,7.816862362840766,7.42148057608847,0,1.229207631407917-.15783589107923,2.300579263428517-.476696277080919,3.491523622240493-.872083155709333-.119572726824117-2.222456890398462-.317266301739437-5.079445949009823-.317266301739437h-7.062757549909293c-.039857548279542.357123877332924-.079715096500877.911941329646652-.079715096500877,1.269065206995947,0,2.381888717651236,1.269064336331212,5.99298506672676,5.59599977427024,5.99298506672676,2.777273962110485,0,4.36519868436153-1.111229207646829,5.197424291871357-1.745761811158445l.556411373569063.832226178426936ZM1510.630162390159967,565.025226957508494c.277408535759605-.911941329646652.755699114779418-2.577987989607209.755699114779418-4.325344103730458,0-1.785619386730104-1.151085993438755-2.42015199024172-2.104478547609688-2.42015199024172-2.89684660678904,0-4.444913780809657,3.810384227034774-4.840300659479908,6.745496093972179h6.189080092310178Z" fill="#fff"/>
      <path d="M1527.886886480540852,547.287011514008555c1.229206787989824,0,2.102884245668974-.078120848153048,3.373542883888149-.237551150547006-1.310516186489622,4.959876707240255-4.88175250968925,20.952330339589025-6.389962135468522,29.405324972090966-.674389716379665-.079715151219716-1.86533325811979-.237551150530635-3.214112690940965-.237551150530635-1.310516186429595,0-2.539722974419419.157835999310919-3.253970239100454.237551150530635.87208315568023-2.856991018783447,1.627782270521493-5.71398203750141,2.262314438670728-8.610830631845602,2.657701317350075-12.143806132731697,2.93670415509041-13.492586490936446,4.046338298359842-20.794494340245365,1.033107650620877.159430302393957,1.984905902811079.237551150547006,3.175849444591222.237551150547006Z" fill="#fff"/>
    </g>
    <g>
      <path d="M1552.962067235659561,568.558202458405503c-.993250102388629,4.602752829849123-1.192537843649916,6.388372216576499-1.390231282919558,7.896582877147011-1.230801090050591-.159430302362125-2.49986542625993-.197693574958976-3.768929762620246-.197693574958976-1.190943541669185,0-2.381887083369293.078120848194885-3.571236323210542.197693574958976,1.983311600950401-6.984641547522187,4.880158207801287-20.277940160463913,5.31540263468014-24.286017962476762-.554817071639263-.039857575538917-1.149491691499861-.039857575538917-1.785618161598904-.039857575538917-1.983311600950401,0-4.165910943111157.159430302330293-5.554547924110011.357123877278354.436838728770454-1.269065206985033.634532168160149-2.222458415228175.714247264610094-3.491523622240493,3.611093871430057.157835999387316,7.659026471728794.197693574958976,10.833281614370208.197693574958976,3.333685335668633,0,8.215437845328779-.11957272676409,10.833281614399311-.197693574958976-.395386878639329,1.071371632064256-.674389716390579,2.300579263466716-.79396236113098,3.491523622240493-1.586330420328522-.277408726129579-3.252375937199758-.357123877278354-4.523034575438942-.357123877278354-.714247264659207,0-1.62778227049057,0-2.49986542625993.039857575538917-.71424726458099,2.182600839694715-1.508209625761083,5.713982037523238-3.80878731077064,16.389435085329751Z" fill="#ffe68a"/>
      <path d="M1569.10596857892051,573.39850643882437c2.14274179388849,0,3.531378774940094-1.983312961711817,4.205768491288836-3.808789923969016,1.508209625841118-4.047935377607246,2.381887083471156-9.404793537786645,2.85698905863137-12.698623585095447,1.230801089959641.157835999392773,2.421744631708862.237551150568834,3.493115528619455.237551150568834,1.190943541760134,0,2.342029535169786-.117978423772001,3.014824949650574-.237551150568834-1.109634143260337,4.008077801991021-3.252375937239776,12.85645958443547-4.165910943091149,19.563692405792608-.833819909379599-.11957272676409-1.707497367018732-.237551150530635-2.936704155079497-.237551150530635-1.031513348729277,0-2.342029535189795.117978423766544-3.413400432129492.237551150530635.318860386008964-1.031514056437118.59626892183951-2.063028112875145.833819909379599-3.094542169314082-.872083155700238,1.07137163207517-2.896846606819963,3.531381197866722-7.064351851820902,3.531381197866722-3.214112690919137,0-5.237281840089054-1.707498538546133-5.237281840089054-4.524631981714265,0-1.983312961691809.872083155740256-4.999734282808276,1.270658638190071-6.825211245142782.634532168120131-3.016421321157395,1.189349239799412-5.674124461907923,1.586330420359445-8.650688207488201,1.15108599342966.157835999392773,2.699153167499389.237551150568834,3.888502407260603.237551150568834,1.270658638279201,0,2.1044785476588-.117978423772001,3.056276799828993-.237551150568834-2.460007877989483,8.690545783103516-3.571236323188714,12.698623585095447-3.571236323188714,14.246691821244895,0,1.269065206941377.872083155700238,2.260721687819569,2.18259934218986,2.260721687819569Z" fill="#ffe68a"/>
      <path d="M1598.622874511040209,562.644932542882088c-.436838728859584-.237551150552463-.911940703959772-.476696604102472-1.90519080635022-.476696604102472-2.577986220820094,0-3.968217503810592,1.785619386708277-4.642607220159334,4.047935377551767-.674389716421501,2.222458415250003-1.666045516880331,7.778604453435037-1.984905902851096,10.238614019221131-1.151085993478773-.159430302362125-2.142741793970345-.237551150530635-3.411806130219702-.237551150530635-.991655800489752,0-2.104478547609688.117978423766544-3.134397594429174.237551150530635.991655800509761-3.730669075850528,3.571236323239646-14.166976670025178,4.086195846610281-19.563692405792608,1.190943541709203.119572726796832,2.144336095878316.237551150568834,3.373542883939081.237551150568834,1.308921884479787,0,2.380292781470416-.117978423772001,3.056276799759871-.237551150568834-.516553825349547,1.626189084341604-.755699114779418,2.69756071636948-1.151085993469678,4.523037678738547.714247264659207-1.269065207055064,2.61784376911055-4.88016155610967,6.310247038969464-4.88016155610967.357123632360526,0,.634532168171063.039857575615315.832225607509827.07971515123063-.674389716428777,2.102885688469541-.953392554169113,3.611096349053696-1.031513348749286,5.793697188710212l-.396981180560033.237551150552463Z" fill="#ffe68a"/>
    </g>
  </g>
  <g>
    <path d="M1480.767134254609118,1022.026844748990698l18.373717758391649-17.991580797970528-11.593000158740324.025177092469676-12.665354453220061,12.432811007249256c1.658896926979651,2.560915986530745,3.722141575350179,4.221287604101235,5.884636853568736,5.533592698251596M1473.913823458260595,1014.812144362860636c-4.447904037031549-9.485311387939873.288824643939734-16.686683057549089,3.009713480409118-19.394237527198129,1.636669215629809-1.518185456838182,9.217222814380875-8.556629245164004,20.321428029059462-3.489592479259954l-23.33114150946858,22.883830006458084ZM1506.154118708829628,1012.805175262330522l-12.776447808779267.005932663199928-10.458426352910465,10.277723082788725c11.911442917300519,4.341263003940185,20.706542621399421-3.316302212979281,23.234874161689731-10.283655745988654" fill="#080b57"/>
    <path d="M1512.395992287940317,1012.105335713629756c.601346039678901-3.193366131650691.956819916740642-5.388428905569526,1.253046264318982-7.898996357300348,1.713703434390482.029629414961164,3.439249594530338.142191810929944,5.157382750760007.142191810929944,2.85418730280071,0,5.309936946750895-.056275547798577,6.112722326890434-.142191810929944-.122936081270382.342150810680323-.245872162558953.685781962039982-.342139510319612,1.198262357520434-.112573696300387.598385358269297-.102200010949673.854619905830987-.124416422020659,1.282675679231033-2.18619202994887-.142191810860822-5.643205713078714-.342150810640305-6.517081348500142-.342150810640305-.537657487959223,2.081031337598688-.924241120728766,4.133902300589398-1.315265775660009,6.216413978880155,2.543134947500221-.057767188880462,4.418285922420182-.114054036990638,6.651860155590839-.228096773691504-.238459158710612.656141246810876-.315482077159686.912381444530183-.386583632769543,1.282670029111614-.059236229280941.31400738657976-.048873844290938.570247584329991-.07405093673151,1.168632942528347-2.18173970747921-.17181557567892-4.348676007808535-.256240197719308-6.561514170638475-.256240197719308-.226616432961237,1.196770716509491-.485822962291422,2.423170847931033-.716880417379798,3.651045669910673-.22513609221096,1.195290375750119-.426575432740719,2.421684856999491-.582090310041167,3.563654716259407,2.183220048171279,0,4.446423696290367-.115528727550554,6.736284777560286-.371768925300785-.133298466289489.398432008640157-.244391821870522.684295971150277-.358434558509543,1.282681329390471-.111093355581033.599865698959547-.106641033100459.884249320750314-.112573696300387,1.226394481260286-1.04420522025066-.028137773899289-2.390580751509333-.142191810869917-5.069986147000236-.142191810869917-4.747102366300169,0-5.548407405749458.084430272210739-6.200118930679309.142191810869917.647270502809988-2.509075810650756,1.118278757619919-4.704144234699925,1.721105138009079-7.897516016579175l.728734443420763-3.877662102860995Z" fill="#080b57"/>
    <path d="M1530.051948204760265,1008.854643105270952c.204388721580472-1.082716679511577.396946017739538-2.109157811191835.385091991729496-2.509064510391909-1.136042846199416,0-3.614008901260604.170329584831052-5.39880259094025.370288584570517.168849244109879-.428055773429151.30066736965091-.826493432208736.382131310259865-1.254537905309917.079983599949628-.428055773409142.097758988860733-.826493432230563.090357285280334-1.254537905339021,2.633492232660501.085904962759741,3.933943300809915.143672151620194,7.545002820890659.143672151620194,3.609567879078895,0,4.930755017569027-.057767188860453,7.422055439339601-.143672151620194-.167368903359602.428044473108457-.300667369700022.826482131929879-.382131310328987,1.254537905339021-.079983599871412.428044473101181-.097758988780697.826482131880766-.090357285200298,1.254537905309917-1.534469204700144-.199958999739465-3.94875800832051-.370288584570517-5.11293862841012-.370288584570517-.133309766610182.399906699200073-.325855762481297,1.426347830880331-.530255784380643,2.509064510391909l-1.341923208809021,7.127315082618225c-.601346039671625,3.193371781841051-.956831217110448,5.389920546640496-1.254537905320831,7.898996357320357-.629495113909798-.056281197968929-1.399690397689483-.14219181091903-2.360962636919794-.14219181091903-.959791898510957,0-1.764057619360756.085910612950101-2.414277503290577.14219181091903.647259202489295-2.50907581067986,1.118267457270122-4.705624575479305,1.719613496939928-7.898996357320357l1.341934509160637-7.127315082618225Z" fill="#080b57"/>
    <path d="M1540.718481081499704,1012.105335713629756c.601346039709824-3.193366131650691.95681991678066-5.388428905569526,1.253046264349905-7.898996357300348,1.713703434401395.029629414961164,3.439249594510329.142191810929944,5.157382750800025.142191810929944,2.85418730272977,0,5.309936946719972-.056275547798577,6.112722326859512-.142191810929944-.122936081268563.342150810680323-.245872162569867.685781962039982-.342139510319612,1.198262357520434-.112573696269465.598385358269297-.102200010949673.854619905830987-.124416422049762,1.282675679231033-2.186192029899757-.142191810860822-5.643205713060524-.342150810640305-6.517081348509237-.342150810640305-.537657487941033,2.081031337598688-.924241120690567,4.133902300589398-1.316746116310242,6.216413978880155,2.544615288159548-.057767188880462,4.419766263110432-.114054036990638,6.653340496250166-.228096773691504-.238459158690603.656141246810876-.315482077130582.912381444530183-.386583632749534,1.282670029111614-.059236229280941.31400738657976-.04887384425092.570247584329991-.074050936740605,1.168632942528347-2.181739707501038-.17181557567892-4.348676007790345-.256240197719308-6.561514170649389-.256240197719308-.226616432970332,1.196770716509491-.485822962220482,2.423170847931033-.716880417350694,3.651045669910673-.225136092250978,1.195290375750119-.426575432720711,2.421684856999491-.583570650800539,3.563654716259407,2.184700388930651,0,4.447904037040644-.115528727550554,6.737765118319658-.371768925300785-.131818125570135.398432008640157-.244391821839599.684295971150277-.356954217828388,1.282681329390471-.11405403695062.599865698959547-.108121373821632.884249320750314-.11405403695062,1.226394481260286-1.044205220259755-.028137773899289-2.390580751540256-.142191810869917-5.069986147060263-.142191810869917-4.747102366271065,0-5.548407405689431.084430272210739-6.200118930619283.142191810869917.647270502739048-2.509075810650756,1.119759098270151-4.704144234699925,1.719624797258803-7.897516016579175l.730214784100099-3.877662102860995Z" fill="#080b57"/>
    <path d="M1568.485819506040571,1020.572946760410559c-.471019555141538.798344357968745-.859072228311561,1.62631248075013-1.09606234659077,2.423170847889196-1.69443640443933.798344357979659-3.7902824494995,1.256018246040185-6.177902519590134,1.256018246040185-6.755529206919164,0-9.96668202778892-4.135382641310571-8.952083621868951-9.523822847229894,1.482634679019611-7.86937259250044,7.496106376069292-10.89092879862983,13.611789384358417-10.89092879862983,2.038078856161519,0,4.487918437600456.598385358240193,5.677276150190664,1.395249375500498-.555432876859413.942016509628957-.947937872469993,1.940319867369908-1.217518087139979,2.908993810189713h-.408800043809606c-1.122708479430003-1.767018300799464-2.461659706510545-2.538705225601007-4.529367977640504-2.538705225601007-3.116331912910027,0-7.139152158219076,2.652747962300054-8.278155685859019,8.697340715300015-1.10494439084141,5.874257518051309,2.012879163099569,8.183374328949867,5.363240512839184,8.183374328949867,1.86330824919969,0,4.178357723299996-.854625555988605,5.671354787300515-2.138787226100249l.336229447810183.228096773691504Z" fill="#080b57"/>
    <path d="M1581.887468310620534,1008.056298747260371c-.305130992461272-1.626306830619797-1.285658961320223-2.452788962569684-3.061548006111479-2.452788962569684-1.775911645399901,0-3.25410530227964,1.198262357518615-3.511820190609797,2.566842999549408-.793914636149566,4.219807263349139,8.257430915849909,3.165228357740489,7.038443788340373,9.63638524316957-.719852399139199,3.821380904870239-4.29979086324056,6.444505102390394-8.929889811450266,6.444505102390394-2.097315085398805,0-3.731023619619009-.598385358240193-4.458266422019733-1.224914140550027.626534432491098-1.312305094210387,1.081236338759481-2.338746225870636,1.527078801391326-3.622902245859223h.552449594819336c.008904644910217,1.654444604599121,1.079767298389925,3.079317744888613,3.439249594570356,3.079317744888613,2.272085692389737,0,3.654000701199038-1.310824753500128,3.954679371188831-2.907507819340026.810187083690835-4.305712226108881-8.081168667909878-3.165222707610155-6.863673181389458-9.637865583859821.740577169179232-3.933943300839019,4.236102311549985-6.100879601179258,7.700528998590016-6.100879601179258,2.097315085409718,0,3.568095738390184.540629469709529,4.513072929450573,1.396729716248956-.516921417631238.884249320741219-.848698542949933,1.568550942060028-1.463367649061183,2.823077547111097h-.436937817708895Z" fill="#080b57"/>
    <path d="M1600.08786190184037,1023.880366929050069c-.921269139000287-.056281197990756-1.719613496979946-.142191810869917-2.534252903151355-.142191810869917-.816108446599173,0-1.676672315888936.085910612879161-2.503154447818815.142191810869917-.245872162529849-1.937347885610507-.546550832579669-3.90579987674937-.909426413239999-5.844633753240487-1.245655861050182-.029623764809003-2.463151347510575-.057767188889557-3.716220212470944-.057767188889557-1.01903942807985,0-2.014370804119608.028143424080554-3.039331595049589.057767188889557-1.150846253360214,1.938833876491117-2.156551314688841,3.87766210287009-3.079312094680063,5.844633753240487-.456193547350267-.056281197990756-.876836316900153-.142191810869917-1.341934509098792-.142191810869917-.466544632081423,0-.919777497991163.085910612879161-1.484115019760793.142191810869917,2.023275449009816-3.16522270761925,8.301886338540498-13.314088346280187,12.029949276758998-19.816354987340674.367327903140904.057755888570682.700574068870992.143672151611099,1.079744697761271.143672151611099.37919322946982,0,.745029491610694-.085916263040417,1.133104765360258-.143672151611099,1.251554623349875,6.502266641060487,3.027466268709759,15.169977941461184,4.364948455389822,19.816354987340674M1593.788526242249645,1016.353139497059601c-.408800043809606-2.30911681094949-.801305039389263-4.561952423870025-1.313796735190408-6.78664461273911-1.410052782648563,2.224692188869085-2.735692243619269,4.47752780178962-4.01540724141887,6.78664461273911h5.329203976609278Z" fill="#080b57"/>
  </g>
  <rect x="704.051244040357233" y="447.949148687311208" width="960.000174999992851" height="640.00007500000811" rx="37.562995330399644" ry="37.562995330399644" fill="none" stroke="url(#linear-gradient-2)" stroke-miterlimit="10"/>
</svg>