<svg xmlns="http://www.w3.org/2000/svg" id="Logos" version="1.1" viewBox="0 0 2048 1536"><defs><clipPath id="clippath"><path d="M1439.31 481.05H638.47c-16.57 0-30 13.43-30 30v513.89c0 16.57 13.43 30 30 30h800.84c16.57 0 30-13.43 30-30V511.05c0-16.5-13.5-30-30-30Z" class="st0"/></clipPath><clipPath id="clippath-1"><path d="M1292.96 711.55h-113.79c-2.57 0-4.67 2.1-4.67 4.67v72.49c0 2.58 2.09 4.67 4.67 4.67h101.3c1.25 0 2.42-.49 3.3-1.37l12.49-12.5a4.66 4.66 0 0 0 1.37-3.31v-59.99c0-2.58-2.09-4.67-4.67-4.67Z" class="st0"/></clipPath><filter id="drop-shadow-1" width="1090.9" height="1034.01" x="378.41" y="250.99" filterUnits="userSpaceOnUse"><feOffset dx="21" dy="21"/><feGaussianBlur result="blur" stdDeviation="15"/><feFlood flood-color="#000" flood-opacity=".75"/><feComposite in2="blur" operator="in"/><feComposite in="SourceGraphic"/></filter><style>.st0{fill:none}.st2,.st3{fill:#ffe68a}.st6{fill:#8187e4}.st7{fill:#fff}.st8{fill:#080b57}</style></defs><g style="filter:url(#drop-shadow-1)"><path d="M1439.31 481.05H638.47c-16.57 0-30 13.43-30 30v513.89c0 16.57 13.43 30 30 30h800.84c16.57 0 30-13.43 30-30V511.05c0-16.5-13.5-30-30-30Zm-17.7 324.97c0 8.12-3.16 15.75-8.9 21.49l-18.91 18.93c-5.74 5.75-13.37 8.91-21.48 8.91H1174c-16.75 0-30.37-13.63-30.37-30.4s9.68 0 9.68 0c0 11.44 9.26 20.71 20.69 20.71h198.32c5.49 0 10.75-2.18 14.63-6.07l18.91-18.93c3.88-3.88 6.06-9.15 6.06-14.64v-94.97c0-11.44-9.26-20.71-20.69-20.71H1174c-11.43 0-20.69 9.27-20.69 20.71s-9.68 0-9.68 0c0-16.76 13.63-30.39 30.37-30.39h217.23c16.75 0 30.38 13.63 30.38 30.39v94.98Zm-102.29-53.55v37.13c0 2.9-1.13 5.63-3.18 7.68l-24.97 25a10.771 10.771 0 0 1-7.67 3.18H1174c-5.98 0-10.85-4.87-10.85-10.86V711.05c0-5.99 4.87-10.86 10.85-10.86h134.48c5.98 0 10.85 4.87 10.85 10.86v41.42Zm16.8-62.14h-16.8v-9.68h16.8v9.68Zm0 165.02h-16.8v-9.68h16.8v9.68Z" class="st6"/><g style="clip-path:url(#clippath)"><path d="M1174 825.46h109.5c2.9 0 5.62-1.13 7.67-3.18l24.97-25c2.05-2.05 3.18-4.78 3.18-7.68V711.05c0-5.99-4.87-10.86-10.85-10.86h-134.48c-5.98 0-10.85 4.87-10.85 10.86V814.6c0 5.99 4.87 10.86 10.85 10.86Zm-9.84-72.99v-41.42c0-5.43 4.42-9.85 9.84-9.85h134.48c5.43 0 9.84 4.42 9.84 9.85V789.6c0 2.63-1.02 5.1-2.88 6.97l-24.97 25a9.782 9.782 0 0 1-6.96 2.89h-109.5c-5.43 0-9.84-4.42-9.84-9.85v-62.13Z" class="st0"/><path d="M1174 824.45h109.5c2.63 0 5.1-1.03 6.96-2.89l24.97-25a9.795 9.795 0 0 0 2.88-6.97v-37.13h-19.68v23.74c0 1.52-.59 2.94-1.66 4.02l-12.49 12.5a5.65 5.65 0 0 1-4.02 1.66h-101.3c-3.13 0-5.68-2.55-5.68-5.68v-36.24h-9.34v62.13c0 5.43 4.42 9.85 9.84 9.85Z" class="st8"/><path d="M1179.17 793.38h101.3c1.25 0 2.42-.49 3.3-1.37l12.49-12.5a4.66 4.66 0 0 0 1.37-3.31v-23.74H1174.5v36.24c0 2.58 2.09 4.67 4.67 4.67Z" class="st8"/><path d="M1319.32 789.6c0 2.9-1.13 5.63-3.18 7.68l-24.97 25a10.771 10.771 0 0 1-7.67 3.18H1174c-5.98 0-10.85-4.87-10.85-10.86v-62.13h-9.84v72.49c0 11.44 9.26 20.71 20.69 20.71h198.32c5.49 0 10.75-2.18 14.63-6.07l18.91-18.93c3.88-3.88 6.06-9.15 6.06-14.64v-53.55h-92.6v37.13Z" class="st8"/><path d="M1297.63 716.22c0-2.58-2.09-4.67-4.67-4.67h-113.79c-2.57 0-4.67 2.1-4.67 4.67v36.24h123.13v-36.24Z" class="st6"/><path d="M1173.49 716.22c0-3.13 2.55-5.68 5.68-5.68h113.79c3.13 0 5.68 2.55 5.68 5.68v36.24h19.68v-41.42c0-5.43-4.41-9.85-9.84-9.85H1174c-5.43 0-9.84 4.42-9.84 9.85v41.42h9.34v-36.24Z" class="st6"/><path d="M1391.23 690.33H1174c-11.43 0-20.69 9.27-20.69 20.71v41.42h9.84v-41.42c0-5.99 4.87-10.86 10.85-10.86h134.48c5.98 0 10.85 4.87 10.85 10.86v41.42h92.6v-41.42c0-11.44-9.26-20.71-20.69-20.71Z" class="st6"/><g style="clip-path:url(#clippath-1)"><path d="M1280.47 793.89h-101.3c-2.86 0-5.17-2.32-5.17-5.18v-72.49c0-2.86 2.32-5.18 5.17-5.18h113.79c2.86 0 5.17 2.32 5.17 5.18v59.99c0 1.37-.54 2.69-1.51 3.66l-12.49 12.5c-.97.97-2.29 1.52-3.66 1.52Z" class="st3"/><path d="m1224.48 711.298.976-.26 11.06 41.419-.976.26z" class="st8"/><path d="m1194.418 711.419.715-.713 41.294 41.423-.715.713z" class="st8"/><path d="m1235.93 752.95-62.06-16.68.26-.97 62.06 16.68-.26.97z" class="st8"/><path d="m1174.13 769.64-.26-.98 62.06-16.68.26.97-62.06 16.69z" class="st8"/><path d="m1194.404 793.491 41.272-41.445.715.712-41.272 41.446z" class="st8"/><path d="m1224.444 793.682 11.067-41.417.975.26-11.066 41.417z" class="st8"/><path d="m1235.542 752.723.975-.26 11.06 41.418-.976.261z" class="st8"/><path d="m1235.71 752.805.715-.713 41.294 41.424-.716.713z" class="st8"/><path d="m1298 769.64-62.07-16.69.26-.97 62.07 16.68-.26.98z" class="st8"/><path d="m1236.19 752.95-.26-.97L1298 735.3l.26.97-62.07 16.68z" class="st8"/><path d="m1235.706 752.06 41.272-41.446.716.713-41.272 41.445z" class="st8"/><path d="m1235.513 752.274 11.067-41.417.975.26-11.066 41.418z" class="st8"/><path d="M1240.17 737.09h-8.21l-7.11 4.12-4.11 7.14v8.24l4.11 7.13 7.11 4.12h8.21l7.11-4.12 4.11-7.13v-8.24l-4.11-7.14-7.11-4.12z" class="st2"/><path d="M1240.17 768.34h-8.21a.43.43 0 0 1-.25-.07l-7.11-4.12a.445.445 0 0 1-.18-.18l-4.11-7.14a.451.451 0 0 1-.07-.25v-8.24c0-.09.02-.18.07-.25l4.11-7.13c.04-.08.11-.14.18-.18l7.11-4.12c.08-.04.16-.07.25-.07h8.21c.09 0 .18.02.25.07l7.11 4.12c.08.04.14.11.18.18l4.11 7.13c.05.08.07.16.07.25v8.24c0 .09-.02.18-.07.25l-4.11 7.14c-.04.08-.11.14-.18.18l-7.11 4.12c-.08.04-.16.07-.25.07Zm-8.08-1h7.94l6.88-3.98 3.97-6.9v-7.97l-3.97-6.9-6.88-3.98h-7.94l-6.88 3.98-3.97 6.9v7.97l3.97 6.9 6.88 3.98Z" class="st8"/></g><path d="M895.37 969.23c-110.93 0-201.18-90.25-201.18-201.18s90.25-201.18 201.18-201.18 201.18 90.25 201.18 201.18-90.25 201.18-201.18 201.18Z" class="st2"/><path d="M895.37 911.75c-79.24 0-143.7-64.46-143.7-143.7s64.46-143.7 143.7-143.7 143.7 64.46 143.7 143.7-64.46 143.7-143.7 143.7Z" class="st6"/><path d="M895.37 883.01c-63.39 0-114.96-51.57-114.96-114.96s51.57-114.96 114.96-114.96 114.96 51.57 114.96 114.96-51.57 114.96-114.96 114.96Z" class="st2"/><path d="M895.37 825.53c-31.69 0-57.48-25.79-57.48-57.48s25.79-57.48 57.48-57.48 57.48 25.79 57.48 57.48-25.79 57.48-57.48 57.48Z" class="st6"/><circle cx="895.37" cy="768.05" r="28.74" class="st2"/><path d="M1238.04 591.94c-.64 1.35-.85 2.21-1.1 3.45-2.46 1.1-5.3 1.42-7.23 1.42-7.29 0-12.56-3.77-12.56-11.32s5.3-14.38 14.84-14.38c3.38 0 6.76.78 9.54 2.74-.67 1.39-.92 2.35-1.1 3.91l-.89-.07c-1.03-3.13-4.27-4.16-6.51-4.16-7.12 0-9.72 8.5-9.72 13.56 0 5.98 4.16 7.3 6.87 7.3s5.23-1 7.22-2.74l.64.28ZM1249.27 593.55c1.92 0 3.17-1.78 3.77-3.42 1.35-3.63 2.13-8.43 2.56-11.39 1.1.14 2.17.21 3.13.21 1.07 0 2.1-.11 2.7-.21-1 3.59-2.92 11.53-3.74 17.54-.75-.11-1.53-.21-2.63-.21-.92 0-2.1.11-3.06.21.28-.92.53-1.85.75-2.77-.78.96-2.6 3.17-6.33 3.17-2.88 0-4.7-1.53-4.7-4.06 0-1.78.78-4.48 1.14-6.12.57-2.7 1.07-5.09 1.42-7.76 1.03.14 2.42.21 3.49.21 1.14 0 1.88-.11 2.74-.21-2.21 7.79-3.2 11.39-3.2 12.78 0 1.14.78 2.03 1.96 2.03ZM1272.18 596.82c-3.45 0-4.88-1.89-5.52-2.7-1.28.71-2.06 1.28-3.27 2.17-.29-.07-.53-.11-.68-.11-.04 0-.43 0-.82.11 1.18-4.06 1.42-5.34 4.63-19.89.82-3.74.92-5.23 1.07-6.48 1.14.14 1.81.21 2.95.21s1.85-.07 2.99-.21c-.39 1.25-.64 2.13-.96 3.38-.29 1.1-1.35 6.01-1.57 7.01 1.39-1.39 3.2-2.1 5.09-2.1 4.13 0 6.51 3.31 6.51 6.9 0 5.16-3.38 11.71-10.42 11.71Zm1.89-16.16c-1.89 0-2.95 1.71-3.59 3.52-.85 2.38-1.67 5.62-1.67 7.9 0 1.64.89 2.81 2.6 2.81 1.1 0 2.35-.5 3.59-3.31 1.28-2.92 1.89-6.05 1.89-7.61 0-2.38-1.53-3.31-2.81-3.31ZM1300.18 595.93c-1.1.53-2.17.64-3.06.64-1.78 0-2.88-.6-3.67-2.45-.64.85-1.99 2.63-4.91 2.63-2.56 0-4.91-1.46-4.91-4.59 0-5.37 5.55-5.77 8.22-5.94 1.99-.14 2.99-.25 2.99-2.13 0-2.03-1-2.95-3.06-2.95-1.6 0-3.17.6-4.48 1.53.04-.39.07-.78.07-1.18 0-.43 0-.82-.07-1.25 1.96-1.1 4.16-1.89 6.76-1.89s6.01.71 6.01 4.98c0 1.78-.53 3.63-1 5.48-.46 1.78-.96 3.91-.96 4.77 0 .75.32 1.28 1.14 1.28.39 0 .78-.07 1.14-.18l-.21 1.25Zm-11.35-4.06c0 1.14.57 2.1 1.81 2.1s1.92-.78 2.28-1.89c.28-.85.89-3.31 1.14-4.38-1.39.04-5.23.18-5.23 4.16ZM1317.22 593.58c-.53.78-.92 1.46-1.39 2.42-1.35.53-2.81.75-4.27.75-5.16 0-9.04-3.31-9.04-8.29 0-3.91 2.74-10 10.43-10 2.74 0 4.98.96 6.33 1.99-.89 1.78-1.25 3.17-1.49 3.98l-1.14-.14c.14-2.14-.71-3.77-3.1-3.77-3.59 0-5.13 4.91-5.13 8.4 0 2.99 1.32 5.41 4.59 5.41 1.03 0 2.28-.25 3.59-1.35l.6.6ZM1336.15 593.58c-.11.21-.64 1.03-1.14 2.1-.85.32-2.81 1.1-5.98 1.1-5.48 0-8.82-3.17-8.82-8.15 0-5.23 3.77-10.25 10.14-10.25 4.27 0 7.01 2.21 7.01 6.65 0 1.1-.14 2.06-.43 3.13-.78-.11-1.99-.28-4.55-.28h-6.33c-.04.32-.07.82-.07 1.14 0 2.14 1.14 5.37 5.02 5.37 2.49 0 3.91-1 4.66-1.57l.5.75Zm-4.42-7.54c.25-.82.68-2.31.68-3.88s-1.03-2.17-1.89-2.17c-2.6 0-3.99 3.42-4.34 6.05h5.55ZM1347.21 570.13c1.1 0 1.89-.07 3.03-.21-1.18 4.45-4.38 18.79-5.73 26.37-.6-.07-1.67-.21-2.88-.21s-2.28.14-2.92.21c.78-2.56 1.46-5.12 2.03-7.72 2.38-10.89 2.63-12.1 3.63-18.65.93.14 1.78.21 2.85.21Z" class="st7"/><path d="M1369.69 589.21c-.89 4.13-1.07 5.73-1.25 7.08-1.1-.14-2.24-.18-3.38-.18-1.07 0-2.14.07-3.2.18 1.78-6.26 4.38-18.18 4.77-21.78-.5-.04-1.03-.04-1.6-.04-1.78 0-3.74.14-4.98.32.39-1.14.57-1.99.64-3.13 3.24.14 6.87.18 9.71.18 2.99 0 7.37-.11 9.71-.18-.35.96-.6 2.06-.71 3.13-1.42-.25-2.92-.32-4.06-.32-.64 0-1.46 0-2.24.04-.64 1.96-1.35 5.12-3.42 14.7ZM1384.17 593.55c1.92 0 3.17-1.78 3.77-3.42 1.35-3.63 2.14-8.43 2.56-11.39 1.1.14 2.17.21 3.13.21 1.07 0 2.1-.11 2.7-.21-1 3.59-2.92 11.53-3.74 17.54-.75-.11-1.53-.21-2.63-.21-.92 0-2.1.11-3.06.21.29-.92.53-1.85.75-2.77-.78.96-2.6 3.17-6.33 3.17-2.88 0-4.7-1.53-4.7-4.06 0-1.78.78-4.48 1.14-6.12.57-2.7 1.07-5.09 1.42-7.76 1.03.14 2.42.21 3.49.21 1.14 0 1.89-.11 2.74-.21-2.21 7.79-3.2 11.39-3.2 12.78 0 1.14.78 2.03 1.96 2.03ZM1410.64 583.9c-.39-.21-.82-.43-1.71-.43-2.31 0-3.56 1.6-4.16 3.63-.6 1.99-1.49 6.98-1.78 9.18-1.03-.14-1.92-.21-3.06-.21-.89 0-1.89.11-2.81.21.89-3.35 3.2-12.7 3.66-17.54 1.07.11 1.92.21 3.03.21 1.17 0 2.13-.11 2.74-.21-.46 1.46-.68 2.42-1.03 4.06.64-1.14 2.35-4.38 5.66-4.38.32 0 .57.04.75.07-.6 1.89-.85 3.24-.92 5.2l-.36.21Z" class="st2"/><path d="m1304.96 995.83 16.48-16.13-10.4.02-11.36 11.15c1.49 2.3 3.34 3.79 5.28 4.96m-6.15-6.47c-3.99-8.51.26-14.96 2.7-17.39 1.47-1.36 8.27-7.67 18.22-3.13l-20.92 20.52Zm28.91-1.8h-11.46l-9.38 9.22c10.68 3.89 18.57-2.97 20.83-9.22M1333.32 986.94c.54-2.86.86-4.83 1.12-7.08 1.54.03 3.08.13 4.62.13 2.56 0 4.76-.05 5.48-.13-.11.31-.22.61-.31 1.07-.1.54-.09.77-.11 1.15-1.96-.13-5.06-.31-5.84-.31-.48 1.87-.83 3.71-1.18 5.57 2.28-.05 3.96-.1 5.96-.2-.21.59-.28.82-.35 1.15-.05.28-.04.51-.07 1.05-1.96-.15-3.9-.23-5.88-.23-.2 1.07-.44 2.17-.64 3.27-.2 1.07-.38 2.17-.52 3.2 1.96 0 3.99-.1 6.04-.33-.12.36-.22.61-.32 1.15-.1.54-.1.79-.1 1.1-.94-.03-2.14-.13-4.55-.13-4.26 0-4.98.08-5.56.13.58-2.25 1-4.22 1.54-7.08l.65-3.48ZM1349.15 984.02c.18-.97.36-1.89.35-2.25-1.02 0-3.24.15-4.84.33.15-.38.27-.74.34-1.12.07-.38.09-.74.08-1.12 2.36.08 3.53.13 6.77.13s4.42-.05 6.66-.13c-.15.38-.27.74-.34 1.12-.07.38-.09.74-.08 1.12-1.38-.18-3.54-.33-4.58-.33-.12.36-.29 1.28-.48 2.25l-1.2 6.39c-.54 2.86-.86 4.83-1.12 7.08-.56-.05-1.26-.13-2.12-.13s-1.58.08-2.16.13c.58-2.25 1-4.22 1.54-7.08l1.2-6.39ZM1358.71 986.94c.54-2.86.86-4.83 1.12-7.08 1.54.03 3.08.13 4.62.13 2.56 0 4.76-.05 5.48-.13-.11.31-.22.61-.31 1.07-.1.54-.09.77-.11 1.15-1.96-.13-5.06-.31-5.84-.31-.48 1.87-.83 3.71-1.18 5.57 2.28-.05 3.96-.1 5.97-.2-.21.59-.28.82-.35 1.15-.05.28-.04.51-.07 1.05-1.96-.15-3.9-.23-5.88-.23-.2 1.07-.44 2.17-.64 3.27-.2 1.07-.38 2.17-.52 3.2 1.96 0 3.99-.1 6.04-.33-.12.36-.22.61-.32 1.15-.1.54-.1.79-.1 1.1-.94-.03-2.14-.13-4.55-.13-4.26 0-4.98.08-5.56.13.58-2.25 1-4.22 1.54-7.08l.65-3.48ZM1383.61 994.53c-.42.72-.77 1.46-.98 2.17-1.52.72-3.4 1.13-5.54 1.13-6.06 0-8.94-3.71-8.03-8.54 1.33-7.06 6.72-9.77 12.21-9.77 1.83 0 4.02.54 5.09 1.25-.5.84-.85 1.74-1.09 2.61h-.37c-1.01-1.58-2.21-2.28-4.06-2.28-2.79 0-6.4 2.38-7.42 7.8-.99 5.27 1.8 7.34 4.81 7.34 1.67 0 3.75-.77 5.09-1.92l.3.2ZM1395.63 983.31c-.27-1.46-1.15-2.2-2.75-2.2s-2.92 1.07-3.15 2.3c-.71 3.78 7.4 2.84 6.31 8.64-.65 3.43-3.86 5.78-8.01 5.78-1.88 0-3.35-.54-4-1.1.56-1.18.97-2.1 1.37-3.25h.5c0 1.48.97 2.76 3.08 2.76s3.28-1.18 3.55-2.61c.73-3.86-7.25-2.84-6.15-8.64.66-3.53 3.8-5.47 6.91-5.47 1.88 0 3.2.48 4.05 1.25-.46.79-.76 1.41-1.31 2.53h-.39ZM1411.95 997.49c-.83-.05-1.54-.13-2.27-.13s-1.5.08-2.24.13a86.3 86.3 0 0 0-.82-5.24c-1.12-.03-2.21-.05-3.33-.05-.91 0-1.81.03-2.73.05a62.795 62.795 0 0 0-2.76 5.24c-.41-.05-.79-.13-1.2-.13s-.82.08-1.33.13c1.81-2.84 7.44-11.94 10.79-17.77.33.05.63.13.97.13s.67-.08 1.02-.13c1.12 5.83 2.71 13.6 3.91 17.77m-5.66-6.75c-.37-2.07-.72-4.09-1.18-6.09-1.26 1.99-2.45 4.02-3.6 6.09h4.78ZM910.95 1025.89h-72.49c-11.44 0-20.71 9.26-20.71 20.69v198.32c0 5.49 2.18 10.75 6.07 14.63l18.93 18.91c3.88 3.88 9.15 6.06 14.64 6.06h53.55" class="st8"/><path d="M910.95 1285.01H857.4c-5.67 0-10.99-2.2-15-6.21l-18.93-18.91c-4.01-4-6.21-9.33-6.21-14.99v-198.32c0-11.69 9.52-21.19 21.21-21.19h72.49v1.01h-72.49c-11.14 0-20.21 9.05-20.21 20.18v198.32c0 5.39 2.1 10.46 5.92 14.27l18.93 18.91c3.82 3.81 8.89 5.91 14.29 5.91h53.55v1.01Z" class="st8"/><path d="M910.95 1284.5h41.42c11.44 0 20.71-9.26 20.71-20.69v-217.23c0-11.43-9.27-20.69-20.71-20.69h-41.42" class="st6"/><path d="M952.37 1285.01h-41.42V1284h41.42c11.14 0 20.21-9.05 20.21-20.18v-217.23c0-11.13-9.06-20.18-20.21-20.18h-41.42v-1.01h41.42c11.7 0 21.21 9.51 21.21 21.19v217.23c0 11.69-9.52 21.19-21.21 21.19Z" class="st8"/><path d="M869.53 1153.06v-101.3c0-2.86 2.32-5.17 5.18-5.17h72.49c2.86 0 5.18 2.32 5.18 5.17v113.79c0 2.86-2.32 5.17-5.18 5.17h-59.99c-1.37 0-2.69-.54-3.66-1.51l-12.5-12.49a5.186 5.186 0 0 1-1.52-3.66Z" class="st3"/><path d="M947.19 1171.22H887.2a5.77 5.77 0 0 1-4.02-1.66l-12.5-12.49a5.65 5.65 0 0 1-1.66-4.02v-101.3c0-3.13 2.55-5.68 5.68-5.68h72.49c3.13 0 5.68 2.55 5.68 5.68v113.79c0 3.13-2.55 5.68-5.68 5.68Zm-72.49-124.13c-2.58 0-4.67 2.09-4.67 4.67v101.3c0 1.25.49 2.42 1.37 3.3l12.5 12.49c.87.87 2.08 1.37 3.3 1.37h59.99c2.58 0 4.67-2.09 4.67-4.67v-113.79c0-2.57-2.1-4.67-4.67-4.67H874.7Z" class="st8"/><path d="M910.95 1191.91h-37.13c-2.9 0-5.63-1.13-7.68-3.18l-25-24.97a10.932 10.932 0 0 1-3.18-7.67v-109.5c0-5.98 4.87-10.85 10.86-10.85h62.13v1.01h-62.13c-5.43 0-9.85 4.41-9.85 9.84v109.5c0 2.59 1.05 5.13 2.88 6.96l25 24.97a9.778 9.778 0 0 0 6.97 2.88h37.13v1.01Z" class="st6"/><path d="M952.37 1191.91h-41.42v-1.01h41.42c5.43 0 9.85-4.41 9.85-9.84v-134.48c0-5.42-4.42-9.84-9.85-9.84h-41.42v-1.01h41.42c5.99 0 10.86 4.87 10.86 10.85v134.48c0 5.98-4.87 10.85-10.86 10.85Z" class="st8"/><path d="m910.802 1108.176 41.421-11.052.26.976-41.42 11.052z" class="st8"/><path d="m910.582 1108.392 41.438-41.279.713.716-41.438 41.279z" class="st8"/><path d="m910.486 1108.621 16.732-62.054.975.263-16.732 62.054z" class="st8"/><path d="m893.839 1046.619.975-.263 16.689 62.066-.976.262z" class="st8"/><path d="m869.167 1067.718.713-.715 41.423 41.293-.713.716z" class="st8"/><path d="m869.447 1098.186.26-.976 41.418 11.067-.261.976z" class="st8"/><path d="m869.376 1119.24 41.421-11.052.26.976-41.42 11.052z" class="st8"/><path d="m869.15 1149.694 41.439-41.28.713.716-41.438 41.28z" class="st8"/><path d="m893.804 1170.695 16.731-62.054.976.263-16.732 62.054z" class="st8"/><path d="m910.399 1108.873.975-.262 16.678 62.069-.975.262z" class="st8"/><path d="m910.591 1108.984.713-.715 41.424 41.293-.713.716z" class="st8"/><path d="m910.864 1109.255.261-.976 41.417 11.067-.26.976z" class="st8"/><path d="M926.32 1112.75v-8.21l-4.12-7.11-7.13-4.1h-8.24l-7.14 4.1-4.12 7.11v8.21l4.12 7.12 7.14 4.1h8.24l7.13-4.1 4.12-7.12z" class="st2"/><path d="M915.07 1124.48h-8.24c-.09 0-.17-.02-.25-.07l-7.14-4.11a.445.445 0 0 1-.18-.18l-4.12-7.11a.553.553 0 0 1-.07-.25v-8.21c0-.09.02-.18.07-.25l4.12-7.11c.04-.08.11-.14.19-.19l7.14-4.1c.08-.04.16-.07.25-.07h8.24c.09 0 .17.02.25.07l7.14 4.1c.08.04.14.11.19.19l4.12 7.11c.04.08.07.16.07.25v8.21c0 .09-.02.18-.07.25l-4.12 7.11c-.04.08-.11.14-.18.18l-7.14 4.11c-.08.04-.16.07-.25.07Zm-8.11-1.01h7.97l6.9-3.97 3.98-6.88v-7.94l-3.98-6.88-6.9-3.97h-7.97l-6.9 3.97-3.98 6.88v7.94l3.98 6.88 6.9 3.97ZM879.88 510.11h72.49c11.44 0 20.71-9.26 20.71-20.69V291.1c0-5.49-2.18-10.75-6.07-14.63l-18.93-18.91a20.709 20.709 0 0 0-14.64-6.06h-53.55" class="st8"/><path d="M952.37 510.61h-72.49v-1.01h72.49c11.14 0 20.21-9.05 20.21-20.18V291.1c0-5.39-2.1-10.46-5.92-14.27l-18.93-18.91a20.099 20.099 0 0 0-14.29-5.91h-53.55V251h53.55c5.67 0 10.99 2.21 15 6.21l18.93 18.91c4.01 4 6.21 9.32 6.21 14.99v198.32c0 11.69-9.52 21.19-21.21 21.19Z" class="st8"/><path d="M879.88 251.5h-41.42c-11.44 0-20.71 9.26-20.71 20.69v217.23c0 11.43 9.27 20.69 20.71 20.69h41.42" class="st6"/><path d="M879.88 510.61h-41.42c-11.7 0-21.21-9.51-21.21-21.19V272.19c0-11.69 9.52-21.19 21.21-21.19h41.42v1.01h-41.42c-11.14 0-20.21 9.06-20.21 20.19v217.23c0 11.13 9.06 20.18 20.21 20.18h41.42v1.01Z" class="st8"/><path d="M921.3 382.94v101.3c0 2.86-2.32 5.17-5.18 5.17h-72.49c-2.86 0-5.18-2.32-5.18-5.17V370.45c0-2.86 2.32-5.17 5.18-5.17h59.99c1.37 0 2.69.54 3.66 1.51l12.5 12.49c.97.97 1.52 2.29 1.52 3.66Z" class="st3"/><path d="M916.12 489.92h-72.49c-3.13 0-5.68-2.55-5.68-5.68V370.45c0-3.13 2.55-5.68 5.68-5.68h59.99c1.49 0 2.96.61 4.02 1.66l12.5 12.49a5.66 5.66 0 0 1 1.67 4.02v101.3c0 3.13-2.55 5.68-5.68 5.68Zm-72.48-124.13c-2.58 0-4.67 2.09-4.67 4.67v113.79c0 2.57 2.1 4.67 4.67 4.67h72.49c2.58 0 4.67-2.09 4.67-4.67v-101.3c0-1.25-.49-2.42-1.37-3.3l-12.5-12.49a4.714 4.714 0 0 0-3.3-1.37h-59.99Z" class="st8"/><path d="M942.01 500.27h-62.13v-1.01h62.13c5.43 0 9.85-4.41 9.85-9.84v-109.5c0-2.63-1.02-5.1-2.88-6.96l-25-24.97a9.778 9.778 0 0 0-6.97-2.88h-37.13v-1.01h37.13c2.9 0 5.63 1.13 7.68 3.18l25 24.97c2.05 2.05 3.18 4.77 3.18 7.67v109.5c0 5.98-4.87 10.85-10.86 10.85Z" class="st6"/><path d="M879.88 500.27h-41.42c-5.99 0-10.86-4.87-10.86-10.85V354.94c0-5.98 4.87-10.85 10.86-10.85h41.42v1.01h-41.42c-5.43 0-9.85 4.41-9.85 9.84v134.48c0 5.43 4.42 9.84 9.85 9.84h41.42v1.01Z" class="st8"/><path d="m838.322 437.941 41.421-11.052.26.976-41.42 11.052z" class="st8"/><path d="m838.12 468.349 41.438-41.28.713.716-41.438 41.28z" class="st8"/><path d="m862.75 489.337 16.732-62.054.975.263-16.732 62.054z" class="st8"/><path d="m879.412 427.402.975-.262 16.689 62.066-.976.262z" class="st8"/><path d="m879.525 427.707.713-.716 41.424 41.294-.713.715z" class="st8"/><path d="m879.818 427.891.26-.976 41.418 11.067-.261.976z" class="st8"/><path d="m879.75 426.884 41.421-11.052.26.976-41.42 11.052z" class="st8"/><path d="m879.544 427.054 41.438-41.279.713.716-41.438 41.279z" class="st8"/><path d="m879.433 427.263 16.732-62.054.975.263-16.732 62.054z" class="st8"/><path d="m862.727 365.333.975-.263 16.688 62.066-.975.262z" class="st8"/><path d="m838.11 386.42.713-.715L880.247 427l-.713.715z" class="st8"/><path d="m838.39 416.82.261-.976 41.417 11.066-.26.976z" class="st8"/><path d="M864.51 423.25v8.21l4.12 7.11 7.13 4.1H884l7.14-4.1 4.11-7.11v-8.21l-4.11-7.12-7.14-4.1h-8.24l-7.13 4.1-4.12 7.12z" class="st2"/><path d="M884 443.18h-8.24c-.09 0-.17-.02-.25-.07l-7.13-4.11a.445.445 0 0 1-.18-.18l-4.12-7.11a.553.553 0 0 1-.07-.25v-8.21c0-.09.02-.18.07-.25l4.12-7.11c.04-.08.11-.14.18-.19l7.13-4.1c.08-.04.16-.07.25-.07H884c.09 0 .17.02.25.07l7.13 4.1c.08.04.14.11.18.19l4.12 7.11c.04.08.07.16.07.25v8.21c0 .09-.02.18-.07.25l-4.12 7.11c-.04.08-.11.14-.18.18l-7.13 4.11c-.08.04-.16.07-.25.07Zm-8.1-1.01h7.97l6.9-3.97 3.98-6.88v-7.94l-3.98-6.88-6.9-3.97h-7.97l-6.9 3.97-3.98 6.88v7.94l3.98 6.88 6.9 3.97ZM637.52 783.53v-72.49c0-11.44-9.26-20.71-20.69-20.71H418.51c-5.49 0-10.75 2.18-14.63 6.07l-18.91 18.93a20.709 20.709 0 0 0-6.06 14.64v53.55" class="st8"/><path d="M638.02 783.53h-1.01v-72.49c0-11.14-9.05-20.21-20.18-20.21H418.51c-5.39 0-10.46 2.1-14.27 5.92l-18.91 18.93a20.099 20.099 0 0 0-5.91 14.29v53.55h-1.01v-53.55c0-5.67 2.21-10.99 6.21-15l18.91-18.93c4-4.01 9.33-6.21 14.99-6.21h198.32c11.69 0 21.19 9.52 21.19 21.21v72.49Z" class="st8"/><path d="M378.91 783.53v41.42c0 11.44 9.26 20.71 20.69 20.71h217.23c11.43 0 20.69-9.27 20.69-20.71v-41.42" class="st6"/><path d="M616.83 846.17H399.6c-11.69 0-21.19-9.52-21.19-21.21v-41.42h1.01v41.42c0 11.14 9.06 20.21 20.19 20.21h217.23c11.13 0 20.18-9.06 20.18-20.21v-41.42h1.01v41.42c0 11.7-9.51 21.21-21.19 21.21Z" class="st8"/><path d="M510.36 742.11h101.3c2.86 0 5.17 2.32 5.17 5.18v72.49c0 2.86-2.32 5.18-5.17 5.18H497.87c-2.86 0-5.17-2.32-5.17-5.18v-59.99c0-1.37.54-2.69 1.51-3.66l12.49-12.5c.97-.97 2.29-1.52 3.66-1.52Z" class="st3"/><path d="M611.66 825.46H497.87c-3.13 0-5.68-2.55-5.68-5.68v-59.99c0-1.52.59-2.94 1.66-4.02l12.49-12.5a5.644 5.644 0 0 1 4.01-1.66h101.3c3.13 0 5.68 2.55 5.68 5.68v72.49c0 3.13-2.55 5.68-5.68 5.68Zm-101.3-82.84c-1.25 0-2.42.49-3.3 1.37l-12.49 12.5a4.66 4.66 0 0 0-1.37 3.31v59.99c0 2.58 2.09 4.67 4.67 4.67h113.79c2.57 0 4.67-2.1 4.67-4.67V747.3c0-2.58-2.09-4.67-4.67-4.67h-101.3Z" class="st8"/><path d="M627.68 783.53h-1.01V721.4c0-5.43-4.41-9.85-9.84-9.85h-109.5c-2.63 0-5.1 1.02-6.96 2.88l-24.97 25a9.778 9.778 0 0 0-2.88 6.97v37.13h-1.01V746.4c0-2.9 1.13-5.63 3.18-7.68l24.97-25c2.05-2.05 4.77-3.18 7.67-3.18h109.5c5.98 0 10.85 4.87 10.85 10.86v62.13Z" class="st6"/><path d="M616.83 835.81H482.35c-5.98 0-10.85-4.87-10.85-10.86v-41.42h1.01v41.42c0 5.43 4.41 9.85 9.84 9.85h134.48c5.43 0 9.84-4.42 9.84-9.85v-41.42h1.01v41.42c0 5.99-4.87 10.86-10.85 10.86Z" class="st8"/><path d="m554.325 783.6.976-.26 11.066 41.417-.975.26z" class="st8"/><path d="m554.407 783.884.715-.713 41.294 41.424-.715.713z" class="st8"/><path d="m554.668 784.091.262-.975 62.066 16.688-.262.976z" class="st8"/><path d="m554.688 783.01 62.054-16.732.263.975-62.054 16.732z" class="st8"/><path d="m554.424 783.115 41.28-41.438.715.712-41.28 41.438z" class="st8"/><path d="m554.283 783.387 11.052-41.42.976.26-11.052 41.42z" class="st8"/><path d="m543.267 742.18.976-.26 11.067 41.416-.976.26z" class="st8"/><path d="m513.123 742.47.715-.713 41.293 41.424-.715.713z" class="st8"/><path d="m492.596 767.401.262-.975 62.065 16.688-.262.976z" class="st8"/><path d="m492.63 799.69 62.055-16.73.263.974-62.054 16.732z" class="st8"/><path d="m513.138 824.529 41.28-41.438.715.713-41.28 41.438z" class="st8"/><path d="m543.211 824.812 11.053-41.421.975.26-11.052 41.421z" class="st8"/><path d="M550.66 798.91h8.21l7.11-4.12 4.11-7.14v-8.24l-4.11-7.13-7.11-4.12h-8.21l-7.11 4.12-4.11 7.13v8.24l4.11 7.14 7.11 4.12z" class="st2"/><path d="M558.87 799.41h-8.21a.43.43 0 0 1-.25-.07l-7.11-4.12a.546.546 0 0 1-.19-.18L539 787.9a.553.553 0 0 1-.07-.25v-8.24c0-.09.02-.17.07-.25l4.11-7.14c.04-.08.11-.14.19-.18l7.11-4.12c.08-.04.16-.07.25-.07h8.21c.09 0 .18.02.25.07l7.11 4.12c.08.04.14.11.19.18l4.11 7.14c.04.08.07.16.07.25v8.24c0 .09-.02.17-.07.25l-4.11 7.14c-.04.08-.11.14-.19.18l-7.11 4.12c-.08.04-.16.07-.25.07Zm-8.07-1.01h7.94l6.88-3.98 3.97-6.9v-7.97l-3.97-6.9-6.88-3.98h-7.94l-6.88 3.98-3.97 6.9v7.97l3.97 6.9 6.88 3.98Z" class="st8"/><path d="m531.41 1134.44-13.79-13.79c-2.67-2.67-3.68-6.39-2.51-9.22l10.42-25.27c.29-.7.7-1.32 1.22-1.84l145.51-145.51 9.81-9.81c2.66-2.66 7.54-2.09 10.9 1.27l21.3 21.3" class="st7"/><path d="m531.06 1134.8-13.79-13.79c-2.81-2.82-3.87-6.74-2.62-9.77l10.42-25.27c.31-.76.76-1.43 1.33-2l155.32-155.32c1.4-1.4 3.39-2.03 5.6-1.77 2.17.25 4.31 1.33 6.01 3.04l21.3 21.3-.71.71-21.3-21.3c-1.54-1.55-3.47-2.52-5.42-2.75-1.9-.22-3.6.3-4.77 1.48l-155.32 155.32c-.47.47-.85 1.04-1.11 1.67l-10.42 25.27c-1.1 2.66-.13 6.14 2.4 8.67l13.79 13.79-.71.71Z" class="st7"/><path d="m531.41 1134.44 12.17 12.17c3.36 3.36 8.24 3.93 10.9 1.27l9.81-9.81L717.9 984.46l9.81-9.81c2.66-2.66 2.09-7.54-1.27-10.9l-12.17-12.17" class="st7"/><path d="M550.21 1150.07c-.32 0-.64-.02-.96-.06-2.17-.25-4.31-1.33-6.01-3.04l-12.18-12.17.71-.71 12.18 12.17c1.54 1.55 3.47 2.52 5.42 2.75 1.9.21 3.6-.3 4.77-1.48L727.37 974.3c2.46-2.46 1.89-7.03-1.27-10.19l-12.18-12.17.71-.71 12.18 12.17c3.55 3.55 4.12 8.77 1.27 11.62l-173.23 173.23c-1.19 1.19-2.81 1.82-4.64 1.82Z" class="st7"/><path d="m610.87 1030.64 75.39-75.39c.67-.67 1.91-.53 2.76.32l21.88 21.88c.51.51.6 1.26.19 1.66l-86.31 86.31c-.4.4-1.15.32-1.66-.19l-17.74-17.74c-.67-.67-.92-1.59-.63-2.3l5.81-14.09c.07-.17.17-.33.3-.46Z" class="st7"/><path d="m621.723 1063.842 87.774-87.774 2.142 2.143-87.773 87.773zM618.384 1060.495l87.773-87.773 1.669 1.668-87.773 87.774zM615.041 1057.155l87.773-87.773 1.188 1.188-87.773 87.773zM611.695 1053.806l87.773-87.773.714.714-87.773 87.773z" class="st7"/><path d="M624.18 1065.87c-.09 0-.19 0-.29-.02-.63-.07-1.25-.38-1.75-.88l-17.13-17.13c-.81-.81-1.1-1.96-.74-2.85l5.92-14.35c.02-.06.06-.12.11-.17l75.58-75.58c.43-.43 1.06-.62 1.73-.55.64.07 1.26.38 1.75.88l21.27 21.26c1.05 1.05 1.19 2.61.32 3.48l-85.34 85.33c-.37.37-.88.57-1.44.57Zm-13.08-34.75-5.88 14.26c-.21.52 0 1.24.52 1.75l17.13 17.13c.33.33.74.54 1.15.59.37.05.68-.05.9-.27l85.34-85.34c.47-.47.32-1.41-.32-2.05l-21.27-21.26c-.32-.33-.74-.54-1.15-.59-.37-.04-.68.05-.9.26l-75.51 75.51Z" class="st7"/><path d="m596.89 1068.97-9.94-9.94c-1.48-1.48-2.02-3.55-1.36-5.15l11.62-28.17c.17-.41.41-.78.72-1.08l84.95-84.94c1.54-1.54 4.34-1.25 6.24.64l18.22 18.22-.71.71-18.22-18.22c-1.5-1.5-3.66-1.79-4.81-.64l-84.94 84.94c-.21.21-.38.46-.5.75l-11.62 28.17c-.51 1.23-.05 2.86 1.14 4.05l9.94 9.94-.71.71Z" class="st7"/><path d="M612.73 1082.74c-.17 0-.34-.01-.52-.03-1.16-.14-2.29-.71-3.19-1.61l-12.13-12.13.71-.71 12.13 12.13c.74.74 1.67 1.21 2.6 1.32.88.11 1.67-.14 2.21-.68l104.84-104.84c1.15-1.15.86-3.3-.64-4.8l-12.13-12.14.71-.71 12.13 12.14c1.9 1.9 2.18 4.69.64 6.23l-104.84 104.84c-.65.65-1.54 1-2.53 1Z" class="st7"/><path d="M534.76 1137.79 520.97 1124c-2.67-2.67-3.68-6.39-2.51-9.22l10.42-25.27c.29-.7.7-1.32 1.22-1.84l145.51-145.51 9.81-9.81c2.66-2.66 7.54-2.09 10.9 1.27l21.3 21.3" class="st8"/><path d="m534.4 1138.14-13.79-13.79c-2.81-2.82-3.87-6.74-2.62-9.77l10.42-25.27c.31-.76.76-1.44 1.33-2l155.32-155.32c2.86-2.85 8.06-2.28 11.62 1.27l21.3 21.3-.71.71-21.3-21.3c-3.16-3.16-7.73-3.73-10.19-1.27l-155.32 155.32c-.47.47-.85 1.04-1.11 1.67l-10.42 25.27c-1.1 2.66-.13 6.14 2.4 8.67l13.79 13.79-.71.71Z" class="st8"/><path d="m534.76 1137.79 12.17 12.17c3.36 3.36 8.24 3.93 10.9 1.27l9.81-9.81 153.61-153.61 9.81-9.81c2.66-2.66 2.09-7.54-1.27-10.9l-12.17-12.17" class="st6"/><path d="M553.54 1153.41c-2.36 0-4.93-1.06-6.97-3.09l-12.17-12.17.71-.71 12.17 12.17c3.16 3.16 7.73 3.73 10.19 1.27L730.7 977.65c2.46-2.46 1.89-7.03-1.27-10.19l-12.17-12.17.71-.71 12.17 12.17c3.55 3.55 4.12 8.76 1.27 11.62L558.18 1151.6c-1.22 1.22-2.88 1.82-4.65 1.82Z" class="st8"/><path d="m614.21 1033.99 75.39-75.39c.67-.67 1.91-.53 2.76.32l21.88 21.88c.51.51.6 1.26.19 1.66l-86.31 86.31c-.4.4-1.15.32-1.66-.19l-17.74-17.74c-.67-.67-.92-1.59-.63-2.3l5.81-14.09c.07-.17.17-.33.3-.46Z" class="st3"/><path d="m625.074 1067.184 87.773-87.773 2.143 2.143-87.774 87.773zM621.724 1063.842l87.774-87.773 1.668 1.669-87.773 87.773zM618.385 1060.495l87.773-87.773 1.188 1.188-87.773 87.773zM615.035 1057.149l87.773-87.774.715.715-87.774 87.773z" class="st6"/><path d="M627.53 1069.21c-.09 0-.19 0-.29-.02-.63-.07-1.25-.38-1.75-.88l-17.13-17.13c-.81-.81-1.1-1.96-.73-2.85l5.92-14.35c.02-.06.06-.12.11-.17l75.58-75.58c.43-.43 1.06-.64 1.73-.55.64.07 1.26.38 1.75.87l21.27 21.27c1.05 1.05 1.19 2.6.32 3.47l-85.34 85.34c-.37.37-.88.57-1.44.57Zm-13.09-34.74-5.88 14.26c-.21.52 0 1.24.52 1.75l17.13 17.13c.64.64 1.58.79 2.05.32l85.34-85.34c.47-.47.32-1.4-.32-2.05l-21.27-21.27c-.32-.33-.74-.54-1.15-.59-.37-.04-.68.05-.9.26l-75.51 75.51Z" class="st8"/><path d="m600.23 1072.31-9.94-9.94c-1.48-1.48-2.02-3.55-1.36-5.15l11.62-28.17c.17-.41.41-.77.72-1.08l84.95-84.95c.76-.76 1.86-1.1 3.04-.96 1.16.13 2.29.71 3.19 1.61l18.22 18.22-.71.71-18.22-18.22c-.74-.74-1.66-1.21-2.59-1.32-.88-.11-1.67.14-2.21.68l-84.95 84.95c-.21.21-.38.47-.5.75l-11.62 28.17c-.51 1.23-.05 2.86 1.14 4.05l9.94 9.94-.71.71Z" class="st6"/><path d="M616.08 1086.09c-.17 0-.34-.01-.52-.03-1.16-.13-2.29-.71-3.2-1.61l-12.13-12.13.71-.71 12.13 12.13c.74.74 1.67 1.22 2.6 1.32.89.1 1.67-.14 2.21-.68l104.84-104.84c1.15-1.15.86-3.3-.64-4.81l-12.14-12.13.71-.71 12.14 12.13c1.9 1.9 2.18 4.69.64 6.24L618.59 1085.1c-.65.65-1.54 1-2.53 1Z" class="st8"/><path d="m1261.86 1132-13.79 13.79c-2.67 2.67-6.39 3.68-9.22 2.51l-25.27-10.42c-.7-.29-1.32-.7-1.84-1.22l-145.51-145.51-9.81-9.81c-2.66-2.66-2.09-7.54 1.27-10.9l21.3-21.3" class="st7"/><path d="M1241.37 1149.29c-.95 0-1.87-.17-2.72-.52l-25.27-10.42c-.76-.31-1.44-.76-2-1.33L1056.06 981.7c-1.4-1.4-2.02-3.39-1.77-5.6.25-2.17 1.33-4.31 3.04-6.01l21.3-21.3.71.71-21.3 21.3c-1.55 1.55-2.52 3.47-2.75 5.42-.22 1.9.3 3.6 1.48 4.77l155.32 155.32c.47.47 1.04.85 1.67 1.11l25.27 10.42c2.66 1.09 6.14.13 8.67-2.4l13.79-13.79.71.71-13.79 13.79c-2.03 2.02-4.63 3.14-7.06 3.14ZM1261.86 1132l12.17-12.17c3.36-3.36 3.93-8.24 1.27-10.9l-9.81-9.81-153.61-153.61-9.81-9.81c-2.66-2.66-7.54-2.09-10.9 1.27L1079 949.14" class="st7"/><path d="m1262.22 1132.36-.71-.71 12.17-12.17c3.16-3.16 3.73-7.73 1.27-10.19l-173.23-173.23c-2.46-2.46-7.03-1.89-10.19 1.27l-12.17 12.17-.71-.71 12.17-12.17c3.55-3.55 8.76-4.12 11.62-1.27l173.23 173.23c2.85 2.85 2.28 8.06-1.27 11.62l-12.17 12.17Z" class="st7"/><path d="m1158.06 1052.55-75.39-75.39c-.67-.67-.53-1.91.32-2.76l21.88-21.88c.51-.51 1.26-.6 1.66-.19l86.31 86.31c.4.4.32 1.15-.19 1.66l-17.74 17.74c-.67.67-1.59.92-2.3.63l-14.09-5.81c-.17-.07-.33-.17-.46-.3Z" class="st7"/><path d="m1103.486 953.912 2.143-2.142 87.773 87.773-2.142 2.143zM1100.14 957.252l1.669-1.669 87.773 87.773-1.67 1.67zM1096.79 960.609l1.188-1.188 87.773 87.773-1.188 1.188zM1093.444 963.948l.714-.714 87.773 87.773-.714.714z" class="st7"/><path d="M1173.23 1059.28c-.28 0-.56-.05-.82-.16l-14.35-5.92a.452.452 0 0 1-.17-.11l-75.58-75.58c-.87-.87-.72-2.43.32-3.47l21.27-21.27c1.05-1.05 2.6-1.19 3.47-.32l85.34 85.34c.87.87.72 2.43-.32 3.48l-17.13 17.13c-.58.58-1.33.89-2.03.89Zm-14.69-6.97 14.26 5.88c.52.21 1.24 0 1.75-.52l17.13-17.13c.64-.64.79-1.58.32-2.05l-85.34-85.34c-.46-.47-1.4-.32-2.05.32l-21.27 21.26c-.64.64-.79 1.58-.32 2.05l75.51 75.51Z" class="st7"/><path d="M1182.74 1078.11c-.5 0-1-.09-1.45-.28l-28.18-11.62c-.41-.17-.77-.41-1.08-.72l-84.95-84.95c-.76-.76-1.11-1.84-.97-3.04.13-1.15.71-2.29 1.61-3.19l18.22-18.22.71.71-18.22 18.22c-.74.74-1.21 1.66-1.32 2.59-.1.89.14 1.67.68 2.21l84.95 84.95c.21.21.46.38.75.5l28.18 11.62c1.23.51 2.86.05 4.05-1.14l9.94-9.94.71.71-9.94 9.94c-1.06 1.06-2.42 1.64-3.7 1.64Z" class="st7"/><path d="m1196.38 1066.53-.71-.71 12.13-12.13c.74-.74 1.22-1.67 1.32-2.6.1-.89-.14-1.67-.68-2.21L1103.6 944.04c-1.15-1.15-3.3-.86-4.81.64l-12.13 12.14-.71-.71 12.13-12.14c1.9-1.9 4.69-2.18 6.24-.64l104.84 104.84c.76.76 1.11 1.85.97 3.04-.14 1.16-.71 2.29-1.61 3.2l-12.13 12.13Z" class="st7"/><path d="m1265.2 1128.66-13.79 13.79c-2.67 2.67-6.39 3.68-9.22 2.51l-25.27-10.42c-.7-.29-1.32-.7-1.84-1.22l-145.51-145.51-9.81-9.81c-2.66-2.66-2.09-7.54 1.27-10.9l21.3-21.3" class="st8"/><path d="M1244.71 1145.94c-.95 0-1.87-.17-2.72-.52l-25.27-10.42c-.76-.31-1.43-.76-2-1.33L1059.4 978.35c-1.4-1.4-2.02-3.39-1.77-5.6.25-2.17 1.33-4.31 3.04-6.01l21.31-21.3.71.71-21.31 21.3c-3.16 3.16-3.73 7.73-1.27 10.19l155.32 155.32c.47.47 1.04.85 1.67 1.11l25.27 10.42c2.66 1.1 6.14.13 8.67-2.4l13.79-13.79.71.71-13.79 13.79c-2.03 2.02-4.63 3.14-7.05 3.14Z" class="st8"/><path d="m1265.2 1128.66 12.17-12.17c3.36-3.36 3.93-8.24 1.27-10.9l-9.81-9.81-153.61-153.61-9.81-9.81c-2.66-2.66-7.54-2.09-10.9 1.27l-12.17 12.17" class="st6"/><path d="m1265.56 1129.01-.71-.71 12.18-12.17c1.55-1.55 2.52-3.47 2.75-5.42.22-1.9-.3-3.6-1.48-4.77l-173.24-173.23c-1.17-1.18-2.88-1.7-4.77-1.48-1.95.23-3.87 1.2-5.42 2.75l-12.17 12.18-.71-.71 12.17-12.17c1.71-1.7 3.84-2.78 6.01-3.04 2.21-.26 4.2.37 5.6 1.77L1279 1105.24c1.4 1.4 2.02 3.39 1.77 5.6-.25 2.17-1.33 4.31-3.04 6.01l-12.18 12.18Z" class="st8"/><path d="m1161.4 1049.2-75.39-75.39c-.67-.67-.53-1.91.32-2.76l21.88-21.88c.51-.51 1.26-.6 1.66-.19l86.31 86.31c.4.4.32 1.15-.19 1.66l-17.74 17.74c-.67.67-1.59.92-2.3.63l-14.09-5.81c-.17-.07-.33-.17-.46-.3Z" class="st3"/><path d="m1106.82 950.552 2.142-2.143 87.773 87.774-2.143 2.142zM1103.48 953.919l1.669-1.67 87.773 87.774-1.67 1.669zM1100.133 957.258l1.188-1.188 87.773 87.773-1.188 1.188zM1096.79 960.608l.715-.715 87.773 87.774-.714.714z" class="st6"/><path d="M1176.58 1055.94c-.29 0-.56-.05-.82-.16l-14.35-5.92a.452.452 0 0 1-.17-.11l-75.58-75.58c-.43-.43-.63-1.06-.55-1.73.07-.64.38-1.26.87-1.75l21.26-21.27c1.05-1.04 2.61-1.19 3.48-.32l85.34 85.34c.87.87.72 2.43-.32 3.47l-17.13 17.13c-.58.58-1.32.89-2.03.89Zm-14.7-6.97 14.26 5.88c.52.21 1.24 0 1.75-.52l17.13-17.13c.64-.64.79-1.58.32-2.05L1110 949.81c-.46-.47-1.4-.32-2.05.32l-21.26 21.27c-.33.32-.54.74-.59 1.15-.04.37.05.68.26.9l75.51 75.51Z" class="st8"/><path d="M1186.08 1074.77c-.51 0-1-.09-1.45-.28l-28.17-11.62c-.41-.17-.77-.41-1.08-.72l-84.95-84.94c-1.54-1.54-1.25-4.34.64-6.23l18.22-18.22.71.71-18.22 18.22c-1.5 1.5-1.79 3.66-.64 4.81l84.95 84.94c.21.21.47.38.75.5l28.17 11.62c1.23.51 2.86.05 4.06-1.14l9.94-9.94.71.71-9.94 9.94c-1.06 1.06-2.42 1.64-3.7 1.64Z" class="st6"/><path d="m1199.73 1063.18-.71-.71 12.13-12.13c.74-.74 1.21-1.67 1.32-2.6.1-.89-.14-1.67-.68-2.21l-104.84-104.84c-1.15-1.15-3.3-.86-4.8.64l-12.14 12.13-.71-.71 12.14-12.13c1.9-1.9 4.69-2.18 6.23-.64l104.84 104.84c1.54 1.54 1.25 4.34-.64 6.24l-12.13 12.13Z" class="st8"/><path d="m1259.42 401.56 13.79 13.79c2.67 2.67 3.68 6.39 2.51 9.22l-10.42 25.27c-.29.7-.7 1.32-1.22 1.84l-145.51 145.51-9.81 9.81c-2.66 2.66-7.54 2.09-10.9-1.27l-21.3-21.3" class="st7"/><path d="M1104.47 609.17c-2.36 0-4.94-1.06-6.97-3.09l-21.31-21.3.71-.71 21.3 21.3c3.16 3.16 7.73 3.73 10.19 1.27l155.32-155.32c.47-.47.85-1.04 1.11-1.67l10.42-25.27c1.1-2.66.13-6.14-2.4-8.67l-13.79-13.79.71-.71 13.79 13.79c2.81 2.81 3.87 6.74 2.62 9.77l-10.42 25.27c-.31.76-.76 1.43-1.33 2L1109.1 607.36c-1.22 1.22-2.88 1.81-4.65 1.81Z" class="st7"/><path d="m1259.42 401.56-12.17-12.17c-3.36-3.36-8.24-3.93-10.9-1.27l-9.81 9.81-153.61 153.61-9.81 9.81c-2.66 2.66-2.09 7.54 1.27 10.9l12.17 12.17" class="st7"/><path d="m1076.19 584.78-12.17-12.17c-1.7-1.71-2.78-3.84-3.04-6.01-.26-2.21.37-4.2 1.77-5.6l173.23-173.23c2.85-2.85 8.07-2.28 11.62 1.27l12.17 12.17-.71.71-12.17-12.17c-3.16-3.16-7.73-3.73-10.19-1.27l-173.23 173.23c-1.18 1.17-1.7 2.87-1.48 4.77.23 1.95 1.2 3.87 2.75 5.42l12.17 12.17-.71.71Z" class="st7"/><path d="m1179.96 505.36-75.39 75.39c-.67.67-1.91.53-2.76-.32l-21.88-21.88c-.51-.51-.6-1.26-.19-1.66l86.31-86.31c.4-.4 1.15-.32 1.66.19l17.74 17.74c.67.67.92 1.59.63 2.3l-5.81 14.09c-.07.17-.17.33-.3.46Z" class="st7"/><path d="m1079.178 557.794 87.773-87.773 2.143 2.143-87.774 87.773zM1083.008 561.607l87.773-87.773 1.67 1.67-87.774 87.772zM1086.822 565.438l87.773-87.773 1.188 1.188-87.773 87.773zM1090.652 569.251l87.773-87.773.714.714-87.773 87.773z" class="st7"/><path d="M1103.48 581.67c-.09 0-.19 0-.28-.02-.64-.07-1.26-.38-1.75-.88l-21.27-21.26c-1.05-1.05-1.19-2.6-.32-3.47l85.34-85.34c.87-.87 2.43-.72 3.48.32l17.13 17.13c.81.81 1.1 1.96.73 2.85l-5.92 14.35c-.02.06-.06.12-.11.17l-75.58 75.58c-.37.37-.89.57-1.45.57Zm63.17-110.53c-.28 0-.54.09-.73.27l-85.34 85.34c-.47.47-.32 1.41.32 2.05l21.27 21.26c.32.33.74.54 1.15.59.37.04.69-.05.9-.26l75.51-75.51 5.88-14.26c.21-.52 0-1.24-.52-1.75l-17.13-17.13c-.39-.39-.88-.6-1.32-.6Z" class="st7"/><path d="M1105.44 597.32c-.17 0-.34-.01-.52-.03-1.16-.14-2.29-.71-3.19-1.61l-18.22-18.22.71-.71 18.22 18.22c.74.74 1.66 1.21 2.59 1.32.89.1 1.67-.14 2.21-.68l84.95-84.94c.21-.21.38-.46.5-.75l11.62-28.18c.51-1.23.05-2.86-1.14-4.05l-9.94-9.94.71-.71 9.94 9.94c1.48 1.48 2.02 3.55 1.36 5.15l-11.62 28.18c-.17.41-.41.78-.72 1.08l-84.94 84.94c-.65.65-1.53 1-2.52 1Z" class="st7"/><path d="m1083.51 577.46-12.14-12.14c-1.9-1.9-2.18-4.69-.64-6.23l104.84-104.84c.76-.76 1.86-1.1 3.04-.97 1.16.14 2.29.71 3.2 1.61l12.13 12.13-.71.71-12.13-12.13c-.74-.74-1.67-1.21-2.6-1.32-.88-.1-1.67.14-2.21.68L1071.45 559.8c-1.15 1.15-.86 3.3.64 4.8l12.14 12.14-.71.71Z" class="st7"/><path d="m1256.07 398.21 13.79 13.79c2.67 2.67 3.68 6.39 2.51 9.22l-10.42 25.27c-.29.7-.7 1.32-1.22 1.84l-145.51 145.51-9.81 9.81c-2.66 2.66-7.54 2.09-10.9-1.27l-21.3-21.3" class="st8"/><path d="M1101.13 605.83c-.32 0-.64-.02-.96-.06-2.17-.25-4.31-1.33-6.01-3.04l-21.31-21.3.71-.71 21.31 21.3c1.54 1.55 3.47 2.52 5.42 2.75 1.89.22 3.6-.3 4.77-1.48l155.32-155.32c.47-.47.85-1.04 1.11-1.67l10.42-25.27c1.1-2.66.13-6.14-2.4-8.67l-13.79-13.79.71-.71 13.79 13.79c2.82 2.81 3.87 6.74 2.62 9.77l-10.42 25.27c-.31.76-.76 1.44-1.33 2l-155.32 155.32c-1.19 1.19-2.81 1.82-4.64 1.82Z" class="st8"/><path d="m1256.07 398.21-12.17-12.17c-3.36-3.36-8.24-3.93-10.9-1.27l-9.81 9.81-153.61 153.61-9.81 9.81c-2.66 2.66-2.09 7.54 1.27 10.9l12.17 12.17" class="st6"/><path d="m1072.85 581.43-12.17-12.17c-3.55-3.55-4.12-8.76-1.27-11.62l173.23-173.23c1.4-1.4 3.39-2.03 5.6-1.77 2.17.25 4.31 1.33 6.01 3.04l12.17 12.17-.71.71-12.17-12.17c-1.54-1.55-3.47-2.52-5.42-2.75-1.9-.22-3.6.3-4.77 1.48l-173.23 173.23c-2.46 2.46-1.89 7.03 1.27 10.19l12.17 12.17-.71.71Z" class="st8"/><path d="m1176.62 502.01-75.39 75.39c-.67.67-1.91.53-2.76-.32l-21.88-21.88c-.51-.51-.6-1.26-.19-1.66l86.31-86.31c.4-.4 1.15-.32 1.66.19l17.74 17.74c.67.67.92 1.59.63 2.3l-5.81 14.09c-.07.17-.17.33-.3.46Z" class="st3"/><path d="m1075.844 554.454 87.774-87.773 2.142 2.143-87.773 87.773zM1079.658 558.275l87.773-87.774 1.669 1.67-87.773 87.772zM1083.488 562.088l87.773-87.773 1.188 1.188-87.773 87.773zM1087.301 565.918l87.774-87.773.714.714-87.773 87.774z" class="st6"/><path d="M1100.14 578.33c-.7 0-1.44-.3-2.03-.89l-21.27-21.27a3.03 3.03 0 0 1-.88-1.75c-.08-.68.12-1.29.56-1.73l85.34-85.34c.44-.44 1.04-.64 1.73-.55.63.07 1.25.38 1.75.88l17.13 17.13c.81.81 1.1 1.96.74 2.85l-5.92 14.35c-.02.06-.06.12-.11.17l-75.58 75.58c-.38.38-.9.57-1.44.57Zm63.17-110.53c-.29 0-.55.1-.73.28l-85.34 85.34c-.22.21-.31.53-.27.9.05.41.26.82.59 1.15l21.26 21.27c.64.64 1.58.79 2.05.32l75.51-75.51 5.88-14.26c.21-.52 0-1.24-.52-1.75l-17.13-17.13c-.33-.33-.74-.54-1.15-.59-.06 0-.11-.01-.17-.01Z" class="st8"/><path d="M1102.09 593.97c-1.26 0-2.63-.56-3.71-1.63l-18.22-18.22.71-.71 18.22 18.22c1.5 1.51 3.66 1.79 4.8.64l84.95-84.95c.21-.21.38-.46.5-.75l11.62-28.17c.51-1.23.05-2.86-1.14-4.05l-9.94-9.94.71-.71 9.94 9.94c1.48 1.48 2.02 3.55 1.36 5.15l-11.62 28.17c-.17.41-.41.77-.72 1.08l-84.95 84.95c-.67.67-1.57.99-2.53.99Z" class="st6"/><path d="m1080.17 574.12-12.14-12.13c-1.9-1.9-2.18-4.69-.64-6.24l104.84-104.84c1.55-1.54 4.34-1.25 6.24.64l12.13 12.13-.71.71-12.13-12.13c-1.5-1.51-3.66-1.79-4.81-.64l-104.84 104.84c-1.15 1.15-.86 3.3.64 4.81l12.14 12.13-.71.71Z" class="st8"/><path d="m528.97 404 13.79-13.79c2.67-2.67 6.39-3.68 9.22-2.51l25.27 10.42c.7.29 1.32.7 1.84 1.22L724.6 544.85l9.81 9.81c2.66 2.66 2.09 7.54-1.27 10.9l-21.3 21.3" class="st7"/><path d="m712.19 587.22-.71-.71 21.3-21.31c1.55-1.54 2.52-3.47 2.75-5.42.22-1.9-.3-3.6-1.48-4.77L578.73 399.69c-.47-.47-1.04-.85-1.67-1.11l-25.27-10.42c-2.66-1.09-6.14-.13-8.67 2.4l-13.79 13.79-.71-.71 13.79-13.79c2.81-2.81 6.74-3.87 9.77-2.62l25.27 10.42c.76.31 1.43.76 2 1.33L734.77 554.3c1.4 1.4 2.02 3.39 1.77 5.6-.25 2.17-1.33 4.31-3.04 6.01l-21.3 21.31ZM528.97 404l-12.17 12.17c-3.36 3.36-3.93 8.24-1.27 10.9l9.81 9.81 153.61 153.61 9.81 9.81c2.66 2.66 7.54 2.09 10.9-1.27l12.17-12.17" class="st7"/><path d="M693.04 602.49c-1.83 0-3.45-.63-4.64-1.82L515.17 427.44c-1.4-1.4-2.02-3.39-1.77-5.6.25-2.17 1.33-4.31 3.04-6.01l12.18-12.17.71.71-12.18 12.17c-1.55 1.54-2.52 3.47-2.75 5.42-.22 1.9.3 3.6 1.48 4.77l173.23 173.23c1.17 1.18 2.87 1.69 4.77 1.48 1.95-.23 3.87-1.2 5.42-2.75l12.18-12.17.71.71-12.18 12.17c-1.71 1.7-3.84 2.78-6.01 3.04-.33.04-.65.06-.96.06Z" class="st7"/><path d="m632.77 483.45 75.39 75.39c.67.67.53 1.91-.32 2.76l-21.88 21.88c-.51.51-1.26.6-1.66.19l-86.31-86.31c-.4-.4-.32-1.15.19-1.66l17.74-17.74c.67-.67 1.59-.92 2.3-.63l14.09 5.81c.17.07.33.17.46.3Z" class="st7"/><path d="m597.432 496.465 2.142-2.143 87.774 87.774-2.143 2.142zM601.252 492.642l1.67-1.67 87.772 87.774-1.668 1.669zM605.066 488.821l1.188-1.188 87.773 87.773-1.188 1.188zM608.896 484.998l.714-.714 87.773 87.773-.714.714z" class="st7"/><path d="M684.9 584.11c-.55 0-1.06-.19-1.44-.57l-85.34-85.33c-.87-.87-.72-2.43.32-3.48l17.13-17.13c.81-.81 1.96-1.1 2.85-.74l14.35 5.92c.06.02.12.06.17.11l75.58 75.58c.87.87.72 2.43-.32 3.47l-21.26 21.27c-.59.59-1.33.89-2.03.89Zm-67.3-106.39c-.44 0-.94.22-1.32.6l-17.13 17.13c-.64.64-.79 1.58-.32 2.05l85.34 85.33c.46.47 1.41.32 2.05-.32l21.26-21.26c.64-.64.79-1.58.32-2.05l-75.51-75.51-14.26-5.88c-.13-.06-.28-.08-.44-.08Z" class="st7"/><path d="m704.88 579.91-.71-.71 18.22-18.22c1.5-1.5 1.79-3.66.64-4.8l-84.95-84.95c-.21-.21-.47-.38-.75-.5l-28.18-11.62c-1.24-.51-2.86-.05-4.06 1.14l-9.94 9.94-.71-.71 9.94-9.94c1.48-1.47 3.55-2.02 5.15-1.36l28.18 11.62c.41.17.77.41 1.08.72l84.95 84.95c1.54 1.54 1.25 4.34-.64 6.23l-18.22 18.22Z" class="st7"/><path d="M689.04 593.68c-.96 0-1.86-.32-2.53-.99L581.67 487.85c-1.54-1.54-1.25-4.34.64-6.24l12.13-12.13.71.71-12.13 12.13c-1.5 1.5-1.79 3.66-.64 4.81l104.84 104.84c1.14 1.15 3.3.86 4.8-.64l12.14-12.14.71.71-12.14 12.14c-1.08 1.08-2.44 1.63-3.7 1.63Z" class="st7"/><path d="m525.63 407.34 13.79-13.79c2.67-2.67 6.39-3.68 9.22-2.51l25.27 10.42c.7.29 1.32.7 1.84 1.22l145.51 145.51 9.81 9.81c2.66 2.66 2.09 7.54-1.27 10.9l-21.3 21.3" class="st8"/><path d="m708.85 590.56-.71-.71 21.3-21.3c3.16-3.16 3.73-7.73 1.27-10.19L575.39 403.04c-.47-.47-1.04-.85-1.67-1.11l-25.27-10.42c-2.66-1.1-6.14-.13-8.67 2.4l-13.79 13.79-.71-.71 13.79-13.79c2.82-2.81 6.74-3.87 9.77-2.62L574.11 401c.76.31 1.43.76 2 1.33l155.32 155.32c2.85 2.85 2.28 8.06-1.27 11.62l-21.3 21.3Z" class="st8"/><path d="m525.63 407.34-12.17 12.17c-3.36 3.36-3.93 8.24-1.27 10.9l9.81 9.81 153.61 153.61 9.81 9.81c2.66 2.66 7.54 2.09 10.9-1.27l12.17-12.17" class="st6"/><path d="M689.71 605.82c-1.77 0-3.43-.59-4.65-1.81L511.82 430.78c-2.85-2.85-2.28-8.06 1.27-11.62l12.17-12.18.71.71-12.17 12.17c-3.16 3.16-3.73 7.73-1.27 10.19l173.23 173.23c2.46 2.46 7.03 1.89 10.19-1.27l12.17-12.17.71.71-12.17 12.17c-2.03 2.03-4.6 3.09-6.97 3.09Z" class="st8"/><path d="m629.43 486.8 75.39 75.39c.67.67.53 1.91-.32 2.76l-21.88 21.88c-.51.51-1.26.6-1.66.19l-86.31-86.31c-.4-.4-.32-1.15.19-1.66l17.74-17.74c.67-.67 1.59-.92 2.3-.63l14.09 5.81c.17.07.33.17.46.3Z" class="st3"/><path d="m594.082 499.798 2.142-2.142 87.774 87.773-2.143 2.143zM597.912 495.985l1.67-1.669 87.772 87.773-1.668 1.67zM601.733 492.162l1.188-1.188 87.773 87.773-1.188 1.188zM605.546 488.341l.714-.714 87.773 87.773-.714.715z" class="st6"/><path d="M681.55 587.46c-.56 0-1.07-.2-1.44-.57l-85.34-85.33c-.44-.44-.63-1.05-.55-1.73.07-.63.38-1.25.88-1.75l17.13-17.13c.81-.81 1.96-1.1 2.85-.73l14.35 5.92c.06.02.12.06.17.11l75.58 75.58c.43.43.63 1.06.55 1.73-.07.64-.38 1.26-.87 1.75l-21.27 21.27c-.49.49-1.11.8-1.75.88-.1.01-.19.02-.29.02Zm-67.3-106.39c-.44 0-.94.22-1.32.6l-17.12 17.13c-.33.33-.54.74-.59 1.15-.04.37.05.68.27.9l85.34 85.34c.21.22.53.31.9.27.41-.05.82-.26 1.15-.59l21.27-21.27c.33-.32.54-.74.59-1.15.04-.37-.05-.69-.26-.9l-75.51-75.51-14.26-5.88c-.13-.06-.28-.08-.44-.08Z" class="st8"/><path d="m701.53 583.25-.71-.71 18.22-18.22c1.5-1.5 1.79-3.66.64-4.81l-84.95-84.94c-.21-.21-.46-.38-.75-.5l-28.17-11.62c-1.23-.51-2.86-.05-4.05 1.14l-9.94 9.94-.71-.71 9.94-9.94c1.48-1.48 3.54-2.02 5.15-1.36l28.17 11.62c.41.17.78.41 1.08.72l84.95 84.94c1.54 1.54 1.25 4.34-.64 6.24l-18.22 18.22Z" class="st6"/><path d="M685.69 597.02c-.99 0-1.87-.35-2.52-1L578.33 491.18c-.76-.76-1.11-1.84-.97-3.04.14-1.16.71-2.29 1.61-3.2l12.13-12.13.71.71-12.13 12.13c-.74.74-1.21 1.67-1.32 2.6-.1.89.14 1.67.68 2.21L683.88 595.3c.54.54 1.33.78 2.21.68.93-.11 1.85-.58 2.59-1.32l12.14-12.14.71.71-12.14 12.13c-.9.9-2.04 1.48-3.19 1.61-.17.02-.35.03-.52.03Z" class="st8"/></g></g><rect width="860.84" height="573.89" x="608.47" y="481.05" rx="30" ry="30" style="stroke:#fff;stroke-miterlimit:10;stroke-width:.67px;fill:none"/></svg>